<svg width="655.36" height="655.36" version="1.1" viewBox="0 0 173.4 173.4" xml:space="preserve" xmlns="http://www.w3.org/2000/svg"><g fill="#fff" stroke="#0b0b0b" stroke-linecap="round" stroke-linejoin="round" stroke-miterlimit="5"><path d="m23.197 139.62c6.9036 0.0124 119.63-0.10073 126-0.13565 2.4534-0.0135 5.1895-0.53075 6.8743-2.6302 1.3404-1.6702 2.1714-3.72 2.4338-5.8003 0.99027-7.8512 5.2454-44.41 7.3933-62.657 0.42081-3.575 0.11505-8.9055-1.2997-10.721-1.4095-1.8084-13.596-17.729-16.359-21.379-1.3414-1.7718-2.8381-3.2198-5.8242-3.2445-2.9786-0.02471-109.02-0.27628-110.93-0.29254-2.4122-0.02062-4.5422 0.36537-6.5955 2.9786-2.0478 2.6063-14.708 19.388-16.382 21.701-1.5169 2.0956-1.7552 4.4147-1.5425 7.6061 0.21276 3.1914 6.1656 52.167 8.138 68.348 0.19574 1.6058 0.93916 3.2312 2.2393 4.3057 2.3193 1.9168 3.799 1.9165 5.8519 1.9202z" stroke-width="10.583" style="paint-order:normal"/><path d="m11.69 61.806h149.71" fill-opacity=".43627" stroke-width="10.247" style="paint-order:normal"/></g><path d="m32.35 61.806 3.3171 33.602-15.294 0.0134-3.9253-33.615zm116.76 67.248-14.687-0.0124-1.033 10.465 14.501-0.0181zm-8.0491-67.248-3.3171 33.602 15.294 0.01344 3.9253-33.615zm10.324 47.769-15.038-0.0134-0.52606 5.3263 14.943 0.0124zm-127.09 19.479 14.687-0.0124 1.033 10.465-14.501-0.0181zm-2.2748-19.479 15.038-0.0134 0.52606 5.3263-14.943 0.0124z" fill="#0b0b0b" style="paint-order:stroke fill markers"/><path d="m35.328 91.972-15.356 0.0134 2.2641 19.386 15.006-0.0134zm102.67 0.91661-1.7949 18.181 15.011 0.0134 2.1233-18.181zm-105.22-0.91439 1.9855 21.194-9.6554-0.0126-2.1761-21.168zm107.88 0.91669 9.8258 0.0086-2.1645 20.339-9.6714-8e-3zm-103.24 20.255-14.974 0.0124 2.0906 17.901 14.651-0.0124zm98.536 0.0824-1.7073 17.625 14.654 0.0124 2.0584-17.625zm-101.36-1.8671 2.1453 19.688-9.5442-0.0122-2.298-19.687zm104.27-0.28922 9.6896 8e-3 -2.1183 19.784-9.5165-0.0817z" fill="#0b0b0b" stop-color="#000000" stroke-linecap="round" stroke-miterlimit="5" style="paint-order:stroke fill markers"/><g stroke-linecap="round" stroke-miterlimit="5"><g fill="#0b0b0b"><path d="m87.316 77.377-2.9141 3.1074c-5.04-2.7742-10.371-2.9062-10.371-2.9062l-0.62695-0.0078-0.30859 0.54492s-3.1528 5.41-2.2988 11.127l0.11328 0.75195 0.74805 0.13281s0.76727 0.13881 1.7188 0.23438c0.95148 0.09557 2.0556 0.18232 3.0352-0.03711 2.4895-0.55767 4.9545-1.7663 6.7988-3.623 0.77607-0.78124 1.2977-1.8737 1.7266-2.8262s0.71289-1.7578 0.71289-1.7578zm13.422 0.3418-0.62695 0.0059s-6.2593-0.02591-10.783 3.5723l-0.5957 0.47461 0.25781 0.71484s0.26522 0.73366 0.6582 1.6055c0.39298 0.87181 0.86899 1.8708 1.5488 2.6094 1.7277 1.8771 4.007 3.4092 6.5371 4.0781 1.0646 0.28145 2.2712 0.18686 3.3105 0.08203 1.0393-0.10483 1.8789-0.26367 1.8789-0.26367l4.9434-0.92773-4.1524-0.96875c-0.11766-5.7516-2.6699-10.436-2.6699-10.436zm-26.059 2.0605c0.88356 0.04169 4.6422 0.35508 8.6172 2.5117-0.11002 0.27978-0.11436 0.3288-0.28906 0.7168-0.3886 0.86303-0.96224 1.8643-1.2969 2.2012-1.4968 1.5069-3.6248 2.5721-5.7617 3.0508-0.43268 0.09692-1.4976 0.0809-2.3613-0.0059-0.38472-0.03864-0.42221-0.0546-0.69336-0.09375-0.29522-4.0229 1.3721-7.5758 1.7852-8.3809zm24.783 0.14844c0.40552 0.78567 2.0168 4.198 2.1367 8.7188-0.29775 0.04472-0.34262 0.06456-0.76758 0.10742-0.94171 0.09499-2.0975 0.09989-2.5566-0.02148-2.0533-0.54288-4.0385-1.8536-5.5215-3.4648-0.30026-0.32621-0.81903-1.2554-1.1758-2.0469-0.15858-0.35181-0.16402-0.3923-0.26562-0.64648 3.3357-2.2672 7.2453-2.6016 8.1504-2.6465zm-31.045 12.156c-5.4329 2.936-8.4336 8.0352-8.4336 8.0352l-0.32031 0.53711 0.31836 0.54102s3.1101 5.4338 8.4883 7.5527l0.70703 0.2793 0.48828-0.58203s0.50399-0.59487 1.0625-1.3711c0.55851-0.77623 1.1866-1.6884 1.4863-2.6465 0.76177-2.4348 0.9475-5.1755 0.26172-7.7012-0.28855-1.0627-0.97354-2.0605-1.584-2.9082-0.61044-0.84766-1.168-1.4961-1.168-1.4961l-1.7852 1.082zm36.428 1.4238-0.49023 0.58203s-0.50399 0.59681-1.0625 1.373c-0.55851 0.77623-1.1866 1.6865-1.4863 2.6445-0.76178 2.4348-0.94747 5.1755-0.26172 7.7012 0.28856 1.0627 0.97355 2.0605 1.584 2.9082 0.61044 0.84766 1.168 1.4961 1.168 1.4961l2.6348 3.0684-0.6582-3.2891c4.9644-2.9763 7.7637-7.5723 7.7637-7.5723l0.32031-0.53906-0.31836-0.54102s-3.1081-5.4338-8.4863-7.5527zm-36.146 0.93945c0.18755 0.23545 0.2271 0.26492 0.47656 0.61133 0.55312 0.76806 1.1334 1.7664 1.2578 2.2246 0.55656 2.0498 0.41561 4.4237-0.23828 6.5137-0.13238 0.42316-0.67853 1.3383-1.1855 2.043-0.22541 0.31329-0.2584 0.33764-0.42774 0.55274-3.6325-1.7561-5.8771-4.9769-6.3672-5.7363 0.47803-0.74459 2.6291-3.845 6.4844-6.209zm36.74 1.6973c3.6324 1.756 5.877 4.9767 6.3672 5.7363-0.47823 0.74487-2.6286 3.8451-6.4844 6.209-0.18749-0.23538-0.22536-0.26521-0.47461-0.61132-0.55312-0.76806-1.1353-1.7664-1.2598-2.2246-0.55654-2.0498-0.41367-4.4237 0.24024-6.5137 0.13238-0.42316 0.67657-1.3363 1.1836-2.041 0.22591-0.31398 0.25823-0.33941 0.42773-0.55469zm-32.971 15.072c-1.0393 0.10481-1.8789 0.26367-1.8789 0.26367l-2.209 0.41406 1.3906 1.1602c0.01875 5.9057 2.6973 10.758 2.6973 10.758l0.30664 0.54688 0.62695-6e-3s6.2593 0.0241 10.783-3.5742l0.5957-0.47266-0.25781-0.71484s-0.26523-0.73367-0.6582-1.6055c-0.39298-0.8718-0.86904-1.8727-1.5488-2.6113-1.7277-1.8771-4.007-3.4072-6.5371-4.0762-1.0646-0.28145-2.2712-0.18684-3.3105-0.082zm27.822 1.2383c-0.95149-0.0956-2.0556-0.18429-3.0352 0.0352-2.4895 0.55769-4.9564 1.7663-6.8008 3.623-0.77605 0.78123-1.2957 1.8737-1.7246 2.8262-0.42888 0.95247-0.71289 1.7598-0.71289 1.7598l-1.0293 2.9316 2.1172-1.375c5.0867 2.8629 10.531 2.9805 10.531 2.9805l0.62695 0.01 0.3086-0.54687s3.1529-5.41 2.2988-11.127l-0.11328-0.75-0.74804-0.13477s-0.76727-0.13686-1.7188-0.23242zm-27.609 0.86719c0.94171-0.095 2.0975-0.0979 2.5566 0.0234 2.0533 0.54288 4.0384 1.8516 5.5215 3.4629 0.30032 0.3263 0.81903 1.2554 1.1758 2.0469 0.15899 0.35272 0.16393 0.39398 0.26562 0.64844-3.3357 2.2673-7.2453 2.5996-8.1504 2.6445-0.4057-0.78605-2.0149-4.1982-2.1348-8.7188 0.29743-0.0446 0.34179-0.0647 0.76562-0.10742zm25.037 1.2344c0.43267-0.0969 1.4976-0.0829 2.3613 4e-3 0.38472 0.0386 0.42221 0.0546 0.69336 0.0937 0.29606 4.0235-1.372 7.5776-1.7852 8.3828-0.88363-0.0417-4.6438-0.35423-8.6191-2.5117 0.11009-0.28 0.11596-0.32803 0.29102-0.7168 0.3886-0.86301 0.96223-1.8662 1.2969-2.2031 1.4968-1.5069 3.6248-2.5701 5.7617-3.0488z" stop-color="#000000" stroke-linecap="butt" style="paint-order:stroke fill markers"/><path d="m87.005 73.331-1.0418 1.9988c-0.18725 0.29273-2.8726 4.5356-2.4961 8.8496 0.18644 2.1357 0.79789 4.3479 2.0469 6.3906-0.75142 0.63886-1.6401 1.2542-2.7148 1.8457-1.4357 0.79018-2.7993 1.2104-4.1211 1.4863-1.039-2.1478-2.5871-3.731-4.2402-4.7559-1.6914-1.0485-3.8905-1.46-5.7227-1.6953-1.8322-0.23534-3.3105-0.24609-3.3105-0.24609l-2.0547-0.01563 0.99219 1.7969s0.68065 1.2345 1.7734 2.6406c1.0928 1.4062 2.5874 3.0463 4.5078 3.8906 1.8578 0.81685 4.1117 1.2129 6.5566 1.0352 0.25638 1.0751 0.39744 2.2834 0.28125 3.7734-0.12738 1.6336-0.44028 2.9283-0.83398 4.0898-0.17517-0.0263-0.3604-0.12292-0.53516-0.13868-2.0443-0.18429-3.9645 0.40758-6.0156 1.541-4.3631 2.411-6.2949 7.3262-6.2949 7.3262l-0.73047 1.7695 1.9121-0.11328s5.2851-0.17822 8.7773-2.7383c1.6909-1.2398 3.1487-2.8038 4.2422-4.8359 1.0059 0.37407 2.1152 0.90338 3.4707 1.7363v2e-3c1.4444 0.88753 2.4847 1.8731 3.3613 2.8984-1.6111 2.2043-2.4826 4.7181-2.4512 7.2559 0.05792 4.6755 3.2207 8.2344 3.2207 8.2344l0.96289 1.1172 0.89844-1.1719s2.9785-3.739 2.6562-8.3262c-0.16418-2.3371-0.87567-4.7469-2.2715-6.9922 0.9315-0.91612 2.0141-1.7672 3.4258-2.4453 1.2809-0.61529 2.5086-1.0081 3.6934-1.2676 1.1991 2.3994 2.9862 4.2627 5.0977 5.623 4.0911 2.6358 9.1855 1.3379 9.1855 1.3379l1.6797-0.39063-0.94922-1.4414s-2.3753-3.6764-5.8203-6.0058c-2.1299-1.4402-4.8248-1.952-7.7324-1.6953-0.34359-1.1698-0.56854-2.463-0.5332-4.0332 0.03652-1.6224 0.40777-2.9872 0.91406-4.2402 2.7545 0.35117 5.391-0.04014 7.8516-1.2871 4.476-2.2684 5.6914-7.1719 5.6914-7.1719l0.33008-1.2637-1.2891-0.22266s-3.8588-0.64957-8.0352 1.6543c-2.3075 1.2729-4.3919 3.1956-5.8652 5.6777-1.1588-0.3229-2.36-0.78218-3.6523-1.4941-1.4323-0.78907-2.436-1.6902-3.2734-2.6367 1.696-2.1015 2.5959-4.4584 2.5625-6.9883-0.05797-4.4035-3.0293-8.5996-3.0293-8.5996zm0.14766 5.0887c0.73929 1.4708 1.5313 3.3737 1.5566 5.3008 0.02435 1.8459-0.45942 3.5021-1.5488 5.0293-0.77713-1.4976-1.1546-3.1043-1.3008-4.7793-0.16828-1.9279 0.58491-3.9746 1.293-5.5508zm-19.387 11.365c0.31703 0.02923 0.28532 0.0029 0.64258 0.04883 1.6808 0.2159 3.6853 0.685 4.7637 1.3535 1.1985 0.74299 2.2985 1.6996 3.0996 3.0273-1.7572 0.02098-3.3541-0.31278-4.6816-0.89648-1.2402-0.54526-2.6033-1.9122-3.5762-3.1641-0.15413-0.19833-0.11376-0.18322-0.24805-0.36914zm39.273 0.0332c0.19757-0.01794 0.15047 0.01018 0.32227 0.0039-0.57488 1.2921-1.5714 3.0381-3.8047 4.1699-1.8562 0.94071-3.7088 1.3747-5.6836 1.2559 1.1963-1.7187 2.8284-3.0215 4.627-4.0137 1.74-0.95987 3.3572-1.3087 4.5391-1.416zm-20.088 2.6113c0.98706 1.0947 2.1478 2.128 3.7129 2.9902 1.2593 0.69377 2.4968 1.2172 3.7109 1.582-0.51046 1.3906-0.86197 2.9003-0.90039 4.6074-0.03674 1.6323 0.17931 3.0726 0.54297 4.3906-1.2468 0.30547-2.5214 0.75365-3.8027 1.3691-1.5154 0.72795-2.7485 1.6566-3.8242 2.6738-0.9957-1.1245-2.1619-2.1944-3.6797-3.127-1.3816-0.84897-2.6114-1.4586-3.7871-1.9082 0.44832-1.3256 0.79763-2.7754 0.93164-4.4941 0.12758-1.636-0.03226-3.0544-0.33984-4.3398 1.4496-0.33454 2.928-0.82138 4.4414-1.6543 1.1535-0.63484 2.1291-1.3428 2.9941-2.0898zm-11.354 14.266c-0.85938 1.3826-1.9556 2.4591-3.2793 3.4297-1.4733 1.08-3.4949 1.5996-5.1602 1.9082 0.87384-1.3922 2.1467-3.043 4.0801-4.1113 1.7048-0.94205 2.9904-1.2901 4.3594-1.2266zm22.148 1.2305c1.9607 0.01 3.6825 0.52982 5.0508 1.4551 1.6436 1.1114 2.9303 2.521 3.8711 3.6738-1.5435 0.0789-3.5219-0.025-5.3203-1.1836-1.6572-1.0677-3.0505-2.2831-4.0176-3.8945 0.13336-4e-3 0.28478-0.0514 0.41602-0.0508zm-11.5 5.8984c0.91338 1.6924 1.3306 3.4887 1.459 5.3164 0.14965 2.13-0.59667 3.8769-1.2793 5.1387-0.7639-1.2284-1.6325-2.9551-1.6602-5.1895-0.02244-1.8132 0.45167-3.6273 1.4805-5.2656z" stop-color="#000000" stroke-linecap="butt" style="paint-order:stroke fill markers"/><path d="m86.939 69.086-2.791 4.5586 0.02734-0.03906s-3.4691 4.8821-2.9746 10.547c0.15706 1.7994 0.69977 3.6738 1.5137 5.502-0.3304 0.23747-0.64338 0.47822-1.0449 0.69922-0.72858 0.40098-1.4194 0.64612-2.1094 0.88086-1.174-1.7594-2.597-3.1928-4.1133-4.1328-2.2451-1.3918-4.7174-1.7787-6.6836-2.0312-1.9957-0.25636-3.6172-0.26758-3.6172-0.26758l-5.8809-0.04687 2.8418 5.1465s0.76772 1.3968 1.9863 2.9648c1.2012 1.5456 2.8809 3.4913 5.4238 4.6094 1.6474 0.72432 3.5541 1.0732 5.5527 1.1699 0.03877 0.47283 0.09314 0.92182 0.04883 1.4902-0.06352 0.81458-0.1992 1.4537-0.33594 2.1016-2.0831 0.0794-4.0983 0.63471-6 1.6856-5.3047 2.9313-7.3633 8.541-7.3633 8.541l-2.0801 5.043 5.4727-0.32226h-0.04102s5.7295 0.0111 10.111-3.2012c1.4011-1.0272 2.6324-2.363 3.7168-3.8848 0.50373 0.24258 0.98357 0.46149 1.6152 0.84961 0.70879 0.4355 1.2379 0.90091 1.7676 1.3711-1.2192 2.2078-1.9344 4.6099-1.9043 7.043 0.07084 5.7247 3.8008 9.761 3.8105 9.7715 1.3e-5 1e-5 0.0039 8e-3 0.0039 8e-3l2.7441 3.1836 2.5547-3.332 2e-3 -2e-3c0.0029-3e-3 3.5603-4.2641 3.1602-9.959-0.14604-2.0787-0.74833-4.2432-1.7383-6.3398 0.51151-0.37514 1.0129-0.74946 1.6523-1.0566 0.60462-0.29045 1.1861-0.46308 1.7793-0.64844 1.3584 2.0331 3.0639 3.7066 4.9531 4.9238 5.1439 3.3139 11.041 1.6426 11.041 1.6426l4.7773-1.1094-2.709-4.1133v-2e-3c-1e-3 -2e-3 -2.5139-4.0078-6.5117-6.7109-2.1012-1.4207-4.6085-2.0476-7.2383-2.1328-0.08012-0.56499-0.16932-1.1081-0.1543-1.7754 0.0168-0.74647 0.17162-1.3869 0.32617-2.0371 2.5549 0.02507 5.0455-0.4662 7.332-1.625 5.5426-2.8089 6.9104-8.692 6.9121-8.6992l0.94141-3.6055-3.6914-0.63867h-4e-3s-4.6966-0.77517-9.582 1.9199c-2.1201 1.1696-4.1226 2.8775-5.7441 5.0117-0.57089-0.22513-1.1299-0.43698-1.7441-0.77539-0.60814-0.33503-1.0487-0.70242-1.5059-1.0703 1.2357-2.0979 1.9669-4.3792 1.9355-6.7539-0.07199-5.4626-3.4707-9.9531-3.4707-9.9531zm0.06641 2.9336 1.6211 2.3984 0.0098 0.01563s3.0949 4.2181 3.1582 9.0234c0.03034 2.3011-0.65523 4.5271-2.0059 6.5586l-0.39062 0.58594 0.53516 0.45703c0.6236 0.53449 1.327 1.0842 2.252 1.5938 0.88349 0.48673 1.6738 0.79802 2.4238 1.084l0.58008 0.2207 0.35352-0.50976c1.5196-2.1799 3.5499-3.866 5.6621-5.0312 4.4001-2.4274 8.5586-1.7441 8.5586-1.7441l1.9805 0.3418-0.50976 1.959-4e-3 0.0098s-1.246 5.1956-6.0859 7.6484c-2.2594 1.145-4.701 1.6475-7.252 1.5098l-0.64062-0.03516-0.16797 0.62109c-0.2379 0.87817-0.43982 1.8376-0.46484 2.9492-0.02319 1.0306 0.1022 1.8671 0.22461 2.6387l0.10742 0.67774 0.68555-0.01c2.6442-0.0345 5.07 0.60056 7.0703 1.9531 3.6484 2.4669 6.0625 6.2441 6.0625 6.2441l4e-3 6e-3 1.4668 2.2285-2.6074 0.60547-0.0176 4e-3s-5.2862 1.4323-9.7559-1.4473c-1.8857-1.2149-3.6073-2.8614-4.8711-4.9394l-0.31836-0.52539-0.58789 0.17773c-0.77798 0.23448-1.6049 0.48706-2.502 0.91797-0.96379 0.46298-1.7383 1.0054-2.4297 1.5469l-0.51953 0.40819 0.30664 0.58398c1.1005 2.1031 1.6875 4.311 1.834 6.3965 0.34991 4.9804-2.8027 8.8398-2.8027 8.8398l-0.0098 0.0117-1.3926 1.8184-1.4941-1.7344-0.0078-0.01s-3.3379-3.6782-3.4004-8.7246c-0.02909-2.3511 0.6507-4.7208 1.9648-6.8555l0.33984-0.55078-0.47266-0.44336c-0.68298-0.64203-1.4589-1.288-2.4492-1.8965-0.91939-0.56492-1.6423-0.90688-2.3242-1.2266l-0.62305-0.29101-0.37891 0.57422c-1.0802 1.6454-2.3566 3.0088-3.7754 4.0488-3.8382 2.8138-9.1855 2.8965-9.1855 2.8965h-0.01953l-2.9668 0.17383 1.1289-2.7402 0.0059-0.0137s1.943-5.1071 6.6445-7.7051c1.928-1.0654 3.8778-1.6276 5.9004-1.5781l0.64648 0.0156 0.14648-0.6289c0.1937-0.83621 0.36815-1.7466 0.45508-2.8613 0.07503-0.9623-6e-3 -1.7204-0.07422-2.4121l-0.06836-0.70898-0.71289-0.0059c-2.1079-0.01883-4.0664-0.3986-5.6875-1.1113-2.1553-0.94761-3.6562-2.6435-4.8105-4.1289-1.1369-1.4629-1.8496-2.7578-1.8496-2.7578l-1.5312-2.7734 3.168 0.02539s1.5312 0.0125 3.4258 0.25586c1.9241 0.24716 4.1414 0.62101 6.0508 1.8047 1.4625 0.90663 2.9137 2.3202 4.0137 4.1562l0.32031 0.53125 0.5918-0.17969c0.92446-0.2817 1.8932-0.65966 2.8984-1.2129 0.71843-0.3954 1.213-0.78892 1.7031-1.1348l0.55469-0.39062-0.29883-0.60742c-0.91418-1.8627-1.4543-3.7966-1.6113-5.5957-0.43051-4.9323 2.6934-9.5039 2.6934-9.5039l0.01367-0.01758zm-0.2168 21.096-0.54102 0.43359s-1.3588 1.0715-2.0273 1.4395c-1.1573 0.63695-2.3131 1.0773-3.4785 1.4355l-0.65039 0.19922 0.09766 0.67383c0.15743 1.0807 0.29492 2.0978 0.20508 3.25-0.09887 1.268-0.3459 2.3936-0.64062 3.5039l-0.16992 0.64063 0.60156 0.28125c0.92822 0.43449 1.8248 0.86837 2.7988 1.4668h2e-3l0.0059 6e-3c1.1283 0.69442 2.0489 1.4965 2.9316 2.3496l0.5 0.48438 0.54492-0.4336c0.94182-0.74912 1.8908-1.4429 3.0059-1.9785 0.88627-0.42573 1.8053-0.68713 2.7812-0.99414l0.67578-0.21289-0.13477-0.69532c-0.21692-1.1174-0.40956-2.1848-0.38281-3.373 0.02885-1.2818 0.30171-2.4427 0.62695-3.6289l0.19141-0.69922-0.67969-0.25391c-0.93526-0.35001-1.8076-0.6469-2.6544-1.1134-1.2152-0.66946-2.2095-1.4554-3.1074-2.3047zm-0.04883 2.0273c0.85538 0.7604 1.7496 1.5148 2.8926 2.1445 0.78634 0.43321 1.5267 0.68525 2.2578 0.95508-0.26423 1.0359-0.53489 2.0879-0.5625 3.3145-0.02532 1.125 0.16144 2.0785 0.33398 3.0234-0.77 0.239-1.55 0.46111-2.375 0.85742-1.071 0.51447-1.9275 1.1671-2.7676 1.8125-0.80485-0.749-1.6309-1.5044-2.7012-2.1621h-2e-3l-0.18945-0.11719h-0.0332c-0.76956-0.4591-1.4856-0.81201-2.1895-1.1484 0.24266-0.98497 0.48143-1.9854 0.57226-3.1504 0.08688-1.1143-0.05421-2.0529-0.17969-2.9766 1.0486-0.34856 2.1103-0.72248 3.1895-1.3164 0.7474-0.41134 1.3678-0.92953 1.7539-1.2363z" stop-color="#000000" stroke="#fff" stroke-width="1.5875" style="paint-order:stroke fill markers"/></g><path d="m91.709 101c0.13619 2.7846-2.0107 5.1523-4.7953 5.2885-2.7846 0.13619-5.1523-2.0107-5.2885-4.7953-0.13619-2.7846 2.0107-5.1523 4.7953-5.2885 2.7846-0.13619 5.1523 2.0107 5.2885 4.7953z" fill="#fff" stroke="#0b0b0b" stroke-width="2.1815" style="paint-order:normal"/></g></svg>
