<svg width="655.36" height="655.36" version="1.1" viewBox="0 0 173.4 173.4" xml:space="preserve" xmlns="http://www.w3.org/2000/svg"><g><path d="m128.78 86.247s10.086 0.59577 13.839 8.0625c3.1128 6.1922 3.761 11.659 2.5575 17.677-1.2035 6.0177-3.6106 10.832-6.9956 13.314-3.3849 2.4823-17.376-4.8141-17.376-4.8141s0.3162-11.842 1.6549-17.602c4.2723-9.2195 4.8732-10.261 6.3199-16.638z" fill="none" stroke="#000" stroke-linecap="round" stroke-linejoin="round" stroke-miterlimit="5" stroke-width="10.583" style="paint-order:stroke fill markers"/><g fill="#fff" stroke="#000" stroke-linecap="round" stroke-miterlimit="5"><path d="m133.36 90.698s5.5009-3.855 9.2544 3.6117c3.1128 6.1922 3.761 11.659 2.5575 17.677-1.2035 6.0177-3.6106 10.832-6.9956 13.314-3.3849 2.4823-17.376-4.8141-17.376-4.8141s0.3162-11.842 1.6549-17.602c4.2723-9.2195 6.4795-9.0017 10.905-12.187z" stroke-linejoin="round" stroke-width="10.583" style="paint-order:stroke fill markers"/><path d="m113.73 100.63s6.4777 3.7527 8.24 4.2972c2.7118 0.83787 7.0462 1.2427 7.0462 1.2427s-1.787 3.372-2.2384 8.0357c-0.45132 4.6637 1.8316 10.036 1.8316 10.036l-8.5429-2.1057z" stroke-width="9.2604" style="paint-order:stroke fill markers"/><g stroke-linejoin="round"><path d="m46.32 62.1c21.916 16.497 23.468 17.186 35.528 20.791 10.798 3.2282 49.533 2.4841 48.049 3.7642-9.6547 8.3297-11.216 17.449-12.055 24.541-0.9835 8.3066-0.87126 14.655 0.98183 22.556 0.67784 2.8902 0.58689 10.428-1.3161 6.0884-4.8506-11.062-19.797-26.922-37.881-31.709s-35.277-3.4696-44.286-0.28747c-7.5995 2.6844-13.787-11.744-11.368-25.088 2.9486-16.265 19.318-22.938 22.348-20.657z" stroke-width="10.583" style="paint-order:stroke fill markers"/><path d="m89.377 117.6s-4.4391 3.985-5.7991 8.5983c-2.4496 8.3096-0.7796 13.465-1.1686 20.759-0.26055 4.886-1.3987 9.9913-2.0089 10.708-0.66668 0.78301-7.7386 2.9914-12.553 3.8188s-10.681 0.75221-10.681 0.75221 6.6979-6.502 9.1446-12.14c2.4467-5.6381 3.7232-11.276 4.5743-16.595 0.85103-5.3189 2.5531-9.6804 5.3189-13.297 2.7658-3.6169 5.6703-6.2801 5.6703-6.2801s2.6927 0.87996 3.977 1.4806c1.2266 0.57368 3.5257 2.1952 3.5257 2.1952z" stroke-width="9.2604" style="paint-order:stroke fill markers"/><path d="m76.483 112.24s-1.5796 1.7301-3.9115 4.7389c-2.3318 3.0088-4.5133 6.3938-7.146 17.226s-2.983 12.285-5.6158 14.391-5.9683 2.9852-11.911 1.4808c-5.9425-1.5044-6.0929-2.6327-6.0929-2.6327s4.8894-1.0531 7.6725-3.761c2.7832-2.708 6.6947-7.9734 7.6725-10.004s4.037-8.2023 4.9646-10.907c3.1936-9.3126 8.1862-11.583 8.1862-11.583z" stroke-width="9.2604" style="paint-order:stroke fill markers"/></g></g><path d="m76.007 80.805c-0.327 0.10845-4.6002 4.551-6.6531 12.411-1.452 5.559 0.2305 12.991 0.59056 13.301 0.34873 0.3003 20.087 6.9822 20.053 6.6398-0.56683-5.7271-1.9866-9.0899-0.74982-14.559 1.7518-7.7473 5.1769-10.314 6.4125-14.021 0.07409-0.22231-19.283-3.8939-19.653-3.7712z" style="paint-order:stroke fill markers"/><g fill="#fff"><path d="m80.219 82.347c-0.327 0.10845-4.8499 3.727-6.9029 11.587-1.452 5.559 0.5555 12.687 0.91556 12.997 0.34873 0.3003 2.8837 0.89006 3.1464 0.66787 0.23101-0.19541-0.7028-5.3373 0.45132-11.957 1.1689-6.7042 5.6645-12.251 5.5704-12.449-0.10092-0.21148-2.8108-0.96892-3.1808-0.84624zm7.9244 1.6601c-0.33524 0.25106-4.7098 4.946-6.375 13.505-1.2644 6.499 0.56697 11.341 0.81185 11.571 0.2277 0.21439 2.5438 1.2626 2.8455 1.044 0.26112-0.18925-1.4188-4.3561-0.40081-10.998 1.1313-7.3812 6.4602-14.213 6.2428-14.677-0.16449-0.35152-2.7567-0.72017-3.1243-0.44487z" style="paint-order:stroke fill markers"/><path d="m128.8 16.829c-1.5358-0.0082-2.6181 1.2429-3.545 2.3643-0.35127 0.42228-0.86699 1.268-1.4137 1.4259-0.73603 0.21284-1.8557-0.24563-2.6006-0.3411-1.8769-0.242-3.737-0.61216-5.618-0.82825-1.0069-0.11474-1.82-0.35374-2.8165 0.05766-1.916 0.7907-2.1308 3.5911-0.48985 4.7771 0.83935 0.6057 2.0216 0.70505 3.0113 0.81824 1.3499 0.15516 2.6944 0.56988 4.0574 0.59285-0.30324 0.58645-0.83036 1.0628-1.275 1.5503-0.71137 0.77883-1.4106 1.5775-2.1025 2.374-2.5933 2.9772-5.1845 5.9854-7.8689 8.8781-1.4799 1.595-4.3418 3.7438-2.9806 6.2369 0.39186 0.71696 1.4591 1.554 2.3454 1.262 0.54955-0.18132 1.0045-0.85184 1.3742-1.2689 0.59142-0.66698 1.2667-1.268 1.9067-1.8884 1.4776-1.4404 2.9062-2.951 4.3413-4.4342 1.4576-1.5038 3.0132-2.9043 4.4464-4.4296 1.0315-1.0964 2.052-2.1992 3.075-3.302 0.35562-0.38261 1.0665-1.1101 1.0665-1.1101-0.0222 1.4674 0.22529 2.9251 0.34334 4.3837 0.095 1.1662-0.0387 2.477 0.48537 3.5699 0.66488 1.3898 2.3862 1.8941 3.717 1.1975 1.6201-0.84767 1.4418-2.7196 1.3161-4.2563-0.19811-2.4463-0.31425-4.8974-0.51279-7.3424l-0.1764-2.2032c-0.0233-0.29374-0.23731-0.65646-0.17605-0.94631 0.0837-0.39957 0.57193-0.75414 0.83235-1.0344 0.69993-0.75551 1.6936-1.7149 1.8148-2.7982 0.1695-1.5119-0.58773-3.0964-2.2438-3.2865-0.10649-0.01217-0.21061-0.01829-0.313-0.01885z" stroke="#000" stroke-linecap="round" stroke-width="9.2604" style="paint-order:stroke fill markers"/><path d="m78.963 30.185c-1.5266-0.19892-2.7627 0.93124-3.9786 1.674-2.8192 1.6301-5.6482 3.2442-8.4674 4.8743-0.41723 0.24131-0.96466 0.44898-1.3201 0.77513-0.66961 0.61306-0.8007 1.5298-0.54002 2.3657 0.33719 1.0791 1.3428 1.8201 2.1121 2.5735 1.1639 1.1418 2.2131 2.3627 3.3003 3.5761 0.44655 0.49703 0.89355 0.97881 1.3123 1.5053 0.15679 0.19678 0.37371 0.39523 0.33336 0.66722-0.10103 0.69362-1.1911 1.087-1.7006 1.4195-1.3732 0.89412-2.7283 1.8674-4.1532 2.674-0.35486 0.20055-0.75376 0.29676-1.1007 0.5168-0.88433 0.55828-0.86761 1.4573-0.87194 2.3663-0.0029 0.30451-0.13278 0.63955-0.06237 0.94177 0.17616 0.75493 1.0378 1.1297 1.749 0.99127 0.72026-0.14246 1.3089-0.82351 1.9066-1.2065 1.7263-1.1023 3.4357-2.219 5.1634-3.3224 0.58822-0.37522 1.1721-0.79194 1.7905-1.1118 0.2419-0.12527 0.57778-0.3252 0.86219-0.22582 0.66916 0.23414 1.3393 1.2295 1.8123 1.7342 1.2933 1.3755 2.6517 2.6997 3.9876 4.0337 0.86132 0.85763 1.7169 1.5674 3.0111 1.297 1.1577-0.24356 1.6967-1.6328 1.306-2.6726-0.31867-0.84944-1.0846-1.3139-1.6676-1.9646-0.90821-1.0156-1.7625-2.0989-2.7259-3.0592-0.42217-0.42109-0.82523-0.87993-1.2254-1.3224-0.14356-0.15684-0.34772-0.35328-0.28863-0.59095 0.12879-0.53023 1.2193-1.0122 1.6368-1.3045 1.0163-0.70996 2.058-1.4238 3.1422-2.0234 0.80997-0.4491 1.8828-0.8297 2.4357-1.608 0.24149-0.33805 0.30422-0.73064 0.446-1.1102 0.17723-0.47167 0.47487-0.89843 0.47954-1.4255 0.0077-1.4474-1.5935-2.7929-2.4358-3.8352-1.1025-1.3655-2.1462-2.7721-3.2444-4.131-0.33813-0.41976-0.7086-0.82811-1.0225-1.2665-0.22526-0.31342-0.33721-0.68991-0.55964-1.0068-0.329-0.4664-0.8666-0.7202-1.4223-0.79861zm-0.18576 6.2885c1.0805 0.14751 1.9805 1.4653 2.4838 2.2908 0.18426 0.30292 0.29635 0.6342 0.57554 0.86865 0.40784 0.3437 1.4721 0.92503 1.1765 1.6331-0.19671 0.46839-1.2455 0.91742-1.6756 1.176-1.1746 0.70835-2.3211 1.4797-3.4764 2.2174-0.46372 0.29617-1.0292 0.88378-1.5723 1.0124-0.44031 0.10452-1.0837-0.84574-1.3492-1.141-1.0127-1.131-2.226-2.0567-3.2367-3.1825-0.20203-0.22639-0.92714-0.83608-0.89512-1.1475 0.02104-0.20556 0.26777-0.29158 0.42267-0.37743 0.43953-0.24146 0.8876-0.46812 1.3302-0.70304 0.70951-0.375 1.4577-0.85092 2.2122-1.1217 0.21981-0.07904 0.42847-0.0099 0.63861-0.09121 1.0106-0.38957 1.7367-1.1913 2.841-1.4094l0.05151-0.0116c0.16108-0.03153 0.31905-0.03403 0.4734-0.01306zm79.659 16.166c0.12399 0.01059 0.24779 0.02744 0.37055 0.05236 1.1881 0.24358 1.9738 1.2578 2.1263 2.4358 0.0538 0.41617-0.0913 0.83605-0.0949 1.2537-4e-3 0.64524 0.0734 1.1784-0.30462 1.7585-0.55179 0.8518-1.9034 1.1055-2.8029 1.2691l-0.0257 0.04673c0.22428 0.50367 0.6519 0.90418 1.0022 1.3377 0.57109 0.70661 1.1337 1.4346 1.6629 2.1754 0.37907 0.52731 0.51839 1.1951 0.30171 1.8219-0.071 0.20783-0.23827 0.3892-0.28855 0.60166-0.0846 0.34199-0.0423 0.68747-0.19283 1.0338-0.40142 0.91852-1.5761 1.2435-2.4657 0.86565-0.75548-0.32154-1.3041-1.222-1.8027-1.8389-0.98838-1.223-2.0416-2.4181-3.0899-3.5876-0.36408-0.40755-0.7287-1.186-1.2134-1.4444-0.4743-0.25111-1.4044 0.39174-1.9254 0.37835 3.6e-4 0.59356 0.53793 1.1163 0.88646 1.567 0.72557 0.938 1.7106 1.9394 2.2797 2.978 0.61506 1.1218 0.66691 2.9522-0.74218 3.4855-0.42505 0.16087-0.83397-0.0524-1.2617 0.02612-0.44035 0.08088-0.9132 0.18695-1.3635 0.0155-0.66362-0.25222-1.1398-1.1665-1.5185-1.7212-0.81535-1.2029-1.667-2.3807-2.5535-3.5316-0.34404-0.44651-0.71412-1.3755-1.3122-1.5064-0.43461-0.09517-0.93667 0.17449-1.3796 0.17177-0.45773-3e-3 -0.89666-0.1534-1.3486-0.14091-0.85037 0.02305-1.7194 0.31428-2.5598 0.43422-0.81036 0.11564-1.6446 0.18395-2.4469 0.34148-1.3304 0.26159-2.77 0.62362-4.1368 0.4808-0.57687-0.06027-1.1132 0.06275-1.6799 0.03583-0.98539-0.04826-1.9544-0.82879-2.321-1.7181-0.32105-0.77878-0.36582-1.8295-0.26913-2.6616 0.0433-0.37868 0.17543-0.86043 0.5299-1.0685 0.19898-0.11731 0.42245-0.07738 0.63978-0.10815 0.59804-0.08557 1.2294-0.20664 1.8172-0.33682 1.6953-0.37898 3.4234-0.60527 5.1265-0.9399 5.0809-1.0079 10.175-1.9502 15.28-2.8273 1.4918-0.25345 3.0078-0.50575 4.4835-0.79571 0.83245-0.1634 1.725-0.41354 2.5932-0.33984z" stroke="#000" stroke-linejoin="round" stroke-width="9.2604" style="paint-order:stroke fill markers"/></g></g><path id="stag_svg" d="m28.8 10.669h-0.05947c-0.025881-0.12348-0.10843-0.21862-0.17245-0.32601-0.15286-0.25605-0.32391-0.49846-0.49846-0.74017-0.31447-0.43515-0.56457-0.92976-0.83427-1.3922-0.39737-0.68105-0.72408-1.4093-1.1998-2.0435-0.32776-0.43725-0.64817-0.97768-1.1746-1.2044-0.70974-0.30537-1.6682-0.27634-2.2408 0.29628-0.354 0.35399-0.55443 0.91962-0.60235 1.4118-0.01504 0.15461 0.04268 0.29383 0.05947 0.44424 0.05177 0.46523 0.16196 0.92591 0.20708 1.3918 0.02729 0.28019 0.11718 0.54953 0.14831 0.82902 0.16895 1.522 0.72583 3.0446 1.451 4.3833a28.334 28.334 0 0 1 0.70589 1.3922c0.08325 0.17595 0.17525 0.47817 0.33091 0.59221l-1.1207 1.1452-0.50826 0.63173c-0.26515-0.20953-0.58871-0.38128-0.82902-0.62194-0.51385-0.5135-0.73317-1.2778-1.0763-1.8955-0.14132-0.2543-0.35889-0.5254-0.45404-0.79964-0.04442-0.12768-0.02448-0.25535-0.04932-0.38478-0.02448-0.12593-0.06646-0.2578-0.07906-0.38513-0.01329-0.13677 0.01329-0.27774 0-0.41451-0.01434-0.14866-0.04442-0.29208-0.02973-0.44424 0.02098-0.21373 0.05107-0.43375 0.02973-0.65167l-0.11858-1.1848c-0.01539-0.15776-0.04547-0.31202-0.02938-0.47362 0.12138-1.2495 0.3526-2.4846 0.47363-3.7316 0.03288-0.33546 0.15846-0.67791 0.22737-1.0071 0.06122-0.29383 0.11578-0.59291 0.17735-0.88848 0.03848-0.18469 0.04618-0.38233 0.10844-0.56282 0.12173-0.3491 0.25046-0.72233 0.28684-1.0956 0.019937-0.20743-0.02973-0.39457-0.079058-0.59256-0.086748-0.3456-0.16266-0.59396-0.37533-0.88848-0.15286-0.21163-0.40541-0.42955-0.64153-0.54778-0.13852-0.06926-0.32391-0.080453-0.47397-0.11368-0.14656-0.032531-0.29068-0.093746-0.44424-0.078704-0.11054 0.010494-0.21792 0.054918-0.32566 0.078704-0.1665 0.037078-0.38618 0.048622-0.53309 0.13852-0.35539 0.21687-0.60445 0.50651-0.8689 0.81922-0.14307 0.16895-0.32706 0.30327-0.46873 0.47397-0.12942 0.15601-0.24626 0.3358-0.36029 0.50336-0.09549 0.13992-0.15846 0.29733-0.24206 0.44424-0.24591 0.432-0.48902 0.87519-0.68595 1.3327-0.18749 0.4348-0.32811 0.89093-0.49391 1.3327-0.15881 0.4236-0.36029 0.84406-0.50336 1.2733-0.04128 0.12418-0.12278 0.22912-0.15776 0.35574a20.638 20.638 0 0 0-0.32601 1.303c-0.05072 0.24311-0.05806 0.49741-0.10844 0.74052-0.06226 0.29908-0.13817 0.61319-0.1679 0.91787-0.01504 0.15671 0.01504 0.31762 0 0.47397-0.01155 0.11893-0.04757 0.23646-0.05947 0.35539-0.03323 0.3435 0.0039 0.6933-0.02938 1.0364-0.02659 0.27249-0.07765 0.59081 0 0.8591-0.15776-0.05002-0.31342-0.11298-0.47398-0.15321-0.09654-0.02414-0.24836-0.04198-0.32076-0.11823-0.05002-0.05352-0.03043-0.13607-0.04442-0.20253-0.03498-0.16825-0.08115-0.33511-0.11858-0.50371-0.14097-0.63523-0.28229-1.2775-0.34525-1.9249-0.01679-0.1714-0.10179-0.33231-0.11858-0.50336-0.01889-0.19589 0.01889-0.39667 0-0.59221-0.02868-0.29698-0.11893-0.59046-0.14796-0.88848-0.02868-0.29488-0.0011-0.59396-0.02973-0.88848-0.02799-0.28718-0.08814-0.56317-0.05947-0.8591 0.03288-0.33441 0.08605-0.67091 0.11893-1.0067 0.03393-0.35225-0.03463-0.71429 0-1.0662 0.0095-0.10004 0.04897-0.19659 0.05911-0.29628 0.04687-0.48272-0.03743-0.95844-0.15321-1.4216-0.04126-0.16615-0.06085-0.34315-0.12347-0.50371-0.15881-0.40856-0.49636-0.81957-0.90807-0.99692-0.12138-0.05247-0.2578-0.061914-0.38478-0.093745-0.12313-0.030782-0.25815-0.08675-0.38513-0.093746-0.11508-0.0063-0.24521 0.05142-0.35539 0.079054-0.36659 0.091647-0.6884 0.18469-0.96754 0.46383-0.14027 0.14027-0.23646 0.33021-0.3456 0.49356a5.3169 5.3169 0 0 0-0.62194 1.2736c-0.10424 0.31237-0.27179 0.61284-0.39492 0.91822-0.12838 0.31901-0.21303 0.64468-0.29593 0.97733-0.061564 0.24521-0.0871 0.49391-0.13852 0.74017-0.13187 0.63453-0.29243 1.2617-0.4243 1.8955-0.066462 0.31971-0.06926 0.65622-0.12838 0.97733-0.33406-0.070309-0.33091-0.33406-0.39492-0.62194-0.03533-0.15951-0.094795-0.31377-0.12838-0.47397-0.044074-0.21268-0.033581-0.43445-0.079054-0.65132-0.022737-0.11019-0.0087449-0.21478-0.019589-0.32601l-0.088848-0.91787c-0.036029-0.37183 0.036029-0.75381 0-1.1256-0.01644-0.1693-0.072408-0.33476-0.088848-0.50336-0.012593-0.12977 0.042326-0.2529 0.029733-0.38478-0.025185-0.25955-0.10144-0.5156-0.15811-0.77025-0.10179-0.45823-0.53729-0.93046-0.96754-1.1159-0.12138-0.05212-0.2578-0.061564-0.38478-0.093396-0.12768-0.031832-0.28229-0.10144-0.41486-0.093746-0.14761 0.0080453-0.30013 0.076606-0.44424 0.10844-1.4408 0.32006-1.8242 1.9249-2.2555 3.1195-0.22562 0.62439-0.46383 1.3194-0.52819 1.9844-0.012942 0.13117-0.076256 0.25395-0.088848 0.38478-0.025185 0.25815-0.064013 0.5142-0.088848 0.77025-0.011543 0.11718 0.011194 0.23786 0 0.35539-0.015741 0.15986-0.073457 0.31482-0.088848 0.47397-0.03428 0.35329 0.00455 0.71254-0.029733 1.0662-0.015041 0.15321-0.074857 0.28508-0.059465 0.44424 0.03428 0.3498 0.12173 0.6947 0.19764 1.0364 0.14342 0.64363 0.30537 1.4468 0.80943 1.9204 0.42605 0.39947 0.99132 0.48482 1.5402 0.6069 0.23017 0.05107 0.44879 0.20883 0.68105 0.22702v0.02973c-0.49182-0.03883-1.0127-0.13747-1.5104-0.08885-0.14971 0.01434-0.29768 0.07591-0.44424 0.10844-0.18189 0.04057-0.36799 0.0738-0.53309 0.1679-0.29628 0.1686-0.59326 0.44144-0.73038 0.76011-0.17385 0.40367-0.18749 0.87169-0.18749 1.303 0 0.25255-0.024486 0.51875 0 0.77025 0.037428 0.38653 0.19379 0.78914 0.31587 1.155 0.079754 0.23891 0.12942 0.49671 0.19729 0.74017 0.079404 0.28543 0.21303 0.54953 0.30607 0.82937a6.9959 6.9959 0 0 0 0.43445 1.0364c0.20988 0.39842 0.37043 0.82447 0.59221 1.2145 0.49706 0.87274 1.1578 1.658 1.8263 2.3989 0.099342 0.10984 0.1672 0.24486 0.26655 0.35539a10.844 10.844 0 0 0 0.77025 0.7699c0.11019 0.09969 0.24521 0.1672 0.35539 0.26655 0.13992 0.12663 0.2606 0.2641 0.41451 0.37498 0.67721 0.48902 1.4639 0.74157 2.1915 1.1354 0.42151 0.22842 0.8577 0.42256 1.3033 0.60235 0.20393 0.0822 0.40926 0.18749 0.62194 0.24661 0.32286 0.0899 0.65202 0.16091 0.97733 0.24206 0.52889 0.13222 1.0508 0.27144 1.5993 0.27144-0.02798 0.35574-0.14342 0.70904-0.1777 1.0662-0.10774 1.1075-0.05876 2.2702 0.61214 3.1985 0.24066 0.33336 0.62614 0.71114 1.0462 0.79964-0.12033 0.28578-0.06296 0.67546-0.02973 0.97733 0.01049 0.0934 0.08535 0.29383 0.04442 0.37988-0.02659 0.05597-0.10984 0.09025-0.15286 0.13327-0.10984 0.10984-0.21932 0.27004-0.29628 0.40472-0.12033 0.21163-0.15776 0.53274-0.20708 0.77025-0.04897 0.23436 0.09095 0.42815 0.07871 0.65132-0.01539 0.28089-0.11648 0.57297-0.08885 0.8591 0.04722 0.48377 0.21582 0.98398 0.3456 1.451 0.25605 0.92136 0.54183 1.9715 1.4314 2.478 0.12488 0.07101 0.27914 0.0892 0.41486 0.12838-0.0787 0.1756-0.05946 0.37114-0.05946 0.56282 0 0.6793 0.27984 1.2663 0.56282 1.8658 0.19309 0.40891 0.43655 0.78774 0.65167 1.1844 0.19239 0.35504 0.31587 0.74087 0.50825 1.0959 0.23227 0.4285 0.53344 0.81608 0.76501 1.2439 0.26235 0.48377 0.43725 1.0319 0.64188 1.5402 0.10529 0.262 0.23891 0.55443 0.29593 0.82902 0.11158 0.53484 0.18679 1.1225 0.40506 1.629 0.11473 0.26654 0.31447 0.50616 0.48342 0.74052 0.45264 0.62649 0.91297 1.2253 1.4908 1.7472 0.24311 0.21967 0.54988 0.39562 0.82902 0.56282 0.90143 0.53834 1.883 0.8654 2.9026 1.1204 0.772 0.19309 1.5482 0.4313 2.3398 0.50825 0.19099 0.01854 0.37568-0.02169 0.56247-0.02938 0.29733-0.0126 0.58976 0.05841 0.88848 0.02938 0.53799-0.05247 1.0725-0.19868 1.5993-0.31587 0.64118-0.14237 1.3037-0.24836 1.9253-0.46383 0.26235-0.09095 0.51805-0.2515 0.7699-0.37044 0.19554-0.09199 0.39982-0.14516 0.59221-0.24661a8.2902 8.2902 0 0 0 1.629-1.1305c0.1672-0.14901 0.26794-0.38233 0.41451-0.55268a6.891 6.891 0 0 0 0.76011-1.0662c0.09795-0.1714 0.13642-0.35679 0.21722-0.53309q0.18224-0.39597 0.3456-0.79964c0.10389-0.25745 0.13992-0.53764 0.22737-0.79964 0.2557-0.76815 0.54743-1.5479 0.88324-2.2807 0.20288-0.44214 0.53379-0.81503 0.76011-1.2435 0.22387-0.4236 0.39877-0.88219 0.62684-1.3033 0.11578-0.21338 0.25745-0.40926 0.37533-0.62194 0.15741-0.28334 0.28683-0.58766 0.46383-0.85875 0.28543-0.43725 0.42186-0.8584 0.54813-1.3625 0.05667-0.22667 0.12803-0.54743 0.03428-0.7699 0.39702-0.14622 0.69714-0.49671 0.89338-0.85875 0.37078-0.68455 0.57262-1.4111 0.76046-2.1621 0.07906-0.31692 0.20988-0.65132 0.24171-0.97733 0.01469-0.15251 0.02134-0.35364-0.0098-0.50371-0.02133-0.10249-0.0808-0.21932-0.06927-0.32531 0.01679-0.15041 0.0941-0.29313 0.10844-0.44424 0.01399-0.13922-0.04547-0.28264-0.07871-0.41486-0.09445-0.37743-0.22492-0.87589-0.63173-1.0364 0.12418-0.43025 0.14062-0.97943 0.05911-1.4216 0.44074-0.08115 0.79579-0.45264 1.0466-0.79964 0.14237-0.19764 0.29803-0.42675 0.39457-0.65167 0.05981-0.13887 0.07241-0.29873 0.10844-0.44424 0.1784-0.71219 0.15041-1.4632 0.07941-2.1915-0.03183-0.32671-0.14831-0.64922-0.14831-0.97733 0.354 0 0.66392-0.09654 1.0071-0.1679 0.94095-0.19589 1.8735-0.44004 2.7543-0.81957 0.17875-0.07695 0.33056-0.20218 0.50371-0.28613 0.35679-0.1735 0.70764-0.35889 1.0658-0.52819 0.36624-0.1728 0.76361-0.27809 1.0959-0.5184 0.28159-0.20323 0.50826-0.44004 0.7699-0.66112 1.4772-1.2502 2.669-2.8501 3.5295-4.5708 0.07276-0.14552 0.11124-0.29943 0.1777-0.44424 0.05247-0.11438 0.14237-0.20988 0.19239-0.32601 0.31307-0.72653 0.5191-1.4894 0.73072-2.2506 0.1637-0.58941 0.31587-1.1288 0.31587-1.7476 0-0.1749 0.0168-0.35889 0-0.53309-0.01469-0.14971-0.07626-0.29768-0.10844-0.44424-0.02903-0.12942-0.04372-0.26445-0.10389-0.38478-0.1714-0.34245-0.46453-0.63138-0.79474-0.81957-0.15006-0.08535-0.3379-0.10144-0.50371-0.13817-0.14622-0.03253-0.29418-0.0941-0.44424-0.10844-0.23611-0.02309-0.47817 7e-3 -0.71044 0.02938-0.11753 0.01154-0.23786-0.01119-0.35539 0-0.16266 0.01609-0.30782 0.08885-0.47398 0.08885v-0.02938c0.28159 0 0.50301-0.1679 0.7699-0.22737 0.18609-0.04128 0.3526-0.11508 0.53309-0.16266 0.18434-0.04862 0.39072-0.06191 0.56282-0.14796 0.91892-0.45963 1.1043-1.53 1.3278-2.4237 0.04128-0.1644 0.04792-0.30677 0.06401-0.47397 0.01784-0.1819 0.07765-0.3456 0.05947-0.53309-0.01049-0.10949-0.04897-0.21617-0.05947-0.32566-0.03043-0.31307 0.03043-0.63488 0-0.94795-0.01364-0.13992-0.07521-0.27389-0.08885-0.41451-0.05317-0.54813-0.07486-1.1187-0.18749-1.6584a10.144 10.144 0 0 0-0.30605-1.1253c-0.047922-0.14342-0.067861-0.29838-0.10844-0.44424-0.15146-0.54568-0.3512-1.104-0.56282-1.629-0.27424-0.68105-0.72618-1.3642-1.382-1.7374-0.11823-0.067511-0.25465-0.079754-0.38478-0.10844-0.14692-0.032881-0.29453-0.094445-0.44424-0.10879-0.16965-0.016441-0.3421 0.053519-0.50371 0.093745-0.14796 0.037079-0.30572 0.049321-0.44424 0.11858-0.64083 0.32041-0.94025 0.99867-1.0071 1.6832-0.01504 0.15636 0.01539 0.31727 0 0.47363-0.0088 0.090948-0.05038 0.1756-0.05911 0.26655-0.0168 0.1742 0 0.35819 0 0.53309 0 0.22387 0.02169 0.45893 0 0.6814-0.01819 0.18889-0.07066 0.37498-0.08885 0.56247-0.02379 0.24591-0.0056 0.49496-0.02973 0.74052-0.0088 0.090947-0.05038 0.1756-0.05911 0.26655-0.0095 0.097943 0.0095 0.19833 0 0.29628-0.02414 0.24766-0.12208 0.49776-0.18259 0.74017-0.03149 0.12523-0.04128 0.3379-0.12348 0.43934-0.05946 0.073457-0.1791 0.10424-0.25675 0.15321 0-0.21932-0.06786-0.40856-0.08885-0.62194-0.038839-0.40087-0.14483-0.79019-0.22703-1.1848-0.14552-0.69854-0.24276-1.4132-0.43445-2.1026-0.18469-0.66566-0.46243-1.3058-0.75521-1.9253-0.15496-0.32811-0.27354-0.67966-0.48867-0.97733-0.23191-0.32111-0.50126-0.65692-0.87834-0.81922-0.15636-0.067161-0.33965-0.082552-0.50371-0.12348-0.09304-0.023087-0.19903-0.06961-0.29593-0.064013-0.12733 7e-3 -0.26235 0.062963-0.38513 0.093746-0.14796 0.036729-0.30572 0.048972-0.44424 0.11823-0.3365 0.16825-0.62019 0.46418-0.79474 0.79474-0.09584 0.18189-0.12838 0.36554-0.1777 0.56282-0.13712 0.54883-0.14831 1.0956-0.09375 1.6584 0.04372 0.44984-0.04372 0.91262 0 1.3625 0.02098 0.21757 0.08745 0.4334 0.10844 0.65167 0.0088 0.088149-0.02833 0.1749-0.01959 0.26655 0.03638 0.37323 0.0074 0.77445-0.02973 1.155-0.0088 0.090947-0.05036 0.1756-0.05911 0.26655-0.01819 0.18539 0.01819 0.37673 0 0.56247-0.01749 0.17945-0.07136 0.35504-0.08885 0.53309-0.01225 0.12733 0.01225 0.25815 0 0.38513-0.03078 0.31692-0.10284 0.63593-0.1679 0.94795-0.02624 0.12628 7e-3 0.25815-0.01959 0.38478-0.099 0.47537-0.20288 0.9504-0.32076 1.4216-0.03253 0.13047-0.07101 0.28089-0.08396 0.41451-7e-3 0.07345 0.0077 0.14342-0.03952 0.20743-0.15951 0.21687-0.57087 0.19309-0.78984 0.32566 0-0.72408-0.01924-1.4454-0.08885-2.1617-0.01225-0.12732 0.01225-0.25815 0-0.38513-0.046518-0.47922-0.16475-0.94935-0.25675-1.4216-0.098992-0.51-0.16021-1.0137-0.32566-1.5104-0.12908-0.38688-0.29208-0.74717-0.44424-1.1253-0.24381-0.60585-0.41451-1.2397-0.67161-1.8364-0.089897-0.20953-0.20288-0.40856-0.28613-0.62194-0.24836-0.63943-0.61914-1.2967-1.0462-1.8361-0.14552-0.18399-0.33685-0.32951-0.49356-0.50371-0.099342-0.10984-0.1672-0.24486-0.26654-0.35504a2.7284 2.7284 0 0 0-0.65167-0.5233c-0.11823-0.067511-0.25465-0.079754-0.38478-0.10844-0.14691-0.032881-0.29453-0.094445-0.44424-0.10879-0.15181-0.014692-0.30012 0.043025-0.44424 0.079054-0.36659 0.091647-0.6884 0.18469-0.96754 0.46383-0.3407 0.3407-0.52679 0.87974-0.57262 1.3527-0.04477 0.45998 0.13537 0.92626 0.2564 1.3621 0.15741 0.56702 0.23611 1.1445 0.35539 1.7179 0.05491 0.262 0.05421 0.53869 0.10844 0.79964 0.04897 0.23331 0.11543 0.47397 0.13852 0.71079 0.02799 0.28508 0.0018 0.57402 0.02973 0.85875 0.02798 0.29033 0.10844 0.57367 0.1679 0.8591 0.05177 0.24836 0.04442 0.51735 0.06891 0.7699 0.01854 0.18889 0.07066 0.37498 0.08885 0.56282 0.01539 0.15881-0.04442 0.29103-0.05946 0.44424-0.02274 0.23786-0.06576 0.47432-0.08849 0.71079-0.05597 0.57717 0.05597 1.1701 0 1.7472-0.01295 0.13118-0.07626 0.25395-0.08885 0.38478-0.01749 0.1763 0.01225 0.39352-0.03952 0.56317-0.03428 0.11194-0.12838 0.19659-0.18749 0.29593-0.09234 0.15461-0.17665 0.31587-0.26655 0.47397-0.05772 0.10074-0.08045 0.22037-0.12838 0.32566a17.49 17.49 0 0 1-0.5086 1.0364c-0.14062 0.2599-0.33476 0.45509-0.51805 0.6814-0.13782 0.1693-0.33441 0.30012-0.5135 0.4243-0.04303 0.03008-0.12278 0.11019-0.1777 0.10844-0.14202-0.0035-0.29698-0.26584-0.38478-0.35504-0.33056-0.3351-0.74262-0.59745-1.0169-0.97733-0.04687-0.06472-0.24066-0.23436-0.22737-0.30607 0.0091-0.04687 0.06157-0.09584 0.08396-0.13817 0.06052-0.11473 0.12418-0.23471 0.1728-0.35539 0.28543-0.70869 0.6006-1.4104 0.98713-2.0732 0.10144-0.17385 0.2655-0.31727 0.3456-0.50371 0.10739-0.24906 0.11194-0.54218 0.19764-0.79928 0.22387-0.67161 0.4278-1.3488 0.57262-2.0435 0.0899-0.432 0.13082-0.87169 0.22702-1.3033 0.03253-0.14622 0.09375-0.29453 0.10844-0.44424 0.02098-0.21652 0.0088-0.43515 0.02973-0.65132 0.02448-0.24975 0.08396-0.48272 0.05946-0.74052-0.01294-0.12908-0.06296-0.25955-0.0941-0.38478-0.04128-0.16545-0.05562-0.3463-0.12348-0.50371-0.13712-0.31867-0.4341-0.59116-0.73038-0.76011-0.16755-0.095495-0.37918-0.10704-0.56282-0.15321-0.16161-0.040227-0.33406-0.11019-0.50371-0.093746-0.46873 0.045474-0.94095 0.22772-1.303 0.52819-0.20533 0.17105-0.34175 0.39107-0.51315 0.59256-0.19658 0.23052-0.39177 0.47992-0.54288 0.74507-0.08675 0.15251-0.14552 0.32181-0.23227 0.47397-0.15356 0.26969-0.32531 0.53029-0.47852 0.79964-0.12593 0.22142-0.21582 0.46348-0.3456 0.68105-0.27004 0.45194-0.55548 0.88499-0.82902 1.3327-0.12803 0.20953-0.3435 0.44739-0.40506 0.6814z" fill="#69ec72" stroke="#000" stroke-width="1.3229"/><path d="m28.8 10.669h-0.05947c-0.025881-0.12348-0.10843-0.21862-0.17245-0.32601-0.15286-0.25605-0.32391-0.49846-0.49846-0.74017-0.31447-0.43515-0.56457-0.92976-0.83427-1.3922-0.39737-0.68105-0.72408-1.4093-1.1998-2.0435-0.32776-0.43725-0.64817-0.97768-1.1746-1.2044-0.70974-0.30537-1.6682-0.27634-2.2408 0.29628-0.354 0.35399-0.55443 0.91962-0.60235 1.4118-0.01504 0.15461 0.04268 0.29383 0.05947 0.44424 0.05177 0.46523 0.16196 0.92591 0.20708 1.3918 0.02729 0.28019 0.11718 0.54953 0.14831 0.82902 0.16895 1.522 0.72583 3.0446 1.451 4.3833a28.334 28.334 0 0 1 0.70589 1.3922c0.08325 0.17595 0.17525 0.47817 0.33091 0.59221l-1.1207 1.1452-0.50826 0.63173c-0.26515-0.20953-0.58871-0.38128-0.82902-0.62194-0.51385-0.5135-0.73317-1.2778-1.0763-1.8955-0.14132-0.2543-0.35889-0.5254-0.45404-0.79964-0.04442-0.12768-0.02448-0.25535-0.04932-0.38478-0.02448-0.12593-0.06646-0.2578-0.07906-0.38513-0.01329-0.13677 0.01329-0.27774 0-0.41451-0.01434-0.14866-0.04442-0.29208-0.02973-0.44424 0.02098-0.21373 0.05107-0.43375 0.02973-0.65167l-0.11858-1.1848c-0.01539-0.15776-0.04547-0.31202-0.02938-0.47362 0.12138-1.2495 0.3526-2.4846 0.47363-3.7316 0.03288-0.33546 0.15846-0.67791 0.22737-1.0071 0.06122-0.29383 0.11578-0.59291 0.17735-0.88848 0.03848-0.18469 0.04618-0.38233 0.10844-0.56282 0.12173-0.3491 0.25046-0.72233 0.28684-1.0956 0.019937-0.20743-0.02973-0.39457-0.079058-0.59256-0.086748-0.3456-0.16266-0.59396-0.37533-0.88848-0.15286-0.21163-0.40541-0.42955-0.64153-0.54778-0.13852-0.06926-0.32391-0.080453-0.47397-0.11368-0.14656-0.032531-0.29068-0.093746-0.44424-0.078704-0.11054 0.010494-0.21792 0.054918-0.32566 0.078704-0.1665 0.037078-0.38618 0.048622-0.53309 0.13852-0.35539 0.21687-0.60445 0.50651-0.8689 0.81922-0.14307 0.16895-0.32706 0.30327-0.46873 0.47397-0.12942 0.15601-0.24626 0.3358-0.36029 0.50336-0.09549 0.13992-0.15846 0.29733-0.24206 0.44424-0.24591 0.432-0.48902 0.87519-0.68595 1.3327-0.18749 0.4348-0.32811 0.89093-0.49391 1.3327-0.15881 0.4236-0.36029 0.84406-0.50336 1.2733-0.04128 0.12418-0.12278 0.22912-0.15776 0.35574a20.638 20.638 0 0 0-0.32601 1.303c-0.05072 0.24311-0.05806 0.49741-0.10844 0.74052-0.06226 0.29908-0.13817 0.61319-0.1679 0.91787-0.01504 0.15671 0.01504 0.31762 0 0.47397-0.01155 0.11893-0.04757 0.23646-0.05947 0.35539-0.03323 0.3435 0.0039 0.6933-0.02938 1.0364-0.02659 0.27249-0.07765 0.59081 0 0.8591-0.15776-0.05002-0.31342-0.11298-0.47398-0.15321-0.09654-0.02414-0.24836-0.04198-0.32076-0.11823-0.05002-0.05352-0.03043-0.13607-0.04442-0.20253-0.03498-0.16825-0.08115-0.33511-0.11858-0.50371-0.14097-0.63523-0.28229-1.2775-0.34525-1.9249-0.01679-0.1714-0.10179-0.33231-0.11858-0.50336-0.01889-0.19589 0.01889-0.39667 0-0.59221-0.02868-0.29698-0.11893-0.59046-0.14796-0.88848-0.02868-0.29488-0.0011-0.59396-0.02973-0.88848-0.02799-0.28718-0.08814-0.56317-0.05947-0.8591 0.03288-0.33441 0.08605-0.67091 0.11893-1.0067 0.03393-0.35225-0.03463-0.71429 0-1.0662 0.0095-0.10004 0.04897-0.19659 0.05911-0.29628 0.04687-0.48272-0.03743-0.95844-0.15321-1.4216-0.04126-0.16615-0.06085-0.34315-0.12347-0.50371-0.15881-0.40856-0.49636-0.81957-0.90807-0.99692-0.12138-0.05247-0.2578-0.061914-0.38478-0.093745-0.12313-0.030782-0.25815-0.08675-0.38513-0.093746-0.11508-0.0063-0.24521 0.05142-0.35539 0.079054-0.36659 0.091647-0.6884 0.18469-0.96754 0.46383-0.14027 0.14027-0.23646 0.33021-0.3456 0.49356a5.3169 5.3169 0 0 0-0.62194 1.2736c-0.10424 0.31237-0.27179 0.61284-0.39492 0.91822-0.12838 0.31901-0.21303 0.64468-0.29593 0.97733-0.061564 0.24521-0.0871 0.49391-0.13852 0.74017-0.13187 0.63453-0.29243 1.2617-0.4243 1.8955-0.066462 0.31971-0.06926 0.65622-0.12838 0.97733-0.33406-0.070309-0.33091-0.33406-0.39492-0.62194-0.03533-0.15951-0.094795-0.31377-0.12838-0.47397-0.044074-0.21268-0.033581-0.43445-0.079054-0.65132-0.022737-0.11019-0.0087449-0.21478-0.019589-0.32601l-0.088848-0.91787c-0.036029-0.37183 0.036029-0.75381 0-1.1256-0.01644-0.1693-0.072408-0.33476-0.088848-0.50336-0.012593-0.12977 0.042326-0.2529 0.029733-0.38478-0.025185-0.25955-0.10144-0.5156-0.15811-0.77025-0.10179-0.45823-0.53729-0.93046-0.96754-1.1159-0.12138-0.05212-0.2578-0.061564-0.38478-0.093396-0.12768-0.031832-0.28229-0.10144-0.41486-0.093746-0.14761 0.0080453-0.30013 0.076606-0.44424 0.10844-1.4408 0.32006-1.8242 1.9249-2.2555 3.1195-0.22562 0.62439-0.46383 1.3194-0.52819 1.9844-0.012942 0.13117-0.076256 0.25395-0.088848 0.38478-0.025185 0.25815-0.064013 0.5142-0.088848 0.77025-0.011543 0.11718 0.011194 0.23786 0 0.35539-0.015741 0.15986-0.073457 0.31482-0.088848 0.47397-0.03428 0.35329 0.00455 0.71254-0.029733 1.0662-0.015041 0.15321-0.074857 0.28508-0.059465 0.44424 0.03428 0.3498 0.12173 0.6947 0.19764 1.0364 0.14342 0.64363 0.30537 1.4468 0.80943 1.9204 0.42605 0.39947 0.99132 0.48482 1.5402 0.6069 0.23017 0.05107 0.44879 0.20883 0.68105 0.22702v0.02973c-0.49182-0.03883-1.0127-0.13747-1.5104-0.08885-0.14971 0.01434-0.29768 0.07591-0.44424 0.10844-0.18189 0.04057-0.36799 0.0738-0.53309 0.1679-0.29628 0.1686-0.59326 0.44144-0.73038 0.76011-0.17385 0.40367-0.18749 0.87169-0.18749 1.303 0 0.25255-0.024486 0.51875 0 0.77025 0.037428 0.38653 0.19379 0.78914 0.31587 1.155 0.079754 0.23891 0.12942 0.49671 0.19729 0.74017 0.079404 0.28543 0.21303 0.54953 0.30607 0.82937a6.9959 6.9959 0 0 0 0.43445 1.0364c0.20988 0.39842 0.37043 0.82447 0.59221 1.2145 0.49706 0.87274 1.1578 1.658 1.8263 2.3989 0.099342 0.10984 0.1672 0.24486 0.26655 0.35539a10.844 10.844 0 0 0 0.77025 0.7699c0.11019 0.09969 0.24521 0.1672 0.35539 0.26655 0.13992 0.12663 0.2606 0.2641 0.41451 0.37498 0.67721 0.48902 1.4639 0.74157 2.1915 1.1354 0.42151 0.22842 0.8577 0.42256 1.3033 0.60235 0.20393 0.0822 0.40926 0.18749 0.62194 0.24661 0.32286 0.0899 0.65202 0.16091 0.97733 0.24206 0.52889 0.13222 1.0508 0.27144 1.5993 0.27144-0.02798 0.35574-0.14342 0.70904-0.1777 1.0662-0.10774 1.1075-0.05876 2.2702 0.61214 3.1985 0.24066 0.33336 0.62614 0.71114 1.0462 0.79964-0.12033 0.28578-0.06296 0.67546-0.02973 0.97733 0.01049 0.0934 0.08535 0.29383 0.04442 0.37988-0.02659 0.05597-0.10984 0.09025-0.15286 0.13327-0.10984 0.10984-0.21932 0.27004-0.29628 0.40472-0.12033 0.21163-0.15776 0.53274-0.20708 0.77025-0.04897 0.23436 0.09095 0.42815 0.07871 0.65132-0.01539 0.28089-0.11648 0.57297-0.08885 0.8591 0.04722 0.48377 0.21582 0.98398 0.3456 1.451 0.25605 0.92136 0.54183 1.9715 1.4314 2.478 0.12488 0.07101 0.27914 0.0892 0.41486 0.12838-0.0787 0.1756-0.05946 0.37114-0.05946 0.56282 0 0.6793 0.27984 1.2663 0.56282 1.8658 0.19309 0.40891 0.43655 0.78774 0.65167 1.1844 0.19239 0.35504 0.31587 0.74087 0.50825 1.0959 0.23227 0.4285 0.53344 0.81608 0.76501 1.2439 0.26235 0.48377 0.43725 1.0319 0.64188 1.5402 0.10529 0.262 0.23891 0.55443 0.29593 0.82902 0.11158 0.53484 0.18679 1.1225 0.40506 1.629 0.11473 0.26654 0.31447 0.50616 0.48342 0.74052 0.45264 0.62649 0.91297 1.2253 1.4908 1.7472 0.24311 0.21967 0.54988 0.39562 0.82902 0.56282 0.90143 0.53834 1.883 0.8654 2.9026 1.1204 0.772 0.19309 1.5482 0.4313 2.3398 0.50825 0.19099 0.01854 0.37568-0.02169 0.56247-0.02938 0.29733-0.0126 0.58976 0.05841 0.88848 0.02938 0.53799-0.05247 1.0725-0.19868 1.5993-0.31587 0.64118-0.14237 1.3037-0.24836 1.9253-0.46383 0.26235-0.09095 0.51805-0.2515 0.7699-0.37044 0.19554-0.09199 0.39982-0.14516 0.59221-0.24661a8.2902 8.2902 0 0 0 1.629-1.1305c0.1672-0.14901 0.26794-0.38233 0.41451-0.55268a6.891 6.891 0 0 0 0.76011-1.0662c0.09795-0.1714 0.13642-0.35679 0.21722-0.53309q0.18224-0.39597 0.3456-0.79964c0.10389-0.25745 0.13992-0.53764 0.22737-0.79964 0.2557-0.76815 0.54743-1.5479 0.88324-2.2807 0.20288-0.44214 0.53379-0.81503 0.76011-1.2435 0.22387-0.4236 0.39877-0.88219 0.62684-1.3033 0.11578-0.21338 0.25745-0.40926 0.37533-0.62194 0.15741-0.28334 0.28683-0.58766 0.46383-0.85875 0.28543-0.43725 0.42186-0.8584 0.54813-1.3625 0.05667-0.22667 0.12803-0.54743 0.03428-0.7699 0.39702-0.14622 0.69714-0.49671 0.89338-0.85875 0.37078-0.68455 0.57262-1.4111 0.76046-2.1621 0.07906-0.31692 0.20988-0.65132 0.24171-0.97733 0.01469-0.15251 0.02134-0.35364-0.0098-0.50371-0.02133-0.10249-0.0808-0.21932-0.06927-0.32531 0.01679-0.15041 0.0941-0.29313 0.10844-0.44424 0.01399-0.13922-0.04547-0.28264-0.07871-0.41486-0.09445-0.37743-0.22492-0.87589-0.63173-1.0364 0.12418-0.43025 0.14062-0.97943 0.05911-1.4216 0.44074-0.08115 0.79579-0.45264 1.0466-0.79964 0.14237-0.19764 0.29803-0.42675 0.39457-0.65167 0.05981-0.13887 0.07241-0.29873 0.10844-0.44424 0.1784-0.71219 0.15041-1.4632 0.07941-2.1915-0.03183-0.32671-0.14831-0.64922-0.14831-0.97733 0.354 0 0.66392-0.09654 1.0071-0.1679 0.94095-0.19589 1.8735-0.44004 2.7543-0.81957 0.17875-0.07695 0.33056-0.20218 0.50371-0.28613 0.35679-0.1735 0.70764-0.35889 1.0658-0.52819 0.36624-0.1728 0.76361-0.27809 1.0959-0.5184 0.28159-0.20323 0.50826-0.44004 0.7699-0.66112 1.4772-1.2502 2.669-2.8501 3.5295-4.5708 0.07276-0.14552 0.11124-0.29943 0.1777-0.44424 0.05247-0.11438 0.14237-0.20988 0.19239-0.32601 0.31307-0.72653 0.5191-1.4894 0.73072-2.2506 0.1637-0.58941 0.31587-1.1288 0.31587-1.7476 0-0.1749 0.0168-0.35889 0-0.53309-0.01469-0.14971-0.07626-0.29768-0.10844-0.44424-0.02903-0.12942-0.04372-0.26445-0.10389-0.38478-0.1714-0.34245-0.46453-0.63138-0.79474-0.81957-0.15006-0.08535-0.3379-0.10144-0.50371-0.13817-0.14622-0.03253-0.29418-0.0941-0.44424-0.10844-0.23611-0.02309-0.47817 7e-3 -0.71044 0.02938-0.11753 0.01154-0.23786-0.01119-0.35539 0-0.16266 0.01609-0.30782 0.08885-0.47398 0.08885v-0.02938c0.28159 0 0.50301-0.1679 0.7699-0.22737 0.18609-0.04128 0.3526-0.11508 0.53309-0.16266 0.18434-0.04862 0.39072-0.06191 0.56282-0.14796 0.91892-0.45963 1.1043-1.53 1.3278-2.4237 0.04128-0.1644 0.04792-0.30677 0.06401-0.47397 0.01784-0.1819 0.07765-0.3456 0.05947-0.53309-0.01049-0.10949-0.04897-0.21617-0.05947-0.32566-0.03043-0.31307 0.03043-0.63488 0-0.94795-0.01364-0.13992-0.07521-0.27389-0.08885-0.41451-0.05317-0.54813-0.07486-1.1187-0.18749-1.6584a10.144 10.144 0 0 0-0.30605-1.1253c-0.047922-0.14342-0.067861-0.29838-0.10844-0.44424-0.15146-0.54568-0.3512-1.104-0.56282-1.629-0.27424-0.68105-0.72618-1.3642-1.382-1.7374-0.11823-0.067511-0.25465-0.079754-0.38478-0.10844-0.14692-0.032881-0.29453-0.094445-0.44424-0.10879-0.16965-0.016441-0.3421 0.053519-0.50371 0.093745-0.14796 0.037079-0.30572 0.049321-0.44424 0.11858-0.64083 0.32041-0.94025 0.99867-1.0071 1.6832-0.01504 0.15636 0.01539 0.31727 0 0.47363-0.0088 0.090948-0.05038 0.1756-0.05911 0.26655-0.0168 0.1742 0 0.35819 0 0.53309 0 0.22387 0.02169 0.45893 0 0.6814-0.01819 0.18889-0.07066 0.37498-0.08885 0.56247-0.02379 0.24591-0.0056 0.49496-0.02973 0.74052-0.0088 0.090947-0.05038 0.1756-0.05911 0.26655-0.0095 0.097943 0.0095 0.19833 0 0.29628-0.02414 0.24766-0.12208 0.49776-0.18259 0.74017-0.03149 0.12523-0.04128 0.3379-0.12348 0.43934-0.05946 0.073457-0.1791 0.10424-0.25675 0.15321 0-0.21932-0.06786-0.40856-0.08885-0.62194-0.038839-0.40087-0.14483-0.79019-0.22703-1.1848-0.14552-0.69854-0.24276-1.4132-0.43445-2.1026-0.18469-0.66566-0.46243-1.3058-0.75521-1.9253-0.15496-0.32811-0.27354-0.67966-0.48867-0.97733-0.23191-0.32111-0.50126-0.65692-0.87834-0.81922-0.15636-0.067161-0.33965-0.082552-0.50371-0.12348-0.09304-0.023087-0.19903-0.06961-0.29593-0.064013-0.12733 7e-3 -0.26235 0.062963-0.38513 0.093746-0.14796 0.036729-0.30572 0.048972-0.44424 0.11823-0.3365 0.16825-0.62019 0.46418-0.79474 0.79474-0.09584 0.18189-0.12838 0.36554-0.1777 0.56282-0.13712 0.54883-0.14831 1.0956-0.09375 1.6584 0.04372 0.44984-0.04372 0.91262 0 1.3625 0.02098 0.21757 0.08745 0.4334 0.10844 0.65167 0.0088 0.088149-0.02833 0.1749-0.01959 0.26655 0.03638 0.37323 0.0074 0.77445-0.02973 1.155-0.0088 0.090947-0.05036 0.1756-0.05911 0.26655-0.01819 0.18539 0.01819 0.37673 0 0.56247-0.01749 0.17945-0.07136 0.35504-0.08885 0.53309-0.01225 0.12733 0.01225 0.25815 0 0.38513-0.03078 0.31692-0.10284 0.63593-0.1679 0.94795-0.02624 0.12628 7e-3 0.25815-0.01959 0.38478-0.099 0.47537-0.20288 0.9504-0.32076 1.4216-0.03253 0.13047-0.07101 0.28089-0.08396 0.41451-7e-3 0.07345 0.0077 0.14342-0.03952 0.20743-0.15951 0.21687-0.57087 0.19309-0.78984 0.32566 0-0.72408-0.01924-1.4454-0.08885-2.1617-0.01225-0.12732 0.01225-0.25815 0-0.38513-0.046518-0.47922-0.16475-0.94935-0.25675-1.4216-0.098992-0.51-0.16021-1.0137-0.32566-1.5104-0.12908-0.38688-0.29208-0.74717-0.44424-1.1253-0.24381-0.60585-0.41451-1.2397-0.67161-1.8364-0.089897-0.20953-0.20288-0.40856-0.28613-0.62194-0.24836-0.63943-0.61914-1.2967-1.0462-1.8361-0.14552-0.18399-0.33685-0.32951-0.49356-0.50371-0.099342-0.10984-0.1672-0.24486-0.26654-0.35504a2.7284 2.7284 0 0 0-0.65167-0.5233c-0.11823-0.067511-0.25465-0.079754-0.38478-0.10844-0.14691-0.032881-0.29453-0.094445-0.44424-0.10879-0.15181-0.014692-0.30012 0.043025-0.44424 0.079054-0.36659 0.091647-0.6884 0.18469-0.96754 0.46383-0.3407 0.3407-0.52679 0.87974-0.57262 1.3527-0.04477 0.45998 0.13537 0.92626 0.2564 1.3621 0.15741 0.56702 0.23611 1.1445 0.35539 1.7179 0.05491 0.262 0.05421 0.53869 0.10844 0.79964 0.04897 0.23331 0.11543 0.47397 0.13852 0.71079 0.02799 0.28508 0.0018 0.57402 0.02973 0.85875 0.02798 0.29033 0.10844 0.57367 0.1679 0.8591 0.05177 0.24836 0.04442 0.51735 0.06891 0.7699 0.01854 0.18889 0.07066 0.37498 0.08885 0.56282 0.01539 0.15881-0.04442 0.29103-0.05946 0.44424-0.02274 0.23786-0.06576 0.47432-0.08849 0.71079-0.05597 0.57717 0.05597 1.1701 0 1.7472-0.01295 0.13118-0.07626 0.25395-0.08885 0.38478-0.01749 0.1763 0.01225 0.39352-0.03952 0.56317-0.03428 0.11194-0.12838 0.19659-0.18749 0.29593-0.09234 0.15461-0.17665 0.31587-0.26655 0.47397-0.05772 0.10074-0.08045 0.22037-0.12838 0.32566a17.49 17.49 0 0 1-0.5086 1.0364c-0.14062 0.2599-0.33476 0.45509-0.51805 0.6814-0.13782 0.1693-0.33441 0.30012-0.5135 0.4243-0.04303 0.03008-0.12278 0.11019-0.1777 0.10844-0.14202-0.0035-0.29698-0.26584-0.38478-0.35504-0.33056-0.3351-0.74262-0.59745-1.0169-0.97733-0.04687-0.06472-0.24066-0.23436-0.22737-0.30607 0.0091-0.04687 0.06157-0.09584 0.08396-0.13817 0.06052-0.11473 0.12418-0.23471 0.1728-0.35539 0.28543-0.70869 0.6006-1.4104 0.98713-2.0732 0.10144-0.17385 0.2655-0.31727 0.3456-0.50371 0.10739-0.24906 0.11194-0.54218 0.19764-0.79928 0.22387-0.67161 0.4278-1.3488 0.57262-2.0435 0.0899-0.432 0.13082-0.87169 0.22702-1.3033 0.03253-0.14622 0.09375-0.29453 0.10844-0.44424 0.02098-0.21652 0.0088-0.43515 0.02973-0.65132 0.02448-0.24975 0.08396-0.48272 0.05946-0.74052-0.01294-0.12908-0.06296-0.25955-0.0941-0.38478-0.04128-0.16545-0.05562-0.3463-0.12348-0.50371-0.13712-0.31867-0.4341-0.59116-0.73038-0.76011-0.16755-0.095495-0.37918-0.10704-0.56282-0.15321-0.16161-0.040227-0.33406-0.11019-0.50371-0.093746-0.46873 0.045474-0.94095 0.22772-1.303 0.52819-0.20533 0.17105-0.34175 0.39107-0.51315 0.59256-0.19658 0.23052-0.39177 0.47992-0.54288 0.74507-0.08675 0.15251-0.14552 0.32181-0.23227 0.47397-0.15356 0.26969-0.32531 0.53029-0.47852 0.79964-0.12593 0.22142-0.21582 0.46348-0.3456 0.68105-0.27004 0.45194-0.55548 0.88499-0.82902 1.3327-0.12803 0.20953-0.3435 0.44739-0.40506 0.6814m12.113 5.4789c0.97244-0.48622 1.9603-1.0578 3.0208-1.3523 0.38548-0.10739 0.74856-0.25955 1.1253-0.38513 0.12838-0.04268 0.29208-0.06576 0.37533-0.18749 0.10984-0.16161 0.08046-0.43725 0.09865-0.62194 0.03498-0.35924 0.10004-0.74577 0.18749-1.0959 0.1749-0.69854 0.33511-1.4167 0.40472-2.1324 0.01924-0.19799 0.099-0.39317 0.11858-0.59221 0.01609-0.1665-0.01609-0.3372 0-0.50371 0.02274-0.23611 0.09515-0.47223 0.11823-0.71079 0.01434-0.14656-0.01399-0.29733 0-0.44424 0.03778-0.38653 0.07835-0.76675 0.08885-1.155 0.0049-0.17665 0.04722-0.35329 0.02973-0.53309-0.02799-0.28683-0.0906-0.57157-0.11858-0.85875-0.03883-0.40087 0.03918-0.81328 0-1.2141-0.03743-0.38792-0.09095-0.73702-0.0098-1.1256 0.02133-0.10214 0.01399-0.1749 0.06927-0.26655 0.23087 0.06891 0.36834 0.50511 0.45404 0.71079 0.30258 0.72618 0.67791 1.4429 0.82902 2.2212 0.22142 1.1382 0.50021 2.2555 0.61214 3.406 0.02133 0.21897 0.09759 0.43375 0.11893 0.65167 0.02868 0.29943 0 0.61669 0 0.91787 0 0.30117 0.02868 0.61879 0 0.91822-0.0084 0.0822-0.05142 0.15461-0.05946 0.23681-0.01749 0.1763 0.01714 0.35714 0 0.53309-0.02903 0.29838-0.10704 0.5964-0.1679 0.88848-0.06646 0.31902-0.09654 0.65237-0.12838 0.97733-0.0088 0.09095-0.05037 0.1756-0.05946 0.26654-0.03218 0.33231-0.05632 0.75066-0.30083 1.0071-0.18399 0.19309-0.52225 0.23192-0.76501 0.30607-0.42675 0.13012-0.857 0.24661-1.2733 0.41451-0.57786 0.23262-1.1249 0.54848-1.6885 0.81468-0.44984 0.21233-0.91297 0.38967-1.3621 0.602-0.46453 0.21932-0.90807 0.49076-1.3625 0.73073-0.46173 0.24346-0.9413 0.45264-1.3922 0.71568-0.7713 0.44984-1.5241 0.92276-2.3097 1.3376-0.33021 0.1742-0.62963 0.41276-0.94795 0.6069-0.29663 0.18154-0.61214 0.32741-0.91787 0.48867-0.46453 0.24486-0.91017 0.53449-1.3625 0.80453-0.14132 0.08465-0.38898 0.29733-0.56282 0.24696-0.15566-0.04548-0.29698-0.18189-0.41451-0.28613a13.642 13.642 0 0 0-0.59221-0.49356c-0.47153-0.37323-0.88743-0.79264-1.3327-1.1946-0.16126-0.14552-0.3428-0.26934-0.50371-0.41486-0.35085-0.31657-0.67266-0.67266-1.0071-1.0067-0.1791-0.17945-0.37603-0.35539-0.52295-0.56282-0.10634-0.15006-0.17455-0.32706-0.28648-0.47397-0.06716-0.08745-0.21687-0.27144-0.3456-0.25185-0.0983 0.01539-0.22632 0.15531-0.29593 0.22247-0.1707 0.16336-0.25325 0.37708-0.39527 0.56247-0.0822 0.10844-0.18994 0.20008-0.28613 0.29628-0.40366 0.40366-0.79019 0.83147-1.2141 1.2141-0.23262 0.20988-0.49321 0.38828-0.73038 0.59256-0.39527 0.34035-0.71533 0.71219-1.1648 0.98713-0.27214 0.16615-0.53134 0.35154-0.79999 0.5233-0.0857 0.05457-0.25045 0.17315-0.35539 0.16266-0.15671-0.01504-0.34315-0.16196-0.47363-0.24171-0.3498-0.21373-0.70379-0.4355-1.0662-0.62684-0.35609-0.18784-0.72058-0.36624-1.0662-0.57752-0.28158-0.1721-0.54603-0.37393-0.82937-0.54288-0.4313-0.2578-0.89863-0.47118-1.3327-0.73072-0.36522-0.21792-0.71922-0.46768-1.096-0.66636-0.57786-0.30502-1.1704-0.59396-1.7472-0.89828-0.347-0.18329-0.67616-0.39772-1.0364-0.55792-0.89268-0.39667-1.7595-0.82517-2.6361-1.239-0.47083-0.22212-0.97768-0.38757-1.4807-0.51315-0.29732-0.074157-0.70519-0.14412-0.91821-0.38023-0.23436-0.26025-0.26375-0.70484-0.29593-1.0364-0.050371-0.5156-0.12768-1.0651-0.24696-1.5695-0.073458-0.31167-0.048272-0.60165-0.079054-0.91822-0.00944-0.09969-0.049321-0.19624-0.059116-0.29628-0.024486-0.25116 0-0.51735 0-0.7699 0-0.37883-0.036729-0.7783 0-1.155 0.12418-1.2782 0.37638-2.542 0.67161-3.7907 0.052819-0.22527 0.081503-0.45579 0.13782-0.6814 0.11473-0.45893 0.36729-0.89583 0.54288-1.3327 0.15706-0.38932 0.30432-0.84896 0.60235-1.155 0.12733 0.082552 0.10004 0.21932 0.12838 0.35539 0.06471 0.31132 0.04268 0.57716-0.0049 0.88848-0.06366 0.41556 0.03567 0.85525-0.0049 1.2736-0.05456 0.55863-0.17385 1.118-0.11858 1.6881 0.03463 0.35504 0.08396 0.71114 0.11858 1.0662 0.01329 0.13677-0.01329 0.27774 0 0.41451 0.02414 0.24836 0.09445 0.49251 0.11823 0.74052 0.01434 0.14691-0.01399 0.29733 0 0.44424 0.02483 0.25465 0.08955 0.5191 0.13817 0.7699 0.13467 0.69225 0.25186 1.3845 0.41486 2.0732 0.09095 0.38548 0.06716 0.80243 0.16266 1.1848 0.03114 0.12348 0.01295 0.27704 0.0941 0.38478 0.07521 0.10074 0.2606 0.13152 0.37498 0.1679 0.30852 0.09865 0.6055 0.22912 0.91822 0.31587a9.7943 9.7943 0 0 1 1.9249 0.76501c0.28473 0.15041 0.56772 0.30222 0.85875 0.43934 0.10669 0.05036 0.23891 0.14971 0.35539 0.1679 0.10774 0.0168 0.11753-0.09025 0.11858-0.1679 0.0021-0.16406-0.05247-0.31272-0.05946-0.47362-0.02799-0.67616-0.23681-1.331-0.23681-2.0141 0-0.28543-0.08675-0.57472-0.05911-0.85875 0.01049-0.10949 0.04862-0.21618 0.05946-0.32566 0.02938-0.30327-0.02973-0.61494 0-0.91822 0.0088-0.09095 0.05003-0.1756 0.05911-0.26654 0.01329-0.13677-0.01329-0.27774 0-0.41451 0.04128-0.42465 0.13992-0.8563 0.22702-1.2736 0.05421-0.2613 0.06296-0.54149 0.13817-0.79964 0.13397-0.45928 0.3407-0.88883 0.51315-1.3327 0.27424-0.70484 0.53064-1.4097 0.81957-2.1026 0.31902-0.76606 0.71358-1.4684 1.2932-2.0732 0.13187-0.13747 0.22177-0.31237 0.35539-0.44424 0.05317-0.05247 0.12698-0.11998 0.20743-0.074157 0.0829 0.047573 0.06017 0.17175 0.05911 0.25185-0.0035 0.26585-0.15391 0.51455-0.20743 0.7699-0.13887 0.66706-0.23891 1.3537-0.39492 2.0141-0.09549 0.40437-0.1812 0.80243-0.22702 1.2141-0.02623 0.23646-0.03602 0.47397-0.05911 0.71079-0.02029 0.20743-0.09795 0.41311-0.11858 0.62194-0.04512 0.46523-0.13222 0.92591-0.1777 1.3922-0.0077 0.081852-0.05107 0.15461-0.05911 0.23681a5.8766 5.8766 0 0 0 0 1.0662c0.02903 0.29908 0.11858 0.58416 0.11858 0.88848 0 0.52959 0.01959 1.0669 0.01959 1.5891 0 0.19414 0.08046 0.38163 0.09865 0.57262 0.02553 0.2613 0.02799 0.5142 0.09899 0.77025 0.10949 0.39457 0.35959 0.70939 0.54778 1.0662 0.16825 0.31902 0.31237 0.65447 0.47398 0.97733 0.24346 0.48762 0.5226 0.98118 0.89338 1.3918 0.37568 0.41626 0.90352 0.7769 1.3918 1.0413 0.23611 0.12803 0.5149 0.42081 0.78984 0.44949 0.18469 0.01889 0.39072-0.19134 0.54288-0.27179 0.65972-0.34805 1.0525-0.93886 1.5695-1.4559 0.39667-0.39667 0.7678-0.80803 1.1848-1.1848 0.17595-0.15881 0.45054-0.35469 0.5233-0.59221 0.05841-0.19099-0.09865-0.38023-0.18749-0.53309-0.22665-0.38828-0.45576-0.78354-0.65655-1.1848-0.75556-1.5104-1.6112-2.9883-1.94-4.6792-0.15041-0.77445-0.29908-1.5594-0.37498-2.3398-0.017493-0.18015-0.19239-0.57262-0.044421-0.73038 0.12942-0.13852 0.32566 0.1742 0.38967 0.2564 0.30362 0.39037 0.57472 0.77865 0.80453 1.2145a43.375 43.375 0 0 0 1.3478 2.3692c0.11613 0.18994 0.28054 0.34175 0.39492 0.53309 0.31272 0.524 0.59745 1.0592 0.93746 1.5695 0.22737 0.34105 0.46663 0.65622 0.72093 0.97733 0.06366 0.08045 0.20638 0.3393 0.32566 0.33091 0.11263-0.0077 0.24976-0.24976 0.30607-0.33091 0.23891-0.34385 0.49426-0.66286 0.6863-1.0364 0.10599-0.20638 0.2508-0.39247 0.37008-0.59221 0.27564-0.46138 0.56562-0.91332 0.85875-1.3625 0.46313-0.70904 0.88254-1.4709 1.2785-2.2212 0.23786-0.45124 0.47152-0.87204 0.79474-1.2733 0.09515-0.11823 0.2613-0.41206 0.45404-0.3456 0.08605 0.029383 0.08885 0.12103 0.08885 0.19729 0 0.1784-0.05667 0.35155-0.05911 0.53309-0.0042 0.30152-0.10634 0.62229-0.1679 0.91822-0.06366 0.30607-0.09795 0.63593-0.12838 0.9476-0.01749 0.1805-0.0983 0.35399-0.11823 0.53309-0.03288 0.29348-0.14761 0.57297-0.22737 0.85875-0.23821 0.8584-0.66042 1.651-1.0711 2.4286-0.24206 0.45893-0.40926 0.95075-0.63173 1.4216-0.08955 0.18959-0.23262 0.3526-0.34035 0.53309-0.08535 0.14237-0.14516 0.29803-0.22212 0.44424-0.07416 0.13992-0.23891 0.30432-0.22737 0.47398 0.01645 0.23576 0.29243 0.45404 0.43445 0.62194 0.43725 0.51595 0.91927 0.97314 1.3971 1.451 0.46978 0.47013 0.91472 0.97244 1.5104 1.2785 0.15251 0.07835 0.34945 0.27284 0.53309 0.23681 0.11963-0.02309 0.22317-0.12243 0.32566-0.1826 0.24381-0.14202 0.48482-0.27984 0.71079-0.44914 0.35399-0.26515 0.76326-0.5275 1.0564-0.85875 0.45578-0.5149 0.76256-1.1316 1.0511-1.7423 0.11543-0.24486 0.22387-0.50651 0.36029-0.74052 0.18994-0.32531 0.41101-0.60865 0.5135-0.97733 0.06925-0.24941 0.0738-0.5142 0.09865-0.7699 0.01644-0.1693 0.07241-0.33476 0.08885-0.50371 0.04722-0.48272 0-0.99482 0-1.4807 0-0.62684 0.20988-1.2299 0.14831-1.8658-0.08675-0.89233-0.28858-1.7731-0.37533-2.6655-0.0091-0.096194 0.01329-0.19624 0.0049-0.29628-0.03713-0.44494-0.12703-0.89443-0.21203-1.3327-0.13467-0.6926-0.22807-1.3855-0.39982-2.0729-0.06926-0.27634-0.18819-0.54918-0.22737-0.82937-0.01154-0.083601 0.0028-0.25535 0.11368-0.26165 0.07626-0.00455 0.12942 0.063663 0.1777 0.11368 0.14132 0.14552 0.24871 0.32286 0.38478 0.47362 0.11963 0.13257 0.2669 0.24311 0.37533 0.38513 0.4229 0.55338 0.66951 1.2159 0.96264 1.8364 0.30677 0.64922 0.5142 1.3432 0.7748 2.0138 0.1679 0.432 0.38233 0.84581 0.48377 1.303 0.12103 0.54393 0.22282 1.1064 0.27634 1.6584 0.0081 0.0822 0.05142 0.15496 0.05946 0.23716 0.01225 0.12698-0.0126 0.2578 0 0.38478 0.0095 0.10004 0.04932 0.19658 0.05911 0.29628 0.02938 0.30327-0.02938 0.61494 0 0.91822 0.01049 0.10949 0.04862 0.21617 0.05946 0.32566 0.03008 0.31027-0.02973 0.61424-0.05946 0.91822-0.01609 0.16615 0.01609 0.3372 0 0.50336-0.0088 0.09095-0.05038 0.1756-0.05946 0.26654-0.02098 0.21548-0.02764 0.439-0.06892 0.65167-0.04547 0.23436-0.0822 0.47328-0.10844 0.71079-0.02379 0.21338-0.07521 0.38862 0 0.59221m-36.072-12.498c0.087099 0.20743 0.0077 0.48657 0.029383 0.71114 0.0091 0.090947 0.05037 0.17525 0.059465 0.26655 0.023436 0.24136 0 0.49741 0 0.74017 0 0.84406 0.12593 1.6825 0.20708 2.5175 0.025885 0.2648 0.12663 0.51525 0.19764 0.7699 0.0857 0.30852 0.14517 0.61319 0.24661 0.91822 0.064013 0.19204 0.12278 0.46033 0.29628 0.58241 0.48762 0.3435 1.1641 0.40996 1.5993 0.83916 0.093396 0.09199 0.24206 0.19833 0.28613 0.32566 0.059815 0.17245 0.010144 0.44004 0.010144 0.62194 0 0.25255-0.024485 0.51875 0 0.77025 0.011543 0.11893 0.054219 0.23541 0.059116 0.35539 0.00455 0.11158 0.093396 0.43794-0.034629 0.50825-0.074857 0.04128-0.22037-0.05526-0.29103-0.08395-0.25745-0.10354-0.49077-0.24556-0.74052-0.36029-0.50756-0.23262-1.0714-0.34245-1.5993-0.5184-0.2501-0.083253-0.48272-0.21548-0.74052-0.27634-0.06856-0.016091-0.13852-0.003498-0.20708-0.019589-0.1721-0.040576-0.33161-0.11753-0.50371-0.15811-0.076955-0.018189-0.1679 0.010494-0.23192-0.044424-0.11298-0.097244-0.15461-0.33161-0.20218-0.46873-0.15391-0.44389-0.2627-0.92521-0.21722-1.3922 0.03498-0.36274-0.0059466-0.72968 0.029383-1.0956 0.014691-0.14901 0.070309-0.29488 0.088848-0.44424 0.067861-0.54323 0.061214-1.0935 0.18784-1.629 0.13257-0.56177 0.30992-1.1085 0.49321-1.6584 0.074157-0.22212 0.17245-0.4341 0.25675-0.65167 0.12103-0.31132 0.18189-0.61284 0.42465-0.85875 0.090947-0.092346 0.17945-0.21687 0.29628-0.26655m44.957 9.951c-0.10949-0.18084-0.02973-0.36589-0.02973-0.56282 0-0.22072 0.0808-0.4278 0.05946-0.65167-0.02448-0.24696-0.02973-0.48972-0.02973-0.74017 0-0.12873-0.0039-0.30292 0.06891-0.41486 0.30922-0.47328 0.96684-0.64608 1.4412-0.88359 0.20568-0.10249 0.44914-0.15601 0.55303-0.38967 0.1679-0.37778 0.25255-0.76151 0.3456-1.155 0.05911-0.2501 0.1644-0.48867 0.21687-0.74052 0.03253-0.15566 0.02449-0.31657 0.03987-0.47397 0.05352-0.55268 0.12383-1.1054 0.1777-1.6584 0.03883-0.40087-0.03918-0.81328 0-1.2141 0.0095-0.10004 0.04932-0.19659 0.05911-0.29628 0.02309-0.23751-0.05072-0.49076 0.05947-0.71079 0.1693 0.03568 0.24451 0.1756 0.35504 0.29628 0.18224 0.19868 0.25185 0.45893 0.3358 0.71079 0.08675 0.26025 0.18889 0.51595 0.29103 0.7699 0.12593 0.31307 0.21058 0.65167 0.30118 0.97733 0.11543 0.41591 0.24486 0.84406 0.28648 1.2733 0.02868 0.29628 0.03043 0.59291 0.05911 0.88848 0.01924 0.20008 0.099 0.39387 0.11858 0.59256 0.02938 0.30327-0.02973 0.61494 0 0.91822a3.3231 3.3231 0 0 1-0.1777 1.451c-0.05387 0.14901-0.0892 0.34805-0.18784 0.47398-0.08605 0.11018-0.22912 0.08675-0.3505 0.11858-0.14866 0.03883-0.28753 0.10669-0.439 0.13817-0.12313 0.02553-0.23332 0.02798-0.35539 0.06891-0.22982 0.07695-0.45194 0.18015-0.6814 0.25675-0.50336 0.1679-1.0144 0.29383-1.5104 0.49356-0.3386 0.13642-0.64293 0.38758-1.0067 0.46418m-45.254 0.71079v0.02938h-0.11858zm-1.3922 1.757c0.15601-0.01049 0.31936 0.03638 0.47397 0.04932 0.42745 0.03638 0.85001 0.0773 1.2736 0.11858 1.495 0.14552 2.9292 0.58136 4.3536 1.0564 0.50161 0.1672 1.0109 0.29733 1.5104 0.46383 0.58031 0.19344 1.1389 0.46628 1.6881 0.72583 0.46383 0.21897 0.95425 0.38793 1.4216 0.602 0.37953 0.1742 0.74402 0.37848 1.1253 0.54778 0.54918 0.24416 1.0861 0.51875 1.629 0.77515 0.48062 0.22702 0.98293 0.41416 1.4513 0.66112 0.38233 0.20218 0.74577 0.44144 1.1253 0.64712 0.18889 0.10214 0.40542 0.13992 0.59221 0.24661 0.22877 0.13012 0.43375 0.30887 0.65167 0.45404 0.21478 0.14342 0.45474 0.24766 0.68106 0.37008 0.37323 0.20218 0.73282 0.4348 1.0959 0.65657 0.55618 0.34 1.0718 0.75451 1.5993 1.1354 0.29873 0.21548 0.61984 0.39667 0.91822 0.61214 0.36099 0.2606 0.67721 0.55128 1.0067 0.84896 0.11054 0.09934 0.24556 0.1672 0.35539 0.26654 0.15531 0.13992 0.27529 0.31936 0.41486 0.47362 0.20988 0.23262 0.44669 0.4348 0.64153 0.6814 0.13082 0.16475 0.21932 0.43025 0.39492 0.55268 0.10914 0.07591 0.23576 0.05876 0.35539 0.07905 0.2669 0.04513 0.52819 0.11543 0.79964 0.13817 0.29453 0.02483 0.63488-0.05841 0.91822-0.12838 0.11858-0.02903 0.24066-0.0021 0.35539-0.06401 0.19589-0.10634 0.29103-0.37953 0.4243-0.54813 0.31552-0.39842 0.67721-0.78564 1.0368-1.1449 0.14796-0.14796 0.3337-0.26934 0.49321-0.40506 0.21058-0.1777 0.40332-0.37253 0.62229-0.54288 0.30153-0.23436 0.63733-0.41766 0.9476-0.64153l1.4513-1.0466c0.5212-0.37638 1.0924-0.71324 1.6584-1.012 0.33056-0.1742 0.68385-0.29558 1.0071-0.48867 0.5971-0.35679 1.1627-0.75661 1.777-1.0809 1.1403-0.602 2.3244-1.1159 3.4945-1.6685 1.9081-0.90073 3.846-1.7458 5.8937-2.315 0.30992-0.08605 0.61144-0.21233 0.91822-0.30572 0.69714-0.21338 1.4625-0.41276 2.1915-0.48377 0.39422-0.03848 0.7797-0.15356 1.1746-0.1679 0.1651-6e-3 0.32881-0.05806 0.49391-0.06436 0.14027-0.0049 0.28893 0.0095 0.4341-0.0049 0.18014-0.01749 0.38093-0.085 0.56282-0.03952 0.18119 0.04547 0.1777 0.17805 0.1777 0.3358 0 0.2634 0.01399 0.5156-0.04932 0.7699-0.27634 1.1047-0.62334 2.1841-1.1305 3.1985-0.14027 0.28124-0.24836 0.58101-0.39457 0.8591-0.4369 0.82692-1.0739 1.5419-1.6734 2.2506-0.38163 0.45124-0.78704 0.81992-1.2243 1.2145-0.0913 0.08255-0.1679 0.18154-0.26654 0.2564-0.44634 0.3414-1.0081 0.51805-1.5104 0.75556-0.6961 0.32881-1.3642 0.71603-2.1026 0.96229-0.44669 0.14901-0.90388 0.24731-1.3625 0.35539-0.38653 0.09129-0.76151 0.07451-1.155 0.06926-0.13537-0.0021-0.35294 0.05456-0.46873-0.03952-0.0892-0.07206-0.11228-0.21652-0.15811-0.31587-0.12383-0.27074-0.23156-0.54323-0.38478-0.79964-0.12768-0.21373-0.29453-0.40576-0.41486-0.62194-0.04827-0.08675-0.10949-0.19868-0.04442-0.29138 0.10039-0.14202 0.26654-0.24066 0.40472-0.3407 0.36799-0.2655 0.76011-0.44214 1.2145-0.36519 0.21897 0.03708 0.43025 0.14656 0.65132 0.1679 0.11019 0.01049 0.22107-0.02799 0.32601-0.05422 0.73108-0.18294 1.3282-0.60165 1.984-0.94795 0.32881-0.1735 0.67791-0.30992 1.0071-0.48342 0.24906-0.13152 0.47677-0.30327 0.71079-0.45928 0.44494-0.29663 1.0067-0.65167 1.303-1.1054 0.12523-0.19169 0.29418-0.64503-0.11823-0.62229-0.11893 7e-3 -0.24066 0.07066-0.35539 0.09899-0.28019 0.06892-0.55163 0.19134-0.82937 0.27634a17.84 17.84 0 0 0-1.7175 0.62684c-0.19728 0.08325-0.42116 0.08465-0.62229 0.16301-0.36694 0.14272-0.72058 0.29943-1.0956 0.4243-0.46943 0.15636-0.96089 0.25535-1.4216 0.43445-0.78704 0.30607-1.5349 0.68735-2.2807 1.0809-0.40856 0.21582-0.86295 0.39667-1.2439 0.66636-0.30852 0.21862-0.11194 0.50196-0.21687 0.78984-0.03918 0.10634-0.1644 0.17175-0.25675 0.22737-0.5107 0.30467-1.0756 0.50826-1.5993 0.78459-0.4264 0.22492-0.88604 0.45474-1.2736 0.74507-0.38093 0.28578-0.74017 0.62194-1.0959 0.93816-0.43235 0.38443-0.91157 0.71533-1.2635 1.1844-0.2669 0.35574-0.50301 0.74472-0.73073 1.1256-0.22037 0.36938-0.47502 0.71498-0.67616 1.0956-0.2606 0.49391-0.58136 0.94725-0.81922 1.4513-0.10424 0.22037-0.1749 0.45054-0.25185 0.68106-0.06996 0.20953-0.19484 0.39002-0.27634 0.59256-0.18294 0.45369-0.29943 0.92801-0.45404 1.3918-0.18889 0.56597-0.37113 1.1015-0.46873 1.6881-0.02799 0.16755-0.04372 0.48727-0.27179 0.50371-0.13467 0.0091-0.24836-0.10249-0.35539-0.1679-0.27249-0.1665-0.56842-0.35085-0.85875-0.48377-0.33825-0.15531-0.76885-0.21792-1.1256-0.07905-0.19029 0.07415-0.35399 0.18679-0.53309 0.28124-0.24696 0.13047-0.48342 0.25745-0.71079 0.42465-0.07345 0.05387-0.19694 0.12837-0.29103 0.06891-0.06226-0.03918-0.06436-0.12838-0.08395-0.19239-0.06472-0.21163-0.06366-0.43585-0.10844-0.65167-0.10704-0.5128-0.28928-0.98503-0.45439-1.4807-0.07416-0.22282-0.12278-0.45788-0.19729-0.68106-0.11998-0.35924-0.28054-0.6912-0.42465-1.0368-0.20079-0.48166-0.36379-0.96088-0.6069-1.4216-0.27844-0.52679-0.62264-1.0323-0.93291-1.5398-0.38478-0.62928-0.75731-1.3159-1.254-1.8658-0.41171-0.45614-0.94445-0.83951-1.4216-1.2243-0.37288-0.30082-0.69889-0.64258-1.1253-0.87379-0.45019-0.24381-0.89198-0.5261-1.3625-0.73527-0.3449-0.15321-0.71114-0.29488-1.0364-0.49356-0.10389-0.06366-0.25465-0.14377-0.31097-0.25675-0.06296-0.12628-0.0014-0.33546-0.01469-0.47398-0.01434-0.14656-0.12068-0.26305-0.23716-0.34525-0.41346-0.29313-0.91717-0.49077-1.3621-0.72583-0.63313-0.33371-1.2768-0.6975-1.9547-0.93291-0.67406-0.23401-1.3656-0.41556-2.0435-0.64153-0.21513-0.07171-0.40996-0.19239-0.62194-0.27144-0.19204-0.07206-0.39877-0.07871-0.59256-0.14342-0.5275-0.17563-1.034-0.41384-1.5695-0.5625-0.36939-0.10284-0.71918-0.28683-1.0959-0.36519-0.13222-0.02799-0.46103-0.06191-0.55758 0.04897-0.14866 0.1714 0.058766 0.4306 0.1728 0.56317 0.42815 0.49706 1.0151 0.89933 1.5398 1.2928 0.4285 0.32146 0.9434 0.44214 1.4216 0.66146 0.73737 0.3379 1.3782 0.82762 2.1918 0.99692 0.28264 0.05946 0.54603-0.12593 0.82412-0.15741 0.52924-0.06087 1.0281 0.163 1.4265 0.52295 0.10144 0.09164 0.24311 0.20183 0.20253 0.35539-0.05247 0.19799-0.25745 0.39352-0.37008 0.56282-0.16895 0.2529-0.29418 0.52609-0.41976 0.79964-0.07136 0.15601-0.11613 0.42325-0.27144 0.51805-0.17455 0.10634-0.46383 0.03043-0.65167 0.01504-0.13957-0.0119-0.27494 0.03149-0.41451 0.01959-1.2638-0.10529-2.4685-0.61214-3.5837-1.1697-0.27564-0.13817-0.55023-0.28299-0.82902-0.41486-0.32776-0.15461-0.67196-0.25955-0.97733-0.45893-0.18889-0.12348-0.3372-0.28438-0.50371-0.43445a14.691 14.691 0 0 1-1.0662-1.0662c-0.65762-0.72828-1.3303-1.5153-1.7721-2.3989-0.3491-0.69854-0.72268-1.4132-0.97244-2.1617-0.18539-0.55618-0.3393-1.1263-0.50336-1.6881-0.019589-0.06786-0.00315-0.13852-0.00979-0.20743-0.023786-0.24381-0.057367-0.49601-0.00979-0.74052 0.012592-0.06576-0.013643-0.1756 0.024485-0.23192 0.046174-0.06751 0.20708-0.0787 0.28159-0.08396m23.278 6.1949c0.13397 0.0035 0.23716 0.07416 0.35539 0.12313 0.19484 0.08115 0.39107 0.17 0.59221 0.23716 0.42046 0.13992 0.8605 0.23961 1.303 0.27634 0.17385 0.01434 0.33476-0.04267 0.50371-0.05946 0.40576-0.03918 0.80174-0.15636 1.1844-0.31062 0.23961-0.09654 0.62054-0.36449 0.88848-0.27144 0.15391 0.05317 0.25255 0.20148 0.3554 0.31587 0.15811 0.1749 0.3358 0.33756 0.50371 0.50336 0.0815 0.08046 0.1721 0.16161 0.26655 0.22737 0.07206 0.05003 0.20428 0.0857 0.25185 0.16266 0.06437 0.10529-0.0934 0.17945-0.16301 0.22212-0.28613 0.1749-0.58206 0.31447-0.82447 0.55268-0.38722 0.38058-0.84756 0.71044-1.1795 1.1452-0.19519 0.25535-0.36449 0.53169-0.54323 0.79964-0.08955 0.13432-0.1749 0.30152-0.29593 0.40961-0.11648 0.10389-0.26969 0.12663-0.41486 0.16301-0.13432 0.03358-0.27284 0.09969-0.41451 0.09375-0.25185-0.01049-0.62369-0.08011-0.82902-0.23192-0.11543-0.08535-0.16545-0.23262-0.24696-0.3456-0.16685-0.23087-0.31622-0.47398-0.47398-0.71079-0.26724-0.40087-0.67441-0.79404-1.0564-1.0858-0.28298-0.21617-0.55268-0.47362-0.85875-0.65657-0.09865-0.05876-0.347-0.15286-0.38023-0.27144-0.04163-0.15041 0.26095-0.24486 0.3505-0.32601 0.24906-0.22457 0.47432-0.47397 0.71079-0.71079 0.11543-0.11508 0.23541-0.25675 0.41486-0.25185m14.127 4.2602c0.15916-0.01119 0.44389 0.0063 0.59221 0.06401 0.3533 0.13747 0.6083 0.51245 0.80943 0.81433 0.19624 0.29453 0.2592 0.59465 0.38478 0.91822 0.23541 0.60445 0.31342 1.2285 0.37533 1.8658 0.01889 0.19204 0.05946 0.36659 0.05946 0.56282 0 0.47957 0.03358 1.0179-0.27634 1.4216-0.28124 0.36554-0.88569 0.23226-1.2047 0.01959-0.14202-0.09445-0.28404-0.27984-0.44424-0.3358-0.11438-0.03952-0.22142 0.02309-0.32566 0.05946-0.28438 0.09865-0.56527 0.21093-0.82902 0.3505-0.20638 0.10844-0.39282 0.2508-0.59256 0.37008-1.1935 0.71288-2.3213 1.7077-3.0404 2.9124-0.34805 0.58241-0.54533 1.2365-0.78984 1.8658-0.31587 0.81153-0.55093 1.6731-0.75032 2.5171-0.08115 0.34385-0.09445 0.71534-0.12838 1.0662-0.04022 0.41556-0.13712 0.82692-0.1777 1.2439-0.05597 0.57472 0.0042 1.1813 0.05947 1.7476 0.01225 0.12698-0.0126 0.2578 0 0.38478 0.03848 0.39527 0.10074 0.79579 0.18749 1.1848 0.04722 0.21338 0.1735 0.49251 0.12803 0.71079a7.1359 7.1359 0 0 1-0.54778 1.5993c-0.07556 0.15531-0.18364 0.44179-0.39002 0.45893-0.11613 0.0098-0.18749-0.09095-0.26654-0.15776-0.19589-0.1665-0.36834-0.3386-0.59221-0.46873-0.23576-0.13782-0.57017-0.28264-0.73038-0.5135-0.3498-0.50336-0.3519-1.2005-0.46418-1.777-0.21058-1.084-0.27459-2.1873-0.1679-3.2874 0.01609-0.16475-0.01119-0.3337 0.0049-0.49881 0.07066-0.71778 0.09445-1.4601 0.24206-2.1666 0.13642-0.65517 0.30013-1.3033 0.45404-1.9547 0.06856-0.29033 0.07765-0.5971 0.13817-0.88848 0.06052-0.28998 0.14552-0.57192 0.21722-0.8591 0.0864-0.3456 0.15216-0.70309 0.28648-1.0364 0.50231-1.2474 1.1141-2.429 1.905-3.5242 0.11613-0.16091 0.20568-0.3414 0.31622-0.50371a11.054 11.054 0 0 1 1.7374-1.984c0.21792-0.19694 0.40366-0.425 0.62194-0.62194 0.87974-0.79404 2.004-1.4768 3.1985-1.5601m-24.049 0.05456c0.0773-0.01295 0.15111 0.0049 0.22737 0.0049 0.21897 0 0.44424-0.02134 0.66112 0 0.43025 0.04233 0.89828 0.24136 1.2736 0.43934 0.24381 0.12873 0.45334 0.30712 0.68105 0.45893 0.30887 0.20603 0.64118 0.41136 0.91822 0.66147 0.23331 0.21058 0.44634 0.44284 0.68106 0.65167 0.54673 0.48587 1.0032 1.0445 1.4412 1.6287 0.17874 0.23786 0.31971 0.49951 0.49391 0.74052a15.461 15.461 0 0 1 1.8756 3.4354c0.2571 0.66077 0.41871 1.3827 0.56282 2.0732 0.04862 0.23296 0.05946 0.47572 0.10844 0.71079 0.1679 0.80453 0.44354 1.6101 0.5233 2.4286 0.05387 0.55303 0.12383 1.1054 0.1777 1.6584 0.01609 0.16615-0.01609 0.3372 0 0.50371 0.05772 0.59396 0.11788 1.2337 0.05947 1.8361-0.0098 0.09969-0.04967 0.19624-0.05947 0.29593-0.04442 0.45823-0.06191 0.91297-0.1679 1.3625-0.04477 0.19029-0.03848 0.39947-0.07906 0.59221-0.0864 0.41556-0.22422 0.81782-0.48867 1.155-0.21093 0.27004-0.54078 0.34525-0.80453 0.54323-0.17245 0.12942-0.31027 0.29068-0.47362 0.4292-0.05491 0.04653-0.13572 0.12628-0.20743 0.14342-0.1728 0.04057-0.29908-0.19694-0.36029-0.31622-0.20218-0.39352-0.3379-0.82097-0.47887-1.2439-0.07206-0.21618-0.13432-0.41906-0.10844-0.65132 0.01329-0.11963 0.07906-0.23751 0.10844-0.35539 0.06542-0.26235 0.13187-0.53169 0.15811-0.79964 0.06052-0.62404 0.10949-1.2383 0.11823-1.8658 0.0021-0.14516 0.04407-0.29733 0.02973-0.44424l-0.08885-0.91822c-0.05491-0.56597-0.10144-1.1613-0.21687-1.7175-0.17-0.81503-0.42745-1.6077-0.6912-2.3993-0.25535-0.7657-0.5247-1.572-0.96754-2.2506-0.28159-0.4313-0.62509-0.7755-0.96754-1.155-0.49391-0.54743-1.0809-1.0609-1.7175-1.4412-0.46663-0.27879-0.91577-0.56352-1.4219-0.76046-0.15776-0.06156-0.32986-0.16056-0.50336-0.1679-0.15881-0.0067-0.32356 0.19938-0.44424 0.28648-0.34245 0.24731-0.99447 0.43969-1.2932 0.0098-0.32181-0.46383-0.29873-1.0945-0.24696-1.629 0.09304-0.9546 0.22037-1.9659 0.64678-2.8431 0.12068-0.24836 0.29663-0.46873 0.47397-0.68105 0.14342-0.1721 0.33336-0.37078 0.56737-0.40961m23.93 6.3771c0.28159 0.04687 0.4362 0.40542 0.5135 0.63663 0.1686 0.50651 0.25885 0.97943 0.14796 1.5108-0.03078 0.14761-0.03987 0.30502-0.10354 0.44424-0.05597 0.12103-0.11788 0.27704-0.21233 0.37498-0.30572 0.31657-0.82762 0.34035-1.2341 0.30607-0.25885-0.02169-0.5135 0.0028-0.7699-0.05421-0.35399-0.0787-0.65692-0.22492-0.97733-0.38478-0.13922-0.06996-0.30362-0.13362-0.3456-0.30152-0.06471-0.25885 0.15986-0.46698 0.30607-0.65132 0.42535-0.53764 0.97069-0.90003 1.5496-1.254 0.25045-0.15286 0.48902-0.32356 0.74052-0.47363 0.09865-0.05876 0.26165-0.17385 0.38513-0.15321m-23.308 0.01994c0.1644-0.03428 0.31342 0.0829 0.44424 0.16266 0.25045 0.15321 0.48832 0.32356 0.74052 0.47397 0.55408 0.33091 1.0767 0.68665 1.4856 1.1946 0.15951 0.19798 0.39807 0.4299 0.31132 0.71079-0.04548 0.14587-0.19169 0.20918-0.31622 0.27144-0.23751 0.11893-0.47817 0.26235-0.74017 0.33091-0.39457 0.10284-0.89268 0.17805-1.3033 0.13817-0.09095-0.0091-0.1756-0.04897-0.26654-0.05946-0.2683-0.02973-0.55268-0.09654-0.73038-0.32566-0.12383-0.15986-0.18399-0.36938-0.22737-0.56282-0.12488-0.56387-0.12908-1.0791 0.06927-1.6287 0.09445-0.262 0.21547-0.63978 0.53309-0.70589m19.665 3.4997c0.11928-0.01679 0.28683 0.11333 0.38478 0.1679 0.24031 0.13292 0.48447 0.27039 0.74052 0.37008 0.57472 0.22352 1.1736 0.41206 1.777 0.53799 0.24556 0.05107 0.5198 0.02449 0.77025 0.05946 0.36204 0.05003 0.81083-0.42325 1.1253-0.10879 0.26934 0.26934 0.0815 0.82132-0.01959 1.1253-0.15111 0.45264-0.23506 0.91577-0.41486 1.3625-0.06122 0.15181-0.14027 0.42326-0.27634 0.52295-0.06716 0.04967-0.16231 0.03987-0.23681 0.07416-0.17245 0.07905-0.3442 0.1777-0.53309 0.22212-0.27284 0.06437-0.52749 0.01399-0.79964 0.0098-0.92346-0.0126-1.8585-0.19239-2.6952-0.58731-0.22282-0.10494-0.46033-0.1756-0.68106-0.28614-0.06122-0.03078-0.18294-0.04897-0.22212-0.10844-0.03743-0.05702 0.0046-0.14517 0.01959-0.20288 0.04477-0.16965 0.0899-0.33581 0.14342-0.50336 0.07486-0.23506 0.11893-0.47677 0.19729-0.71079 0.13747-0.41276 0.30607-0.81818 0.39492-1.2439 0.03743-0.1791 0.10844-0.36204 0.1777-0.53309 0.02799-0.06996 0.06296-0.15566 0.14796-0.1679m-16.141 0.05456c0.27984-0.04268 0.3505 0.45124 0.40472 0.64642 0.12243 0.44109 0.27039 0.87099 0.41451 1.3033 0.06507 0.19519 0.08849 0.40157 0.1679 0.59221 0.07765 0.18679 0.16021 0.36274 0.20743 0.56282 0.01399 0.05947 0.03813 0.14132 0.01469 0.20218-0.02798 0.07206-0.13817 0.078-0.20253 0.10389-0.15811 0.06366-0.31377 0.13782-0.47362 0.20218-0.68036 0.27389-1.3897 0.57437-2.1324 0.64678-0.31797 0.03078-0.62998 0.0032-0.94795 0.02938-0.13817 0.01154-0.27389 0.04337-0.41451 0.02973-0.2543-0.02448-0.48482-0.13222-0.71079-0.24171-0.12418-0.06052-0.28334-0.03673-0.38023-0.14342-0.10459-0.11543-0.1644-0.30118-0.22212-0.44424-0.13187-0.32811-0.23087-0.66601-0.32531-1.0067-0.09795-0.35225-0.19764-0.66811-0.19764-1.0368 0-0.14552 0.0042-0.32321 0.09865-0.44424 0.29663-0.37953 0.81153 0.13432 1.1746 0.08396 0.3526-0.04897 0.71813-0.04093 1.0662-0.12313 0.48622-0.11508 0.98643-0.29313 1.4513-0.47398 0.2494-0.09724 0.47292-0.23156 0.71079-0.3505 0.09199-0.04582 0.19274-0.12243 0.29628-0.13817m7.9666 1.7819c0.57437-0.05597 0.92346 0.26025 1.3327 0.60725 0.11858 0.10039 0.35155 0.20883 0.40472 0.36029 0.06472 0.18329 6e-3 0.46593-0.01959 0.65132-0.04932 0.35539-0.11368 0.70974-0.14831 1.0662-0.04303 0.44459 0 0.91542 0 1.3625 0 0.33301-0.06226 0.67056-0.02938 1.0071 0.05142 0.52994 0.12488 1.0672 0.14796 1.5993 6e-3 0.13502-0.0133 0.27739 0 0.41451 0.03148 0.32321 0.12908 0.64468 0.24696 0.94795 0.09199 0.23681 0.21827 0.57017 0.12803 0.82902-0.05212 0.15041-0.20918 0.18504-0.34525 0.21687-0.21722 0.05142-0.4327 0.05806-0.65167 0.07941-0.15846 0.01539-0.31412 0.07345-0.47397 0.08885-0.61564 0.05946-1.2365-0.05177-1.8361-0.14342-0.1686-0.02553-0.47817 0.03393-0.5971-0.12803-0.11998-0.16336 0.01329-0.43235 0.08885-0.58766 0.20988-0.432 0.37288-0.91157 0.41941-1.3918 0.01714-0.17595-0.01714-0.35679 0-0.53309l0.14796-1.5695c0.02588-0.26654-0.02938-0.53309-0.02938-0.79964 0-0.42745 0.04128-0.87799 0-1.3033-0.04547-0.46663-0.13257-0.92591-0.1777-1.3918-0.01504-0.15461-0.05247-0.29103 0.0098-0.44424 0.06472-0.15986 0.27424-0.26724 0.40471-0.36519 0.30083-0.22597 0.57996-0.53414 0.97733-0.57262m6.8413 2.996c0.07556-0.0011 0.19588 0.07136 0.26654 0.099 0.163 0.06296 0.33301 0.11543 0.50371 0.15776 0.42815 0.10704 0.87309 0.13432 1.303 0.24206 0.39002 0.09724 0.78879 0.26654 1.1893 0.26654 0.2676 0 0.56072-0.04128 0.82447 0.02449 0.11543 0.02903 0.23926 0.05421 0.29628 0.1728 0.06681 0.13992 0.01399 0.30677-0.02973 0.44424-0.10074 0.31482-0.29523 0.6062-0.46383 0.88848-0.12733 0.21338-0.22597 0.43445-0.3407 0.65167-0.15496 0.29313-0.3526 0.55968-0.49356 0.85875-0.11613 0.24591-0.20918 0.50056-0.33581 0.74052-0.19484 0.36938-0.44739 0.70799-0.66636 1.0662-0.32216 0.5275-0.50021 1.0861-0.73038 1.6584-0.14866 0.36869-0.34735 0.74087-0.45404 1.1253-0.22947 0.82517-0.50476 1.6556-0.92801 2.3989-0.41171 0.72268-1.1089 1.3292-1.8364 1.713-0.22072 0.11648-0.45439 0.19904-0.68106 0.30607-0.33895 0.15986-0.69889 0.32846-1.0662 0.4243-0.30222 0.07906-0.61424 0.12663-0.91822 0.20253-0.46523 0.11613-0.93816 0.2564-1.4216 0.28613-0.29663 0.01854-0.59081-0.03358-0.88848-0.02938-0.23087 0.0032-0.45788 0.05177-0.69085 0.01959a9.0947 9.0947 0 0 1-0.93781-0.1777c-0.13362-0.03323-0.27144-0.09549-0.40472-0.11858-0.73945-0.12728-1.4261-0.38123-2.1128-0.69604-0.54603-0.2501-1.0949-0.53309-1.5402-0.9525-0.28124-0.26515-0.5184-0.609-0.75031-0.91787-0.1777-0.23716-0.37918-0.47747-0.51805-0.74052-0.22527-0.42675-0.21338-0.93396-0.3407-1.3922-0.13012-0.46768-0.32811-0.91787-0.51315-1.3621-0.21303-0.5107-0.37918-1.0221-0.63663-1.5104-0.19589-0.37043-0.47607-0.6961-0.67161-1.0662-0.20218-0.38303-0.3407-0.80138-0.54288-1.1848-0.26375-0.49986-0.55618-0.98573-0.82447-1.4807-0.1714-0.31657-0.18014-0.67406-0.06892-1.0071 0.03918-0.11718 0.07311-0.30782 0.18749-0.37988 0.07415-0.04687 0.15881 0.01713 0.23681 0.02448 0.14552 0.01399 0.33091 0.01819 0.47397-0.0098 0.78809-0.15321 1.5933-0.30537 2.3692-0.48867 0.22177-0.05247 0.44005-0.10739 0.65167-0.19239 0.07206-0.02903 0.15881-0.08325 0.22737-0.01504 0.11264 0.11298 0.11403 0.29488 0.12803 0.43934 0.02624 0.27144 0.05946 0.5226 0.05946 0.79964 0 0.41801 0.04022 0.85805 0 1.2736-0.03393 0.3463-0.11228 0.6968-0.18784 1.0364-0.06296 0.28334-0.18154 0.55618-0.27634 0.82937-0.04198 0.12138-0.11088 0.24276-0.10844 0.37498 0.0021 0.13187 0.09549 0.28054 0.15286 0.39527 0.09234 0.18434 0.1784 0.37603 0.26655 0.56247 0.19484 0.41276 0.4278 0.80313 0.62194 1.2141 0.10424 0.22072 0.16021 0.46873 0.28124 0.6814 0.09304 0.16301 0.21163 0.31167 0.30607 0.47362 0.19658 0.3372 0.22982 0.73492 0.37533 1.0959 0.1749 0.43515 0.44424 0.84651 0.74017 1.2141 0.25605 0.31796 0.58661 0.53869 0.90842 0.78005 0.22842 0.1714 0.42395 0.41941 0.68105 0.54778 0.29803 0.14901 0.65762 0.20148 0.97733 0.28159 0.90213 0.22527 1.827 0.27669 2.7543 0.14796 0.46383-0.06436 0.94025-0.22037 1.3922-0.3456 0.36624-0.10144 0.62964-0.45893 0.91787-0.69085 0.23821-0.19239 0.49671-0.37323 0.70099-0.60235 0.36659-0.41066 0.63138-0.8703 0.864-1.3625 0.12243-0.2599 0.12593-0.56877 0.24136-0.82902 0.11928-0.26795 0.36729-0.47747 0.49881-0.74052 0.12908-0.25815 0.20113-0.54463 0.3358-0.79964 0.2592-0.49146 0.53169-0.96859 0.74507-1.4807 0.06646-0.15986 0.22457-0.35399 0.22737-0.53309 0.0021-0.1721-0.10704-0.37638-0.1679-0.53309a7.3457 7.3457 0 0 1-0.29628-0.97733c-0.07415-0.31447-0.06751-0.62788-0.09865-0.94795-0.05037-0.51595-0.07171-1.084 0-1.5993 0.02729-0.19798 0.03498-0.37428 0.10844-0.56247 0.02553-0.06542 0.03602-0.19134 0.12838-0.19239m-9.2105 6.92c0.2571-0.03918 0.53169 0.02553 0.78949 0.03463 0.50021 0.01749 1.0144 0 1.5206 0.04932 0.30642 0.02973 0.61319-0.04548 0.91787-0.05421 0.32531-0.0095 0.64642 0.01645 0.96754 0.0049 0.31517-0.01154 0.61494-0.04022 0.92801-0.0098 0.45299 0.04407 0.92206 0.07415 1.303 0.36519 0.47572 0.36344 0.22527 1.0256 0.03952 1.4709-0.34385 0.82517-0.91017 1.7147-1.757 2.1026-0.25046 0.11473-0.58171 0.18714-0.8542 0.22737-0.96124 0.14167-1.8662 0.18364-2.8183-0.05456-0.39457-0.09865-0.72933-0.16231-1.0662-0.41976-0.51105-0.39037-0.83566-0.8528-1.1302-1.4114-0.11648-0.22037-0.26724-0.41976-0.36029-0.65167-0.12873-0.31866-0.28439-0.74367-0.06926-1.0662 0.33755-0.50651 1.0599-0.50651 1.5895-0.58731" fill="#040404"/></svg>
