<svg xmlns="http://www.w3.org/2000/svg" width="655.36" height="655.36" viewBox="0 0 173.397 173.397"><g style="display:inline"><path d="M61.213 223.267c-.568-7.591 27.43-10.813 41.761-11.003 17.233-.228 46.104 3.286 46.237 10.552.125 6.831-23.438 10.398-44.257 10.662-16.907.214-43.248-3.616-43.741-10.211" style="display:inline;fill:#000;fill-opacity:.2;stroke-width:.264583" transform="translate(-18.34 -61.733)"/></g><g style="display:inline"><path d="M54.78 111.675c-.11-1.378-.688-2.797-.988-4.148a51 51 0 0 1-.96-6.096c-.182-1.874-.097-3.81.085-5.673.757-7.785 3.49-15.28 8.805-21.167 4.503-4.988 10.436-8.18 16.933-9.623 1.943-.432 3.877-.515 5.842-.706a23 23 0 0 1 4.403 0c1.967.191 3.897.273 5.842.706 6.093 1.354 11.563 4.168 16.002 8.607 1.718 1.718 3.247 3.597 4.516 5.673.55.9 1.195 1.819 1.58 2.794-2.091.165-4.177.474-6.265.677-5.364.522-10.724 1.088-16.087 1.609-3.539.344-7.083.73-10.583 1.411-3.517.684-7.07 1.466-10.33 3.006-2.036.961-4.141 2.269-5.672 3.965-4.211 4.664-4.837 11.516-1.934 17.018 1.955 3.703 5.704 6.336 9.3 8.283 1.971 1.068 4.231 2.13 5.842 3.74l-1.948 1.002-4.318 1.679-4.064 1.242-9.821 2.455-11.091 2.201-6.604 1.073-10.33 1.608-3.979.593v.085c1.032.624 2.288.95 3.387 1.453 2.757 1.264 5.623 2.292 8.382 3.556 7.831 3.59 15.96 6.542 23.791 10.132 2.004.918 4.103 1.627 6.096 2.568 3.713 1.753 7.61 3.114 11.345 4.826 1.057.485 2.143.921 3.218 1.369.4.167.992.594 1.439.55.52-.05 1.214-.514 1.693-.734 1.092-.5 2.212-.94 3.302-1.439 3.723-1.706 7.56-3.163 11.261-4.91 1.92-.907 3.924-1.635 5.842-2.54.842-.398 1.735-.674 2.54-1.144 1.743-1.016 3.406-2.275 4.91-3.612 5.335-4.742 9.612-11.032 8.89-18.457-.125-1.294-.442-2.558-.79-3.81-.648-2.335-2.098-4.552-3.697-6.35-3.94-4.434-9.352-7.034-14.732-9.2-3.13-1.262-6.468-2.233-9.482-3.74-.683-.341-1.366-.637-2.032-1.016-.222-.126-.687-.326-.72-.607-.078-.675.535-1.509.974-1.947 1.252-1.253 3.136-2.007 4.741-2.653 4.34-1.748 8.843-3.072 13.208-4.77 1.696-.66 3.47-1.119 5.165-1.778.581-.226 1.222-.343 1.778-.62.386 2.097.978 4.136 1.185 6.265.276 2.844.19 5.717-.085 8.551-.167 1.722-.583 3.471-.96 5.165-.106.479-.216.956-.31 1.439-.028.144-.122.356-.042.494.126.218.585.29.804.38l2.456 1.017c2.79 1.163 5.589 2.308 8.382 3.471 5.92 2.467 11.857 4.899 17.78 7.366 1.55.646 3.097 1.305 4.656 1.933q.637.258 1.27.523c.221.092.425.243.678.225.637-.044 1.38-.565 1.947-.832 1.12-.53 2.268-.996 3.387-1.524 1.428-.675 2.891-1.274 4.318-1.948.309-.146.624-.278.931-.423.132-.062.373-.088.466-.212.146-.195.042-.75.042-.987V88.307c0-.573.153-1.402-.028-1.947-.2-.602-.78-1.17-1.13-1.693-1.132-1.7-2.483-3.303-3.837-4.826-4.526-5.091-9.447-9.738-14.902-13.83-4.39-3.293-9.062-6.217-13.885-8.762-2.34-1.235-4.782-2.224-7.197-3.33-2.656-1.218-5.55-2.304-8.382-3.09-2.51-.698-4.992-1.468-7.535-2.033-4.567-1.015-9.168-1.694-13.8-2.145-1.295-.125-2.602-.128-3.895-.254-.56-.054-1.135.055-1.694 0a33.3 33.3 0 0 0-6.265 0c-.615.06-1.248-.06-1.863 0-1.265.123-2.543.131-3.81.254-2.52.245-5.018.652-7.535.932-.708.078-1.418.259-2.117.395-2.3.447-4.598.896-6.858 1.524-8.126 2.257-15.867 5.312-23.114 9.539-4.753 2.772-9.428 5.963-13.546 9.624-1.688 1.5-3.32 3.058-4.996 4.572-.346.312-.622.673-.931 1.016-1.111 1.23-2.277 2.41-3.387 3.64-1.732 1.92-3.322 3.972-4.797 6.096a31 31 0 0 0-1.158 1.778c-.127.213-.316.435-.38.678-.193.727-.1 1.617-.1 2.37v4.318c0 4.142-.169 8.302-.169 12.446 0 4.01-.029 8.009-.084 12.023-.014 1.006-.085 2.029-.085 3.048 0 .275-.122.929.042 1.157.143.198.59.355.805.466.593.305 1.18.632 1.778.931 1.772.886 3.477 1.908 5.249 2.794.569.285 1.236.852 1.863.974.225.044.474-.147.677-.226.655-.255 1.31-.54 1.947-.833 2.28-1.044 4.629-1.984 6.943-2.949 3.534-1.472 7.105-2.907 10.583-4.501 2.339-1.072 4.774-1.92 7.112-2.992 1.976-.905 4.003-1.717 6.012-2.554.96-.4 1.906-.883 2.878-1.242z" id="bridge_svg" display="inline" fill="currentColor" stroke="#000" stroke-width="2"/><path d="M54.78 111.675c-.11-1.378-.688-2.797-.988-4.148a51 51 0 0 1-.96-6.096c-.182-1.874-.097-3.81.085-5.673.757-7.785 3.49-15.28 8.805-21.167 4.503-4.988 10.436-8.18 16.933-9.623 1.943-.432 3.877-.515 5.842-.706a23 23 0 0 1 4.403 0c1.967.191 3.897.273 5.842.706 6.093 1.354 11.563 4.168 16.002 8.607 1.718 1.718 3.247 3.597 4.516 5.673.55.9 1.195 1.819 1.58 2.794-2.091.165-4.177.474-6.265.677-5.364.522-10.724 1.088-16.087 1.609-3.539.344-7.083.73-10.583 1.411-3.517.684-7.07 1.466-10.33 3.006-2.036.961-4.141 2.269-5.672 3.965-4.211 4.664-4.837 11.516-1.934 17.018 1.955 3.703 5.704 6.336 9.3 8.283 1.971 1.068 4.231 2.13 5.842 3.74l-1.948 1.002-4.318 1.679-4.064 1.242-9.821 2.455-11.091 2.201-6.604 1.073-10.33 1.608-3.979.593v.085c1.032.624 2.288.95 3.387 1.453 2.757 1.264 5.623 2.292 8.382 3.556 7.831 3.59 15.96 6.542 23.791 10.132 2.004.918 4.103 1.627 6.096 2.568 3.713 1.753 7.61 3.114 11.345 4.826 1.057.485 2.143.921 3.218 1.369.4.167.992.594 1.439.55.52-.05 1.214-.514 1.693-.734 1.092-.5 2.212-.94 3.302-1.439 3.723-1.706 7.56-3.163 11.261-4.91 1.92-.907 3.924-1.635 5.842-2.54.842-.398 1.735-.674 2.54-1.144 1.743-1.016 3.406-2.275 4.91-3.612 5.335-4.742 9.612-11.032 8.89-18.457-.125-1.294-.442-2.558-.79-3.81-.648-2.335-2.098-4.552-3.697-6.35-3.94-4.434-9.352-7.034-14.732-9.2-3.13-1.262-6.468-2.233-9.482-3.74-.683-.341-1.366-.637-2.032-1.016-.222-.126-.687-.326-.72-.607-.078-.675.535-1.509.974-1.947 1.252-1.253 3.136-2.007 4.741-2.653 4.34-1.748 8.843-3.072 13.208-4.77 1.696-.66 3.47-1.119 5.165-1.778.581-.226 1.222-.343 1.778-.62.386 2.097.978 4.136 1.185 6.265.276 2.844.19 5.717-.085 8.551-.167 1.722-.583 3.471-.96 5.165-.106.479-.216.956-.31 1.439-.028.144-.122.356-.042.494.126.218.585.29.804.38l2.456 1.017c2.79 1.163 5.589 2.308 8.382 3.471 5.92 2.467 11.857 4.899 17.78 7.366 1.55.646 3.097 1.305 4.656 1.933q.637.258 1.27.523c.221.092.425.243.678.225.637-.044 1.38-.565 1.947-.832 1.12-.53 2.268-.996 3.387-1.524 1.428-.675 2.891-1.274 4.318-1.948.309-.146.624-.278.931-.423.132-.062.373-.088.466-.212.146-.195.042-.75.042-.987V88.307c0-.573.153-1.402-.028-1.947-.2-.602-.78-1.17-1.13-1.693-1.132-1.7-2.483-3.303-3.837-4.826-4.526-5.091-9.447-9.738-14.902-13.83-4.39-3.293-9.062-6.217-13.885-8.762-2.34-1.235-4.782-2.224-7.197-3.33-2.656-1.218-5.55-2.304-8.382-3.09-2.51-.698-4.992-1.468-7.535-2.033-4.567-1.015-9.168-1.694-13.8-2.145-1.295-.125-2.602-.128-3.895-.254-.56-.054-1.135.055-1.694 0a33.3 33.3 0 0 0-6.265 0c-.615.06-1.248-.06-1.863 0-1.265.123-2.543.131-3.81.254-2.52.245-5.018.652-7.535.932-.708.078-1.418.259-2.117.395-2.3.447-4.598.896-6.858 1.524-8.126 2.257-15.867 5.312-23.114 9.539-4.753 2.772-9.428 5.963-13.546 9.624-1.688 1.5-3.32 3.058-4.996 4.572-.346.312-.622.673-.931 1.016-1.111 1.23-2.277 2.41-3.387 3.64-1.732 1.92-3.322 3.972-4.797 6.096a31 31 0 0 0-1.158 1.778c-.127.213-.316.435-.38.678-.193.727-.1 1.617-.1 2.37v4.318c0 4.142-.169 8.302-.169 12.446 0 4.01-.029 8.009-.084 12.023-.014 1.006-.085 2.029-.085 3.048 0 .275-.122.929.042 1.157.143.198.59.355.805.466.593.305 1.18.632 1.778.931 1.772.886 3.477 1.908 5.249 2.794.569.285 1.236.852 1.863.974.225.044.474-.147.677-.226.655-.255 1.31-.54 1.947-.833 2.28-1.044 4.629-1.984 6.943-2.949 3.534-1.472 7.105-2.907 10.583-4.501 2.339-1.072 4.774-1.92 7.112-2.992 1.976-.905 4.003-1.717 6.012-2.554.96-.4 1.906-.883 2.878-1.242m-5.926-2.963c-1.156.365-2.29.922-3.387 1.425-1.84.843-3.75 1.529-5.588 2.37-4.234 1.941-8.636 3.508-12.87 5.448-1.975.905-4.004 1.718-6.01 2.554-.51.212-1.008.448-1.525.649-.215.084-.437.215-.677.155-.318-.08-.64-.334-.931-.48-.858-.428-1.682-.925-2.54-1.354-.353-.176-1.077-.393-1.313-.72-.187-.26.015-.793.043-1.072.08-.83 0-1.707 0-2.54 0-3.48.084-6.933.084-10.414 0-3.773.17-7.574.17-11.346v-3.725c0-.502-.131-1.216.028-1.693.263-.79 1.057-1.627 1.552-2.286 1.27-1.694 2.59-3.34 4.008-4.911 5.378-5.958 11.494-11.432 18.372-15.635 6.866-4.196 14.106-7.818 21.929-9.99 4.64-1.29 9.429-2.526 14.224-2.992 2.509-.244 5.025-.434 7.535-.678.56-.054 1.134.055 1.694 0a34 34 0 0 1 6.434 0c.56.055 1.134-.054 1.694 0 1.041.102 2.091.153 3.132.254 4.206.41 8.379.884 12.531 1.807 11.628 2.584 22.734 7.264 32.512 14.054 6.027 4.186 11.587 8.912 16.51 14.365a75 75 0 0 1 3.16 3.726c.523.659 1.307 1.416 1.624 2.201.166.413.042 1.08.042 1.524v27.093c0 .225.093.715-.042.903-.207.287-.836.397-1.143.55-1.163.582-2.387 1.041-3.556 1.61-.39.189-1.087.671-1.524.55-.775-.215-1.544-.65-2.286-.96l-4.488-1.862c-4.907-2.045-9.826-4.052-14.732-6.096l-5.926-2.456q-.93-.386-1.863-.762c-.184-.074-.515-.139-.635-.31-.148-.212.094-.75.127-.988.13-.932.332-1.858.423-2.794.32-3.296.32-6.61 0-9.906-.215-2.216-.73-4.456-1.326-6.604-2.221-7.997-6.8-15.323-13.406-20.461-5.635-4.383-12.495-6.877-19.558-7.564-2.26-.22-4.58-.39-6.858-.169-.335.033-.68-.033-1.016 0-1.045.102-2.087.237-3.132.339-1.132.11-2.276.402-3.387.649a37.5 37.5 0 0 0-9.313 3.429c-3.508 1.851-6.818 4.4-9.483 7.352-1.28 1.417-2.41 2.94-3.528 4.487-.687.952-1.276 2.018-1.82 3.048-2.649 5.018-4.346 10.42-4.897 16.087-.087.899-.081 1.808-.169 2.709-.083.85-.168 1.764-.085 2.625.157 1.607.267 3.22.424 4.826.13 1.337.518 2.658.762 3.979m56.134-20.32v.085c-.469.086-.904.3-1.355.451a68 68 0 0 0-3.133 1.13c-4.674 1.817-10.919 3.818-11.867 9.51-.146.873-.285 1.837-.042 2.71.36 1.294 1.523 2.22 2.596 2.934 2.373 1.583 5.136 2.497 7.79 3.528 4.745 1.846 9.549 3.516 13.8 6.35 3.357 2.239 6.109 5.28 7 9.285 1.316 5.925-2.173 11.249-6.407 15.071-1.465 1.323-3.068 2.699-4.826 3.627-1.84.97-3.875 1.594-5.758 2.483-3.643 1.72-7.446 3.105-11.091 4.826-1.222.577-2.476 1.102-3.725 1.623-.425.177-.971.587-1.44.607-.29.012-.671-.248-.931-.367-.724-.332-1.478-.6-2.201-.932-2.62-1.2-5.34-2.186-7.959-3.386-6.298-2.887-12.838-5.242-19.135-8.128-2.035-.933-4.147-1.693-6.18-2.625-.91-.417-1.941-.683-2.794-1.2.179-.13.517-.135.762-.169a32 32 0 0 0 1.693-.282c1.972-.383 3.956-.69 5.927-1.1 4.881-1.018 9.76-1.997 14.562-3.33 2.553-.71 5.14-1.407 7.62-2.371 1.994-.776 3.925-1.53 5.758-2.625.963-.575 1.972-1.274 2.596-2.23.441-.675.452-1.265.367-2.032-.209-1.878-1.402-3.289-2.794-4.487-.91-.783-1.997-1.477-3.048-2.046-.977-.53-1.903-1.137-2.879-1.665-3.103-1.681-6.556-3.884-7.93-7.296-1.205-2.99-.973-6.795 1.016-9.398 1.195-1.564 2.994-2.86 4.798-3.612 6.26-2.609 13.062-3.36 19.727-4.008l6.943-.677c.843-.082 1.689-.254 2.54-.254" style="fill:#020202;stroke:none"/></g></svg>