<svg xmlns="http://www.w3.org/2000/svg" xml:space="preserve" width="655.36" height="655.36" viewBox="0 0 173.397 173.397"><g style="display:inline"><path d="M61.213 223.267c-.568-7.591 27.43-10.813 41.761-11.003 17.233-.228 46.104 3.286 46.237 10.552.125 6.831-23.438 10.398-44.257 10.662-16.907.214-43.248-3.616-43.741-10.211" style="display:inline;fill:#000;fill-opacity:.2;stroke-width:.264583" transform="translate(-18.34 -61.733)"/></g><path d="M88.138 9.426c-.614.12-1.242-.004-1.863.057-.871.084-1.752.084-2.624.169-3.167.308-6.35.604-9.483 1.214-10.634 2.067-21.446 6.224-28.871 14.45-1.655 1.832-3.25 3.723-4.544 5.841-2.62 4.286-4.576 8.948-5.673 13.886-.524 2.36-.812 4.721-1.044 7.112l-.17 1.693c-.06.615.06 1.248 0 1.863-.176 1.813-.003 3.612.861 5.249 1.763 3.34 5.665 4.753 9.13 5.475 1.434.299 2.87.31 4.318.452 1.155.112 2.317.112 3.472 0 .647-.063 1.3-.022 1.947-.085a36 36 0 0 0 6.18-1.157c2.149-.597 4.616-1.499 6.181-3.161.608-.645 1.194-1.501 1.411-2.37.338-1.353.149-2.775.283-4.15.266-2.743.71-5.614 1.721-8.212 1.256-3.229 3.036-6.196 5.645-8.551 3.303-2.983 7.503-4.403 11.853-4.826 1.392-.136 2.784.102 4.149.254 2.529.28 5.12 1.33 7.112 2.907 1.26.997 2.369 2.365 2.765 3.95.295 1.18.23 2.445.113 3.641-.13 1.35-.254 2.66-.62 3.98-.624 2.246-1.775 4.273-3.218 6.096-2.292 2.895-5.488 5.064-8.608 6.97-6.684 4.086-14.618 7.86-18.852 14.789-1.157 1.893-2.097 3.927-2.639 6.096-.672 2.69-.96 5.44-.691 8.213.227 2.336 1.312 4.557 2.511 6.519 2.918 4.774 7.97 8.21 12.813 10.767 2.668 1.408 5.407 2.747 8.298 3.711 1.177.393 2.367.97 3.64.847 2.454-.239 2.311-3.213 2.286-4.996-.003-.26-.08-.5-.084-.762-.008-.564 0-1.129 0-1.693 0-4.424.21-8.745 1.284-13.039.8-3.203 2.15-6.41 4.388-8.89a14.6 14.6 0 0 1 4.572-3.372c1.372-.648 2.863-.993 4.318-1.397 1.846-.513 3.765-1.136 5.504-1.933 2.309-1.059 4.505-2.152 6.688-3.486 4.678-2.858 8.775-7.234 11.332-12.079 2.535-4.804 4.227-10.235 4.755-15.663.21-2.165.637-4.403.423-6.604-.305-3.142-.937-6.259-2.3-9.144a29.5 29.5 0 0 0-3.062-5.08c-7.832-10.443-21.265-14.043-33.584-15.24-2.755-.268-5.51-.339-8.298-.339-1.183 0-2.565-.197-3.725.028m-1.27 143.567c.851-.493 1.588-1.419 2.286-2.117 1.7-1.7 3.302-3.482 4.727-5.419a26.3 26.3 0 0 0 3.373-6.096c.466-1.199.667-2.462.79-3.725.096-.988.052-1.897-.085-2.879-.731-5.269-5.749-8.462-10.244-10.273a28 28 0 0 0-2.964-1.016c-2.091-.58-4.194-1.196-6.35-1.495-.482-.067-.957-.187-1.439-.254-.23-.032-.443-.128-.677-.057-.956.292-1.962.997-2.794 1.552-1.728 1.152-3.322 2.57-4.304 4.431-1.555 2.947-1.124 6.83.522 9.652 1.483 2.544 3.337 4.678 5.306 6.858 1.13 1.253 2.476 2.344 3.725 3.472 2.713 2.45 5.538 4.776 8.128 7.366z" id="mysteryPOI_svg" display="inline" fill="currentColor" stroke="#000" stroke-width="2"/><path d="M87.969 9.426c-.587.114-1.185-.001-1.778.057-.872.084-1.753.084-2.625.169-2.821.274-5.676.502-8.467 1.044-6.167 1.2-12.377 2.802-17.949 5.743-3.751 1.98-7.172 4.417-10.33 7.268-1.838 1.66-3.436 3.671-4.882 5.672-4.83 6.689-7.114 14.669-7.902 22.776-.101 1.039-.068 2.092-.17 3.132-.201 2.077-.047 4.184 1.045 6.012 1.94 3.249 5.875 4.541 9.37 5.22 2.39.465 5.02.604 7.45.368.647-.063 1.301-.022 1.948-.085 2.266-.22 4.599-.63 6.773-1.355 1.963-.654 4.153-1.48 5.588-3.048.677-.74 1.206-1.64 1.411-2.624.252-1.21.078-2.5.198-3.726.26-2.676.65-5.507 1.637-8.043 1.272-3.273 2.99-6.325 5.644-8.72 3.41-3.078 7.625-4.476 12.107-4.911 1.102-.107 2.22.064 3.302.169 2.767.269 5.595 1.254 7.79 2.992 1.623 1.285 2.761 3.059 2.963 5.136.073.755-.012 1.543-.085 2.286-.114 1.175-.193 2.308-.451 3.471-.523 2.35-1.661 4.543-3.133 6.435-2.478 3.186-5.878 5.481-9.285 7.564-6.7 4.094-14.357 7.847-18.598 14.788a21.6 21.6 0 0 0-2.512 6.011c-.6 2.401-.974 4.983-.734 7.451.358 3.683 2.203 7.103 4.657 9.821 3.306 3.662 7.48 6.464 11.853 8.65 2.372 1.187 4.79 2.178 7.281 3.147 1.114.433 2.339.937 3.556.819 2.742-.267 2.388-4.007 2.202-5.927-.049-.497 0-1.024 0-1.524 0-7.476.476-16.163 5.757-22.013 1.244-1.378 2.824-2.503 4.487-3.288 1.546-.73 3.274-1.112 4.911-1.567 1.754-.487 3.492-1.165 5.165-1.862 7.214-3.006 13.963-8.253 17.68-15.297 2.834-5.367 4.423-11.236 5.01-17.272.403-4.147.325-8.32-1.213-12.276-.882-2.269-1.95-4.446-3.387-6.435a30.6 30.6 0 0 0-3.19-3.725c-8.189-8.19-19.757-11.109-30.902-12.192-2.813-.274-5.621-.339-8.467-.339-1.183 0-2.566-.197-3.725.028m2.794 97.677c-.73-.134-1.439-.536-2.117-.818-1.635-.682-3.18-1.476-4.741-2.3-3.044-1.607-5.933-3.576-8.382-6.026-1.896-1.896-3.484-4.207-4.036-6.858a8.1 8.1 0 0 1-.113-2.455c.175-1.8.294-3.508.875-5.25.522-1.566 1.23-3.057 2.201-4.402 3.434-4.755 8.728-7.718 13.688-10.612 4.209-2.454 8.642-5.126 11.938-8.777 1.776-1.967 3.155-4.136 4.247-6.519.844-1.841 1.372-3.92 1.595-5.927.168-1.516.404-3.114.254-4.656-.218-2.247-.895-4.333-2.23-6.181-2.266-3.138-5.795-5.108-9.454-6.124-8.112-2.254-16.948-.111-23.199 5.531-2.202 1.988-3.947 4.512-5.32 7.112-1.78 3.376-2.862 7.47-3.231 11.261-.105 1.083-.254 2.213-.254 3.302 0 .438.15 1.184-.17 1.524-.355.38-.9.634-1.354.86-1.135.568-2.321.934-3.556 1.243-4.052 1.013-8.6 1.235-12.7.38-1.683-.35-3.755-.838-4.981-2.144-1.044-1.113-.913-2.574-.776-3.98.049-.503-.05-1.02 0-1.524.101-1.044.237-2.088.338-3.132.658-6.766 3.22-13.531 7.296-18.966 1.137-1.516 2.383-3.043 3.796-4.318 2.688-2.427 5.605-4.562 8.805-6.25 4.938-2.607 10.434-4.17 15.917-5.236 2.907-.565 5.868-.843 8.806-1.129.73-.071 1.47-.014 2.201-.085 1.85-.18 3.717-.169 5.588-.169 1.383 0 2.78-.048 4.149.085.447.043.907-.044 1.354 0 1.635.159 3.276.264 4.911.423 3.675.357 7.28 1.27 10.837 2.258 1.5.416 2.996.978 4.403 1.623 2.129.975 4.255 1.953 6.18 3.344 5.194 3.75 9.69 9.22 10.33 15.804.121 1.246.292 2.544.17 3.81-.217 2.23-.417 4.487-.876 6.689-1.385 6.648-4.14 13.052-9.285 17.695a32.4 32.4 0 0 1-6.519 4.558c-2.216 1.17-4.666 2.27-7.112 2.95-4.408 1.224-8.84 2.598-12.023 6.124-1.398 1.549-2.652 3.234-3.626 5.08-3.58 6.782-3.824 14.68-3.824 22.182m-3.895 45.89c.86-.499 1.581-1.412 2.286-2.117 1.703-1.703 3.3-3.48 4.727-5.419 1.334-1.812 2.478-3.758 3.288-5.842.537-1.381.818-2.857.96-4.318.058-.596-.028-1.193-.085-1.778-.667-6.862-7.592-10.481-13.547-12.135-1.91-.531-3.818-.95-5.757-1.355a27 27 0 0 0-1.778-.31c-.23-.032-.443-.128-.677-.057-.993.304-2.014 1.032-2.879 1.609-1.094.729-2.196 1.556-3.02 2.596-1.096 1.385-1.971 3.04-2.145 4.826-.22 2.259.41 4.628 1.454 6.604 1.324 2.51 3.265 4.6 5.15 6.689.934 1.034 2.019 1.95 3.048 2.879 2.993 2.701 6.12 5.273 8.975 8.128m0-7.028c-.59-.342-1.1-.895-1.609-1.354-1.053-.952-2.163-1.843-3.217-2.794-.599-.54-1.15-1.16-1.778-1.665-1.542-1.243-2.978-2.862-4.177-4.431-1.722-2.255-4.075-5.633-1.975-8.382.36-.472.856-.94 1.326-1.299.464-.354 1.187-1.024 1.778-1.114.457-.07 1.077.175 1.524.268 1.312.273 2.604.573 3.895.931 2.801.778 5.732 1.837 7.958 3.754 1.575 1.355 2.665 3.184 2.456 5.334-.163 1.673-.852 3.28-1.623 4.741-1.15 2.18-2.847 4.254-4.558 6.011" style="display:inline;fill:#020202;stroke:none"/></svg>