<svg xmlns="http://www.w3.org/2000/svg" xml:space="preserve" width="655.36" height="655.36" viewBox="0 0 173.397 173.397"><g style="display:inline"><path d="M61.213 223.267c-.568-7.591 27.43-10.813 41.761-11.003 17.233-.228 46.104 3.286 46.237 10.552.125 6.831-23.438 10.398-44.257 10.662-16.907.214-43.248-3.616-43.741-10.211" style="display:inline;fill:#000;fill-opacity:.2;stroke-width:.264583" transform="translate(-18.34 -61.733)"/></g><g style="display:inline"><path d="M86.275 5.884c-.301.042-.672.382-.931.537-.848.506-1.667 1.087-2.455 1.679a76 76 0 0 0-8.213 7.14 79.6 79.6 0 0 0-14.04 19.05c-1.74 3.297-3.084 6.744-4.446 10.245-1.104 2.84-1.881 5.843-2.54 8.805-.233 1.05-.66 2.225-.705 3.302-.017.417.772.819 1.072 1.044 1.023.767 2.053 1.54 3.048 2.343.258.207 1.125.645 1.073 1.016-.053.376-.313.828-.452 1.185-.24.616-.438 1.247-.677 1.863-.772 1.986-1.401 4.025-2.173 6.011-.294.755-.581 1.52-.847 2.286-.091.263-.322.656-.31.931.014.355.53.7.762.932l2.286 2.286c.25.25.935.715.903 1.1-.05.606-.373 1.275-.536 1.863-.487 1.752-1.01 3.497-1.496 5.25-.182.653-.412 1.294-.593 1.947-.06.214-.194.448-.127.677.095.327.514.612.748.847.479.479.913 1.01 1.355 1.524 1.358 1.577 2.572 3.413 3.542 5.249 2.82 5.344 4.587 11.157 5.743 17.103.666 3.427.961 6.868 1.298 10.329.21 2.155.339 4.344.339 6.52 0 1.721.166 3.536 0 5.249-.081.833-.17 1.702-.17 2.54 0 .21-.114.576-.042.762.15.386.619.716.889 1.016l1.693 1.862c2.073 2.297 4.276 4.476 6.35 6.774 2.01 2.226 4.184 4.496 6.52 6.378 1.121.903 2.268 1.9 3.81 1.75 1.212-.118 1.924-1.162 2.709-1.948l4.91-4.91c2.305-2.304 4.525-4.76 6.943-6.943.845-.762 1.649-1.564 2.456-2.37.322-.323.853-.691 1.058-1.101.194-.388-.037-.953-.042-1.355a52 52 0 0 0-.254-4.233c-.073-.746 0-1.536 0-2.286 0-1.245-.035-2.494.084-3.726.055-.559-.054-1.134 0-1.693.15-1.548.189-3.108.34-4.657.81-8.336 2.683-16.685 6.278-24.299 1.018-2.155 2.342-4.26 3.782-6.18.476-.636.985-1.246 1.482-1.863.212-.263.55-.504.635-.847.124-.498-.192-1.363-.296-1.863-.357-1.712-.766-3.41-1.299-5.08-.191-.599-.415-1.186-.62-1.778-.064-.183-.258-.486-.184-.677.142-.366.698-.74.974-1.016.777-.777 1.507-1.592 2.286-2.37.36-.361 1.1-.862.987-1.44-.316-1.63-.856-3.248-1.382-4.826-.426-1.277-.838-2.588-1.397-3.81-.374-.815-.7-1.655-1.101-2.455-.119-.237-.524-.75-.494-1.016.023-.208.28-.337.423-.452.305-.245.57-.542.847-.818.92-.92 1.876-1.792 2.794-2.71.3-.3.899-.704 1.058-1.1.096-.239-.16-.772-.225-1.016a50 50 0 0 0-.918-3.048c-1.29-3.873-2.654-7.758-4.388-11.43-1.125-2.382-2.187-4.785-3.415-7.112-4.057-7.686-9.206-15.338-15.903-21.012-2.062-1.747-4.195-3.353-6.52-4.741-.503-.3-1.02-.568-1.524-.86-.206-.121-.506-.39-.762-.354m.847 24.455c.202 0 .329.26.437.395.362.449.727.894 1.073 1.355 1.338 1.783 2.609 3.631 3.669 5.588.398.734.785 1.458 1.157 2.201 1.187 2.373 2.215 5.099 2.215 7.79 0 1.333-.19 2.729-1.185 3.725-.564.564-1.3.957-2.032 1.241-1.003.39-2.071.603-3.133.706-1.295.126-2.664.297-3.979.17-2.005-.196-4.256-.361-5.927-1.638-1.499-1.145-1.606-2.998-1.439-4.713.35-3.598 2.277-7.059 4.12-10.075 1.111-1.818 2.318-3.59 3.655-5.25.319-.395.629-.8.96-1.185.099-.115.24-.31.409-.31z" id="wispCollector_svg" display="inline" fill="currentColor" stroke="#000" stroke-width="2"/><path d="M114.723 60.452c.827-.326 1.574-1.404 2.202-2.032.72-.72 1.479-1.394 2.201-2.117.234-.234.68-.535.804-.846.095-.234-.12-.62-.183-.847l-.508-1.778c-.667-2.401-1.525-4.802-2.455-7.112-3.31-8.218-7.044-16.122-12.277-23.368-2.182-3.02-4.54-6.051-7.31-8.551-.637-.576-1.226-1.203-1.862-1.778-1.867-1.686-3.95-3.204-6.096-4.516-.671-.41-1.34-.806-2.032-1.171-.262-.138-.617-.487-.932-.452-.272.03-.536.3-.762.438-.573.35-1.132.727-1.693 1.1-2.43 1.62-4.614 3.583-6.773 5.532-6.556 5.919-12.13 13.206-16.242 20.997-.964 1.826-1.79 3.706-2.653 5.588-1.89 4.125-3.347 8.607-4.332 13.039a241 241 0 0 0-.678 3.133c-.056.272-.29.837-.183 1.1.146.357.76.652 1.058.875.971.728 1.921 1.485 2.879 2.23.308.239.63.458.931.705.11.09.292.188.31.339.035.275-.265.756-.366 1.016-.26.669-.499 1.355-.734 2.032-.707 2.036-1.42 4.087-2.201 6.096-.38.975-.902 2.027-1.13 3.048-.113.513.589.941.904 1.27.748.78 1.521 1.521 2.286 2.286.213.213.69.536.734.847.024.176-.11.421-.155.592-.12.454-.256.902-.381 1.355-.511 1.838-1.07 3.664-1.58 5.503-.167.598-.393 1.179-.551 1.778-.039.147-.152.357-.141.508.016.241.308.435.465.593.41.41.798.84 1.186 1.27 1.163 1.289 2.2 2.753 3.104 4.233 2.875 4.704 4.812 10.098 6.011 15.494.954 4.29 1.553 8.603 1.976 12.954.191 1.968.147 3.96.339 5.927.099 1.022 0 2.105 0 3.133 0 1 .096 2.053 0 3.048-.087.887-.17 1.817-.17 2.709 0 .243-.132.63-.042.847.167.401.602.693.875 1.016.842.994 1.766 1.911 2.639 2.878 1.711 1.896 3.536 3.691 5.249 5.588 1.002 1.11 2.073 2.158 3.133 3.218.663.663 1.302 1.387 2.032 1.975 1.553 1.252 3.1 3.322 5.334 3.105 1.162-.113 1.901-1.062 2.624-1.863.666-.737 1.415-1.414 2.117-2.117l5.503-5.503c.928-.927 1.821-1.916 2.794-2.794 1.228-1.108 2.384-2.3 3.556-3.471.443-.443 1.202-.964 1.482-1.524.18-.36-.006-.901-.042-1.27-.077-.789-.093-1.584-.17-2.371-.06-.615.06-1.248 0-1.863-.109-1.12-.084-2.253-.084-3.386 0-.667-.065-1.37 0-2.032.12-1.235.049-2.49.169-3.726.181-1.861.327-3.726.508-5.588.472-4.853 1.687-9.61 2.992-14.308 1.107-3.988 2.942-7.848 5.08-11.346.737-1.207 1.577-2.362 2.455-3.471.413-.521 1.12-1.074 1.369-1.693.1-.25.006-.514-.043-.762-.104-.536-.198-1.073-.31-1.609-.333-1.6-.724-3.189-1.242-4.741-.16-.48-.305-.97-.494-1.44-.09-.224-.299-.6-.282-.846.027-.392.79-.918 1.058-1.186.778-.777 1.507-1.591 2.286-2.37.278-.278.8-.633.918-1.016.094-.31-.095-.719-.17-1.016-.213-.855-.483-1.69-.72-2.54-.869-3.13-2.15-6.107-3.584-8.975M86.53 11.811c.176.012.367.206.508.296.402.257.794.518 1.186.79 1.636 1.137 3.247 2.373 4.656 3.782 1.203 1.203 2.414 2.376 3.556 3.641 3.824 4.236 7.02 9.21 9.666 14.224a178 178 0 0 1 3.528 7.112c1.039 2.2 1.84 4.51 2.752 6.773.524 1.302.966 2.646 1.411 3.98.127.382.514 1.128.41 1.524-.122.46-.924.937-1.257 1.27-1.09 1.09-2.214 2.129-3.302 3.217l-.931.931c-.098.098-.323.25-.353.395-.032.156.324.575.41.706.437.67.903 1.329 1.284 2.032a41 41 0 0 1 2.808 6.52c.188.563.348 1.13.536 1.693.07.211.232.537.197.762-.061.404-.788.901-1.072 1.185-.863.863-1.676 1.761-2.54 2.625-.302.302-.953.747-1.044 1.185-.04.187.108.349.183.508.225.476.462.956.663 1.44.676 1.62 1.197 3.306 1.666 4.995.125.453.236.895.338 1.354.052.233.198.52.127.762-.08.273-.38.536-.55.762-.396.528-.79 1.06-1.157 1.609a51 51 0 0 0-3.175 5.419c-2.794 5.587-4.55 11.64-5.743 17.78-.689 3.54-.951 7.092-1.299 10.668-.197 2.031-.338 4.134-.338 6.18 0 1.982.084 3.955.084 5.927 0 .545.085 1.064.085 1.609 0 .182.042.424-.042.592-.13.259-.433.476-.635.678l-1.44 1.439-4.826 4.826c-1.62 1.62-3.287 3.202-4.91 4.826-.395.395-.8.782-1.186 1.185-.14.148-.277.423-.508.41-.275-.016-.498-.317-.677-.494-.384-.38-.802-.717-1.185-1.101-1.566-1.565-3.176-3.1-4.657-4.741-1.66-1.838-3.422-3.582-5.08-5.419a51 51 0 0 0-1.016-1.1c-.247-.258-.582-.506-.72-.847-.253-.628.043-1.546.043-2.202v-5.503c0-2.563-.261-5.163-.508-7.705-.231-2.372-.419-4.765-.875-7.112-1.253-6.441-2.706-12.89-5.659-18.796-1.035-2.07-2.227-4.129-3.612-6.011a49 49 0 0 0-1.298-1.693c-.169-.21-.479-.478-.494-.762-.014-.247.16-.529.225-.762.134-.482.29-.957.424-1.44.525-1.89 1.105-3.77 1.58-5.672.135-.538.29-1.071.424-1.609.044-.18.204-.494.155-.677-.075-.278-.572-.566-.776-.762a101 101 0 0 0-2.202-2.032c-.286-.259-.9-.562-.818-1.016.086-.476.361-.99.536-1.44.24-.616.438-1.247.677-1.862.773-1.986 1.401-4.026 2.174-6.012a76 76 0 0 0 .96-2.624c.072-.21.372-.68.295-.903-.036-.107-.186-.166-.268-.226-.285-.212-.57-.426-.846-.65-1.051-.846-2.138-1.66-3.218-2.469-.345-.259-1.125-.664-1.256-1.086-.116-.377.154-.9.226-1.27.245-1.262.658-2.488 1.002-3.726 1.515-5.455 3.956-10.494 6.618-15.409 1.41-2.601 3.121-5.083 4.897-7.45 2.816-3.755 5.943-7.27 9.426-10.415 1.374-1.24 2.76-2.458 4.233-3.584.363-.277.723-.561 1.101-.818.118-.08.269-.223.423-.212m.508 11.43c-.323.099-.606.503-.846.72-.615.555-1.225 1.08-1.778 1.693-1.99 2.204-3.824 4.466-5.475 6.943-2.34 3.508-4.488 7.312-5.518 11.43-.395 1.58-.766 3.354-.607 4.995.117 1.195.342 2.457.861 3.556 2.735 5.792 10.144 6.385 15.734 5.842a22.5 22.5 0 0 0 3.895-.706 11.4 11.4 0 0 0 3.217-1.495 9.5 9.5 0 0 0 1.863-1.609c4.232-4.762 2.11-11.98-.41-17.018-.456-.913-.907-1.821-1.425-2.71-.72-1.234-1.446-2.477-2.286-3.64-1.62-2.244-3.229-4.386-5.193-6.35a18 18 0 0 0-1.439-1.298c-.16-.13-.358-.425-.593-.353m.085 7.098c.188 0 .317.27.423.395q.567.659 1.087 1.355c1.334 1.778 2.61 3.634 3.669 5.588.398.734.785 1.458 1.157 2.201 1.184 2.369 2.215 5.104 2.215 7.79 0 1.372-.21 2.801-1.27 3.795-.554.52-1.251.891-1.947 1.171-1.019.41-2.138.601-3.217.706-1.242.12-2.55.292-3.81.17-2.027-.198-4.322-.347-6.012-1.638-1.47-1.123-1.603-2.94-1.439-4.628.356-3.66 2.276-7.072 4.12-10.16 1.081-1.81 2.337-3.483 3.599-5.165.303-.403.628-.792.945-1.185.11-.137.282-.395.48-.395" style="display:inline;fill:#020202;stroke:none"/></g></svg>