<svg xmlns="http://www.w3.org/2000/svg" xml:space="preserve" width="655.36" height="655.36" viewBox="0 0 173.397 173.397"><g style="display:inline"><path d="M61.213 223.267c-.568-7.591 27.43-10.813 41.761-11.003 17.233-.228 46.104 3.286 46.237 10.552.125 6.831-23.438 10.398-44.257 10.662-16.907.214-43.248-3.616-43.741-10.211" style="display:inline;fill:#000;fill-opacity:.2;stroke-width:.264583" transform="translate(-18.34 -61.733)"/></g><g style="display:inline"><path d="M61.891 1.1c0 1.747-.17 3.501 0 5.25.321 3.301 1 6.532 1.891 9.737.544 1.956 1.276 3.88 2.032 5.757.216.536.417 1.087.663 1.609.11.231.364.577.353.846-.007.175-.182.365-.268.508-.22.368-.447.731-.663 1.101-.583 1-1.056 2.08-1.538 3.133-1.482 3.233-2.3 7.044-2.3 10.583 2.19 0 4.645.475 6.688 1.298.758.306 1.578.821 2.371.988-.084.4-.322.736-.494 1.1-.41.87-.775 1.757-1.185 2.625-.981 2.077-1.692 4.29-2.526 6.435-.79 2.032-1.339 4.175-1.92 6.265-1.522 5.483-2.426 11.162-2.426 16.849 0 2.097.137 4.113.338 6.18.087.893.173 1.845.424 2.71-.68.269-1.29.873-1.863 1.326-1.413 1.119-2.698 2.408-3.895 3.754-6.387 7.186-7.84 17.429-6.942 26.67.226 2.331.524 4.62.846 6.943.083.596.226 1.183.325 1.778.049.294.044.674.212.931.535.82 1.487 1.43 2.173 2.117 1.691 1.691 3.39 3.394 5.164 4.995 1.762 1.59 3.319 3.405 5.08 4.995 1.895 1.71 3.608 3.623 5.504 5.334 1.15 1.038 2.284 2.13 3.386 3.218 3.113 3.07 6.31 6.054 9.398 9.144.92.92 1.875 1.79 2.794 2.709.308.307.773 1 1.186 1.143.18.063.307-.102.423-.212.319-.3.621-.621.931-.931 1.257-1.256 2.552-2.467 3.81-3.725 5.32-5.32 10.85-10.427 16.172-15.748 2.891-2.892 5.912-5.66 8.805-8.552.807-.807 1.65-1.565 2.455-2.37.299-.299.784-.637.974-1.016.084-.169.042-.41.042-.593v-1.44c0-1.558.085-3.094.085-4.656 0-5.306.254-10.605.254-15.917 0-.378.07-.731.085-1.101.067-1.61-.071-3.228.084-4.826.142-1.454-.141-2.949 0-4.403.158-1.622-.073-3.286.085-4.91.083-.85.168-1.764.085-2.625-.12-1.235-.05-2.49-.17-3.725-.232-2.393-.275-4.804-.508-7.197-.277-2.854-.654-5.698-.93-8.551-.108-1.107-.386-2.197-.509-3.302-.28-2.526-.859-5.05-1.411-7.536-.776-3.493-1.726-7.082-3.26-10.329-.606-1.285-1.287-2.557-2.13-3.725-.355-.49-.861-.928-1.158-1.44.717-.264 1.362-.693 2.117-.903 1.947-.54 3.907-.79 5.927-.79-.212-1.152-.297-2.32-.536-3.471-.586-2.81-1.382-5.695-2.611-8.298-.72-1.524-1.528-3.034-2.554-4.402a29 29 0 0 0-1.087-1.355c-.122-.144-.385-.312-.423-.508-.056-.287.385-.77.508-1.016.471-.943.933-1.901 1.34-2.879 1.24-2.976 2.257-6.188 2.569-9.398.114-1.176.28-2.37.099-3.556-.144-.937-.246-1.794-.55-2.709-.075-.223-.145-.743-.34-.889-.22-.165-.887-.042-1.157-.042-1.147 0-2.255.128-3.386.254-3.9.433-7.686 2.239-10.838 4.515a29 29 0 0 0-2.455 2.004c-.386.348-.839 1.1-1.326 1.284-.397.15-1.14-.143-1.553-.183-1.54-.15-3.1-.254-4.656-.254-1.827 0-3.729.092-5.504.536-.66.165-1.312.337-1.947.593-.227.09-.595.377-.847.338-.219-.033-.427-.292-.592-.423q-.59-.468-1.186-.931c-1.237-.963-2.592-1.907-3.979-2.64-3.169-1.672-6.463-2.742-9.99-3.428-1.313-.255-2.729-.614-4.065-.65Z" style="fill:#fff;fill-opacity:1;stroke:#000;stroke-width:.2;stroke-dasharray:none;stroke-opacity:1"/><path d="M61.891 1.1c0 1.747-.17 3.501 0 5.25.321 3.301 1 6.532 1.891 9.737.544 1.956 1.276 3.88 2.032 5.757.216.536.417 1.087.663 1.609.11.231.364.577.353.846-.007.175-.182.365-.268.508-.22.368-.447.731-.663 1.101-.583 1-1.056 2.08-1.538 3.133-1.482 3.233-2.3 7.044-2.3 10.583 2.19 0 4.645.475 6.688 1.298.758.306 1.578.821 2.371.988-.084.4-.322.736-.494 1.1-.41.87-.775 1.757-1.185 2.625-.981 2.077-1.692 4.29-2.526 6.435-.79 2.032-1.339 4.175-1.92 6.265-1.522 5.483-2.426 11.162-2.426 16.849 0 2.097.137 4.113.338 6.18.087.893.173 1.845.424 2.71-.68.269-1.29.873-1.863 1.326-1.413 1.119-2.698 2.408-3.895 3.754-6.387 7.186-7.84 17.429-6.942 26.67.226 2.331.524 4.62.846 6.943.083.596.226 1.183.325 1.778.049.294.044.674.212.931.535.82 1.487 1.43 2.173 2.117 1.691 1.691 3.39 3.394 5.164 4.995 1.762 1.59 3.319 3.405 5.08 4.995 1.895 1.71 3.608 3.623 5.504 5.334 1.15 1.038 2.284 2.13 3.386 3.218 3.113 3.07 6.31 6.054 9.398 9.144.92.92 1.875 1.79 2.794 2.709.308.307.773 1 1.186 1.143.18.063.307-.102.423-.212.319-.3.621-.621.931-.931 1.257-1.256 2.552-2.467 3.81-3.725 5.32-5.32 10.85-10.427 16.172-15.748 2.891-2.892 5.912-5.66 8.805-8.552.807-.807 1.65-1.565 2.455-2.37.299-.299.784-.637.974-1.016.084-.169.042-.41.042-.593v-1.44c0-1.558.085-3.094.085-4.656 0-5.306.254-10.605.254-15.917 0-.378.07-.731.085-1.101.067-1.61-.071-3.228.084-4.826.142-1.454-.141-2.949 0-4.403.158-1.622-.073-3.286.085-4.91.083-.85.168-1.764.085-2.625-.12-1.235-.05-2.49-.17-3.725-.232-2.393-.275-4.804-.508-7.197-.277-2.854-.654-5.698-.93-8.551-.108-1.107-.386-2.197-.509-3.302-.28-2.526-.859-5.05-1.411-7.536-.776-3.493-1.726-7.082-3.26-10.329-.606-1.285-1.287-2.557-2.13-3.725-.355-.49-.861-.928-1.158-1.44.717-.264 1.362-.693 2.117-.903 1.947-.54 3.907-.79 5.927-.79-.212-1.152-.297-2.32-.536-3.471-.586-2.81-1.382-5.695-2.611-8.298-.72-1.524-1.528-3.034-2.554-4.402a29 29 0 0 0-1.087-1.355c-.122-.144-.385-.312-.423-.508-.056-.287.385-.77.508-1.016.471-.943.933-1.901 1.34-2.879 1.24-2.976 2.257-6.188 2.569-9.398.114-1.176.28-2.37.099-3.556-.144-.937-.246-1.794-.55-2.709-.075-.223-.145-.743-.34-.889-.22-.165-.887-.042-1.157-.042-1.147 0-2.255.128-3.386.254-3.9.433-7.686 2.239-10.838 4.515a29 29 0 0 0-2.455 2.004c-.386.348-.839 1.1-1.326 1.284-.397.15-1.14-.143-1.553-.183-1.54-.15-3.1-.254-4.656-.254-1.827 0-3.729.092-5.504.536-.66.165-1.312.337-1.947.593-.227.09-.595.377-.847.338-.219-.033-.427-.292-.592-.423q-.59-.468-1.186-.931c-1.237-.963-2.592-1.907-3.979-2.64-3.169-1.672-6.463-2.742-9.99-3.428-1.313-.255-2.729-.614-4.065-.65m52.917 34.037c-1.58.124-3.22.65-4.741 1.072-4.05 1.125-7.928 2.846-11.6 4.784-1.587.837-3.138 1.738-4.741 2.54-.652.326-1.454.844-2.201.917-1.407.137-2.94-.315-4.234-.818-2.316-.901-4.545-1.841-6.773-2.893-1.285-.607-2.704-.935-4.064-1.313a175 175 0 0 0-4.403-1.17c-1.547-.388-3.02-1.01-4.572-1.398q-.589-.149-1.185-.268c-.154-.03-.35-.02-.41-.197-.065-.198.086-.548.128-.748.107-.513.212-1.018.338-1.524.618-2.47 1.666-4.85 2.936-7.028.336-.576.709-1.15 1.1-1.693.16-.221.55-.553.522-.847-.02-.202-.194-.416-.282-.592-.197-.394-.404-.787-.593-1.186-.596-1.262-1.086-2.588-1.594-3.894-1.14-2.93-1.915-5.99-2.512-9.06-.288-1.482-.564-3.06-.564-4.572 1.191.094 2.409.5 3.556.819 3.503.973 6.537 2.77 9.398 4.995.719.56 1.426 1.128 2.116 1.722.34.293.788.548 1.016.931h.085c.949-1.337 2.805-1.83 4.318-2.145 2.435-.507 5.074-.38 7.535-.141 1.432.14 2.926.19 4.318.593.096-.332.368-.585.593-.847.484-.562.998-1.083 1.524-1.609 2.404-2.404 5.536-4.075 8.72-5.136 1.015-.338 2.081-.53 3.133-.692.204-.03.94-.161 1.059 0 .156.213.042.83.042 1.087 0 1.078-.107 2.075-.254 3.133-.44 3.172-1.64 6.469-3.062 9.313-.463.926-.957 1.838-1.538 2.71-.197.295-.728.833-.762 1.185-.034.347.724.749.96.945a14.6 14.6 0 0 1 2.511 2.695c2.116 2.93 3.523 6.777 4.177 10.33m-20.913-3.218c.48-.126.938-.518 1.355-.79.674-.44 1.393-.886 2.117-1.228 2.807-1.325 6.14-1.961 9.228-1.961-.212-.222-.624-.32-.931-.423a30 30 0 0 0-2.201-.664c-2.896-.723-6.588-.746-8.523 1.934-.314.434-.537.933-.706 1.439-.181.544-.339 1.118-.339 1.693M72.56 28.533v.084c2.907 0 6.037.773 8.721 1.891 1.179.491 2.286 1.229 3.471 1.665 0-.715-.345-1.413-.663-2.032-1.784-3.472-6.17-3.536-9.412-2.455-.706.235-1.49.451-2.117.847m17.272 8.156c-.804.156-2.34.088-2.836.903-.279.458.184 1.152.437 1.524.616.904 1.52 1.487 2.569 1.764.354.094.82.182 1.185.07 1.003-.306 1.937-1.532 2.385-2.427.164-.329.395-.924.127-1.256-.232-.286-.73-.385-1.073-.451-.853-.166-1.925-.296-2.794-.127m-3.048 117.574H86.7c-2.776-2.776-5.556-5.585-8.467-8.213-1.895-1.711-3.609-3.624-5.503-5.334-2.724-2.46-5.15-5.245-7.874-7.705-2.346-2.118-4.623-4.368-6.858-6.604-.478-.477-.938-.986-1.44-1.439-.42-.38-1.036-.761-1.312-1.27-.194-.358-.164-.877-.24-1.27a34 34 0 0 1-.48-3.217c-.153-1.581-.354-3.16-.508-4.742-.04-.419.041-.85 0-1.27-.21-2.166-.04-4.368.17-6.519.557-5.728 2.43-11.658 6.604-15.833.798-.798 1.59-1.579 2.455-2.3.362-.301.723-.71 1.185-.832.153.83.589 1.674.903 2.455a101 101 0 0 0 2.385 5.419c3.917 8.295 9.12 16.636 16.609 22.253a27.7 27.7 0 0 0 8.213 4.247c.775.248 1.572.452 2.37.607.234.046.614.185.847.127.248-.062.478-.344.677-.494.572-.428 1.122-.884 1.694-1.312 1.4-1.05 2.767-2.143 4.148-3.217.59-.459 1.23-.878 1.778-1.383l-5.164 1.552-1.778.48V97.028l-2.54.931-.974.438-.042 1.51v18.796c-1.096-.087-2.34-.775-3.302-1.256-.284-.142-.887-.345-1.059-.621-.15-.242-.042-.807-.042-1.087V99.483c0-.296.118-.917-.042-1.17-.154-.245-.716-.36-.974-.467-.846-.352-1.683-.756-2.54-1.072v17.61c-.562-.324-1.04-.833-1.524-1.27a39 39 0 0 1-2.794-2.793c-2.446-2.71-4.59-5.669-6.463-8.806-1.289-2.158-2.532-4.346-3.598-6.604-.542-1.147-1.01-2.322-1.552-3.471-1.029-2.178-2.08-4.592-2.667-6.943-.5-1.995-.678-4.063-.875-6.096-.047-.475.046-.964 0-1.439-.158-1.624-.073-3.291.084-4.91.08-.818.09-1.64.17-2.456.298-3.069.958-6.146 1.707-9.144 1.157-4.626 2.679-9.324 4.713-13.631.492-1.043.925-2.105 1.44-3.133.145-.292.315-.972.691-1.016.466-.054 1.079.272 1.524.395 1.28.356 2.451.807 3.64 1.369 2.547 1.202 5.203 2.401 7.96 3.09 1.095.274 2.33.59 3.47.48 1.81-.176 3.438-1.196 4.996-2.018 1.968-1.039 3.94-2.083 5.927-3.076.915-.458 1.86-.842 2.794-1.27.369-.17.872-.512 1.27-.296 1.92 1.04 3.132 2.907 4.078 4.797 1.793 3.587 2.787 7.525 3.655 11.43 1.422 6.4 2.05 12.898 2.68 19.389.274 2.812.235 5.655.509 8.467.165 1.703-.085 3.471-.085 5.164 0 5.144-.254 10.277-.254 15.41 0 1.303-.03 2.604-.085 3.894-.067 1.61.071 3.228-.084 4.826-.156 1.596.07 3.232-.085 4.826-.124 1.271 0 2.617 0 3.895 0 .354-.051.67-.085 1.016-.02.214.058.477-.042.677-.212.425-.78.837-1.143 1.13-.457.367-.855.826-1.27 1.241-2.061 2.061-4.206 4.036-6.265 6.096-1.747 1.747-3.503 3.511-5.334 5.165-1.11 1.002-2.109 2.13-3.218 3.132-2.191 1.979-4.16 4.203-6.35 6.181-2.185 1.973-4.069 4.32-6.35 6.18m17.272-37.93.085.085z" style="fill:#030303;stroke:none"/></g></svg>