<?xml version="1.0" encoding="UTF-8" standalone="no"?>
<svg
   xml:space="preserve"
   width="655.36"
   height="655.36"
   viewBox="0 0 173.397 173.397"
   version="1.1"
   id="svg2"
   sodipodi:docname="T_Icon_Map_LoreSeeker1.svg"
   inkscape:version="1.4.2 (f4327f4, 2025-05-13)"
   xmlns:inkscape="http://www.inkscape.org/namespaces/inkscape"
   xmlns:sodipodi="http://sodipodi.sourceforge.net/DTD/sodipodi-0.dtd"
   xmlns="http://www.w3.org/2000/svg"
   xmlns:svg="http://www.w3.org/2000/svg"><defs
     id="defs2" /><sodipodi:namedview
     id="namedview2"
     pagecolor="#ffffff"
     bordercolor="#000000"
     borderopacity="0.25"
     inkscape:showpageshadow="2"
     inkscape:pageopacity="0.0"
     inkscape:pagecheckerboard="0"
     inkscape:deskcolor="#d1d1d1"
     inkscape:zoom="0.62179567"
     inkscape:cx="317.62846"
     inkscape:cy="205.05128"
     inkscape:window-width="1920"
     inkscape:window-height="1017"
     inkscape:window-x="-8"
     inkscape:window-y="-8"
     inkscape:window-maximized="1"
     inkscape:current-layer="svg2" /><g
     style="display:inline"
     id="g1"
     transform="translate(0,-7.7407197)"><path
       d="m 61.213,223.267 c -0.568,-7.591 27.43,-10.813 41.761,-11.003 17.233,-0.228 46.104,3.286 46.237,10.552 0.125,6.831 -23.438,10.398 -44.257,10.662 -16.907,0.214 -43.248,-3.616 -43.741,-10.211"
       style="display:inline;fill:#000000;fill-opacity:0.2;stroke-width:0.264583"
       transform="translate(-18.34,-61.733)"
       id="path1" /></g><path
     d="m 101.63875,20.170991 c -0.19236,0.486565 -0.59293,0.908632 -0.89392,1.340884 a 31.683311,31.683311 0 0 1 -2.555033,3.257723 c -0.835081,0.924474 -1.560403,1.949654 -2.395483,2.874129 -0.924476,1.024049 -1.836502,2.054889 -2.665926,3.161542 -1.021787,1.36125 -2.587847,3.351641 -2.410194,5.173432 0.217257,2.249514 2.453192,3.985308 4.693655,3.736368 0.607641,-0.06789 1.201703,-0.500145 1.724478,-0.783032 3.435373,-1.860263 5.958723,-5.282059 8.526213,-8.126768 a 37.341044,37.341044 0 0 0 2.13974,-2.586718 c 0.29195,-0.389251 0.65291,-0.796607 0.83056,-1.244699 0.4266,0.599719 0.12221,1.587559 0.19235,2.298171 0.11317,1.180203 0.43,2.243856 1.33977,3.066491 1.9191,1.731267 5.84329,1.647532 7.07442,-0.95842 0.66876,-1.417829 0.35192,-3.201147 0.20709,-4.694788 -0.17314,-1.778792 -0.0181,-3.584739 -0.19237,-5.364663 -0.10183,-1.063655 -0.301,-2.18728 -0.28628,-3.257723 0.008,-0.546538 0.7966,-1.216415 1.11796,-1.629426 0.68684,-0.882609 1.35786,-2.02434 1.46875,-3.160412 0.13806,-1.423486 0.15502,-2.992943 -0.86223,-4.1188308 -0.31684,-0.3519107 -0.74569,-0.6223502 -1.14966,-0.8633696 -1.95757,-1.1677567 -4.24103,-0.205942 -5.84444,1.0862854 -0.58048,0.4673286 -1.21754,1.407644 -1.91571,1.659979 -0.77737,0.280623 -1.70298,0.108627 -2.49165,0.03281 -1.0184,-0.09958 -2.04472,-0.09279 -3.06538,-0.192363 -2.12164,-0.205941 -4.440186,-0.185574 -6.131845,1.342015 -1.936077,1.748239 -2.037917,4.896203 -0.09505,6.689704 0.878081,0.81132 2.470175,1.261675 3.640195,1.261675 M 60.732203,38.660466 c -0.486565,0.597457 -1.021787,1.213019 -1.629428,1.692794 -1.272991,1.007077 -2.896759,2.091099 -3.512321,3.673002 -0.08939,0.228572 -0.04752,0.439038 -0.09617,0.671006 -0.207073,0.992368 -0.281756,2.144281 0.255729,3.06536 0.694771,1.19152 2.244989,1.760687 3.545136,1.309201 0.367753,-0.127865 0.703823,-0.384726 1.052339,-0.558984 1.590954,-0.795478 3.007651,-1.896472 4.408507,-2.986152 0.422066,-0.328149 0.839607,-0.672139 1.244702,-1.021787 0.282886,-0.243283 0.65969,-0.632535 1.0546,-0.669876 0.282887,-0.02828 0.529565,0.149365 0.766058,0.271571 0.685717,0.35078 1.22207,0.938054 1.820659,1.420092 1.289962,1.039891 2.375116,2.268751 3.831417,3.098174 1.603401,0.912028 4.393796,0.724191 5.653207,-0.671006 0.800004,-0.887134 0.708348,-1.719952 0.414147,-2.777948 -0.509196,-1.834236 -2.075256,-3.098176 -3.384457,-4.407375 l -1.340882,-1.340883 c -0.178785,-0.178785 -0.497881,-0.385857 -0.399436,-0.671008 0.222915,-0.641586 1.19265,-1.229991 1.740318,-1.564928 1.299016,-0.793215 2.922786,-1.761819 3.512322,-3.22491 0.506933,-1.25941 0.554459,-3.270168 -0.07921,-4.503555 -0.239888,-0.466198 -0.689112,-0.857713 -1.037628,-1.244703 -0.454881,-0.503538 -0.887133,-1.029705 -1.342014,-1.533245 -1.340885,-1.48572 -2.548243,-3.077806 -4.118831,-4.342875 -0.709479,-0.571433 -1.377092,-1.17681 -2.108072,-1.724478 -0.40283,-0.302123 -0.81924,-0.676665 -1.340882,-0.735506 -1.23678,-0.135787 -2.564086,0.186705 -3.641318,0.798872 -0.271571,0.155022 -0.492222,0.379068 -0.766058,0.527301 -1.704109,0.923342 -3.229434,2.132964 -4.886019,3.145701 -1.191519,0.727583 -2.455456,1.452906 -3.545135,2.330985 -1.070444,0.862239 -2.760975,1.941734 -2.96918,3.448955 -0.0758,0.54088 0.116549,0.939184 0.254598,1.437064 0.673271,2.423774 2.825473,3.918547 4.726471,5.397478 0.664218,0.515986 1.254887,1.222071 1.916841,1.692794 m 8.047562,-9.564965 c 0.935789,-0.181047 2.119387,0.73098 2.665925,1.421222 0.224046,0.282888 0.362093,0.69364 0.27157,1.053471 -0.101836,0.410752 -0.414145,0.611036 -0.735505,0.846397 -0.787557,0.580484 -1.686006,1.364646 -2.681765,1.516274 -1.02292,0.157284 -2.089969,-0.879213 -2.777949,-1.500432 -0.242151,-0.218389 -0.873554,-0.531826 -0.750215,-0.941447 0.09166,-0.30778 0.697033,-0.494486 0.941447,-0.671007 0.867897,-0.626876 1.998311,-1.516272 3.066492,-1.724478 m 81.525675,25.660089 c 0.74682,0.195755 1.36238,0.81245 2.20426,0.766056 2.76664,-0.153891 5.06027,-2.783605 4.78985,-5.555895 -0.0882,-0.917684 -0.51827,-1.816132 -0.99012,-2.587847 -0.18104,-0.298728 -0.70268,-0.720796 -0.76604,-1.05347 -0.0418,-0.222916 0.35304,-0.422068 0.47865,-0.574827 0.37566,-0.453749 0.72417,-1.002549 0.97425,-1.533244 0.88939,-1.881763 -0.16635,-4.364377 -1.80369,-5.524214 -0.9686,-0.686847 -2.01302,-0.798871 -3.16154,-0.798871 -0.59746,0 -1.2266,-0.05658 -1.82066,0 -0.36663,0.03621 -0.62236,0.264782 -0.95843,0.367753 -0.73098,0.222915 -1.54794,0.296466 -2.29929,0.462802 -1.69167,0.375675 -3.33807,0.839607 -4.98107,1.340884 -2.45998,0.751347 -4.99465,1.292226 -7.47273,1.980206 -1.2334,0.34286 -2.40116,0.967473 -3.64132,1.277517 -0.68118,0.169732 -1.33976,0.379067 -2.0119,0.574825 -0.81132,0.237626 -1.67808,0.260257 -2.4894,0.543143 -2.72701,0.947104 -5.10327,3.720527 -3.62548,6.673863 0.25573,0.51146 0.6382,1.031971 1.03763,1.437064 0.65177,0.660823 1.40312,1.226598 2.2993,1.501562 0.6133,0.186706 1.28317,0.127865 1.91571,0.127865 1.8218,0 3.44669,-0.398302 5.17344,-0.926736 0.75248,-0.229704 1.53777,-0.351911 2.29929,-0.543142 0.66763,-0.166338 1.3375,-0.251204 2.0119,-0.382464 0.2761,-0.05431 0.7853,-0.285149 1.0546,-0.192361 0.26026,0.09053 0.44471,0.401697 0.60651,0.60764 0.35983,0.453749 0.72985,0.910895 1.11797,1.340882 1.28995,1.428012 2.8232,3.007652 4.78984,3.417271 1.95078,0.406227 4.8068,-0.547668 5.2696,-2.746262 m -79.133591,-16.287486 -0.192364,0.287412 0.192364,-0.287412 m -6.226903,58.632228 c -0.703821,1.272983 -1.700715,2.457723 -2.555032,3.640187 -1.098733,1.52193 -2.031128,3.28261 -2.809632,4.9822 -0.385858,0.84187 -0.601982,1.73127 -0.958419,2.58672 -1.145126,2.74739 -2.127309,5.62379 -3.545137,8.23878 -1.710899,3.15929 -3.871021,5.9791 -6.418133,8.52734 -2.345696,2.34457 -5.42803,3.65037 -8.143743,5.46085 -1.29562,0.86338 -2.763237,1.63733 -2.586717,3.44895 0.21839,2.24159 2.641032,3.59266 4.503558,4.34287 1.461958,0.58841 2.960125,1.22208 4.502424,1.56494 1.40425,0.3123 2.794922,0.3734 4.215012,0.51032 0.96521,0.0939 1.906657,0.38473 2.874129,0.47977 1.139468,0.1109 2.29704,0.095 3.448954,0.095 -0.302122,0.49221 -0.761531,0.91089 -1.149652,1.34201 -1.406511,1.55701 -2.904679,3.04046 -4.311192,4.59861 -0.750216,0.83056 -1.698453,1.72673 -1.405381,2.96917 0.186704,0.78983 0.927867,1.42236 1.692794,1.64528 1.029706,0.301 2.103546,0.35984 3.161543,0.46392 1.140598,0.10978 2.209909,0.30214 3.352771,0.19011 1.681478,-0.16294 3.396904,0.0679 5.078383,-0.095 2.859419,-0.27836 5.802572,-0.40282 8.622386,-0.9901 1.404251,-0.29307 2.760975,-0.72872 4.118831,-1.18133 1.216413,-0.40623 2.392089,-0.92449 3.545136,-1.48573 0.678928,-0.3304 1.340883,-0.61443 1.91571,-1.1338 1.86705,-1.68487 2.734947,-4.47528 2.97031,-6.89792 0.07695,-0.79094 -0.06676,-1.60226 0,-2.39434 0.116549,-1.40425 0.135786,-2.81416 0,-4.21615 -0.05658,-0.56916 0.05545,-1.15417 0,-1.72449 -0.03169,-0.32247 -0.16068,-0.63478 -0.192364,-0.95727 -0.04866,-0.50694 0.04978,-1.02745 0,-1.53326 -0.160679,-1.65318 -0.125602,-3.32674 -0.287412,-4.9822 -0.458277,-4.72307 0,-10.15337 3.001993,-14.08323 0.716269,-0.93692 1.716557,-1.59548 2.651214,-2.28232 1.167757,-0.85998 2.58219,-1.96323 4.023781,-2.28346 0.601984,-0.13466 1.259412,0.81018 1.629428,1.21302 1.274121,1.39178 2.69308,2.59915 4.022649,3.92759 2.035652,2.03679 3.840472,4.27273 5.748262,6.41926 2.57992,2.90356 5.09195,5.98136 7.28149,9.19721 0.7276,1.06933 1.56154,2.05263 2.36268,3.0665 0.39151,0.49336 0.82262,1.15419 1.37368,1.48459 0.28176,0.16747 0.47526,0.0476 0.76608,0.0634 0.5024,0.0283 0.91088,0.25345 1.43706,0.1437 1.91457,-0.39832 3.06988,-1.9689 3.25772,-3.89592 0.2399,-2.47244 -0.14709,-5.03652 -0.38359,-7.47274 -0.15842,-1.63396 -0.0611,-3.45687 0.0962,-5.07725 0.14256,-1.46988 0,-3.02575 0,-4.50356 1.24131,0.78416 2.72476,1.15191 4.02378,1.83651 1.33975,0.70722 2.52334,1.69731 3.9276,2.28346 1.16662,0.48657 2.38642,0.83621 3.64017,0.95843 0.80341,0.0781 1.57287,0.27156 2.39549,0.19123 1.13496,-0.10978 2.11034,-0.39039 3.16155,-0.81472 1.24357,-0.50014 2.35587,-0.98445 3.44894,-1.80369 3.33808,-2.50298 4.90301,-6.51772 5.87613,-10.41023 0.37794,-1.51288 0.67892,-3.050654 0.83056,-4.599732 0.0453,-0.474113 -0.0464,-0.961813 0,-1.43707 0.12786,-1.312596 0.22291,-2.613873 0.095,-3.92646 -0.0793,-0.823775 0.0804,-1.66904 0,-2.491671 -0.0838,-0.863372 -0.2037,-1.723342 -0.28743,-2.586713 -0.16408,-1.695056 -0.77398,-3.376542 -1.30918,-4.982203 -0.33948,-1.018392 -0.63934,-2.086572 -1.10101,-3.066493 -0.47412,-1.001418 -1.0942,-1.920234 -1.67695,-2.874128 -1.95305,-3.194357 -4.6733,-6.039065 -8.07924,-7.646993 -3.87216,-1.82858 -8.57713,-0.98671 -12.64618,-0.5918 -0.74342,0.07242 -1.4744,-0.08486 -2.20312,-0.09505 -0.93692,-0.01359 -1.85346,-0.0057 -2.77908,-0.09617 -0.75813,-0.07355 -1.5389,0.07356 -2.2993,0 -1.68374,-0.164074 -3.39463,-0.124472 -5.07725,-0.287413 -0.60085,-0.05883 -1.21981,0.05883 -1.82066,0 -0.2659,-0.02602 -0.50014,-0.165207 -0.76606,-0.192364 -1.11684,-0.107497 -2.23818,-0.177653 -3.35276,-0.286281 -1.11005,-0.108628 -2.245,0.01132 -3.35391,-0.09618 -2.12391,-0.205941 -4.281772,0.303253 -6.418133,0.09618 -1.352198,-0.131259 -2.674975,-0.712874 -4.02378,-0.862238 -2.982757,-0.331544 -5.974567,-1.033103 -8.81475,-1.980208 -2.789263,-0.930132 -5.652076,-1.655453 -8.334974,-2.921654 -1.784449,-0.843001 -3.616423,-1.692793 -5.268482,-2.794921 -1.37596,-0.916552 -2.68516,-1.938339 -4.023781,-2.905811 -1.396327,-1.007077 -3.005387,-1.733529 -4.407375,-2.746266 -1.833105,-1.323908 -3.627738,-2.699868 -5.460844,-4.023778 -1.716556,-1.240176 -3.357299,-2.556167 -5.173432,-3.640186 -1.194914,-0.714006 -2.297041,-1.537772 -3.640187,-1.948525 -1.148519,-0.350779 -2.551638,-0.339464 -3.736366,-0.224046 -1.226597,0.119943 -2.29704,0.638193 -3.448955,1.022919 -1.13381,0.376804 -2.315144,0.628007 -3.448955,1.021787 -1.584166,0.54993 -3.077807,1.428011 -4.503556,2.299303 -1.881763,1.149652 -3.601715,2.740606 -5.07725,4.374559 -0.508065,0.562378 -0.898449,1.231124 -1.373699,1.820658 -0.484303,0.601984 -1.095337,1.110048 -1.563797,1.724478 -1.356726,1.774266 -2.303829,3.983045 -3.129859,6.035671 -1.136073,2.819815 -2.093361,5.635102 -2.715712,8.622386 -0.212732,1.025184 -0.217258,2.120519 -0.317965,3.161543 -0.05092,0.522774 0.04526,1.021786 0.09505,1.532113 0.04978,0.506934 -0.04866,1.027446 0,1.533247 0.04752,0.480907 0.144839,0.955025 0.192365,1.437065 0.086,0.890527 0.399435,1.822921 0.638191,2.681765 0.432251,1.554746 0.852055,3.095906 1.437064,4.599735 1.37483,3.533825 2.77908,7.766935 5.876124,10.217876 0.779635,0.617818 1.640743,1.069304 2.490534,1.566063 0.434515,0.253456 0.809055,0.609893 1.245833,0.846398 a 6.7892809,6.7892809 0 0 0 2.586715,0.7819 c 1.760687,0.170852 3.330142,-0.608778 4.982201,-1.021789 2.352486,-0.588412 4.769471,-1.329579 7.185323,-1.564938 5.142881,-0.500143 10.398915,-0.305518 15.520296,0.192365 1.185861,0.11428 2.359275,0.362093 3.544006,0.478641 0.526169,0.05087 1.020653,0.04303 1.533246,0.192365 m 79.517174,-48.86019 -0.0962,0.09505 0.0962,-0.09617 m -29.50735,25.004952 v 0.09619 l -0.67101,0.09505 v -0.191232 h 0.67101 m 1.72446,39.088144 v 0.47864 h -0.0962 z"
     id="loreSeeker_svg"
     display="inline"
     fill="currentColor"
     stroke="#000000"
     stroke-width="2.0813" /><path
     d="m 101.63875,20.266041 c -0.87129,1.068181 -1.56153,2.277803 -2.427166,3.353905 -1.994917,2.476956 -4.268194,4.733259 -6.178246,7.281504 -1.086285,1.444985 -2.500719,3.360693 -2.316276,5.268481 0.212731,2.187281 2.595769,3.778236 4.694787,3.545138 0.590667,-0.06563 1.213019,-0.482039 1.724478,-0.766058 1.838763,-1.021788 3.360693,-2.506377 4.789843,-4.02378 1.31259,-1.394066 2.6116,-2.75645 3.84725,-4.216145 0.69705,-0.821503 1.39747,-1.615849 2.02886,-2.490535 0.29308,-0.406224 0.64612,-0.780765 0.83056,-1.244699 0.25232,0.478643 0.0418,1.176806 0.095,1.723345 0.10183,1.051206 0.23196,2.197464 0.89392,3.066492 1.39181,1.819527 3.80426,2.237068 5.81277,1.260542 0.75586,-0.36662 1.45515,-0.846397 1.82064,-1.644137 0.67894,-1.482326 0.34286,-3.327878 0.19236,-4.88602 -0.1765,-1.810474 -0.0169,-3.649236 -0.19236,-5.460843 -0.0567,-0.571431 -0.0407,-1.151915 -0.0962,-1.724478 -0.0408,-0.418673 -0.2218,-0.924475 -0.1754,-1.340883 0.0497,-0.446961 0.64838,-0.897317 0.90977,-1.245833 0.72645,-0.967473 1.45969,-2.041311 1.64528,-3.257724 0.25233,-1.655452 0.19576,-3.6797905 -1.32619,-4.7581549 -2.06167,-1.4596954 -4.39379,-1.0478114 -6.32308,0.4786451 -0.67214,0.532958 -1.37483,1.6113228 -2.20311,1.8523428 -1.0795,0.315702 -2.26649,0.04187 -3.35278,-0.06336 -0.63592,-0.06223 -1.27865,-0.03395 -1.91684,-0.09617 -1.59096,-0.153889 -3.15702,-0.282886 -4.693661,0.336069 -1.643003,0.661954 -3.364086,2.545981 -3.25772,4.454901 0.03847,0.690243 0.353042,1.407645 0.655166,2.01189 0.22631,0.453751 0.491091,0.896186 0.87808,1.244702 1.005945,0.907501 2.413575,0.986709 3.640175,1.342015 m 8.52622,1.724476 c -0.38247,0.294204 -0.63593,0.697033 -0.9573,1.052339 -0.92447,1.02405 -1.84667,2.048099 -2.77907,3.066492 -1.29562,1.416695 -2.70553,2.72137 -4.02378,4.118831 -1.29789,1.378224 -2.588984,2.781341 -3.926469,4.121094 -0.579352,0.577087 -1.191518,1.137204 -1.725609,1.75616 -0.333807,0.386987 -0.742295,1.007076 -1.244701,1.181334 -0.810189,0.280624 -1.802554,-0.468461 -2.172571,-1.117969 -1.285437,-2.258567 1.313727,-4.267062 2.651214,-5.748257 2.426037,-2.686292 4.764936,-5.476688 7.106116,-8.238792 0.6246,-0.7389 1.25602,-1.480063 1.89873,-2.203122 0.40171,-0.452618 0.87922,-0.896184 1.14967,-1.437064 -1.25263,0 -2.49394,-0.3587 -3.73638,-0.479776 -0.9109,-0.08826 -1.99832,-0.16068 -2.777953,-0.701559 -1.52419,-1.059128 -1.365772,-3.623213 0.383603,-4.375692 0.90975,-0.391515 1.65998,-0.185574 2.58671,-0.09617 1.73126,0.1686 3.44556,0.478645 5.17342,0.671006 0.68572,0.07582 1.72109,0.477514 2.39437,0.271572 0.50014,-0.152758 0.96181,-0.933527 1.27864,-1.32504 0.89166,-1.108917 1.94401,-2.355881 3.51233,-2.204255 1.52418,0.148233 2.24159,1.585297 2.10692,2.970311 -0.0962,0.992367 -0.99575,1.885157 -1.62827,2.586717 -0.23537,0.260255 -0.67894,0.591799 -0.75022,0.95842 -0.052,0.265914 0.14936,0.594063 0.17539,0.862239 l 0.19236,2.01189 c 0.21613,2.232541 0.35758,4.471872 0.57369,6.705547 0.13693,1.403118 0.32701,3.111752 -1.14965,3.911757 -1.21302,0.657428 -2.80171,0.222914 -3.43198,-1.037628 -0.49675,-0.991236 -0.39152,-2.191807 -0.49562,-3.256593 -0.129,-1.331829 -0.38359,-2.681766 -0.38359,-4.023781 M 68.011454,19.915275 c -1.034234,0.214992 -1.876105,0.763793 -2.777948,1.277515 -0.950499,0.54088 -1.861395,1.113443 -2.777947,1.724478 -2.243858,1.495905 -4.793232,2.817551 -6.80286,4.63029 -0.699296,0.632534 -1.722214,1.581901 -1.819526,2.586715 -0.0611,0.624615 0.139178,1.233386 0.319096,1.820659 0.633664,2.075257 2.807367,3.654896 4.46961,4.901861 0.543141,0.407357 1.173413,0.805662 1.613585,1.325041 0.11655,0.138049 0.367753,0.379069 0.334937,0.574826 -0.086,0.518249 -0.991235,1.167757 -1.372565,1.468748 -1.100995,0.871292 -2.206516,1.69732 -3.033677,2.842446 -0.254598,0.353042 -0.54767,0.726452 -0.671006,1.149652 -0.574828,1.968889 0.06789,4.878098 2.55503,4.982199 0.193495,0.0078 0.381332,0.08486 0.574828,0.06336 0.596324,-0.06563 1.099862,-0.436776 1.629426,-0.685717 1.430275,-0.676665 2.66253,-1.654322 3.926467,-2.602557 0.685717,-0.514854 1.342016,-1.065917 2.013022,-1.597745 0.303255,-0.239887 0.629141,-0.59293 1.052339,-0.510327 0.396041,0.07581 0.729847,0.357569 1.054602,0.574825 0.876949,0.583879 1.615849,1.372567 2.395484,2.075258 1.519668,1.371434 2.988415,2.508639 5.07725,2.681765 0.497881,0.043 1.140599,-0.113154 1.629428,-0.222914 0.474119,-0.105234 0.97313,-0.312307 1.340883,-0.638193 0.253466,-0.226309 0.485433,-0.482039 0.671008,-0.766058 0.529563,-0.813582 0.391514,-1.530982 0.126732,-2.395484 -0.56351,-1.844421 -2.039047,-3.061966 -3.384455,-4.407374 -0.446961,-0.446961 -0.897319,-0.890528 -1.340883,-1.340884 -0.142576,-0.143706 -0.415279,-0.347384 -0.415279,-0.574825 0,-0.1901 0.201416,-0.356437 0.319097,-0.478644 a 7.6945184,7.6945184 0 0 1 1.244701,-1.054603 c 1.405381,-0.955025 3.209067,-1.838763 3.800866,-3.544004 0.416409,-1.19944 0.436778,-3.179647 -0.175389,-4.311193 -0.41641,-0.769451 -1.130417,-1.371436 -1.708636,-2.01189 -0.394911,-0.437909 -0.754742,-0.905238 -1.149653,-1.342015 -1.240174,-1.373698 -2.379642,-2.789264 -3.832549,-3.960414 -0.87129,-0.701559 -1.740318,-1.676952 -2.777948,-2.138624 -0.543142,-0.241018 -1.530983,-0.216125 -2.10807,-0.09618 m 0.479774,1.900999 c 0.661956,-0.110893 1.424619,0.03394 1.884028,0.557854 0.233098,0.267044 0.371147,0.598587 0.606508,0.862236 0.328148,0.368885 0.704954,0.704955 1.053471,1.054602 1.131546,1.131548 2.21783,2.31175 3.353903,3.448955 0.867898,0.867897 2.457721,1.939471 2.586718,3.256593 0.04526,0.479775 -0.186706,0.896184 -0.304387,1.342013 -0.09392,0.358701 -0.114286,0.721926 -0.303255,1.05234 -0.432251,0.760398 -1.377093,1.20849 -2.075257,1.693925 -0.934657,0.648377 -1.819526,1.396329 -2.681766,2.138623 -0.354173,0.305519 -1.305803,0.847529 -1.373697,1.342016 -0.03168,0.221781 0.173126,0.38133 0.319095,0.510327 0.407357,0.364358 0.819242,0.743425 1.244702,1.086285 0.970868,0.781898 1.853475,1.686004 2.779079,2.523348 0.594062,0.536353 1.337489,0.886001 1.708636,1.628297 0.454882,0.908632 0.09279,2.223489 -0.942578,2.555033 -1.157572,0.368884 -2.006233,-0.195758 -2.87413,-0.893923 -1.346539,-1.086283 -2.712316,-2.161253 -4.02378,-3.289407 -0.479776,-0.414146 -1.18586,-1.256015 -1.819527,-1.405381 -0.269308,-0.06336 -0.557853,0.150497 -0.767189,0.287414 -0.535222,0.349648 -1.029707,0.784162 -1.532115,1.181334 -1.475536,1.167757 -2.932969,2.345696 -4.407373,3.512321 -0.510329,0.405095 -0.984447,1.080628 -1.629429,1.278648 -0.637061,0.193495 -1.459696,-0.06563 -1.691661,-0.735505 -0.09279,-0.268176 -0.0057,-0.585009 -0.03169,-0.862239 -0.08147,-0.82716 -0.181048,-1.643006 0.574825,-2.234804 0.296467,-0.2331 0.651772,-0.358699 0.957289,-0.574826 1.226597,-0.869028 2.373984,-1.882894 3.545136,-2.826605 0.434513,-0.350779 1.394065,-0.81245 1.421223,-1.452906 0.01132,-0.251203 -0.205942,-0.41075 -0.367753,-0.574825 -0.43225,-0.439041 -0.886002,-0.835082 -1.340883,-1.244702 -1.107785,-1.000286 -2.181622,-2.010758 -3.352773,-2.938626 -0.773979,-0.612168 -1.76295,-1.190387 -2.172569,-2.139756 -0.316835,-0.735506 -0.282887,-1.581902 0.271571,-2.203122 0.2942,-0.330411 0.775109,-0.571431 1.133809,-0.830555 2.423774,-1.750502 4.85773,-3.487426 7.281504,-5.23793 0.878081,-0.633666 1.863657,-1.683741 2.97031,-1.867052 m 0.478644,5.762967 c -0.988972,0.303255 -1.603401,1.114574 -2.490534,1.564931 -0.184443,0.09392 -0.381332,0.05092 -0.574826,0.143706 -0.664218,0.317965 -1.303542,0.821503 -1.91684,1.22999 -0.382464,0.25573 -0.770584,0.50467 -1.149653,0.766059 -0.13352,0.09279 -0.350779,0.194625 -0.350779,0.383593 0,0.286283 0.719664,0.771715 0.925607,0.958421 1.029706,0.927869 2.225751,1.654321 3.257723,2.586717 0.270438,0.243281 0.948235,1.04668 1.340882,0.909763 0.484302,-0.168601 0.945974,-0.757006 1.342015,-1.070444 0.986709,-0.780767 1.962103,-1.590955 2.96918,-2.346828 0.368883,-0.276098 1.285437,-0.784162 1.421222,-1.22886 0.203679,-0.672139 -0.823767,-1.099863 -1.228861,-1.373698 -0.277228,-0.186705 -0.41075,-0.477511 -0.607641,-0.735505 -0.614429,-0.803397 -1.783316,-2.139755 -2.937495,-1.787844 m -0.09617,1.517405 c 0.870159,-0.144839 2.048099,0.772845 2.555032,1.421222 0.192363,0.246678 0.353042,0.64272 0.287413,0.958421 -0.187837,0.899578 -1.551352,1.519667 -2.26762,1.947392 -0.299859,0.179917 -0.600851,0.407357 -0.95729,0.44696 -1.141729,0.126735 -2.192937,-0.669875 -2.970308,-1.437064 -0.192365,-0.188968 -0.840741,-0.64498 -0.718534,-0.957288 0.106367,-0.274965 0.763795,-0.54201 1.005946,-0.702691 0.912027,-0.608772 1.956444,-1.49251 3.066492,-1.676952 m 81.432892,25.660088 c 0.67893,0.267044 1.24696,0.701559 2.01189,0.766057 2.93976,0.244413 5.24472,-2.942022 4.98107,-5.652077 -0.0906,-0.930131 -0.57482,-1.917972 -1.08627,-2.682897 -0.13919,-0.210469 -0.6382,-0.611036 -0.6382,-0.862239 0,-0.208205 0.34172,-0.429989 0.46393,-0.574827 0.39264,-0.463933 0.70155,-0.990102 0.95728,-1.533244 0.91768,-1.943998 -0.19236,-4.435665 -1.89987,-5.620394 -1.01837,-0.707217 -2.36153,-0.816977 -3.54514,-0.70156 -0.50126,0.04752 -1.03875,-0.086 -1.5321,0.03055 -0.2761,0.06563 -0.50468,0.228572 -0.76719,0.320227 -0.4877,0.169733 -1.11456,0.247809 -1.62829,0.319097 -1.14738,0.158416 -2.24386,0.521641 -3.35278,0.830554 -1.37482,0.381332 -2.76663,0.735506 -4.11883,1.149653 -0.52729,0.160679 -1.09533,0.217256 -1.62942,0.35078 -0.59521,0.149362 -1.13948,0.436775 -1.72449,0.606508 -0.77737,0.226309 -1.61132,0.303254 -2.39548,0.543142 -0.93013,0.284017 -1.86931,0.637061 -2.77795,0.990104 -0.91429,0.355306 -1.92248,0.63706 -2.87413,0.862238 -0.96521,0.227442 -1.95645,0.28515 -2.87413,0.718532 -1.85573,0.87695 -3.33806,2.160122 -3.54513,4.295352 -0.0226,0.229703 -0.11541,0.434514 -0.0962,0.671007 0.0418,0.495618 0.28289,1.084024 0.49562,1.532114 0.25234,0.535222 0.61895,1.018393 1.03763,1.437064 0.54313,0.543145 1.10325,1.042156 1.82065,1.342017 0.85997,0.358699 1.78559,0.373409 2.68177,0.287412 0.67327,-0.06563 1.34541,0.01132 2.0119,-0.127865 1.772,-0.370015 3.50778,-0.925604 5.26961,-1.342015 0.75474,-0.177652 1.52758,-0.339463 2.2993,-0.446961 0.20028,-0.02716 0.47298,-0.194626 0.67101,-0.127864 0.2546,0.086 0.40849,0.414146 0.57481,0.607641 0.57485,0.667611 1.12816,1.360117 1.72448,2.01189 1.24244,1.357855 2.77795,2.487139 4.59862,2.841313 1.84895,0.359834 4.47639,-0.899579 4.88602,-2.841313 m 1.43706,-8.71857 c 0.25233,0.436779 0.69251,0.788689 1.05348,1.149653 0.5884,0.588404 1.17113,1.197176 1.72447,1.82066 0.39604,0.443565 0.58613,1.037626 0.44696,1.628295 -0.0453,0.195757 -0.18106,0.376805 -0.20707,0.574825 -0.0453,0.319096 0.0249,0.629141 -0.0792,0.958421 -0.28062,0.873554 -1.32392,1.280911 -2.17258,1.021785 -0.72079,-0.22065 -1.30693,-0.987839 -1.82065,-1.501562 -1.0184,-1.018392 -2.09337,-2.005099 -3.16155,-2.969178 -0.37114,-0.33607 -0.77736,-1.009339 -1.24469,-1.198309 -0.45715,-0.18331 -1.24697,0.489961 -1.72448,0.527301 0.0566,0.539747 0.59632,0.964079 0.95729,1.340882 0.75135,0.784163 1.74597,1.60114 2.3638,2.491667 0.6676,0.961816 0.88711,2.621795 -0.35078,3.240751 -0.3734,0.186705 -0.76719,0.03169 -1.15078,0.143707 -0.39492,0.115418 -0.81698,0.25686 -1.2447,0.143706 -0.63027,-0.166337 -1.15192,-0.952763 -1.55023,-1.421225 a 65.629717,65.629717 0 0 0 -2.66593,-2.969177 c -0.35644,-0.373411 -0.78189,-1.183597 -1.34088,-1.245833 -0.40621,-0.04526 -0.8396,0.247808 -1.24469,0.287412 -0.41868,0.04075 -0.83395,-0.05431 -1.24584,0 -0.77511,0.101837 -1.5423,0.449225 -2.2993,0.638193 -0.72985,0.182178 -1.48572,0.323623 -2.20427,0.543143 -1.1915,0.364357 -2.47354,0.830555 -3.73635,0.830555 -0.53296,0 -1.01161,0.162944 -1.53212,0.192364 -0.90523,0.04978 -1.86479,-0.568038 -2.28346,-1.342016 -0.36663,-0.677796 -0.5058,-1.629427 -0.49562,-2.395483 0.004,-0.348517 0.0792,-0.798874 0.3836,-1.021789 0.17086,-0.1256 0.37906,-0.11089 0.57482,-0.159547 0.53861,-0.134654 1.1044,-0.304385 1.62943,-0.478645 1.51401,-0.505801 3.07215,-0.875818 4.59748,-1.342014 a 558.98413,558.98413 0 0 1 13.70077,-4.02378 c 1.33975,-0.37228 2.70213,-0.74569 4.02377,-1.149653 0.85205,-0.260254 1.76522,-0.631402 2.68177,-0.543142 1.10892,0.10863 1.9225,0.956158 2.17257,2.013021 0.0882,0.373412 -0.005,0.769454 0.0318,1.149652 0.0566,0.587273 0.17764,1.064787 -0.11315,1.628297 -0.42434,0.827161 -1.66678,1.202834 -2.47358,1.437063 m -86.798769,51.06331 c -0.427726,0.542014 -0.775109,1.162101 -1.181335,1.724479 -1.520799,2.104677 -2.966915,4.271577 -4.072437,6.610487 -0.700427,1.48346 -1.176809,3.06876 -1.772002,4.59861 a 92.786839,92.786839 0 0 1 -2.570875,5.94062 c -1.693924,3.58701 -4.312325,6.91375 -7.26453,9.57966 -2.259699,2.0402 -5.022937,3.35505 -7.570048,4.98222 -1.397461,0.89393 -2.770027,1.65205 -2.585586,3.54401 0.214995,2.22008 2.688556,3.51684 4.503558,4.24781 1.563798,0.63028 3.134385,1.316 4.789837,1.66 1.482326,0.30889 3.003126,0.36546 4.502424,0.51145 0.70156,0.0679 1.397462,0.31457 2.108073,0.38358 1.172282,0.11316 2.359274,0.095 3.544004,0.095 -0.313438,0.62914 -0.874686,1.09761 -1.325041,1.62943 -1.19944,1.41557 -2.532403,2.70779 -3.847259,4.02378 -0.880344,0.87921 -1.937209,1.99378 -1.597744,3.35277 0.218388,0.87355 1.06818,1.39747 1.884025,1.61245 0.887133,0.23423 1.77766,0.31117 2.681766,0.39944 1.309199,0.12673 2.610479,0.40848 3.92873,0.20707 1.558141,-0.23762 3.220383,0.0418 4.79097,-0.1109 4.643868,-0.45261 9.216449,-0.6925 13.603455,-2.45884 1.723347,-0.69477 3.873286,-1.31373 5.094224,-2.81076 1.409907,-1.729 2.259699,-3.91855 2.474694,-6.13186 0.0611,-0.63253 -0.06223,-1.28317 0,-1.91569 0.270439,-2.78362 0.07695,-5.66568 -0.192364,-8.43003 -0.194626,-2.00283 -0.09166,-4.03284 -0.286281,-6.03682 -0.208204,-2.13974 -0.28515,-4.29648 0.126733,-6.41813 0.419805,-2.15786 1.00934,-4.23764 2.139756,-6.13184 0.313438,-0.52504 0.577088,-1.07498 0.990104,-1.53325 0.784162,-0.8679 1.755027,-1.49138 2.681765,-2.18729 0.821502,-0.61555 1.663373,-1.12815 2.587848,-1.56492 0.384725,-0.18104 0.805661,-0.47185 1.244702,-0.52616 0.530694,-0.0669 1.103257,0.78302 1.437065,1.11682 1.188122,1.18813 2.299301,2.42152 3.545131,3.54514 2.470167,2.23029 4.480937,4.91319 6.706677,7.3777 1.43708,1.59208 2.72476,3.29958 4.05547,4.98106 0.99916,1.26167 2.01188,2.4894 2.90582,3.83254 0.66761,1.00142 1.44724,1.93495 2.20425,2.87414 0.4232,0.52617 0.87129,1.25036 1.46873,1.59548 0.28743,0.16747 0.46734,0.0566 0.76608,0.0804 0.53409,0.0453 1.07496,0.27384 1.62942,0.11316 0.34964,-0.10184 0.73777,-0.19576 1.05235,-0.38473 1.68599,-1.00595 1.93494,-2.88544 2.10805,-4.66197 0.0385,-0.39039 -0.095,-0.7604 -0.095,-1.14965 0,-1.83086 -0.20707,-3.64811 -0.3836,-5.46085 -0.12108,-1.2447 -0.0237,-2.60143 0.0962,-3.83255 0.16974,-1.7505 0,-3.60398 0,-5.36353 0.66649,0.13917 1.28998,0.58274 1.91572,0.8611 0.78642,0.34965 1.64752,0.61783 2.39548,1.05348 1.21867,0.71174 2.3457,1.53211 3.64019,2.10808 1.89421,0.84187 4.23537,1.35331 6.32309,1.14965 1.36012,-0.13239 2.67497,-0.62688 3.92759,-1.14965 2.87073,-1.19606 5.19379,-3.84388 6.4996,-6.61051 0.68006,-1.4416 1.11571,-2.98163 1.58078,-4.50356 a 27.157123,27.157123 0 0 0 1.02178,-5.268468 c 0.095,-0.98445 0,-1.984737 0.095,-2.969187 0.0984,-1.011602 0.0147,-1.96549 0,-2.970306 -0.0147,-1.093075 0.009,-2.175971 -0.095,-3.257722 a 22.630937,22.630937 0 0 0 -1.02178,-4.886021 c -0.42321,-1.267334 -0.7604,-2.590112 -1.27864,-3.831418 -0.48318,-1.162098 -1.14288,-2.178227 -1.78786,-3.258855 -1.34427,-2.250645 -3.03481,-4.360981 -5.10892,-6.002857 -1.05687,-0.837343 -2.26651,-1.663372 -3.54515,-2.108071 -4.04189,-1.403118 -8.21163,-0.818108 -12.35875,-0.414147 -0.46166,0.04526 -0.89053,-0.05205 -1.34088,-0.09618 -0.8894,-0.086 -1.79578,-0.01022 -2.68177,-0.09617 -0.91882,-0.08939 -1.8614,0.09053 -2.77908,0 -1.71655,-0.166339 -3.45914,-0.119947 -5.17343,-0.287413 -0.66423,-0.0645 -1.34768,0.0645 -2.0119,0 -0.92107,-0.08939 -1.84894,-0.293072 -2.77906,-0.382463 -1.23906,-0.121076 -2.49733,-0.07129 -3.73637,-0.192364 -2.4532,-0.237625 -4.933555,0.333805 -7.376566,0.09618 -0.50579,-0.04985 -1.039881,-0.228626 -1.533235,-0.350834 C 93.508687,66.958143 92.336404,66.809912 91.195804,66.572287 89.395513,66.196613 87.506962,66.09138 85.73496,65.5505 82.55984,64.579632 79.34851,63.635923 76.251466,62.388958 a 44.130325,44.130325 0 0 1 -6.132984,-3.066491 c -1.473274,-0.880344 -2.825473,-1.998313 -4.21388,-3.001994 -1.154178,-0.832819 -2.428299,-1.525326 -3.641318,-2.26649 -2.036784,-1.2447 -3.937783,-2.785867 -5.843308,-4.216142 -2.254041,-1.689399 -4.494504,-3.321089 -6.897909,-4.789837 -1.03084,-0.629141 -2.207648,-1.380489 -3.448956,-1.500433 -1.346539,-0.131258 -2.89789,-0.158415 -4.216143,0.207074 -0.308911,0.086 -0.554458,0.332675 -0.862239,0.43112 -0.436776,0.140311 -0.89392,0.259123 -1.340882,0.383594 -1.846685,0.512589 -3.620949,1.06026 -5.364663,1.884025 -2.243859,1.059128 -4.297615,2.622926 -6.132985,4.27951 -1.114573,1.007077 -1.979074,2.277804 -2.90468,3.448955 -0.452618,0.571433 -1.026313,1.047812 -1.469879,1.628296 -1.613587,2.113729 -2.654609,4.732129 -3.608503,7.185322 -1.719951,4.424349 -2.923917,9.009376 -2.458851,13.795819 0.188968,1.934945 0.744557,3.801998 1.3092,5.652076 0.36662,1.197179 0.695902,2.376251 1.149651,3.545147 1.239044,3.183034 2.577664,6.448685 4.918833,9.00598 0.686849,0.75021 1.700715,1.369173 2.586717,1.835371 1.44838,0.764919 2.602558,1.829701 4.311194,1.996044 1.878367,0.183316 3.505531,-0.580487 5.268481,-1.021789 2.386432,-0.596325 4.824915,-1.326174 7.281504,-1.564927 1.158705,-0.113155 2.381906,-0.192365 3.545136,-0.192365 0.879213,0 1.807081,0.08595 2.681766,0 1.606796,-0.155013 3.366352,-0.05995 4.982201,0.0973 0.952762,0.09173 1.921366,0.0031 2.87413,0.09503 2.112596,0.205943 4.20709,0.695892 6.323082,0.862235 m 9.293394,-29.794774 v 0.09619 c -2.749658,2.983889 -4.415295,6.463395 -5.493659,10.346864 -0.374542,1.351067 -0.693639,2.625188 -0.829425,4.02378 -0.02602,0.264782 -0.166337,0.500144 -0.192362,0.766058 -0.0826,0.856581 -0.114286,1.73466 -0.03169,2.586711 0.02263,0.227444 -0.08373,0.439048 -0.06336,0.671007 0.03848,0.475255 0.03395,0.966345 0.07921,1.437071 0.02942,0.298727 0.178783,0.565768 0.208205,0.862237 0.04752,0.491092 0.0057,0.948237 0.126733,1.437061 0.18331,0.730981 0.676664,1.46423 0.735504,2.203131 -0.658559,0 -1.269595,-0.128999 -1.916839,-0.192364 -0.410751,-0.03964 -0.83395,0.04068 -1.244703,0 -0.515983,-0.04974 -1.018391,-0.237632 -1.533244,-0.286283 -0.505802,-0.04974 -1.026313,0.0487 -1.533246,0 -1.654322,-0.16182 -3.326748,-0.222916 -4.981069,-0.384726 -1.644138,-0.158417 -3.362957,0.03507 -4.982202,0.192364 -0.792082,0.07691 -1.604532,-0.07691 -2.395483,0 -2.912602,0.282877 -5.804837,0.770577 -8.717438,1.0546 -1.983601,0.192363 -4.021517,0.839604 -5.940622,1.372561 -0.646112,0.179917 -1.263936,0.577089 -1.915707,0.702697 -0.203678,0.03954 -0.373411,-0.05089 -0.574827,-0.03174 -0.852055,0.08262 -1.399722,0.184445 -2.20312,-0.239889 -1.77653,-0.936915 -2.949943,-2.783603 -3.84839,-4.486579 -0.805662,-1.525327 -1.683743,-2.991816 -2.330988,-4.598605 -0.3802,-0.942587 -0.517117,-1.980209 -0.751347,-2.970312 -0.310044,-1.312595 -0.648376,-2.617269 -0.957289,-3.927599 -0.07582,-0.320229 -0.228573,-0.625746 -0.255729,-0.958421 -0.02263,-0.265914 0.10976,-0.50467 0.09617,-0.766056 -0.01697,-0.294204 -0.16747,-0.568038 -0.192365,-0.86224 -0.01923,-0.234231 0.09279,-0.442434 0.0792,-0.671008 a 26.704505,26.704505 0 0 1 0.113156,-4.02378 c 0.113155,-1.176809 0.514853,-2.315144 0.829423,-3.448954 1.10439,-3.975124 3.290539,-7.845014 6.068485,-10.92169 1.007078,-1.114573 1.928157,-2.543717 3.161542,-3.417271 0.913159,-0.647244 1.917972,-1.203967 2.874131,-1.787844 1.081758,-0.660824 1.968891,-1.563798 3.161541,-2.043573 0.814712,-0.32815 1.652057,-0.429989 2.489403,-0.639325 1.088549,-0.27157 2.225752,-0.58501 3.353905,-0.319096 1.038761,0.245545 1.957575,0.841871 2.779078,1.468748 1.065917,0.814713 2.15786,1.618112 3.161541,2.52335 0.647246,0.585008 1.229992,1.244701 1.91571,1.787843 0.628008,0.497881 1.275254,0.973129 1.915708,1.454038 0.304387,0.22744 0.620088,0.565773 0.958421,0.734374 0.334937,0.167469 0.720796,0.149364 1.053469,0.36662 1.19944,0.783031 2.285725,1.778792 3.448955,2.6184 1.197178,0.864501 2.532403,1.527588 3.736369,2.3638 0.452618,0.314572 0.869026,0.684586 1.342013,0.973132 1.208493,0.740031 2.359277,1.63169 3.640186,2.235936 0.964079,0.456013 1.994917,0.764926 2.970312,1.198309 0.437908,0.194626 0.822634,0.494485 1.2447,0.718531 0.515985,0.271572 0.905238,0.346254 1.342015,0.781899 m 7.567785,3.352773 -1.692794,2.874129 -2.20312,4.407376 -0.909765,4.215012 -0.463933,2.779076 v 6.131851 l 0.192361,2.010767 -2.108071,-0.478645 -0.941447,-0.207078 -0.62235,-1.708636 -0.735505,-3.257722 v -1.053475 l -0.192355,-0.767196 v -2.969175 l 1.119099,-4.119961 0.990104,-2.97031 1.037629,-2.011891 2.011891,-2.777947 1.357855,-1.117969 0.766058,0.224046 z m 2.681766,25.004929 c -0.551063,-0.101837 -1.094205,-0.332677 -1.627163,-0.510337 -0.237626,-0.0792 -0.565775,-0.13239 -0.76719,-0.287406 -0.286281,-0.222918 -0.431119,-0.784168 -0.543142,-1.117977 -0.336069,-1.010466 -0.429988,-2.042434 -0.685717,-3.066493 -0.50467,-2.014148 -0.176522,-4.23085 0.238756,-6.226892 0.182179,-0.874694 0.155022,-1.798033 0.350778,-2.681771 0.178785,-0.798872 0.50354,-1.538904 0.798872,-2.299302 0.486567,-1.251492 0.958422,-2.515429 1.692795,-3.641319 A 33.946405,33.946405 0 0 1 85.99067,73.05483 c 0.268176,-0.332676 0.678928,-0.936922 1.086284,-1.102127 0.202547,-0.08147 0.471856,0.08713 0.669877,0.127864 0.396041,0.0826 1.589824,0.139181 1.708636,0.590667 0.09844,0.371149 -0.435647,0.775109 -0.622352,1.054602 a 32.814857,32.814857 0 0 0 -1.74032,2.87413 c -0.936919,1.776528 -1.601137,3.709209 -2.059413,5.652076 -0.350781,1.482323 -0.779636,2.893365 -0.926738,4.407369 a 32.814857,32.814857 0 0 0 0,6.418144 c 0.0792,0.804523 0.693638,1.800288 0.383596,2.586718 m 44.54893,-23.185268 c -0.0804,0.763793 -1.273,1.284304 -1.82068,1.74145 -1.39972,1.165493 -2.52107,2.653477 -3.60849,4.102988 -0.55559,0.741163 -0.95048,1.680348 -1.38952,2.491667 -0.42095,0.77624 -0.94259,1.499298 -1.30921,2.299302 -0.99463,2.170304 -1.77993,4.526192 -2.4747,6.80173 -0.14144,0.46393 -0.13805,0.966345 -0.25572,1.437059 -0.10524,0.423201 -0.31458,0.821507 -0.41528,1.244707 -0.0736,0.314567 0.0271,0.649509 -0.0633,0.958414 -0.68008,2.332122 -0.88263,4.864524 -1.11798,7.281498 -0.0453,0.47525 0.0464,0.96182 0,1.43708 -0.0769,0.79207 -0.018,1.60112 -0.0962,2.39548 -0.11541,1.18813 -0.32588,2.43171 -0.19123,3.64019 0.043,0.38812 0.24895,0.74907 0.28742,1.14964 0.0645,0.66422 -0.0645,1.34767 0,2.01189 l 0.19236,1.82067 c 0.0375,0.39264 0.23536,0.69251 0.35078,1.05346 0.15616,0.48771 0.1505,1.03084 0.25573,1.53324 0.15842,0.76041 0.39038,1.4631 0.60651,2.20312 0.13126,0.44923 -0.0135,0.9754 0.0318,1.43709 0.0871,0.89391 0.20028,1.78783 0.28741,2.68176 0.16521,1.70297 -0.17312,3.51344 -0.47865,5.17456 -0.38019,-0.13919 -0.66761,-1.04555 -0.79887,-1.43706 -0.35192,-1.05801 -0.95276,-2.04924 -1.40537,-3.0665 -0.30552,-0.68911 -0.74004,-1.26959 -1.11684,-1.91571 -1.49704,-2.56635 -3.30751,-4.88037 -5.3013,-7.08914 -2.11599,-2.3423 -4.3689,-4.50017 -6.70669,-6.61049 -1.26732,-1.14399 -2.598017,-2.27555 -4.023773,-3.22493 -1.277515,-0.85204 -2.519954,-1.78557 -3.832548,-2.58784 -1.240175,-0.75813 -2.660268,-1.486846 -3.512323,-2.71457 -0.39604,-0.570292 -0.701559,-1.284302 -0.990102,-1.915708 -0.503539,-1.097595 -1.029708,-2.260834 -1.3092,-3.448959 -0.06789,-0.284013 -0.0045,-0.574821 -0.03169,-0.862237 -0.124468,-1.277519 -0.316831,-2.449796 -0.192361,-3.736368 0.07468,-0.763792 0.02263,-1.536638 0.09618,-2.299307 0.246676,-2.53466 1.154177,-5.21303 2.283462,-7.47273 0.934656,-1.869316 2.146544,-3.937784 3.847259,-5.236798 1.477799,-1.128154 2.949942,-1.552483 4.790964,-1.373699 0.399442,0.03847 0.772852,0.24215 1.149652,0.350779 0.21952,0.0645 0.44809,0.01132 0.67101,0.03281 0.32248,0.03169 0.63479,0.159548 0.95729,0.192362 0.92221,0.08826 1.85686,0.0057 2.77908,0.09506 0.83509,0.08147 1.65998,0.302125 2.49054,0.382463 1.13946,0.11089 2.39548,0.304386 3.54512,0.192362 1.11798,-0.108629 2.23595,-0.274965 3.35279,-0.383594 0.6959,-0.06789 1.41216,0.06789 2.10806,0 1.86026,-0.181048 3.70582,-0.107496 5.5559,-0.287413 1.04442,-0.101837 2.11825,0.101836 3.16154,0 1.21528,-0.117681 2.42491,-0.382463 3.64133,-0.478643 m 8.62237,16.477581 c -1.17794,-0.0306 -2.37625,-0.460537 -3.54514,-0.574821 -0.80679,-0.07805 -1.59322,-0.198025 -2.39547,-0.287417 -0.23763,-0.02601 -0.43112,-0.164067 -0.66988,-0.191227 -1.21076,-0.134661 -2.4464,-0.245552 -3.64132,-0.494486 -0.20367,-0.04298 -0.37794,0.02154 -0.57483,0 -0.49449,-0.05547 -1.03762,-0.21839 -1.53211,-0.336077 -0.26479,-0.06223 -0.65177,0.06108 -0.81472,-0.222905 -0.16294,-0.284024 0.10308,-0.710616 0.22405,-0.958425 0.36888,-0.758132 0.66762,-1.55022 1.05348,-2.299308 1.31033,-2.54937 3.10948,-5.030852 5.47668,-6.673859 0.74342,-0.515983 1.74257,-1.2232 2.68176,-1.278646 1.25263,-0.07129 2.76325,0.02602 3.92873,0.527299 0.82038,0.354177 1.38617,1.06026 2.0119,1.676953 1.12928,1.113443 2.07978,2.387564 2.76209,3.832549 0.4085,0.864502 0.61105,1.78445 0.91091,2.681766 0.34172,1.027451 0.76605,1.991526 0.98897,3.066491 0.23764,1.132683 0.20821,2.301566 0.32022,3.448952 0.0724,0.743427 0.26592,1.439327 0.19236,2.20313 -0.078,0.792078 -0.0724,1.610183 -0.22517,2.395485 -0.14256,0.735492 -0.3734,1.455167 -0.44696,2.203112 -0.052,0.53635 0.0792,1.097603 -0.0318,1.629423 -0.21159,1.01726 -0.6427,1.96436 -0.89391,2.96919 -0.45714,1.82744 -1.16098,3.45348 -2.10808,5.07725 -0.4379,0.75247 -0.94032,1.57963 -1.56492,2.20425 -0.75134,0.75134 -1.84215,1.75728 -2.96918,1.81953 -0.7174,0.0406 -1.76183,-0.4085 -2.28347,-0.8781 -0.20028,-0.1799 -0.31344,-0.45262 -0.49561,-0.65402 -0.35079,-0.38813 -0.7355,-0.76153 -0.95729,-1.24471 -0.21726,-0.47412 -0.47298,-0.94144 -0.63933,-1.43706 -0.14257,-0.43112 -0.11429,-0.91994 -0.2546,-1.342 -0.0702,-0.20934 -0.24214,-0.36889 -0.32021,-0.57485 -0.21952,-0.585 -0.16407,-1.21413 -0.22293,-1.82064 -0.0316,-0.3225 -0.16067,-0.63481 -0.19236,-0.95843 -0.13578,-1.39067 0.0724,-3.089124 0.51147,-4.406238 0.68458,-2.056022 1.8297,-3.968331 3.06649,-5.748253 0.42093,-0.607643 0.90976,-1.271856 1.40424,-1.820662 0.4017,-0.444699 1.07951,-0.958413 1.2447,-1.533246 m -8.04643,3.353908 c -0.0464,0.587268 -0.5239,1.098736 -0.76718,1.629423 -0.60991,1.330699 -1.29223,2.827736 -1.43706,4.311195 -0.21387,2.198583 -0.70949,4.502423 -0.15842,6.705543 0.17538,0.70383 0.15389,1.4348 0.46279,2.10695 0.0996,0.21952 0.30778,0.60085 0.12674,0.84638 -0.0758,0.1041 -0.21839,0.12561 -0.33494,0.0792 -0.42433,-0.16407 -0.81132,-0.38471 -1.2447,-0.54201 -1.19718,-0.43224 -2.35136,-0.9901 -3.54513,-1.40536 -0.46281,-0.16069 -1.30694,-0.33948 -1.58077,-0.79776 -0.17314,-0.28854 -0.0769,-0.56689 -0.0318,-0.86224 0.0645,-0.42998 0.0871,-1.10214 0.0633,-1.53325 -0.0406,-0.7321 0.0396,-1.45969 0.11203,-2.20312 0.20141,-2.072988 0.43112,-4.080349 0.83056,-6.131842 0.13351,-0.690239 0.28287,-1.33749 0.47864,-2.01189 0.11089,-0.380202 -0.0159,-0.773981 0.41527,-1.005941 0.46958,-0.252337 1.14286,0 1.62943,0.04755 0.86562,0.08492 1.72334,0.299853 2.58557,0.384718 0.80568,0.07691 1.61473,0.156158 2.39549,0.382467 m -52.212958,6.514319 c -0.1901,0.656294 -1.025181,0.984431 -1.533248,1.357849 -0.671006,0.49335 -1.262805,1.18585 -1.820658,1.80368 -2.160122,2.39209 -3.926467,5.26397 -5.125907,8.23878 -1.772002,4.40172 -2.699869,9.11235 -3.847259,13.70079 -0.323622,1.29108 -0.697033,2.54597 -1.054601,3.83141 -0.282887,1.0184 -0.463934,2.05601 -1.021787,2.97032 -0.489959,0.80339 -1.203965,1.4676 -1.884024,2.10805 -0.537486,0.50581 -1.009341,1.08856 -1.629429,1.50044 -1.648663,1.09987 -3.338062,1.70637 -5.268482,2.10807 -0.770583,0.16068 -1.626033,0.10637 -2.394352,0.0318 -1.020656,-0.0996 -2.046969,-0.0927 -3.066493,-0.19236 -0.707216,-0.0679 -1.348803,-0.41642 -2.011891,-0.63821 -1.63169,-0.54313 -3.23396,-1.30692 -4.789837,-2.04357 v -0.19236 c 0.479775,-0.28968 0.999156,-0.28062 1.533247,-0.41415 0.8645,-0.21612 1.758423,-0.62462 2.586714,-0.95841 1.46309,-0.58953 2.671584,-1.69845 3.831418,-2.74626 0.905238,-0.81585 1.58756,-1.78786 2.395485,-2.68177 1.846684,-2.04583 3.718265,-4.13127 5.141749,-6.51546 1.051208,-1.76067 1.972287,-3.67072 2.809631,-5.55589 1.802553,-4.05546 3.151359,-8.43227 5.779941,-12.07248 0.401699,-0.55443 0.852054,-1.02517 1.310332,-1.53211 1.211886,-1.343137 2.650083,-3.075531 4.502424,-3.513427 0.709479,-0.167479 1.450643,0.100701 2.108073,0.320222 1.148519,0.382459 2.351354,0.536349 3.448954,1.086274 m 12.837398,3.064241 c -0.124469,0.59519 -0.711743,0.65629 -1.149652,0.9901 a 20.367843,20.367843 0 0 0 -2.681766,2.45885 c -2.432825,2.69534 -3.930993,5.7856 -4.759285,9.2934 -0.07582,0.32247 0.0067,0.64498 -0.06336,0.95841 -0.231967,1.02744 -0.24894,2.01416 -0.35078,3.06648 -0.07129,0.71968 -0.1686,1.46763 -0.09617,2.20201 0.03394,0.35417 0.156153,0.70042 0.191231,1.0546 0.181047,1.87384 0.0091,3.77823 0.192362,5.65206 0.0611,0.64159 0.224047,1.27526 0.286282,1.91572 0.06789,0.69025 -0.164076,1.39972 -0.09505,2.10806 0.192363,1.98926 0.05431,3.98984 -0.35078,5.94063 -0.347385,1.66225 -0.543142,3.34939 -1.086284,4.98107 -0.135786,0.40735 -0.213864,1.19039 -0.51146,1.50042 -0.244413,0.25573 -0.70156,0.32364 -1.021787,0.44809 -0.814713,0.31684 -1.65319,0.58276 -2.490534,0.86226 -3.286012,1.09419 -6.713467,2.12391 -10.155633,2.45885 -1.148519,0.1109 -2.294777,0.36662 -3.448954,0.47865 -0.949368,0.0927 -1.924761,-0.0917 -2.87413,0 -0.902974,0.0882 -2.31288,0.35756 -3.161541,0 0.376806,-0.59973 1.117968,-1.101 1.612453,-1.62943 0.859977,-0.91656 1.695058,-1.88742 2.474695,-2.87413 2.20991,-2.7904 4.093935,-5.77768 5.572867,-9.00486 2.032259,-4.4334 2.800579,-9.27981 3.911757,-13.98705 0.05997,-0.25346 0.01132,-0.51259 0.0645,-0.76718 0.296466,-1.42235 0.6959,-2.81304 1.086285,-4.21501 0.212731,-0.76719 0.347385,-1.55022 0.638192,-2.29931 1.04555,-2.68855 2.314012,-5.24698 4.055465,-7.56891 0.792082,-1.05686 1.637347,-2.08431 2.523349,-3.06537 0.613298,-0.67892 1.399723,-1.1621 2.01189,-1.82066 0.414146,-0.44582 0.889394,-0.76267 1.340883,-1.165487 0.323622,-0.288548 0.588404,-0.698164 1.053471,-0.750217 0.305517,-0.03395 0.48996,0.09503 0.767189,0.175392 0.644981,0.18897 1.201701,0.282883 1.819525,0.574825 1.538904,0.726437 3.149095,1.378217 4.694789,2.027727"
     style="fill:#050505;stroke:none;stroke-width:1.13155"
     id="path2" /></svg>
