<?xml version="1.0" encoding="UTF-8" standalone="no"?>
<svg
   width="655.36"
   height="655.36"
   viewBox="0 0 173.397 173.397"
   version="1.1"
   id="svg2"
   sodipodi:docname="T_Icon_Map_Chest.svg"
   inkscape:version="1.4.2 (f4327f4, 2025-05-13)"
   xmlns:inkscape="http://www.inkscape.org/namespaces/inkscape"
   xmlns:sodipodi="http://sodipodi.sourceforge.net/DTD/sodipodi-0.dtd"
   xmlns="http://www.w3.org/2000/svg"
   xmlns:svg="http://www.w3.org/2000/svg">
  <defs
     id="defs2" />
  <sodipodi:namedview
     id="namedview2"
     pagecolor="#ffffff"
     bordercolor="#000000"
     borderopacity="0.25"
     inkscape:showpageshadow="2"
     inkscape:pageopacity="0.0"
     inkscape:pagecheckerboard="0"
     inkscape:deskcolor="#d1d1d1"
     inkscape:zoom="0.87935187"
     inkscape:cx="237.10645"
     inkscape:cy="358.78698"
     inkscape:window-width="1920"
     inkscape:window-height="1017"
     inkscape:window-x="-8"
     inkscape:window-y="-8"
     inkscape:window-maximized="1"
     inkscape:current-layer="svg2" />
  <g
     style="display:inline"
     id="g1">
    <path
       d="M61.213 223.267c-.568-7.591 27.43-10.813 41.761-11.003 17.233-.228 46.104 3.286 46.237 10.552.125 6.831-23.438 10.398-44.257 10.662-16.907.214-43.248-3.616-43.741-10.211"
       style="display:inline;fill:#000;fill-opacity:.2;stroke-width:.264583"
       transform="translate(-18.34 -61.733)"
       id="path1" />
  </g>
  <g
     style="display:inline"
     id="g2"
     transform="matrix(1.1546339,0,0,1.1546339,-13.40344,-15.993934)">
    <path
       d="m 37.084,39.398 c -3.546,0.69 -6.096,3.31 -8.24,6.068 l -4.15,5.334 c -2.119,2.724 -4.16,5.5 -6.18,8.297 -1.297,1.796 -2.733,3.777 -3.33,5.927 -0.438,1.574 -0.524,3.383 -0.367,4.995 0.117,1.206 -0.033,2.436 0.084,3.64 0.19,1.949 0.404,3.896 0.593,5.843 0.68,6.986 1.776,13.928 2.455,20.912 0.306,3.144 0.965,6.255 1.27,9.398 0.386,3.967 1.169,7.893 1.609,11.854 0.098,0.88 0.326,1.745 0.423,2.624 0.449,4.038 1.235,8.317 4.403,11.176 2.659,2.4 6.162,1.948 9.483,1.948 h 105.409 c 1.303,0 2.622,0.085 3.895,-0.198 2.95,-0.655 4.866,-3.169 6.11,-5.729 0.633,-1.301 0.843,-2.75 1.115,-4.149 0.196,-1.009 0.366,-2.028 0.48,-3.048 0.49,-4.417 1.432,-8.783 1.862,-13.208 0.22,-2.266 0.711,-4.507 0.932,-6.773 0.214,-2.208 0.632,-4.396 0.846,-6.604 0.54,-5.542 1.409,-11.051 1.948,-16.594 0.238,-2.456 0.523,-4.91 0.762,-7.366 0.117,-1.208 0.034,-2.425 0.084,-3.641 0.066,-1.573 0.064,-3.185 -0.282,-4.741 -0.327,-1.47 -1.117,-2.714 -1.89,-3.98 -0.932,-1.525 -2.004,-2.957 -3.049,-4.402 -2.158,-2.988 -4.425,-5.896 -6.688,-8.806 -1.459,-1.875 -2.83,-3.989 -4.6,-5.588 -1.43,-1.29 -3.03,-2.497 -4.911,-3.02 -1.014,-0.281 -2.086,-0.197 -3.133,-0.197 H 39.793 c -0.864,0 -1.861,-0.137 -2.71,0.028 z"
       id="chest_svg"
       display="inline"
       fill="currentColor"
       stroke="#000000"
       stroke-width="2" />
    <path
       d="m 37.084,39.398 c -3.546,0.69 -6.096,3.31 -8.24,6.068 l -4.15,5.334 c -2.119,2.724 -4.16,5.5 -6.18,8.297 -1.297,1.796 -2.733,3.777 -3.33,5.927 -0.438,1.574 -0.524,3.383 -0.367,4.995 0.117,1.206 -0.033,2.436 0.084,3.64 0.19,1.949 0.404,3.896 0.593,5.843 0.68,6.986 1.776,13.928 2.455,20.912 0.306,3.144 0.965,6.255 1.27,9.398 0.386,3.967 1.169,7.893 1.609,11.854 0.098,0.88 0.326,1.745 0.423,2.624 0.449,4.038 1.235,8.317 4.403,11.176 2.659,2.4 6.162,1.948 9.483,1.948 h 105.409 c 1.303,0 2.622,0.085 3.895,-0.198 2.95,-0.655 4.866,-3.169 6.11,-5.729 0.633,-1.301 0.843,-2.75 1.115,-4.149 0.196,-1.009 0.366,-2.028 0.48,-3.048 0.49,-4.417 1.432,-8.783 1.862,-13.208 0.22,-2.266 0.711,-4.507 0.932,-6.773 0.214,-2.208 0.632,-4.396 0.846,-6.604 0.54,-5.542 1.409,-11.051 1.948,-16.594 0.238,-2.456 0.523,-4.91 0.762,-7.366 0.117,-1.208 0.034,-2.425 0.084,-3.641 0.066,-1.573 0.064,-3.185 -0.282,-4.741 -0.327,-1.47 -1.117,-2.714 -1.89,-3.98 -0.932,-1.525 -2.004,-2.957 -3.049,-4.402 -2.158,-2.988 -4.425,-5.896 -6.688,-8.806 -1.459,-1.875 -2.83,-3.989 -4.6,-5.588 -1.43,-1.29 -3.03,-2.497 -4.911,-3.02 -1.014,-0.281 -2.086,-0.197 -3.133,-0.197 H 39.793 c -0.864,0 -1.861,-0.137 -2.71,0.028 m 13.378,6.83 c -0.04,0.377 -0.395,0.563 -0.677,0.79 -0.469,0.378 -0.888,0.81 -1.355,1.185 -1.707,1.376 -3.194,3.179 -4.656,4.798 -2.009,2.225 -3.92,4.798 -5.32,7.45 -0.391,0.741 -0.781,1.501 -1.087,2.287 -0.116,0.297 -0.222,1.034 -0.48,1.228 -0.182,0.137 -0.683,0.042 -0.903,0.042 H 23.961 c 0.145,-0.69 0.621,-1.348 0.987,-1.947 a 30,30 0 0 1 1.61,-2.371 c 2.294,-3.06 4.835,-5.887 7.393,-8.72 a 89,89 0 0 1 3.133,-3.303 c 0.394,-0.394 0.854,-1.062 1.355,-1.312 0.197,-0.099 0.464,-0.024 0.677,-0.057 0.938,-0.143 1.926,-0.07 2.879,-0.07 z m 98.975,17.78 h -12.022 c -0.22,0 -0.72,0.094 -0.903,-0.042 -0.142,-0.106 -0.166,-0.396 -0.226,-0.55 -0.186,-0.48 -0.35,-0.982 -0.579,-1.44 -0.798,-1.598 -1.663,-3.188 -2.723,-4.657 a 61.5,61.5 0 0 0 -6.407,-7.535 c -0.75,-0.75 -1.5,-1.492 -2.286,-2.201 -0.452,-0.409 -1.12,-0.762 -1.439,-1.27 0.435,-0.183 1.046,-0.085 1.524,-0.085 h 8.382 c 0.55,0 1.068,0.032 1.609,0.085 0.19,0.018 0.413,-0.048 0.592,0.042 0.38,0.19 0.718,0.675 1.016,0.974 0.75,0.75 1.493,1.5 2.202,2.286 1.933,2.14 3.875,4.249 5.757,6.434 1.436,1.668 2.814,3.417 4.036,5.25 0.536,0.804 1.268,1.76 1.467,2.709 m -20.828,0 h -17.272 l -9.398,-0.085 h -9.482 l -4.234,-0.084 -3.47,0.084 h -9.737 l -4.15,0.085 H 44.79 c 0.07,-0.889 0.779,-1.84 1.17,-2.625 1.28,-2.56 3.093,-4.904 5.01,-7.027 a 73,73 0 0 1 5.25,-5.25 l 1.778,-1.608 c 0.317,-0.287 0.623,-0.698 1.016,-0.89 0.247,-0.12 0.661,-0.041 0.93,-0.041 h 52.917 c 0.413,0 1.153,-0.144 1.524,0.042 0.379,0.189 0.696,0.604 1.016,0.875 1.056,0.894 2.022,1.881 3.048,2.808 3.075,2.776 5.91,5.943 8.072,9.483 a 29,29 0 0 1 1.51,2.794 c 0.212,0.448 0.539,0.936 0.578,1.439 m -93.81,7.45 -0.508,3.895 -0.254,6.266 v 2.37 l 0.508,6.858 0.931,6.689 0.819,4.995 1.326,7.45 2.794,14.563 0.762,3.98 0.395,2.37 c -1.99,0 -4.015,0.085 -6.011,0.085 -1.971,0 -3.962,-0.132 -5.503,-1.524 -1.636,-1.476 -1.838,-3.57 -2.23,-5.588 -0.602,-3.097 -1.148,-6.266 -1.496,-9.398 -0.396,-3.567 -1.176,-7.095 -1.524,-10.668 -0.357,-3.678 -0.997,-7.329 -1.354,-11.006 -0.357,-3.67 -0.744,-7.337 -1.101,-11.007 -0.24,-2.474 -0.183,-4.977 -0.423,-7.45 -0.032,-0.327 0.054,-0.616 0.084,-0.932 0.062,-0.636 0,-1.309 0,-1.947 l 5.504,-0.085 z m 90.425,59.435 h -6.689 l -1.609,0.085 -14.478,-0.085 H 68.495 l -7.027,0.043 -4.91,0.042 -1.779,-0.085 h -6.604 c -1.036,-5.624 -1.813,-11.308 -2.907,-16.933 -0.733,-3.773 -1.495,-7.615 -1.919,-11.43 -0.27,-2.435 -0.779,-4.843 -1.016,-7.281 l -0.508,-5.165 c -0.079,-0.814 -0.005,-1.64 -0.084,-2.455 -0.387,-3.972 -0.27,-8.156 0.169,-12.108 0.107,-0.962 0.263,-1.92 0.41,-2.878 0.044,-0.293 -0.005,-0.846 0.168,-1.087 0.165,-0.228 0.936,-0.099 1.2,-0.099 1.218,0 2.434,-0.084 3.64,-0.084 h 78.825 c 1.153,0 2.31,0.084 3.471,0.084 0.283,0 1.014,-0.132 1.242,0.043 0.204,0.156 0.171,0.82 0.198,1.058 0.088,0.793 0.25,1.578 0.338,2.37 0.408,3.67 0.7,7.555 0.34,11.261 -0.127,1.293 -0.045,2.603 -0.17,3.895 l -0.508,5.25 c -0.235,2.41 -0.749,4.79 -1.016,7.196 -0.37,3.335 -1.024,6.693 -1.665,9.99 -1.187,6.103 -2.037,12.27 -3.161,18.373 m 26.162,-59.436 c 0,0.64 -0.062,1.312 0,1.948 0.03,0.316 0.116,0.605 0.084,0.931 -0.237,2.446 -0.185,4.92 -0.423,7.366 -0.406,4.18 -0.864,8.353 -1.27,12.53 -0.31,3.198 -0.874,6.37 -1.185,9.568 -0.328,3.374 -1.065,6.706 -1.44,10.075 -0.37,3.33 -0.94,6.699 -1.58,9.991 -0.392,2.017 -0.594,4.111 -2.23,5.588 -1.54,1.391 -3.532,1.524 -5.503,1.524 -1.986,0 -4.014,-0.085 -6.011,-0.085 l 0.48,-2.794 0.762,-3.979 2.709,-14.14 1.326,-7.45 0.734,-4.487 1.016,-7.197 0.508,-6.943 v -2.54 l -0.254,-6.096 -0.508,-3.81 7.281,-0.084 z"
       style="display:inline;fill:#010101;stroke:none"
       id="path2" />
  </g>
</svg>
