<svg xmlns="http://www.w3.org/2000/svg" width="655.36" height="655.36" viewBox="0 0 173.397 173.397"><g style="display:inline"><path d="M61.213 223.267c-.568-7.591 27.43-10.813 41.761-11.003 17.233-.228 46.104 3.286 46.237 10.552.125 6.831-23.438 10.398-44.257 10.662-16.907.214-43.248-3.616-43.741-10.211" style="display:inline;fill:#000;fill-opacity:.2;stroke-width:.264583" transform="translate(-18.34 -61.733)"/></g><g style="display:inline"><path d="M67.903 67.592c-1.01.197-2.108.042-3.133.141-2.18.212-4.343.52-6.52.762-2.245.25-4.516.893-6.688 1.496-5.742 1.595-11.361 4.086-16.087 7.761-7.083 5.51-12.605 13.143-15.014 21.816-.632 2.274-1.267 4.59-1.496 6.943a48 48 0 0 0 0 9.313c.595 6.12 2.492 12.243 6.125 17.272a38.3 38.3 0 0 0 7.591 7.846c7.871 6.122 17.624 8.935 27.263 10.809 4.91.955 9.856 1.267 14.817 1.75 1.124.109 2.263.06 3.386.169.727.07 1.475-.07 2.202 0 1.562.152 3.163.085 4.741.085 1.606 0 3.236.07 4.826-.085.727-.07 1.474.07 2.201 0 1.601-.156 3.224-.098 4.826-.254 5.93-.576 11.843-1.098 17.696-2.399 5.709-1.269 11.465-2.902 16.764-5.404 2.492-1.178 4.823-2.572 7.196-4.022 3.279-2.004 6.427-4.745 8.834-7.733 3.176-3.943 5.669-8.238 6.773-13.208.385-1.732.739-3.628.565-5.419-.247-2.538-.834-5.009-1.849-7.366-1.304-3.03-3.212-5.753-5.433-8.212-4.414-4.89-10.863-7.548-17.187-8.777-2.101-.409-4.228-.415-6.35-.621-1.78-.173-3.636-.933-5.08-1.976-2.76-1.994-5.017-4.472-7.535-6.745-1.98-1.787-4.016-3.488-6.181-5.052-4.58-3.307-9.946-5.464-15.41-6.83-1.85-.462-3.775-.946-5.672-1.157-1.61-.179-3.213-.435-4.826-.592-.59-.058-1.187-.028-1.778-.085-2.187-.213-4.394-.254-6.604-.254-.944 0-2.037-.152-2.963.028z" id="lake_svg" display="inline" fill="currentColor" stroke="#000" stroke-width="2"/><path d="M67.903 67.592c-1.01.197-2.108.042-3.133.141-2.18.212-4.343.52-6.52.762-2.245.25-4.516.893-6.688 1.496-5.742 1.595-11.361 4.086-16.087 7.761-7.083 5.51-12.605 13.143-15.014 21.816-.632 2.274-1.267 4.59-1.496 6.943a48 48 0 0 0 0 9.313c.595 6.12 2.492 12.243 6.125 17.272a38.3 38.3 0 0 0 7.591 7.846c7.871 6.122 17.624 8.935 27.263 10.809 4.91.955 9.856 1.267 14.817 1.75 1.124.109 2.263.06 3.386.169.727.07 1.475-.07 2.202 0 1.562.152 3.163.085 4.741.085 1.606 0 3.236.07 4.826-.085.727-.07 1.474.07 2.201 0 1.601-.156 3.224-.098 4.826-.254 5.93-.576 11.843-1.098 17.696-2.399 5.709-1.269 11.465-2.902 16.764-5.404 2.492-1.178 4.823-2.572 7.196-4.022 3.279-2.004 6.427-4.745 8.834-7.733 3.176-3.943 5.669-8.238 6.773-13.208.385-1.732.739-3.628.565-5.419-.247-2.538-.834-5.009-1.849-7.366-1.304-3.03-3.212-5.753-5.433-8.212-4.414-4.89-10.863-7.548-17.187-8.777-2.101-.409-4.228-.415-6.35-.621-1.78-.173-3.636-.933-5.08-1.976-2.76-1.994-5.017-4.472-7.535-6.745-1.98-1.787-4.016-3.488-6.181-5.052-4.58-3.307-9.946-5.464-15.41-6.83-1.85-.462-3.775-.946-5.672-1.157-1.61-.179-3.213-.435-4.826-.592-.59-.058-1.187-.028-1.778-.085-2.187-.213-4.394-.254-6.604-.254-.944 0-2.037-.152-2.963.028m.254 5.066c.89-.136 1.892-.014 2.794-.014 2.097 0 4.19.052 6.265.254 2.55.248 5.094.384 7.62.875 6.412 1.247 12.534 3.346 17.865 7.197 3.066 2.214 5.67 4.897 8.466 7.422 2.275 2.053 4.484 4.168 7.282 5.49 1.593.752 3.411 1.282 5.164 1.453 1.924.187 3.852.165 5.758.536 5.701 1.108 10.949 3.468 14.901 7.846 1.067 1.181 2.117 2.477 2.865 3.894 1.273 2.412 2.287 4.957 2.554 7.705.184 1.9-.316 3.863-.819 5.673-1.22 4.39-3.932 8.39-7.14 11.599-6.704 6.704-15.844 10.424-24.892 12.686-3.042.76-6.197 1.53-9.313 1.877-3.25.36-6.483.784-9.737 1.1-2.024.197-4.072.142-6.096.339-.727.07-1.474-.07-2.201 0-1.425.138-2.88.085-4.318.085-1.44 0-2.894.053-4.318-.085-.753-.073-1.53.031-2.286 0-1.17-.049-2.388-.056-3.556-.17-4.906-.476-9.792-.805-14.648-1.75-8.69-1.689-17.55-4.28-24.638-9.792a33.3 33.3 0 0 1-6.575-6.83c-3.283-4.545-4.66-10.01-5.193-15.494-1.175-12.083 4.263-24.595 13.8-32.145 4.861-3.848 10.513-6.389 16.51-7.888 1.8-.45 3.659-.91 5.504-1.115 1.75-.195 3.495-.422 5.249-.593 1.037-.1 2.103.003 3.133-.155m-15.748 17.3c-.52.26-.893.973-1.27 1.397-1.27 1.428-2.203 3.17-3.726 4.375-1.311 1.038-2.786 1.858-4.148 2.822-.88.623-1.769 1.34-2.71 1.863-.957.531-2.049.826-3.048 1.27-.39.174-.946.26-1.241.592-1.655 1.866-1.269 6.278 1.665 6.604 1.71.19 3.213-.337 4.741-1.016 2.555-1.135 4.727-3.037 6.773-4.91 1.096-1.004 1.903-2.205 2.879-3.302.321-.362.794-.96 1.355-.875.488.074.936.787 1.284 1.1 1.176 1.061 2.275 2.195 3.457 3.246.744.661 1.61 1.205 2.455 1.722 2.88 1.76 6.138 2.93 9.568 2.596.853-.083 1.727-.316 2.54-.564 2.939-.899 5.587-2.126 8.043-4.036.457-.356.957-.735 1.355-1.157.55-.585.959-1.29 1.524-1.863.384-.39.771-.95 1.354-1.03.466-.065.807.496 1.101.79.885.885 1.735 1.805 2.625 2.695 2.407 2.408 5.216 4.693 8.382 6.012 1.374.572 3.339 1.09 4.741.31 1.532-.851 1.675-2.564 1.524-4.12-.067-.686-.215-1.467-.65-2.032-.28-.365-.73-.433-1.128-.593-.85-.343-1.69-.716-2.54-1.058-1.222-.493-2.3-1.406-3.387-2.131-1.202-.802-2.564-1.512-3.64-2.484-1.296-1.17-2.294-2.61-3.359-3.979-.466-.6-1.043-1.564-1.75-1.905-.199-.096-.439.034-.649.042-.461.02-1.175-.037-1.608.113-.246.085-.482.328-.678.494-.748.634-1.312 1.46-1.961 2.187-1.103 1.236-2.526 2.314-3.965 3.133-1.757 1-3.67 1.656-5.588 2.215-1.618.472-3.178.917-4.911.748-.421-.04-.87-.194-1.27-.31-.246-.072-.514-.059-.762-.141-2.152-.718-4.322-1.81-6.11-3.218-1.058-.832-2.125-1.608-3.105-2.54-.705-.67-1.26-1.492-1.961-2.173-.477-.464-1.455-1.262-2.201-.889m33.02 20.49c-.616.282-1.158 1.21-1.553 1.735-.908 1.212-1.819 2.568-2.92 3.613-1.274 1.207-2.889 2.065-4.333 3.048-1.084.738-2.134 1.643-3.302 2.243-.941.484-1.988.808-2.963 1.214-.531.221-.992.31-1.34.804-1.432 2.033-.953 6.146 2.017 6.435 2.003.195 3.619-.604 5.334-1.51 2.213-1.168 4.314-2.828 6.096-4.586.441-.435.95-.862 1.327-1.355.506-.663.96-1.354 1.552-1.947.273-.273.815-.908 1.27-.833.173.03.307.21.423.325.29.285.592.559.875.847.99 1.008 2.02 2.076 3.105 2.977 1.98 1.646 4.367 3.225 6.858 3.951 1.272.371 2.571.563 3.894.692.69.067 1.433-.103 2.117-.17 1.12-.109 2.145-.52 3.217-.832 2.627-.766 5.069-2.223 7.197-3.937 1.062-.856 1.756-1.982 2.71-2.935.329-.33.762-.867 1.27-.918.331-.032.757.613.959.833a77 77 0 0 0 2.71 2.766c2.484 2.442 5.282 4.69 8.522 6.04 1.343.559 3.199.997 4.572.253 1.531-.829 1.672-2.626 1.524-4.148-.06-.616-.2-1.324-.536-1.863-.35-.561-1.01-.651-1.58-.889-.935-.39-1.855-.806-2.794-1.171-.313-.122-.573-.378-.847-.565-.562-.382-1.128-.752-1.693-1.129-1.824-1.215-3.695-2.298-5.165-3.95-1.055-1.187-1.882-2.56-2.963-3.726-.386-.415-.883-1.14-1.44-1.326-.772-.258-1.77.601-2.3 1.044-.854.714-1.527 1.659-2.272 2.483-.84.931-1.884 1.666-2.907 2.371-2.215 1.528-4.815 2.256-7.337 2.992-1.07.312-2.244.675-3.387.564-2.191-.213-4.266-1.026-6.18-2.117-.707-.402-1.468-.788-2.117-1.284-1.151-.879-2.352-1.713-3.401-2.723-.726-.7-1.302-1.542-2.018-2.258-.456-.456-1.044-.917-1.693-1.016-.164-.025-.347-.116-.508-.042" style="fill:#020202;stroke:none"/></g></svg>