<svg xmlns="http://www.w3.org/2000/svg" xml:space="preserve" width="655.36" height="655.36" viewBox="0 0 173.397 173.397"><g style="display:inline"><path d="M61.213 223.267c-.568-7.591 27.43-10.813 41.761-11.003 17.233-.228 46.104 3.286 46.237 10.552.125 6.831-23.438 10.398-44.257 10.662-16.907.214-43.248-3.616-43.741-10.211" style="display:inline;fill:#000;fill-opacity:.2;stroke-width:.264583" transform="translate(-18.34 -61.733)"/></g><g style="display:inline"><path d="M37.084 39.398c-3.546.69-6.096 3.31-8.24 6.068l-4.15 5.334c-2.119 2.724-4.16 5.5-6.18 8.297-1.297 1.796-2.733 3.777-3.33 5.927-.438 1.574-.524 3.383-.367 4.995.117 1.206-.033 2.436.084 3.64.19 1.949.404 3.896.593 5.843.68 6.986 1.776 13.928 2.455 20.912.306 3.144.965 6.255 1.27 9.398.386 3.967 1.169 7.893 1.609 11.854.098.88.326 1.745.423 2.624.449 4.038 1.235 8.317 4.403 11.176 2.659 2.4 6.162 1.948 9.483 1.948h105.409c1.303 0 2.622.085 3.895-.198 2.95-.655 4.866-3.169 6.11-5.729.633-1.301.843-2.75 1.115-4.149.196-1.009.366-2.028.48-3.048.49-4.417 1.432-8.783 1.862-13.208.22-2.266.711-4.507.932-6.773.214-2.208.632-4.396.846-6.604.54-5.542 1.409-11.051 1.948-16.594.238-2.456.523-4.91.762-7.366.117-1.208.034-2.425.084-3.641.066-1.573.064-3.185-.282-4.741-.327-1.47-1.117-2.714-1.89-3.98-.932-1.525-2.004-2.957-3.049-4.402-2.158-2.988-4.425-5.896-6.688-8.806-1.459-1.875-2.83-3.989-4.6-5.588-1.43-1.29-3.03-2.497-4.911-3.02-1.014-.281-2.086-.197-3.133-.197H39.793c-.864 0-1.861-.137-2.71.028z" id="skinChest_svg" display="inline" fill="currentColor" stroke="#000" stroke-width="2"/><path d="M37.084 39.398c-3.546.69-6.096 3.31-8.24 6.068l-4.15 5.334c-2.119 2.724-4.16 5.5-6.18 8.297-1.297 1.796-2.733 3.777-3.33 5.927-.438 1.574-.524 3.383-.367 4.995.117 1.206-.033 2.436.084 3.64.19 1.949.404 3.896.593 5.843.68 6.986 1.776 13.928 2.455 20.912.306 3.144.965 6.255 1.27 9.398.386 3.967 1.169 7.893 1.609 11.854.098.88.326 1.745.423 2.624.449 4.038 1.235 8.317 4.403 11.176 2.659 2.4 6.162 1.948 9.483 1.948h105.409c1.303 0 2.622.085 3.895-.198 2.95-.655 4.866-3.169 6.11-5.729.633-1.301.843-2.75 1.115-4.149.196-1.009.366-2.028.48-3.048.49-4.417 1.432-8.783 1.862-13.208.22-2.266.711-4.507.932-6.773.214-2.208.632-4.396.846-6.604.54-5.542 1.409-11.051 1.948-16.594.238-2.456.523-4.91.762-7.366.117-1.208.034-2.425.084-3.641.066-1.573.064-3.185-.282-4.741-.327-1.47-1.117-2.714-1.89-3.98-.932-1.525-2.004-2.957-3.049-4.402-2.158-2.988-4.425-5.896-6.688-8.806-1.459-1.875-2.83-3.989-4.6-5.588-1.43-1.29-3.03-2.497-4.911-3.02-1.014-.281-2.086-.197-3.133-.197H39.793c-.864 0-1.861-.137-2.71.028m13.378 6.83c-.04.377-.395.563-.677.79-.469.378-.888.81-1.355 1.185-1.707 1.376-3.194 3.179-4.656 4.798-2.009 2.225-3.92 4.798-5.32 7.45-.391.741-.781 1.501-1.087 2.287-.116.297-.222 1.034-.48 1.228-.182.137-.683.042-.903.042H23.961c.145-.69.621-1.348.987-1.947a30 30 0 0 1 1.61-2.371c2.294-3.06 4.835-5.887 7.393-8.72a89 89 0 0 1 3.133-3.303c.394-.394.854-1.062 1.355-1.312.197-.099.464-.024.677-.057.938-.143 1.926-.07 2.879-.07zm98.975 17.78h-12.022c-.22 0-.72.094-.903-.042-.142-.106-.166-.396-.226-.55-.186-.48-.35-.982-.579-1.44-.798-1.598-1.663-3.188-2.723-4.657a61.5 61.5 0 0 0-6.407-7.535c-.75-.75-1.5-1.492-2.286-2.201-.452-.409-1.12-.762-1.439-1.27.435-.183 1.046-.085 1.524-.085h8.382c.55 0 1.068.032 1.609.085.19.018.413-.048.592.042.38.19.718.675 1.016.974.75.75 1.493 1.5 2.202 2.286 1.933 2.14 3.875 4.249 5.757 6.434 1.436 1.668 2.814 3.417 4.036 5.25.536.804 1.268 1.76 1.467 2.709m-20.828 0h-17.272l-9.398-.085h-9.482l-4.234-.084-3.47.084h-9.737l-4.15.085H44.79c.07-.889.779-1.84 1.17-2.625 1.28-2.56 3.093-4.904 5.01-7.027a73 73 0 0 1 5.25-5.25l1.778-1.608c.317-.287.623-.698 1.016-.89.247-.12.661-.041.93-.041h52.917c.413 0 1.153-.144 1.524.042.379.189.696.604 1.016.875 1.056.894 2.022 1.881 3.048 2.808 3.075 2.776 5.91 5.943 8.072 9.483a29 29 0 0 1 1.51 2.794c.212.448.539.936.578 1.439m-93.81 7.45-.508 3.895-.254 6.266v2.37l.508 6.858.931 6.689.819 4.995 1.326 7.45 2.794 14.563.762 3.98.395 2.37c-1.99 0-4.015.085-6.011.085-1.971 0-3.962-.132-5.503-1.524-1.636-1.476-1.838-3.57-2.23-5.588-.602-3.097-1.148-6.266-1.496-9.398-.396-3.567-1.176-7.095-1.524-10.668-.357-3.678-.997-7.329-1.354-11.006-.357-3.67-.744-7.337-1.101-11.007-.24-2.474-.183-4.977-.423-7.45-.032-.327.054-.616.084-.932.062-.636 0-1.309 0-1.947l5.504-.085zm90.425 59.435h-6.689l-1.609.085-14.478-.085H68.495l-7.027.043-4.91.042-1.779-.085h-6.604c-1.036-5.624-1.813-11.308-2.907-16.933-.733-3.773-1.495-7.615-1.919-11.43-.27-2.435-.779-4.843-1.016-7.281l-.508-5.165c-.079-.814-.005-1.64-.084-2.455-.387-3.972-.27-8.156.169-12.108.107-.962.263-1.92.41-2.878.044-.293-.005-.846.168-1.087.165-.228.936-.099 1.2-.099 1.218 0 2.434-.084 3.64-.084h78.825c1.153 0 2.31.084 3.471.084.283 0 1.014-.132 1.242.043.204.156.171.82.198 1.058.088.793.25 1.578.338 2.37.408 3.67.7 7.555.34 11.261-.127 1.293-.045 2.603-.17 3.895l-.508 5.25c-.235 2.41-.749 4.79-1.016 7.196-.37 3.335-1.024 6.693-1.665 9.99-1.187 6.103-2.037 12.27-3.161 18.373m26.162-59.436c0 .64-.062 1.312 0 1.948.03.316.116.605.084.931-.237 2.446-.185 4.92-.423 7.366-.406 4.18-.864 8.353-1.27 12.53-.31 3.198-.874 6.37-1.185 9.568-.328 3.374-1.065 6.706-1.44 10.075-.37 3.33-.94 6.699-1.58 9.991-.392 2.017-.594 4.111-2.23 5.588-1.54 1.391-3.532 1.524-5.503 1.524-1.986 0-4.014-.085-6.011-.085l.48-2.794.762-3.979 2.709-14.14 1.326-7.45.734-4.487 1.016-7.197.508-6.943v-2.54l-.254-6.096-.508-3.81 7.281-.084zm-40.979 3.077c-.505.098-1.013.006-1.524.056-.671.065-1.37.22-2.032.367a26 26 0 0 0-7.62 3.048c-1.29.77-2.607 1.672-3.725 2.681-.54.487-1.063.99-1.609 1.468-.256.224-.439.543-.762.691-.373.171-.89-.005-1.27-.042l-2.54-.254c-1.176-.115-2.368-.085-3.556-.085-1.419 0-2.845-.007-4.233.282-.913.19-1.832.322-2.71.664-.36.14-.96.593-1.354.451-.264-.095-.465-.35-.677-.522-.509-.41-1.002-.836-1.524-1.228-1.597-1.197-3.23-2.341-4.996-3.273-2.11-1.114-4.372-1.968-6.688-2.611-1.173-.326-2.378-.482-3.556-.776-.85-.212-1.758-.307-2.625-.452-.218-.036-.72-.258-.89-.042-.087.112-.041.348-.041.48v1.185c0 1.562-.068 3.093.084 4.657.094.96.161 1.92.254 2.878.107 1.103.409 2.22.65 3.302.418 1.884.894 3.73 1.41 5.588.373 1.343.9 2.67 1.355 3.98.354 1.018.955 2.013 1.242 3.048.106.383-.311.795-.494 1.1-.509.852-1.018 1.732-1.44 2.625-1.432 3.035-2.604 6.297-2.977 9.652-.088.791-.177 1.578-.254 2.37-.026.266-.167.578-.07.847.067.186.32.214.494.24.467.072.968.164 1.439.184 1.941.08 3.821.868 5.673 1.383 1.712.475 3.364 1.16 5.08 1.636 2.106.585 4.216 1.093 6.18 2.075 2.824 1.412 5.7 2.878 8.806 3.655 1.237.309 2.777.701 4.064.451 1.11-.216 1.945-.705 2.963-1.157 1.597-.71 3.076-1.695 4.657-2.441 2.293-1.083 4.59-2.256 6.942-3.203.927-.374 1.917-.636 2.879-.904 1.357-.376 2.685-.841 4.064-1.128 1.336-.279 2.707-.659 4.064-.79.499-.05 1.029-.024 1.524-.1.455-.069.892-.064 1.354-.07.168-.002.345.02.41-.17.066-.191-.052-.402-.07-.592l-.086-.931c-.107-1.11-.322-2.212-.564-3.302-.808-3.637-1.947-7.21-3.683-10.499-.493-.934-1.106-1.844-1.707-2.71-.328-.47-1.034-.9-1.214-1.439-.13-.389.302-.858.466-1.185.553-1.107 1.142-2.223 1.594-3.387 1.629-4.187 2.907-8.433 2.907-12.954 0-1.297-.128-2.482-.508-3.725-.09-.292-.096-.863-.367-1.058-.175-.126-.61-.043-.818-.043-.759 0-1.627-.116-2.37.029m-.34 3.796c.143-.022.44-.068.565.028.133.101.11.32.113.465.005.395 0 .79 0 1.186 0 1.773-.36 3.614-.79 5.334-.75 2.998-1.94 6.006-3.373 8.72-.448.849-.994 1.649-1.51 2.456-.138.216-.56.668-.494.931.116.464.987.928 1.34 1.214.753.606 1.326 1.431 1.934 2.173.638.778 1.11 1.74 1.552 2.624.924 1.849 1.59 3.711 2.244 5.673.241.724.361 1.47.564 2.201.077.278.36.728.297 1.016-.101.464-1.138.507-1.51.579-1.534.298-3.072.628-4.572 1.087-4.068 1.242-7.965 2.99-11.684 4.953-1.552.818-3.089 1.67-4.657 2.455-.764.382-1.578.904-2.455 1.002-1.793.199-3.405-.514-5.08-1.073-2.315-.771-4.4-1.981-6.604-2.991-2.828-1.296-5.974-2.017-8.975-2.85-1.724-.48-3.378-1.174-5.08-1.694-.354-.108-1.353.076-1.51-.367-.082-.232.027-.534.07-.762.128-.656.318-1.298.48-1.947.684-2.733 1.93-5.165 3.26-7.62.348-.642.806-1.267 1.228-1.863.137-.193.434-.417.41-.677-.044-.443-.436-.961-.622-1.355-.589-1.248-1.156-2.58-1.594-3.895-1.17-3.508-2.276-7-2.837-10.668-.078-.512-.274-1.004-.324-1.524-.071-.729-.073-1.476-.184-2.2-.048-.317-.044-.614-.07-.932-.012-.143-.111-.352.028-.466.232-.19.828.08 1.073.141 1.054.264 2.096.488 3.132.833 1.168.39 2.369.817 3.472 1.369 2.224 1.112 4.208 2.656 6.18 4.162.856.654 1.616 1.44 2.455 2.117.185.148.479.588.734.593.135.002.354-.219.452-.297.336-.266.657-.57 1.016-.804.955-.624 2.336-1.019 3.471-1.129.962-.093 1.917-.245 2.879-.339.702-.068 1.426.018 2.116.085 1.072.104 2.146.15 3.218.254 1.02.1 2.029.31 3.048.423.322.036.69.26 1.016.142.47-.17.837-.974 1.185-1.327a33 33 0 0 1 3.302-2.935c2.178-1.694 4.785-3.07 7.45-3.81 1.203-.334 2.418-.504 3.641-.691m-19.812 30.38c.367.145.537-.134.847-.324.672-.41 1.353-.798 2.032-1.185 2.1-1.196 4.614-1.98 7.027-2.216.814-.079 1.636-.254 2.456-.254.36 0 .849.095 1.1-.169-.927-.464-1.961-.737-2.963-1.002-2.901-.765-6.627-1.131-8.89 1.34-.943 1.03-1.362 2.473-1.609 3.81m-22.605-3.64c1.335 0 2.603.157 3.894.48 1.755.439 3.51.785 5.165 1.566.613.29 1.269.531 1.863.861.6.333 1.221.752 1.862.988 0-.564-.15-1.001-.338-1.524-1.287-3.563-5.18-4.54-8.552-3.838-.992.206-1.922.486-2.878.818-.365.127-.895.262-1.016.65m18.457 8.917c-.882.172-1.8.15-2.625.55-.236.115-.492.208-.649.438-.298.438.235 1.328.494 1.693.778 1.098 2.328 2.31 3.796 2.004 1.12-.233 2.164-1.536 2.639-2.512.188-.388.491-1.028.211-1.439-.2-.295-.509-.348-.818-.451-.505-.169-.994-.175-1.524-.226-.503-.05-1.013-.156-1.524-.057" style="fill:#020202;stroke:none"/></g></svg>