<?xml version="1.0" encoding="UTF-8" standalone="no"?>
<svg
   xml:space="preserve"
   width="655.36"
   height="655.36"
   viewBox="0 0 173.397 173.397"
   version="1.1"
   id="svg2"
   sodipodi:docname="T_Icon_Map_SkinChest.svg"
   inkscape:version="1.4.2 (f4327f4, 2025-05-13)"
   xmlns:inkscape="http://www.inkscape.org/namespaces/inkscape"
   xmlns:sodipodi="http://sodipodi.sourceforge.net/DTD/sodipodi-0.dtd"
   xmlns="http://www.w3.org/2000/svg"
   xmlns:svg="http://www.w3.org/2000/svg"><defs
     id="defs2" /><sodipodi:namedview
     id="namedview2"
     pagecolor="#ffffff"
     bordercolor="#000000"
     borderopacity="0.25"
     inkscape:showpageshadow="2"
     inkscape:pageopacity="0.0"
     inkscape:pagecheckerboard="0"
     inkscape:deskcolor="#d1d1d1"
     inkscape:zoom="0.70710678"
     inkscape:cx="294.86353"
     inkscape:cy="309.00566"
     inkscape:window-width="1920"
     inkscape:window-height="1017"
     inkscape:window-x="-8"
     inkscape:window-y="-8"
     inkscape:window-maximized="1"
     inkscape:current-layer="svg2" /><g
     style="display:inline"
     id="g1"><path
       d="M61.213 223.267c-.568-7.591 27.43-10.813 41.761-11.003 17.233-.228 46.104 3.286 46.237 10.552.125 6.831-23.438 10.398-44.257 10.662-16.907.214-43.248-3.616-43.741-10.211"
       style="display:inline;fill:#000;fill-opacity:.2;stroke-width:.264583"
       transform="translate(-18.34 -61.733)"
       id="path1" /></g><g
     style="display:inline"
     id="g2"
     transform="matrix(1.1884252,0,0,1.1884252,-16.332432,-26.088439)"><path
       d="m 38.493909,42.214074 c -3.445191,0.670384 -5.922698,3.215901 -8.005745,5.895494 l -4.03202,5.182359 c -2.058758,2.646559 -4.041735,5.34364 -6.004308,8.061125 -1.260128,1.744941 -2.655303,3.669624 -3.235331,5.758501 -0.425548,1.529253 -0.509104,3.286824 -0.356567,4.852996 0.113675,1.171715 -0.03206,2.366747 0.08161,3.536519 0.184598,1.893592 0.392513,3.78524 0.576142,5.67689 0.660668,6.787394 1.72551,13.532039 2.385207,20.317482 0.2973,3.05462 0.937565,6.07719 1.233895,9.13083 0.375026,3.85423 1.135766,7.66861 1.563257,11.517 0.09521,0.85499 0.316732,1.69539 0.410973,2.54941 0.436238,3.9232 1.199892,8.08056 4.277829,10.85827 2.583405,2.33176 5.98682,1.89263 9.213406,1.89263 H 139.01458 c 1.26597,0 2.54746,0.0826 3.78427,-0.19237 2.86614,-0.63637 4.72767,-3.07891 5.9363,-5.56613 0.61501,-1.26402 0.81903,-2.67183 1.08331,-4.03106 0.19043,-0.98031 0.35559,-1.97034 0.46635,-2.96134 0.47606,-4.29143 1.39129,-8.53331 1.80905,-12.83252 0.21376,-2.20158 0.6908,-4.37886 0.90552,-6.58044 0.20792,-2.14523 0.61403,-4.27102 0.82194,-6.416256 0.52466,-5.384446 1.36895,-10.736832 1.89263,-16.12225 0.23123,-2.386177 0.50814,-4.770414 0.74034,-7.156591 0.11367,-1.173657 0.033,-2.356059 0.0815,-3.537489 0.0641,-1.528282 0.0621,-3.094454 -0.27399,-4.606219 -0.3177,-1.42821 -1.08525,-2.636844 -1.83628,-3.866854 -0.9055,-1.481644 -1.94703,-2.872934 -2.96232,-4.276854 -2.09665,-2.903054 -4.2992,-5.728383 -6.49786,-8.555654 -1.41753,-1.821695 -2.74954,-3.875598 -4.46922,-5.429139 -1.38935,-1.253327 -2.94387,-2.426012 -4.77139,-2.934144 -0.98518,-0.273012 -2.02669,-0.1914 -3.04393,-0.1914 H 41.125894 c -0.839437,0 -1.808094,-0.133105 -2.632957,0.0272 z"
       id="skinChest_svg"
       display="inline"
       fill="currentColor"
       stroke="#000000"
       stroke-width="1.94314" /><path
       d="m 38.493909,42.214074 c -3.445191,0.670384 -5.922698,3.215901 -8.005745,5.895494 l -4.03202,5.182359 c -2.058758,2.646559 -4.041735,5.34364 -6.004308,8.061125 -1.260128,1.744941 -2.655303,3.669624 -3.235331,5.758501 -0.425548,1.529253 -0.509104,3.286824 -0.356567,4.852996 0.113675,1.171715 -0.03206,2.366747 0.08161,3.536519 0.184598,1.893592 0.392513,3.78524 0.576142,5.67689 0.660668,6.787394 1.72551,13.532039 2.385207,20.317482 0.2973,3.05462 0.937565,6.07719 1.233895,9.13083 0.375026,3.85423 1.135766,7.66861 1.563257,11.517 0.09521,0.85499 0.316732,1.69539 0.410973,2.54941 0.436238,3.9232 1.199892,8.08056 4.277829,10.85827 2.583405,2.33176 5.98682,1.89263 9.213406,1.89263 H 139.01458 c 1.26597,0 2.54746,0.0826 3.78427,-0.19237 2.86614,-0.63637 4.72767,-3.07891 5.9363,-5.56613 0.61501,-1.26402 0.81903,-2.67183 1.08331,-4.03106 0.19043,-0.98031 0.35559,-1.97034 0.46635,-2.96134 0.47606,-4.29143 1.39129,-8.53331 1.80905,-12.83252 0.21376,-2.20158 0.6908,-4.37886 0.90552,-6.58044 0.20792,-2.14523 0.61403,-4.27102 0.82194,-6.416256 0.52466,-5.384446 1.36895,-10.736832 1.89263,-16.12225 0.23123,-2.386177 0.50814,-4.770414 0.74034,-7.156591 0.11367,-1.173657 0.033,-2.356059 0.0815,-3.537489 0.0641,-1.528282 0.0621,-3.094454 -0.27399,-4.606219 -0.3177,-1.42821 -1.08525,-2.636844 -1.83628,-3.866854 -0.9055,-1.481644 -1.94703,-2.872934 -2.96232,-4.276854 -2.09665,-2.903054 -4.2992,-5.728383 -6.49786,-8.555654 -1.41753,-1.821695 -2.74954,-3.875598 -4.46922,-5.429139 -1.38935,-1.253327 -2.94387,-2.426012 -4.77139,-2.934144 -0.98518,-0.273012 -2.02669,-0.1914 -3.04393,-0.1914 H 41.125894 c -0.839437,0 -1.808094,-0.133105 -2.632957,0.0272 m 12.997676,6.63583 c -0.03886,0.366283 -0.383769,0.546995 -0.657753,0.767541 -0.455667,0.367255 -0.862754,0.786972 -1.316478,1.151312 -1.658472,1.33688 -3.103198,3.088624 -4.523634,4.661598 -1.951886,2.161745 -3.808559,4.661598 -5.168758,7.238203 -0.379885,0.719935 -0.758797,1.458327 -1.056098,2.221983 -0.112703,0.288556 -0.215689,1.004605 -0.466354,1.193089 -0.176826,0.133105 -0.663583,0.04081 -0.877329,0.04081 H 25.743982 c 0.14088,-0.670383 0.603346,-1.309677 0.958941,-1.891648 a 29.147131,29.147131 0 0 1 1.56423,-2.303595 c 2.228783,-2.973008 4.697546,-5.719639 7.182824,-8.472099 a 86.469816,86.469816 0 0 1 3.043932,-3.209101 c 0.3828,-0.382797 0.82972,-1.031806 1.316479,-1.274699 0.1914,-0.09618 0.450808,-0.02332 0.657753,-0.05538 0.911334,-0.138935 1.871246,-0.068 2.797153,-0.068 z m 96.161237,17.27454 h -11.68023 c -0.21374,0 -0.69953,0.09132 -0.87733,-0.04081 -0.13796,-0.102987 -0.16127,-0.384742 -0.21957,-0.534364 -0.18071,-0.466354 -0.34004,-0.954081 -0.56254,-1.399062 -0.77532,-1.55257 -1.61572,-3.097368 -2.64557,-4.524606 a 59.751616,59.751616 0 0 0 -6.22487,-7.320788 c -0.72869,-0.728677 -1.45737,-1.449583 -2.22101,-2.138427 -0.43916,-0.397372 -1.08815,-0.740337 -1.39809,-1.233895 0.42263,-0.177798 1.01625,-0.08259 1.48066,-0.08259 h 8.14372 c 0.53437,0 1.03764,0.03108 1.56326,0.08259 0.1846,0.01749 0.40125,-0.04664 0.57516,0.04081 0.36922,0.184598 0.6976,0.65581 0.98712,0.946309 0.72868,0.728679 1.45055,1.457358 2.1394,2.221012 1.87805,2.079162 3.76484,4.128206 5.59333,6.251087 1.39518,1.620581 2.73401,3.319858 3.92127,5.100748 0.52076,0.781142 1.23195,1.709964 1.42529,2.631986 m -20.23588,0 h -16.78098 l -9.13082,-0.08259 h -9.212433 l -4.11363,-0.08161 -3.371352,0.08161 h -9.460187 l -4.032019,0.08259 H 45.980836 c 0.06801,-0.863727 0.756853,-1.787691 1.136737,-2.550375 1.243611,-2.48722 3.005068,-4.764583 4.867571,-6.827227 a 70.924682,70.924682 0 0 1 5.100747,-5.100747 l 1.727454,-1.562287 c 0.307987,-0.278841 0.605288,-0.678157 0.987116,-0.864698 0.239976,-0.116588 0.642208,-0.03984 0.903561,-0.03984 h 51.412628 c 0.40126,0 1.1202,-0.139907 1.48067,0.0408 0.36822,0.183627 0.67622,0.586829 0.98711,0.850124 1.02599,0.868585 1.96451,1.827524 2.96136,2.728171 2.98757,2.697081 5.74197,5.774047 7.84251,9.213408 a 28.175558,28.175558 0 0 1 1.46707,2.714569 c 0.20597,0.435265 0.52368,0.909391 0.56157,1.398091 m -91.14307,7.238204 -0.493559,3.784268 -0.246779,6.087864 v 2.302623 l 0.493559,6.663035 0.904531,6.498838 0.795717,4.852999 1.288304,7.23819 2.714569,14.149 0.740337,3.86685 0.38377,2.30263 c -1.933426,0 -3.900858,0.0825 -5.840113,0.0825 -1.914967,0 -3.849364,-0.12824 -5.346555,-1.48065 -1.58949,-1.43404 -1.785747,-3.46852 -2.166603,-5.42915 -0.584887,-3.00895 -1.115365,-6.08786 -1.453471,-9.13081 -0.384741,-3.46561 -1.142566,-6.89331 -1.480673,-10.36472 -0.346852,-3.57344 -0.968657,-7.120649 -1.315507,-10.693117 -0.346852,-3.565665 -0.72285,-7.128417 -1.069701,-10.694081 -0.233177,-2.403667 -0.177797,-4.835509 -0.410974,-7.238204 -0.0311,-0.317705 0.05246,-0.598488 0.08161,-0.905504 0.06024,-0.61792 0,-1.271787 0,-1.89165 l 5.347525,-0.08259 z m 87.85431,57.745317 h -6.49885 l -1.56325,0.0826 -14.06641,-0.0826 H 69.011925 l -6.827229,0.0418 -4.770414,0.0408 -1.728424,-0.0826 h -6.416254 c -1.006548,-5.46412 -1.761458,-10.98652 -2.824358,-16.45161 -0.712163,-3.66575 -1.452498,-7.39851 -1.864444,-11.10506 -0.262325,-2.36578 -0.756854,-4.705312 -0.987117,-7.074002 l -0.493557,-5.018161 c -0.07675,-0.790858 -0.0049,-1.593375 -0.08161,-2.385207 -0.375998,-3.859079 -0.262322,-7.924133 0.164197,-11.763781 0.103957,-0.93465 0.255522,-1.865417 0.398344,-2.796181 0.04275,-0.28467 -0.0049,-0.821948 0.163224,-1.056098 0.160309,-0.221519 0.90939,-0.09618 1.165885,-0.09618 1.183373,0 2.364803,-0.08161 3.536518,-0.08161 h 76.584074 c 1.12022,0 2.24434,0.08161 3.37233,0.08161 0.27495,0 0.98517,-0.128248 1.20668,0.04178 0.19821,0.151565 0.16614,0.796688 0.19238,1.027922 0.0854,0.770455 0.24289,1.533139 0.3284,2.302623 0.3964,3.565667 0.68009,7.340219 0.33033,10.940861 -0.12339,1.256241 -0.0437,2.529 -0.16518,3.784269 l -0.49355,5.100748 c -0.22831,2.341486 -0.72771,4.653827 -0.98712,6.991417 -0.35948,3.24019 -0.99489,6.50274 -1.61767,9.70599 -1.15325,5.9295 -1.97909,11.92119 -3.07113,17.85068 m 25.41824,-57.746386 c 0,0.621804 -0.0602,1.2747 0,1.89262 0.0292,0.307016 0.1127,0.587799 0.0815,0.904531 -0.23026,2.376463 -0.17973,4.780128 -0.41096,7.156592 -0.39447,4.061168 -0.83945,8.115533 -1.2339,12.173784 -0.30119,3.107084 -0.84917,6.188899 -1.15131,9.295999 -0.31869,3.27807 -1.03473,6.51533 -1.39907,9.78858 -0.35948,3.23532 -0.91328,6.50854 -1.53509,9.70696 -0.38084,1.95965 -0.5771,3.99412 -2.1666,5.42913 -1.49622,1.35146 -3.43158,1.48067 -5.34655,1.48067 -1.92954,0 -3.89989,-0.0826 -5.84012,-0.0826 l 0.46636,-2.71458 0.74033,-3.86587 2.63199,-13.73802 1.28831,-7.2382 0.71313,-4.35943 0.98711,-6.992397 0.49356,-6.745618 v -2.467671 l -0.24678,-5.922697 -0.49355,-3.701685 7.07401,-0.08161 z m -39.814,2.989514 c -0.49065,0.09522 -0.9842,0.0058 -1.48068,0.05441 -0.65192,0.06314 -1.33105,0.213746 -1.97424,0.356567 a 25.260846,25.260846 0 0 0 -7.403362,2.961349 c -1.253325,0.748109 -2.532885,1.624467 -3.619101,2.604781 -0.524648,0.473156 -1.03278,0.961855 -1.563257,1.426267 -0.248724,0.217631 -0.42652,0.527562 -0.740338,0.671356 -0.362396,0.166138 -0.864699,-0.0049 -1.233896,-0.04081 l -2.46779,-0.246783 c -1.142567,-0.111731 -2.30068,-0.08259 -3.454906,-0.08259 -1.378659,0 -2.764119,-0.0068 -4.11266,0.273982 -0.887044,0.184599 -1.779919,0.312847 -2.632958,0.645124 -0.349764,0.136018 -0.932707,0.57614 -1.315506,0.438178 -0.256496,-0.09231 -0.45178,-0.34005 -0.657754,-0.50716 -0.494529,-0.398344 -0.973514,-0.812233 -1.480674,-1.193088 -1.551599,-1.162969 -3.138175,-2.274445 -4.853969,-3.179949 -2.050015,-1.08233 -4.247708,-1.912052 -6.497866,-2.536772 -1.139654,-0.316731 -2.310397,-0.468296 -3.454906,-0.753938 -0.825835,-0.205973 -1.708023,-0.298274 -2.550374,-0.43915 -0.211804,-0.03496 -0.699532,-0.250666 -0.864699,-0.04081 -0.08452,0.108816 -0.03984,0.338107 -0.03984,0.466354 v 1.151313 c 0,1.517593 -0.06607,3.005068 0.08161,4.524604 0.09132,0.932709 0.156424,1.865417 0.246779,2.796182 0.103958,1.071642 0.397374,2.156888 0.631522,3.208126 0.406117,1.830442 0.868584,3.623962 1.369915,5.42914 0.362396,1.304821 0.874413,2.594094 1.316479,3.866854 0.343936,0.989058 0.92785,1.955775 1.206691,2.961355 0.102986,0.37211 -0.302158,0.77239 -0.479955,1.06873 -0.494531,0.82778 -0.98906,1.68275 -1.399063,2.55038 -1.39129,2.9487 -2.529971,6.11796 -2.892368,9.37759 -0.0855,0.76851 -0.171968,1.53314 -0.246779,2.30262 -0.02526,0.25844 -0.162251,0.56158 -0.06802,0.82293 0.06509,0.1807 0.310902,0.20791 0.479956,0.23317 0.453723,0.0699 0.94048,0.15933 1.39809,0.17879 1.88582,0.0776 3.712373,0.84331 5.511723,1.34367 1.663329,0.4615 3.268364,1.12701 4.935579,1.58948 2.04613,0.56838 4.096145,1.06193 6.00431,2.01602 2.743718,1.37186 5.537954,2.79618 8.555654,3.55109 1.201834,0.30022 2.698054,0.68107 3.948464,0.43818 1.078445,-0.20986 1.889706,-0.68497 2.878766,-1.12411 1.551598,-0.68982 2.988552,-1.64682 4.524606,-2.37161 2.227812,-1.0522 4.459509,-2.19185 6.744637,-3.11194 0.90065,-0.36335 1.86251,-0.6179 2.79716,-0.87831 1.31842,-0.3653 2.60867,-0.81707 3.94846,-1.09593 1.29801,-0.27107 2.63004,-0.64026 3.94847,-0.76754 0.48481,-0.0486 0.99975,-0.0233 1.48066,-0.0971 0.44207,-0.067 0.86666,-0.0622 1.31552,-0.068 0.16323,-0.002 0.33518,0.0195 0.39834,-0.16518 0.0641,-0.18558 -0.0506,-0.39057 -0.068,-0.57517 l -0.0835,-0.90454 c -0.10397,-1.07844 -0.31284,-2.1491 -0.54797,-3.20812 -0.78503,-3.5336 -1.89164,-7.00502 -3.5783,-10.20053 -0.47898,-0.90743 -1.07455,-1.79158 -1.65847,-2.632953 -0.31867,-0.456638 -1.0046,-0.874414 -1.17948,-1.398091 -0.12631,-0.37794 0.29341,-0.833607 0.45275,-1.151311 0.53728,-1.075529 1.10954,-2.159802 1.54869,-3.290711 1.58269,-4.067968 2.82434,-8.193259 2.82434,-12.585731 0,-1.260127 -0.12436,-2.411439 -0.49354,-3.619101 -0.0874,-0.283699 -0.0932,-0.838466 -0.35657,-1.027923 -0.17003,-0.122416 -0.59266,-0.04178 -0.79476,-0.04178 -0.73741,0 -1.58073,-0.112702 -2.30262,0.02818 m -0.33033,3.688084 c 0.13894,-0.02137 0.4275,-0.06607 0.54894,0.02719 0.12922,0.09814 0.10687,0.310903 0.10977,0.451779 0.005,0.383772 0,0.767543 0,1.152284 0,1.722596 -0.34975,3.511258 -0.76754,5.182361 -0.72867,2.912769 -1.88483,5.835255 -3.27709,8.472099 -0.43527,0.824862 -0.96574,1.60212 -1.46708,2.386177 -0.13407,0.209859 -0.54407,0.649009 -0.47995,0.904532 0.11271,0.450809 0.95893,0.901619 1.3019,1.179488 0.73159,0.588787 1.28831,1.390317 1.87902,2.111237 0.61987,0.75588 1.07845,1.69053 1.50788,2.5494 0.89774,1.79644 1.54481,3.60549 2.18021,5.51171 0.23415,0.70342 0.35073,1.42822 0.54797,2.13845 0.0748,0.27008 0.34975,0.70729 0.28854,0.98709 -0.0981,0.45081 -1.10564,0.4926 -1.46707,0.56255 -1.49038,0.28954 -2.98466,0.61015 -4.44201,1.05611 -3.95236,1.20669 -7.738565,2.90498 -11.351838,4.81217 -1.507878,0.79475 -3.001183,1.62254 -4.524605,2.38521 -0.742282,0.37116 -1.53314,0.87831 -2.385209,0.97352 -1.742025,0.19335 -3.308199,-0.49939 -4.93558,-1.04249 -2.249187,-0.74909 -4.274912,-1.92469 -6.416254,-2.90597 -2.747603,-1.25916 -5.804166,-1.95966 -8.71985,-2.76897 -1.674989,-0.46637 -3.281967,-1.14063 -4.93558,-1.64584 -0.343935,-0.10495 -1.314537,0.0738 -1.467073,-0.35658 -0.07967,-0.2254 0.02623,-0.51882 0.06801,-0.74034 0.124361,-0.63735 0.308959,-1.26108 0.466354,-1.89164 0.664555,-2.65532 1.875132,-5.01817 3.167321,-7.40337 0.338106,-0.62375 0.783086,-1.23099 1.193091,-1.81005 0.133104,-0.1875 0.42166,-0.40513 0.398343,-0.65774 -0.04275,-0.43042 -0.423604,-0.93369 -0.604317,-1.3165 -0.572256,-1.212511 -1.123136,-2.506643 -1.548685,-3.784259 -1.136737,-3.408272 -2.211295,-6.800997 -2.756346,-10.36472 -0.07578,-0.497445 -0.26621,-0.975458 -0.31479,-1.480674 -0.06898,-0.708274 -0.07093,-1.434039 -0.178768,-2.137457 -0.04664,-0.307988 -0.04275,-0.596543 -0.06802,-0.905504 -0.01166,-0.138934 -0.107844,-0.341993 0.02721,-0.452752 0.225404,-0.184598 0.80446,0.07773 1.042496,0.136992 1.024036,0.256495 2.036412,0.474126 3.04296,0.80932 1.134794,0.378911 2.301651,0.793773 3.373294,1.33008 2.160774,1.080386 4.08837,2.580492 6.004308,4.043678 0.831665,0.635408 1.57006,1.399063 2.385208,2.056814 0.179741,0.143794 0.465383,0.571285 0.713132,0.576144 0.131163,0.0019 0.343937,-0.212775 0.43915,-0.288558 0.32645,-0.258436 0.638324,-0.553795 0.987117,-0.781142 0.92785,-0.606261 2.26959,-0.990031 3.372323,-1.096904 0.934651,-0.09035 1.862501,-0.238034 2.797153,-0.329363 0.682043,-0.06607 1.38546,0.01749 2.055844,0.08259 1.041524,0.101043 2.084991,0.145736 3.126515,0.246779 0.991002,0.09716 1.971318,0.301188 2.961349,0.410975 0.312845,0.03496 0.670384,0.252608 0.987115,0.137963 0.45664,-0.165167 0.813207,-0.94631 1.151312,-1.289276 a 32.061842,32.061842 0 0 1 3.208128,-2.851559 c 2.116092,-1.645842 4.648972,-2.982724 7.238212,-3.701686 1.16879,-0.324506 2.34924,-0.489672 3.53748,-0.671355 M 90.152428,109.55569 c 0.356565,0.14086 0.521734,-0.13019 0.82292,-0.3148 0.652896,-0.39834 1.314536,-0.7753 1.974233,-1.1513 2.040299,-1.162 4.482828,-1.92372 6.827228,-2.15301 0.790871,-0.0767 1.589491,-0.24678 2.386171,-0.24678 0.34977,0 0.82487,0.0922 1.06873,-0.16419 -0.90064,-0.45082 -1.90525,-0.71605 -2.87875,-0.97352 -2.818535,-0.74324 -6.438609,-1.09884 -8.637275,1.30191 -0.916191,1.00071 -1.323279,2.40268 -1.563257,3.70169 m -21.962451,-3.53661 c 1.297046,0 2.528998,0.15255 3.783297,0.46636 1.705106,0.42652 3.410213,0.76269 5.018163,1.52147 0.595575,0.28177 1.232924,0.51592 1.810038,0.83654 0.582942,0.32353 1.186288,0.73061 1.809065,0.95992 0,-0.54798 -0.145736,-0.97256 -0.328391,-1.4807 -1.250412,-3.46171 -5.032738,-4.41092 -8.308875,-3.72888 -0.963799,0.20013 -1.86736,0.47217 -2.796182,0.79474 -0.354622,0.12339 -0.869556,0.25455 -0.987115,0.63152 m 17.932286,8.6635 c -0.856928,0.16711 -1.748829,0.14575 -2.550375,0.53437 -0.229291,0.11173 -0.478013,0.20208 -0.630551,0.42554 -0.289527,0.42556 0.22832,1.29027 0.479957,1.64488 0.755883,1.06678 2.261818,2.24433 3.688084,1.94702 1.088159,-0.22637 2.10248,-1.49232 2.563975,-2.44059 0.182657,-0.37696 0.477041,-0.99876 0.205002,-1.39808 -0.194314,-0.28662 -0.494529,-0.33811 -0.794745,-0.43818 -0.490643,-0.16421 -0.965742,-0.17003 -1.480675,-0.21958 -0.488699,-0.0486 -0.9842,-0.15156 -1.480672,-0.0554"
       style="fill:#020202;stroke:none;stroke-width:0.971571"
       id="path2" /></g></svg>
