<svg xmlns="http://www.w3.org/2000/svg" xml:space="preserve" width="655.36" height="655.36" viewBox="0 0 173.397 173.397"><g style="display:inline"><path d="M61.213 223.267c-.568-7.591 27.43-10.813 41.761-11.003 17.233-.228 46.104 3.286 46.237 10.552.125 6.831-23.438 10.398-44.257 10.662-16.907.214-43.248-3.616-43.741-10.211" style="display:inline;fill:#000;fill-opacity:.2;stroke-width:.264583" transform="translate(-18.34 -61.733)"/></g><path d="m63.161 29.718-3.725 1.524-.677-.931-1.524-1.609-2.202-2.286-.846-.889-.424.07-1.1.367-4.318 1.412-2.71.903-.973.367.042 1.072.085 3.302.084 6.35.085 1.693-.042.762-1.397 1.609-1.016-1.411-1.948-.734-4.233-1.594-1.863-.692-.677-.183-1.863 1.227-3.386 2.286-1.694 1.101.48.931 1.1 1.694 2.484 3.725 1.948 2.625 2.286 2.286.804.931-.268.677-.55 1.256-1.087.297-2.879.62-1.27.269-.564.268-.395 1.693-1.059 4.403-.352 1.439-.043.564.974.65 2.032 1.298.72.536.042.847-6.943-4.431-2.624-1.58-2.935 3.725-5.306 6.688-2.286 2.879-1.044 1.355.225 1.524.762 4.91H26.84v.085c-.408.129-.788.32-1.185.48-.18.072-.44.118-.55.296-.135.218.017.523.042.748.06.539.194 1.07.254 1.609.246 2.21.71 4.4 1.016 6.604.122.876.264 1.752.41 2.624.035.214.014.754.197.89.294.217.986.17 1.34.24a56 56 0 0 0 2.964.479c.378.053 1.021.024 1.354.212.197.11.257.367.353.55.165.313.345.627.522.931a48 48 0 0 0 2.54 3.895c2.928 4.054 6.431 7.644 9.963 11.176 1.975 1.975 4.109 3.803 6.18 5.673 1.12 1.011 2.15 2.15 3.218 3.217 1.74 1.74 3.506 3.515 5.334 5.165 1.36 1.228 2.533 2.666 3.894 3.894 2.96 2.672 5.591 5.71 8.552 8.382 1.494 1.349 2.823 2.884 4.318 4.234 1.641 1.482 3.098 3.173 4.741 4.656 1.738 1.57 3.425 3.256 5.08 4.911h.085c9.607-9.607 18.924-19.517 28.532-29.125.918-.918 2.109-1.602 3.133-2.4 1.53-1.19 2.966-2.484 4.403-3.781 1.096-.99 2.063-2.126 3.048-3.217 3.429-3.799 6.286-8.197 8.452-12.785a51.7 51.7 0 0 0 3.683-10.753c.335-1.506.733-3.038.903-4.572.217-1.947.403-3.891.593-5.842.235-2.418-.17-4.883-.17-7.281l6.943 1.806 1.609.424.734.098.536-.635 1.298-1.608 4.05-4.996 1.369-1.693.635-.847-.296-1.439-.678-3.302-1.1-5.419-.48-2.37-1.073-.692-2.116-1.115-1.355-.72-.931.396-2.456 1.171-8.551 4.022-2.117 1.002c-.21-1.147.48-2.438.79-3.556.079-.281.356-.723.283-1.016-.096-.383-.598-.788-.833-1.101-.669-.892-1.39-1.744-2.074-2.625-2.18-2.802-4.396-5.579-6.576-8.382-.53-.682-1.073-1.355-1.609-2.032-.332-.42-.792-.86-.987-1.354l.762-.565 1.608-1.354 4.572-3.839 2.032-1.693-.663-1.44-1.27-2.37-4.149-7.79-1.51-2.793-.564-1.059-.734.1-1.693.422-5.419 1.397-1.524.381-.748.226-.38.819-.833 1.947-1.947 4.572-1.172 2.794c-1.653-1.131-3.457-1.962-5.249-2.808-3.448-1.628-7.367-2.918-11.176-3.288-1.772-.172-3.616-.43-5.419-.254-1.807.176-3.79.378-5.503 1.044-.265.103-.41.38-.677.466-.578.184-1.263.09-1.863.099-.424.006-.838.084-1.27.084l-.254-6.265v-1.693l-.339-6.774-1.693.17-3.133.254-8.466.677-3.048.24-.974.127-.042.48-.085.846-.339 3.472-.423 5.334-.056 3.217 1.75 3.81m22.182 29.817c.542-.083 1.144-.014 1.693-.014 1.527 0 2.983.107 4.488.254 2.834.275 5.663 1.53 7.958 3.189 4.351 3.142 7.567 7.644 9.003 12.813.322 1.158.702 2.354.819 3.556.152 1.562-.018 3.18-.17 4.741-.293 3.016-.81 6.038-1.919 8.89-.482 1.24-.963 2.467-1.75 3.556-2.445 3.386-6.224 5.862-10.216 6.97-1.019.284-2.077.617-3.133.735-1.044.116-2.087.237-3.132.338-1.18.115-2.474.03-3.641-.084-.906-.088-1.805-.154-2.71-.254-3.377-.376-6.836-1.867-9.567-3.839-9.06-6.544-10.43-19.693-5.686-29.181 1.109-2.218 2.547-4.493 4.416-6.181 1.564-1.412 3.26-2.727 5.165-3.627 2.637-1.245 5.572-1.433 8.382-1.862z" id="portal_svg" display="inline" fill="currentColor" stroke="#000" stroke-width="2"/><path d="m63.161 29.718-2.794 1.115-.931.409-.677-.931-1.524-1.609-2.202-2.286-.846-.889-.424.07-1.1.367-4.234 1.383-2.794.932-.973.352.042 1.426.085 3.302v2.794l.084 3.132.07 2.456-1.34 1.693h-.084l-.96-1.397-1.75-.663-4.656-1.75-1.609-.607-.762-.211-.677.451-1.186.79-2.455 1.637-2.625 1.75c.032.398.291.69.508 1.016l1.073 1.609c1.426 2.14 2.694 4.613 4.515 6.434l2.286 2.286c.193.193.72.552.72.847 0 .24-.26.618-.353.847-.126.314-.209.857-.465 1.086-.265.237-.835.222-1.172.297-.956.212-1.924.395-2.878.62-.393.093-.793.162-1.186.254-.206.05-.465.063-.564.283-.272.602-.32 1.39-.48 2.032-.344 1.375-.731 2.756-1.002 4.148-.083.426-.205.85-.31 1.27-.048.193-.176.472-.057.664.174.28.774.535 1.059.705.656.392 1.307.81 1.947 1.228.216.14.591.305.72.536.118.214.042.608.042.847l-6.265-4.008-1.948-1.242-1.354-.762-2.597 3.302-5.644 7.112-2.37 2.964-.96 1.27.056.508.226 1.439.705 4.572h15.664v.085l-1.694.592c0 1.032.31 2.029.424 3.048.223 2.014.707 3.998.931 6.012a32 32 0 0 0 .395 2.54c.05.258-.005.696.155.917.196.269 1.008.231 1.313.282 1.126.188 2.267.333 3.386.55.341.067.913.018 1.157.297.306.348.504.93.72 1.34.489.926 1.094 1.86 1.708 2.71 1.99 2.755 4.13 5.353 6.406 7.874 3.383 3.747 7.186 7.126 10.922 10.498 2.827 2.552 5.301 5.492 8.128 8.044 1.494 1.348 2.823 2.884 4.318 4.233 1.976 1.784 3.875 3.705 5.757 5.588 2.507 2.506 4.992 5.078 7.62 7.45 1.673 1.51 3.155 3.233 4.826 4.742 1.032.932 1.98 1.98 2.964 2.963.255.255.802 1.043 1.185 1.059.177.007.313-.188.423-.297.277-.272.527-.552.776-.846.943-1.113 2.087-2.101 3.119-3.133 4.387-4.387 8.649-8.903 13.039-13.293 2.962-2.962 5.84-6.01 8.805-8.974.915-.915 1.75-1.929 2.71-2.794.54-.489 1.195-.862 1.777-1.299 1.243-.932 2.488-1.894 3.641-2.935 3.562-3.216 6.787-6.75 9.454-10.752 5.08-7.62 8.034-16.557 8.919-25.654.16-1.656.169-3.322.169-4.996 0-.833.08-1.71 0-2.54-.07-.728-.17-1.466-.17-2.201l2.117.564 4.826 1.242 1.609.424.734.098.536-.635 1.298-1.608 4.064-4.996 1.44-1.778.55-.762-.339-1.693-.72-3.471-1.1-5.419-.296-1.44-.184-.648-.818-.466-1.778-.931-1.27-.678-.593-.31-1.27.564-2.71 1.27-6.18 2.907-3.895 1.849c-.19-1.03.374-2.223.706-3.218.11-.327.45-1.018.367-1.354-.091-.364-.584-.81-.819-1.101-.63-.783-1.273-1.566-1.876-2.37-2.087-2.783-4.314-5.468-6.45-8.213-.684-.88-1.404-1.733-2.074-2.625-.287-.383-.685-.742-.86-1.185l1.1-.847 1.609-1.355 3.64-3.048 2.625-2.201-.409-1.016-1.185-2.201-4.572-8.552-1.51-2.794-.55-.917-1.341.296-3.302.847-3.81.974-1.595.437-.38.819-.833 1.947-1.947 4.572-1.172 2.794c-1.589-1.255-3.614-2.04-5.418-2.893-3.634-1.716-7.69-2.9-11.684-3.288-1.565-.152-3.24-.323-4.826-.169-1.753.17-3.461.486-5.165.96-.377.104-.585.444-.931.55-.62.19-1.387.09-2.032.099-.37.005-.725.084-1.101.084 0-1.47-.028-2.946-.17-4.402-.12-1.234.036-2.492-.084-3.726-.089-.91-.17-1.88-.17-2.794 0-.941-.084-1.855-.084-2.794 0-.237.103-.808-.113-.973-.17-.131-.47 0-.649.028-.396.06-.871.093-1.27.099-2.025.028-4.083.312-6.096.508-2.114.205-4.237.302-6.35.508-.705.068-1.413.1-2.117.169-.205.02-.571-.085-.748.042-.165.12-.174.851-.183 1.059-.039.929-.164 1.867-.254 2.794-.2 2.056-.308 4.122-.508 6.18-.116 1.194-.267 2.63.028 3.81.118.47.413.85.635 1.27.358.679.766 1.4 1.03 2.117m11.684-13.123.424 10.414.084 2.624.043.833-.805.212-2.709.578-1.44.31-.578.085-.451-.748-1.186-2.455-1.185-2.37-.55-1.101.056-2.371.17-2.879.253-2.54zm38.27 22.944.409-1.1 1.016-2.371 3.133-7.366 1.27-2.963.465-1.073.819-.268 2.032-.508 1.002-.141.451.804 1.369 2.54 1.863 3.472.635 1.354-.664.678-2.116 1.778-1.694 1.439-1.016.847-2.624.875-2.625.846-2.37.762zm-39.37 17.696c-.429-.775-1.06-1.48-1.58-2.202-1.197-1.656-2.56-3.264-3.641-4.995-.37-.592-.513-1.454-.734-2.117-.462-1.384-.95-2.762-1.411-4.148a281 281 0 0 0-1.13-3.302c-.09-.261-.432-.9-.267-1.157.174-.275.7-.414.973-.55.923-.462 1.89-.843 2.879-1.172 2.698-.9 5.646-1.504 8.467-1.778.763-.074 1.523-.18 2.286-.254.6-.058 1.374.076 1.947-.099.532-.162.994-1.025 1.355-1.425.884-.98 1.74-1.984 2.624-2.963.374-.415.714-1.019 1.186-1.327.343-.224.876-.23 1.27-.296.99-.165 1.952-.24 2.963-.24 3.945 0 7.763.866 11.43 2.342 1.041.42 2.051.87 3.048 1.37.279.139.873.292 1.058.55.182.251-.112.816-.183 1.072-.258.93-.504 1.863-.762 2.794-.4 1.438-.786 2.88-1.185 4.318l-.424 1.524c-.062.222-.073.485-.211.677-.337.47-.977.853-1.426 1.214-.661.533-1.294 1.107-1.947 1.65-.558.466-1.333.938-1.75 1.539-.176.254-.3.571-.437.847-.769 1.536-1.603 3.036-2.37 4.572-.199.395-.39.793-.594 1.185-.065.126-.106.287-.268.325-.293.068-.805-.155-1.1-.212a20 20 0 0 0-1.863-.282c-2.088-.203-4.318-.46-6.435-.254-2.58.25-5.104.599-7.62 1.298-1.002.278-2 .628-2.963 1.016-.392.158-.771.392-1.185.48M57.658 43.349l-3.217 1.2-1.355.367-2.032-1.496-.974-.776-.042-.565V40.64l-.17-4.91v-2.371l-.042-1.073 1.143-.423 1.186-.395.508-.127.677.663 1.355 1.355.367.931.592 2.032 1.355 4.657zm-16.34 5.588v.085l-1.948 2.625c-.541-.314-.993-.909-1.44-1.355-.63-.63-1.377-1.238-1.918-1.947-.408-.533-.73-1.136-1.101-1.694-.282-.423-.569-.844-.847-1.27-.097-.15-.248-.32-.155-.508.415-.842 1.837.008 2.413.24.727.293 1.471.549 2.201.833.261.101.593.15.819.324.306.237.51.664.734.974.408.566.8 1.152 1.241 1.693m70.189 19.22c-.612-.895-1.477-1.84-1.524-2.964-.022-.529.64-1.251.903-1.693.747-1.25 1.413-2.668 2.314-3.81-1.528.483-3.05.988-4.572 1.496-.71.237-1.518.653-2.286.536-.49-.075-.896-.772-1.27-1.072-.421-.34-.836-.69-1.27-1.016-.156-.118-.47-.265-.55-.452-.117-.272.33-.926.437-1.185.308-.738.614-1.477.946-2.202.187-.407.293-.9.55-1.27.418-.6 1.128-1.039 1.665-1.524.787-.71 1.585-1.407 2.371-2.116 1.291-1.166 2.604-2.307 3.895-3.472.412-.372.804-.853 1.27-1.157.338-.22.88-.255 1.27-.353l2.878-.72 1.863-.465c.268-.067.655-.253.931-.226.34.033.582.564.776.805.632.784 1.266 1.57 1.877 2.37 2.05 2.683 4.216 5.276 6.266 7.959.366.48.936.982 1.199 1.524.196.404-.247 1.292-.381 1.693-.05.15-.084.362-.198.48-.137.143-.39.212-.564.296-.501.244-1.02.44-1.524.678-1.29.609-2.603 1.168-3.895 1.778-2.774 1.31-5.606 2.499-8.382 3.81-1.64.774-3.293 1.645-4.995 2.272M59.69 53.17c.133.63.48 1.277.748 1.862.136.296.2.66.38.932.295.44.784.811 1.158 1.185l2.455 2.455 1.778 1.778c.164.164.554.429.565.678.009.212-.263.454-.395.592-.411.43-.788.889-1.157 1.355-1.31 1.653-2.384 3.47-3.317 5.334a33.3 33.3 0 0 0-2.483 6.773c-.175.7-.319 1.41-.466 2.117-.05.244-.033.724-.211.903-.228.227-.717.323-1.002.466-.54.27-1.113.627-1.694.804-.34.104-.68-.024-1.016-.056-.844-.082-1.696-.088-2.54-.17-1.239-.12-2.487-.133-3.725-.254-.809-.078-1.87.124-2.625-.211-.644-.287-1.253-1.016-1.778-1.482-.747-.664-1.528-1.295-2.286-1.947-.322-.278-.721-.527-1.002-.847-.246-.28-.328-.827-.423-1.185-.173-.655-.397-1.294-.578-1.948-.11-.391-.16-.93-.396-1.27-.192-.276-.534-.38-.818-.522l-1.778-.903c-.198-.099-.586-.195-.72-.38-.096-.135-.042-.41-.042-.565v-1.27c0-.176.046-.433-.042-.593-.129-.232-.5-.391-.72-.522-.546-.326-1.076-.683-1.609-1.03-.204-.134-.687-.303-.748-.565-.073-.317.205-1.045.31-1.354.09-.258.288-.234.523-.283.536-.111 1.074-.22 1.609-.338 1.606-.357 3.22-.688 4.826-1.044.568-.127 1.443-.123 1.947-.41.192-.11.322-.378.452-.55.277-.37.565-.733.846-1.1.994-1.302 1.987-2.603 2.992-3.895.326-.42.654-.844.973-1.27.126-.167.256-.44.438-.55.165-.102.397.014.564.056.392.098.794.156 1.186.254 1.063.266 2.146.453 3.217.691.357.08.79.267 1.157.254.435-.015.98-.351 1.383-.508.955-.371 1.924-.7 2.879-1.072.38-.148.779-.363 1.185-.395m25.739 6.364c.515-.079 1.086-.014 1.608-.014 1.262 0 2.482.048 3.726.169 5.502.535 10.463 3.716 13.772 8.128 1.49 1.987 2.552 4.142 3.443 6.435.628 1.614 1.159 3.44 1.327 5.164.247 2.547-.16 5.281-.579 7.79-.5 3.005-1.323 6.19-2.92 8.805-1.66 2.716-4.461 4.798-7.254 6.195-2.13 1.065-4.641 1.87-7.027 2.102-1.818.177-3.743.434-5.588.254-1.59-.154-3.172-.272-4.742-.62-3.06-.68-5.952-1.925-8.466-3.81-8.787-6.59-10.01-19.607-5.348-28.928 1.083-2.167 2.508-4.45 4.332-6.096 1.534-1.386 3.202-2.74 5.08-3.627 2.09-.987 4.651-1.57 6.942-1.792.565-.055 1.133-.07 1.694-.155m64.6.324.325 1.186.677 3.302.536 2.624.142 1.016-.833 1.101-1.778 2.201-1.171 1.44-.536.578-.918-.17-2.116-.55-5.419-1.439-3.217-.818-.367-.734-.48-1.693-.127-.819.974-.48 1.778-.832 6.011-2.879 4.149-1.947zM15.494 80.433l1.665-2.116 3.951-4.996 1.665-2.116 1.016.508 1.524.96 5.165 3.33 1.355.86.663.452-.085.748-.494 1.778-.197.55-1.157.042H15.494m71.882 68.834h-.085c-1.655-1.655-3.342-3.341-5.08-4.91-1.494-1.35-2.824-2.885-4.318-4.234-2.96-2.672-5.591-5.71-8.551-8.382-1.361-1.228-2.534-2.666-3.895-3.894-1.857-1.677-3.65-3.48-5.418-5.25-1.068-1.067-2.097-2.205-3.218-3.217-.754-.681-1.446-1.435-2.201-2.117-4.36-3.935-8.695-7.944-12.39-12.53-1.492-1.853-3.052-3.74-4.19-5.842a51 51 0 0 1-1.27-2.54c-.148-.312-.226-.837-.466-1.087-.194-.202-.726-.157-.988-.197a70 70 0 0 1-2.794-.466c-.272-.053-.87.008-1.058-.212-.204-.237-.18-.792-.212-1.086-.1-.908-.322-1.802-.423-2.71-.029-.253-.282-.85-.127-1.072.102-.147.39-.22.55-.282.371-.145.732-.303 1.1-.452 1.553-.625 3.136-1.236 4.657-1.933.472-.216.958-.413 1.44-.607.195-.079.374-.185.592-.113.242.08.406.307.593.466.48.407.95.833 1.44 1.228.167.135.313.34.507.437.221.11.525.02.762.042.29.029.55.085.847.085 3.51 0 6.993.085 10.499.085.585 0 1.387-.143 1.947.028.767.234 1.557.64 2.286.974.407.186 1.107.302 1.425.62.128.128.149.332.212.494.207.532.385 1.076.593 1.609.3.772.822 1.713.903 2.54.068.706-.31 1.603-.48 2.286-.387 1.546-.929 3.009-1.524 4.487-.238.59-.422 1.21-.706 1.778 1.466-.115 2.966-.753 4.403-1.072.656-.146 1.287-.049 1.947-.113.547-.053 1.321-.244 1.863-.056.44.152.765.684 1.1.987.612.553 1.29 1.044 1.948 1.538 1.906 1.43 4.064 2.573 6.265 3.43 2.592 1.007 5.371 1.707 8.128 1.975.619.06 1.244.025 1.863.085.876.085 1.822.17 2.71.084l3.47-.338c3.293-.32 6.724-1.178 9.653-2.724 3.395-1.792 6.197-4.665 8.156-7.944 1.796-3.008 2.925-6.385 3.64-9.822.481-2.305.677-4.61.904-6.942.065-.671-.066-1.361 0-2.032.06-.617 0-1.16 0-1.778 0-.709.043-1.422-.085-2.117.865-.523 1.877-.851 2.794-1.284 1.517-.716 3.052-1.4 4.572-2.117.787-.371 1.581-.728 2.37-1.1.278-.131.611-.41.932-.41.198 0 .348.13.508.226.428.256.85.522 1.27.79 1.373.878 2.758 1.747 4.149 2.597.908.555 1.8 1.138 2.709 1.693.384.235 1.147.522 1.397.903.154.235.017.713.07.988.259 1.328.057 2.876.057 4.233 0 1.712-.259 3.388-.423 5.08-.393 4.044-1.517 8.146-2.992 11.938-2.195 5.646-5.46 10.723-9.539 15.24-.783.868-1.584 1.754-2.455 2.54-1.318 1.19-2.66 2.352-4.064 3.444-.872.677-1.891 1.236-2.71 1.975-.576.52-1.058 1.144-1.608 1.693-1.257 1.257-2.538 2.494-3.726 3.81-1.456 1.614-3.116 3.045-4.572 4.657-1.309 1.45-2.84 2.699-4.148 4.149-1.456 1.612-3.116 3.043-4.572 4.656-2.212 2.45-4.608 4.777-6.943 7.112z" style="fill:#020202;stroke:none"/></svg>