<svg xmlns="http://www.w3.org/2000/svg" xml:space="preserve" width="655.36" height="655.36" viewBox="0 0 173.397 173.397"><g style="display:inline"><path d="M61.213 223.267c-.568-7.591 27.43-10.813 41.761-11.003 17.233-.228 46.104 3.286 46.237 10.552.125 6.831-23.438 10.398-44.257 10.662-16.907.214-43.248-3.616-43.741-10.211" style="display:inline;fill:#000;fill-opacity:.2;stroke-width:.264583" transform="translate(-18.34 -61.733)"/></g><g style="display:inline"><path d="m33.359 135.975 3.217 1.213 8.213 3.048 26.246 9.737 10.922 4.064 2.964 1.1 1.608.55 1.101-.394 1.947-.748 6.012-2.286 20.489-7.79 17.61-6.688 4.319-1.637 1.1-.41.41-.267-.071-.508-.17-1.186-.677-4.826-2.201-15.663-.677-4.826-.226-1.693-.127-.508-.663-.438-1.61-.945-5.672-3.415-1.693-1.016-.55-.381-.127-1.087-.085-2.116-.17-3.472-.084-3.725-.17-4.149-.592-12.869v-1.693l-.254-4.572-.24-6.096-.056-1.595-.55-.38-1.355-.848-3.641-2.286-2.032-1.241 2.879-1.37 5.926-2.85 2.71-1.284-2.54-7.027-.65-1.778-.211-.65.607-.38 1.778-.946 5.418-2.92 1.27-.678.579-.296-.127-.988-.762-2.879-2.413-9.059-.678-2.54-.352-1.157-.734-.31-2.201-.847-6.943-2.71-9.144-3.556-3.048-1.185-1.016-.38-1.1.295-2.033.593-7.874 2.286-24.553 7.112-13.462 3.895-3.387.973-1.312.438-.325 1.58-.846 4.403-3.133 16.087-.931 4.826-.31 1.524-.071.592.38.508 1.468 1.609 4.318 4.826 1.538 1.693.537.593.042 1.609v18.711l-.677.452-1.948.677-6.52 2.314-1.608.565-.578.31-.381 1.863-.762 3.64-2.456 11.6-4.064 19.219z" id="naturalRockTower_svg" display="inline" fill="currentColor" stroke="#000" stroke-width="2"/><path d="m33.359 135.975 3.217 1.213 8.213 3.048 26.246 9.737 10.922 4.064 2.964 1.1 1.608.55 1.101-.394 1.947-.748 6.012-2.286 20.489-7.79 17.61-6.688 4.319-1.637 1.1-.41.41-.267-.071-.508-.17-1.186-.677-4.826-2.201-15.663-.677-4.826-.226-1.693-.127-.508-.663-.438-1.61-.945-5.672-3.415-1.693-1.016-.55-.381-.127-1.087-.085-2.116-.17-3.472-.084-3.725-.17-4.149-.592-12.869v-1.693l-.254-4.572-.24-6.096-.056-1.595-.55-.38-1.355-.848-3.641-2.286-2.032-1.241 2.879-1.37 5.926-2.85 2.71-1.284-2.54-7.027-.65-1.778-.211-.65.607-.38 1.778-.946 5.418-2.92 1.27-.678.579-.296-.127-.988-.762-2.879-2.413-9.059-.678-2.54-.352-1.157-.734-.31-2.201-.847-6.943-2.71-9.144-3.556-3.048-1.185-1.016-.38-1.1.295-2.033.593-7.874 2.286-24.553 7.112-13.462 3.895-3.387.973-1.312.438-.325 1.58-.846 4.403-3.133 16.087-.931 4.826-.31 1.524-.071.592.38.508 1.468 1.609 4.318 4.826 1.538 1.693.537.593.042 1.609v18.711l-.677.452-1.948.677-6.52 2.314-1.608.565-.578.31-.381 1.863-.762 3.64-2.456 11.6-4.064 19.219zm84.243-99.484 1.298 3.556 2.089 5.758-3.218 1.538-4.656 2.201-4.826 2.286-2.964 1.425v.085l2.71 1.665 6.604 4.149 2.794 1.75.973.663.043.748.084 1.439.17 3.133v1.608l.592 12.87.085 3.725.17 4.149.253 6.011.085 2.286.042 1.087-.635.254-1.608.493-4.572 1.412-1.778.832-15.24 7.366-5.25 2.54-2.794 1.34.17.678 2.54-.734 4.741-1.44 16.425-4.966 6.689-2.032 1.778-.55.762-.156.931.536 1.44.847 4.656 2.794 1.694 1.016.804.536.212 1.186.423 3.048 1.44 10.244.86 6.096.24 1.778.042.494-.804.353-2.117.79-9.144 3.472-23.198 8.805-8.467 3.217-2.455.932-1.186.451-1.185-.38-2.455-.918-9.822-3.64-20.743-7.677-7.535-2.794-5.588-2.089.62-2.878 1.61-7.62 4.43-20.828 1.693-8.044.466-2.201.198-.818.55-.226 1.44-.508 6.01-2.117 3.218-1.016 4.403-1.355 5.249-1.636 10.837-3.33v-.085l-1.947-.085H63.416l-3.218.931V64.008l.042-1.34.55-.283 1.44-.522 3.302-1.256 1.609-.945 14.054-8.467 4.064-2.455 2.202-1.327v-.084l-2.371.818-5.334 1.947-14.14 5.137-5.333 1.947-1.44.536-.592.156-.438-.466-.832-.931-3.302-3.641-.932-1.016-.465-.677.352-1.778.932-4.826L55.57 34.12l.762-3.895.48-2.54 3.725-1.072 7.874-2.286 23.368-6.746 10.498-3.048 2.625-.762 1.1-.282 1.355.536 2.794 1.101 9.568 3.725 3.725 1.44 1.58.649.396 1.326.846 3.218 1.073 3.979.282 1.1.099.509-.72.437-1.778.946-4.741 2.525zM87.461 47.244l.084.085z" style="fill:#020202;stroke:none"/></g></svg>