<svg xmlns="http://www.w3.org/2000/svg" width="655.36" height="655.36" viewBox="0 0 173.397 173.397"><g style="display:inline"><path d="M61.213 223.267c-.568-7.591 27.43-10.813 41.761-11.003 17.233-.228 46.104 3.286 46.237 10.552.125 6.831-23.438 10.398-44.257 10.662-16.907.214-43.248-3.616-43.741-10.211" style="display:inline;fill:#000;fill-opacity:.2;stroke-width:.264583" transform="translate(-18.34 -61.733)"/></g><g style="display:inline"><path d="M149.828 108.384c.81-.298 1.285-1.59 1.75-2.286.46-.691.893-1.408 1.326-2.117.167-.273.435-.54.537-.846.087-.263-.032-.505-.057-.762-.035-.367-.049-.736-.084-1.101-.1-1.015-.156-2.034-.254-3.048-.04-.409.034-.876-.1-1.27-.061-.184-.254-.26-.408-.353-.426-.254-.847-.517-1.27-.776-1.108-.677-2.195-1.384-3.302-2.06-.604-.369-1.325-.695-1.863-1.157-.34-.292-.496-.852-.692-1.242a39 39 0 0 0-1.199-2.201 57.6 57.6 0 0 0-4.91-7.112c-7.31-9.074-17.939-14.63-29.436-15.748-2.165-.21-4.496-.468-6.69-.254-1.779.173-3.556.31-5.333.508-2.175.241-4.332.883-6.435 1.467-1.62.45-3.234 1.109-4.741 1.82-6.658 3.144-12.47 7.79-16.82 13.815-1.25 1.731-2.49 3.533-3.486 5.419-.342.648-.69 1.293-1.016 1.947-.174.349-.309.792-.55 1.1-.326.417-1.119.63-1.58.862l-3.472 1.75c-.447.223-1.522.51-1.665 1.03-.379 1.374-.527 2.835-.819 4.233l-.254 1.27c-.047.229-.174.53-.113.762.157.592.605 1.153.89 1.693.636 1.207 1.232 2.443 1.89 3.64.315.573 1.248.401 1.172 1.186l-4.996 51.308-2.794 28.618-.677 7.027-.17 1.693c-.019.198-.17.475-.042.663.094.14.322.156.466.212.394.153.786.313 1.185.452 1.36.472 2.722.974 4.064 1.495 5.442 2.117 10.983 3.98 16.426 6.096 7.098 2.76 14.322 5.199 21.42 7.96 2.213.86 4.446 1.704 6.689 2.483.51.177 1.02.368 1.524.564.277.108.624.318.931.296.351-.024.775-.264 1.1-.395.645-.26 1.3-.496 1.948-.748 2.223-.864 4.467-1.675 6.689-2.54 7.625-2.965 15.32-5.755 22.945-8.72 4.811-1.871 9.666-3.633 14.478-5.504 1.317-.512 2.644-1.032 3.979-1.495.372-.13.729-.294 1.1-.424.164-.057.443-.104.55-.254.113-.156.018-.402-.013-.564-.065-.332-.048-.681-.099-1.016-.195-1.275-.228-2.61-.353-3.895-.529-5.442-.91-10.899-1.44-16.34-.298-3.073-.462-6.156-.761-9.23-1.163-11.956-2.055-23.941-3.217-35.898-.5-5.132-.856-10.278-1.355-15.41-.156-1.607-.267-3.218-.423-4.825-.057-.585-.006-1.213-.17-1.778z" id="anceintTowerV2_svg" display="inline" fill="currentColor" stroke="#000" stroke-width="2" transform="translate(-18.341 -61.732)"/><path d="M149.828 108.384c.81-.298 1.285-1.59 1.75-2.286.46-.691.893-1.408 1.326-2.117.167-.273.435-.54.537-.846.087-.263-.032-.505-.057-.762-.035-.367-.049-.736-.084-1.101-.1-1.015-.156-2.034-.254-3.048-.04-.409.034-.876-.1-1.27-.061-.184-.254-.26-.408-.353-.426-.254-.847-.517-1.27-.776-1.108-.677-2.195-1.384-3.302-2.06-.604-.369-1.325-.695-1.863-1.157-.34-.292-.496-.852-.692-1.242a39 39 0 0 0-1.199-2.201 57.6 57.6 0 0 0-4.91-7.112c-7.31-9.074-17.939-14.63-29.436-15.748-2.165-.21-4.496-.468-6.69-.254-1.779.173-3.556.31-5.333.508-2.175.241-4.332.883-6.435 1.467-1.62.45-3.234 1.109-4.741 1.82-6.658 3.144-12.47 7.79-16.82 13.815-1.25 1.731-2.49 3.533-3.486 5.419-.342.648-.69 1.293-1.016 1.947-.174.349-.309.792-.55 1.1-.326.417-1.119.63-1.58.862l-3.472 1.75c-.447.223-1.522.51-1.665 1.03-.379 1.374-.527 2.835-.819 4.233l-.254 1.27c-.047.229-.174.53-.113.762.157.592.605 1.153.89 1.693.636 1.207 1.232 2.443 1.89 3.64.315.573 1.248.401 1.172 1.186l-4.996 51.308-2.794 28.618-.677 7.027-.17 1.693c-.019.198-.17.475-.042.663.094.14.322.156.466.212.394.153.786.313 1.185.452 1.36.472 2.722.974 4.064 1.495 5.442 2.117 10.983 3.98 16.426 6.096 7.098 2.76 14.322 5.199 21.42 7.96 2.213.86 4.446 1.704 6.689 2.483.51.177 1.02.368 1.524.564.277.108.624.318.931.296.351-.024.775-.264 1.1-.395.645-.26 1.3-.496 1.948-.748 2.223-.864 4.467-1.675 6.689-2.54 7.625-2.965 15.32-5.755 22.945-8.72 4.811-1.871 9.666-3.633 14.478-5.504 1.317-.512 2.644-1.032 3.979-1.495.372-.13.729-.294 1.1-.424.164-.057.443-.104.55-.254.113-.156.018-.402-.013-.564-.065-.332-.048-.681-.099-1.016-.195-1.275-.228-2.61-.353-3.895-.529-5.442-.91-10.899-1.44-16.34-.298-3.073-.462-6.156-.761-9.23-1.163-11.956-2.055-23.941-3.217-35.898-.5-5.132-.856-10.278-1.355-15.41-.156-1.607-.267-3.218-.423-4.825-.057-.585-.006-1.213-.17-1.778m-8.636-14.055c-.781.144-1.52.521-2.286.734-1.954.543-3.889 1.15-5.842 1.693-6.307 1.752-12.891 3.122-19.388 3.754-1.127.11-2.261.144-3.387.254-.615.06-1.248-.06-1.863 0a33.2 33.2 0 0 1-6.265 0c-.56-.054-1.134.054-1.693 0-1.52-.148-3.052-.19-4.572-.339-3.65-.355-7.243-1.007-10.838-1.806-2.431-.54-4.796-1.309-7.196-1.976-1.215-.337-2.463-.698-3.641-1.157-1.5-.583-3.041-1.181-4.572-1.665.457-1.24 1.237-2.414 1.919-3.556 1.34-2.244 2.847-4.408 4.6-6.35 3.532-3.912 7.605-7.137 12.362-9.384 3.319-1.567 7.18-2.706 10.837-3.062 1.154-.112 2.315-.141 3.471-.254 1.958-.19 3.979-.104 5.927.085 2.761.268 5.44.72 8.128 1.467 7.363 2.046 14.02 6.88 18.74 12.842 1.542 1.948 3.034 3.994 4.219 6.18.452.836 1.013 1.652 1.34 2.54m-77.978 2.202c.835.527 1.826.757 2.71 1.199 5.516 2.758 11.505 4.518 17.526 5.856 4.145.921 8.403 1.68 12.615 2.089 1.886.183 3.786.24 5.673.423.939.091 1.934 0 2.878 0 2.698 0 5.374-.164 8.044-.423 1.862-.181 3.726-.327 5.588-.508 2.118-.206 4.257-.581 6.35-.988 3.034-.59 6.077-1.176 9.059-2.004 3.085-.857 6.234-1.714 9.229-2.879 1.679-.653 3.309-1.382 4.995-2.003.067.845.172 1.694.254 2.54.057.586.01 1.195.099 1.778.055.362.029.741.098 1.1.04.2.144.558.015.748-.18.264-.852.369-1.143.466l-3.133 1.044c-4.216 1.405-8.541 2.566-12.87 3.528-5.14 1.142-10.35 2.257-15.578 2.766l-4.318.423c-.73.07-1.47.014-2.201.085-1.683.163-3.38.169-5.08.169-.834 0-1.712.08-2.54 0-2.564-.25-5.143-.344-7.705-.593-4.96-.482-9.972-1.568-14.817-2.78-4.177-1.044-8.42-2.23-12.446-3.795-1.125-.438-2.267-.82-3.386-1.27-.326-.131-.92-.234-1.172-.48-.242-.238.109-1.184.17-1.496.236-1.215.467-2.429.72-3.64.083-.4.08-1.081.366-1.355m82.38 20.828.594 6.858 1.185 13.462 3.133 36.068 1.354 15.409.339 3.64.042 1.172-1.481.607-3.641 1.383-14.732 5.588-18.965 7.196-6.012 2.286-2.54.96-1.185-.381-2.455-.917-9.822-3.641-12.53-4.629-21.336-7.93 1.693-17.018 3.556-37 1.609-16.51.423-4.317.254-2.54c.528.041 1.039.369 1.524.564.888.358 1.8.685 2.71.988 3.153 1.051 6.33 2.018 9.567 2.737 4.9 1.09 9.84 1.916 14.816 2.4 1.97.19 3.956.231 5.927.423.785.076 1.587.008 2.37.084.967.094 1.992 0 2.964 0 1.865 0 3.74.01 5.588-.169.815-.08 1.64-.005 2.455-.085 1.834-.178 3.67-.33 5.504-.508 5.152-.5 10.258-1.612 15.324-2.737 2.861-.636 5.642-1.586 8.467-2.37.77-.215 1.527-.51 2.286-.763.334-.111.668-.283 1.016-.31m-29.38 31.072c3.58-.659 7.19-1.233 10.753-1.975a178 178 0 0 1 7.028-1.313q.975-.163 1.947-.352c.223-.044.652-.032.818-.198.197-.196.169-.728.198-.988.113-1.018.254-2.015.254-3.048 0-3.375-.486-7.408-3.387-9.623-.57-.436-1.2-.759-1.862-1.016-1.477-.575-3.107-.603-4.657-.452-3.589.349-6.91 1.886-8.862 5.08-1.29 2.112-2.074 4.643-2.314 7.112-.05.506-.036 1.017-.085 1.524a18 18 0 0 0 0 3.471c.056.575-.054 1.248.17 1.778m-42.164 48.091 5.334 1.58 10.668 3.19 3.894 1.157c0-8.22.508-16.42.508-24.638 0-.686.085-1.346.085-2.032 0-.806-.078-1.655 0-2.456.222-2.288.05-4.58-.946-6.688-.483-1.024-1.163-1.994-1.876-2.879-3.214-3.99-10.024-6.6-14.111-2.455-.644.652-1.125 1.47-1.51 2.286-1.376 2.912-1.068 6.044-1.37 9.144-.075.782.077 1.587 0 2.37-.196 2.02-.057 4.076-.253 6.096-.076.783.076 1.588 0 2.371a42 42 0 0 0-.17 3.387c-.01.752.073 1.537 0 2.286-.09.923.006 1.869-.084 2.794-.143 1.474-.17 3.002-.17 4.487" style="display:inline;fill:#020202;stroke:none" transform="translate(-18.341 -61.732)"/></g></svg>