<svg xmlns="http://www.w3.org/2000/svg" width="655.36" height="655.36" viewBox="0 0 173.397 173.397"><g style="display:inline"><path d="M61.213 223.267c-.568-7.591 27.43-10.813 41.761-11.003 17.233-.228 46.104 3.286 46.237 10.552.125 6.831-23.438 10.398-44.257 10.662-16.907.214-43.248-3.616-43.741-10.211" style="display:inline;fill:#000;fill-opacity:.2;stroke-width:.264583" transform="translate(-18.34 -61.733)"/></g><g style="display:inline"><path d="m58.304 134.63-3.726-1.015-.592 4.233-1.101 8.128-.508 3.556 3.133 1.129 1.143.494-.1 1.086-.197 1.948-.762 7.789-2.455 25.654-.677 6.943-.254 2.54-.071.677.833.423 2.286.847 9.228 3.415 28.956 10.752 8.213 3.048 2.286.847.931.296 1.27-.465 2.879-1.1 8.89-3.388 27.432-10.414 9.144-3.47 2.455-.932.748-.381-.07-.663-.17-1.863-.677-7.705-2.201-25.484-.678-7.705-.17-1.947-.041-.579.973-.466 2.625-1.072-.423-4.403-.762-7.958-.34-3.387-3.555.762-.17-1.524-.423-4.826-.931-10.583-.593-6.69-.254-2.793c.81-.298 1.285-1.59 1.75-2.286.46-.691.893-1.408 1.326-2.117.167-.273.435-.54.537-.846.1-.302-.053-.627-.057-.932-.014-.991-.158-1.98-.254-2.963-.06-.618-.022-1.253-.14-1.863-.03-.151.01-.36-.071-.494-.11-.183-.375-.276-.55-.38-.37-.221-.734-.454-1.101-.678a230 230 0 0 1-3.895-2.427c-.436-.278-1.09-.514-1.411-.931-.548-.712-.891-1.742-1.313-2.54a35.5 35.5 0 0 0-2.554-4.15c-4.047-5.603-8.928-10.937-15.127-14.209-3.311-1.748-6.688-3.123-10.33-4.135-2.332-.647-4.802-.98-7.196-1.213-.702-.068-1.414-.016-2.116-.085-2.333-.226-4.713-.055-7.028.17-9.013.876-17.529 4.386-24.3 10.498-3.058 2.761-5.86 6.041-8.014 9.568-.7 1.146-1.422 2.288-2.046 3.47-.38.719-.643 1.646-1.143 2.287-.326.416-1.119.63-1.58.86l-3.472 1.75-1.185.593c-.19.095-.369.14-.452.353-.212.543-.228 1.209-.339 1.778-.186.96-.391 1.918-.578 2.879-.09.46-.417 1.237-.297 1.693.157.592.605 1.153.89 1.693.636 1.207 1.232 2.443 1.89 3.64.253.46 1.093.424 1.172.932.036.236-.063.45-.085.678l-.17 1.778-.507 5.164c-.382 3.922-.72 7.847-1.101 11.769l-.508 5.25c-.055.565-.17 1.12-.17 1.693z" id="anceintTowerV1_svg" display="inline" fill="currentColor" fill-opacity="1" stroke="#000" stroke-width="2" transform="translate(-18.34 -61.733)"/><path d="m58.304 134.63-3.726-1.015-.592 4.233-1.101 8.128-.508 3.556 3.133 1.129 1.143.494-.1 1.086-.197 1.948-.762 7.789-2.455 25.654-.677 6.943-.254 2.54-.071.677.833.423 2.286.847 9.228 3.415 28.956 10.752 8.213 3.048 2.286.847.931.296 1.27-.465 2.879-1.1 8.89-3.388 27.432-10.414 9.144-3.47 2.455-.932.748-.381-.07-.663-.17-1.863-.677-7.705-2.201-25.484-.678-7.705-.17-1.947-.041-.579.973-.466 2.625-1.072-.423-4.403-.762-7.958-.34-3.387-3.555.762-.17-1.524-.423-4.826-.931-10.583-.593-6.69-.254-2.793c.81-.298 1.285-1.59 1.75-2.286.46-.691.893-1.408 1.326-2.117.167-.273.435-.54.537-.846.1-.302-.053-.627-.057-.932-.014-.991-.158-1.98-.254-2.963-.06-.618-.022-1.253-.14-1.863-.03-.151.01-.36-.071-.494-.11-.183-.375-.276-.55-.38-.37-.221-.734-.454-1.101-.678a230 230 0 0 1-3.895-2.427c-.436-.278-1.09-.514-1.411-.931-.548-.712-.891-1.742-1.313-2.54a35.5 35.5 0 0 0-2.554-4.15c-4.047-5.603-8.928-10.937-15.127-14.209-3.311-1.748-6.688-3.123-10.33-4.135-2.332-.647-4.802-.98-7.196-1.213-.702-.068-1.414-.016-2.116-.085-2.333-.226-4.713-.055-7.028.17-9.013.876-17.529 4.386-24.3 10.498-3.058 2.761-5.86 6.041-8.014 9.568-.7 1.146-1.422 2.288-2.046 3.47-.38.719-.643 1.646-1.143 2.287-.326.416-1.119.63-1.58.86l-3.472 1.75-1.185.593c-.19.095-.369.14-.452.353-.212.543-.228 1.209-.339 1.778-.186.96-.391 1.918-.578 2.879-.09.46-.417 1.237-.297 1.693.157.592.605 1.153.89 1.693.636 1.207 1.232 2.443 1.89 3.64.253.46 1.093.424 1.172.932.036.236-.063.45-.085.678l-.17 1.778-.507 5.164c-.382 3.922-.72 7.847-1.101 11.769l-.508 5.25c-.055.565-.17 1.12-.17 1.693m82.89-40.302c-.782.144-1.521.521-2.287.734-1.954.543-3.889 1.15-5.842 1.693-6.307 1.752-12.891 3.122-19.388 3.754-1.127.11-2.261.144-3.387.254-.615.06-1.248-.06-1.863 0a33.2 33.2 0 0 1-6.265 0c-.56-.054-1.134.054-1.693 0-1.52-.148-3.052-.19-4.572-.339-3.65-.355-7.243-1.007-10.838-1.806-2.431-.54-4.796-1.309-7.196-1.976-1.215-.337-2.463-.698-3.641-1.157-1.5-.583-3.041-1.181-4.572-1.665.457-1.24 1.237-2.414 1.919-3.556 1.34-2.244 2.847-4.408 4.6-6.35 3.532-3.912 7.605-7.137 12.362-9.384 3.319-1.567 7.18-2.706 10.837-3.062 1.154-.112 2.315-.141 3.471-.254 1.958-.19 3.979-.104 5.927.085 2.761.268 5.44.72 8.128 1.467 7.363 2.046 14.02 6.88 18.74 12.842 1.542 1.948 3.034 3.994 4.219 6.18.452.836 1.013 1.652 1.34 2.54m-77.978 2.202c.835.527 1.826.757 2.71 1.199 5.516 2.758 11.505 4.518 17.526 5.856 4.145.921 8.403 1.68 12.615 2.089 1.886.183 3.786.24 5.673.423.939.091 1.934 0 2.878 0 2.699 0 5.374-.164 8.044-.423 1.862-.181 3.726-.327 5.588-.508 2.118-.206 4.257-.581 6.35-.988 3.034-.59 6.077-1.176 9.059-2.004 3.085-.857 6.234-1.714 9.229-2.879 1.679-.653 3.309-1.382 4.995-2.003.067.845.172 1.694.254 2.54.057.586.01 1.195.099 1.778.055.362.029.741.099 1.1.039.2.143.558.014.748-.18.264-.852.369-1.143.466l-3.133 1.044c-4.216 1.405-8.541 2.566-12.87 3.528-5.14 1.142-10.35 2.257-15.578 2.766l-4.318.423c-.73.07-1.47.014-2.201.085-1.683.163-3.38.169-5.08.169-.834 0-1.712.08-2.54 0-2.564-.25-5.143-.344-7.705-.593-4.96-.482-9.972-1.568-14.817-2.78-4.177-1.044-8.42-2.23-12.446-3.795-1.125-.438-2.267-.82-3.386-1.27-.325-.131-.92-.234-1.172-.48-.242-.238.109-1.184.17-1.496.236-1.215.467-2.429.72-3.64.083-.4.08-1.081.366-1.355m82.38 20.828.594 6.858 1.016 12.107.423 4.741 3.64-.762.17 1.524.254 2.964.127 1.679-.974.451-2.624 1.087.084.762.17 1.947.677 7.705 2.201 24.977.678 7.704.183 1.948.028.917-.804.353-1.863.705-8.043 3.048-26.755 10.16-7.366 2.794-1.778.677-.931.283-1.185-.452-2.964-1.1-10.498-3.895-11.176-4.12-21.336-7.931 1.354-13.547 2.032-21.336.847-8.72.254-2.371.042-.762-1.143-.508-2.963-1.1.508-3.726.339-2.37 3.979 1.015.254-2.71.423-4.317 1.1-11.769.509-5.164c.528.041 1.039.369 1.524.564.888.358 1.8.685 2.71.988 3.153 1.051 6.33 2.018 9.567 2.737 4.9 1.09 9.841 1.916 14.816 2.4 1.97.19 3.957.231 5.927.423.785.076 1.587.008 2.37.084.967.094 1.992 0 2.964 0 1.865 0 3.74.01 5.588-.169.815-.08 1.641-.005 2.455-.085 1.834-.178 3.67-.33 5.504-.508 5.152-.5 10.259-1.612 15.324-2.737 2.861-.636 5.642-1.586 8.467-2.37.77-.215 1.527-.51 2.286-.763.334-.111.668-.283 1.016-.31m-68.58 27.77c0-.808.091-1.651.17-2.455.145-1.497.059-3.172-.085-4.657-.071-.73-.014-1.47-.085-2.201-.205-2.11-.538-4.24-1.214-6.265-.732-2.197-2.372-4.833-5.051-4.572-1.711.166-2.65 1.687-3.232 3.132-1.234 3.064-1.425 6.638-1.425 9.906 0 .995-.01 1.981.085 2.964.028.288-.126.84.042 1.086.119.175.45.184.635.24.673.206 1.355.376 2.032.565l6.096 1.693c.674.187 1.345.438 2.032.564m57.15 0 3.217-.903 4.826-1.326 2.71-.734c0-2.398-.109-4.744-.34-7.112-.212-2.195-.578-4.453-1.41-6.52-.855-2.12-2.552-4.246-5.108-3.358-2.122.737-3.043 3.14-3.542 5.137-1.213 4.85-.74 9.905-.353 14.816m-41.402 4.488c0-1.867.267-3.8.085-5.673-.09-.927-.08-1.866-.17-2.794-.237-2.439-.63-4.854-1.41-7.197-.748-2.243-2.472-4.921-5.194-4.656-1.691.164-2.58 1.726-3.147 3.132-1.245 3.092-1.255 6.705-1.255 9.991 0 .968.084 1.917.084 2.879 0 .313-.057.994.127 1.256.114.16.537.205.72.254q1.018.268 2.032.55l6.096 1.693c.676.188 1.342.438 2.032.565m25.739 0c2.672-.774 5.36-1.513 8.043-2.258.677-.188 1.36-.36 2.032-.565.195-.06.587-.077.72-.254.165-.22.042-.887.042-1.157 0-1.078.019-2.152-.085-3.217-.076-.787-.008-1.584-.084-2.37-.235-2.418-.578-4.919-1.496-7.197-.525-1.303-1.363-2.784-2.822-3.19-2.688-.746-4.642 1.788-5.39 4.036-.597 1.79-.948 3.637-1.13 5.504-.068.702-.016 1.413-.085 2.116a25.4 25.4 0 0 0 0 4.826c.119 1.215-.086 2.548.254 3.726m-19.642 1.1c1.673.309 3.354.927 4.995 1.383.539.15 1.069.323 1.609.466.212.056.455.185.677.17.44-.031.948-.308 1.355-.466.865-.337 1.76-.596 2.624-.932.726-.282 1.48-.485 2.202-.776.174-.07.524-.12.635-.282.182-.269.042-1.02.042-1.34 0-1.267-.132-2.555-.254-3.81-.271-2.79-.552-5.737-1.58-8.383-.448-1.15-.85-2.29-1.58-3.302-.386-.533-.872-1.085-1.412-1.467-.443-.314-.912-.553-1.44-.678-.496-.117-1.008-.19-1.523-.14-2.434.236-3.754 2.624-4.544 4.656-.832 2.139-1.009 4.39-1.44 6.604-.167.86-.112 1.755-.197 2.625-.183 1.88-.17 3.771-.17 5.672m-24.807 45.805 5.334 1.58 10.668 3.19 3.895 1.157c0-8.22.508-16.42.508-24.638 0-.686.085-1.346.085-2.032 0-.806-.078-1.655 0-2.456.222-2.288.05-4.58-.946-6.688-.483-1.024-1.163-1.994-1.876-2.879-3.214-3.99-10.024-6.6-14.112-2.455-.643.652-1.124 1.47-1.51 2.286-1.375 2.912-1.067 6.044-1.368 9.144-.076.782.076 1.587 0 2.37-.197 2.02-.058 4.076-.254 6.096-.076.783.076 1.588 0 2.371a42 42 0 0 0-.17 3.387c-.01.752.073 1.537 0 2.286-.09.923.006 1.869-.084 2.794-.144 1.474-.17 3.002-.17 4.487" style="display:inline;fill:#020202;stroke:none" transform="translate(-18.34 -61.733)"/></g></svg>