<svg xmlns="http://www.w3.org/2000/svg" xml:space="preserve" width="655.36" height="655.36" viewBox="0 0 173.397 173.397"><g style="display:inline"><path d="M61.213 223.267c-.568-7.591 27.43-10.813 41.761-11.003 17.233-.228 46.104 3.286 46.237 10.552.125 6.831-23.438 10.398-44.257 10.662-16.907.214-43.248-3.616-43.741-10.211" style="display:inline;fill:#000;fill-opacity:.2;stroke-width:.264583" transform="translate(-18.34 -61.733)"/></g><g style="display:inline"><path d="M100.16 28.956c-.633-.367-1.2-1.17-2.031-1.1-.933.077-1.484.738-1.665 1.608-.059.28.009.568-.057.847-.298 1.26-.439 2.601-.564 3.894-.036.364.035.738 0 1.101-.102 1.047-.322 2.086-.424 3.133-.15 1.552-.272 3.103-.423 4.656-.025.26-.144.502-.17.762-.035.364.036.738 0 1.101-.136 1.404-.307 2.893-.169 4.318.196 2.012.477 4.066 1.045 6.011.174.597.405 1.215.663 1.778.114.249.369.576.395.847.034.352-.304.872-.452 1.185-.298.633-.522 1.296-.776 1.948-.92 2.367-1.828 4.759-3.132 6.942-.479.801-.999 1.745-1.722 2.357-.527.446-1.257.801-1.863 1.129-2.318 1.256-4.787 1.932-7.366 2.47-2.038.424-4.104.785-6.18.987-.93.09-1.865.079-2.794.17-1.747.17-3.493.367-5.25.465-.978.054-1.982-.053-2.963.042-.34.033-.676.137-1.016.17-.42.04-.85-.041-1.27 0-.993.096-1.994.322-2.963.564-1.188.297-2.399.501-3.556.903-1.38.48-2.82.967-4.149 1.595-3.45 1.628-6.681 3.886-9.652 6.28-2.644 2.129-5.018 4.556-7.535 6.829-.46.415-.874.895-1.284 1.355-1.044 1.17-2.235 2.22-3.288 3.386-.797.882-1.615 1.785-2.456 2.625-.785.786-1.714 1.456-2.54 2.201-.901.814-1.93 1.478-2.878 2.23-1.366 1.081-2.643 2.323-4.064 3.33-1.955 1.385-3.979 2.7-5.927 4.106-1.29.932-3.406 1.909-3.556 3.712-.023.28.055.656.113.931.441 2.117 2.747 3.174 4.459 4.078 2.265 1.195 4.445 2.165 7.027 2.427 2.642.268 5.384-.53 7.959-1.03 1.622-.315 3.228-.721 4.826-1.143.406-.107 1.36-.548 1.693-.268.356.3.621.804.875 1.185.664.996 1.252 2.026 1.863 3.048.965 1.616 2.239 3.122 3.02 4.826 1.218 2.66 2.39 5.395 4.12 7.79.256.354.446.75.706 1.1.635.86 1.594 1.535 2.455 2.145.209.148.365.343.593.466.894.484 1.877.665 2.878.776.467.052.87.216 1.355.17.26-.026.502-.145.762-.17 1.154-.112 2.236-.244 3.302-.762 1.109-.539 2.05-1.287 2.963-2.088.315-.277.702-.453 1.016-.734.208-.185.296-.43.452-.65.299-.422.666-.742.79-1.27.25-1.057.132-1.842-.113-2.878-.12-.507-.127-1.033-.324-1.524-.68-1.688-1.945-3.061-3.034-4.487-.606-.793-1.44-1.381-1.905-2.286-.202-.394-.276-.848-.381-1.27-.068-.272-.254-.559-.226-.847.04-.407.43-.857.65-1.185.487-.732.897-1.357 1.551-1.948.209-.188.414-.461.678-.578.224-.1.33.061.451.24.242.357.433.801.635 1.185.946 1.792 2.039 3.41 3.316 4.995.9 1.116 1.87 2.27 3.048 3.105 1.574 1.115 3.732 1.372 5.588 1.552.897.087 1.795.258 2.71.17 2.099-.205 4.464-1.21 5.56-3.133.912-1.604.734-3.64.31-5.334-.203-.81-.34-1.612-.72-2.371-.344-.689-.897-1.203-1.51-1.637-.25-.178-.424-.445-.677-.62-.986-.685-2.02-1.288-2.879-2.146-.458-.458-1.185-.965-1.354-1.608.822-.065 1.639-.285 2.455-.41.756-.115 1.527-.183 2.286-.268.211-.023.382-.146.593-.169 1.411-.157 2.803-.423 4.233-.423.828 0 1.638.005 2.455.084.19.019.415-.048.593.043.226.114.344.369.508.55.494.547.926 1.117 1.383 1.693.94 1.188 1.945 2.317 2.822 3.556.452.639.855 1.318 1.327 1.948a56 56 0 0 1 4.148 6.434c.58 1.044 1.298 2.007 1.891 3.048.464.815.893 1.678 1.411 2.456a303 303 0 0 0 3.246 4.741c.482.694.897 1.443 1.41 2.117.358.467.774.889 1.13 1.354.557.73.978 1.54 1.496 2.286 1.118 1.61 2.542 3.104 4.29 4.05 3.366 1.824 7.647 1.658 11.09.127.925-.41 2.019-.956 2.71-1.721 1.176-1.303 1.686-3.29 1.355-4.996-.164-.84-.393-1.687-.776-2.455-.67-1.34-1.457-2.402-2.526-3.471 1.318-.382 2.427-.71 3.471-1.694 1.788-1.684 2.217-4.749 1.016-6.858-.597-1.048-1.509-1.813-2.37-2.624-.667-.628-1.214-1.383-1.863-2.032-.21-.21-.463-.368-.664-.593-1.434-1.608-2.587-3.446-3.584-5.334-.604-1.144-1.718-2.129-1.848-3.471-.127-1.298-.038-2.766.451-3.98.497-1.232 1.2-2.38 1.82-3.556 2.132-4.039 5.043-7.591 6.76-11.853.344-.854.61-1.741.818-2.625.14-.591.475-1.107.621-1.693.228-.91.5-1.814.762-2.71.514-1.763.699-3.688.875-5.503.117-1.202-.117-2.438 0-3.64.033-.34.136-.676.17-1.016.141-1.46.027-2.945.169-4.403.119-1.226-.255-2.611.028-3.81.245-1.037.905-2.031 1.397-2.963.802-1.52 1.668-2.993 2.667-4.403 1.124-1.587 2.51-3.002 3.429-4.741.475-.9.93-1.76 1.03-2.794.059-.603-.143-1.184-.085-1.778.047-.48.273-.997.452-1.44.505-1.254 1.005-2.514 1.383-3.81.225-.772.205-1.66.282-2.455.09-.925.145-1.835-.268-2.71a3.6 3.6 0 0 0-.663-.93c-2.188-2.283-5.59-.546-8.213-.255-1.124.125-2.26.06-3.387.17-1.448.14-3.054.35-4.487-.029-.768-.202-1.406-.891-2.117-1.227-1.157-.547-2.394-.76-3.64-1.002a21 21 0 0 0-4.064-.367c-.361 0-.742-.035-1.101 0-.215.02-.466.161-.677.042-.186-.104-.288-.382-.41-.55-.472-.654-.865-1.362-1.312-2.032a140 140 0 0 0-2.992-4.318c-.708-.981-1.42-2.046-2.483-2.681-1.026-.613-2.446-.527-3.034.649-.37.74-.22 1.533-.437 2.286z" id="skillPoint_svg" display="inline" fill="currentColor" stroke="#000" stroke-width="2"/><path d="M100.16 28.956c-.633-.367-1.2-1.17-2.031-1.1-.933.077-1.484.738-1.665 1.608-.059.28.009.568-.057.847-.298 1.26-.439 2.601-.564 3.894-.036.364.035.738 0 1.101-.102 1.047-.322 2.086-.424 3.133-.15 1.552-.272 3.103-.423 4.656-.025.26-.144.502-.17.762-.035.364.036.738 0 1.101-.136 1.404-.307 2.893-.169 4.318.196 2.012.477 4.066 1.045 6.011.174.597.405 1.215.663 1.778.114.249.369.576.395.847.034.352-.304.872-.452 1.185-.298.633-.522 1.296-.776 1.948-.92 2.367-1.828 4.759-3.132 6.942-.479.801-.999 1.745-1.722 2.357-.527.446-1.257.801-1.863 1.129-2.318 1.256-4.787 1.932-7.366 2.47-2.038.424-4.104.785-6.18.987-.93.09-1.865.079-2.794.17-1.747.17-3.493.367-5.25.465-.978.054-1.982-.053-2.963.042-.34.033-.676.137-1.016.17-.42.04-.85-.041-1.27 0-.993.096-1.994.322-2.963.564-1.188.297-2.399.501-3.556.903-1.38.48-2.82.967-4.149 1.595-3.45 1.628-6.681 3.886-9.652 6.28-2.644 2.129-5.018 4.556-7.535 6.829-.46.415-.874.895-1.284 1.355-1.044 1.17-2.235 2.22-3.288 3.386-.797.882-1.615 1.785-2.456 2.625-.785.786-1.714 1.456-2.54 2.201-.901.814-1.93 1.478-2.878 2.23-1.366 1.081-2.643 2.323-4.064 3.33-1.955 1.385-3.979 2.7-5.927 4.106-1.29.932-3.406 1.909-3.556 3.712-.023.28.055.656.113.931.441 2.117 2.747 3.174 4.459 4.078 2.265 1.195 4.445 2.165 7.027 2.427 2.642.268 5.384-.53 7.959-1.03 1.622-.315 3.228-.721 4.826-1.143.406-.107 1.36-.548 1.693-.268.356.3.621.804.875 1.185.664.996 1.252 2.026 1.863 3.048.965 1.616 2.239 3.122 3.02 4.826 1.218 2.66 2.39 5.395 4.12 7.79.256.354.446.75.706 1.1.635.86 1.594 1.535 2.455 2.145.209.148.365.343.593.466.894.484 1.877.665 2.878.776.467.052.87.216 1.355.17.26-.026.502-.145.762-.17 1.154-.112 2.236-.244 3.302-.762 1.109-.539 2.05-1.287 2.963-2.088.315-.277.702-.453 1.016-.734.208-.185.296-.43.452-.65.299-.422.666-.742.79-1.27.25-1.057.132-1.842-.113-2.878-.12-.507-.127-1.033-.324-1.524-.68-1.688-1.945-3.061-3.034-4.487-.606-.793-1.44-1.381-1.905-2.286-.202-.394-.276-.848-.381-1.27-.068-.272-.254-.559-.226-.847.04-.407.43-.857.65-1.185.487-.732.897-1.357 1.551-1.948.209-.188.414-.461.678-.578.224-.1.33.061.451.24.242.357.433.801.635 1.185.946 1.792 2.039 3.41 3.316 4.995.9 1.116 1.87 2.27 3.048 3.105 1.574 1.115 3.732 1.372 5.588 1.552.897.087 1.795.258 2.71.17 2.099-.205 4.464-1.21 5.56-3.133.912-1.604.734-3.64.31-5.334-.203-.81-.34-1.612-.72-2.371-.344-.689-.897-1.203-1.51-1.637-.25-.178-.424-.445-.677-.62-.986-.685-2.02-1.288-2.879-2.146-.458-.458-1.185-.965-1.354-1.608.822-.065 1.639-.285 2.455-.41.756-.115 1.527-.183 2.286-.268.211-.023.382-.146.593-.169 1.411-.157 2.803-.423 4.233-.423.828 0 1.638.005 2.455.084.19.019.415-.048.593.043.226.114.344.369.508.55.494.547.926 1.117 1.383 1.693.94 1.188 1.945 2.317 2.822 3.556.452.639.855 1.318 1.327 1.948a56 56 0 0 1 4.148 6.434c.58 1.044 1.298 2.007 1.891 3.048.464.815.893 1.678 1.411 2.456a303 303 0 0 0 3.246 4.741c.482.694.897 1.443 1.41 2.117.358.467.774.889 1.13 1.354.557.73.978 1.54 1.496 2.286 1.118 1.61 2.542 3.104 4.29 4.05 3.366 1.824 7.647 1.658 11.09.127.925-.41 2.019-.956 2.71-1.721 1.176-1.303 1.686-3.29 1.355-4.996-.164-.84-.393-1.687-.776-2.455-.67-1.34-1.457-2.402-2.526-3.471 1.318-.382 2.427-.71 3.471-1.694 1.788-1.684 2.217-4.749 1.016-6.858-.597-1.048-1.509-1.813-2.37-2.624-.667-.628-1.214-1.383-1.863-2.032-.21-.21-.463-.368-.664-.593-1.434-1.608-2.587-3.446-3.584-5.334-.604-1.144-1.718-2.129-1.848-3.471-.127-1.298-.038-2.766.451-3.98.497-1.232 1.2-2.38 1.82-3.556 2.132-4.039 5.043-7.591 6.76-11.853.344-.854.61-1.741.818-2.625.14-.591.475-1.107.621-1.693.228-.91.5-1.814.762-2.71.514-1.763.699-3.688.875-5.503.117-1.202-.117-2.438 0-3.64.033-.34.136-.676.17-1.016.141-1.46.027-2.945.169-4.403.119-1.226-.255-2.611.028-3.81.245-1.037.905-2.031 1.397-2.963.802-1.52 1.668-2.993 2.667-4.403 1.124-1.587 2.51-3.002 3.429-4.741.475-.9.93-1.76 1.03-2.794.059-.603-.143-1.184-.085-1.778.047-.48.273-.997.452-1.44.505-1.254 1.005-2.514 1.383-3.81.225-.772.205-1.66.282-2.455.09-.925.145-1.835-.268-2.71a3.6 3.6 0 0 0-.663-.93c-2.188-2.283-5.59-.546-8.213-.255-1.124.125-2.26.06-3.387.17-1.448.14-3.054.35-4.487-.029-.768-.202-1.406-.891-2.117-1.227-1.157-.547-2.394-.76-3.64-1.002a21 21 0 0 0-4.064-.367c-.361 0-.742-.035-1.101 0-.215.02-.466.161-.677.042-.186-.104-.288-.382-.41-.55-.472-.654-.865-1.362-1.312-2.032a140 140 0 0 0-2.992-4.318c-.708-.981-1.42-2.046-2.483-2.681-1.026-.613-2.446-.527-3.034.649-.37.74-.22 1.533-.437 2.286m2.2 7.027c.455.263.736.73 1.102 1.101 1.264 1.282 2.222 2.863 3.273 4.318.306.423.643.836.932 1.27.203.305.412.692.79.818.553.185.68-.52.945-.804.667-.714.862-1.65 1.397-2.47.233-.355.498-.795.96-.846.362-.04.737.035 1.1 0 1.5-.146 3.208-.221 4.657.282.978.34 1.845.931 2.794 1.327.378.157.8.206 1.186.367.366.152.706.358 1.1.451.797.188 1.806.028 2.625.028.814 0 1.631.165 2.455.085a30 30 0 0 0 3.133-.48c1.012-.21 2.03-.409 3.048-.649.29-.068.544-.213.847-.226.723-.03 1.3-.062 1.495.762.345 1.458.172 3.377-.592 4.657-.526.88-1.324 1.533-2.004 2.286-1.3 1.44-2.714 2.664-4.233 3.866-1.078.854-2.188 1.651-3.302 2.456-.364.262-.927.58-.734 1.129.102.29.3.311.564.367.578.12 1.33-.13 1.863-.381 1.438-.68 2.883-1.799 4.064-2.865.392-.354.828-.711 1.185-1.1.254-.278.375-.512.762-.593.179.424-.042.8-.24 1.185-.443.863-1.08 1.457-1.679 2.201-.665.826-1.434 1.583-2.145 2.371-1.613 1.787-3.165 3.943-4.036 6.18-.244.63-.317 1.298-.48 1.948-.126.506-.343 1-.394 1.524-.035.35.051.677.07 1.016.046.825-.152 1.698-.07 2.54.074.77.16 1.589.084 2.37-.143 1.474-.429 2.932-.592 4.403-.07.624-.278 1.239-.34 1.863-.223 2.303-.447 4.756-1.297 6.943-1.37 3.524-3.388 6.59-5.362 9.821-1.15 1.882-2.253 3.9-3.683 5.588-1.475 1.74-3.17 3.31-4.502 5.165-.902 1.256-1.853 2.384-2.314 3.894-.446 1.46-.28 3.114.085 4.572.614 2.457 1.716 4.711 2.68 7.028.219.522.327 1.087.537 1.608a118 118 0 0 0 1.609 3.81c.577 1.3 1.429 2.498 2.144 3.726.508.87.965 1.818 1.58 2.624a16.9 16.9 0 0 0 3.02 3.02c.783.598 1.622 1.155 2.287 1.891 1.163 1.288 1.193 3.416-.508 4.22-1.875.885-4.125 1.013-6.096.465-.78-.217-1.457-.399-2.117-.903-1.377-1.052-2.356-2.617-3.302-4.036-.941-1.412-1.938-2.776-2.808-4.233-1.377-2.306-2.674-4.71-4.163-6.943-.843-1.264-1.79-2.508-2.568-3.81-.452-.757-.73-1.6-1.157-2.37-.41-.737-.835-1.457-1.228-2.202a75 75 0 0 1-2.201-4.572c-.51-1.148-.783-2.292-1.708-3.217-.89-.89-2.08-1.28-3.217-1.722-2.262-.88-4.636-1.178-7.027-1.411-.94-.091-1.935 0-2.879 0-2.157 0-4.3.046-6.435.254-1.37.133-2.778-.133-4.148 0-2.283.222-4.632.2-6.858.818-.903.251-1.867.334-2.71.79-1.931 1.047-3.295 2.886-4.741 4.488l-1.524 1.693c-.476.528-1.133 1.1-1.397 1.778-.153.395-.143.862-.24 1.27-.135.571-.254 1.11-.31 1.694-.077.792-.262 1.577-.339 2.37-.037.382.049.73.085 1.101.172 1.771.432 3.867 1.552 5.334.755.989 2.018 1.449 3.02 2.117.586.39 1.154.796 1.326 1.524.052.218.028.454.028.677 0 1.986-1.964 2.793-3.64 3.19-.613.144-1.243.052-1.863.112-1.197.116-2.623-.089-3.556-.931-1.125-1.016-1.598-2.708-2.145-4.064-.63-1.564-1.274-3.146-1.806-4.742-.517-1.551-.947-3.166-1.651-4.656-.584-1.237-1.27-2.455-1.962-3.641-.445-.763-1.102-1.53-1.382-2.37-.135-.406-.174-.932-.198-1.355-.024-.426.199-.869.31-1.27.226-.814.367-1.641.593-2.456.542-1.95.765-3.926.96-5.926.26-2.674.592-5.341.592-8.044 0-.575.055-1.135 0-1.693-.041-.427.008-.765-.423-1.002-1.006-.553-1.465.692-1.75 1.425-.319.82-.367 1.76-.451 2.625-.114 1.164-.387 2.32-.579 3.471-.401 2.41-1.024 4.754-1.68 7.112-.158.57-.376 1.14-.592 1.694-.155.4-.246.847-.522 1.185-.969 1.188-2.676 1.81-3.993 2.47-3.794 1.896-8.052 3.457-12.362 3.457-1.45 0-2.808-.28-4.148-.819-.558-.225-1.29-.441-1.665-.96-.4-.55.276-.92.649-1.199 1.034-.775 2.098-1.51 3.132-2.286.812-.608 1.66-1.162 2.456-1.792 1.072-.849 2.05-1.811 3.132-2.653 1.234-.96 2.5-1.88 3.726-2.85.79-.625 1.496-1.35 2.286-1.976.557-.44 1.154-.834 1.693-1.298.864-.744 1.778-1.437 2.625-2.201 2.014-1.818 3.829-3.856 5.842-5.673 1.62-1.463 2.94-3.27 4.572-4.741 2.203-1.99 4.746-3.797 7.366-5.18.973-.513 1.888-1.112 2.878-1.58a25 25 0 0 1 4.826-1.679c1.577-.372 3.218-.549 4.826-.705.79-.077 1.602.127 2.371.084.312-.017.62-.139.931-.169.452-.044.899.091 1.355.085.915-.013 1.79-.077 2.71 0 .232.019.447-.075.677-.085.854-.036 1.694-.002 2.54-.085 1.74-.169 3.51 0 5.249-.169 2.135-.208 4.18-.75 6.265-1.242 2.437-.575 5.056-1.535 7.112-3.02 1.249-.901 2.425-2.136 3.359-3.358.97-1.27 1.655-2.912 2.173-4.403.475-1.367 1.12-2.682 1.58-4.064a49 49 0 0 0 .734-2.37c.095-.343.09-.806.31-1.101.273-.363.702-.254 1.073-.367.728-.222 1.45-.509 2.117-.889.375-.214.795-.543.762-1.03-.068-.968-1.317-1.144-2.032-1.383-.587-.195-1.269-.403-1.778-.762-.51-.36-.912-1.116-1.172-1.665-.59-1.25-.352-2.876-.352-4.233 0-2.366.229-4.753 0-7.112-.068-.7.068-1.418 0-2.117-.104-1.065-.085-2.14-.085-3.217 0-.594-.062-1.23.17-1.778.44.13.395.622.493 1.016.26 1.036.46 2.093.72 3.132.605 2.421 1.27 4.896 2.23 7.197.483 1.16.882 2.515 1.975 3.274 1.42.985 3.47-.417 4.163-1.665.147-.266.39-.457.465-.762.214-.853-.276-1.742-.663-2.456-.427-.79-.989-1.53-1.481-2.286-1.09-1.668-2.174-3.345-3.274-4.995-.41-.615-.907-1.217-1.256-1.863-.116-.213-.336-.586-.24-.762m18.288 6.971c-.473.086-.963.196-1.355.494-.537.408-.721 1.065-.875 1.68-.279 1.117-.087 2.244.34 3.301.343.854 1.135 2.312 2.313 1.92.273-.091.534-.327.762-.494 1.557-1.146 2.233-3.545 1.13-5.236-.427-.653-1.417-1.827-2.315-1.665m.085 2.103c.784-.078.85 1.834.169 1.933-.806.117-.8-.75-.663-1.27.073-.276.149-.63.494-.663m-14.478 14.845c-.819.427-.019 1.327.31 1.735 1.168 1.45 2.277 2.892 3.669 4.149.5.451 1.084.968 1.693 1.256 2.626 1.24 5.446-.192 7.705-1.51 1.232-.718 2.307-1.714 3.302-2.71.265-.265.896-1.224.085-1.27-.228-.012-.474.147-.678.226-.517.201-1.006.498-1.524.678a34 34 0 0 1-4.656 1.242c-.666.129-1.345.292-2.032.225-2.123-.206-4.039-1.676-5.758-2.822-.442-.295-.852-.657-1.27-.988-.227-.18-.546-.368-.846-.211m4.318 49.91c.197.376.342.83.55 1.186.455.778 1.128 1.443 1.623 2.201.24.368.393.805.62 1.186.655 1.095 1.307 2.16 1.877 3.302a20.4 20.4 0 0 0 4.643 6.04c.41.364.758.786 1.185 1.142.864.72 2.081 1.398 2.202 2.639.162 1.673-1.685 2.291-2.964 2.61-.37.093-1.103.37-1.439.156-.516-.33-.882-.914-1.214-1.411-.524-.788-1.027-1.584-1.552-2.371-2.314-3.47-4.486-7.214-5.94-11.091-.295-.786-.69-1.854-.607-2.71.049-.502.175-.954.31-1.439.136-.49.198-1.222.706-1.44m-43.18 2.978c.191-.032.5-.065.649.085.32.32.39 1.094.564 1.51.325.778.825 1.458 1.355 2.116.272.338.613.61.903.932.643.712 1.25 1.476 2.117 1.933.882.466 2.012.53 2.68 1.369.694.869.99 2.495.34 3.471-.349.522-1.16.84-1.75.988-.663.165-1.353.113-2.032.113-1.084 0-2.153.007-3.218-.156-.682-.104-1.311-.133-1.848-.635-.409-.381-.698-.927-.96-1.41-.705-1.303-1.256-2.67-1.947-3.98-.53-1.003-1.138-1.988-1.707-2.963-.174-.297-.563-.727-.353-1.101.201-.358.955-.541 1.312-.72 1.201-.6 2.56-1.33 3.895-1.552" style="display:inline;fill:#060606;stroke:none"/></g></svg>