<svg xmlns="http://www.w3.org/2000/svg" xml:space="preserve" width="655.36" height="655.36" viewBox="0 0 173.397 173.397"><g style="display:inline"><path d="M61.213 223.267c-.568-7.591 27.43-10.813 41.761-11.003 17.233-.228 46.104 3.286 46.237 10.552.125 6.831-23.438 10.398-44.257 10.662-16.907.214-43.248-3.616-43.741-10.211" style="display:inline;fill:#000;fill-opacity:.2;stroke-width:.264583" transform="translate(-18.34 -61.733)"/></g><g style="display:inline"><path d="m53.34 15.07 1.44.904 2.37 1.524 8.551 5.475 2.625 1.693 1.1.65v.169l-1.523.832L64.6 28.25l-9.229 5.42-30.903 18.118-6.774 3.95-3.64 2.16-3.302 1.933-1.143.72-.043.748v1.778l.085 6.688.254 25.4.17 18.373v6.35l.042.579.889.451 1.947.847 7.366 3.217 8.551 3.768.607.113 1.933.691 18.796 8.382 20.744 9.285 6.011 2.653 7.197 3.217 1.862.847.847.296 2.201-.973 4.488-1.948 14.224-6.18 6.773-2.907 19.389-8.439 7.62-3.302 3.979-1.721.423-.367 1.27-.564 3.133-1.44 8.72-4.036 3.133-1.439.932-.423.465-.212.043-.649v-7.874l.169-23.876.085-12.192v-6.943l.084-5.503v-1.355l-.098-.578-1.51-1.002-3.641-2.343-9.821-6.35-5.504-3.584-22.267-14.393-9.821-6.35-2.879-1.863-1.947-1.298 1.862-1.002 3.556-2.032 7.112-4.064 4.488-2.554c-.187-.645-1.058-1.143-1.524-1.609-1.384-1.384-2.85-2.68-4.234-4.064a186 186 0 0 0-6.858-6.519c-.612-.553-1.135-1.203-1.778-1.722-.24-.194-.44-.515-.762-.564-.632-.097-1.01.187-1.524.494-.926.553-1.783 1.225-2.709 1.778-1.623.97-3.128 2.133-4.741 3.118-2.355 1.44-4.646 3.013-6.943 4.544-1.06.707-2.123 1.45-3.217 2.103-.282.168-.853.733-1.186.705-.341-.028-.831-.574-1.1-.776l-2.54-1.905-9.568-7.168c-.984-.739-1.979-1.463-2.963-2.202-.394-.295-.814-.774-1.355-.691-.387.06-.82.582-1.1.847-.653.616-1.361 1.181-2.032 1.778-1.674 1.488-3.418 2.901-5.08 4.402-.808.73-1.608 1.49-2.456 2.173-1.603 1.292-3.053 2.773-4.656 4.064-.41.33-.795.692-1.186 1.045-.275.248-.57.392-.677.762z" id="playerHome_svg" display="inline" fill="currentColor" stroke="#000" stroke-width="2"/><path d="m53.34 15.07 1.44.904 2.37 1.524 8.551 5.475 2.625 1.693 1.1.65v.169l-1.523.832L64.6 28.25l-9.229 5.42-30.903 18.118-6.774 3.95-3.64 2.16-3.302 1.933-1.143.72-.043.748v1.778l.085 6.688.254 25.4.17 18.373v6.35l.042.579.889.451 1.947.847 7.366 3.217 8.551 3.768.607.113 1.933.691 18.796 8.382 20.744 9.285 6.011 2.653 7.197 3.217 1.862.847.847.296 2.201-.973 4.488-1.948 14.224-6.18 6.773-2.907 19.389-8.439 7.62-3.302 3.979-1.721.423-.367 1.27-.564 3.133-1.44 8.72-4.036 3.133-1.439.932-.423.465-.212.043-.649v-7.874l.169-23.876.085-12.192v-6.943l.084-5.503v-1.355l-.098-.578-1.51-1.002-3.641-2.343-9.821-6.35-5.504-3.584-22.267-14.393-9.821-6.35-2.879-1.863-1.947-1.298 1.862-1.002 3.556-2.032 7.112-4.064 4.488-2.554c-.187-.645-1.058-1.143-1.524-1.609-1.384-1.384-2.85-2.68-4.234-4.064a186 186 0 0 0-6.858-6.519c-.612-.553-1.135-1.203-1.778-1.722-.24-.194-.44-.515-.762-.564-.632-.097-1.01.187-1.524.494-.926.553-1.783 1.225-2.709 1.778-1.623.97-3.128 2.133-4.741 3.118-2.355 1.44-4.646 3.013-6.943 4.544-1.06.707-2.123 1.45-3.217 2.103-.282.168-.853.733-1.186.705-.341-.028-.831-.574-1.1-.776l-2.54-1.905-9.568-7.168c-.984-.739-1.979-1.463-2.963-2.202-.394-.295-.814-.774-1.355-.691-.387.06-.82.582-1.1.847-.653.616-1.361 1.181-2.032 1.778-1.674 1.488-3.418 2.901-5.08 4.402-.808.73-1.608 1.49-2.456 2.173-1.603 1.292-3.053 2.773-4.656 4.064-.41.33-.795.692-1.186 1.045-.275.248-.57.392-.677.762m61.807-1.778v.084l-3.387 1.962-6.52 3.725-5.926 3.387-2.54 1.425 2.455 1.637 2.625 1.693 11.26 7.282 4.065 2.652 19.642 12.672 5.504 3.584 12.022 7.762 3.218 2.088 1.312.875.042.903v2.286l-.084 8.805-.17 29.718-.084 8.044v2.201l-.043.917-.72.367-1.862.847-4.995 2.286-2.625 1.171.085-39.2V68.833l-.043-1.185-1.65-1.045-4.573-2.709-11.43-6.801-3.556-2.117-1.778-1.044-.169-1.44-.706-3.725-.48-1.143-.761-.042h-1.778l-3.895.254-1.27.197-.677.113-1.609-.931L94.657 35.7l-4.995-2.963-1.27-.748-.593-.282-.677.367-1.693.93-5.842 3.218-17.188 9.426-5.08 2.794-1.524.847-.846.466-1.101-.282-1.947-.508-4.742-1.016-2.878-.537-.085 1.778-.085 4.403.085 1.524-.014.564-1.171.65-3.218 1.763-10.329 5.715-3.556 1.962-1.171.776-.014 1.185-.085 2.286v8.298l-.085 8.043-.169 14.055v6.18l-.085 4.064v9.398l-.084 1.101-2.456-1.087-4.064-1.778-1.947-.846-.55-.282-.043-.918v-2.286l-.084-8.212-.254-30.142-.085-8.974-.085-2.286.043-.903 1.481-.904 3.472-2.032 12.7-7.45 31.919-18.74 9.821-5.757 5.08-2.992-2.201-1.383-3.98-2.568-5.926-3.81-5.334-3.415 1.27-1.185 2.54-2.215 3.895-3.401.931-.819.508-.395 1.1.706 2.88 2.159 9.567 7.168 2.455 1.82 1.016.706 1.1-.649 2.964-1.947 11.007-7.225 3.471-2.272 1.185-.65.678.58 1.524 1.439 3.386 3.217zm6.096 38.184c0 1.58.154 3.159 0 4.742-.218 2.235-.811 4.442-1.411 6.604-.728 2.62-1.68 5.255-2.837 7.704-.958 2.029-1.945 4.04-3.203 5.927-.342.513-.703 1.012-1.044 1.524-.096.144-.378.41-.339.593.045.215.383.376.536.508.485.417.986.816 1.44 1.27a24 24 0 0 1 3.781 4.91c1.898 3.254 3.22 6.852 4.234 10.499.456 1.641.657 3.368 1.129 4.995-2.538.468-5.118.773-7.62 1.468a99 99 0 0 0-15.833 5.912c-2.884 1.362-5.697 2.891-8.551 4.318-1.832.916-3.799 1.971-5.927 1.764-1.677-.163-3.427-.716-4.995-1.326-1.972-.767-3.94-1.514-5.842-2.413-1.824-.861-3.598-1.821-5.419-2.681-1.192-.563-2.541-.96-3.81-1.313-1.733-.48-3.433-1.07-5.165-1.552-1.252-.348-2.601-.585-3.81-1.072-2.155-.868-4.246-1.76-6.519-2.329-.79-.197-1.636-.5-2.455-.522 0-1.3.472-2.733.818-3.979.918-3.306 2.267-6.394 3.852-9.398a30 30 0 0 1 2.216-3.556c.268-.371.545-.744.832-1.1.114-.142.32-.315.34-.509.022-.24-.237-.557-.34-.762a30 30 0 0 1-.832-1.862c-.927-2.224-1.803-4.477-2.568-6.774-2.255-6.762-3.895-13.862-3.895-20.997 6.19 1.14 12.153 3.358 17.272 7.056 1.892 1.366 3.77 2.81 5.503 4.374.474.428.98.829 1.44 1.27.17.163.421.508.677.536.226.025.508-.296.677-.423.435-.326.872-.69 1.355-.946 1.453-.766 3.185-1.27 4.826-1.453 1.268-.14 2.54-.215 3.81-.339.835-.08 1.717.005 2.54.085.531.052 1.077-.052 1.609 0 1.24.12 2.484.218 3.725.339 1.377.134 2.788.356 4.149.62.365.072 1.176.41 1.524.269.22-.09.36-.378.508-.55.405-.472.829-.914 1.27-1.355a39 39 0 0 1 4.233-3.655c5.15-3.863 11.638-6.42 18.119-6.42m-30.226 43.01c1.19-.47 2.249-1.418 3.386-2.018 2.225-1.174 4.546-2.144 7.028-2.695 1.958-.435 3.94-.682 5.926-.875.61-.06 1.251-.085 1.863-.085.388 0 .833.064 1.185-.084-.295-.255-.81-.371-1.185-.522-.99-.399-2.02-.745-3.048-1.03-4.383-1.218-10.252-1.73-13.35 2.398-.45.6-.795 1.26-1.072 1.948-.363.903-.733 1.98-.733 2.963m-32.174-5.842c1.432 0 2.916.292 4.318.564 3.119.607 6.255 1.388 9.144 2.752a85 85 0 0 1 3.387 1.693c.509.269.987.635 1.524.833 0-.881-.387-1.836-.748-2.625-.44-.96-.987-1.837-1.707-2.624-2.66-2.905-7.17-3.146-10.753-2.4a29 29 0 0 0-3.895 1.13c-.358.13-1.138.319-1.27.677m65.109-.677c1.046.715 2.212 1.31 3.302 1.975 1.735 1.06 3.324 2.426 4.826 3.782 4.598 4.151 7.7 10.012 9.031 16.002.446 2.005.593 3.984.79 6.011.222 2.282.051 4.595-.169 6.858a18 18 0 0 1-.226 1.694c-.042.216-.012.55-.155.733-.134.172-.447.21-.635.297-.643.295-1.303.551-1.947.846-2.067.948-4.21 1.739-6.266 2.71-6.37 3.008-13.019 5.43-19.388 8.438-1.388.655-2.846 1.151-4.234 1.806-4.808 2.271-9.837 4.079-14.647 6.35-1.724.815-3.515 1.491-5.25 2.286-.53.243-1.069.467-1.608.692-.164.068-.329.194-.508.212-.485.047-1.184-.449-1.609-.65-1.257-.593-2.554-1.1-3.81-1.693-.361-.17-.733-.34-1.1-.494-.185-.077-.514-.137-.635-.31-.11-.158.018-.408.07-.565q.214-.643.466-1.27c.804-1.997 2.51-3.342 3.993-4.826.78-.78 1.588-1.52 2.54-2.088 1.388-.829 2.896-1.409 4.318-2.16 2.278-1.201 4.562-2.351 6.943-3.343 1.414-.59 2.896-1.008 4.318-1.58 1.285-.519 2.52-1.191 3.81-1.666l-.931-1.1-1.609-1.779-1.016-.973-1.016.367-2.71 1.001-7.62 3.26-1.862.931-1.524.748c-.81-1.184-2.08-1.655-3.302-2.3-1.685-.889-3.395-1.785-5.165-2.497-1.116-.45-2.276-.78-3.386-1.242-.985-.41-2.009-.841-3.048-1.1-.255-.065-.766-.338-1.016-.255-.166.055-.288.235-.424.339-.153.117-.346.187-.494.31-.546.457-.889 1.219-1.368 1.75-.486.538-1.09 1.06-1.44 1.693l3.218 1.411 5.08 2.047 1.778.635 4.318 2.088v.17c-.66.468-1.18 1.068-1.778 1.608-1.591 1.436-3.262 2.983-4.389 4.826-.485.794-.8 1.616-1.185 2.455-.094.205-.202.864-.438.918-.2.046-.426-.148-.592-.226-.447-.211-.911-.377-1.355-.593-1.612-.783-3.291-1.437-4.91-2.201-1.76-.83-3.596-1.502-5.335-2.37a18 18 0 0 0-1.1-.495c-.22-.092-.586-.165-.72-.38-.092-.15-.042-.412-.042-.58v-27.516c.176.014.334.092.508.099.11.004.223-.096.338-.099.252-.007.524.16.762.226.54.15 1.073.316 1.609.48 1.819.555 3.548 1.186 5.25 1.99 1.684.795 3.463 1.402 5.164 2.158 1.16.515 2.245 1.197 3.387 1.736 2.501 1.181 5.388 1.949 8.128 2.215 1.525.149 3.12-.375 4.487-1.002 1.338-.613 2.667-1.206 3.98-1.862 2.235-1.118 4.43-2.32 6.688-3.387 1.261-.596 2.546-1.125 3.81-1.721 1.6-.756 3.298-1.482 4.995-2.018l-.169.338c.917-.193 1.787-.672 2.71-.903 1.314-.329 2.65-.588 3.979-.846.529-.103 1.086-.103 1.608-.226 1.056-.25 2.072-.64 3.133-.875 2.228-.495 4.49-.621 6.773-.621 0-.93-.236-1.871-.338-2.794-.366-3.288-1.347-6.473-2.23-9.652-.285-1.027-.69-2.062-1.086-3.048-.124-.307-.509-.916-.325-1.185m-77.131 1.947c-.29.916-.723 1.81-1.073 2.71-1.012 2.602-1.753 5.451-2.06 8.212-.09.81-.145 1.651-.268 2.455-.04.264-.204.77.028.988.203.191.582.092.833.141.836.163 1.701.176 2.54.339 2.402.467 4.663 1.174 6.942 2.06.444.173.934.241 1.355.452-.146.505-.053 1.05.183 1.524.129.256.369.469.41.762.071.513 0 1.09 0 1.608v23.622c-.616-.13-1.214-.481-1.778-.748-1.314-.62-2.668-1.158-3.98-1.778-3.325-1.57-6.752-2.918-10.075-4.487-1.314-.62-2.666-1.158-3.98-1.778-.517-.245-1.465-.42-1.834-.875-.139-.171-.131-.456-.183-.663-.126-.504-.198-1.016-.297-1.524-.423-2.176-.564-4.379-.564-6.604 0-1.925.128-3.776.339-5.673.116-1.05.393-2.108.649-3.132 1.18-4.722 3.452-8.915 6.717-12.531a29.6 29.6 0 0 1 4.233-3.838c.543-.408 1.212-1.054 1.863-1.242m37.253 11.628c-1.11.215-2.99.158-3.697 1.241-.422.647.273 1.753.62 2.286.886 1.357 2.156 2.205 3.67 2.71.471.157 1.109.366 1.608.31.53-.059 1.023-.44 1.44-.748 1.004-.739 1.847-1.715 2.483-2.78.287-.48.73-1.372.438-1.947-.248-.489-1-.67-1.482-.79-1.153-.288-2.283-.31-3.471-.31-.52 0-1.099-.072-1.609.028" style="display:inline;fill:#020202;stroke:none"/></g></svg>