<svg xmlns="http://www.w3.org/2000/svg" width="655.36" height="655.36" viewBox="0 0 173.397 173.397"><g style="display:inline"><path d="M61.213 223.267c-.568-7.591 27.43-10.813 41.761-11.003 17.233-.228 46.104 3.286 46.237 10.552.125 6.831-23.438 10.398-44.257 10.662-16.907.214-43.248-3.616-43.741-10.211" style="display:inline;fill:#000;fill-opacity:.2;stroke-width:.264583" transform="translate(-18.34 -61.733)"/></g><g style="display:inline"><path d="M27.178 68.834v.085c-.75.471-1.104 1.631-1.298 2.455-.13.547-.341 1.135-.395 1.693-.148 1.523.26 3.044.677 4.488-1.532.564-2.655 1.777-3.725 2.963-.797.882-1.508 1.701-1.835 2.879-.254.917-.529 1.93-.62 2.878-.032.32.2.728.112 1.016-.098.323-.483.593-.691.847-.418.511-.785 1.073-1.171 1.609-.26.36-.587.778-.762 1.185-.172.398-.258.8-.466 1.185-.267.494-.615.947-.89 1.44-.412.743-.703 1.72-.93 2.54-.124.443-.152.925-.325 1.354a27 27 0 0 0-1.369 4.572c-.075.36-.065.738-.14 1.101-.164.78-.488 1.576-.565 2.37-.036.372.121.724.084 1.101-.025.26-.144.502-.169.762-.085.871.075 1.694.17 2.54.232 2.091 1.132 4.409 3.217 5.306.613.264 1.537.472 2.201.536.573.056 1.126-.084 1.693-.084-.16.867-.084 1.756 0 2.624.09.92.185 1.922.537 2.794a6.93 6.93 0 0 0 2.935 3.359c.338.192.728.227 1.1.31.419.093.842.269 1.27.31 1.65.161 3.256-.212 4.826-.648.552-.154 1.167-.254 1.694-.48.293-.127.537-.298.846-.395.16.403.468.735.706 1.1.39.598.738 1.214 1.185 1.778.314.397.737.699 1.044 1.101 1.295 1.694 2.531 3.716 4.431 4.798.526.3 1.119.378 1.694.522.351.088.737.248 1.1.268.436.024.933-.217 1.355-.31 1.164-.26 2.323-.584 3.471-.904.446-.123.807-.361 1.27-.451.692-.135 1.496-.028 2.202-.028 2.044 0 3.889.445 5.842.987.725.202 1.426.39 2.116.706.677.31 1.5.738 2.032 1.27 1.162 1.161 1.831 2.85 2.484 4.318.555 1.249 1.217 2.454 1.877 3.64.417.751.718 1.546 1.17 2.287.52.849 1.23 1.59 1.722 2.455 1.098 1.927 2.175 3.9 3.528 5.673.4.524.945.972 1.411 1.439.412.412.807.888 1.27 1.242 4.91 3.75 11.5 4.399 17.357 2.935.876-.22 1.786-.41 2.625-.748a14.2 14.2 0 0 0 4.995-3.429c.218-.232.53-.351.734-.593 1.6-1.89 2.74-4.224 3.95-6.35.545-.955 1.35-1.756 1.892-2.709.527-.927.9-1.957 1.425-2.879.166-.292.392-.541.536-.846.262-.554.414-1.157.72-1.694.195-.343.464-.651.62-1.016.808-1.874 1.844-3.856 3.754-4.812 1.193-.596 2.45-.873 3.726-1.227.55-.153 1.122-.424 1.693-.48.28-.027.567.027.847 0 .23-.022.448-.143.677-.155.509-.029 1.084.07 1.609.07.722 0 1.483-.07 2.201 0 1.77.172 3.388 1.182 5.165 1.355 1.062.103 2.21-.186 3.217-.494.312-.095.586-.344.847-.536.758-.558 1.243-1.098 1.806-1.849 1-1.334 2.263-2.469 3.245-3.81.392-.534.841-1.105 1.143-1.693.124-.24.294-.778.579-.875.152-.051.363.095.508.141.39.125.79.257 1.185.367 1.042.29 2.076.584 3.133.819.419.093.842.268 1.27.31.717.07 1.428-.011 2.117-.183.593-.149 1.244-.204 1.778-.523 3.159-1.886 3.132-5.697 3.132-8.946 1.898.15 4.049-.125 5.475-1.552 1.334-1.334 1.722-3.67 1.722-5.475 0-.682-.105-1.284-.17-1.948-.065-.674-.019-1.358-.084-2.032-.034-.346-.188-.673-.24-1.016-.296-1.935-.866-3.824-1.482-5.672-.11-.331-.114-.691-.254-1.016-.19-.44-.444-.894-.578-1.355-.097-.333-.13-.695-.268-1.016-.319-.74-.726-1.48-1.087-2.201-.474-.948-.826-2.01-1.453-2.879-.265-.367-.515-.764-.819-1.1-.239-.265-.614-.505-.748-.847-.17-.437.115-.985.071-1.44-.052-.53-.25-1.086-.367-1.608-.335-1.509-1.325-2.541-2.23-3.726-.595-.779-1.159-1.465-1.975-2.032-.506-.351-1.15-.966-1.778-1.016.134-.728.436-1.465.508-2.201.054-.552 0-1.138 0-1.693 0-.384.05-.809-.028-1.186-.185-.887-.394-1.797-.762-2.624-.13-.294-.63-.691-.607-1.016.012-.17.198-.367.282-.508.273-.457.566-.897.833-1.355.388-.665.708-1.35 1.058-2.032.408-.794.994-1.496 1.411-2.286.789-1.494 1.743-2.928 2.583-4.403.185-.325.47-.584.62-.931.417-.966.67-2.017 1.143-2.963.45-.9.999-1.784 1.397-2.71.129-.297.149-.621.226-.931.136-.544.403-1.103.635-1.609.2-.435.292-.918.48-1.354.17-.396.405-.766.522-1.186.123-.44.15-.925.31-1.354.413-1.099 1.068-2.166 1.383-3.302.664-2.389 1.329-4.768 1.835-7.197.337-1.62.828-3.263.988-4.91.085-.881.253-1.749.338-2.625.063-.647.022-1.3.085-1.948.075-.767.349-1.52.423-2.286.068-.696-.028-1.421-.028-2.116 0-.541.061-1.075.113-1.609.06-.615-.06-1.248 0-1.863.025-.26.11-.492.085-.762-.042-.428-.218-.851-.31-1.27-.337-1.513-.874-2.86-2.146-3.866-.404-.32-.879-.727-1.354-.931-.296-.128-.62-.157-.932-.226-.418-.093-.841-.269-1.27-.31-1.88-.183-3.697.332-5.503.733a44 44 0 0 0-3.302.847c-2.255.689-4.582 1.121-6.773 2.004-.38.153-.721.406-1.1.564-.614.255-1.25.472-1.864.72-1.231.496-2.355 1.255-3.556 1.806-.216.1-.457.117-.677.212-.37.159-.654.464-1.016.635-2.179 1.028-4.397 1.956-6.52 3.076-.66.349-1.216.879-1.862 1.256-2.08 1.213-4.063 2.7-5.927 4.219a59 59 0 0 0-8.142 8.057c-.37.446-.63.947-.917 1.44-.399.683-.948 1.306-1.411 1.947-.31.429-.508.924-.818 1.355-.722.999-1.513 1.988-2.145 3.048-.848 1.42-1.639 2.883-2.456 4.318-.32.562-.455 1.15-.846 1.693-.352.487-.586.875-1.016 1.298-.115.113-.2.28-.367.325-.314.084-.805-.242-1.1-.325-.85-.235-1.692-.526-2.54-.762-2.538-.704-5.087-1.382-7.706-1.637a10 10 0 0 0-1.862 0c-.374.037-.727.234-1.1.254-.29.016-.563-.141-.848-.169a10 10 0 0 0-1.862 0c-2.107.205-4.182.581-6.266 1.044-.788.175-1.615.497-2.37.79-.383.15-.801.161-1.186.31-.4.157-1.183.603-1.608.537-.363-.056-.78-.778-.96-1.072-.44-.72-.773-1.477-1.185-2.202-.234-.41-.508-.761-.72-1.185-1.28-2.561-2.882-4.877-4.558-7.197-1.142-1.581-2.144-3.264-3.316-4.826-.642-.856-1.537-1.607-2.3-2.37-1.555-1.555-3.085-3.017-4.826-4.347-.276-.21-.49-.49-.762-.705-1.674-1.326-3.425-2.667-5.25-3.782-.47-.288-.874-.686-1.354-.96-2.297-1.308-4.778-2.415-7.197-3.457-1.749-.753-3.335-1.887-5.08-2.638-2.61-1.125-5.358-1.871-8.043-2.766-1.94-.647-3.929-1.08-5.927-1.524-1.028-.229-2.083-.547-3.132-.65-.96-.093-1.875.192-2.794.396-.521.116-1.053.211-1.524.48-2.683 1.527-3.41 5.324-3.133 8.184.037.375.218.726.254 1.1.087.895-.087 1.815 0 2.71.069.707.186 1.414.254 2.117.108 1.106.231 2.196.339 3.302.066.681.272 1.353.338 2.032.056.575-.005 1.212.113 1.778a121 121 0 0 0 1.863 7.704c.07.25.213.444.31.678.146.349.131.749.283 1.1.241.56.511 1.111.705 1.694a85 85 0 0 0 1.778 4.91c.3.745.443 1.539.734 2.286.25.641.604 1.234.875 1.863.236.55.368 1.159.635 1.693.256.513.576.995.804 1.524.607 1.41 1.266 2.872 2.117 4.149 1.471 2.207 2.584 4.626 3.98 6.858.425.68.715 1.813 1.382 2.286z" id="fox_svg" display="inline" fill="currentColor" stroke="#000" stroke-width="2"/><path d="M27.178 68.834v.085c-.75.471-1.104 1.631-1.298 2.455-.13.547-.341 1.135-.395 1.693-.148 1.523.26 3.044.677 4.488-1.532.564-2.655 1.777-3.725 2.963-.797.882-1.508 1.701-1.835 2.879-.254.917-.529 1.93-.62 2.878-.032.32.2.728.112 1.016-.098.323-.483.593-.691.847-.418.511-.785 1.073-1.171 1.609-.26.36-.587.778-.762 1.185-.172.398-.258.8-.466 1.185-.267.494-.615.947-.89 1.44-.412.743-.703 1.72-.93 2.54-.124.443-.152.925-.325 1.354a27 27 0 0 0-1.369 4.572c-.075.36-.065.738-.14 1.101-.164.78-.488 1.576-.565 2.37-.036.372.121.724.084 1.101-.025.26-.144.502-.169.762-.085.871.075 1.694.17 2.54.232 2.091 1.132 4.409 3.217 5.306.613.264 1.537.472 2.201.536.573.056 1.126-.084 1.693-.084-.16.867-.084 1.756 0 2.624.09.92.185 1.922.537 2.794a6.93 6.93 0 0 0 2.935 3.359c.338.192.728.227 1.1.31.419.093.842.269 1.27.31 1.65.161 3.256-.212 4.826-.648.552-.154 1.167-.254 1.694-.48.293-.127.537-.298.846-.395.16.403.468.735.706 1.1.39.598.738 1.214 1.185 1.778.314.397.737.699 1.044 1.101 1.295 1.694 2.531 3.716 4.431 4.798.526.3 1.119.378 1.694.522.351.088.737.248 1.1.268.436.024.933-.217 1.355-.31 1.164-.26 2.323-.584 3.471-.904.446-.123.807-.361 1.27-.451.692-.135 1.496-.028 2.202-.028 2.044 0 3.889.445 5.842.987.725.202 1.426.39 2.116.706.677.31 1.5.738 2.032 1.27 1.162 1.161 1.831 2.85 2.484 4.318.555 1.249 1.217 2.454 1.877 3.64.417.751.718 1.546 1.17 2.287.52.849 1.23 1.59 1.722 2.455 1.098 1.927 2.175 3.9 3.528 5.673.4.524.945.972 1.411 1.439.412.412.807.888 1.27 1.242 4.91 3.75 11.5 4.399 17.357 2.935.876-.22 1.786-.41 2.625-.748a14.2 14.2 0 0 0 4.995-3.429c.218-.232.53-.351.734-.593 1.6-1.89 2.74-4.224 3.95-6.35.545-.955 1.35-1.756 1.892-2.709.527-.927.9-1.957 1.425-2.879.166-.292.392-.541.536-.846.262-.554.414-1.157.72-1.694.195-.343.464-.651.62-1.016.808-1.874 1.844-3.856 3.754-4.812 1.193-.596 2.45-.873 3.726-1.227.55-.153 1.122-.424 1.693-.48.28-.027.567.027.847 0 .23-.022.448-.143.677-.155.509-.029 1.084.07 1.609.07.722 0 1.483-.07 2.201 0 1.77.172 3.388 1.182 5.165 1.355 1.062.103 2.21-.186 3.217-.494.312-.095.586-.344.847-.536.758-.558 1.243-1.098 1.806-1.849 1-1.334 2.263-2.469 3.245-3.81.392-.534.841-1.105 1.143-1.693.124-.24.294-.778.579-.875.152-.051.363.095.508.141.39.125.79.257 1.185.367 1.042.29 2.076.584 3.133.819.419.093.842.268 1.27.31.717.07 1.428-.011 2.117-.183.593-.149 1.244-.204 1.778-.523 3.159-1.886 3.132-5.697 3.132-8.946 1.898.15 4.049-.125 5.475-1.552 1.334-1.334 1.722-3.67 1.722-5.475 0-.682-.105-1.284-.17-1.948-.065-.674-.019-1.358-.084-2.032-.034-.346-.188-.673-.24-1.016-.296-1.935-.866-3.824-1.482-5.672-.11-.331-.114-.691-.254-1.016-.19-.44-.444-.894-.578-1.355-.097-.333-.13-.695-.268-1.016-.319-.74-.726-1.48-1.087-2.201-.474-.948-.826-2.01-1.453-2.879-.265-.367-.515-.764-.819-1.1-.239-.265-.614-.505-.748-.847-.17-.437.115-.985.071-1.44-.052-.53-.25-1.086-.367-1.608-.335-1.509-1.325-2.541-2.23-3.726-.595-.779-1.159-1.465-1.975-2.032-.506-.351-1.15-.966-1.778-1.016.134-.728.436-1.465.508-2.201.054-.552 0-1.138 0-1.693 0-.384.05-.809-.028-1.186-.185-.887-.394-1.797-.762-2.624-.13-.294-.63-.691-.607-1.016.012-.17.198-.367.282-.508.273-.457.566-.897.833-1.355.388-.665.708-1.35 1.058-2.032.408-.794.994-1.496 1.411-2.286.789-1.494 1.743-2.928 2.583-4.403.185-.325.47-.584.62-.931.417-.966.67-2.017 1.143-2.963.45-.9.999-1.784 1.397-2.71.129-.297.149-.621.226-.931.136-.544.403-1.103.635-1.609.2-.435.292-.918.48-1.354.17-.396.405-.766.522-1.186.123-.44.15-.925.31-1.354.413-1.099 1.068-2.166 1.383-3.302.664-2.389 1.329-4.768 1.835-7.197.337-1.62.828-3.263.988-4.91.085-.881.253-1.749.338-2.625.063-.647.022-1.3.085-1.948.075-.767.349-1.52.423-2.286.068-.696-.028-1.421-.028-2.116 0-.541.061-1.075.113-1.609.06-.615-.06-1.248 0-1.863.025-.26.11-.492.085-.762-.042-.428-.218-.851-.31-1.27-.337-1.513-.874-2.86-2.146-3.866-.404-.32-.879-.727-1.354-.931-.296-.128-.62-.157-.932-.226-.418-.093-.841-.269-1.27-.31-1.88-.183-3.697.332-5.503.733a44 44 0 0 0-3.302.847c-2.255.689-4.582 1.121-6.773 2.004-.38.153-.721.406-1.1.564-.614.255-1.25.472-1.864.72-1.231.496-2.355 1.255-3.556 1.806-.216.1-.457.117-.677.212-.37.159-.654.464-1.016.635-2.179 1.028-4.397 1.956-6.52 3.076-.66.349-1.216.879-1.862 1.256-2.08 1.213-4.063 2.7-5.927 4.219a59 59 0 0 0-8.142 8.057c-.37.446-.63.947-.917 1.44-.399.683-.948 1.306-1.411 1.947-.31.429-.508.924-.818 1.355-.722.999-1.513 1.988-2.145 3.048-.848 1.42-1.639 2.883-2.456 4.318-.32.562-.455 1.15-.846 1.693-.352.487-.586.875-1.016 1.298-.115.113-.2.28-.367.325-.314.084-.805-.242-1.1-.325-.85-.235-1.692-.526-2.54-.762-2.538-.704-5.087-1.382-7.706-1.637a10 10 0 0 0-1.862 0c-.374.037-.727.234-1.1.254-.29.016-.563-.141-.848-.169a10 10 0 0 0-1.862 0c-2.107.205-4.182.581-6.266 1.044-.788.175-1.615.497-2.37.79-.383.15-.801.161-1.186.31-.4.157-1.183.603-1.608.537-.363-.056-.78-.778-.96-1.072-.44-.72-.773-1.477-1.185-2.202-.234-.41-.508-.761-.72-1.185-1.28-2.561-2.882-4.877-4.558-7.197-1.142-1.581-2.144-3.264-3.316-4.826-.642-.856-1.537-1.607-2.3-2.37-1.555-1.555-3.085-3.017-4.826-4.347-.276-.21-.49-.49-.762-.705-1.674-1.326-3.425-2.667-5.25-3.782-.47-.288-.874-.686-1.354-.96-2.297-1.308-4.778-2.415-7.197-3.457-1.749-.753-3.335-1.887-5.08-2.638-2.61-1.125-5.358-1.871-8.043-2.766-1.94-.647-3.929-1.08-5.927-1.524-1.028-.229-2.083-.547-3.132-.65-.96-.093-1.875.192-2.794.396-.521.116-1.053.211-1.524.48-2.683 1.527-3.41 5.324-3.133 8.184.037.375.218.726.254 1.1.087.895-.087 1.815 0 2.71.069.707.186 1.414.254 2.117.108 1.106.231 2.196.339 3.302.066.681.272 1.353.338 2.032.056.575-.005 1.212.113 1.778a121 121 0 0 0 1.863 7.704c.07.25.213.444.31.678.146.349.131.749.283 1.1.241.56.511 1.111.705 1.694a85 85 0 0 0 1.778 4.91c.3.745.443 1.539.734 2.286.25.641.604 1.234.875 1.863.236.55.368 1.159.635 1.693.256.513.576.995.804 1.524.607 1.41 1.266 2.872 2.117 4.149 1.471 2.207 2.584 4.626 3.98 6.858.425.68.715 1.813 1.382 2.286m64.347 34.967c-.124-.47.296-1.078.494-1.524.423-.953.687-2.002 1.114-2.963.496-1.116 1.192-2.049 1.764-3.133.805-1.525 1.572-3.161 2.597-4.543.4-.54.87-1.04 1.284-1.553.272-.338.465-.751.734-1.086.309-.385.777-.9.96-1.369.23-.594.273-1.272.437-1.863.143-.516.014-1.241.014-1.778 0-1.318-.034-2.639.367-3.894.369-1.156 1.316-2.06 1.961-3.048 1.028-1.577 1.702-3.35 2.13-5.165.08-.332-.008-.68.03-1.016.022-.21.145-.382.168-.593.08-.713 0-1.482 0-2.201 0-.691.077-1.43 0-2.117-.023-.21-.145-.381-.169-.592-.04-.363.035-.738 0-1.101-.023-.234-.16-.443-.17-.677-.027-.677-.034-1.372-.098-2.032-.06-.616-.255-1.239-.325-1.863-.043-.39-.2-.81-.31-1.185-.152-.52-.155-1.08-.339-1.609-.11-.318-.134-.618-.226-.931-.062-.216-.178-.355-.112-.593.321-1.158 1.076-1.9 1.82-2.808.101-.124.12-.282.212-.41.412-.57.899-1.139 1.227-1.777 1.818-3.538 3.78-6.91 6.167-10.076 1.137-1.509 2.001-3.187 3.274-4.572 2.71-2.949 5.831-5.446 9.03-7.845.43-.323.923-.581 1.341-.904 1.856-1.43 4.002-2.377 6.11-3.372 2.258-1.066 4.49-2.242 6.774-3.288l2.963-1.369c.462-.211 1.091-.603 1.609-.494l.084-.254c.321.026.538-.14.847-.225.715-.2 1.408-.461 2.117-.678 1.372-.419 2.751-.693 4.148-1.1.663-.194 1.38-.205 2.032-.396.882-.257 1.774-.451 2.71-.451.448 0 .835-.07 1.157.31.237.28.216.525.31.847.202.692.213 1.553.141 2.286-.022.235-.146.443-.169.677-.1 1.034.115 2.101 0 3.133-.023.211-.146.382-.17.593-.088.796-.08 1.573-.169 2.37-.068.615-.27 1.248-.338 1.863-.031.279.03.568 0 .847-.024.21-.146.381-.17.592-.098.881-.23 1.757-.254 2.625-.006.233-.185.417-.197.65-.037.718-.248 1.363-.452 2.06-.056.193 0 .398-.056.592-.286.98-.506 1.991-.776 2.963-.649 2.335-1.657 4.588-2.54 6.858-.204.524-.354 1.079-.494 1.609-.325 1.23-.98 2.47-1.468 3.64-.882 2.119-1.762 4.245-2.85 6.266-.822 1.526-1.917 2.947-2.752 4.487-1.282 2.367-2.514 4.698-4.134 6.858-.362.483-.746.97-1.087 1.454-.32.455-.505.952-1.058 1.213-.605.286-1.292.212-1.948.212-.546 0-1.152.075-1.693 0-.994-.138-1.902-.597-2.71-1.157-.162-.113-.357-.16-.507-.296-.182-.165-.233-.386-.367-.579-.358-.515-.856-1.074-.621-1.778.168-.505.754-.911 1.157-1.214.685-.513 1.387-1.042 2.032-1.608.635-.557 1.173-1.228 1.792-1.806a39.7 39.7 0 0 0 4.91-5.532c.357-.483.637-1 .932-1.524.171-.302.413-.525.565-.847.205-.434.417-1.328.86-1.524l.55-1.439 1.793-4.149.423-1.185.282-.593c-.162-.618.383-1.353.565-1.947.474-1.552.983-3.091 1.44-4.657.25-.858.446-1.76.662-2.624.038-.15-.039-.275 0-.424.085-.319.285-.655.325-.987.052-.434.043-.95.17-1.383.123-.424.261-.916.31-1.355.034-.307-.034-.625 0-.931.023-.211.146-.382.17-.593.121-1.098 0-2.281 0-3.387 0-.833.08-1.71 0-2.54-.024-.234-.147-.442-.17-.677-.05-.52-.013-1.029-.212-1.524-.47-1.168-1.917-.443-2.667-.099-.212.098-.456.146-.677.226-1.138.411-2.32.705-3.472 1.072-.92.294-1.78.8-2.624 1.256-.905.49-1.893.887-2.71 1.51-.944.722-2.047 1.23-2.963 1.99a172 172 0 0 0-4.572 3.965c-1.004.896-2.129 1.68-3.02 2.695a32 32 0 0 0-1.862 2.371c-.738 1.02-1.294 2.214-2.089 3.203-1.34 1.669-2.456 3.578-3.372 5.518-.214.452-.544.885-.72 1.354-.187.5-.3 1.026-.494 1.524-.363.933-.727 1.901-.917 2.879-.138.707-.04 1.474-.141 2.201-.026.183-.144.325-.17.508-.093.676-.093 1.354-.169 2.032-.023.211-.146.382-.17.593-.074.67.075 1.363 0 2.032-.071.646-.257 1.303-.338 1.947-.068.542-.339 1.043-.339 1.609 0 .257.03.53.31.62.853.28 1.969-.029 2.823-.112 1.734-.168 3.245-.531 4.826-1.256 1.498-.686 3.165-1.3 4.473-2.342 1.813-1.444 3.302-3.184 4.643-5.038.354-.49.53-1.072.79-1.609.732-1.506 1.353-3.043 2.032-4.572.234-.525.61-.99.819-1.524q.444-1.137.86-2.286c.537-1.485 1.074-2.99 1.51-4.487.186-.635.212-1.318.395-1.947.176-.604.378-1.167.438-1.778.064-.665.296-1.256.296-1.948 0-.24.08-.626-.226-.705-.523-.136-1.235.62-1.637.86-1.42.853-2.8 1.927-3.922 3.147-.947 1.03-1.773 2.144-2.64 3.232-.404.508-.63 1.136-.973 1.679-.876 1.388-1.764 2.81-2.413 4.332-.218.512-.34 1.066-.508 1.595-.32 1.002-.707 1.952-.96 2.963-.183.734-.269 1.534-.352 2.286-.024.211-.146.382-.17.593-.053.484.122.967.057 1.439-.071.513-.164 1.104-.325 1.595-.154.471-.546.755-.917 1.044-.968.753-2.483 1.51-3.725 1.51-.35 0-.953.116-1.27-.043-.871-.435-.678-1.713-.678-2.497 0-.525-.057-1.087 0-1.609.044-.39.201-.81.31-1.185.135-.46.093-.98.227-1.44.262-.9.457-1.808.72-2.709.25-.857.596-1.71.93-2.54.107-.265.113-.57.212-.847a23 23 0 0 1 1.835-3.894c.947-1.586 2.163-2.922 3.274-4.403.75-1.002 1.501-1.98 2.257-2.963.198-.257.492-.438.706-.678.227-.254.396-.583.635-.818.914-.898 1.979-1.676 2.95-2.498.494-.419.888-.983 1.368-1.397.928-.8 2.09-1.333 3.118-2.004.384-.25.8-.436 1.186-.677.248-.155.494-.346.762-.31.178-.417.736-.532 1.1-.79 1.226-.869 2.627-1.453 4.064-1.807.441-.108 1.598-.14 1.764.395.212.685-.064 1.547-.155 2.202-.145 1.041-.052 2.08-.17 3.132-.023.211-.145.382-.169.593-.043.388.06.8 0 1.185-.02.135-.12.212-.155.339-.074.27.023.571-.042.847-.172.726-.33 1.406-.536 2.116-.08.275.026.573-.043.847-.21.84-.322 1.694-.522 2.54-.163.692-.453 1.371-.691 2.032-.562 1.556-1.144 3.133-1.82 4.657-.876 1.97-1.903 3.809-2.964 5.672-.548.964-1.011 1.992-1.538 2.964-.844 1.557-1.941 2.943-2.907 4.402-.225.34-.406.689-.663 1.016-.481.614-1.17 1.025-1.736 1.553-.54.505-1.075 1.082-1.637 1.538-.914.74-2.011 1.226-2.949 1.933-.416.314-.814.707-1.213 1.044-.9.758-2.054 1.38-3.105 1.877-.69.326-1.355.677-2.032 1.016-.619.31-1.22.524-1.411 1.284-.136.542-.223 1.221-.17 1.778.028.277.099.653.029.931-.459 1.836-1.09 3.882-.819 5.842.072.515.279 1.11.452 1.609a25 25 0 0 0 1.397 3.217c.111.217.144.466.268.678.36.617.867 1.21 1.157 1.862.688 1.548.833 3.187.099 4.742-.456.966-1.105 2.388-2.018 3.005-.471.32-.977.268-1.496.268-.804 0-1.608.014-2.413 0-.332-.005-.588.142-.917.17-.43.036-.904-.08-1.326 0-.619.117-1.252.22-1.891.282-.334.032-.685-.048-1.016 0-.162.024-.265.145-.424.17-.248.038-.512-.028-.762 0-.754.083-1.81.37-2.455.79-.928.606-1.649 1.306-2.455 2.06-.312.291-.734.616-.988.96a24.4 24.4 0 0 0-2.484 4.233c-.187.41-.471.779-.663 1.185-.493 1.044-.84 2.122-1.129 3.217-.114.433-.34.841-.465 1.27-.25.857-.46 1.753-.678 2.625-.043.172.036.335 0 .508-.03.147-.134.275-.155.423-.08.577-.06 1.185-.127 1.778-.023.211-.146.382-.17.593-.055.502.05 1.021 0 1.524-.022.235-.146.443-.169.677-.07.719 0 1.48 0 2.202 0 .635-.07 1.316 0 1.947.024.211.146.382.17.593.256 2.308 1.154 4.45 1.947 6.604.418-.249.58-.757.776-1.186.501-1.092.325-2.363.325-3.556 0-.69-.002-1.338.367-1.947.19-.314.446-.406.72-.62.498-.393 1.027-.718 1.537-1.102 1.353-1.014 2.86-1.797 4.403-2.483.55-.244 1.148-.41 1.68-.663.687-.327 1.41-.681 2.13-.932 1.285-.447 2.64-.963 3.98-1.298 1.483-.37 2.965-.565 4.487-.776.183-.025.325-.144.508-.17.249-.034.513.035.762 0 .183-.025.325-.143.508-.169 1.005-.14 1.985-.238 2.963-.48.24-.058.499.04.734 0 .183-.03.34-.15.536-.169.251-.024.512.032.762 0 .208-.026.382-.146.593-.17.873-.096 1.745-.1 2.624-.112.229-.003.457-.134.678-.183.477-.107 1.043-.102 1.524-.156.334-.037.681.038 1.016 0 .21-.023.382-.146.592-.169.473-.052.969.065 1.44 0 .183-.025.325-.144.508-.17.692-.095 1.421.078 2.116 0 .211-.023.382-.145.593-.169.494-.055 1.027 0 1.524 0 .199 0 .497.06.65-.098.358-.375.112-1.213.112-1.68 0-.316-.136-.545-.17-.846-.036-.335.033-.681 0-1.016-.022-.234-.158-.443-.169-.678-.037-.868-.238-1.773-.451-2.624-.15-.599-.31-1.156-.31-1.778 0-.25.001-.547.197-.734.172-.166.416-.13.62-.184.374-.096.645-.155 1.045-.155 1.493 0 2.766.239 4.149.776.484.189 1.863.65 2.159-.042.061-.144-.036-.356-.042-.508-.024-.577-.033-1.052-.142-1.609-.028-.148.055-.278.057-.423.007-.487-.115-1.034-.17-1.524-.043-.39-.2-.81-.31-1.185-.365-1.25-.644-2.448-1.383-3.556-.419-.629-1.009-1.606-1.072-2.37-.022-.26-.091-.64.14-.82.395-.303 1.448-.139 1.863.029 1.2.483 2.115 1.423 2.85 2.483.217.312.303.694.509 1.016.268.42.414.913.635 1.355.813 1.626 1.428 3.249 1.961 4.995.671 2.196 1.496 4.448 1.496 6.774 0 .397.132.717.17 1.1.062.642.034 1.345-.142 1.948-.083.285-.036.496-.197.762-.45-.058-.91.047-1.355-.028-1.355-.23-2.71-.459-4.064-.635-.472-.062-.83.03-1.27.14-.273.069-.455-.01-.635.269-.312.483-.09.772-.042 1.27.043.443.082.833.155 1.27.07.416-.032.852.014 1.27.024.21.146.381.17.592.11.987.169 1.963.169 2.964 0 .377-.13.658-.17 1.016-.035.321-.007.538-.127.846-.077.2-.079.523-.296.635-.13.068-.364.015-.508.015-.62 0-1.107-.149-1.693-.31-.535-.149-1.183-.176-1.694-.382-.629-.254-1.315-.439-1.947-.72-.376-.167-.754-.431-1.157-.522-.378-.085-.754-.108-1.129-.183-.576-.115-1.629-.571-2.201-.268-.325.172-.376.666-.508.973-.265.615-.54 1.287-.875 1.863-.426.731-.82 1.534-1.355 2.187-.688.84-1.47 1.624-2.145 2.47-.457.573-.871 1.19-1.312 1.778-.17.227-.406.581-.663.72-.62.334-1.612-.192-2.173-.396-.271-.098-.597-.098-.875-.211-.86-.349-1.857-.7-2.794-.79-.636-.062-1.309 0-1.948 0-.847 0-1.786-.117-2.624 0-.183.025-.325.143-.508.169-.277.038-.569-.031-.847 0-.416.046-.867.198-1.27.31-.391.109-.861.052-1.242.184a27 27 0 0 1-1.552.465c-1.479.411-2.91.918-4.233 1.708-.264.157-.587.276-.819.48-1.348 1.185-2.511 2.448-3.457 3.965-.324.52-.527 1.14-.804 1.693-.602 1.203-1.25 2.359-1.849 3.556-.25.5-.417 1.031-.691 1.524-.9 1.62-1.973 3.07-2.921 4.657-1.225 2.05-2.259 4.343-4.022 5.94-1.566 1.42-3.695 2.175-5.673 2.752-.402.118-.86-.029-1.27.028-.182.026-.324.149-.508.17-.59.066-1.254 0-1.862 0-.492 0-1.038.067-1.524 0-.183-.026-.325-.144-.508-.17-.332-.046-.682.033-1.016 0-1.039-.1-2.127-.61-3.048-1.058-.349-.17-.755-.236-1.1-.423-1.266-.685-2.403-1.78-3.275-2.921-.592-.776-.937-1.734-1.495-2.526-.596-.845-1.051-1.752-1.58-2.639-.554-.927-1.36-1.73-1.85-2.71-.88-1.76-1.757-3.517-2.695-5.249-.457-.844-.771-1.778-1.241-2.624-.396-.712-.978-1.307-1.468-1.948-.36-.472-.64-.96-1.129-1.326-3.097-2.323-6.886-3.47-10.668-3.838-.26-.026-.502-.144-.762-.17-.967-.094-1.991 0-2.963 0-.52 0-1.095-.07-1.609 0-1.22.17-2.488.643-3.64 1.059-.452.163-.903.277-1.355.409-.208.06-.362.19-.593.113-.31-.104-.506-.413-.705-.65-.511-.603-.991-1.216-1.44-1.862-.177-.255-.441-.437-.635-.677-.947-1.176-2.14-2.33-2.78-3.726-.325-.71-.735-1.398-1.044-2.116-.164-.382-.195-.777-.593-1.002-.592-.335-1.278-.028-1.862.127-.237.063-.5-.043-.734 0-.2.036-.387.134-.593.17-.735.126-1.517.66-2.23.916-.905.327-1.842.533-2.793.692-.499.083-.91.17-1.44.17-.171 0-.436.05-.592-.029-.197-.098-.265-.43-.339-.62-.22-.566-.29-1.272-.282-1.864.006-.421-.044-.843-.014-1.27.016-.232.145-.445.155-.677.012-.277-.063-.57-.028-.847.023-.183.144-.325.17-.508.064-.464-.1-.983.013-1.439.038-.15.134-.266.155-.423.039-.277-.051-.573.029-.847.123-.422.266-.876-.057-1.27-.253-.308-1.033-.339-1.41-.339-.753 0-1.47.237-2.202.34-.53.073-1.072.057-1.58.14a17 17 0 0 0-1.299.268c-.218.055-.55.154-.748-.014-.327-.278-.191-.882-.296-1.242-.212-.728-.042-1.222.028-1.947.044-.447-.05-.908 0-1.355.024-.21.146-.381.17-.592.185-1.67.7-3.381 1.114-4.981.142-.546.469-1.078.635-1.623.204-.666.334-1.394.635-2.032.274-.58.617-1.121.903-1.694.345-.69.572-1.386 1.002-2.032.326-.488.728-.9 1.073-1.354.109-.144.133-.349.254-.48.51-.554 1.299-1.21 2.088-1.298.425-.047 1.43-.088 1.595.423.116.36-.026.77-.127 1.1-.309 1.01-.934 1.8-1.44 2.71-.424.764-.643 1.712-.804 2.54-.06.309-.222.619-.296.931-.066.279.003.566-.029.847-.045.413-.169.75-.169 1.185 0 .348-.133.602-.17.932-.036.33 0 .684 0 1.016 0 .32-.025.686.34.818.668.243 1.498-.285 2.116-.465 1.277-.373 2.383-.664 3.725-.664.467 0 .8.093 1.242.17.222.038.43.014.593.225.407.526.09 1.14.028 1.694-.05.45-.207.847-.324 1.27-.147.529-.171 1.081-.325 1.608-.212.728-.03 1.56-.212 2.286-.037.15-.133.267-.155.424-.076.55-.193 1.866.423 2.116.237.096.599.016.847 0 .4-.024.886-.036 1.27.029.853.144 1.68.057 2.54.14.26.026.502.145.762.17.42.04.85-.04 1.27 0 .235.023.443.147.677.17.74.071 1.466.051 2.202.112.234.02.45.118.677.156.414.069.852-.021 1.27.014.718.06 1.426.175 2.117.324.229.05.477-.012.705 0 .251.013.488.128.734.17.235.04.476-.029.706 0 .152.018.23.126.367.169.19.06.444-.039.649.014.45.116.949.26 1.41.31 2.839.316 5.528.85 8.298 1.58 1.208.32 2.41.906 3.556 1.384.545.227 1.163.377 1.693.635 1.144.556 2.383 1.013 3.472 1.693.607.38 1.168.815 1.778 1.2.864.544 2.155 1.15 2.61 2.144.518 1.13-.018 2.349.1 3.556.07.735.424 1.36.676 2.032.065.173.24.576.494.466.213-.092.235-.45.297-.635l.451-1.355c.38-1.137.658-2.254.988-3.386.08-.277.227-.565.282-.847.028-.144-.048-.278-.028-.423.028-.203.17-.39.198-.593.04-.296-.058-.625-.029-.931.066-.675.014-1.362-.014-2.032-.013-.31.06-.616.028-.932-.03-.312-.155-.61-.169-.93-.018-.445.067-.915 0-1.356-.383-2.51-.808-4.938-1.65-7.366-.243-.697-.412-1.433-.706-2.116-.25-.581-.626-1.114-.875-1.694-1.073-2.491-2.723-4.869-4.77-6.688-.183-.163-.4-.214-.593-.353-.95-.686-1.923-1.045-3.048-1.326-.372-.094-.807-.077-1.185-.156-.31-.064-.692.06-1.016.029-.211-.021-.388-.139-.593-.17-.274-.042-.569.023-.846 0-.237-.02-.446-.14-.678-.17-.416-.051-.85.036-1.27 0-.237-.019-.445-.14-.677-.168-.935-.117-1.977 0-2.893 0-.315 0-.79.103-1.086-.043-.643-.316-1.199-1.207-1.58-1.792-.138-.21-.186-.455-.297-.677-.461-.922-1.083-2.041-.72-3.133.251-.753 1.009-1.344 1.482-1.947.195-.249.305-.578.466-.847.496-.831.924-1.692 1.213-2.625.602-1.94 1.192-4.003.96-6.096-.024-.21-.146-.381-.17-.592-.064-.578-.078-1.123-.197-1.694-.107-.512-.346-1.014-.438-1.524-.089-.494-.24-1.028-.296-1.524-.064-.574-.02-1.153-.268-1.693-.247-.539-.835-.778-1.34-1.044-.866-.457-1.775-.843-2.625-1.327-1.185-.674-2.265-1.435-3.387-2.23-.33-.233-.596-.557-.931-.79-1.25-.868-2.497-1.636-3.64-2.652-.693-.615-1.412-1.26-2.033-1.948-.424-.47-.705-1.004-1.044-1.524-.545-.834-1.177-1.62-1.722-2.455-.66-1.011-1.172-2.15-1.735-3.217-.74-1.403-1.544-2.77-2.329-4.149-.273-.48-.4-1.026-.635-1.524-1.057-2.238-2.052-4.506-2.836-6.858a21 21 0 0 1-.847-3.64c-.054-.395-.039-.778-.14-1.186-.151-.6-.31-1.178-.452-1.778-.06-.25.019-.516-.043-.762-.037-.15-.133-.266-.155-.423-.05-.36.035-.74 0-1.1-.023-.236-.146-.443-.17-.678-.054-.56.055-1.134 0-1.694-.085-.884-.355-1.742-.281-2.624.022-.27-.118-.578-.029-.847.177-.53.52-.48.96-.48.639 0 1.28.116 1.89.353 2.727 1.06 5.093 2.886 7.62 4.29 1.437.798 2.593 2.205 3.81 3.288.235.208.528.3.763.508 1.873 1.665 3.48 3.695 4.854 5.757.412.619 1.041 1.095 1.482 1.693a34 34 0 0 1 2.102 3.218c.6 1.052 1.048 2.25 1.411 3.386.455 1.422 1.044 2.788 1.426 4.234a47 47 0 0 1 .691 3.048c.085.435.272.915.296 1.354.03.536-.07 1.142-.07 1.694 0 .636.03 1.123-.099 1.75-.029.139.028.232-.085.352-.351.374-1.319.227-1.764.184-1.163-.113-2.297-.642-3.302-1.242-.465-.278-.934-.612-1.157-1.129-.48-1.117-.337-2.38-.451-3.556-.046-.47-.18-.993-.31-1.44-.184-.627-.184-1.34-.368-1.96-.888-3.013-2.151-5.862-3.95-8.453-.531-.764-.943-1.619-1.496-2.37a19 19 0 0 0-3.444-3.585c-.894-.709-1.796-1.421-2.794-1.962-.448-.243-.848-.586-1.354-.72-.073.922.136 1.82.395 2.71.376 1.29.495 2.708.875 3.994.15.512.434.988.564 1.51.196.783.518 1.521.762 2.285.323 1.01.677 2.089 1.143 3.048.264.543.593 1.052.833 1.61.486 1.13.95 2.251 1.44 3.386.103.242.29.435.394.677.193.449.322.928.565 1.355.294.516.795.874 1.129 1.354 1.498 2.158 3.326 4.105 5.7 5.292 1.51.754 3.087 1.647 4.742 2.06.828.207 1.696.26 2.54.353.701.078 1.4.163 2.116.113.195-.014.408.073.579-.056.503-.382.336-.998.212-1.496-.148-.592-.309-1.26-.367-1.863-.036-.363.035-.737 0-1.1-.023-.233-.166-.445-.17-.678-.006-.462.12-.985.057-1.44a62 62 0 0 1-.31-2.54c-.023-.234-.147-.442-.17-.677-.032-.329.066-.694-.028-1.016a71 71 0 0 1-.706-2.624c-.846-3.385-2.93-6.498-4.924-9.314-.38-.536-.802-1.065-1.172-1.608-.835-1.227-1.474-2.523-2.483-3.64-.757-.839-1.624-1.536-2.456-2.287-.68-.615-1.299-1.384-2.032-1.933-.187-.14-.409-.214-.592-.367-.776-.646-1.476-1.396-2.286-2.004-1.411-1.058-2.859-2.042-4.403-2.92-1.472-.839-2.936-1.6-4.487-2.244-.947-.394-1.999-.542-2.964-.904-.934-.35-2.004-1.101-3.02-.917-.351.064-.596.48-.69.79-.229.746-.28 1.607-.311 2.371a39 39 0 0 0 .014 3.725c.03.558-.111 1.13-.057 1.694.023.235.147.442.17.677.027.28-.027.567 0 .847.105 1.08.4 2.162.649 3.217.303 1.284.506 2.555.889 3.81.914 2.991 1.865 5.93 2.893 8.89.308.888.836 1.692 1.213 2.54 1.008 2.268 1.83 4.565 3.274 6.604 1.165 1.644 2.609 3.06 4.036 4.487.955.956 1.876 1.974 2.878 2.88.737.664 1.593 1.168 2.286 1.862.216.216.572.462.664.762.23.75-.333 1.328-.72 1.862-1.138 1.57-3.126 1.863-4.939 1.863-.495 0-1.128.106-1.609-.014-1.149-.287-1.84-1.431-2.483-2.357-.77-1.11-1.62-2.14-2.314-3.302-.839-1.403-1.528-2.887-2.343-4.318-.638-1.121-1.355-2.221-2.06-3.302-.72-1.102-1.29-2.381-1.877-3.556-.407-.815-.649-1.727-1.044-2.54-.96-1.975-1.716-4.085-2.385-6.18-.453-1.42-1.166-2.737-1.637-4.149-.347-1.04-.656-2.098-1.016-3.133-.644-1.856-.897-3.872-1.368-5.757-.162-.646-.053-1.389-.24-2.032-.345-1.183-.317-2.508-.452-3.725-.023-.21-.163-.382-.17-.593-.019-.705-.05-1.419-.098-2.117-.014-.203-.135-.387-.155-.592-.103-1.062.118-2.158 0-3.218-.027-.24-.16-.43-.17-.677-.034-.833-.08-1.74.142-2.54.108-.389.243-.793.691-.903.609-.15 1.286.05 1.877.141 1.059.162 2.09.403 3.132.663.546.137 1.149.17 1.694.31 2.109.543 4.315 1.165 6.35 1.948 1.653.636 3.207 1.496 4.826 2.216 2.095.93 4.107 2.012 6.18 2.991 1.44.68 2.98 1.272 4.318 2.145 1.71 1.115 3.322 2.327 4.911 3.598.127.102.29.123.423.212.73.486 1.331 1.21 2.032 1.736.248.185.538.298.762.522 1.356 1.355 2.853 2.628 4.15 4.064 1.353 1.5 2.388 3.335 3.541 4.995 1.351 1.946 2.78 3.842 3.909 5.927.37.684.71 1.362 1.1 2.032.156.266.205.586.367.846.581.93 1.104 1.911 1.778 2.794.468.613 1.001 1.147 1.44 1.778.12.174.293.304.367.508.3.834-.053 1.668-.283 2.456a9.6 9.6 0 0 0-.324 1.778c-.015.18-.138.33-.155.508-.082.844-.216 1.684-.31 2.54-.024.21-.147.381-.17.592-.04.363.04.739 0 1.101-.024.211-.146.382-.17.593-.04.361.05.74 0 1.1-.025.183-.143.326-.169.508-.086.622 0 1.32 0 1.948 0 .746-.082 1.545 0 2.286.024.21.146.381.17.592.037.336-.05.685.028 1.016.415 1.757 1.064 3.335 1.961 4.911.668 1.173 1.637 2.118 2.13 3.387.157.4.134.78.213 1.185.384 1.976-.1 4.066.522 6.011.195.613.663 1.186 1.044 1.694.662.882 1.412 1.713 2.032 2.624 1.043 1.532 1.875 3.208 2.752 4.826.392.726.955 1.375 1.326 2.117.603 1.206.911 2.476 1.397 3.725.828 2.13 1.724 4.23 2.314 6.435.102.381.063.815.155 1.185.312 1.246.479 2.55.777 3.81.078.331-.005.681.028 1.016.025.26.144.502.17.762a19.5 19.5 0 0 1 0 3.556c-.026.26-.145.502-.17.762-.035.364.04.739 0 1.101-.024.211-.146.382-.17.593-.086.78.077 1.588 0 2.37-.022.235-.146.443-.169.678-.096.985-.034 1.93-.31 2.878-.113.386-.084.878-.127 1.27-.036.32-.223.62-.297.932-.118.502-.218.96-.437 1.44-.103.224-.148.54-.31.733-.637.755-1.595 1.222-2.414 1.764-1.24.82-2.43 1.673-3.5 2.723a97 97 0 0 0-1.184 1.186c-.207.21-.49.47-.508.79-.015.265.246.536.352.762.405.857.915 1.62 1.355 2.455.247.468.53.835.833 1.27.495.713.82 1.57 1.326 2.286.262.37.604.68.903 1.016.428.481.78.997 1.27 1.44 1.264 1.14 2.833 1.807 4.487 2.06 2.169.33 4.447-.634 6.096-2.004.86-.715 1.566-1.722 2.244-2.597.175-.225.24-.515.41-.733.142-.184.293-.316.394-.537.169-.367.3-.857.537-1.185.627-.867 1.128-1.809 1.622-2.766.3-.577.598-1.214.381-1.89-.175-.55-.815-.945-1.185-1.355-.245-.272-.404-.597-.677-.847-.95-.869-2.079-1.54-3.133-2.258-.788-.536-1.902-1.035-2.413-1.89-.292-.49-.413-1.152-.578-1.694-.348-1.137-.535-2.292-.65-3.471-.022-.235-.146-.443-.169-.678-.043-.447.05-.908 0-1.354-.023-.211-.146-.382-.17-.593-.083-.753.084-1.533 0-2.286-.02-.183-.135-.33-.154-.508-.034-.306.071-.63.042-.931-.186-1.911-.243-3.929-.057-5.842.138-1.411.493-2.79.833-4.149.048-.193-.014-.398.042-.593.387-1.325.93-2.59 1.383-3.894.142-.408.308-1.531.706-1.694m-7.536-51.548c.984-.245 2.069.156 3.048.156.348 0 .602-.133.932-.17a7.5 7.5 0 0 1 1.524 0c.21.024.381.146.592.17.717.08 1.495.036 2.202.183 1.297.27 2.556.652 3.81 1.058.89.289 1.81.543 2.709.805.525.153 1.135.264 1.51.691.542.619.588 1.516.804 2.258.345 1.183.344 2.416.48 3.64.046.413.17.75.17 1.186 0 .367.134.662.169 1.016.1 1.022 0 2.105 0 3.133 0 1.022.113 2.117 0 3.132-.024.211-.146.382-.17.593-.048.436.096.93-.028 1.355-.15.512-.32 1.023-.466 1.524-.088.301-.118.626-.211.931-.163.533-.494 1.016-.706 1.524-.092.222-.244.857-.536.889-.404.044-.856-.475-1.1-.72l-2.287-2.286-2.032-2.032c-.32-.32-.637-.735-1.016-.987-.668-.446-1.364-.892-2.032-1.327-1.176-.767-2.346-1.692-3.81-1.834-1.84-.18-3.39.532-4.854 1.566-.852.602-1.771 1.106-2.596 1.764-.749.596-1.436 1.4-2.103 2.088-.525.543-1.081 1.06-1.594 1.609-.25.267-.507.605-.819.804-.381.244-.81.212-1.242.212-.298 0-.66.062-.931-.085-.612-.331-.722-.912-.875-1.524-.122-.489-.322-.957-.451-1.439-.156-.583-.065-1.193-.113-1.778-.022-.26-.144-.502-.17-.762-.092-.948 0-1.923 0-2.879 0-1.063-.086-2.162-.042-3.217.015-.362.173-.67.212-1.016.09-.816.017-1.648.084-2.455.018-.212.146-.382.17-.593.121-1.093.323-2.082.649-3.133.12-.386.243-.868.536-1.17.433-.448.94-.534 1.496-.678.527-.137 1.02-.46 1.552-.593.139-.035.284-.001.423-.042 1.289-.376 2.59-.77 3.895-1.1.5-.128 1.018-.072 1.524-.142.157-.022.273-.118.423-.155.272-.068.572.024.847-.014.157-.022.273-.118.423-.156M41.995 78.825c-.117.287-.791.46-1.101.508-.403.061-.785.283-1.185.338-.356.05-.75-.073-1.101.014-2.086.522-4.946-.312-6.435-1.961-1.026-1.137-1.607-2.976-1.439-4.487.017-.157.083-.28.141-.424.363-.9 1.138-.689 1.891-.48.836.233 1.601.674 2.455.875.313.074.645-.003.96.057.674.128 1.304.141 2.004.141.292 0 .648.054.931-.028a25 25 0 0 0 2.032-.706c.735-.285 1.545-.612 2.187-1.086.629-.464 1.232-1.012 1.665-1.651.228-.337.46-.855.89-.988 1.055-.327 2.255.676 3.132 1.115.234.117.64.2.818.395.139.15.106.393.142.578.162.834-.313 1.58-.692 2.286-.216.403-.542.696-.832 1.03-.342.393-.627.845-1.002 1.228-.25.256-.601.43-.875.663a12.6 12.6 0 0 1-2.554 1.665c-.39.195-.797.369-1.186.579-.27.146-.57.375-.846.339m84.92-9.892c.226-.057.81-.088 1.016.028.203.114.244.373.367.55.369.531.833 1.1 1.327 1.524 1.07.922 2.479 1.542 3.81 2.004 1.12.389 2.448.5 3.64.367.211-.023.382-.146.593-.17.487-.053.938-.048 1.411-.155.866-.194 1.56-.832 2.484-.832.244 0 .54-.036.762.099.56.342.338 1.522.338 2.074 0 2.525-2.05 4.36-4.318 5.052a8.5 8.5 0 0 1-2.991.353c-.2-.014-.363-.133-.565-.156-.278-.03-.568.031-.846 0-1.102-.122-2.337-.62-3.302-1.143-.642-.347-1.189-.872-1.778-1.298-.983-.71-2.059-1.289-3.048-1.99-.348-.246-.521-.586-.776-.903-.617-.765-1.248-1.466-1.454-2.455-.072-.346-.17-.961.057-1.27.187-.255.632-.375.903-.522.73-.396 1.56-.955 2.37-1.157m-40.64 1.1c.233-.058.523-.014.762-.014.513 0 1.043.012 1.524.212 1.04.433 1.73 1.656 2.625 2.314 1.397 1.029 2.893 1.947 3.923 3.401.797 1.126 1.94 1.93 2.512 3.217.207.467.354 1.112.423 1.609.058.415-.058.855 0 1.27.08.57.237 1.084.17 1.693-.087.78-.4 1.536-.65 2.286-.257.772-.493 1.63-.988 2.286-.507.673-1.123 1.289-1.65 1.948-.102.127-.119.293-.212.423-.918 1.269-1.773 2.504-2.526 3.895-.164.302-.417.534-.565.846-.95 2.012-2.12 3.953-2.949 6.012-.254.63-.466 1.402-.875 1.947-.117.156-.233.406-.423.48-.15.058-.35.028-.508.028-.233 0-.557.054-.748-.113-.495-.43-.68-1.43-.96-2.004-.748-1.54-1.491-3.066-2.328-4.572-.584-1.051-.984-2.217-1.665-3.217-.656-.964-1.236-2.026-1.947-2.95-.843-1.093-1.752-2.06-2.484-3.23-.267-.427-.336-.971-.48-1.44-.193-.632-.437-1.234-.62-1.863-.152-.52-.029-1.236-.029-1.778 0-1.388.08-3 .776-4.233.553-.978 1.408-1.856 2.174-2.653.11-.114.12-.271.211-.395.404-.547 1.01-.982 1.482-1.453.86-.86 1.727-1.678 2.808-2.286 1.005-.567 2.057-1.375 3.217-1.666m-35.898 5.603c.874-.136.896.612 1.114 1.241.1.285.038.552.07.847.024.21.147.382.17.593.046.412-.08.717-.155 1.1-.121.625-.184 1.248-.38 1.863-.864 2.702-3.137 4.56-5.377 6.138-.9.635-1.85 1.503-2.978 1.722-.205.04-.468-.017-.677-.014-.346.005-.7.041-1.016-.17-.388-.258-.536-.666-.706-1.072-.277-.666-.498-1.384-.804-2.032-.385-.814-1.13-1.846-.748-2.794.098-.242.589-.45.819-.536.775-.29 1.597-.37 2.37-.65 1.472-.53 2.752-1.313 3.98-2.257.505-.389 1.07-.744 1.51-1.214.67-.716 1.34-1.453 2.031-2.145.227-.226.433-.567.777-.62m72.474 0c.507-.078.966.5 1.27.818.914.953 1.805 1.915 2.794 2.794.184.163.397.23.593.367 1.24.861 2.441 1.752 3.895 2.244.721.244 1.486.37 2.2.649.322.124.69.168.918.465.45.585.018 1.397-.211 1.948-.306.734-.634 1.46-.932 2.201-.366.91-.636 1.89-1.721 2.13-.369.083-.585-.043-.932-.112-1.067-.214-2.138-.98-2.963-1.68-.395-.334-.85-.583-1.27-.874-.438-.304-.792-.717-1.185-1.073-.676-.61-1.416-1.26-1.92-2.032-.587-.9-.958-1.943-1.27-2.963-.379-1.241-.366-2.485-.056-3.725.115-.459.235-1.073.79-1.157m-85.598 24.61c.593-.484.429-1.974-.423-2.131-.426-.08-.912 0-1.34 0h-2.795c-.667 0-1.495-.15-2.13.084-.453.167-1.917.259-2.103-.324-.188-.59.136-1.397.296-1.948.057-.193 0-.399.057-.592.27-.925.491-1.918.917-2.794.266-.547.47-1.126.692-1.694.086-.221.198-.43.112-.677-.208-.6-.87-.857-1.41-1.044-.556-.193-.995-.568-1.525-.819-1.098-.518-2.713-.885-2.342-2.455.124-.525.52-.9.776-1.355.252-.446.692-.97 1.072-1.326 1.025-.958 2.726-1.524 4.135-1.27.621.112 1.241.296 1.863.451.607.152 1.343.253 1.862.635.875.644 1.41 1.593 1.877 2.526.296.592.597 1.135.776 1.778.141.508.48 1.07.48 1.609 0 .295-.19.584-.296.847-.24.596-.518 1.207-.819 1.778-.15.283-.628.757-.451 1.1.14.271.468.27.72.367.75.292 1.539.44 2.285.762 1.423.613 2.602 1.852 3.175 3.274.233.577.212 1.162.212 1.778 0 .268.047.588-.028.847-.126.431-.34.851-.508 1.27-.17.423-.774 1.43-.381 1.862.21.232.758.1 1.03.1.936 0 1.834-.047 2.766.225.535.156 1.153.443 1.524.86.23.26.358.588.592.847 1.037 1.148 2.124 2.209 3.218 3.302.413.413.841.794 1.27 1.186.17.156.366.34.338.592-.042.385-.746.254-1.016.254-1.058 0-2.095-.237-3.132-.338-.57-.056-1.138-.262-1.694-.339-.775-.108-1.516-.143-2.286-.282-1.866-.337-3.661-.8-5.588-.988-.858-.083-1.665-.17-2.54-.17-.243 0-.798.105-1.002-.042-.139-.1-.098-.318-.098-.465 0-.467.114-.828.169-1.27.056-.446.214-.846.296-1.27.186-.954.376-1.871.748-2.794.158-.393.29-.79.438-1.186.11-.292.27-.441.211-.762m107.781-1.947c-.535-.069-1.073.01-1.609-.014-.26-.012-.475-.17-.733-.184-1.365-.071-2.76.11-4.177.029-.807-.047-2.089-.254-2.427.762-.103.308.026.564.112.846.185.605.486 1.179.678 1.778.181.568.42 1.128.592 1.694.357 1.167.495 2.42.847 3.556.1.325-.02.692.028 1.016-.561.354-1.214.254-1.862.254-.443 0-.77.111-1.186.169-.304.042-.625-.034-.931 0-.211.023-.382.146-.593.17-.278.03-.57-.04-.846 0-.467.064-.903.189-1.34.31-.186.05-.394-.02-.58 0-.393.043-.822.211-1.213.31-.706.18-1.5.135-2.201.339-.607.177-1.23.24-1.863.31-.271.03-.48.166-.762.17-.34.005-.611.15-.931.169-.792.046-1.547.141-2.343.141-.193 0-.974.144-1.002-.141-.022-.223.236-.4.381-.522.498-.418.972-.817 1.44-1.27.79-.766 1.765-1.564 2.427-2.441.768-1.02 1.613-2.339 2.907-2.681.834-.221 1.727-.17 2.624-.17.321 0 .927.033 1.172-.211.146-.147.12-.475.084-.664-.103-.532-.436-1.098-.635-1.608-.562-1.446-.64-2.91.141-4.318.795-1.435 2.364-2.298 3.895-2.766.598-.183 1.594-.167 2.004-.72.174-.235-.21-.79-.325-1.002-.519-.958-.986-1.794-1.227-2.878-.086-.387.167-.981.282-1.355.471-1.543 1.322-3.371 2.653-4.374.505-.381 1.276-.48 1.862-.635s1.181-.358 1.778-.466c1.275-.23 2.714.187 3.726.889.165.114.349.134.508.268.326.277.475.594.705.931.518.76 1.704 1.909 1.298 2.964-.14.367-.675.503-.987.677-1.009.56-2.097 1.048-3.133 1.566-.403.202-1.246.435-1.298.974-.022.22.16.407.24.593.164.382.387.796.522 1.185.504 1.453 1.148 2.942 1.298 4.487.062.64.37 1.253 0 1.863m-99.23-8.086c.515.015 1 .1 1.44.41.387.272.557.767.79 1.157.52.869.987 1.765 1.524 2.624.554.886 1.354 1.636 2.089 2.371l6.434 6.435c.854.854 1.733 1.65 2.625 2.455.508.459.965 1.03 1.524 1.425a61 61 0 0 0 5.588 3.542c.49.272 1.013.492 1.524.748.542.271 1.146.377 1.609.79.421.377.43.687.536 1.2.198.95.195 1.986.141 2.963-.011.197-.109.323-.155.508-.095.378.002.788-.522.847-1.112.125-2.149-.73-3.048-1.242-.977-.556-2.01-1.03-2.964-1.665-.472-.315-.88-.727-1.34-1.044-.749-.516-1.535-1.07-2.3-1.58-.573-.383-1.045-.913-1.609-1.313-.438-.31-.953-.6-1.355-.946-1.027-.885-1.95-1.893-2.963-2.794-.183-.163-.397-.23-.593-.367-.65-.45-1.274-1.049-1.862-1.58-1.298-1.171-2.49-2.49-3.726-3.725-1.234-1.235-2.636-2.32-3.81-3.641-1.163-1.308-2.281-2.89-2.991-4.487-.263-.59-.51-1.538-.028-2.089.416-.477 1.286-.544 1.834-.72.504-.16 1.074-.297 1.609-.282m56.303 27.39c0-.315-.136-.546-.17-.847-.12-1.09-.034-2.328.128-3.386.04-.26-.02-.427.127-.678.359-.615.91-.827 1.524-1.1.654-.291 1.326-.61 1.947-.946 2.22-1.202 4.497-2.608 6.435-4.247.368-.312.697-.704 1.044-1.044.5-.492 1.069-.933 1.58-1.412 1.315-1.229 2.495-2.607 3.81-3.838.933-.872 1.778-1.837 2.71-2.71.584-.545 1.236-1.103 1.75-1.72 1.255-1.512 1.888-3.42 3.146-4.911.855-1.013 2.874-.445 3.909-.043.403.157.884.158 1.157.55.51.734.004 1.684-.282 2.371-.334.802-.83 1.535-1.355 2.216-.107.139-.106.336-.226.465-.37.403-.667.85-1.016 1.285-.524.652-1.218 1.208-1.806 1.806-1.348 1.371-2.676 2.804-4.092 4.106-.588.541-1.198 1.024-1.736 1.609-.249.27-.606.401-.875.635-.884.768-1.859 1.488-2.723 2.286-.491.453-.92.966-1.44 1.397-1.166.969-2.41 1.874-3.64 2.766-.888.643-1.71 1.365-2.625 1.961-.54.353-1.058.763-1.608 1.115-.674.43-1.433.748-2.117 1.157-1.11.663-2.227 1.402-3.556 1.157m-43.434-20.63c.598-.067 1.101.075 1.693.14 1.763.197 3.642.22 5.165 1.384 1.114.85 1.96 2.09 2.667 3.273.767 1.285 1.143 2.575 1.143 4.064 0 .743-.072 1.535-.931 1.75-1.058.264-2.324-.573-3.218-1.044-1.326-.7-2.442-1.672-3.64-2.554-1.32-.971-2.525-1.996-3.641-3.232-.57-.631-1.257-1.6-1.185-2.455.02-.245-.163-.613.028-.804.418-.419 1.368-.461 1.919-.522m54.525 0c.825-.15 1.662.042 2.456.14.34.043.823.067 1.072.353.167.192.113.516.113.748 0 .835-.56 1.731-1.058 2.357-1.67 2.096-4.005 3.49-6.125 5.122-.684.528-1.454.904-2.215 1.327-.487.27-1.048.632-1.609.733-.315.057-1.176.1-1.41-.155-.32-.347-.283-.99-.283-1.425 0-.47-.052-.973 0-1.44.07-.625.468-1.492.79-2.031 1.005-1.682 2.143-3.773 3.951-4.728.954-.503 2.039-.583 3.048-.832.28-.07.582.05.861-.014.142-.033.265-.13.41-.155m-26.84 37.07c1.384-.347 2.637 1.052 3.64 1.735.736.5 1.483 1.009 2.202 1.538.509.375 1.185.775 1.482 1.369.077.154.029.343.056.508.07.42.133 1.025-.056 1.44-.159.345-.393.66-.55 1.015-.206.462-.51.83-.749 1.27-.992 1.832-2.602 3.563-4.755 3.951-1.029.186-2.401-.092-3.302-.592-.316-.176-.551-.424-.847-.621-.313-.21-.582-.324-.846-.621-.728-.819-1.234-1.793-1.807-2.71a13 13 0 0 1-1.016-2.031c-.15-.372-.284-.685-.197-1.101.15-.72.808-1.127 1.298-1.609.599-.588 1.46-.983 2.145-1.467 1.058-.75 2.008-1.751 3.302-2.075" style="display:inline;fill:#050505;stroke:none"/></g></svg>