<?xml version="1.0" encoding="UTF-8" standalone="no"?>
<svg
   xml:space="preserve"
   width="655.36"
   height="655.36"
   viewBox="0 0 173.397 173.397"
   version="1.1"
   id="svg2"
   sodipodi:docname="T_Icon_Map_SkillPoint.svg"
   inkscape:version="1.4.2 (f4327f4, 2025-05-13)"
   xmlns:inkscape="http://www.inkscape.org/namespaces/inkscape"
   xmlns:sodipodi="http://sodipodi.sourceforge.net/DTD/sodipodi-0.dtd"
   xmlns="http://www.w3.org/2000/svg"
   xmlns:svg="http://www.w3.org/2000/svg"><defs
     id="defs2" /><sodipodi:namedview
     id="namedview2"
     pagecolor="#ffffff"
     bordercolor="#000000"
     borderopacity="0.25"
     inkscape:showpageshadow="2"
     inkscape:pageopacity="0.0"
     inkscape:pagecheckerboard="0"
     inkscape:deskcolor="#d1d1d1"
     inkscape:zoom="0.62179567"
     inkscape:cx="293.50478"
     inkscape:cy="312.80372"
     inkscape:window-width="1920"
     inkscape:window-height="1017"
     inkscape:window-x="-8"
     inkscape:window-y="-8"
     inkscape:window-maximized="1"
     inkscape:current-layer="svg2" /><g
     style="display:inline"
     id="g1"><path
       d="M61.213 223.267c-.568-7.591 27.43-10.813 41.761-11.003 17.233-.228 46.104 3.286 46.237 10.552.125 6.831-23.438 10.398-44.257 10.662-16.907.214-43.248-3.616-43.741-10.211"
       style="display:inline;fill:#000;fill-opacity:.2;stroke-width:.264583"
       transform="translate(-18.34 -61.733)"
       id="path1" /></g><g
     style="display:inline"
     id="g2"
     transform="matrix(1.1432902,0,0,1.1432902,-1.2497649,-21.283455)"><path
       d="m 100.16,28.956 c -0.633,-0.367 -1.2,-1.17 -2.031,-1.1 -0.933,0.077 -1.484,0.738 -1.665,1.608 -0.059,0.28 0.009,0.568 -0.057,0.847 -0.298,1.26 -0.439,2.601 -0.564,3.894 -0.036,0.364 0.035,0.738 0,1.101 -0.102,1.047 -0.322,2.086 -0.424,3.133 -0.15,1.552 -0.272,3.103 -0.423,4.656 -0.025,0.26 -0.144,0.502 -0.17,0.762 -0.035,0.364 0.036,0.738 0,1.101 -0.136,1.404 -0.307,2.893 -0.169,4.318 0.196,2.012 0.477,4.066 1.045,6.011 0.174,0.597 0.405,1.215 0.663,1.778 0.114,0.249 0.369,0.576 0.395,0.847 0.034,0.352 -0.304,0.872 -0.452,1.185 -0.298,0.633 -0.522,1.296 -0.776,1.948 -0.92,2.367 -1.828,4.759 -3.132,6.942 -0.479,0.801 -0.999,1.745 -1.722,2.357 -0.527,0.446 -1.257,0.801 -1.863,1.129 -2.318,1.256 -4.787,1.932 -7.366,2.47 -2.038,0.424 -4.104,0.785 -6.18,0.987 -0.93,0.09 -1.865,0.079 -2.794,0.17 -1.747,0.17 -3.493,0.367 -5.25,0.465 -0.978,0.054 -1.982,-0.053 -2.963,0.042 -0.34,0.033 -0.676,0.137 -1.016,0.17 -0.42,0.04 -0.85,-0.041 -1.27,0 -0.993,0.096 -1.994,0.322 -2.963,0.564 -1.188,0.297 -2.399,0.501 -3.556,0.903 -1.38,0.48 -2.82,0.967 -4.149,1.595 -3.45,1.628 -6.681,3.886 -9.652,6.28 -2.644,2.129 -5.018,4.556 -7.535,6.829 -0.46,0.415 -0.874,0.895 -1.284,1.355 -1.044,1.17 -2.235,2.22 -3.288,3.386 -0.797,0.882 -1.615,1.785 -2.456,2.625 -0.785,0.786 -1.714,1.456 -2.54,2.201 -0.901,0.814 -1.93,1.478 -2.878,2.23 -1.366,1.081 -2.643,2.323 -4.064,3.33 -1.955,1.385 -3.979,2.7 -5.927,4.106 -1.29,0.932 -3.406,1.909 -3.556,3.712 -0.023,0.28 0.055,0.656 0.113,0.931 0.441,2.117 2.747,3.174 4.459,4.078 2.265,1.195 4.445,2.165 7.027,2.427 2.642,0.268 5.384,-0.53 7.959,-1.03 1.622,-0.315 3.228,-0.721 4.826,-1.143 0.406,-0.107 1.36,-0.548 1.693,-0.268 0.356,0.3 0.621,0.804 0.875,1.185 0.664,0.996 1.252,2.026 1.863,3.048 0.965,1.616 2.239,3.122 3.02,4.826 1.218,2.66 2.39,5.395 4.12,7.79 0.256,0.354 0.446,0.75 0.706,1.1 0.635,0.86 1.594,1.535 2.455,2.145 0.209,0.148 0.365,0.343 0.593,0.466 0.894,0.484 1.877,0.665 2.878,0.776 0.467,0.052 0.87,0.216 1.355,0.17 0.26,-0.026 0.502,-0.145 0.762,-0.17 1.154,-0.112 2.236,-0.244 3.302,-0.762 1.109,-0.539 2.05,-1.287 2.963,-2.088 0.315,-0.277 0.702,-0.453 1.016,-0.734 0.208,-0.185 0.296,-0.43 0.452,-0.65 0.299,-0.422 0.666,-0.742 0.79,-1.27 0.25,-1.057 0.132,-1.842 -0.113,-2.878 -0.12,-0.507 -0.127,-1.033 -0.324,-1.524 -0.68,-1.688 -1.945,-3.061 -3.034,-4.487 -0.606,-0.793 -1.44,-1.381 -1.905,-2.286 -0.202,-0.394 -0.276,-0.848 -0.381,-1.27 -0.068,-0.272 -0.254,-0.559 -0.226,-0.847 0.04,-0.407 0.43,-0.857 0.65,-1.185 0.487,-0.732 0.897,-1.357 1.551,-1.948 0.209,-0.188 0.414,-0.461 0.678,-0.578 0.224,-0.1 0.33,0.061 0.451,0.24 0.242,0.357 0.433,0.801 0.635,1.185 0.946,1.792 2.039,3.41 3.316,4.995 0.9,1.116 1.87,2.27 3.048,3.105 1.574,1.115 3.732,1.372 5.588,1.552 0.897,0.087 1.795,0.258 2.71,0.17 2.099,-0.205 4.464,-1.21 5.56,-3.133 0.912,-1.604 0.734,-3.64 0.31,-5.334 -0.203,-0.81 -0.34,-1.612 -0.72,-2.371 -0.344,-0.689 -0.897,-1.203 -1.51,-1.637 -0.25,-0.178 -0.424,-0.445 -0.677,-0.62 -0.986,-0.685 -2.02,-1.288 -2.879,-2.146 -0.458,-0.458 -1.185,-0.965 -1.354,-1.608 0.822,-0.065 1.639,-0.285 2.455,-0.41 0.756,-0.115 1.527,-0.183 2.286,-0.268 0.211,-0.023 0.382,-0.146 0.593,-0.169 1.411,-0.157 2.803,-0.423 4.233,-0.423 0.828,0 1.638,0.005 2.455,0.084 0.19,0.019 0.415,-0.048 0.593,0.043 0.226,0.114 0.344,0.369 0.508,0.55 0.494,0.547 0.926,1.117 1.383,1.693 0.94,1.188 1.945,2.317 2.822,3.556 0.452,0.639 0.855,1.318 1.327,1.948 a 56,56 0 0 1 4.148,6.434 c 0.58,1.044 1.298,2.007 1.891,3.048 0.464,0.815 0.893,1.678 1.411,2.456 a 303,303 0 0 0 3.246,4.741 c 0.482,0.694 0.897,1.443 1.41,2.117 0.358,0.467 0.774,0.889 1.13,1.354 0.557,0.73 0.978,1.54 1.496,2.286 1.118,1.61 2.542,3.104 4.29,4.05 3.366,1.824 7.647,1.658 11.09,0.127 0.925,-0.41 2.019,-0.956 2.71,-1.721 1.176,-1.303 1.686,-3.29 1.355,-4.996 -0.164,-0.84 -0.393,-1.687 -0.776,-2.455 -0.67,-1.34 -1.457,-2.402 -2.526,-3.471 1.318,-0.382 2.427,-0.71 3.471,-1.694 1.788,-1.684 2.217,-4.749 1.016,-6.858 -0.597,-1.048 -1.509,-1.813 -2.37,-2.624 -0.667,-0.628 -1.214,-1.383 -1.863,-2.032 -0.21,-0.21 -0.463,-0.368 -0.664,-0.593 -1.434,-1.608 -2.587,-3.446 -3.584,-5.334 -0.604,-1.144 -1.718,-2.129 -1.848,-3.471 -0.127,-1.298 -0.038,-2.766 0.451,-3.98 0.497,-1.232 1.2,-2.38 1.82,-3.556 2.132,-4.039 5.043,-7.591 6.76,-11.853 0.344,-0.854 0.61,-1.741 0.818,-2.625 0.14,-0.591 0.475,-1.107 0.621,-1.693 0.228,-0.91 0.5,-1.814 0.762,-2.71 0.514,-1.763 0.699,-3.688 0.875,-5.503 0.117,-1.202 -0.117,-2.438 0,-3.64 0.033,-0.34 0.136,-0.676 0.17,-1.016 0.141,-1.46 0.027,-2.945 0.169,-4.403 0.119,-1.226 -0.255,-2.611 0.028,-3.81 0.245,-1.037 0.905,-2.031 1.397,-2.963 0.802,-1.52 1.668,-2.993 2.667,-4.403 1.124,-1.587 2.51,-3.002 3.429,-4.741 0.475,-0.9 0.93,-1.76 1.03,-2.794 0.059,-0.603 -0.143,-1.184 -0.085,-1.778 0.047,-0.48 0.273,-0.997 0.452,-1.44 0.505,-1.254 1.005,-2.514 1.383,-3.81 0.225,-0.772 0.205,-1.66 0.282,-2.455 0.09,-0.925 0.145,-1.835 -0.268,-2.71 a 3.6,3.6 0 0 0 -0.663,-0.93 c -2.188,-2.283 -5.59,-0.546 -8.213,-0.255 -1.124,0.125 -2.26,0.06 -3.387,0.17 -1.448,0.14 -3.054,0.35 -4.487,-0.029 -0.768,-0.202 -1.406,-0.891 -2.117,-1.227 -1.157,-0.547 -2.394,-0.76 -3.64,-1.002 a 21,21 0 0 0 -4.064,-0.367 c -0.361,0 -0.742,-0.035 -1.101,0 -0.215,0.02 -0.466,0.161 -0.677,0.042 -0.186,-0.104 -0.288,-0.382 -0.41,-0.55 -0.472,-0.654 -0.865,-1.362 -1.312,-2.032 a 140,140 0 0 0 -2.992,-4.318 c -0.708,-0.981 -1.42,-2.046 -2.483,-2.681 -1.026,-0.613 -2.446,-0.527 -3.034,0.649 -0.37,0.74 -0.22,1.533 -0.437,2.286 z"
       id="skillPoint_svg"
       display="inline"
       fill="currentColor"
       stroke="#000000"
       stroke-width="2" /><path
       d="m 100.16,28.956 c -0.633,-0.367 -1.2,-1.17 -2.031,-1.1 -0.933,0.077 -1.484,0.738 -1.665,1.608 -0.059,0.28 0.009,0.568 -0.057,0.847 -0.298,1.26 -0.439,2.601 -0.564,3.894 -0.036,0.364 0.035,0.738 0,1.101 -0.102,1.047 -0.322,2.086 -0.424,3.133 -0.15,1.552 -0.272,3.103 -0.423,4.656 -0.025,0.26 -0.144,0.502 -0.17,0.762 -0.035,0.364 0.036,0.738 0,1.101 -0.136,1.404 -0.307,2.893 -0.169,4.318 0.196,2.012 0.477,4.066 1.045,6.011 0.174,0.597 0.405,1.215 0.663,1.778 0.114,0.249 0.369,0.576 0.395,0.847 0.034,0.352 -0.304,0.872 -0.452,1.185 -0.298,0.633 -0.522,1.296 -0.776,1.948 -0.92,2.367 -1.828,4.759 -3.132,6.942 -0.479,0.801 -0.999,1.745 -1.722,2.357 -0.527,0.446 -1.257,0.801 -1.863,1.129 -2.318,1.256 -4.787,1.932 -7.366,2.47 -2.038,0.424 -4.104,0.785 -6.18,0.987 -0.93,0.09 -1.865,0.079 -2.794,0.17 -1.747,0.17 -3.493,0.367 -5.25,0.465 -0.978,0.054 -1.982,-0.053 -2.963,0.042 -0.34,0.033 -0.676,0.137 -1.016,0.17 -0.42,0.04 -0.85,-0.041 -1.27,0 -0.993,0.096 -1.994,0.322 -2.963,0.564 -1.188,0.297 -2.399,0.501 -3.556,0.903 -1.38,0.48 -2.82,0.967 -4.149,1.595 -3.45,1.628 -6.681,3.886 -9.652,6.28 -2.644,2.129 -5.018,4.556 -7.535,6.829 -0.46,0.415 -0.874,0.895 -1.284,1.355 -1.044,1.17 -2.235,2.22 -3.288,3.386 -0.797,0.882 -1.615,1.785 -2.456,2.625 -0.785,0.786 -1.714,1.456 -2.54,2.201 -0.901,0.814 -1.93,1.478 -2.878,2.23 -1.366,1.081 -2.643,2.323 -4.064,3.33 -1.955,1.385 -3.979,2.7 -5.927,4.106 -1.29,0.932 -3.406,1.909 -3.556,3.712 -0.023,0.28 0.055,0.656 0.113,0.931 0.441,2.117 2.747,3.174 4.459,4.078 2.265,1.195 4.445,2.165 7.027,2.427 2.642,0.268 5.384,-0.53 7.959,-1.03 1.622,-0.315 3.228,-0.721 4.826,-1.143 0.406,-0.107 1.36,-0.548 1.693,-0.268 0.356,0.3 0.621,0.804 0.875,1.185 0.664,0.996 1.252,2.026 1.863,3.048 0.965,1.616 2.239,3.122 3.02,4.826 1.218,2.66 2.39,5.395 4.12,7.79 0.256,0.354 0.446,0.75 0.706,1.1 0.635,0.86 1.594,1.535 2.455,2.145 0.209,0.148 0.365,0.343 0.593,0.466 0.894,0.484 1.877,0.665 2.878,0.776 0.467,0.052 0.87,0.216 1.355,0.17 0.26,-0.026 0.502,-0.145 0.762,-0.17 1.154,-0.112 2.236,-0.244 3.302,-0.762 1.109,-0.539 2.05,-1.287 2.963,-2.088 0.315,-0.277 0.702,-0.453 1.016,-0.734 0.208,-0.185 0.296,-0.43 0.452,-0.65 0.299,-0.422 0.666,-0.742 0.79,-1.27 0.25,-1.057 0.132,-1.842 -0.113,-2.878 -0.12,-0.507 -0.127,-1.033 -0.324,-1.524 -0.68,-1.688 -1.945,-3.061 -3.034,-4.487 -0.606,-0.793 -1.44,-1.381 -1.905,-2.286 -0.202,-0.394 -0.276,-0.848 -0.381,-1.27 -0.068,-0.272 -0.254,-0.559 -0.226,-0.847 0.04,-0.407 0.43,-0.857 0.65,-1.185 0.487,-0.732 0.897,-1.357 1.551,-1.948 0.209,-0.188 0.414,-0.461 0.678,-0.578 0.224,-0.1 0.33,0.061 0.451,0.24 0.242,0.357 0.433,0.801 0.635,1.185 0.946,1.792 2.039,3.41 3.316,4.995 0.9,1.116 1.87,2.27 3.048,3.105 1.574,1.115 3.732,1.372 5.588,1.552 0.897,0.087 1.795,0.258 2.71,0.17 2.099,-0.205 4.464,-1.21 5.56,-3.133 0.912,-1.604 0.734,-3.64 0.31,-5.334 -0.203,-0.81 -0.34,-1.612 -0.72,-2.371 -0.344,-0.689 -0.897,-1.203 -1.51,-1.637 -0.25,-0.178 -0.424,-0.445 -0.677,-0.62 -0.986,-0.685 -2.02,-1.288 -2.879,-2.146 -0.458,-0.458 -1.185,-0.965 -1.354,-1.608 0.822,-0.065 1.639,-0.285 2.455,-0.41 0.756,-0.115 1.527,-0.183 2.286,-0.268 0.211,-0.023 0.382,-0.146 0.593,-0.169 1.411,-0.157 2.803,-0.423 4.233,-0.423 0.828,0 1.638,0.005 2.455,0.084 0.19,0.019 0.415,-0.048 0.593,0.043 0.226,0.114 0.344,0.369 0.508,0.55 0.494,0.547 0.926,1.117 1.383,1.693 0.94,1.188 1.945,2.317 2.822,3.556 0.452,0.639 0.855,1.318 1.327,1.948 a 56,56 0 0 1 4.148,6.434 c 0.58,1.044 1.298,2.007 1.891,3.048 0.464,0.815 0.893,1.678 1.411,2.456 a 303,303 0 0 0 3.246,4.741 c 0.482,0.694 0.897,1.443 1.41,2.117 0.358,0.467 0.774,0.889 1.13,1.354 0.557,0.73 0.978,1.54 1.496,2.286 1.118,1.61 2.542,3.104 4.29,4.05 3.366,1.824 7.647,1.658 11.09,0.127 0.925,-0.41 2.019,-0.956 2.71,-1.721 1.176,-1.303 1.686,-3.29 1.355,-4.996 -0.164,-0.84 -0.393,-1.687 -0.776,-2.455 -0.67,-1.34 -1.457,-2.402 -2.526,-3.471 1.318,-0.382 2.427,-0.71 3.471,-1.694 1.788,-1.684 2.217,-4.749 1.016,-6.858 -0.597,-1.048 -1.509,-1.813 -2.37,-2.624 -0.667,-0.628 -1.214,-1.383 -1.863,-2.032 -0.21,-0.21 -0.463,-0.368 -0.664,-0.593 -1.434,-1.608 -2.587,-3.446 -3.584,-5.334 -0.604,-1.144 -1.718,-2.129 -1.848,-3.471 -0.127,-1.298 -0.038,-2.766 0.451,-3.98 0.497,-1.232 1.2,-2.38 1.82,-3.556 2.132,-4.039 5.043,-7.591 6.76,-11.853 0.344,-0.854 0.61,-1.741 0.818,-2.625 0.14,-0.591 0.475,-1.107 0.621,-1.693 0.228,-0.91 0.5,-1.814 0.762,-2.71 0.514,-1.763 0.699,-3.688 0.875,-5.503 0.117,-1.202 -0.117,-2.438 0,-3.64 0.033,-0.34 0.136,-0.676 0.17,-1.016 0.141,-1.46 0.027,-2.945 0.169,-4.403 0.119,-1.226 -0.255,-2.611 0.028,-3.81 0.245,-1.037 0.905,-2.031 1.397,-2.963 0.802,-1.52 1.668,-2.993 2.667,-4.403 1.124,-1.587 2.51,-3.002 3.429,-4.741 0.475,-0.9 0.93,-1.76 1.03,-2.794 0.059,-0.603 -0.143,-1.184 -0.085,-1.778 0.047,-0.48 0.273,-0.997 0.452,-1.44 0.505,-1.254 1.005,-2.514 1.383,-3.81 0.225,-0.772 0.205,-1.66 0.282,-2.455 0.09,-0.925 0.145,-1.835 -0.268,-2.71 a 3.6,3.6 0 0 0 -0.663,-0.93 c -2.188,-2.283 -5.59,-0.546 -8.213,-0.255 -1.124,0.125 -2.26,0.06 -3.387,0.17 -1.448,0.14 -3.054,0.35 -4.487,-0.029 -0.768,-0.202 -1.406,-0.891 -2.117,-1.227 -1.157,-0.547 -2.394,-0.76 -3.64,-1.002 a 21,21 0 0 0 -4.064,-0.367 c -0.361,0 -0.742,-0.035 -1.101,0 -0.215,0.02 -0.466,0.161 -0.677,0.042 -0.186,-0.104 -0.288,-0.382 -0.41,-0.55 -0.472,-0.654 -0.865,-1.362 -1.312,-2.032 a 140,140 0 0 0 -2.992,-4.318 c -0.708,-0.981 -1.42,-2.046 -2.483,-2.681 -1.026,-0.613 -2.446,-0.527 -3.034,0.649 -0.37,0.74 -0.22,1.533 -0.437,2.286 m 2.2,7.027 c 0.455,0.263 0.736,0.73 1.102,1.101 1.264,1.282 2.222,2.863 3.273,4.318 0.306,0.423 0.643,0.836 0.932,1.27 0.203,0.305 0.412,0.692 0.79,0.818 0.553,0.185 0.68,-0.52 0.945,-0.804 0.667,-0.714 0.862,-1.65 1.397,-2.47 0.233,-0.355 0.498,-0.795 0.96,-0.846 0.362,-0.04 0.737,0.035 1.1,0 1.5,-0.146 3.208,-0.221 4.657,0.282 0.978,0.34 1.845,0.931 2.794,1.327 0.378,0.157 0.8,0.206 1.186,0.367 0.366,0.152 0.706,0.358 1.1,0.451 0.797,0.188 1.806,0.028 2.625,0.028 0.814,0 1.631,0.165 2.455,0.085 a 30,30 0 0 0 3.133,-0.48 c 1.012,-0.21 2.03,-0.409 3.048,-0.649 0.29,-0.068 0.544,-0.213 0.847,-0.226 0.723,-0.03 1.3,-0.062 1.495,0.762 0.345,1.458 0.172,3.377 -0.592,4.657 -0.526,0.88 -1.324,1.533 -2.004,2.286 -1.3,1.44 -2.714,2.664 -4.233,3.866 -1.078,0.854 -2.188,1.651 -3.302,2.456 -0.364,0.262 -0.927,0.58 -0.734,1.129 0.102,0.29 0.3,0.311 0.564,0.367 0.578,0.12 1.33,-0.13 1.863,-0.381 1.438,-0.68 2.883,-1.799 4.064,-2.865 0.392,-0.354 0.828,-0.711 1.185,-1.1 0.254,-0.278 0.375,-0.512 0.762,-0.593 0.179,0.424 -0.042,0.8 -0.24,1.185 -0.443,0.863 -1.08,1.457 -1.679,2.201 -0.665,0.826 -1.434,1.583 -2.145,2.371 -1.613,1.787 -3.165,3.943 -4.036,6.18 -0.244,0.63 -0.317,1.298 -0.48,1.948 -0.126,0.506 -0.343,1 -0.394,1.524 -0.035,0.35 0.051,0.677 0.07,1.016 0.046,0.825 -0.152,1.698 -0.07,2.54 0.074,0.77 0.16,1.589 0.084,2.37 -0.143,1.474 -0.429,2.932 -0.592,4.403 -0.07,0.624 -0.278,1.239 -0.34,1.863 -0.223,2.303 -0.447,4.756 -1.297,6.943 -1.37,3.524 -3.388,6.59 -5.362,9.821 -1.15,1.882 -2.253,3.9 -3.683,5.588 -1.475,1.74 -3.17,3.31 -4.502,5.165 -0.902,1.256 -1.853,2.384 -2.314,3.894 -0.446,1.46 -0.28,3.114 0.085,4.572 0.614,2.457 1.716,4.711 2.68,7.028 0.219,0.522 0.327,1.087 0.537,1.608 a 118,118 0 0 0 1.609,3.81 c 0.577,1.3 1.429,2.498 2.144,3.726 0.508,0.87 0.965,1.818 1.58,2.624 a 16.9,16.9 0 0 0 3.02,3.02 c 0.783,0.598 1.622,1.155 2.287,1.891 1.163,1.288 1.193,3.416 -0.508,4.22 -1.875,0.885 -4.125,1.013 -6.096,0.465 -0.78,-0.217 -1.457,-0.399 -2.117,-0.903 -1.377,-1.052 -2.356,-2.617 -3.302,-4.036 -0.941,-1.412 -1.938,-2.776 -2.808,-4.233 -1.377,-2.306 -2.674,-4.71 -4.163,-6.943 -0.843,-1.264 -1.79,-2.508 -2.568,-3.81 -0.452,-0.757 -0.73,-1.6 -1.157,-2.37 -0.41,-0.737 -0.835,-1.457 -1.228,-2.202 a 75,75 0 0 1 -2.201,-4.572 c -0.51,-1.148 -0.783,-2.292 -1.708,-3.217 -0.89,-0.89 -2.08,-1.28 -3.217,-1.722 -2.262,-0.88 -4.636,-1.178 -7.027,-1.411 -0.94,-0.091 -1.935,0 -2.879,0 -2.157,0 -4.3,0.046 -6.435,0.254 -1.37,0.133 -2.778,-0.133 -4.148,0 -2.283,0.222 -4.632,0.2 -6.858,0.818 -0.903,0.251 -1.867,0.334 -2.71,0.79 -1.931,1.047 -3.295,2.886 -4.741,4.488 l -1.524,1.693 c -0.476,0.528 -1.133,1.1 -1.397,1.778 -0.153,0.395 -0.143,0.862 -0.24,1.27 -0.135,0.571 -0.254,1.11 -0.31,1.694 -0.077,0.792 -0.262,1.577 -0.339,2.37 -0.037,0.382 0.049,0.73 0.085,1.101 0.172,1.771 0.432,3.867 1.552,5.334 0.755,0.989 2.018,1.449 3.02,2.117 0.586,0.39 1.154,0.796 1.326,1.524 0.052,0.218 0.028,0.454 0.028,0.677 0,1.986 -1.964,2.793 -3.64,3.19 -0.613,0.144 -1.243,0.052 -1.863,0.112 -1.197,0.116 -2.623,-0.089 -3.556,-0.931 -1.125,-1.016 -1.598,-2.708 -2.145,-4.064 -0.63,-1.564 -1.274,-3.146 -1.806,-4.742 -0.517,-1.551 -0.947,-3.166 -1.651,-4.656 -0.584,-1.237 -1.27,-2.455 -1.962,-3.641 -0.445,-0.763 -1.102,-1.53 -1.382,-2.37 -0.135,-0.406 -0.174,-0.932 -0.198,-1.355 -0.024,-0.426 0.199,-0.869 0.31,-1.27 0.226,-0.814 0.367,-1.641 0.593,-2.456 0.542,-1.95 0.765,-3.926 0.96,-5.926 0.26,-2.674 0.592,-5.341 0.592,-8.044 0,-0.575 0.055,-1.135 0,-1.693 -0.041,-0.427 0.008,-0.765 -0.423,-1.002 -1.006,-0.553 -1.465,0.692 -1.75,1.425 -0.319,0.82 -0.367,1.76 -0.451,2.625 -0.114,1.164 -0.387,2.32 -0.579,3.471 -0.401,2.41 -1.024,4.754 -1.68,7.112 -0.158,0.57 -0.376,1.14 -0.592,1.694 -0.155,0.4 -0.246,0.847 -0.522,1.185 -0.969,1.188 -2.676,1.81 -3.993,2.47 -3.794,1.896 -8.052,3.457 -12.362,3.457 -1.45,0 -2.808,-0.28 -4.148,-0.819 -0.558,-0.225 -1.29,-0.441 -1.665,-0.96 -0.4,-0.55 0.276,-0.92 0.649,-1.199 1.034,-0.775 2.098,-1.51 3.132,-2.286 0.812,-0.608 1.66,-1.162 2.456,-1.792 1.072,-0.849 2.05,-1.811 3.132,-2.653 1.234,-0.96 2.5,-1.88 3.726,-2.85 0.79,-0.625 1.496,-1.35 2.286,-1.976 0.557,-0.44 1.154,-0.834 1.693,-1.298 0.864,-0.744 1.778,-1.437 2.625,-2.201 2.014,-1.818 3.829,-3.856 5.842,-5.673 1.62,-1.463 2.94,-3.27 4.572,-4.741 2.203,-1.99 4.746,-3.797 7.366,-5.18 0.973,-0.513 1.888,-1.112 2.878,-1.58 a 25,25 0 0 1 4.826,-1.679 c 1.577,-0.372 3.218,-0.549 4.826,-0.705 0.79,-0.077 1.602,0.127 2.371,0.084 0.312,-0.017 0.62,-0.139 0.931,-0.169 0.452,-0.044 0.899,0.091 1.355,0.085 0.915,-0.013 1.79,-0.077 2.71,0 0.232,0.019 0.447,-0.075 0.677,-0.085 0.854,-0.036 1.694,-0.002 2.54,-0.085 1.74,-0.169 3.51,0 5.249,-0.169 2.135,-0.208 4.18,-0.75 6.265,-1.242 2.437,-0.575 5.056,-1.535 7.112,-3.02 1.249,-0.901 2.425,-2.136 3.359,-3.358 0.97,-1.27 1.655,-2.912 2.173,-4.403 0.475,-1.367 1.12,-2.682 1.58,-4.064 a 49,49 0 0 0 0.734,-2.37 c 0.095,-0.343 0.09,-0.806 0.31,-1.101 0.273,-0.363 0.702,-0.254 1.073,-0.367 0.728,-0.222 1.45,-0.509 2.117,-0.889 0.375,-0.214 0.795,-0.543 0.762,-1.03 -0.068,-0.968 -1.317,-1.144 -2.032,-1.383 -0.587,-0.195 -1.269,-0.403 -1.778,-0.762 -0.51,-0.36 -0.912,-1.116 -1.172,-1.665 -0.59,-1.25 -0.352,-2.876 -0.352,-4.233 0,-2.366 0.229,-4.753 0,-7.112 -0.068,-0.7 0.068,-1.418 0,-2.117 -0.104,-1.065 -0.085,-2.14 -0.085,-3.217 0,-0.594 -0.062,-1.23 0.17,-1.778 0.44,0.13 0.395,0.622 0.493,1.016 0.26,1.036 0.46,2.093 0.72,3.132 0.605,2.421 1.27,4.896 2.23,7.197 0.483,1.16 0.882,2.515 1.975,3.274 1.42,0.985 3.47,-0.417 4.163,-1.665 0.147,-0.266 0.39,-0.457 0.465,-0.762 0.214,-0.853 -0.276,-1.742 -0.663,-2.456 -0.427,-0.79 -0.989,-1.53 -1.481,-2.286 -1.09,-1.668 -2.174,-3.345 -3.274,-4.995 -0.41,-0.615 -0.907,-1.217 -1.256,-1.863 -0.116,-0.213 -0.336,-0.586 -0.24,-0.762 m 18.288,6.971 c -0.473,0.086 -0.963,0.196 -1.355,0.494 -0.537,0.408 -0.721,1.065 -0.875,1.68 -0.279,1.117 -0.087,2.244 0.34,3.301 0.343,0.854 1.135,2.312 2.313,1.92 0.273,-0.091 0.534,-0.327 0.762,-0.494 1.557,-1.146 2.233,-3.545 1.13,-5.236 -0.427,-0.653 -1.417,-1.827 -2.315,-1.665 m 0.085,2.103 c 0.784,-0.078 0.85,1.834 0.169,1.933 -0.806,0.117 -0.8,-0.75 -0.663,-1.27 0.073,-0.276 0.149,-0.63 0.494,-0.663 m -14.478,14.845 c -0.819,0.427 -0.019,1.327 0.31,1.735 1.168,1.45 2.277,2.892 3.669,4.149 0.5,0.451 1.084,0.968 1.693,1.256 2.626,1.24 5.446,-0.192 7.705,-1.51 1.232,-0.718 2.307,-1.714 3.302,-2.71 0.265,-0.265 0.896,-1.224 0.085,-1.27 -0.228,-0.012 -0.474,0.147 -0.678,0.226 -0.517,0.201 -1.006,0.498 -1.524,0.678 a 34,34 0 0 1 -4.656,1.242 c -0.666,0.129 -1.345,0.292 -2.032,0.225 -2.123,-0.206 -4.039,-1.676 -5.758,-2.822 -0.442,-0.295 -0.852,-0.657 -1.27,-0.988 -0.227,-0.18 -0.546,-0.368 -0.846,-0.211 m 4.318,49.91 c 0.197,0.376 0.342,0.83 0.55,1.186 0.455,0.778 1.128,1.443 1.623,2.201 0.24,0.368 0.393,0.805 0.62,1.186 0.655,1.095 1.307,2.16 1.877,3.302 a 20.4,20.4 0 0 0 4.643,6.04 c 0.41,0.364 0.758,0.786 1.185,1.142 0.864,0.72 2.081,1.398 2.202,2.639 0.162,1.673 -1.685,2.291 -2.964,2.61 -0.37,0.093 -1.103,0.37 -1.439,0.156 -0.516,-0.33 -0.882,-0.914 -1.214,-1.411 -0.524,-0.788 -1.027,-1.584 -1.552,-2.371 -2.314,-3.47 -4.486,-7.214 -5.94,-11.091 -0.295,-0.786 -0.69,-1.854 -0.607,-2.71 0.049,-0.502 0.175,-0.954 0.31,-1.439 0.136,-0.49 0.198,-1.222 0.706,-1.44 m -43.18,2.978 c 0.191,-0.032 0.5,-0.065 0.649,0.085 0.32,0.32 0.39,1.094 0.564,1.51 0.325,0.778 0.825,1.458 1.355,2.116 0.272,0.338 0.613,0.61 0.903,0.932 0.643,0.712 1.25,1.476 2.117,1.933 0.882,0.466 2.012,0.53 2.68,1.369 0.694,0.869 0.99,2.495 0.34,3.471 -0.349,0.522 -1.16,0.84 -1.75,0.988 -0.663,0.165 -1.353,0.113 -2.032,0.113 -1.084,0 -2.153,0.007 -3.218,-0.156 -0.682,-0.104 -1.311,-0.133 -1.848,-0.635 -0.409,-0.381 -0.698,-0.927 -0.96,-1.41 -0.705,-1.303 -1.256,-2.67 -1.947,-3.98 -0.53,-1.003 -1.138,-1.988 -1.707,-2.963 -0.174,-0.297 -0.563,-0.727 -0.353,-1.101 0.201,-0.358 0.955,-0.541 1.312,-0.72 1.201,-0.6 2.56,-1.33 3.895,-1.552"
       style="display:inline;fill:#060606;stroke:none"
       id="path2" /></g></svg>
