<svg xmlns="http://www.w3.org/2000/svg" xmlns:xlink="http://www.w3.org/1999/xlink" width="655.36" height="655.36" viewBox="0 0 173.397 173.397"><g style="display:inline"><path d="M61.213 223.267c-.568-7.591 27.43-10.813 41.761-11.003 17.233-.228 46.104 3.286 46.237 10.552.125 6.831-23.438 10.398-44.257 10.662-16.907.214-43.248-3.616-43.741-10.211" style="display:inline;fill:#000;fill-opacity:.2;stroke-width:.264583" transform="translate(-18.34 -61.733)"/></g><g style="display:inline"><path d="m86.53 11.176-2.09 3.217-4.91 7.536-6.011 9.228-7 10.753-5.192 7.959-1.27 1.947-.621.903-.677-.31-1.778-1.157-6.435-4.177-1.609-1.03-.592-.198-1.016.974-2.117 2.116-7.535 7.62-25.908 25.908v.085l75.014 75.184h.085l74.845-75.015v-.084c-3.232-3.233-6.422-6.508-9.652-9.737-2.295-2.296-4.685-4.535-6.858-6.943-2.617-2.9-5.68-5.397-8.297-8.297-2.679-2.967-5.637-5.722-8.467-8.551-.773-.774-1.509-1.594-2.286-2.371-.275-.275-.65-.831-1.016-.974-.222-.086-.504.155-.677.268-.532.348-1.078.67-1.609 1.016-2.128 1.39-4.32 2.683-6.434 4.093-.641.427-1.307.814-1.948 1.241-.22.148-.499.418-.748.198-.304-.269-.51-.759-.72-1.1-.51-.835-1.098-1.622-1.608-2.456-1.53-2.504-3.296-4.863-4.826-7.366-3.517-5.755-7.575-11.179-11.091-16.933-.97-1.587-2.107-3.07-3.076-4.657-1.28-2.094-2.674-4.138-4.036-6.18-.412-.618-.803-1.247-1.214-1.863-.19-.285-.367-.633-.62-.847m.169 60.283 2.356 4.91 4.177 8.806 1.27 2.624.748 1.694 1.609-1.073 3.471-2.427 1.863-1.242 1.002 2.202 1.862 4.064 4.346 9.567 1.948 4.233.592 1.27.283.678-.297.423-.931.931-3.387 3.472-5.842 6.011-5.757 5.927-3.725 3.894-4.234 4.318-.96 1.016-.479.395-.762-.649-2.032-2.116-8.297-8.636-1.863-1.863-7.027-7.366-2.216-2.286-2.356-2.455-1.045-1.101.184-.508.423-.931 1.764-3.81 4.67-10.076 2.118-4.572.86-1.862 1.016.606 1.355.974 4.657 3.33.663-1.524 1.693-3.64 3.584-7.79 2.526-5.418z" id="cave_svg" display="inline" fill="currentColor" stroke="#000" stroke-width="2"/><path d="m86.53 11.176-2.258 3.471-4.911 7.536-4.91 7.535L66.52 41.91l-5.193 7.959-1.383 2.116-.508.734-.677-.31-1.778-1.157-6.435-4.177-1.524-.988-.677-.24-1.016.974-2.202 2.201-7.535 7.62-25.823 25.823v.085l75.014 75.184h.085l74.845-75.015v-.084l-25.992-26.247-6.858-6.858-2.625-2.71-1.1-1.058-.678.268-1.609 1.016-6.604 4.191-1.862 1.186-.664.155-.606-.931-1.383-2.117-4.657-7.112-11.26-17.187-3.077-4.657-4.261-6.52-1.27-1.947zm.085 9.313 4.77 7.282 3.217 4.91 2.907 4.403 6.632 10.16 5.56 8.467 1.721 2.624.847 1.44 9.144-5.786 2.117-1.355.846-.423.593.536 1.185 1.186 4.572 4.656 16.934 17.103 5.249 5.334 1.27 1.27.296.508-.465.508-1.101 1.1-3.81 3.81-13.631 13.632-48.599 48.683h-.085L18.965 82.55v-.085l22.606-22.69 5.673-5.673 1.355-1.355.592-.465.847.522 2.201 1.44 6.52 4.204 2.201 1.411.65-1.1 1.156-1.778 3.923-6.012 4.91-7.535 8.326-12.785 4.742-7.281 1.326-2.032zm-.085 39.032-2.215 4.741-4.487 9.652-2.794 6.011-1.002 2.202-4.657-3.33-1.524-1.101-.847-.48-3.316 7.197-6.942 14.986-2.794 6.011-.777 1.693-.211.593.409.508 1.016 1.016 3.725 3.895 13.547 14.054 9.737 10.076 2.37 2.455.847.748.931-.917 2.54-2.625 2.625-2.625 6.52-6.773 8.381-8.636 5.758-5.927 3.556-3.64.931-.932.41-.508-.227-.677-.677-1.44-2.526-5.503-2.723-5.926-4.234-9.229-2.286-4.995-1.368-2.964-2.117 1.411-4.826 3.415-.579-1.27-1.947-4.064-4.91-10.244-2.371-4.996-.593-1.185zm.17 11.938 2.187 4.572 4.177 8.805 1.354 2.794.833 1.863 1.609-1.073 3.725-2.596 1.609-1.073.917 2.032 1.863 4.064 4.43 9.737 1.948 4.233.592 1.27.283.678-.297.423-.931.931-3.556 3.641-5.842 6.011-5.842 6.012-3.471 3.64-4.234 4.318-1.016 1.016-.423.395-.762-.649-2.032-2.116-8.128-8.467-1.863-1.863-9.228-9.652-2.54-2.624-1.045-1.101.184-.508.423-.931 1.849-3.98 3.655-7.874 3.908-8.466 2.117 1.41 3.048 2.174 1.863 1.326.748-1.693 1.693-3.64 3.584-7.79 2.441-5.25z" style="display:inline;fill:#020202;stroke:none"/></g></svg>