<svg xmlns="http://www.w3.org/2000/svg" xml:space="preserve" width="655.36" height="655.36" viewBox="0 0 173.397 173.397"><g style="display:inline"><path d="M61.213 223.267c-.568-7.591 27.43-10.813 41.761-11.003 17.233-.228 46.104 3.286 46.237 10.552.125 6.831-23.438 10.398-44.257 10.662-16.907.214-43.248-3.616-43.741-10.211" style="display:inline;fill:#000;fill-opacity:.2;stroke-width:.264583" transform="translate(-18.34 -61.733)"/></g><g style="display:inline"><path d="m115.57 30.141-.734 2.794-.96 3.641-.394 1.44-.212.465-1.002-.226-3.133-.889-8.89-2.512-2.963-.846-1.1-.297-.763.31-1.354.58-5.165 2.215-10.753 4.6-7.874 3.373.776 1.354 1.651 2.371 4.15 6.011 1.467 2.117c-.989.286-2.039.41-3.048.62-1.724.36-3.447.72-5.165 1.102-5.276 1.172-10.523 2.576-15.663 4.29-5.178 1.725-10.108 3.823-14.817 6.505-6.16 3.507-12.34 9.845-11.6 17.455.148 1.52.325 2.965.904 4.403.565 1.403 1.256 2.757 2.173 3.979 1.613 2.151 3.667 3.96 5.898 5.447 3.648 2.432 7.53 4.09 11.6 5.673 1.708.664 3.48 1.286 5.249 1.778 2.406.668 4.793 1.392 7.197 2.06 5.184 1.44 10.495 2.473 15.748 3.64 3.982.885 7.982 1.679 11.938 2.667 1.22.305 2.427.637 3.64.974.529.147 1.14.253 1.609.536l-2.286.988-6.435 2.286-15.748 4.233-21.674 4.46-14.14 2.427-4.995.846-2.117.339v.085c5.717 2.106 11.336 4.535 17.018 6.745 9.217 3.584 18.429 7.199 27.602 10.894q5.658 2.277 11.345 4.487c.99.385 1.977.788 2.963 1.185.43.173 1.062.558 1.524.565.428.006 1.024-.252 1.44-.367a195 195 0 0 0 18.372-6.124c5.8-2.256 11.469-4.666 16.934-7.55 6.119-3.23 12.394-6.99 17.102-12.206a28.1 28.1 0 0 0 4.304-6.265c.721-1.442 1.203-3.07 1.468-4.657.235-1.41.294-2.807.155-4.233-.312-3.212-2.323-6.106-4.657-8.213-4.329-3.908-9.949-6.054-15.409-7.874a106 106 0 0 0-5.165-1.552c-1.773-.493-3.55-.951-5.334-1.397-.986-.247-2.033-.612-3.048-.692l1.299-3.556 2.963-8.128 1.693-4.656.65-1.948 6.857 1.835 12.192 3.274 4.572 1.241 1.214-4.233 2.71-9.567 3.81-13.462 1.27-4.488.733-2.624-2.625-.734-4.741-1.355-13.547-3.838 3.302-9.144-4.148-.96-7.959-1.862-5.08-1.186z" id="path_svg" display="inline" fill="currentColor" stroke="#000" stroke-width="2"/><path d="m115.57 30.141-.734 2.794-.96 3.641-.394 1.44-.212.465-1.002-.226-3.133-.889-8.89-2.512-2.963-.846-1.1-.297-.763.31-1.354.58-5.165 2.215-10.753 4.6-7.874 3.373.776 1.354 1.651 2.371 4.15 6.011 1.467 2.117c-.989.286-2.039.41-3.048.62-1.724.36-3.447.72-5.165 1.102-5.276 1.172-10.523 2.576-15.663 4.29-5.178 1.725-10.108 3.823-14.817 6.505-6.16 3.507-12.34 9.845-11.6 17.455.148 1.52.325 2.965.904 4.403.565 1.403 1.256 2.757 2.173 3.979 1.613 2.151 3.667 3.96 5.898 5.447 3.648 2.432 7.53 4.09 11.6 5.673 1.708.664 3.48 1.286 5.249 1.778 2.406.668 4.793 1.392 7.197 2.06 5.184 1.44 10.495 2.473 15.748 3.64 3.982.885 7.982 1.679 11.938 2.667 1.22.305 2.427.637 3.64.974.529.147 1.14.253 1.609.536l-2.286.988-6.435 2.286-15.748 4.233-21.674 4.46-14.14 2.427-4.995.846-2.117.339v.085c5.717 2.106 11.336 4.535 17.018 6.745 9.217 3.584 18.429 7.199 27.602 10.894q5.658 2.277 11.345 4.487c.99.385 1.977.788 2.963 1.185.43.173 1.062.558 1.524.565.428.006 1.024-.252 1.44-.367a195 195 0 0 0 18.372-6.124c5.8-2.256 11.469-4.666 16.934-7.55 6.119-3.23 12.394-6.99 17.102-12.206a28.1 28.1 0 0 0 4.304-6.265c.721-1.442 1.203-3.07 1.468-4.657.235-1.41.294-2.807.155-4.233-.312-3.212-2.323-6.106-4.657-8.213-4.329-3.908-9.949-6.054-15.409-7.874a106 106 0 0 0-5.165-1.552c-1.773-.493-3.55-.951-5.334-1.397-.986-.247-2.033-.612-3.048-.692l1.299-3.556 2.963-8.128 1.693-4.656.65-1.948 6.857 1.835 12.192 3.274 4.572 1.241 1.214-4.233 2.71-9.567 3.81-13.462 1.27-4.488.733-2.624-2.625-.734-4.741-1.355-13.547-3.838 3.302-9.144-4.148-.96-7.959-1.862-5.08-1.186zm13.208 8.298-.48 1.439-.607 1.693-.366.89-.664-.1-1.439-.395-4.995-1.425-1.44-.409-.465-.183.183-1.002.706-2.71 3.302.734zm18.119 14.986-4.685 16.594-1.44 5.08-.818 2.879-3.556-.903-8.467-2.286-24.13-6.52-9.736-2.624-3.133-.847-1.002-.31-1.058-1.496-2.456-3.556-5.672-8.213-1.524-2.201-1.327-1.947 3.387-1.454 9.652-4.148 3.98-1.708 1.608-.649 1.524.395 2.71.762 10.413 2.963 24.13 6.858 8.044 2.286zm-50.292 7.62c.108-.517.453-.953.649-1.44.546-1.356.964-2.827 1.354-4.233q.252-.904.593-1.778c.104-.267.143-.548.367-.748.43-.383 1.318-.538 1.863-.72 1.247-.415 2.499-.877 3.725-1.354.718-.28 1.09-.795 1.1-1.58.004-.202.058-.508-.098-.664-.351-.35-1.15.11-1.51.24-.817.295-1.646.56-2.455.875-.6.233-1.23.532-1.863.649.226-.717 1.128-.827 1.778-1.044 1.05-.35 2.102-.728 3.133-1.13.502-.194 1.088-.251 1.524-.592.391-.306.824-1.687.254-2.018-.385-.223-1.31.282-1.694.41-.54.18-1.067.384-1.608.564-.834.278-1.675.687-2.54.847.203-.704.424-1.41.62-2.117.09-.319.278-.686.297-1.016.038-.682-1.138-.384-1.397-.07-.207.249-.261.703-.381 1.001-.42 1.04-.731 2.142-1.03 3.218-.798 2.872-1.827 5.679-2.625 8.551-.266.959-.404 1.908-.593 2.879-.056.287-.274.809-.098 1.086.132.21.42.184.635.184m13.123-11.007a49 49 0 0 1-.847-1.27c-.12-.189-.21-.443-.423-.55-.7-.356-.986.799-1.129 1.227-.052.156-.148.34-.113.508.066.316.364.588.536.847.24.36.439.75.692 1.1.204.283.468.56.437.932-.055.663-.534 1.228-.649 1.863-.262 1.45-.82 2.803-1.157 4.233-.29 1.232-.763 2.427-1.1 3.64-.09.325-.417 1.051-.128 1.341.329.329 1.104-.016 1.313-.324.206-.305.251-.755.367-1.101.238-.714.497-1.381.691-2.117.435-1.648.998-3.269 1.454-4.91.127-.457.408-.81.536-1.27a70 70 0 0 1 1.016-3.387c.171-.514.19-1.013.31-1.524.152-.643.723-1.61.31-2.272-.251-.405-.927-.14-1.128.155-.188.276-.203.623-.31.932-.226.648-.472 1.295-.678 1.947m2.794 12.023h.085c.181.46.528.868.818 1.27.54.748 1.02 1.542 1.566 2.286.29.392.545 1.03.932 1.326.239.183.472.036.663-.141.405-.376.56-.982.508-1.524-.066-.681-.688-1.33-1.072-1.863-.64-.886-1.257-1.8-1.863-2.709-.236-.353-.668-.776-.776-1.185-.102-.387.088-.975.183-1.355.255-1.017.961-1.186 1.835-1.538 1.149-.463 2.322-.864 3.471-1.327.453-.182 1.071-.287 1.44-.62.402-.365.507-.995.507-1.51 0-.308-.036-.595-.423-.579-.646.027-1.436.48-2.032.72-1.141.46-2.508.748-3.556 1.383.29-1.576.952-3.101 1.34-4.657.091-.362.534-1.343.226-1.651-.288-.289-1.072-.077-1.284.212-.148.2-.166.525-.226.762a14 14 0 0 1-.395 1.354c-.172.478-.245.952-.367 1.44-.235.941-.587 1.859-.846 2.794-.541 1.948-1.304 3.831-1.92 5.757-.347 1.09-.582 2.21-.93 3.302-.097.301-.349.975-.071 1.242.155.148.553.262.72.099.206-.203.26-.579.38-.833.378-.8.782-1.627 1.087-2.455m11.43 1.185c.356.965.804 1.95 1.256 2.879.12.247.2.743.522.804.533.1.785-.593.875-.974.296-1.254-.548-2.355-.96-3.471.353-.13.675-.333 1.016-.494.739-.349 1.461-.516 1.722-1.369.107-.35.314-1.07-.113-1.312-.256-.144-.704.087-.931.198-.833.404-1.759.705-2.54 1.199-.15-.813-.643-1.61-.96-2.37-.1-.242-.308-.491-.296-.763.018-.443.262-.928.38-1.354a69 69 0 0 1 1.017-3.387c.138-.416.24-.847.353-1.27.046-.176.158-.416.056-.593-.197-.342-.974-.162-1.228.029-.226.17-.282.48-.367.733-.17.51-.365 1.012-.536 1.524a148 148 0 0 0-2.173 7.197c-.325 1.17-.776 2.304-1.1 3.471-.274.986-.4 1.967-.593 2.964-.057.29-.31.858.028 1.058.552.326.84-.62.988-.974.173-.415.386-.833.508-1.27.094-.337.15-.822.38-1.1.21-.253.552-.305.833-.438.616-.29 1.288-.554 1.863-.917m12.446-.254c-.608.128-1.141.487-1.693.748-.837.395-1.684.826-2.54 1.171-.478.193-1.324.207-1.595.706-.193.354-.274.8-.381 1.185a124 124 0 0 1-.875 3.048c-.148.486-.316 1.142.395 1.242.413.058.565-.608.692-.903.267-.622.544-1.24.804-1.863.16-.382.235-.868.62-1.087 1.506-.85 3.195-1.427 4.742-2.2.535-.268 1.46-.465 1.764-1.031.252-.47.422-1.17.24-1.693-.16-.46-.587-.887-.875-1.27-.65-.867-1.284-1.746-1.919-2.625-.297-.412-.803-.864-.96-1.355-.08-.254.065-.523.142-.762.158-.494.33-1.01.409-1.524.036-.236.086-.661-.155-.804-.173-.102-.417-.028-.593.014-.707.167-.72.678-.875 1.298-.195.781-.734 1.737-.734 2.54 0 .276.178.46.31.678.186.302.267.636.48.931.843 1.167 1.904 2.302 2.597 3.556m-5.757-5.122c-.463.026-.525.797-.621 1.143-.07.25-.253.582-.198.846.059.282.327.54.494.762.32.427.654.844.974 1.27.217.29.507.913.96.819.446-.093.608-.517.705-.903.084-.335.2-.667.113-1.016-.072-.287-.275-.455-.452-.678-.35-.442-.67-.909-1.016-1.354-.23-.297-.513-.914-.96-.89m-7.958 2.329.508 1.27-1.185.508zm-37.253 6.773c-1.09.086-2.248.526-3.302.819l-5.165 1.44a90 90 0 0 0-10.499 3.64c-3.265 1.36-6.503 2.82-9.398 4.91-2.23 1.61-4.577 3.6-5.475 6.294-.258.775-.66 1.913-.338 2.71.284.705.874 1.194 1.495 1.608 1.153.768 2.494 1.255 3.81 1.693 5.042 1.681 10.293 2.573 15.494 3.585 12.223 2.376 24.563 4.01 36.746 6.716 5.532 1.23 11.033 2.493 16.425 4.29 4.077 1.36 8.15 2.88 11.684 5.334 2.176 1.511 4.239 3.468 4.798 6.153.171.823.108 1.63.028 2.455-.304 3.127-1.955 5.946-3.98 8.297-.563.655-1.135 1.367-1.777 1.948-.727.655-1.48 1.286-2.202 1.947-1.298 1.19-2.81 2.133-4.233 3.16-1.866 1.348-3.902 2.559-5.927 3.627-1.978 1.045-3.91 2.153-5.926 3.105-2.375 1.121-4.804 2.12-7.197 3.217-3.648 1.672-7.52 2.82-11.26 4.276-2.773 1.078-5.69 1.999-8.552 2.794-.766.213-1.52.465-2.286.677-.323.09-.765.33-1.1.297-.25-.025-.53-.203-.763-.297-.505-.203-1.018-.389-1.524-.592-1.633-.658-3.277-1.29-4.91-1.948-4.983-2.007-10.004-3.92-14.986-5.926-4.926-1.985-9.891-3.873-14.817-5.857-1.21-.487-2.43-.951-3.64-1.439-.343-.138-1.057-.255-1.186-.607.779 0 1.608-.246 2.37-.395 1.521-.295 3.05-.55 4.573-.846a595 595 0 0 0 15.494-3.218c4.98-1.106 9.885-2.438 14.816-3.74 2.814-.742 5.667-1.639 8.382-2.694 2.49-.969 5.005-1.855 7.282-3.246 1.107-.677 2.254-1.396 3.034-2.455.488-.664.82-1.493.423-2.286-.763-1.527-2.837-2.232-4.304-2.823-3.982-1.603-8.276-2.46-12.446-3.386-7.476-1.662-15.058-3.059-22.437-5.108-5.756-1.6-11.598-3.128-17.018-5.687-4.709-2.224-9.99-5.104-11.994-10.259-.367-.943-.524-1.968-.621-2.963-.042-.436.043-.846.085-1.27.434-4.464 3.77-7.877 7.366-10.273 8.544-5.696 18.826-8.369 28.702-10.838 2.857-.714 5.75-1.26 8.636-1.862.873-.182 1.75-.326 2.624-.508.286-.06.728-.217 1.016-.127.433.134.745.906 1.002 1.256.548.743 1.026 1.537 1.567 2.286.472.654 1.115 1.368 1.41 2.116m18.543 6.604-1.073 3.98-2.766 10.414-1.41 5.249c-1.18-.093-2.394-.423-3.557-.65-2.081-.404-4.183-.695-6.265-1.1-5.313-1.033-10.683-1.76-16.002-2.794-3.595-.699-7.197-1.355-10.753-2.243-1.72-.43-3.654-.797-5.249-1.595.119-.41.463-.717.762-1.016a16.5 16.5 0 0 1 1.778-1.552c2.605-1.954 5.576-3.333 8.551-4.572 5.686-2.37 11.649-4.098 17.611-5.588q2.321-.582 4.657-1.1c.719-.16 1.632-.552 2.37-.48 1.125.109 2.3.6 3.387.902 2.646.735 5.321 1.382 7.959 2.145m4.826 19.812-2.964-.62-1.608-.311.395-1.693.677-2.54 2.244-8.382.889-3.302.409-1.51 1.312.211 3.556.96 1.143.353-.268 1.002-1.1 3.048-2.88 7.874z" style="fill:#020202;stroke:none"/></g></svg>