<svg xmlns="http://www.w3.org/2000/svg" width="655.36" height="655.36" viewBox="0 0 173.397 173.397"><g style="display:inline"><path d="M61.213 223.267c-.568-7.591 27.43-10.813 41.761-11.003 17.233-.228 46.104 3.286 46.237 10.552.125 6.831-23.438 10.398-44.257 10.662-16.907.214-43.248-3.616-43.741-10.211" style="display:inline;fill:#000;fill-opacity:.2;stroke-width:.264583" transform="translate(-18.34 -61.733)"/></g><g style="display:inline"><path d="M42.08 58.674c-.374-.157-.86-.085-1.27-.085-.593 0-1.178-.084-1.779-.084-.882 0-1.753 0-2.624.084-2.41.235-4.862 1.57-6.774 2.978-1.676 1.234-3.34 2.582-4.741 4.134-1.032 1.143-2.016 2.329-3.048 3.472l-7.959 8.805c-1.522 1.686-2.964 3.473-4.572 5.08v.085L15.24 88.9l6.435 6.265 6.519 6.35 2.794 2.794 10.16 9.822 2.794 2.794 13.377 12.954 3.302 3.217 2.794 2.794 13.378 12.954 3.64 3.556 6.52 6.35h.084l9.398-9.229 5.08-4.995 2.794-2.794 7.366-7.197 4.149-4.148 6.011-5.842 5.08-4.996 4.657-4.656 5.08-4.996 5.927-5.757 4.148-4.149 5.08-4.995 5.08-4.995 7.197-7.028c-.331-.572-.968-1.052-1.44-1.524l-2.793-2.794c-3.095-3.094-6.218-6.157-9.144-9.398-11.546-12.79-25.12-24.48-40.725-31.848-8.547-4.037-18.184-6.583-27.686-5.659-3.443.335-6.802.789-10.16 1.722-9.147 2.54-17.676 8.134-23.65 15.55-1.75 2.171-3.395 4.376-4.826 6.773-.53.888-1.318 1.882-1.58 2.879z" id="hill_svg" display="inline" fill="currentColor" stroke="#000" stroke-width="2"/><path d="M42.08 58.674c-.374-.157-.86-.085-1.27-.085-.593 0-1.178-.084-1.779-.084-.882 0-1.753 0-2.624.084-2.41.235-4.862 1.57-6.774 2.978-1.676 1.234-3.34 2.582-4.741 4.134-1.032 1.143-2.016 2.329-3.048 3.472l-7.959 8.805c-1.522 1.686-2.964 3.473-4.572 5.08v.085L15.24 88.9l6.435 6.265 6.519 6.35 2.794 2.794 10.16 9.822 2.794 2.794 13.377 12.954 3.302 3.217 2.794 2.794 13.378 12.954 3.64 3.556 6.52 6.35h.084l9.398-9.229 5.08-4.995 2.794-2.794 7.366-7.197 4.149-4.148 6.011-5.842 5.08-4.996 4.657-4.656 5.08-4.996 5.927-5.757 4.148-4.149 5.08-4.995 5.08-4.995 7.197-7.028c-.331-.572-.968-1.052-1.44-1.524l-2.793-2.794c-3.095-3.094-6.218-6.157-9.144-9.398-11.546-12.79-25.12-24.48-40.725-31.848-8.547-4.037-18.184-6.583-27.686-5.659-3.443.335-6.802.789-10.16 1.722-9.147 2.54-17.676 8.134-23.65 15.55-1.75 2.171-3.395 4.376-4.826 6.773-.53.888-1.318 1.882-1.58 2.879m34.967 33.443 2.201-.592h2.794c-.03-1.17-.691-2.51-1.171-3.556-.937-2.045-1.793-4.094-2.794-6.096-2.274-4.547-5.069-9.153-8.904-12.616-3.99-3.601-9.19-5.8-14.224-7.479-1.517-.505-3.039-.928-4.572-1.354-.982-.273-2.03-.654-3.048-.734.115-.548.532-1.045.818-1.524a42 42 0 0 1 2.032-3.048 47.2 47.2 0 0 1 10.696-10.696c3.084-2.227 6.391-3.798 9.906-5.165 3.368-1.31 7.018-1.996 10.584-2.342 2.58-.251 5.274-.422 7.874-.17a55.2 55.2 0 0 1 18.118 5.01c2.31 1.09 4.52 2.306 6.774 3.528 2.562 1.388 5.079 3.014 7.45 4.727 3.28 2.368 6.625 4.703 9.652 7.394 1.6 1.422 3.238 2.8 4.826 4.233.756.682 1.446 1.435 2.202 2.117 3.805 3.436 7.162 7.302 10.583 11.091 1.012 1.12 2.15 2.15 3.217 3.218l3.556 3.556.847.846c.108.11.31.252.31.424 0 .22-.338.45-.48.592l-1.439 1.44c-1.962 1.962-3.962 3.877-5.926 5.842-7.83 7.83-15.876 15.452-23.707 23.283-2.701 2.701-5.379 5.485-8.213 8.043-1.76 1.59-3.32 3.407-5.08 4.996s-3.32 3.406-5.08 4.995c-.973.878-1.866 1.867-2.794 2.794-2.418 2.418-4.828 4.906-7.366 7.197-1.09.985-2.093 2.093-3.132 3.132-1.343 1.343-2.72 2.636-4.064 3.98l-1.863 1.862c-.157.157-.435.565-.677.565-.337 0-.873-.76-1.101-.988-.976-.976-1.989-1.904-2.963-2.879-1.86-1.859-3.723-3.743-5.673-5.503-1.11-1.002-2.108-2.131-3.217-3.133-.977-.881-1.818-1.912-2.794-2.794-2.25-2.03-4.27-4.318-6.52-6.35-1.109-1.001-2.107-2.13-3.217-3.132-4.604-4.157-8.773-8.798-13.377-12.954-2.25-2.032-4.27-4.32-6.52-6.35-3.227-2.914-6.086-6.231-9.313-9.144-2.22-2.005-4.214-4.26-6.435-6.266-1.712-1.546-3.362-3.193-4.995-4.826-1.033-1.033-2.1-2.015-3.133-3.048-.34-.34-1.052-.819-1.227-1.27-.063-.161.047-.304.14-.423.254-.32.56-.628.833-.931 1.148-1.272 2.35-2.504 3.458-3.81 1.447-1.71 3-3.333 4.501-4.996 1.849-2.048 3.604-4.088 5.673-5.926 1.74-1.548 3.973-3.071 6.35-3.302.967-.094 2.008-.009 2.963.084.674.066 1.359.02 2.032.085.729.07 1.486.32 2.201.48 1.42.315 2.832.626 4.234 1.016 5.604 1.557 11.443 3.387 16.086 6.999 2.566 1.995 4.527 4.754 6.21 7.507 1.578 2.584 2.849 5.238 4.134 7.959.669 1.417 1.289 2.898 1.764 4.402" style="fill:#020202;stroke:none"/></g></svg>