<svg xmlns="http://www.w3.org/2000/svg" xml:space="preserve" width="655.36" height="655.36" viewBox="0 0 173.397 173.397"><g style="display:inline"><path d="M61.213 223.267c-.568-7.591 27.43-10.813 41.761-11.003 17.233-.228 46.104 3.286 46.237 10.552.125 6.831-23.438 10.398-44.257 10.662-16.907.214-43.248-3.616-43.741-10.211" style="display:inline;fill:#000;fill-opacity:.2;stroke-width:.264583" transform="translate(-18.34 -61.733)"/></g><g style="display:inline"><path d="M23.453 52.324c.797 2.163 1.794 4.347 2.78 6.435.81 1.718 1.418 3.53 2.23 5.249 1.216 2.576 2.304 5.243 3.4 7.874.707 1.698 1.42 3.408 2.187 5.08.243.53.467 1.07.692 1.609.062.15.216.34.197.508-.039.349-.663.775-.903 1.016-.89.89-1.777 1.782-2.71 2.624-2.58 2.33-5.175 4.7-7.958 6.788-.792.594-1.63 1.13-2.455 1.679-.245.163-.854.392-.96.677-.114.31.318 1.06.438 1.355a30 30 0 0 0 1.905 3.895c.753 1.291 1.608 2.514 2.483 3.725.644.891 1.101 1.896 1.75 2.794.843 1.167 1.803 2.235 2.766 3.302.312.346.673.622 1.016.931 1.308 1.181 2.584 2.359 3.979 3.443 1.332 1.037 2.731 1.984 4.064 3.02 6.086 4.733 12.717 9.049 19.643 12.32 3.106 1.466 6.259 2.767 9.482 4.02 4.803 1.869 9.963 3.201 15.071 3.698 2.208.215 4.462.386 6.689.17 8.93-.869 17.591-3.997 25.654-7.804 2.531-1.196 4.967-2.584 7.45-3.895 2.31-1.22 4.456-2.742 6.689-4.106 2.723-1.664 5.275-3.633 7.79-5.588 2.8-2.178 5.577-4.503 7.958-7.14 2.46-2.725 4.946-5.446 6.675-8.721a23.5 23.5 0 0 0 1.51-3.556c.105-.315.435-1.029.31-1.355-.114-.294-.711-.526-.96-.705-.933-.674-1.891-1.318-2.794-2.032-.72-.57-1.26-1.384-1.947-2.004-1.784-1.61-3.682-3.088-5.503-4.657-1.007-.866-2.021-1.682-2.964-2.624-.238-.239-.86-.66-.945-.988-.028-.109.127-.353.17-.452.194-.451.387-.907.592-1.354.766-1.673 1.48-3.382 2.187-5.08 1.096-2.631 2.184-5.298 3.4-7.874.812-1.719 1.419-3.531 2.23-5.25.669-1.415 1.21-2.892 1.863-4.318.407-.887.835-1.796 1.171-2.709-1.899-1.2-4.27-1.882-6.434-2.484-3.3-.916-6.651-1.41-10.076-1.41-.805 0-1.654-.079-2.455 0-2.592.251-5.097.681-7.62 1.382-2.174.604-4.338 1.585-6.265 2.71q-1.034.604-2.032 1.27c-.209.139-.593.525-.847.522-.227-.004-.486-.264-.677-.367-.51-.276-1.007-.588-1.524-.847a65 65 0 0 0-5.504-2.441c-3.866-1.504-8.175-2.424-12.276-2.822-.817-.08-1.638-.09-2.456-.17-1.904-.185-4.002-.356-5.926-.169-.983.096-1.98.074-2.964.17-1.271.123-2.538.299-3.81.423-.932.09-1.874.3-2.794.48-2.757.536-5.454 1.197-8.128 2.088-2.043.681-4.075 1.442-6.011 2.356-.683.323-1.356.678-2.032 1.016-.187.094-.52.364-.734.353-.215-.01-.604-.412-.79-.536a42 42 0 0 0-2.117-1.326c-1.928-1.125-4.09-2.105-6.265-2.71-2.523-.7-5.028-1.13-7.62-1.383-.774-.075-1.593 0-2.37 0-3.197 0-6.3.425-9.399 1.2-1.896.474-3.822 1.085-5.588 1.919-.542.256-1.103.457-1.608.776" id="raccoonGrotto_svg" display="inline" fill="currentColor" stroke="currentColor" stroke-width="2"/><path d="M33.697 85.26v.084c.78-.164 1.495-.733 2.202-1.087 1.772-.886 3.492-1.866 5.249-2.794a171 171 0 0 0 6.35-3.513c1.463-.853 2.94-1.687 4.403-2.54 1.184-.691 2.344-1.435 3.556-2.075 6.26-3.304 13.99-6.78 20.997-3.47 1.105.521 2.189 1.244 3.133 2.031 2.536 2.114 4.698 4.84 6.604 7.521h.084a39 39 0 0 1 6.35-6.942c1.01-.87 2.211-1.543 3.387-2.131 7.119-3.56 15.28-.428 21.76 2.991 1.21.64 2.37 1.384 3.555 2.075 1.322.77 2.66 1.516 3.98 2.286 1.98 1.155 3.989 2.277 6.011 3.344 1.81.956 3.614 1.926 5.419 2.879.846.446 1.77 1.142 2.709 1.34-.38-.466-.961-.835-1.44-1.213-.907-.719-1.807-1.447-2.709-2.173-.338-.273-.675-.549-1.016-.819-.124-.098-.316-.193-.352-.367-.061-.287.303-.763.409-1.016.472-1.133.942-2.271 1.453-3.386 1.74-3.797 3.199-7.718 4.94-11.515 1.235-2.696 2.465-5.447 3.541-8.213.245-.63.558-1.237.818-1.862.082-.196.3-.545.1-.72-.309-.27-1.036-.364-1.426-.494-1.303-.434-2.637-.736-3.98-1.016-6.081-1.267-13.011-.956-18.71 1.736-1.664.785-3.327 1.661-4.827 2.766q-.766.564-1.524 1.143c-.138.105-.32.31-.508.31-.227 0-.49-.281-.677-.395-.594-.363-1.176-.75-1.778-1.1a39.5 39.5 0 0 0-5.588-2.71c-2.533-.985-5.136-1.705-7.79-2.258-1.031-.215-2.085-.463-3.132-.564-1.241-.121-2.483-.218-3.725-.339-1.906-.185-4-.357-5.927-.17-1.747.17-3.503.254-5.25.424-4.459.434-9.102 1.616-13.292 3.246-2.055.799-4.077 1.674-6.011 2.695-.515.271-1.022.568-1.524.86-.17.1-.38.301-.593.269-.27-.041-.557-.372-.762-.537-.437-.351-.9-.673-1.355-1.001-1.452-1.05-3.057-1.884-4.656-2.64-5.697-2.69-12.63-3.002-18.712-1.735-1.341.28-2.676.582-3.979 1.016-.39.13-1.117.224-1.425.494-.182.16-.029.375.042.55.196.486.432.954.621 1.44.843 2.168 1.812 4.322 2.78 6.434 2.009 4.383 3.692 8.91 5.7 13.293.537 1.17.975 2.39 1.525 3.556.152.322.67 1.075.592 1.44-.036.173-.228.268-.352.366-.341.27-.678.546-1.016.819-.96.772-1.914 1.55-2.879 2.314-.442.35-.874.794-1.355 1.072m-6.434 12.446c1.4 4.436 5.231 7.917 8.805 10.697 5.554 4.32 11.73 7.798 17.95 10.907 1.988.995 3.996 1.928 6.01 2.88 1.112.524 2.232 1.083 3.387 1.509-.243-1.322-.727-2.51-.592-3.895.367-3.774 3.445-6.644 6.519-8.523.951-.581 1.92-1.133 2.879-1.693.509-.297 1.082-.555 1.524-.96.576-.528 1.012-1.233 1.467-1.862 1.595-2.208 2.853-4.732 3.584-7.366.66-2.371 1.002-5.178.085-7.536-1.21-3.11-4.189-5.762-7.422-6.66-1.08-.3-2.112-.429-3.218-.536-.61-.06-1.24-.146-1.862-.085-5.048.49-9.676 2.269-14.224 4.417-2.38 1.123-4.65 2.49-7.028 3.612-3.91 1.846-8.236 3.086-12.446 4.022-1.765.392-3.615.93-5.418 1.072m82.55 25.993c1.532-.565 3.014-1.322 4.487-2.018 2.657-1.255 5.276-2.523 7.874-3.895 5.804-3.063 11.802-6.44 16.764-10.851 2.134-1.897 4.224-3.877 5.7-6.35.493-.824 1.217-1.885 1.243-2.879-6.022-1.109-12.205-2.461-17.78-5.094-2.379-1.123-4.649-2.489-7.028-3.612-4.547-2.148-9.177-3.926-14.224-4.417-.622-.06-1.251.025-1.862.085-1.106.107-2.138.236-3.218.536-3.231.898-6.213 3.551-7.422 6.66-.789 2.028-.631 4.442-.17 6.52.589 2.647 1.763 5.077 3.161 7.366.6.981 1.291 2.096 2.145 2.878 1.036.948 2.53 1.516 3.726 2.23 3.366 2.01 6.793 4.887 7.196 9.031.132 1.352-.355 2.52-.592 3.81m-43.35-32.921c.856-.143 1.788.21 2.54.564 1.778.84 3.598 1.867 4.897 3.401.792.935 1.706 2.56.353 3.443-.244.16-.564.268-.847.339-2.702.675-5.837-.084-7.338-2.597-.645-1.08-1.169-2.448-.903-3.725.15-.718.517-1.295 1.298-1.425m40.894.931c.24-.036.525-.035.762.014.236.05.565.106.762.254.315.236.344.63.339.988-.011.818-.449 1.632-.903 2.286-1.35 1.945-3.537 3.16-5.87 3.387-1.078.104-2.38.039-3.387-.367-.77-.31-1.116-.886-.748-1.665.095-.202.216-.413.353-.593.209-.273.479-.532.734-.762.819-.74 1.821-1.306 2.794-1.792 1.635-.818 3.346-1.472 5.164-1.75m-21.844 27.108c-2.011.39-4.483.341-5.813 2.257-.964 1.388-.207 3.213.818 4.318 2.031 2.19 5.275 2.853 8.128 2.258 1.925-.401 3.938-1.553 4.84-3.358.59-1.18.733-2.446-.127-3.556-.403-.52-1.068-.889-1.665-1.13-1.428-.574-2.956-.818-4.487-.818-.546 0-1.158-.076-1.694.029" style="display:inline;fill:#010101;stroke:none"/></g></svg>