<svg xmlns="http://www.w3.org/2000/svg" width="655.36" height="655.36" viewBox="0 0 173.397 173.397"><g style="display:inline"><path d="M61.213 223.267c-.568-7.591 27.43-10.813 41.761-11.003 17.233-.228 46.104 3.286 46.237 10.552.125 6.831-23.438 10.398-44.257 10.662-16.907.214-43.248-3.616-43.741-10.211" style="display:inline;fill:#000;fill-opacity:.2;stroke-width:.264583" transform="translate(-18.34 -61.733)"/></g><g style="display:inline"><path d="M51.477 40.64c-.8.232-1.099.904-1.383 1.609-.34.844-.661 1.695-1.001 2.54-.749 1.858-1.467 3.729-2.216 5.588-.34.846-.834 1.736-1.044 2.624-.147.62-.051 1.315-.113 1.948-.09.929-.18 1.864-.254 2.794l-6.096-.085-1.016.085v-3.048l-9.229-2.145-2.54-.593-1.185-.226-.254 6.266-.085 1.608-.042.508-.804.395-2.117.79c0-2.315.085-4.619.085-6.942v-1.778c0-.204.057-.49-.1-.65-.332-.339-.93-.503-1.34-.719-1.052-.555-2.07-1.162-3.132-1.693-.424-.212-1.038-.748-1.524-.748-.416 0-.984.404-1.355.579-1.006.475-2.044.88-3.048 1.354-.697.33-1.41.627-2.117.932-.193.083-.677.21-.804.38-.076.102-.039.279-.056.396-.056.363-.12.734-.156 1.1-.152 1.571-.016 3.17-.169 4.742-.108 1.114-.155 2.273 0 3.386.128.925.451 1.923.79 2.794.11.282.484.886.41 1.186-.091.362-.552.772-.748 1.1a5 5 0 0 0-.593 1.609c-.145.744-.028 1.612-.028 2.37 0 1.146-.085 2.313-.085 3.472 0 3.558-.035 7.105-.085 10.668-.037 2.691-.169 5.437-.169 8.128v2.117c0 .217-.08.63.042.818.175.267.708.472.974.65a79 79 0 0 0 2.625 1.693c3.016 1.843 5.874 3.942 8.89 5.785.857.524 1.703 1.08 2.54 1.637.257.172.831.402.973.677.083.16-.026.344-.042.508-.047.482-.123.96-.17 1.44-.203 2.1-.727 4.165-.93 6.265-.18 1.84.761 3.522 1.241 5.25.59 2.125 1.272 4.224 1.863 6.35.236.849.475 1.695.734 2.54.103.337.16.703.338 1.015.605 1.063 1.881 1.382 2.935 1.807 2.065.831 4.125 1.683 6.181 2.54 8.199 3.416 16.437 6.743 24.638 10.16 4.313 1.797 8.641 3.565 12.954 5.362 1.885.785 3.817 1.477 5.673 2.328 1.828.838 3.73 1.526 5.588 2.3.536.224 1.07.46 1.608.678.207.083.445.234.678.211.18-.017.344-.143.508-.211.48-.2.967-.39 1.439-.607 1.253-.575 2.557-1.035 3.81-1.609 4.344-1.991 8.864-3.597 13.208-5.588 2.28-1.045 4.662-1.861 6.943-2.907 7.211-3.305 14.717-5.98 21.928-9.285 2.507-1.149 5.116-2.07 7.62-3.217 1.019-.467 2.15-.763 3.133-1.298.493-.269.376-1.278.423-1.764.126-1.296.213-2.599.339-3.895.052-.531-.052-1.077 0-1.609a31 31 0 0 0 0-5.842c-.046-.475.046-.964 0-1.439-.142-1.46-.398-3.008-.254-4.487.2-2.066.561-4.114.762-6.181.062-.637.148-1.298.085-1.947-.086-.876-.332-1.83-.875-2.54-.192-.25-.535-.416-.692-.678-.345-.574-.127-1.722-.127-2.37 0-.229-.056-.544.014-.762.137-.422 1.21-.635 1.595-.79 1.633-.658 3.277-1.29 4.91-1.948 4.512-1.817 9.036-3.602 13.547-5.419l4.234-1.693c.682-.275 1.398-.667 2.116-.818.031-1.172.14-2.388.254-3.556.086-.884 0-1.82 0-2.71 0-2.068-.055-4.133-.254-6.18-.112-1.156-.141-2.317-.254-3.472-.385-3.962-1.189-7.922-2.257-11.768-.572-2.057-1.249-4.168-2.16-6.096-.512-1.086-.993-2.188-1.622-3.218-.497-.813-1.132-1.54-1.722-2.286a93 93 0 0 0-3.415-4.064c-.598-.673-1.174-1.363-1.778-2.032-.15-.166-.327-.561-.592-.55-.288.012-.773.5-1.016.663-.915.61-1.83 1.232-2.71 1.891-1.085.814-2.201 1.58-3.217 2.484-.477.423-.972.812-1.326 1.354-.623.955-.758 2.296-1.03 3.387-.557 2.227-1.07 4.486-1.708 6.689.592.264 1.311.377 1.947.536 1.048.262 2.09.557 3.133.832.508.134 1.022.256 1.524.41.152.046.364.065.48.183.141.145.208.402.296.579l.677 1.354 1.186 2.371c.177.355.434.72.55 1.1.129.421.028 1.002.028 1.44 0 .411.077 1.161-.127 1.524-.12.215-.42.267-.635.339-.54.18-1.07.385-1.608.564-.44.147-1.157.552-1.609.508-.556-.054-1.159-.344-1.693-.508-.207-.063-.492-.072-.65-.24-.207-.22-.283-.64-.395-.917l-.96-2.37q-.357-.888-.705-1.779c-.102-.263-.157-.628-.508-.564-.706.13-1.434.478-2.116.705-1.354.452-2.71.876-4.064 1.327-.507.169-1.081.463-1.609.536-.35.049-.664-.29-1.016-.197-.89.235-1.794.835-2.625 1.227-1.319.623-2.66 1.184-3.979 1.806-1.571.742-3.186 1.424-4.741 2.202-.473.236-.966.44-1.44.677-.179.09-.433.287-.649.268-.173-.015-.38-.19-.536-.268l-1.185-.593-4.488-2.23c-.522-.26-1.188-.845-1.778-.902-.49-.048-1.166.45-1.608.635-1.308.545-2.587 1.148-3.895 1.693-.91.38-1.8.806-2.71 1.185-.27.113-.894.24-1.001.537-.147.409-.099.924-.099 1.354v2.371c0 2.512-.085 5.015-.085 7.535 0 .867-.084 1.746-.084 2.625 0 .249-.093.712.098.903.245.245.696.321 1.002.466.867.409 1.757.775 2.625 1.185 2.804 1.324 5.663 2.542 8.467 3.867.868.41 1.758.776 2.624 1.185.356.168.888.267 1.172.55.174.175.163.586.211.819.193.926.304 1.855.395 2.794.19 1.943.32 3.896.508 5.842.163 1.675-.047 3.405.085 5.08l-2.032.48-.635.211-.042.663-.085 1.355-2.963-1.016-5.673-1.89-17.526-5.843-7.112-2.342-1.947-.65-.932-.253-1.1.366-2.286.79-6.858 2.343-4.149 1.411-2.032.734.085-3.133.042-1.072-.635-.282-1.355-.593c1.51-.596 2.879-1.681 4.318-2.441.457-.241.898-.515 1.355-.762.181-.098.511-.206.635-.381.154-.219.042-.812.042-1.073 0-.996-.084-1.974-.084-2.963 0-2.033-.085-4.077-.085-6.096 0-1.856.094-3.749-.085-5.588-.185-1.901.185-3.856 0-5.757-.198-2.042.114-4.138-.084-6.181-.155-1.59-.085-3.22-.085-4.826 0-.885-.085-1.744-.085-2.625 0-1.61.156-3.308 0-4.91-.17-1.753-.313-3.5-.508-5.25-.196-1.766-.682-3.54-1.157-5.249-.953-3.432-2.317-6.863-4.29-9.821-1.084-1.627-2.507-3.015-3.95-4.318a86 86 0 0 0-6.012-4.94 60 60 0 0 0-2.71-1.947c-.235-.156-.638-.598-.93-.606-.185-.005-.304.189-.424.296-.314.279-.62.565-.931.847-1.24 1.119-2.451 2.293-3.726 3.372-1.252 1.06-2.422 2.217-3.64 3.316-.307.277-.617.566-.932.833-.139.118-.386.229-.395.437-.01.247.325.508.466.678.42.505.847 1.007 1.256 1.524 1.202 1.518 2.482 2.978 3.697 4.487.478.594 1.369 1.3 1.58 2.032z" id="dwellingsRuins_svg" display="inline" fill="currentColor" stroke="#000" stroke-width="2"/><path d="M51.477 40.64c-.8.232-1.099.904-1.383 1.609-.34.844-.661 1.695-1.001 2.54-.749 1.858-1.467 3.729-2.216 5.588-.34.846-.834 1.736-1.044 2.624-.147.62-.051 1.315-.113 1.948-.09.929-.18 1.864-.254 2.794l-6.096-.085-1.016.085v-3.048l-9.229-2.145-2.54-.593-1.185-.226-.254 6.266-.085 1.608-.042.508-.804.395-2.117.79c0-2.315.085-4.619.085-6.942v-1.778c0-.204.057-.49-.1-.65-.332-.339-.93-.503-1.34-.719-1.052-.555-2.07-1.162-3.132-1.693-.424-.212-1.038-.748-1.524-.748-.416 0-.984.404-1.355.579-1.006.475-2.044.88-3.048 1.354-.697.33-1.41.627-2.117.932-.193.083-.677.21-.804.38-.076.102-.039.279-.056.396-.056.363-.12.734-.156 1.1-.152 1.571-.016 3.17-.169 4.742-.108 1.114-.155 2.273 0 3.386.128.925.451 1.923.79 2.794.11.282.484.886.41 1.186-.091.362-.552.772-.748 1.1a5 5 0 0 0-.593 1.609c-.145.744-.028 1.612-.028 2.37 0 1.146-.085 2.313-.085 3.472 0 3.558-.035 7.105-.085 10.668-.037 2.691-.169 5.437-.169 8.128v2.117c0 .217-.08.63.042.818.175.267.708.472.974.65a79 79 0 0 0 2.625 1.693c3.016 1.843 5.874 3.942 8.89 5.785.857.524 1.703 1.08 2.54 1.637.257.172.831.402.973.677.083.16-.026.344-.042.508-.047.482-.123.96-.17 1.44-.203 2.1-.727 4.165-.93 6.265-.18 1.84.761 3.522 1.241 5.25.59 2.125 1.272 4.224 1.863 6.35.236.849.475 1.695.734 2.54.103.337.16.703.338 1.015.605 1.063 1.881 1.382 2.935 1.807 2.065.831 4.125 1.683 6.181 2.54 8.199 3.416 16.437 6.743 24.638 10.16 4.313 1.797 8.641 3.565 12.954 5.362 1.885.785 3.817 1.477 5.673 2.328 1.828.838 3.73 1.526 5.588 2.3.536.224 1.07.46 1.608.678.207.083.445.234.678.211.18-.017.344-.143.508-.211.48-.2.967-.39 1.439-.607 1.253-.575 2.557-1.035 3.81-1.609 4.344-1.991 8.864-3.597 13.208-5.588 2.28-1.045 4.662-1.861 6.943-2.907 7.211-3.305 14.717-5.98 21.928-9.285 2.507-1.149 5.116-2.07 7.62-3.217 1.019-.467 2.15-.763 3.133-1.298.493-.269.376-1.278.423-1.764.126-1.296.213-2.599.339-3.895.052-.531-.052-1.077 0-1.609a31 31 0 0 0 0-5.842c-.046-.475.046-.964 0-1.439-.142-1.46-.398-3.008-.254-4.487.2-2.066.561-4.114.762-6.181.062-.637.148-1.298.085-1.947-.086-.876-.332-1.83-.875-2.54-.192-.25-.535-.416-.692-.678-.345-.574-.127-1.722-.127-2.37 0-.229-.056-.544.014-.762.137-.422 1.21-.635 1.595-.79 1.633-.658 3.277-1.29 4.91-1.948 4.512-1.817 9.036-3.602 13.547-5.419l4.234-1.693c.682-.275 1.398-.667 2.116-.818.031-1.172.14-2.388.254-3.556.086-.884 0-1.82 0-2.71 0-2.068-.055-4.133-.254-6.18-.112-1.156-.141-2.317-.254-3.472-.385-3.962-1.189-7.922-2.257-11.768-.572-2.057-1.249-4.168-2.16-6.096-.512-1.086-.993-2.188-1.622-3.218-.497-.813-1.132-1.54-1.722-2.286a93 93 0 0 0-3.415-4.064c-.598-.673-1.174-1.363-1.778-2.032-.15-.166-.327-.561-.592-.55-.288.012-.773.5-1.016.663-.915.61-1.83 1.232-2.71 1.891-1.085.814-2.201 1.58-3.217 2.484-.477.423-.972.812-1.326 1.354-.623.955-.758 2.296-1.03 3.387-.557 2.227-1.07 4.486-1.708 6.689.592.264 1.311.377 1.947.536 1.048.262 2.09.557 3.133.832.508.134 1.022.256 1.524.41.152.046.364.065.48.183.141.145.208.402.296.579l.677 1.354 1.186 2.371c.177.355.434.72.55 1.1.129.421.028 1.002.028 1.44 0 .411.077 1.161-.127 1.524-.12.215-.42.267-.635.339-.54.18-1.07.385-1.608.564-.44.147-1.157.552-1.609.508-.556-.054-1.159-.344-1.693-.508-.207-.063-.492-.072-.65-.24-.207-.22-.283-.64-.395-.917l-.96-2.37q-.357-.888-.705-1.779c-.102-.263-.157-.628-.508-.564-.706.13-1.434.478-2.116.705-1.354.452-2.71.876-4.064 1.327-.507.169-1.081.463-1.609.536-.35.049-.664-.29-1.016-.197-.89.235-1.794.835-2.625 1.227-1.319.623-2.66 1.184-3.979 1.806-1.571.742-3.186 1.424-4.741 2.202-.473.236-.966.44-1.44.677-.179.09-.433.287-.649.268-.173-.015-.38-.19-.536-.268l-1.185-.593-4.488-2.23c-.522-.26-1.188-.845-1.778-.902-.49-.048-1.166.45-1.608.635-1.308.545-2.587 1.148-3.895 1.693-.91.38-1.8.806-2.71 1.185-.27.113-.894.24-1.001.537-.147.409-.099.924-.099 1.354v2.371c0 2.512-.085 5.015-.085 7.535 0 .867-.084 1.746-.084 2.625 0 .249-.093.712.098.903.245.245.696.321 1.002.466.867.409 1.757.775 2.625 1.185 2.804 1.324 5.663 2.542 8.467 3.867.868.41 1.758.776 2.624 1.185.356.168.888.267 1.172.55.174.175.163.586.211.819.193.926.304 1.855.395 2.794.19 1.943.32 3.896.508 5.842.163 1.675-.047 3.405.085 5.08l-2.032.48-.635.211-.042.663-.085 1.355-2.963-1.016-5.673-1.89-17.526-5.843-7.112-2.342-1.947-.65-.932-.253-1.1.366-2.286.79-6.858 2.343-4.149 1.411-2.032.734.085-3.133.042-1.072-.635-.282-1.355-.593c1.51-.596 2.879-1.681 4.318-2.441.457-.241.898-.515 1.355-.762.181-.098.511-.206.635-.381.154-.219.042-.812.042-1.073 0-.996-.084-1.974-.084-2.963 0-2.033-.085-4.077-.085-6.096 0-1.856.094-3.749-.085-5.588-.185-1.901.185-3.856 0-5.757-.198-2.042.114-4.138-.084-6.181-.155-1.59-.085-3.22-.085-4.826 0-.885-.085-1.744-.085-2.625 0-1.61.156-3.308 0-4.91-.17-1.753-.313-3.5-.508-5.25-.196-1.766-.682-3.54-1.157-5.249-.953-3.432-2.317-6.863-4.29-9.821-1.084-1.627-2.507-3.015-3.95-4.318a86 86 0 0 0-6.012-4.94 60 60 0 0 0-2.71-1.947c-.235-.156-.638-.598-.93-.606-.185-.005-.304.189-.424.296-.314.279-.62.565-.931.847-1.24 1.119-2.451 2.293-3.726 3.372-1.252 1.06-2.422 2.217-3.64 3.316-.307.277-.617.566-.932.833-.139.118-.386.229-.395.437-.01.247.325.508.466.678.42.505.847 1.007 1.256 1.524 1.202 1.518 2.482 2.978 3.697 4.487.478.594 1.369 1.3 1.58 2.032m-1.439 62.4v-3.557c0-.335.136-1.052-.042-1.34-.11-.178-.37-.224-.55-.297-.423-.17-.85-.332-1.27-.508-1.602-.667-3.25-1.267-4.827-1.99-.33-.15-.68-.273-1.016-.408-.143-.058-.369-.092-.465-.226-.075-.104-.039-.276-.057-.395-.073-.482-.023-.955-.07-1.44-.21-2.165-.213-4.354-.424-6.519-.049-.506-.035-1.02-.084-1.524-.023-.228.082-.553-.1-.734-.335-.335-1.007-.5-1.424-.72a160 160 0 0 0-3.133-1.608c-.396-.198-1.082-.776-1.524-.776-.418 0-1.06.432-1.44.607-1.172.537-2.384.987-3.555 1.524-.835.382-1.694.733-2.54 1.086-.282.118-.91.246-1.059.536-.098.192.043.622.043.847 0 .856.002 1.696.084 2.54.17 1.737-.084 3.512.085 5.25.083.851.216 1.849.085 2.709-.046.3-.301.405-.508.592-.263.237-.526.5-.762.762a5.1 5.1 0 0 0-1.27 2.964c-.864-.432-1.63-1.076-2.456-1.58-1.946-1.19-3.858-2.46-5.757-3.726-.724-.483-1.477-.929-2.201-1.411-.234-.156-.658-.335-.805-.579-.252-.42.043-1.298.043-1.764V86.36c0-3.83.169-7.68.169-11.515 0-1.355-.046-2.722.085-4.064.048-.498-.138-1.132.028-1.608.139-.401.614-.766.875-1.101.39-.5.632-1.07.762-1.693.208-1.002-.326-1.815-.65-2.71-.337-.934-.834-1.967-.93-2.963-.097-.988.084-1.987.084-2.963 0-.614-.06-1.263.056-1.863.025-.126.002-.298.071-.41.134-.215.5-.288.72-.38.458-.191 1.029-.637 1.524-.692.184-.02.354.121.508.198.222.111.588.204.72.437.203.362.042 1.197.042 1.609 0 1.815-.085 3.603-.085 5.419V63.5c0 .175-.047.434.042.593.14.247.568.393.805.522.489.265.961.575 1.439.86a98 98 0 0 0 4.487 2.526c.929.49 1.882 1.097 2.964 1.158 1.347.074 2.358-1.197 2.68-2.357.315-1.13.34-2.315.452-3.471.17-1.739.339-3.495.339-5.25l2.201.438.805.254.042.917v2.286l.085 8.72 16.256.34.338-4.573.424-5.757.338-4.572.113-1.947.536-1.355 1.61-4.064 1.1-2.794.578-1.425.805-.635 1.608-1.186 1.778-1.241c-1.622-2.284-3.623-4.323-5.362-6.52a51 51 0 0 0-1.326-1.608c-.188-.219-.593-.555-.65-.847-.062-.32.442-.623.65-.79.672-.542 1.306-1.171 1.947-1.75.194-.176.48-.637.762-.65.158-.006.308.156.423.24.4.295.798.592 1.186.904 1.348 1.086 2.694 2.156 3.979 3.316 1.224 1.105 2.521 2.258 3.443 3.64 1.229 1.844 2.051 3.872 2.85 5.927 1.546 3.975 2.258 8.46 2.258 12.7 0 8.867.339 17.722.339 26.586 0 2.32.085 4.618.085 6.942 0 .591-.025 1.188 0 1.778.008.191.153.475.042.65-.18.282-.772.48-1.058.634-.856.464-1.685.976-2.54 1.44-.857.464-1.685.976-2.54 1.44-.35.189-.718.522-1.101.634-.19.055-.34-.045-.508-.113-.414-.167-1.049-.564-1.496-.564-.23 0-.497.173-.705.254-.533.207-1.077.386-1.609.592-1.207.47-2.434.886-3.64 1.355-.494.192-1.06.298-1.525.55-.388.212-.218.634-.254 1.002l-.169 1.609c-.026.263.072.596-.014.847-.071.207-.322.266-.494.367-.572.333-1.16.76-1.778.987m4.149-33.951c.406-.032.805-.247 1.185-.395l1.778-.677c2.164-.842 4.366-1.588 6.52-2.456.754-.304 1.53-.556 2.285-.86.254-.103.647-.156.833-.367.169-.193.08-.511.127-.748.168-.867.107-1.757.24-2.625.151-.992.07-2.04.07-3.048 0-2.55-.153-5.2-1.256-7.535-.408-.864-.93-1.75-1.707-2.343-2.473-1.888-6.07-1.194-7.93 1.242-1.547 2.024-2.158 4.714-2.4 7.197-.092.953-.253 1.916-.253 2.878 0 1.445-.14 2.966 0 4.403.172 1.775.367 3.559.508 5.334M157.31 46.99c.89.915 1.69 1.962 2.483 2.963.523.661 1.12 1.307 1.552 2.032 1.055 1.767 1.68 3.75 2.428 5.673.506 1.302.882 2.701 1.185 4.064.547 2.461 1.167 4.942 1.411 7.45.15 1.552.272 3.105.423 4.657.208 2.132.254 4.28.254 6.435v1.609c0 .193.059.503-.042.677-.213.367-1.184.552-1.566.706l-3.81 1.524c-3.525 1.42-7.06 2.813-10.584 4.233-1.069.43-2.148.84-3.217 1.27-.627.253-1.28.61-1.947.734l.338-3.387.424-3.387-2.625-1.17-3.81-1.722-1.44-.678-.648-.254-.621.508-1.609 1.369-5.419 4.6-1.778 1.524-.762.367-3.048-1.397-7.281-3.302-2.625-1.185-1.425-.635-.099-.819v-2.37l.085-3.641.042-1.425.89-.452 1.947-.846 1.016-.466 1.27.55 3.217 1.609 2.963 1.51 3.81 1.157 4.403 1.355 3.133.973.917.226.296-.72.508-1.778 1.298-4.402.734-2.54 1.327-.565 3.979-1.298 1.722 4.233 1.157 2.964 3.132-1.073 7.028-2.455 2.624-.931.805-.367.042-1.27.085-2.71.084-2.709.057-1.016-1.058-2.032-1.778-3.556-1.101-2.201-.522-.89-1.44-.409-2.878-.733.607-2.54.352-1.27.819-.706zM58.759 59.775c0-2.019.241-4.185.931-6.096.175-.485.393-1.062.776-1.426.123-.117.398-.278.579-.211.44.163.612 1.157.705 1.552.337 1.428.36 2.867.48 4.318.024.282-.085.56-.085.847v1.354c0 .146.058.443-.042.565-.183.223-.69-.1-.889-.17-.794-.275-1.63-.581-2.455-.733M31.665 87.884l2.117-.86 1.1-.41.593.24.805.451.042.579.085 1.524.423 6.604.085 1.524.042.593.466.268 1.524.607 4.148 1.693 1.863.734v15.324l1.609.31 2.286.509 10.244 2.23.339-5.25.254-4.826.17-2.625.084-.762-.593-.536-1.27-.72-.832-.465-.014-.65.084-1.1.014-.847.494-.282 1.101-.423 1.27-.395 1.1.395 2.117.846 1.101.424.466.226.042 1.241-.17 3.726-.084 1.862v1.948l-.085 1.608.565 1.609 1.298 3.556 2.201-1.468 1.016-.635 1.27.254 3.048.762 7.62 1.92 3.81.945.254 3.302.339 5.334.17 1.947 3.386-1.157 5.757-2.004 2.202-.762.748-.395.014-.931v-2.201l-.17-7.874-.084-2.625.042-.903.466-.212 1.1-.409 2.286-.847.932-.296 1.016.367 1.51.691.014.847v1.778l.084 5.419.339 16.086 1.863-.592 4.064-1.327 3.894-1.27 8.552-2.766 4.487-1.467 1.566-.621.043-.762v-1.693l.084-5.673v-1.44l-.042-.663-.635-.508-1.44-1.086-.719-.621-.042-.762.084-2.117 2.88-.677c0-1.522.061-3.065-.086-4.572-.072-.746 0-1.536 0-2.286 0-1.452-.03-2.883-.169-4.318-.14-1.438-.199-2.881-.339-4.318-.042-.434-.366-1.274-.127-1.68.163-.275.561-.502.805-.705.596-.497 1.198-.994 1.778-1.51 1.468-1.305 2.988-2.554 4.487-3.824.424-.359.855-.717 1.27-1.086.204-.182.419-.443.677-.55.196-.082.34.035.508.112.392.18.786.367 1.186.522.159.062.448.136.55.283.115.164-.035.465-.042.649-.03.728-.13 1.48-.24 2.201-.132.864-.099 1.755-.184 2.625-.136 1.401-.254 2.818-.254 4.233 0 1.699-.097 3.45.424 5.08.158.496.382.946.705 1.355.165.208.52.41.565.677.095.564-.115 1.218-.17 1.778-.12 1.247-.386 2.479-.508 3.725-.206 2.122-.12 4.15.085 6.266.044.447-.043.907 0 1.354.219 2.247 0 4.526 0 6.774 0 .705-.007 1.51-.141 2.201-.027.139.014.362-.07.48-.124.171-.45.235-.635.31-.342.138-.677.282-1.016.424-1.324.551-2.675 1.08-3.98 1.679-4.814 2.206-9.831 3.973-14.647 6.18-5.96 2.732-12.16 4.946-18.119 7.677-1.557.714-3.184 1.262-4.741 1.975-2.31 1.059-4.717 1.905-7.027 2.964-.863.395-1.748.749-2.625 1.115-.398.165-.844.453-1.27.536-.23.044-.475-.116-.677-.198-.622-.25-1.255-.497-1.863-.776-1.935-.887-3.953-1.646-5.927-2.441-5.352-2.156-10.677-4.386-16.002-6.604-2.813-1.172-5.697-2.216-8.466-3.486-1.66-.76-3.394-1.371-5.08-2.074-3.834-1.597-7.681-3.172-11.515-4.77a415 415 0 0 0-4.572-1.876c-.399-.16-.787-.333-1.185-.494-.186-.075-.511-.128-.635-.296-.246-.335-.299-1.026-.41-1.426-.299-1.075-.632-2.142-.931-3.217a91 91 0 0 0-1.326-4.403c-.17-.507-.305-1.019-.48-1.524-.097-.278-.254-.549-.282-.846-.079-.806.25-1.66.338-2.456.227-2.039.648-4.053.847-6.096.125-1.286.2-2.604.254-3.894.022-.533-.197-1.47.042-1.948.312-.623 1.324-.904 1.905-1.17.245-.113.57-.146.663-.438.078-.243.015-.593.015-.847 0-.739-.075-1.475-.085-2.201-.038-2.746-.17-5.465-.17-8.213z" style="fill:#020202;stroke:none"/></g></svg>