<svg xmlns="http://www.w3.org/2000/svg" xml:space="preserve" width="655.36" height="655.36" viewBox="0 0 173.397 173.397"><g style="display:inline"><path d="M61.213 223.267c-.568-7.591 27.43-10.813 41.761-11.003 17.233-.228 46.104 3.286 46.237 10.552.125 6.831-23.438 10.398-44.257 10.662-16.907.214-43.248-3.616-43.741-10.211" style="display:inline;fill:#000;fill-opacity:.2;stroke-width:.264583" transform="translate(-18.34 -61.733)"/></g><g style="display:inline"><path d="m86.699 156.125 1.947-1.862 3.98-4.064 7.027-7.112 5.672-5.758 4.911-4.91 1.44-1.44.634-.677.043-1.778V36.407l-.043-1.27-1.481-1.524-3.387-3.387L96.266 19.05l-6.689-6.689-1.693-1.693-.677-.564-.508.395-1.101 1.1-4.657 4.657-13.885 13.885-4.149 4.149-1.27 1.27-.55.593-.042 1.862v91.61l.042 1.693.55.593 1.44 1.354 5.08 4.911z" id="obelisk_svg" display="inline" fill="currentColor" stroke="#000" stroke-width="2"/><path d="m86.699 156.125 1.947-1.862 3.98-4.064 7.027-7.112 5.672-5.758 4.911-4.91 1.44-1.44.634-.677.043-1.778V36.407l-.043-1.27-1.481-1.524-3.387-3.387L96.266 19.05l-6.689-6.689-1.693-1.693-.677-.564-.508.395-1.101 1.1-4.657 4.657-13.885 13.885-4.149 4.149-1.27 1.27-.55.593-.042 1.862v91.61l.042 1.693.55.593 1.44 1.354 5.08 4.911zm.508-138.91.423.31.762.762 3.387 3.387 11.43 11.43 2.963 2.963 1.1 1.27v89.916l-.013.847-1.172 1.27-2.878 2.878-5.419 5.504-6.35 6.434-3.302 3.302-.931 1.016-.508.41-.424-.24-.846-.847-3.387-3.302-11.853-11.43-3.048-2.963-1.016-1.101V39.116l.014-.847 1.256-1.354 3.217-3.218 11.684-11.684 3.64-3.64.847-.847zm4.826 92.004c.438-.046.648-.407.86-.762.304-.508.595-1.03.918-1.524 1.23-1.885 3.16-3.54 5.418-3.98 1.455-.282 3.085.355 3.218 2.033.148-.204.084-.576.084-.847V93.472c0-10.651.085-21.338.085-32.004v-4.233c0-1.398.005-2.807-.423-4.149-.486-1.52-1.52-2.883-3.218-3.048-1.41-.137-2.85.54-3.894 1.44-2.015 1.734-3.215 4.221-3.472 6.857-.112 1.16 0 2.39 0 3.556 0 4.017.085 8.014.085 12.023v4.572c0 .75-.072 1.54 0 2.286.176 1.811.085 3.675.085 5.503 0 2.035.084 4.075.084 6.096 0 3.586.085 7.18.085 10.753v3.725c0 .79-.058 1.597.085 2.371m-20.913-4.487h.085c.11-1.393 1.76-1.998 2.963-1.948.637.027 1.26.251 1.863.452 1.777.592 3.241 1.537 4.205 3.189.382.655.56 1.4.79 2.117.111.348.159.697.508.846.183-.434.085-1.046.085-1.524v-3.132c0-3.461.084-6.94.084-10.414 0-4.472.17-8.989.17-13.462v-5.758c0-.944-.092-1.94 0-2.878.256-2.64.084-5.383.084-8.044 0-1.027-.099-2.11 0-3.132.057-.585.143-1.183.085-1.778-.3-3.086-1.344-6.258-4.064-8.072-1.292-.861-2.887-1.4-4.403-.79-1.466.59-2.1 2.183-2.398 3.612-.284 1.362-.226 2.755-.226 4.149v5.588c0 13.668.17 27.32.17 40.979m27.177 7.648c-1.023.313-1.771 1.623-2.215 2.512-1.303 2.605-1.933 5.905-1.37 8.805.204 1.047.386 2.059.989 2.963.4.6 1.002.995 1.75.819 1.22-.288 1.89-1.63 2.314-2.681 1.118-2.776 1.229-5.958.903-8.89-.104-.937-.348-1.982-.833-2.794-.325-.545-.873-.937-1.538-.734m-23.622.085c-1.13.266-1.438 1.897-1.637 2.85-.652 3.132-.31 6.56.734 9.567.394 1.135 1.537 3.116 3.02 2.766 1.29-.305 1.745-2.075 1.961-3.189.584-3.003.244-6.378-1.1-9.144-.416-.855-.97-1.764-1.708-2.385-.33-.277-.815-.573-1.27-.465" style="fill:#010101;stroke:none"/></g></svg>