<svg xmlns="http://www.w3.org/2000/svg" xml:space="preserve" width="655.36" height="655.36" viewBox="0 0 173.397 173.397"><g style="display:inline"><path d="M61.213 223.267c-.568-7.591 27.43-10.813 41.761-11.003 17.233-.228 46.104 3.286 46.237 10.552.125 6.831-23.438 10.398-44.257 10.662-16.907.214-43.248-3.616-43.741-10.211" style="display:inline;fill:#000;fill-opacity:.2;stroke-width:.264583" transform="translate(-18.34 -61.733)"/></g><g style="display:inline"><path d="m86.445 15.917-4.177 6.435-4.742 7.281-8.382 12.87-6.01 9.228-3.02 4.657h-.085l-.932-.677-2.116-1.383-5.504-3.584-2.624-1.722h-.085l-5.955 8.382-13.998 19.727-5.334 7.536-2.484 3.471v.085l49.276 49.445 12.362 12.361 3.048 3.133 1.1.988 1.101-.988 2.963-3.048 12.023-12.023 48.09-48.26v-.084l-2.906-4.488-4.742-7.366-12.728-19.727-3.98-6.18-1.975-3.049h-.084l-3.218 2.06-5.08 3.246-1.862 1.185-1.27.875h-.085l-2.427-3.725-7.705-11.769-7.874-12.022-4.657-7.112-3.753-5.758z" id="mountainPeak_svg" display="inline" fill="currentColor" stroke="#000" stroke-width="2"/><path d="m86.445 15.917-4.177 6.435-4.742 7.281-8.382 12.87-6.01 9.228-3.02 4.657h-.085l-.932-.677-2.116-1.383-5.504-3.584-2.624-1.722h-.085l-5.955 8.382-13.998 19.727-5.334 7.536-2.484 3.471v.085l49.276 49.445 12.362 12.361 3.048 3.133 1.1.988 1.101-.988 2.963-3.048 12.023-12.023 48.09-48.26v-.084l-2.906-4.488-4.742-7.366-12.728-19.727-3.98-6.18-1.975-3.049h-.084l-3.218 2.06-5.08 3.246-1.862 1.185-1.27.875h-.085l-2.427-3.725-7.705-11.769-7.874-12.022-4.657-7.112-3.753-5.758zm.17 9.229 2.088 3.217 4.826 7.366 4.657 7.112 6.802 10.414 4.77 7.282 1.213 1.862.536.734.762-.367 1.863-1.185 6.688-4.233 1.609-1.016.677-.325.424.55 1.03 1.609 3.485 5.419 6.096 9.482 5.673 8.806 3.274 5.08.93 1.439.41.677-.663.847-2.032 2.032-8.297 8.297-34.036 34.121-9.652 9.652-2.202 2.286-.846.635-.508-.466-1.214-1.27-2.85-2.878-11.938-11.938L27.6 87.715v-.085l2.4-3.387 5.756-8.128 14.28-20.15 1.356.79 2.37 1.552 7.874 5.108.819-1.354 1.27-1.948 3.81-5.842 7.422-11.43 4.77-7.281 4.741-7.281 1.411-2.202z" style="fill:#020202;stroke:none"/></g></svg>