<svg xmlns="http://www.w3.org/2000/svg" width="655.36" height="655.36" viewBox="0 0 173.397 173.397"><g style="display:inline"><path d="M61.213 223.267c-.568-7.591 27.43-10.813 41.761-11.003 17.233-.228 46.104 3.286 46.237 10.552.125 6.831-23.438 10.398-44.257 10.662-16.907.214-43.248-3.616-43.741-10.211" style="display:inline;fill:#000;fill-opacity:.2;stroke-width:.264583" transform="translate(-18.34 -61.733)"/></g><g style="display:inline"><path d="M57.235 119.973h.169c.376.951 1.305 1.806 1.92 2.624.827 1.104 1.293 2.435 2.229 3.472.444.491.991.857 1.524 1.241.162.117.443.21.55.381.099.16.025.403.042.579l.085.847c.061.628.282 1.338.452 1.947.218.787.45 1.742.846 2.455.202.364.387.74.593 1.101.117.205.382.413.423.65.026.148-.083.385-.113.535-.118.609-.4 1.233-.338 1.863.19 1.959 1.222 3.94 2.23 5.588.421.69.969 1.248 1.48 1.863.46.55.83 1.12 1.37 1.608.883.798 1.914 1.449 2.878 2.145a27 27 0 0 0 3.641 2.216c.457.228.961.334 1.44.494 1.251.417 2.51.773 3.81 1.044.253.053.507.003.761.028.908.088 1.802.25 2.71.339.26.025.502.144.762.169.354.034.672-.051 1.016-.085.709-.069 1.408-.1 2.116-.17.23-.021.449-.142.678-.154.174-.01.331.08.508.07 1.243-.069 2.59-.643 3.725-1.1.348-.14.765-.13 1.1-.297.824-.411 1.594-.946 2.371-1.453.5-.327 1.087-.521 1.609-.819.465-.265.854-.65 1.284-.96.41-.295.866-.536 1.256-.86.59-.49 1.122-1.108 1.665-1.651.321-.321.545-.715.819-1.072.421-.552.933-.999 1.298-1.61.195-.326.269-.667.409-1.015.166-.412.432-.78.607-1.185.301-.7.547-1.699.62-2.456.045-.456.15-1.08.057-1.524-.076-.364-.358-.9-.296-1.27.061-.37.486-.67.635-1.016.429-.997.878-1.99 1.143-3.048.239-.955.435-1.919.635-2.878.062-.297-.083-.753.07-1.016.113-.195.453-.271.635-.396.52-.353 1.134-.726 1.538-1.213.697-.84 1.193-1.81 1.793-2.71.74-1.111 1.606-2.32 2.511-3.301.197.749.983 1.43 1.454 2.032 1.581 2.02 3.71 3.696 5.828 5.108 1.62 1.08 3.349 1.947 5.164 2.653 1.402.545 3.092.815 4.572.96.652.063 1.296.275 1.948.338 1.402.136 2.774-.205 4.148-.339.504-.049 1.021.05 1.524 0 .507-.049 1.022-.191 1.524-.268.172-.026.337.026.508.014.643-.044 1.324-.281 1.948-.437 1.012-.253 2.077-.47 3.048-.861 1.571-.633 3.07-1.644 4.487-2.568 1.457-.951 2.958-1.784 4.318-2.893.624-.509 1.142-1.167 1.637-1.792.223-.282.52-.488.748-.762.505-.608.934-1.306 1.397-1.947.866-1.2 1.408-2.555 2.004-3.895.38-.858.86-1.665 1.213-2.54.242-.602.339-1.267.579-1.863 1.2-2.982 2.08-6.081 2.78-9.228.191-.863.563-1.743.649-2.625.063-.654.19-1.3.254-1.947.068-.703.016-1.415.084-2.117.069-.703.186-1.41.254-2.117.082-.839-.081-1.701 0-2.54.026-.26.144-.502.17-.762.086-.884 0-1.82 0-2.71 0-.86.083-1.767 0-2.624-.026-.26-.144-.502-.17-.762-.1-1.038.017-2.095-.084-3.132-.04-.4-.215-.784-.254-1.186-.15-1.547-.02-3.109-.17-4.656-.118-1.221-.39-2.425-.508-3.641-.038-.397.039-.79 0-1.185-.041-.429-.217-.852-.31-1.27-.112-.505-.121-1.022-.226-1.524-.172-.826-.438-1.633-.62-2.456-.413-1.857-.73-3.746-1.243-5.588-.524-1.889-1.232-3.71-1.806-5.588-.413-1.352-.909-2.662-1.44-3.98-.154-.384-.195-.813-.38-1.184-.888-1.776-1.741-3.61-2.724-5.334-.282-.497-.648-.943-.93-1.44-1.365-2.395-3.632-4.252-5.56-6.18-.563-.562-1.104-1.161-1.694-1.694-.315-.284-.702-.478-1.016-.762-.65-.587-1.212-1.275-1.863-1.862-.885-.8-2.026-1.564-3.048-2.174-1.767-1.055-3.724-1.798-5.588-2.652-.943-.433-1.94-.757-2.878-1.2-.54-.255-1.057-.567-1.609-.804-.7-.302-1.545-.4-2.286-.565-.419-.093-.842-.268-1.27-.31-.264-.026-.508.085-.762.07-.229-.012-.447-.132-.677-.155-.746-.072-1.536 0-2.286 0-2.712 0-5.415-.104-8.044.48-.873.194-1.546.39-2.286.903-.33.229-.687.446-.846.819-1.387-.62-3.084-.152-4.488.14-2.069.432-3.985 1.216-6.011 1.779-.823.228-1.572.57-2.37.846-1.424.494-2.696 1.068-3.782 2.173-.625.636-1.34 1.607-1.694 2.428-.202.469-.257 1.03-.38 1.524-.044.174-.055.44-.184.578-.131.14-.313.083-.48.099-.37.036-.728.133-1.1.17-.513.05-1.027.228-1.525.352-.426.106-.867.149-1.27.339-1.115.526-2.042 1.42-2.709 2.44a4 4 0 0 0-.452.932c-.058.183-.06.437-.24.55-.401.254-1.096-.086-1.51-.126-1.293-.126-2.605.084-3.894.084-.02-.732-.53-1.298-.945-1.862-.589-.8-1.514-1.69-2.442-2.089-.553-.238-1.197-.292-1.778-.437-.864-.216-1.729-.438-2.624-.438-.059-2.225-1.624-4.332-3.387-5.531-1.418-.965-3.217-1.411-4.826-1.948-2.501-.833-5.027-1.604-7.62-2.145-.72-.15-1.548-.143-2.286-.112-.233.01-.538.18-.762.112-.513-.156-.97-.749-1.44-1.016-.747-.425-1.94-.707-2.793-.79-2.309-.224-4.605-.254-6.943-.254-1.21 0-2.542-.133-3.725.113-1.12.233-2.414.392-3.472.847-.522.225-1.011.562-1.524.804-.743.351-1.545.582-2.286.931-.797.377-1.664.586-2.455.96-.976.46-1.913 1.013-2.879 1.496-.297.149-.64.215-.931.38-.751.429-1.427 1.036-2.117 1.553-.637.478-1.351.938-1.919 1.496-.717.704-1.376 1.494-2.145 2.145-.43.364-.93.67-1.326 1.072-.392.399-.708.862-1.129 1.242-.929.839-1.92 1.573-2.723 2.54-.931 1.12-1.6 2.438-2.385 3.64-1.591 2.438-2.771 5.114-3.923 7.79-.206.479-.23 1.03-.395 1.524-.279.836-.632 1.596-.847 2.455-.352 1.408-.997 2.759-1.383 4.149-.565 2.035-.953 4.12-1.41 6.18-.423 1.9-.885 3.823-1.073 5.758-.042.43-.213.843-.254 1.27-.075.764-.095 1.521-.17 2.286-.025.26-.144.502-.169.762-.068.699.068 1.418 0 2.117-.025.26-.144.501-.17.762-.046.475.047.964 0 1.439-.025.26-.143.502-.169.762-.06.618-.024 1.246-.084 1.863-.06.615.06 1.247 0 1.862-.026.26-.144.502-.17.762a18 18 0 0 0 0 3.302c.074.755-.073 1.531 0 2.286.026.26.144.502.17.762.155 1.598-.07 3.23.084 4.826.026.26.144.502.17.762.032.336-.033.68 0 1.016.036.375.212.726.254 1.1.037.34-.042.68.028 1.017.352 1.688.724 3.42 1.185 5.08.09.326.285.603.367.931.24.963.487 1.87.847 2.794.149.383.147.807.31 1.186.185.429.42.805.536 1.27.078.311.105.63.226.93 1.178 2.925 2.362 5.877 4.234 8.468.806 1.116 1.707 2.074 2.68 3.048.47.469.92.999 1.44 1.41 1.02.807 2.169 1.417 3.217 2.174a23 23 0 0 0 4.149 2.385c.606.269 1.218.597 1.863.776 1.398.388 2.822.609 4.233.903.498.103 1.017.26 1.524.31.391.038.794-.038 1.185 0 .9.088 1.81.251 2.71.339.269.026.5-.06.762-.085.506-.049 1.02-.035 1.524-.085 2.832-.275 5.584-.759 8.212-1.89.256-.11.449-.303.678-.452.293-.191.63-.3.931-.48.564-.337 1.061-.771 1.609-1.129 1.021-.667 2.129-1.31 3.048-2.13.828-.74 1.546-1.602 2.314-2.4.665-.69 1.454-1.505 1.75-2.44z" id="ram_svg" display="inline" fill="currentColor" stroke="#000" stroke-width="2"/><path d="M57.235 119.973h.169c.376.951 1.305 1.806 1.92 2.624.827 1.104 1.293 2.435 2.229 3.472.444.491.991.857 1.524 1.241.162.117.443.21.55.381.099.16.025.403.042.579l.085.847c.061.628.282 1.338.452 1.947.218.787.45 1.742.846 2.455.202.364.387.74.593 1.101.117.205.382.413.423.65.026.148-.083.385-.113.535-.118.609-.4 1.233-.338 1.863.19 1.959 1.222 3.94 2.23 5.588.421.69.969 1.248 1.48 1.863.46.55.83 1.12 1.37 1.608.883.798 1.914 1.449 2.878 2.145a27 27 0 0 0 3.641 2.216c.457.228.961.334 1.44.494 1.251.417 2.51.773 3.81 1.044.253.053.507.003.761.028.908.088 1.802.25 2.71.339.26.025.502.144.762.169.354.034.672-.051 1.016-.085.709-.069 1.408-.1 2.116-.17.23-.021.449-.142.678-.154.174-.01.331.08.508.07 1.243-.069 2.59-.643 3.725-1.1.348-.14.765-.13 1.1-.297.824-.411 1.594-.946 2.371-1.453.5-.327 1.087-.521 1.609-.819.465-.265.854-.65 1.284-.96.41-.295.866-.536 1.256-.86.59-.49 1.122-1.108 1.665-1.651.321-.321.545-.715.819-1.072.421-.552.933-.999 1.298-1.61.195-.326.269-.667.409-1.015.166-.412.432-.78.607-1.185.301-.7.547-1.699.62-2.456.045-.456.15-1.08.057-1.524-.076-.364-.358-.9-.296-1.27.061-.37.486-.67.635-1.016.429-.997.878-1.99 1.143-3.048.239-.955.435-1.919.635-2.878.062-.297-.083-.753.07-1.016.113-.195.453-.271.635-.396.52-.353 1.134-.726 1.538-1.213.697-.84 1.193-1.81 1.793-2.71.74-1.111 1.606-2.32 2.511-3.301.197.749.983 1.43 1.454 2.032 1.581 2.02 3.71 3.696 5.828 5.108 1.62 1.08 3.349 1.947 5.164 2.653 1.402.545 3.092.815 4.572.96.652.063 1.296.275 1.948.338 1.402.136 2.774-.205 4.148-.339.504-.049 1.021.05 1.524 0 .507-.049 1.022-.191 1.524-.268.172-.026.337.026.508.014.643-.044 1.324-.281 1.948-.437 1.012-.253 2.077-.47 3.048-.861 1.571-.633 3.07-1.644 4.487-2.568 1.457-.951 2.958-1.784 4.318-2.893.624-.509 1.142-1.167 1.637-1.792.223-.282.52-.488.748-.762.505-.608.934-1.306 1.397-1.947.866-1.2 1.408-2.555 2.004-3.895.38-.858.86-1.665 1.213-2.54.242-.602.339-1.267.579-1.863 1.2-2.982 2.08-6.081 2.78-9.228.191-.863.563-1.743.649-2.625.063-.654.19-1.3.254-1.947.068-.703.016-1.415.084-2.117.069-.703.186-1.41.254-2.117.082-.839-.081-1.701 0-2.54.026-.26.144-.502.17-.762.086-.884 0-1.82 0-2.71 0-.86.083-1.767 0-2.624-.026-.26-.144-.502-.17-.762-.1-1.038.017-2.095-.084-3.132-.04-.4-.215-.784-.254-1.186-.15-1.547-.02-3.109-.17-4.656-.118-1.221-.39-2.425-.508-3.641-.038-.397.039-.79 0-1.185-.041-.429-.217-.852-.31-1.27-.112-.505-.121-1.022-.226-1.524-.172-.826-.438-1.633-.62-2.456-.413-1.857-.73-3.746-1.243-5.588-.524-1.889-1.232-3.71-1.806-5.588-.413-1.352-.909-2.662-1.44-3.98-.154-.384-.195-.813-.38-1.184-.888-1.776-1.741-3.61-2.724-5.334-.282-.497-.648-.943-.93-1.44-1.365-2.395-3.632-4.252-5.56-6.18-.563-.562-1.104-1.161-1.694-1.694-.315-.284-.702-.478-1.016-.762-.65-.587-1.212-1.275-1.863-1.862-.885-.8-2.026-1.564-3.048-2.174-1.767-1.055-3.724-1.798-5.588-2.652-.943-.433-1.94-.757-2.878-1.2-.54-.255-1.057-.567-1.609-.804-.7-.302-1.545-.4-2.286-.565-.419-.093-.842-.268-1.27-.31-.264-.026-.508.085-.762.07-.229-.012-.447-.132-.677-.155-.746-.072-1.536 0-2.286 0-2.712 0-5.415-.104-8.044.48-.873.194-1.546.39-2.286.903-.33.229-.687.446-.846.819-1.387-.62-3.084-.152-4.488.14-2.069.432-3.985 1.216-6.011 1.779-.823.228-1.572.57-2.37.846-1.424.494-2.696 1.068-3.782 2.173-.625.636-1.34 1.607-1.694 2.428-.202.469-.257 1.03-.38 1.524-.044.174-.055.44-.184.578-.131.14-.313.083-.48.099-.37.036-.728.133-1.1.17-.513.05-1.027.228-1.525.352-.426.106-.867.149-1.27.339-1.115.526-2.042 1.42-2.709 2.44a4 4 0 0 0-.452.932c-.058.183-.06.437-.24.55-.401.254-1.096-.086-1.51-.126-1.293-.126-2.605.084-3.894.084-.02-.732-.53-1.298-.945-1.862-.589-.8-1.514-1.69-2.442-2.089-.553-.238-1.197-.292-1.778-.437-.864-.216-1.729-.438-2.624-.438-.059-2.225-1.624-4.332-3.387-5.531-1.418-.965-3.217-1.411-4.826-1.948-2.501-.833-5.027-1.604-7.62-2.145-.72-.15-1.548-.143-2.286-.112-.233.01-.538.18-.762.112-.513-.156-.97-.749-1.44-1.016-.747-.425-1.94-.707-2.793-.79-2.309-.224-4.605-.254-6.943-.254-1.21 0-2.542-.133-3.725.113-1.12.233-2.414.392-3.472.847-.522.225-1.011.562-1.524.804-.743.351-1.545.582-2.286.931-.797.377-1.664.586-2.455.96-.976.46-1.913 1.013-2.879 1.496-.297.149-.64.215-.931.38-.751.429-1.427 1.036-2.117 1.553-.637.478-1.351.938-1.919 1.496-.717.704-1.376 1.494-2.145 2.145-.43.364-.93.67-1.326 1.072-.392.399-.708.862-1.129 1.242-.929.839-1.92 1.573-2.723 2.54-.931 1.12-1.6 2.438-2.385 3.64-1.591 2.438-2.771 5.114-3.923 7.79-.206.479-.23 1.03-.395 1.524-.279.836-.632 1.596-.847 2.455-.352 1.408-.997 2.759-1.383 4.149-.565 2.035-.953 4.12-1.41 6.18-.423 1.9-.885 3.823-1.073 5.758-.042.43-.213.843-.254 1.27-.075.764-.095 1.521-.17 2.286-.025.26-.144.502-.169.762-.068.699.068 1.418 0 2.117-.025.26-.144.501-.17.762-.046.475.047.964 0 1.439-.025.26-.143.502-.169.762-.06.618-.024 1.246-.084 1.863-.06.615.06 1.247 0 1.862-.026.26-.144.502-.17.762a18 18 0 0 0 0 3.302c.074.755-.073 1.531 0 2.286.026.26.144.502.17.762.155 1.598-.07 3.23.084 4.826.026.26.144.502.17.762.032.336-.033.68 0 1.016.036.375.212.726.254 1.1.037.34-.042.68.028 1.017.352 1.688.724 3.42 1.185 5.08.09.326.285.603.367.931.24.963.487 1.87.847 2.794.149.383.147.807.31 1.186.185.429.42.805.536 1.27.078.311.105.63.226.93 1.178 2.925 2.362 5.877 4.234 8.468.806 1.116 1.707 2.074 2.68 3.048.47.469.92.999 1.44 1.41 1.02.807 2.169 1.417 3.217 2.174a23 23 0 0 0 4.149 2.385c.606.269 1.218.597 1.863.776 1.398.388 2.822.609 4.233.903.498.103 1.017.26 1.524.31.391.038.794-.038 1.185 0 .9.088 1.81.251 2.71.339.269.026.5-.06.762-.085.506-.049 1.02-.035 1.524-.085 2.832-.275 5.584-.759 8.212-1.89.256-.11.449-.303.678-.452.293-.191.63-.3.931-.48.564-.337 1.061-.771 1.609-1.129 1.021-.667 2.129-1.31 3.048-2.13.828-.74 1.546-1.602 2.314-2.4.665-.69 1.454-1.505 1.75-2.44m-12.108-73.66h.339c.226-.573.722-1.104 1.072-1.609.363-.522.637-1.14.96-1.693.323-.555.753-1.048 1.072-1.609 1.816-3.189 3.57-6.33 6.379-8.749.55-.474 1.112-.918 1.679-1.355.43-.331.919-.796 1.453-.96.268-.08.573-.005.847-.027.832-.07 1.49.111 2.286.31 2.35.587 4.604 1.28 6.858 2.187.565.228 1.139.366 1.693.635.86.419 1.556 1.496 1.609 2.456.044.787-.89.918-1.44 1.185-1.442.701-2.957 1.46-4.134 2.568-2.925 2.754-4.646 6.284-6.293 9.878-.498 1.085-.701 2.258-1.03 3.387-.108.369-.276.8-.226 1.185.6-.174 1.015-1.086 1.284-1.609.534-1.04 1.367-1.975 2.074-2.892.107-.14.107-.337.226-.466 1.253-1.36 2.026-3.162 3.217-4.572.573-.678 1.385-1.137 2.089-1.665 1.235-.927 2.546-1.907 3.979-2.484a7.4 7.4 0 0 1 1.185-.338c.243-.05.497.038.734 0 .183-.03.34-.15.536-.17 1.306-.127 2.553.188 3.81.31.747.073 1.758.24 1.863 1.186.144 1.292-.87 2.476-1.947 3.09-.926.527-1.948.895-2.879 1.426-1.715.976-3.463 2.067-4.798 3.541-1.105 1.221-1.98 2.621-2.794 4.05-.497.873-.98 1.818-1.735 2.512-.762.7-1.727 1.134-2.611 1.637-1.018.58-2.049 1.171-3.133 1.623-.238.099-.516.108-.762.183-.543.166-1.063.463-1.608.607-.89.235-1.793.391-2.681.62-.956.248-1.877.656-2.823.932-.612.179-1.258.273-1.862.466-1.134.362-2.066 1.077-3.133 1.566-.305.14-.691.145-1.016.24-.351.103-.737 0-1.072-.07-.358-.076-.762.016-1.13-.015-.233-.019-.449-.117-.677-.155-.333-.055-.683.032-1.016-.014-.233-.032-.456-.156-.691-.17-.865-.047-1.743.028-2.61.015-.584-.01-1.172-.099-1.75-.099-1.9 0-3.809.417-5.617 1.002-.161.052-.32 0-.48.014-.161.015-.295.12-.451.155-.391.087-.794.117-1.185.226-1.519.422-3.018 1.132-4.403 1.863-1.463.772-2.599 1.864-3.895 2.836-.636.477-1.15 1.057-1.721 1.609-1.057 1.02-2.214 2.167-2.568 3.669-.117.494.134.937.366 1.354.508.914 1.058 1.791 1.807 2.54 1.553 1.554 2.83 3.353 4.487 4.826.686.61 1.433 1.16 2.117 1.778.341.308.773.58.973 1.016.345.752.203 1.733.17 2.54-.008.178.063.33.014.508-.146.526-.444 1.013-.621 1.524-.707 2.037-1.486 4.056-1.722 6.181-.023.21-.146.382-.169.593-.058.521 0 1.083 0 1.608 0 .667-.064 1.37 0 2.032.13 1.334.612 2.676 1.171 3.895.49 1.068.908 2.149 1.708 3.048 1.15 1.295 2.863 2.522 4.572 2.95 1.2.3 2.52.3 3.725.183.713-.07 1.34.004 2.032-.198 1.533-.447 3.1-1.97 3.951-3.274.92-1.408 1.38-2.842 1.609-4.487.063-.458-.097-.9-.141-1.355-.154-1.578-1.02-3.258-2.117-4.402-.398-.415-.81-.912-1.27-1.256-.94-.705-2.175-.96-3.288-.96-.59 0-1.211-.038-1.707.381-.352.297-.636.624-.17.974.193.144.45.12.678.155.495.076 1.05.146 1.524.31.784.273 1.294.925 1.75 1.581 1.685 2.427 1.45 6.048-.734 8.057-.367.337-.724.706-1.186.918-.308.141-.552.1-.86.155-.222.04-.422.158-.65.17-2.223.109-4.794-1.046-6.166-2.865-.705-.936-1.008-2.125-1.327-3.218-.313-1.073-.31-2.085-.31-3.217 0-.683-.094-1.44 0-2.117.135-.973.579-2.003 1.016-2.878.166-.331.31-.723.536-1.016 1.86-2.419 4.47-4.59 7.507-5.306.702-.166 1.668-.088 2.371-.028.42.035.85-.041 1.27 0 .713.069 1.423.306 2.117.48 1.423.355 2.792.835 4.064 1.594 1.164.696 2.06 1.68 3.132 2.484 1.421 1.065 2.859 2.308 3.951 3.739 1.476 1.932 2.434 4.092 3.02 6.435.21.835.649 1.576.734 2.455.295 3.033-.068 6.047-1.214 8.89-.303.754-.776 1.403-1.143 2.117-1.803 3.51-5.041 6.194-8.48 8.057-.97.525-1.985 1.087-3.048 1.397-.435.127-.867.088-1.284.184-.183.041-.332.158-.523.169-.227.012-.48-.05-.705-.014-.183.03-.34.15-.536.17a18.8 18.8 0 0 1-4.911-.156c-.498-.083-1.024.048-1.524-.014-1.251-.157-2.58-.361-3.81-.72-1.556-.454-2.953-1.25-4.318-2.102-1.528-.955-3.218-1.854-4.572-3.077-.4-.36-.662-.793-1.016-1.185-1.037-1.148-2.08-2.41-2.78-3.81-.522-1.044-.906-2.142-1.369-3.217-.796-1.85-1.518-3.72-2.06-5.673-.332-1.197-.78-2.36-1.129-3.556-.144-.496-.184-1.018-.31-1.524-.324-1.295-.608-2.579-.79-3.895-.153-1.098-.004-2.263-.113-3.386-.023-.235-.147-.443-.17-.678-.087-.894.087-1.814 0-2.709-.025-.26-.144-.502-.169-.762-.073-.746 0-1.536 0-2.286 0-.778-.075-1.597 0-2.37.023-.236.147-.443.17-.678.062-.643-.063-1.304 0-1.947.022-.235.146-.443.169-.678.04-.42-.041-.85 0-1.27.028-.287.12-.56.14-.846.098-1.403-.044-2.9.114-4.318.023-.211.146-.382.169-.593.085-.768.063-1.523.17-2.286.025-.183.143-.325.169-.508.126-.908.183-1.813.395-2.71.052-.222-.008-.457.056-.677a34 34 0 0 0 .748-3.104c.074-.391.077-.836.184-1.214.344-1.22.607-2.486.917-3.725.1-.402.315-.798.465-1.185.15-.386.211-.804.31-1.186.15-.573.433-1.127.622-1.693.963-2.891 1.918-5.764 3.344-8.467.936-1.773 1.952-3.612 3.217-5.164.59-.724 1.32-1.264 2.018-1.877 1.103-.967 2.121-2.068 3.204-3.062 1.525-1.4 2.925-2.869 4.67-4.008.523-.34 1.128-.567 1.694-.818 1.308-.582 2.57-1.227 3.894-1.778 1.034-.431 2.098-.827 3.105-1.313.58-.28 1.169-.602 1.806-.762.509-.127 1-.132 1.524-.183.242-.024.461-.146.706-.155 2.042-.075 4.174-.106 6.18 0 .278.014.537.143.819.155.754.031 1.49.073 2.201.31.246.082.498.105.635.367.305.584-.126 1.135-.494 1.51-.383.39-.833.684-1.228 1.059-.253.24-.418.54-.635.804-.36.439-.79.843-1.143 1.284-.759.949-1.513 1.99-2.13 3.048-.4.684-.717 1.436-1.115 2.117-.279.476-.596.923-.804 1.439-.38.94-.565 1.92-.805 2.879-.228.91-.837 2.124-.494 3.048m69.935 7.112c.151-.823-.07-1.416-.31-2.202-.278-.91-.639-1.747-1.016-2.624-.62-1.441-1.367-2.783-2.145-4.149-.457-.801-.896-1.627-1.454-2.37-.858-1.145-2.03-2.211-3.118-3.133-.92-.78-2.152-1.316-3.218-1.849-.388-.194-1.164-.31-1.326-.776-.048-.137 0-.26 0-.395 0-.223-.062-.485-.014-.706.246-1.142 1.327-1.67 2.272-2.102 1.761-.808 3.66-1.368 5.503-1.905 1.651-.482 3.294-1.077 5.08-.903 1.038.1 1.752 1.118 2.54 1.665 1.326.92 2.352 2.05 3.33 3.33.482.631 1.056 1.173 1.468 1.863.601 1.007 1.15 2.045 1.75 3.048.94 1.575 1.97 3.1 2.92 4.656.23.375.385.775.692 1.101.079.084.257.296.395.268.44-.088.19-.793.141-1.03-.219-1.05-.557-2.081-.776-3.133-.295-1.416-1.048-2.553-1.693-3.81-.966-1.879-2.131-3.549-3.5-5.164-.416-.492-.777-1.093-1.256-1.524-.653-.59-1.737-.987-1.679-2.032.05-.883.847-.858 1.51-.932.211-.023.382-.146.593-.169.278-.031.568.031.846 0 .216-.024.402-.147.621-.155.638-.023 1.304.014 1.933.014 1.902 0 3.924-.227 5.828.17 1.848.384 3.637 1.272 5.334 2.074 1.908.9 3.928 1.571 5.758 2.638 1.862 1.087 3.321 2.714 4.91 4.149 1.095.989 2.121 2.058 3.218 3.048.888.802 1.837 1.528 2.511 2.54 1.234 1.85 2.504 3.876 3.387 5.927 1.348 3.131 2.448 6.31 3.443 9.567.201.658.506 1.295.706 1.947.395 1.295.555 2.69.931 3.98.057.193 0 .399.057.592.425 1.46.694 2.982.903 4.488.073.525.287 1.066.324 1.608.035.501.05 1.014.1 1.524.022.235.146.443.168.678.03.307-.03.623 0 .931.023.235.147.442.17.677.148 1.52.021 3.053.17 4.572.076.789.176 1.581.253 2.371.054.56-.054 1.134 0 1.693.028.286.142.562.17.847.077.801 0 1.65 0 2.455s.077 1.654 0 2.456c-.03.31-.134.62-.156.931-.113 1.627.001 3.292-.099 4.91-.013.212-.146.383-.169.593-.034.307.034.625 0 .932-.056.502-.202 1.036-.324 1.524-.17.681-.155 1.435-.297 2.116-.053.258-.208.51-.282.762-.049.168 0 .342-.042.508-.219.873-.507 1.75-.762 2.625-.733 2.514-1.689 4.936-2.667 7.366-.416 1.032-.777 2.167-1.327 3.133-.527.925-1.11 1.88-1.778 2.695-.308.376-.758.652-1.044 1.03-.108.142-.104.347-.226.48-.974 1.057-2.264 1.77-3.429 2.61-1.882 1.358-4.034 2.661-6.28 3.316-.798.233-1.649.31-2.455.508-.239.06-.5-.042-.733 0-.188.035-.319.17-.522.184-.438.029-.89-.069-1.341-.014-1.933.233-3.752.364-5.673 0-.586-.111-1.245-.023-1.82-.184-2.893-.806-5.398-2.422-7.775-4.205-.402-.301-.746-.731-1.1-1.086a19 19 0 0 1-2.922-3.726c-.406-.679-.899-1.314-1.228-2.032-.679-1.482-1.176-3.135-1.354-4.741-.024-.211-.146-.382-.17-.593-.103-.933 0-1.939 0-2.878 0-.467-.102-1.075.029-1.524.152-.524.23-1.095.437-1.609.155-.384.351-.785.452-1.185.314-1.258.757-2.572 1.383-3.726 1.263-2.332 3.323-4.336 5.404-5.955 1.056-.82 1.973-1.776 3.133-2.469 1.804-1.078 3.89-1.663 5.926-2.046.408-.077.847.013 1.27-.028a7.8 7.8 0 0 1 1.61 0c.655.063 1.244-.041 1.862.254.952.454 1.968.853 2.878 1.397.81.483 1.453 1.156 2.117 1.82.674.674 1.411 1.389 1.92 2.201.62.992 1.169 2.397 1.297 3.556.06.53-.051 1.078 0 1.609.293 3.008-.554 6.17-2.906 8.199-1.365 1.176-3.54 1.85-5.306 1.481-.358-.074-.672-.049-1.016-.211-.671-.317-1.204-.875-1.694-1.426-.257-.29-.569-.583-.747-.931-.73-1.42-.645-3.283-.41-4.826.173-1.13 1.112-2.347 2.004-2.992.248-.178.462-.364.762-.451.4-.117.862-.152 1.27-.198.37-.04.727.069 1.002-.268.155-.19.059-.393-.057-.578-.261-.42-.835-.56-1.284-.678-.56-.148-1.236-.015-1.778.113-.47.111-.895.108-1.354.325-1.678.792-2.655 2.222-3.486 3.796-.313.593-.632 1.196-.762 1.862-.784 4.031 1.935 8.625 5.941 9.793.397.116.862-.011 1.27.029a9.3 9.3 0 0 0 1.947 0c.829-.081 1.542-.049 2.343-.325 1.98-.683 3.722-2.028 4.91-3.74.912-1.312 1.502-3.127 1.948-4.656.057-.194.006-.396.028-.593.023-.21.146-.381.17-.592.054-.494 0-1.027 0-1.524 0-1.534-.017-3.002-.368-4.488-.288-1.222-.745-2.393-1.213-3.556-.165-.41-.229-.857-.395-1.27-.543-1.348-.874-2.91-.268-4.318.206-.48.493-.622.86-.945.753-.662 1.564-1.273 2.3-1.962 1.63-1.523 2.985-3.27 4.53-4.868.458-.474.736-1.002 1.1-1.538.47-.688 1.154-1.546.876-2.455-.402-1.314-1.531-2.502-2.512-3.387-.635-.574-1.166-1.228-1.863-1.722-1.074-.76-1.991-1.703-3.132-2.384-1.553-.928-3.37-1.846-5.137-2.272-.624-.151-1.362-.155-1.975-.353-1.024-.33-2.14-.613-3.218-.748-.208-.026-.38-.149-.592-.17-.485-.046-.952-.014-1.44-.056-.581-.049-1.16.07-1.721.07-1.563 0-3.051.003-4.629.156-.26.025-.5.148-.762.17-.418.034-.855-.056-1.27.014-.316.052-.603.156-.931.07-.36-.094-.755-.1-1.1-.268-.619-.3-1.168-.71-1.779-1.016-.529-.265-1.135-.42-1.693-.607-.521-.174-1.098-.244-1.609-.409-3.446-1.113-7.045-1.779-10.244-3.556-.977-.542-1.895-1.06-2.794-1.722-.192-.14-.418-.178-.593-.352-.173-.174-.233-.397-.367-.593-.374-.55-.77-1.023-1.086-1.609-.73-1.345-1.579-2.75-2.611-3.894a18.4 18.4 0 0 0-4.064-3.359c-1.272-.777-2.681-1.296-3.98-2.018-1.065-.592-2.087-1.825-1.947-3.09.076-.685.904-1.115 1.524-1.185 1.603-.18 3.18-.434 4.826-.156.543.092 1.076.112 1.623.283.304.094.553.283.833.423 1.156.578 2.162 1.298 3.217 2.06.673.486 1.455.908 2.032 1.538.762.833 1.318 1.835 1.89 2.794.276.461.661.83.96 1.27.794 1.167 1.624 2.32 2.456 3.472.424.587.533 1.282 1.298 1.524m-29.295-8.693c.911-.112 1.798.053 2.71.141.475.047.964-.046 1.439 0 .773.076 1.534.349 2.272.579.896.28 1.866.569 1.961 1.707.077.92-.586 1.572-1.072 2.286-.654.962-1.338 1.886-2.018 2.808-.942 1.278-1.612 2.743-2.484 4.05-.327.49-.616 1.196-1.284 1.27-.29.032-.736.057-1.016-.028-.814-.249-1.028-1.141-1.467-1.75-.514-.712-.903-1.53-1.355-2.286-.576-.965-1.338-1.791-1.975-2.709-.248-.357-.435-.752-.692-1.1-.653-.888-1.452-1.851-1.086-3.049.241-.79 1.025-.939 1.679-1.185 1.404-.53 2.905-.551 4.388-.734M75.593 49.05c1.428-.21 2.479 1.065 3.175 2.089.285.418.675.767.96 1.185 1.378 2.025 2.957 3.885 4.318 5.927.477.715 1.026 1.336 1.637 1.947.273.274.521.581.931.62.824.081 1.098-.457 1.637-.93a8.7 8.7 0 0 0 1.792-2.23c.711-1.28 1.764-2.306 2.639-3.471.773-1.031 1.53-2.088 2.286-3.133.557-.77 1.25-1.72 2.23-2.004.832-.241 2.017.26 2.709.692.385.24.682.587 1.016.889.596.538 1.204 1.035 1.778 1.608.3.3.784.65.846 1.101.101.726-.427 1.42-.832 1.947-.494.643-.922 1.416-1.34 2.117a104 104 0 0 1-3.275 5.165c-.553.813-1.193 1.578-1.65 2.455-.482.923-.873 1.88-1.355 2.794-.313.593-.51 1.252-.79 1.863-.47 1.025-1.015 2.028-1.496 3.048-.252.532-.377 1.72-1.03 1.919-.464.141-.812-.263-1.101-.565-.804-.839-1.252-1.97-1.976-2.878-.187-.236-.479-.451-.733-.607a2.23 2.23 0 0 0-2.61.212c-.79.68-1.247 1.752-1.821 2.596-.361.53-1.163 1.712-1.905 1.072-.493-.424-.654-1.42-.89-2.003-.545-1.357-1.283-2.634-1.862-3.98-.856-1.99-1.942-3.82-3.048-5.672-.918-1.538-2.098-2.916-2.95-4.488-.578-1.068-1.317-2.103-1.96-3.132-.396-.633-.934-1.038-.819-1.863.073-.527.814-1.041 1.185-1.383 1.27-1.168 2.521-2.644 4.304-2.907m29.224 8.82c.627.026 1.105.59 1.524.973a12 12 0 0 0 2.71 1.849c.606.303 1.218.651 1.862.875.579.2 1.202.328 1.778.536 1.278.462 2.558.893 3.895 1.171.936.195 1.874.296 2.794.494 1.295.28 3.036.14 3.951 1.355.17.226.068.53-.141.691-.478.37-1.159.622-1.693.89-1.011.505-2.047.938-3.048 1.467-.806.425-1.571 1.25-2.456 1.481-.474.124-1.277.077-1.778.029-.655-.064-1.294-.284-1.947-.339-2.948-.25-5.894-.714-8.72-1.538-.946-.276-1.812-.645-2.71-1.044-.365-.163-.962-.354-1.228-.664-.458-.533.168-1.355.381-1.834.797-1.792 2.138-3.264 3.288-4.826.332-.451.873-1.594 1.538-1.566m-36.237.155c.84-.082 1.359.695 1.806 1.326 1.032 1.458 2.2 2.82 3.034 4.403.255.482.497.963.762 1.44.13.235.237.494.057.733-.295.39-.828.6-1.256.79-.998.444-1.968.737-2.978 1.101-.903.326-1.845.461-2.78.734-.194.056-.399-.006-.592.042-1.283.32-2.563.468-3.895.579-.273.022-.5.146-.762.197-.554.11-1.134.08-1.693.141-.211.024-.382.146-.593.17-.244.027-.492-.02-.734-.029-.504-.017-1.057.115-1.552-.098-1.006-.433-1.914-1.242-2.879-1.778-.708-.394-1.493-.623-2.201-1.016-.56-.312-1.275-.51-1.778-.918-.244-.197-.36-.519-.141-.79.86-1.06 2.631-1.124 3.838-1.27.46-.055.924-.256 1.383-.338.463-.084.983-.009 1.44-.142 1.322-.385 2.68-.694 3.979-1.199.957-.372 1.972-.555 2.878-1.058.768-.427 1.655-.781 2.371-1.299.667-.482 1.422-1.637 2.286-1.721m-33.542 8.382c.496-.114 1.09.018 1.594 0 1.472-.054 2.894.018 4.347.141.676.057 1.392-.098 2.06.028a47 47 0 0 1 7.168 1.948c1.43.516 2.734 1.452 4.064 2.173 1.291.699 2.825.992 3.951 1.975.17.148.243.392.381.565.337.417.771.829 1.172 1.185.183.163.396.23.592.367.685.476 1.326 1.188 1.948 1.75.462.417.811.94 1.27 1.354.85.768 1.603 1.521 2.37 2.371.599.663 1.318 1.226 1.849 1.947.237.322.413.691.663 1.016.476.62 1.213 1.152 1.538 1.863.501 1.093-.314 2.042-.973 2.794-.205.234-.358.518-.565.748-.385.427-.91.7-1.298 1.115-.58.62-1.117 1.34-1.736 1.919-.278.26-.625.442-.889.72a24 24 0 0 0-1.693 2.017c-.091.121-.12.285-.226.395-.272.283-.544.56-.776.89-.564.8-1.306 1.538-2.074 2.173-.273.225-.659.557-1.016.606-.306.043-.84.065-1.101-.113-.457-.311-.637-.98-.96-1.41-.896-1.196-1.676-2.506-2.54-3.726-.69-.974-1.6-1.925-2.511-2.71-.483-.415-1.047-.76-1.524-1.185-.463-.411-.892-.858-1.355-1.27-.506-.45-1.257-.704-1.68-1.27-.355-.476-.41-1.217-.55-1.778-.317-1.27-.473-2.502-.437-3.81.017-.606-.106-1.26-.014-1.862.026-.174.124-.329.141-.508.038-.391-.009-.945.268-1.27.25-.295.712-.01 1.002.098.855.321 1.692.717 2.54 1.059.252.101.709.17.818.451.061.157.016.346.043.508.097.584.155 1.091.155 1.694 0 .746-.082 1.545 0 2.286.023.21.146.381.17.592.053.484.007 1.188.282 1.609.267.41.727.755 1.072 1.1.75.75 1.51 1.536 2.37 2.146.456.322.74.72 1.27.945.483.204 1.012.148 1.525.212.49.061.926.226 1.439.169.495-.055.987-.307 1.44-.508 1.247-.555 2.539-1.69 2.934-3.048.069-.235.029-.52.029-.762 0-.301.041-.637-.029-.931-.177-.75-.89-1.343-1.41-1.863-.522-.521-1.023-1.133-1.61-1.58-1.102-.842-2.427-1.564-3.64-2.188-.88-.452-1.687-1.102-2.625-1.453-1.427-.535-2.985-.69-4.402-1.242a74 74 0 0 0-6.096-2.06c-.667-.195-1.445-.178-2.117-.31-.749-.148-1.511-.405-2.286-.48-.856-.084-1.764 0-2.625 0-.884 0-1.83-.098-2.709 0-.211.023-.382.146-.593.169-1.085.12-2.178.415-3.217.804-.536.201-.586.534-.085.861.177.115.395.129.593.184.51.141 1 .363 1.524.451 1.245.21 2.53.518 3.81.607.893.062 1.794-.215 2.71-.113.444.05.885.206 1.326.282.421.073.863.2 1.2.508.62.569.523 1.679.606 2.427.023.211.146.382.17.593.088.796 0 1.654 0 2.455 0 .432-.02 1.166-.283 1.524-.246.335-.862.471-1.242.565-.157.039-.324-.014-.48 0-.188.017-.346.145-.536.17-.523.064-1.167.043-1.693 0-.651-.055-1.305-.24-1.947-.311-1.168-.13-2.316-.211-3.472-.452-.57-.119-1.142-.352-1.693-.536-.703-.234-1.44-.395-2.117-.706a15.3 15.3 0 0 1-5.447-4.233c-.379-.47-.846-.874-1.213-1.355-.374-.489-.712-.977-1.129-1.439-.468-.518-.969-1.009-.734-1.778.139-.453.578-.768.89-1.1.747-.8 1.59-1.356 2.469-1.976.296-.21.487-.558.762-.79.684-.58 1.524-.957 2.286-1.412 1.294-.772 2.76-1.675 4.233-2.06 1.41-.368 2.874-.603 4.304-.931m92.216 11.063c0 .687.272 1.345.339 2.032.1 1.024.113 2.28 0 3.302-.054.479-.233.967-.325 1.44-.14.718-.16 1.626-.536 2.285-.39.684-1.26 1.063-1.849 1.553a54 54 0 0 0-2.23 1.99c-.96.893-2.014 1.661-2.821 2.723-.997 1.31-1.955 2.659-2.794 4.064-.283.473-.656 1.41-1.214 1.58-.26.08-.94.107-1.185-.014-.197-.097-.325-.304-.508-.423-.694-.453-1.309-1.028-1.863-1.651-.163-.184-.23-.397-.367-.593-.437-.63-1.025-1.153-1.467-1.778-.3-.424-.609-.88-.96-1.27-.33-.365-.74-.606-1.1-.931-.63-.568-1.094-1.263-1.694-1.863-.346-.346-.74-.606-1.1-.931-.515-.464-.92-1.062-1.341-1.609-.355-.461-.689-.864-.833-1.44-.078-.313.154-.69.325-.93.47-.665 1.08-1.219 1.566-1.863.976-1.295 2.019-2.509 3.105-3.726.494-.554 1.11-.963 1.65-1.467.377-.352.652-.781 1.03-1.13a64 64 0 0 1 2.527-2.172c.876-.725 1.526-1.758 2.469-2.4 1.105-.751 2.467-1.069 3.64-1.72 1.38-.767 2.747-1.622 4.234-2.188 1.416-.538 2.932-.94 4.403-1.312.333-.085.687-.073 1.016-.155.462-.116.963-.272 1.439-.325.641-.071 1.305.062 1.947 0a31 31 0 0 1 4.205-.141c.522.018 1.105-.096 1.637 0 3.253.587 6.336 1.48 9.158 3.33.59.387 1.186.748 1.764 1.157.283.2.487.495.762.706 1.07.816 2.32 1.608 3.105 2.737.623.899-.012 1.393-.536 2.117-.249.342-.6.597-.847.931-.325.44-.64.916-.988 1.34-.202.247-.482.434-.677.692-.515.683-1.099 1.171-1.75 1.722-.814.688-1.675 1.39-2.625 1.905-1.422.77-3.107 1.258-4.656 1.65-.687.175-1.418.234-2.117.311-.211.024-.382.146-.593.17-.28.03-.567-.029-.846.014-1.54.235-2.886.398-4.403.14-.398-.067-1.01-.158-1.34-.437-.188-.157-.193-.431-.269-.649-.26-.752-.169-1.572-.169-2.37 0-.959.097-1.883.325-2.794.107-.43.112-.98.451-1.327.58-.59 1.521-.54 2.244-.677.489-.093.948-.213 1.467-.17.372.031.734.144 1.101.17.39.027.723-.076 1.1-.113.6-.058 1.196-.038 1.779-.183 1.068-.267 2.083-.483 3.132-.833.257-.086 1.044-.28.748-.677-.306-.413-1.221-.512-1.679-.678-2.116-.764-4.371-.592-6.604-.592-1.26 0-2.388.183-3.556.48-.154.039-.322-.02-.48 0-.189.022-.345.145-.536.169-.36.045-.749.039-1.1.127-.773.193-1.567.488-2.343.635-.897.17-1.76.767-2.653 1.016-1.014.281-2.012.8-3.048 1.002-.882.171-1.778.378-2.625.72-1.078.434-2.05 1.111-3.048 1.693-1.053.614-2.172 1.182-3.132 1.933-.553.432-.991 1.005-1.482 1.496-.312.312-.767.614-1.016.973-.168.243-.461.647-.536.932-.647 2.449 2.016 4.705 4.134 5.235.606.151 1.209-.076 1.778-.155.516-.072 1.03-.02 1.524-.212.463-.18.771-.54 1.13-.86.866-.778 1.753-1.508 2.596-2.315.435-.417.914-.729 1.044-1.355.28-1.342.31-2.674.31-4.064 0-.58.048-1.056.156-1.608.034-.179-.038-.402.056-.565.135-.233.408-.355.635-.465.656-.32 1.359-.58 2.032-.861.636-.265 1.088-.534 1.778-.48m-44.45 6.858c0-1.898-.58-3.713-.423-5.588.05-.612-.116-1.105.113-1.693.2-.516.638-.996.96-1.44.585-.809 1.195-1.645 1.862-2.37.308-.336.727-.864 1.213-.932 1.257-.174 1.78.8 2.4 1.694.471.68 1.07 1.253 1.523 1.947.227.347.583.698.706 1.1.283.929.306 2.154.197 3.133-.023.211-.146.382-.17.593-.02.196.025.397-.013.593-.183.942-.42 1.906-.24 2.878.524-.11.578-.584.776-1.016.488-1.063 1.084-2.1 1.425-3.217.447-1.463.722-2.958 1.143-4.403.499-1.709 1.271-3.417 2.06-4.995.269-.537.59-1.066.847-1.609.19-.403.417-.918.734-1.241.359-.367 1.074.326 1.312.564.85.85 1.859 1.392 2.964 1.806.32.12.572.345.93.31.363.6.024 1.205-.239 1.779-.508 1.107-1.055 2.256-1.68 3.302-1.188 1.99-1.805 4.133-1.805 6.434 0 .97.047 1.958.367 2.879 1.08 3.112 4.104 5.137 6.237 7.535.183.206.284.46.451.678.38.496.86.92 1.214 1.439.5.735.926 1.543 1.41 2.286.343.525.858.926 1.214 1.44.183.263.296.58.48.846.597.86 1.316 1.628 1.947 2.455.22.287.528.52.692.847.173.347.175.73.212 1.1.025.26.144.503.169.763.054.557-.023 1.133 0 1.693.011.268.144.498.17.762.093.967 0 1.991 0 2.963 0 1.511.58 3.379-.043 4.826-.358.833-1.124 1.447-1.623 2.202-.725 1.094-1.613 2.064-2.385 3.132-.343.476-.589 1.022-.889 1.524-.27.452-.635.845-.903 1.27-.435-.045-.475-.316-.62-.677-.214-.53-.351-1.078-.565-1.609-.463-1.15-.877-2.332-1.383-3.471-.538-1.21-1.27-2.339-1.947-3.471-.534-.894-1.32-1.686-2.004-2.456-.721-.811-1.291-1.71-2.117-2.455a560 560 0 0 0-3.217-2.879c-.698-.62-1.523-1.181-2.286-1.721-.351-.249-.611-.619-.931-.903a21 21 0 0 0-1.778-1.383c-.316-.224-.531-.567-.847-.79-.676-.48-1.573-.972-1.99-1.722-.43-.776-.463-1.863-.663-2.71-.346-1.464-.545-2.92-.818-4.402h-.17c-.533 1.842-.62 3.746-1.157 5.588-.17.582-.158 1.258-.564 1.764-.443.55-1.103.993-1.665 1.397-.286.205-.52.47-.776.705-.63.578-1.354 1.049-2.018 1.58-.278.223-.49.522-.762.749-.825.685-1.825 1.203-2.597 1.947-.328.316-.622.681-.96.988-1.09.99-2.46 1.87-3.358 3.062-.226.3-.417.63-.649.931-.689.896-1.518 1.665-2.145 2.625-1.4 2.144-2.356 4.474-3.316 6.858-.245.61-.462 1.227-.62 1.863-.058.23-.065.551-.325.649-.444.166-.7-.422-.847-.734a12 12 0 0 0-1.214-2.032c-.402-.527-.862-.96-1.199-1.524-.189-.316-.467-.575-.691-.86-.354-.45-.584-.989-.96-1.426-.407-.473-.892-.94-1.143-1.524-.505-1.172-.17-2.678-.085-3.895.041-.59-.058-1.188-.042-1.778.026-.941.078-1.852.17-2.794.056-.587-.058-1.19 0-1.778.022-.235.146-.442.169-.677.021-.223-.036-.458.028-.677.415-1.424 1.773-2.304 2.568-3.472.257-.377.456-.815.734-1.185.415-.554.895-1.047 1.284-1.609.497-.718.918-1.49 1.411-2.201.792-1.14 1.726-2.246 2.653-3.274 1.754-1.945 4.167-3.471 5.094-6.04.42-1.164.452-2.245.452-3.47 0-.947-.007-1.893-.283-2.795-.402-1.318-1.062-2.576-1.679-3.81-.356-.711-.745-1.405-1.1-2.116-.248-.495-.686-1.048-.748-1.609-.024-.214-.068-.658.098-.818.249-.239.744-.33 1.059-.438.838-.289 1.75-.76 2.399-1.369.331-.31.875-1.053 1.354-1.086.474-.033.723.575.875.917.137.307.371.557.536.847.31.542.527 1.137.805 1.693.775 1.55 1.441 3.158 1.905 4.826.493 1.775.86 3.531 1.552 5.25.314.778.68 1.637 1.087 2.37.18.324.296.72.691.762M65.532 72.15c.337-.051 1.062-.121 1.369.042.308.165.418.524.607.79.186.264.406.5.592.763.257.362.612.652.875 1.016.868 1.202 1.454 2.576 1.863 3.979.056.194 0 .399.056.593.178.61.49 2.375-.367 2.554-.41.085-.729-.316-.96-.607-.621-.786-1.163-1.628-1.834-2.37-.514-.57-1.138-1.155-1.58-1.779-.658-.928-1.498-1.965-2.484-2.568-.368-.225-1.428-.986-1.256-1.496.088-.258.532-.26.748-.352.696-.3 1.617-.45 2.371-.565m41.571 0c.47-.117.987.033 1.44.127.596.124 1.186.22 1.778.381.276.075.985.18.973.579-.007.244-.307.461-.465.606-.491.452-1.027.85-1.496 1.327-1.588 1.616-3.132 3.295-4.487 5.094-.423.56-.875 1.602-1.637 1.792-.407.102-.516-.368-.579-.691-.154-.794.07-1.61.155-2.371.055-.496.323-.969.48-1.44.47-1.41 1.28-2.586 2.201-3.725.246-.304.513-.573.762-.86.3-.344.363-.69.875-.819m-52.07 9.737c.407-.066.928.219 1.27.395 1.054.541 2.037 1.22 2.808 2.13.306.362 1.289 1.182.72 1.75-.12.12-.644.208-.818.254-.327.087-.763.005-1.101 0-.509-.007-.944-.101-1.44-.155-.767-.082-1.264-.073-1.75-.776-.463-.673-.368-2.066-.281-2.85.034-.309.265-.695.592-.748m63.246.014c.994-.214.932.803.932 1.496 0 1.202.041 2.583-1.44 2.85-.247.045-.512-.038-.762 0-.907.139-1.721.266-2.624.099-.274-.05-.734-.04-.89-.325-.21-.384.543-1.035.777-1.284.245-.26.44-.583.705-.832.568-.535 1.225-.882 1.863-1.299.454-.296.899-.589 1.44-.705M82.972 105.41c.464 0 .968-.57 1.44-.72 1.145-.365 2.351-.42 3.556-.197.232.043.476-.042.705.014 1.04.255 1.784.955 2.681 1.453.922.512 1.914 1.187 2.71 1.905.828.748 1.542 1.623 2.37 2.371.73.66 1.559 1.206 2.286 1.863.526.474.978 1.12 1.383 1.693.334.47.76.843 1.044 1.355 1.333 2.399 1.975 4.946 2.766 7.535.519 1.698 1.105 3.435.903 5.25-.023.21-.146.381-.169.592-.125 1.123-.447 2.505-1.143 3.443-.512.691-1.063 1.473-1.736 2.032-2.294 1.906-4.984 3.132-7.86 3.556-.981.145-1.879.536-2.892.536-.639 0-1.5-.12-1.82-.762-.085-.168-.043-.41-.043-.592 0-.172-.017-.344.042-.508.244-.676.752-1.221 1.172-1.778.503-.668.856-1.46 1.227-2.202.575-1.15.473-2.412.678-3.64.057-.344-.05-.692.112-1.016.257-.513.793-.76 1.143-1.186.339-.411.722-.735 1.101-1.114a26 26 0 0 0 1.75-1.92c.298-.363.673-.648.96-1.03.769-1.025 1.136-2.638.55-3.81-.186-.372-.315-.683-.579-1.016-.366-.462-.895-1.143-1.467-1.354-1.065-.393-1.958.176-2.879.733-1.4.848-2.723 2.086-4.403 2.343-1.121.171-2.441.279-3.556 0-.93-.233-1.905-.742-2.709-1.256-.904-.578-1.824-1.484-2.879-1.792-.291-.085-.63-.01-.931-.028-.31-.018-.636-.066-.931.084-.508.258-.866.906-1.214 1.327-.41.496-.914 1.399-.988 2.06-.07.632.258 1.232.508 1.778.348.76.796 1.243 1.355 1.863a72 72 0 0 0 2.54 2.709c.43.43.978.854 1.326 1.355.327.47.315.817.367 1.354.107 1.1-.004 2.473.55 3.472.456.819.885 1.677 1.426 2.455.347.5.86.924 1.044 1.524.204.666.024 1.382-.564 1.75-.34.212-1.142.157-1.524.099-.338-.052-.676.034-1.016-.014-.784-.11-1.582-.39-2.371-.565-.889-.197-1.772-.358-2.625-.691-1.312-.514-2.53-1.311-3.64-2.16-.93-.71-1.863-1.488-2.512-2.483-1.043-1.598-1.461-3.8-1.383-5.673.009-.205.122-.391.155-.592.079-.471.078-.98.212-1.44.118-.403.334-.782.451-1.185.193-.661.287-1.369.48-2.032a38 38 0 0 1 1.383-3.895c.35-.838.713-1.78 1.256-2.511.235-.318.535-.583.776-.89.093-.118.097-.275.184-.394.24-.333.643-.8.945-1.087.74-.703 1.587-1.28 2.37-1.92 1.04-.846 1.818-1.996 2.88-2.821a36 36 0 0 1 2.116-1.524c.33-.22.685-.387.931-.706m11.684 13.166c1.146.048 1.982 1.229 1.524 2.328-.381.916-1.39 1.493-2.116 2.117-.516.443-.958.947-1.454 1.41-.848.794-1.8 1.559-2.497 2.484-.18.24-.162.49-.226.762-.306 1.294.101 2.7-.254 3.98-.24.862-.921 1.539-1.482 2.201-.157.185-.246.361-.437.522-.264.222-.557.54-.932.494-.632-.079-1.053-.72-1.383-1.185-.624-.881-1.383-1.555-1.495-2.71-.115-1.182.297-2.604-.17-3.725-.275-.662-1.026-1.196-1.524-1.693-1.25-1.25-2.488-2.515-3.894-3.57-.692-.52-.762-1.05-.762-1.849 0-.266-.058-.606.113-.832.489-.65 1.509-.989 2.271-.55.225.128.45.328.664.479.394.28.74.667 1.1.988.184.163.4.213.593.353.389.28.755.59 1.185.818 1.305.689 2.956.893 4.389.635.634-.114 1.298-.128 1.89-.381 1.06-.451 2.16-1.378 3.035-2.13.56-.483 1.066-.98 1.862-.946M71.205 136.75c.244-.067.544.124.762.212.823.331 1.52.823 2.286 1.27.843.492 1.791.766 2.709 1.072 1.249.416 2.477.882 3.725 1.298 1 .333 2.041.34 3.077.466.173.02.307.131.48.155.73.101 1.547 0 2.285 0 .912 0 1.889.1 2.794 0 .211-.023.382-.146.593-.17.618-.068 1.233-.086 1.834-.14.36-.033.722-.202 1.045-.31.69-.234 1.42-.405 2.088-.636 1.322-.456 2.72-.86 4.008-1.467.56-.265 1.064-.637 1.608-.932.45-.243 1.394-1.089 1.948-.762.269.16.18.673.169.946-.042 1.013-.82 1.874-1.27 2.71-1.216 2.258-3.6 3.621-5.757 4.91-1.258.75-2.552 1.609-3.98 1.919-.908.197-1.853.178-2.794.282-.21.023-.381.146-.592.17-.251.027-.511-.025-.762 0-.204.02-.387.135-.593.126-.677-.028-1.363-.23-2.032-.296-.935-.09-1.877-.081-2.794-.31-.846-.212-1.87-.552-2.625-1.002-.49-.293-.942-.648-1.439-.932-.954-.543-1.915-1.092-2.794-1.763-1.551-1.186-3.134-2.927-3.81-4.798-.149-.412-.967-1.799-.17-2.018" style="fill:#050505;stroke:none"/></g></svg>