<?xml version="1.0" encoding="UTF-8" standalone="no"?>
<svg
   width="655.36"
   height="655.36"
   viewBox="0 0 173.397 173.397"
   version="1.1"
   id="svg2"
   sodipodi:docname="T_Icon_Map_ExtraWisp.svg"
   inkscape:version="1.4.2 (f4327f4, 2025-05-13)"
   xmlns:inkscape="http://www.inkscape.org/namespaces/inkscape"
   xmlns:sodipodi="http://sodipodi.sourceforge.net/DTD/sodipodi-0.dtd"
   xmlns="http://www.w3.org/2000/svg"
   xmlns:svg="http://www.w3.org/2000/svg">
  <defs
     id="defs2" />
  <sodipodi:namedview
     id="namedview2"
     pagecolor="#ffffff"
     bordercolor="#000000"
     borderopacity="0.25"
     inkscape:showpageshadow="2"
     inkscape:pageopacity="0.0"
     inkscape:pagecheckerboard="0"
     inkscape:deskcolor="#d1d1d1"
     inkscape:zoom="0.87935187"
     inkscape:cx="263.26208"
     inkscape:cy="281.4573"
     inkscape:window-width="1920"
     inkscape:window-height="1017"
     inkscape:window-x="-8"
     inkscape:window-y="-8"
     inkscape:window-maximized="1"
     inkscape:current-layer="svg2" />
  <g
     style="display:inline"
     id="g1">
    <path
       d="M61.213 223.267c-.568-7.591 27.43-10.813 41.761-11.003 17.233-.228 46.104 3.286 46.237 10.552.125 6.831-23.438 10.398-44.257 10.662-16.907.214-43.248-3.616-43.741-10.211"
       style="display:inline;fill:#000;fill-opacity:.2;stroke-width:.264583"
       transform="translate(-18.34 -61.733)"
       id="path1" />
  </g>
  <g
     style="display:inline"
     id="g2"
     transform="matrix(1.3130474,0,0,1.3130474,-26.746217,-38.300982)">
    <path
       d="m 131.826,39.398 c -2.566,0.499 -4.652,2.013 -6.858,3.33 -2.983,1.782 -6.013,3.473 -9.06,5.123 -1.282,0.694 -2.472,1.551 -3.725,2.3 -0.406,0.243 -0.935,0.78 -1.411,0.846 -0.39,0.054 -0.934,-0.245 -1.298,-0.366 -1.313,-0.438 -2.49,-1.18 -3.726,-1.764 -0.898,-0.425 -1.898,-0.798 -2.878,-1.002 -0.59,-0.123 -1.189,-0.163 -1.778,-0.31 -0.733,-0.184 -1.422,-0.596 -2.117,-0.876 a 28.6,28.6 0 0 0 -4.403,-1.354 c -1.568,-0.349 -3.15,-0.466 -4.74,-0.621 -1.063,-0.103 -2.156,0.103 -3.218,0 -2.23,-0.217 -4.477,-0.046 -6.689,0.17 -2.17,0.21 -4.434,0.433 -6.52,1.128 -0.636,0.212 -1.234,0.546 -1.862,0.79 -2.001,0.779 -3.955,1.587 -5.842,2.583 -4.123,2.176 -7.89,4.994 -11.345,8.114 -3.03,2.735 -5.326,6.189 -7.394,9.652 -1.655,2.77 -3.14,5.557 -4.347,8.55 -0.758,1.885 -1.294,3.896 -1.862,5.843 -0.126,0.43 -0.134,0.914 -0.226,1.355 -0.317,1.521 -0.5,3.03 -0.65,4.572 -0.413,4.257 -0.22,8.697 0.706,12.869 1.016,4.57 2.48,8.985 4.474,13.208 0.61,1.292 1.35,2.509 1.947,3.81 0.21,0.457 0.663,1.093 0.663,1.608 0,0.543 -0.483,1.165 -0.748,1.61 -0.899,1.505 -2.107,2.788 -3.203,4.148 -0.563,0.7 -1.072,1.394 -1.453,2.201 -0.436,0.923 -0.615,1.909 -1.143,2.794 -0.397,0.664 -0.983,1.261 -1.468,1.863 -0.955,1.185 -1.97,2.417 -2.752,3.725 -1.044,1.748 -2.868,3.727 -1.693,5.842 0.171,0.308 0.404,0.69 0.692,0.903 0.575,0.425 1.262,0.452 1.947,0.452 1.786,0 3.643,-1.13 5.165,-1.933 1.72,-0.908 3.487,-1.856 5.08,-3.006 1.998,-1.444 4.003,-2.9 6.18,-4.05 1.742,-0.92 3.196,-2.087 5.165,-2.498 0.545,-0.113 1.021,0.052 1.524,0.226 0.965,0.335 1.808,0.78 2.71,1.256 2.862,1.511 5.596,3.207 8.635,4.389 1.571,0.61 3.196,1.088 4.826,1.495 0.686,0.172 1.41,0.411 2.117,0.48 1.767,0.172 3.548,0.17 5.334,0.17 1.3,0 2.608,0.04 3.894,-0.085 0.84,-0.082 1.702,0.081 2.54,0 1.22,-0.119 2.423,-0.39 3.641,-0.508 0.735,-0.072 1.475,-0.121 2.201,-0.283 3.999,-0.888 7.778,-2.612 11.261,-4.74 2.233,-1.366 4.235,-3.135 6.265,-4.77 1.709,-1.377 3.536,-2.622 5.165,-4.093 1,-0.903 2.015,-1.908 2.85,-2.963 0.412,-0.52 0.753,-1.088 1.158,-1.609 2.432,-3.127 4.769,-6.288 6.209,-9.99 0.309,-0.795 0.506,-1.638 0.733,-2.456 0.27,-0.972 0.63,-1.9 0.875,-2.878 0.522,-2.087 0.837,-4.304 1.044,-6.435 0.115,-1.18 0.055,-2.375 0.17,-3.556 0.186,-1.92 0.698,-3.89 0.508,-5.842 -0.09,-0.925 -0.61,-1.756 -0.875,-2.625 -0.374,-1.225 -0.65,-2.483 -0.96,-3.725 -0.23,-0.921 -0.192,-1.78 -0.282,-2.71 -0.122,-1.26 -0.401,-2.487 -0.945,-3.64 a 29,29 0 0 0 -1.877,-3.387 c -0.337,-0.515 -0.77,-0.976 -1.058,-1.524 -0.94,-1.78 -1.694,-3.677 -2.357,-5.587 -0.165,-0.475 0.266,-1.021 0.452,-1.44 0.56,-1.261 1.177,-2.495 1.792,-3.725 1.64,-3.28 3.395,-6.492 5.108,-9.737 0.92,-1.744 2.12,-3.363 2.92,-5.164 0.774,-1.74 1.985,-4.54 -0.31,-5.687 -0.428,-0.214 -0.889,-0.34 -1.354,-0.438 -0.46,-0.096 -1.058,-0.119 -1.524,-0.028 z"
       id="extraWisp_svg"
       display="inline"
       fill="currentColor"
       stroke="#000000"
       stroke-width="2" />
    <path
       d="m 131.826,39.398 c -2.566,0.499 -4.652,2.013 -6.858,3.33 -2.983,1.782 -6.013,3.473 -9.06,5.123 -1.282,0.694 -2.472,1.551 -3.725,2.3 -0.406,0.243 -0.935,0.78 -1.411,0.846 -0.39,0.054 -0.934,-0.245 -1.298,-0.366 -1.313,-0.438 -2.49,-1.18 -3.726,-1.764 -0.898,-0.425 -1.898,-0.798 -2.878,-1.002 -0.59,-0.123 -1.189,-0.163 -1.778,-0.31 -0.733,-0.184 -1.422,-0.596 -2.117,-0.876 a 28.6,28.6 0 0 0 -4.403,-1.354 c -1.568,-0.349 -3.15,-0.466 -4.74,-0.621 -1.063,-0.103 -2.156,0.103 -3.218,0 -2.23,-0.217 -4.477,-0.046 -6.689,0.17 -2.17,0.21 -4.434,0.433 -6.52,1.128 -0.636,0.212 -1.234,0.546 -1.862,0.79 -2.001,0.779 -3.955,1.587 -5.842,2.583 -4.123,2.176 -7.89,4.994 -11.345,8.114 -3.03,2.735 -5.326,6.189 -7.394,9.652 -1.655,2.77 -3.14,5.557 -4.347,8.55 -0.758,1.885 -1.294,3.896 -1.862,5.843 -0.126,0.43 -0.134,0.914 -0.226,1.355 -0.317,1.521 -0.5,3.03 -0.65,4.572 -0.413,4.257 -0.22,8.697 0.706,12.869 1.016,4.57 2.48,8.985 4.474,13.208 0.61,1.292 1.35,2.509 1.947,3.81 0.21,0.457 0.663,1.093 0.663,1.608 0,0.543 -0.483,1.165 -0.748,1.61 -0.899,1.505 -2.107,2.788 -3.203,4.148 -0.563,0.7 -1.072,1.394 -1.453,2.201 -0.436,0.923 -0.615,1.909 -1.143,2.794 -0.397,0.664 -0.983,1.261 -1.468,1.863 -0.955,1.185 -1.97,2.417 -2.752,3.725 -1.044,1.748 -2.868,3.727 -1.693,5.842 0.171,0.308 0.404,0.69 0.692,0.903 0.575,0.425 1.262,0.452 1.947,0.452 1.786,0 3.643,-1.13 5.165,-1.933 1.72,-0.908 3.487,-1.856 5.08,-3.006 1.998,-1.444 4.003,-2.9 6.18,-4.05 1.742,-0.92 3.196,-2.087 5.165,-2.498 0.545,-0.113 1.021,0.052 1.524,0.226 0.965,0.335 1.808,0.78 2.71,1.256 2.862,1.511 5.596,3.207 8.635,4.389 1.571,0.61 3.196,1.088 4.826,1.495 0.686,0.172 1.41,0.411 2.117,0.48 1.767,0.172 3.548,0.17 5.334,0.17 1.3,0 2.608,0.04 3.894,-0.085 0.84,-0.082 1.702,0.081 2.54,0 1.22,-0.119 2.423,-0.39 3.641,-0.508 0.735,-0.072 1.475,-0.121 2.201,-0.283 3.999,-0.888 7.778,-2.612 11.261,-4.74 2.233,-1.366 4.235,-3.135 6.265,-4.77 1.709,-1.377 3.536,-2.622 5.165,-4.093 1,-0.903 2.015,-1.908 2.85,-2.963 0.412,-0.52 0.753,-1.088 1.158,-1.609 2.432,-3.127 4.769,-6.288 6.209,-9.99 0.309,-0.795 0.506,-1.638 0.733,-2.456 0.27,-0.972 0.63,-1.9 0.875,-2.878 0.522,-2.087 0.837,-4.304 1.044,-6.435 0.115,-1.18 0.055,-2.375 0.17,-3.556 0.186,-1.92 0.698,-3.89 0.508,-5.842 -0.09,-0.925 -0.61,-1.756 -0.875,-2.625 -0.374,-1.225 -0.65,-2.483 -0.96,-3.725 -0.23,-0.921 -0.192,-1.78 -0.282,-2.71 -0.122,-1.26 -0.401,-2.487 -0.945,-3.64 a 29,29 0 0 0 -1.877,-3.387 c -0.337,-0.515 -0.77,-0.976 -1.058,-1.524 -0.94,-1.78 -1.694,-3.677 -2.357,-5.587 -0.165,-0.475 0.266,-1.021 0.452,-1.44 0.56,-1.261 1.177,-2.495 1.792,-3.725 1.64,-3.28 3.395,-6.492 5.108,-9.737 0.92,-1.744 2.12,-3.363 2.92,-5.164 0.774,-1.74 1.985,-4.54 -0.31,-5.687 -0.428,-0.214 -0.889,-0.34 -1.354,-0.438 -0.46,-0.096 -1.058,-0.119 -1.524,-0.028 m -0.17,3.288 c 0.537,-0.06 1.218,0.505 1.073,1.087 -0.146,0.584 -0.554,1.116 -0.875,1.608 -0.497,0.761 -0.862,1.605 -1.383,2.37 -1.347,1.98 -2.689,3.984 -4.092,5.928 -0.463,0.641 -1.004,1.22 -1.468,1.862 -0.72,0.998 -1.348,2.062 -2.088,3.048 -0.772,1.03 -1.572,2.04 -2.37,3.048 -0.318,0.401 -0.845,0.908 -0.904,1.44 -0.08,0.725 0.305,1.318 0.593,1.947 0.418,0.913 0.941,1.785 1.326,2.71 0.834,2 1.727,3.991 2.54,6.01 0.375,0.932 0.607,1.976 1.059,2.88 0.602,1.204 1.485,2.304 1.99,3.555 0.269,0.669 0.298,1.412 0.366,2.117 0.087,0.897 0.244,1.83 0.452,2.71 0.295,1.25 0.862,2.434 0.987,3.724 a 27,27 0 0 1 0,5.334 c -0.078,0.812 0.08,1.639 0,2.456 -0.063,0.65 -0.19,1.297 -0.254,1.947 -0.07,0.73 -0.013,1.472 -0.084,2.201 -0.09,0.918 -0.403,1.824 -0.65,2.71 -0.387,1.394 -0.756,2.72 -1.298,4.064 -0.239,0.593 -0.269,1.27 -0.508,1.862 -0.525,1.304 -1.264,2.492 -1.933,3.726 -0.531,0.981 -1.14,1.988 -1.82,2.878 -1.465,1.918 -3.184,3.631 -4.798,5.42 -1.74,1.927 -3.55,3.663 -5.588,5.277 -0.894,0.708 -1.73,1.547 -2.71,2.145 -0.678,0.414 -1.423,0.687 -2.116,1.072 a 67,67 0 0 1 -3.98,2.018 c -2.218,1.047 -4.44,2.297 -6.857,2.893 -0.938,0.23 -1.92,0.301 -2.879,0.395 -1.189,0.115 -2.362,0.301 -3.556,0.338 -0.526,0.017 -1.077,-0.051 -1.609,0 -3.163,0.308 -6.207,0.071 -9.313,-0.705 -0.88,-0.22 -1.783,-0.548 -2.625,-0.875 -0.443,-0.173 -0.908,-0.253 -1.354,-0.395 -1.26,-0.402 -2.513,-0.974 -3.726,-1.496 -0.747,-0.322 -1.449,-0.759 -2.2,-1.072 -0.485,-0.202 -1.014,-0.402 -1.525,-0.508 -0.78,-0.163 -1.555,-0.186 -2.286,-0.55 -1.561,-0.781 -2.981,-1.915 -4.402,-2.922 -0.596,-0.422 -1.134,-1.086 -1.92,-1.072 -0.58,0.01 -1.132,0.621 -1.552,0.96 -0.984,0.792 -2.037,1.5 -3.048,2.257 -1.606,1.205 -3.145,2.506 -4.741,3.725 -1.285,0.982 -2.666,1.818 -3.98,2.766 -1.053,0.761 -1.985,1.65 -3.132,2.272 -1.11,0.601 -2.21,1.226 -3.302,1.863 -0.342,0.2 -0.918,0.746 -1.355,0.635 -0.715,-0.182 0.065,-1.132 0.282,-1.411 0.982,-1.262 1.829,-2.592 2.752,-3.895 0.344,-0.485 0.673,-1.075 1.2,-1.397 0.611,-0.374 1.5,-0.6 1.919,-1.228 0.544,-0.817 0.086,-1.914 0.55,-2.794 0.37,-0.701 0.999,-1.242 1.482,-1.862 1.23,-1.583 2.451,-3.168 3.697,-4.742 0.761,-0.961 1.533,-1.91 2.286,-2.878 0.318,-0.41 0.708,-0.877 0.536,-1.44 -0.187,-0.613 -0.672,-1.178 -1.044,-1.693 a 24,24 0 0 1 -1.1,-1.693 c -0.952,-1.592 -1.766,-3.24 -2.555,-4.91 -2.294,-4.858 -3.31,-10.456 -3.824,-15.749 -0.104,-1.065 0.019,-2.151 -0.085,-3.217 -0.18,-1.855 0.16,-3.742 0.339,-5.588 0.204,-2.1 0.658,-4.26 1.326,-6.266 0.844,-2.53 1.661,-5.021 2.964,-7.366 1.538,-2.768 3.134,-5.5 5.277,-7.874 1.137,-1.259 2.201,-2.578 3.472,-3.725 2.718,-2.454 5.7,-4.55 8.89,-6.322 1.973,-1.096 4.102,-1.956 6.18,-2.822 1.022,-0.426 2.243,-0.604 3.316,-0.832 2.105,-0.449 4.18,-0.99 6.336,-1.2 2.042,-0.198 4.052,-0.084 6.096,-0.084 2.001,0 4.078,-0.113 6.011,0.451 1.475,0.43 2.88,1.025 4.318,1.524 0.968,0.336 1.868,0.89 2.88,1.129 0.67,0.159 1.369,0.033 2.031,0.226 0.551,0.16 1.09,0.482 1.609,0.72 1.25,0.573 2.492,1.151 3.64,1.933 0.734,0.499 1.762,1.488 2.71,1.383 0.56,-0.063 1.183,-0.66 1.608,-1.002 a 35,35 0 0 1 2.54,-1.849 c 1.956,-1.303 3.91,-2.658 5.758,-4.12 0.904,-0.716 1.773,-1.47 2.71,-2.145 0.998,-0.722 2.108,-1.28 3.132,-1.976 0.927,-0.63 1.88,-1.231 2.794,-1.89 0.554,-0.4 1.156,-0.98 1.862,-1.059 m -62.738,49.685 0.34,-0.085 c 0.097,0.303 0.424,0.347 0.676,0.537 0.229,0.17 0.434,0.387 0.678,0.536 0.53,0.324 1.354,0.491 1.947,0.705 0.767,0.277 1.518,0.637 2.286,0.904 0.714,0.247 1.48,0.353 2.201,0.564 0.675,0.197 1.6,0.455 2.286,0.141 0.272,-0.124 0.444,-0.386 0.678,-0.564 0.21,-0.16 0.473,-0.238 0.677,-0.395 0.51,-0.392 0.796,-1.474 0.762,-2.089 -0.034,-0.609 -0.23,-1.416 -0.677,-1.863 -0.344,-0.343 -0.826,-0.527 -1.186,-0.846 -0.501,-0.446 -0.834,-0.97 -1.185,-1.524 0.58,-0.153 1.03,-0.581 1.524,-0.903 0.866,-0.565 1.788,-1.021 2.71,-1.482 0.328,-0.164 0.732,-0.48 1.1,-0.536 0.19,-0.03 0.404,0.078 0.593,0.099 0.953,0.105 1.746,0.751 2.54,1.27 0.646,0.422 1.33,0.77 1.947,1.241 0.763,0.583 1.393,1.296 2.032,2.004 1.002,1.11 1.438,2.407 0.677,3.81 -0.606,1.12 -1.635,2.08 -2.709,2.752 -0.635,0.397 -1.35,0.715 -1.947,1.171 -1.65,1.26 -3.41,2.472 -5.25,3.443 -0.414,0.219 -0.864,0.39 -1.27,0.621 -0.254,0.145 -0.458,0.361 -0.762,0.395 -0.64,0.071 -1.245,-0.127 -1.862,-0.226 -2.715,-0.432 -5.219,-1.286 -7.79,-2.286 -0.633,-0.246 -1.3,-0.414 -1.947,-0.62 -0.299,-0.096 -0.6,-0.127 -0.847,-0.34 -0.412,-0.354 -0.638,-0.842 -0.96,-1.27 a 41,41 0 0 1 -1.297,-1.862 c -0.224,-0.335 -0.71,-0.81 -0.819,-1.185 -0.07,-0.242 0.144,-0.403 0.014,-0.678 -0.395,-0.837 -0.837,-1.66 -1.143,-2.54 -0.28,-0.81 -0.285,-1.699 -0.366,-2.54 -0.086,-0.884 -0.172,-1.814 -0.085,-2.709 0.282,-2.904 2.05,-5.277 3.612,-7.62 0.618,-0.926 1.134,-1.967 1.891,-2.794 0.898,-0.98 2.148,-1.651 3.133,-2.54 0.871,-0.787 1.672,-1.682 2.71,-2.258 3.544,-1.97 7.43,-2.769 11.43,-2.991 0.175,-0.01 0.335,0.068 0.507,0.084 0.446,0.044 0.903,-0.037 1.355,0 0.37,0.031 0.733,0.134 1.1,0.17 1.856,0.18 3.762,0.596 5.504,1.298 4.849,1.953 8.954,5.148 11.881,9.54 0.914,1.37 1.775,2.849 2.315,4.402 a 5.8,5.8 0 0 1 0.282,2.37 c -0.048,0.49 -0.18,1.03 -0.057,1.524 0.203,0.81 1.166,0.956 1.383,1.778 0.234,0.885 0.195,1.809 0.282,2.71 0.149,1.526 -0.022,2.975 -0.169,4.487 -0.08,0.83 -0.331,1.629 -0.423,2.455 -0.085,0.764 -0.09,1.646 -0.381,2.371 -0.486,1.207 -1.275,2.25 -1.891,3.387 -1.303,2.405 -2.96,4.754 -5.01,6.604 -0.727,0.657 -1.595,1.129 -2.37,1.721 -0.81,0.62 -1.517,1.418 -2.37,1.976 -1.654,1.08 -3.696,1.76 -5.589,2.286 -2.918,0.81 -6.056,0.997 -9.06,0.705 -0.758,-0.073 -1.537,-0.21 -2.285,-0.366 -0.68,-0.142 -1.341,-0.315 -2.032,-0.113 -2.117,0.617 -3.587,2.203 -5.024,3.796 -0.651,0.722 -1.393,1.637 -1.129,2.695 0.178,0.712 1.085,1.439 1.666,1.834 0.746,0.508 1.754,0.61 2.624,0.706 1.59,0.176 3.269,0.338 4.826,0.705 0.924,0.218 1.922,0.472 2.879,0.565 0.589,0.057 1.19,0.027 1.778,0.084 0.943,0.092 1.927,0.262 2.878,0.17 2.636,-0.256 5.106,-1.066 7.62,-1.835 0.85,-0.26 1.709,-0.399 2.54,-0.733 0.53,-0.214 0.991,-0.562 1.524,-0.777 0.733,-0.294 1.497,-0.446 2.202,-0.818 0.744,-0.393 1.394,-0.965 2.116,-1.397 1.22,-0.728 2.497,-1.442 3.556,-2.399 1.057,-0.954 2.076,-2.016 3.048,-3.048 0.72,-0.763 1.536,-1.451 2.174,-2.286 0.491,-0.643 0.835,-1.389 1.326,-2.032 0.569,-0.744 1.236,-1.389 1.722,-2.201 0.43,-0.722 0.965,-1.513 1.298,-2.286 0.308,-0.716 0.437,-1.492 0.762,-2.202 0.269,-0.587 0.895,-0.885 1.072,-1.524 0.165,-0.594 0.012,-1.333 -0.014,-1.947 -0.028,-0.682 0.119,-1.36 0.212,-2.032 0.079,-0.568 0.283,-1.12 0.338,-1.693 0.311,-3.199 0.653,-6.508 0.34,-9.737 a 39.2,39.2 0 0 0 -1.976,-8.974 c -0.206,-0.593 -0.64,-1.11 -0.875,-1.694 -0.186,-0.46 -0.214,-0.971 -0.395,-1.44 -0.564,-1.45 -1.305,-2.82 -2.117,-4.148 -0.891,-1.458 -2.084,-2.717 -3.119,-4.064 -1.037,-1.35 -2.006,-2.653 -3.288,-3.81 -0.429,-0.387 -0.88,-0.827 -1.354,-1.157 -1.357,-0.942 -2.972,-1.393 -4.488,-2.004 -0.505,-0.203 -0.954,-0.477 -1.439,-0.72 -0.948,-0.473 -1.974,-0.758 -2.963,-1.142 -3.056,-1.189 -6.116,-2.249 -9.314,-3.048 -1.162,-0.291 -2.366,-0.788 -3.556,-0.903 -1.778,-0.173 -3.621,0.244 -5.333,0.649 -0.545,0.128 -1.14,0.11 -1.694,0.225 -1.037,0.217 -1.997,0.655 -2.963,1.045 -1.2,0.483 -2.494,0.696 -3.725,1.072 -1.117,0.341 -2.275,0.954 -3.302,1.51 a 26.9,26.9 0 0 0 -7.112,5.574 c -0.791,0.876 -1.33,1.956 -2.06,2.879 -0.401,0.506 -0.899,0.933 -1.299,1.439 -0.42,0.532 -0.707,1.133 -1.072,1.693 -0.367,0.563 -0.841,1.09 -1.143,1.694 -0.375,0.749 -0.46,1.629 -0.861,2.37 -0.342,0.63 -0.747,1.176 -1.355,1.58 -0.782,0.522 -1.75,0.834 -2.088,1.807 -0.193,0.556 -0.133,1.216 0,1.778 0.102,0.433 0.348,0.9 0.31,1.354 -0.066,0.792 -0.6,1.493 -0.677,2.286 -0.142,1.464 0.143,2.93 0,4.403 -0.118,1.208 -0.173,2.428 -0.24,3.64 -0.033,0.604 0.13,1.243 0.07,1.863 -0.074,0.768 -0.596,1.406 -0.507,2.202 0.029,0.26 0.168,0.504 0.225,0.762 0.214,0.963 0.464,1.916 0.678,2.878 0.214,0.964 0.463,1.918 0.677,2.88 0.12,0.535 0.229,1.107 0.466,1.608 0.314,0.665 0.808,1.218 1.157,1.862 0.58,1.072 1.038,2.204 1.877,3.133 0.457,0.507 1.01,0.912 1.524,1.355 0.516,0.445 1.048,0.937 1.608,1.326 0.695,0.483 1.509,0.76 2.286,1.073 1.063,0.428 2.236,0.79 3.387,0.903 1.69,0.164 3.765,-0.45 5.165,-1.383 1.113,-0.742 2.22,-1.527 3.217,-2.427 1.145,-1.034 2.264,-2.442 3.81,-2.893 0.3,-0.087 0.703,-0.24 1.016,-0.24 0.728,0 1.311,0.46 1.947,0.734 0.708,0.305 1.45,0.531 2.202,0.677 1.984,0.386 4.052,0.21 6.01,-0.197 1.418,-0.295 2.874,-0.685 4.15,-1.411 1.637,-0.933 3.13,-2.034 4.402,-3.444 4.486,-4.968 5.885,-12.905 2.441,-18.796 -1.356,-2.32 -3.082,-4.283 -5.235,-5.898 -0.628,-0.471 -1.428,-0.695 -2.117,-1.058 -0.646,-0.341 -1.224,-0.812 -1.862,-1.157 -0.798,-0.432 -1.784,-0.852 -2.71,-0.903 -0.633,-0.036 -1.242,0.15 -1.862,0.211 -1.715,0.167 -3.375,0.476 -4.995,1.13 -1.052,0.422 -2.007,1.018 -3.048,1.453 -0.671,0.279 -1.347,0.378 -2.032,0.578 -1.14,0.332 -2.107,1.318 -2.88,2.173 -1.304,1.446 -1.893,3.263 -2.398,5.08 -0.334,1.203 -0.44,2.422 -0.677,3.64 -0.117,0.601 -0.387,1.364 -0.141,1.948"
       style="fill:#030303;stroke:none"
       id="path2" />
  </g>
</svg>
