<svg xmlns="http://www.w3.org/2000/svg" xml:space="preserve" width="655.36" height="655.36" viewBox="0 0 173.397 173.397"><g style="display:inline"><path d="M86.699 145.034c-.645-.405-1.103-1.41-1.553-2.032-1.35-1.87-2.7-3.754-3.979-5.673-1.75-2.625-3.685-5.147-5.531-7.704-2.138-2.96-4.179-6.007-6.322-8.975-3.46-4.79-6.79-9.693-10.245-14.478-1.832-2.537-3.955-4.959-5.292-7.79-.359-.76-.503-1.646-.705-2.455-.44-1.757-.49-3.544-.663-5.334-.356-3.653.018-7.468.903-11.006.888-3.552 2.54-6.789 4.402-9.906.83-1.389 1.77-2.74 2.907-3.895.307-.312.554-.69.847-1.016 1.627-1.803 3.568-3.536 5.588-4.882 3.043-2.029 6.362-3.589 9.821-4.742 2.02-.673 4.167-.925 6.266-1.129 3.51-.34 7.213-.268 10.668.452 6.062 1.263 11.756 4.385 16.34 8.523.316.285.553.63.847.931 1.476 1.519 2.87 3.096 4.12 4.826 1.164 1.612 1.98 3.489 2.837 5.25 1.446 2.975 2.458 6.177 2.78 9.482.227 2.342.484 4.658.254 7.028-.279 2.862-.478 5.858-1.637 8.551-.147.34-.406.634-.621.931l-1.524 2.117-5.334 7.366c-5.48 7.588-10.744 15.352-16.228 22.945-1.885 2.61-3.702 5.263-5.588 7.874-.687.952-1.344 1.926-2.032 2.878-.44.61-.965 1.208-1.326 1.863z" style="display:inline;fill:#fff;fill-opacity:1;stroke:#fff;stroke-width:10;stroke-dasharray:none;stroke-opacity:1"/><path d="M83.058 35.504c-.497.096-1.02.092-1.524.14-1.41.138-2.842.351-4.233.622-5.343 1.038-10.612 2.703-15.41 5.235-2.408 1.271-4.645 2.847-6.858 4.445-.975.704-1.984 1.422-2.878 2.23-1.961 1.77-3.786 3.65-5.574 5.587-1.527 1.654-2.712 3.605-4.022 5.419-1.954 2.705-3.424 5.746-4.657 8.805-.129.32-.338.606-.451.932-1.006 2.896-1.913 5.88-2.54 8.89-.476 2.285-.734 4.625-.96 6.942-.11 1.133 0 2.333 0 3.472s-.11 2.338 0 3.471l.339 3.387c.08.82.322 1.646.48 2.455.456 2.344 1.023 4.632 1.665 6.943.782 2.815 2.487 5.11 4.177 7.45.972 1.346 1.907 2.719 2.878 4.064 4.37 6.05 8.471 12.31 12.954 18.288 1.177 1.569 2.172 3.272 3.359 4.826a187 187 0 0 1 6.943 9.737c1.515 2.273 3.17 4.474 4.77 6.689 2.085 2.888 4.094 5.832 6.18 8.72 1.174 1.626 2.299 3.288 3.471 4.911.647.896 1.249 1.95 2.145 2.61.29.214.601.503.931.65.514.228 1.147.287 1.694.409.348.077.653.188 1.016.113.662-.138 1.61-.236 2.201-.565 1.19-.66 1.879-1.722 2.653-2.794 1.137-1.574 2.25-3.167 3.387-4.741 3.81-5.275 7.483-10.648 11.288-15.917 1.289-1.784 2.462-3.659 3.782-5.419 5.645-7.527 10.83-15.399 16.34-23.03 2.11-2.92 4.156-5.882 6.266-8.805.747-1.034 1.454-2.098 2.202-3.132.384-.533.818-1.084 1.072-1.694.532-1.277.844-2.648 1.214-3.979.45-1.624.891-3.255 1.213-4.91 2.243-11.535.252-23.74-4.981-34.206-1.029-2.058-2.41-3.932-3.683-5.842-3.125-4.687-7.14-8.6-11.628-11.966-5.165-3.874-10.907-6.897-17.187-8.467-3.66-.915-7.261-1.64-11.007-2.004-.939-.091-1.934 0-2.878 0h-2.71c-.466 0-.981-.06-1.439.029m3.64 109.53c-.644-.405-1.102-1.41-1.552-2.032-1.35-1.87-2.7-3.754-3.979-5.673-1.75-2.624-3.685-5.147-5.531-7.704-2.138-2.96-4.179-6.007-6.322-8.975-3.46-4.79-6.79-9.693-10.245-14.478-1.832-2.537-3.955-4.959-5.292-7.79-.359-.76-.503-1.646-.705-2.455-.44-1.757-.49-3.544-.663-5.334-.356-3.653.018-7.468.903-11.006.888-3.552 2.54-6.789 4.402-9.906.83-1.389 1.77-2.74 2.907-3.895.307-.312.554-.69.847-1.016 1.627-1.803 3.568-3.536 5.588-4.882 3.043-2.029 6.362-3.589 9.821-4.742 2.02-.673 4.167-.925 6.266-1.129 3.51-.34 7.213-.268 10.668.452 6.062 1.263 11.756 4.385 16.34 8.523.316.285.553.63.847.931 1.476 1.519 2.87 3.096 4.12 4.826 1.164 1.612 1.98 3.489 2.837 5.25 1.446 2.975 2.458 6.177 2.78 9.482.227 2.342.484 4.658.254 7.028-.279 2.862-.478 5.858-1.637 8.551-.147.34-.406.634-.621.931l-1.524 2.117-5.334 7.366c-5.48 7.588-10.744 15.352-16.228 22.945-1.885 2.61-3.702 5.263-5.588 7.874-.687.952-1.344 1.926-2.032 2.878-.44.61-.965 1.208-1.326 1.863" style="display:inline;fill:#e1710f;fill-opacity:1;stroke:none"/><path d="M86.53 35.419c-1.114.17-2.266-.053-3.387.056l-3.556.339c-1.506.146-3.014.576-4.488.903-4.674 1.039-9.168 2.647-13.377 4.868-2.193 1.158-4.254 2.57-6.265 4.022-4.142 2.99-7.955 6.633-10.95 10.781-1.213 1.68-2.491 3.333-3.458 5.165-1.305 2.473-2.76 4.878-3.683 7.535-1.126 3.244-2.149 6.6-2.667 9.99-.125.82-.435 1.629-.494 2.456-.22 3.12-.56 6.328-.254 9.483.05.503-.049 1.02 0 1.524.42 4.307 1.308 8.751 2.738 12.869.86 2.478 2.481 4.576 4.007 6.689.972 1.345 1.907 2.718 2.88 4.064 4.457 6.172 8.745 12.448 13.207 18.626a85 85 0 0 1 2.258 3.302c.313.48.698.902 1.044 1.355 1.534 2.008 2.885 4.157 4.403 6.18.817 1.09 1.587 2.254 2.342 3.387 2.13 3.195 4.467 6.283 6.717 9.398 1.394 1.93 2.695 3.926 4.106 5.842 1.4 1.9 2.693 3.872 4.107 5.758.694.925 1.377 1.963 2.483 2.455.363.161.802.186 1.186.282.396.1.855.291 1.27.268 1.298-.072 2.755-.617 3.697-1.51.52-.493.908-1.17 1.326-1.75.888-1.23 1.715-2.51 2.625-3.725 1.578-2.105 3.031-4.301 4.572-6.434 3.888-5.385 7.622-10.867 11.515-16.256 5.569-7.711 10.936-15.566 16.51-23.284 2.284-3.163 4.606-6.317 6.773-9.567.79-1.187 1.772-2.274 2.413-3.556.238-.476.361-1.02.522-1.524a99 99 0 0 0 1.072-3.64c1.57-5.651 2.205-11.69 1.637-17.527-.032-.335.033-.68 0-1.016-.093-.96-.295-1.93-.48-2.878-.135-.699-.155-1.418-.31-2.117-.354-1.595-.776-3.166-1.213-4.741-.952-3.428-2.197-6.769-3.853-9.906a49 49 0 0 0-4.868-7.451c-1.752-2.212-3.508-4.447-5.616-6.35-1.627-1.469-3.327-2.82-5.08-4.135-2.516-1.886-5.17-3.46-7.959-4.854-2.165-1.082-4.424-2.07-6.773-2.723-2.63-.73-5.198-1.427-7.874-1.948-.532-.103-1.07-.258-1.609-.31-.68-.066-1.353-.188-2.032-.254-.335-.033-.68.033-1.016 0-.983-.096-1.969-.085-2.963-.085-.376 0-.828-.11-1.186-.056m45.551 37.479c-.038.334.144.603.226.931.222.89.516 1.74.762 2.625.453 1.633.772 3.396.96 5.08.532 4.79.764 9.809-.226 14.563-.145.693-.137 1.422-.31 2.116-.53 2.114-.996 4.337-1.835 6.35-.254.61-.688 1.161-1.073 1.694-.709.982-1.446 1.958-2.116 2.963a188 188 0 0 1-6.012 8.467c-1.32 1.76-2.48 3.651-3.782 5.418-3.724 5.06-7.222 10.277-10.95 15.325-.213.288-.363.634-.564.931-.373.552-.822 1.067-1.214 1.609-1.396 1.933-2.705 3.925-4.12 5.842-1.747 2.365-3.335 4.822-5.052 7.197-1.216 1.68-2.517 3.357-3.683 5.08-.907 1.34-1.81 2.696-2.808 3.979-.92 1.183-1.763 2.475-2.597 3.725-.21.317-.636 1.143-1.072 1.101-.309-.03-.384-.29-.536-.508-.306-.44-.629-.917-.974-1.326-.554-.658-1.011-1.44-1.51-2.145-.919-1.299-1.835-2.607-2.766-3.895-1.176-1.629-2.323-3.282-3.5-4.91-.457-.634-.84-1.34-1.326-1.948-.353-.441-.727-.88-1.044-1.355-.524-.786-1.037-1.613-1.608-2.37-1.414-1.876-2.843-3.798-4.15-5.758-1.361-2.043-2.8-4.034-4.26-6.011-.458-.62-.877-1.625-1.525-2.032l-.903-1.44-2.695-3.753-7.634-10.753-2.54-3.612-1.044-1.355c0-.299-.326-.6-.508-.846-.39-.529-.794-1.063-1.157-1.609a136 136 0 0 0-2.936-4.233c-.736-1.018-1.474-1.99-2.003-3.133-.673-1.451-1.12-2.959-1.524-4.501-.17-.65-.428-1.275-.565-1.934-.088-.42-.047-.853-.14-1.27a38 38 0 0 1-.735-4.656c-.123-1.271 0-2.617 0-3.895 0-1.555-.15-3.194 0-4.741a49.3 49.3 0 0 1 4.982-17.272c1.043-2.088 2.23-4.322 3.683-6.167 1.39-1.767 2.779-3.505 4.29-5.179 2.187-2.423 4.818-4.506 7.45-6.406 1.837-1.327 3.89-2.468 5.927-3.43.818-.386 1.604-.896 2.455-1.227 4.484-1.744 9.082-3.117 13.885-3.584 1.637-.16 3.334-.085 4.996-.085 1.659 0 3.35-.075 4.995.085 2.05.2 4.173.542 6.18 1.044.974.244 1.912.606 2.88.875 1.753.487 3.5 1.095 5.164 1.835 6.074 2.7 11.673 6.741 16.171 11.655 1.502 1.641 2.82 3.45 4.12 5.25 1.277 1.766 2.337 3.717 3.26 5.672.387.82.929 1.593 1.228 2.456.288.83.66 1.626.96 2.455.103.286.166.881.423 1.016m-68.729 47.948.586.905 1.115 1.524 4.29 6.04.872 1.16.602.85.908 1.321 2.246 3.244.582.84.378.6.593.761 1.298 1.835 3.838 5.362 1.073 1.524.649.762.367.677 1.072 1.468.423.48.706 1.1 1.665 2.456h.085l.536-.847 1.467-2.032 3.67-5.165 7.168-10.075 5.503-7.874 2.681-3.796 2.343-3.316 1.185-1.609.43-.652c.25-.355.462-.641.699-.942.718-.913 1.323-1.925 2.004-2.865 2.163-2.987 4.292-5.998 6.463-9.003l1.947-2.709c.318-.441.725-.87.974-1.355.618-1.204.966-2.752 1.185-4.064.076-.454.265-.903.367-1.354.326-1.45.436-2.936.578-4.403.293-3.01.122-5.982-.169-8.975-.129-1.324-.549-2.6-.818-3.894-.335-1.604-.88-3.114-1.44-4.657-.21-.582-.374-1.21-.635-1.778a43.6 43.6 0 0 0-4.642-7.818 46 46 0 0 0-2.794-3.443c-.258-.285-.586-.485-.847-.762-.316-.335-.585-.703-.931-1.016-6.414-5.79-14.504-9.577-23.114-10.414-.392-.038-.794.038-1.186 0-1.719-.167-3.53-.143-5.249 0-.393.033-.781-.039-1.185 0-.883.086-1.745.302-2.625.424-12.092 1.679-23.185 9.934-28.631 20.828-.75 1.5-1.35 3.019-1.976 4.572-.296.735-.63 1.512-.833 2.286-1.155 4.428-1.86 9.103-1.41 13.716.04.419-.041.85 0 1.27.24 2.479.806 4.95 1.41 7.366.19.76.586 1.435.946 2.116 1.431 2.712 3.51 5.002 5.235 7.536 2 2.938 4.048 5.87 6.153 8.72.573.777 1.058 1.618 1.665 2.371.2.249.344.49.57.754m23.306 24.223c-.282-.177-.462-.489-.664-.762-.45-.612-.867-1.247-1.312-1.863a241 241 0 0 1-3.866-5.503c-1.678-2.466-3.475-4.864-5.221-7.282-2.283-3.16-4.46-6.404-6.746-9.567-2.939-4.07-5.807-8.204-8.748-12.277-.52-.72-.957-1.495-1.496-2.201-2.09-2.735-4.558-5.503-5.405-8.89a33 33 0 0 1-.832-4.741c-.041-.42.04-.851 0-1.27-.378-3.886.017-7.917.96-11.684.19-.763.536-1.47.79-2.202a35.3 35.3 0 0 1 5.136-9.652c6.888-9.184 18.653-14.398 30.028-13.292.392.038.794-.038 1.186 0 1.081.105 2.237.272 3.302.494 3.391.706 6.615 2.066 9.652 3.668 2.753 1.453 5.435 3.45 7.535 5.744.232.253.53.424.762.677 1.19 1.3 2.32 2.712 3.358 4.149 1.149 1.59 2.03 3.403 2.837 5.164.804 1.754 1.555 3.55 2.074 5.419.821 2.955 1.044 6.085 1.044 9.144 0 2.632-.249 5.227-.818 7.79-.225 1.011-.43 2.225-.96 3.132-.277.475-.665.909-.987 1.355l-2.88 3.979c-1.728 2.394-3.435 4.803-5.164 7.197-3.601 4.986-7.036 10.08-10.64 15.07-4.352 6.027-8.727 12.068-12.925 18.204z" style="display:inline;fill:#010101;stroke:#000;stroke-width:.2;stroke-dasharray:none;stroke-opacity:1"/></g></svg>