<svg xmlns="http://www.w3.org/2000/svg" xml:space="preserve" width="655.36" height="655.36" viewBox="0 0 173.397 173.397"><g style="display:inline"><path d="M61.213 223.267c-.568-7.591 27.43-10.813 41.761-11.003 17.233-.228 46.104 3.286 46.237 10.552.125 6.831-23.438 10.398-44.257 10.662-16.907.214-43.248-3.616-43.741-10.211" style="display:inline;fill:#000;fill-opacity:.2;stroke-width:.264583" transform="translate(-18.34 -61.733)"/></g><g style="display:inline"><path d="M134.62 73.237c.202-1.099.419-2.276.141-3.387-.268-1.073-.957-1.74-1.75-2.455a60 60 0 0 0-3.386-2.823c-3.603-2.802-7.34-5.447-11.261-7.789-2.13-1.271-4.363-2.66-6.773-3.33-.917-.255-1.94-.45-2.879-.254-.403.084-.787.356-1.185.395-.208.02-.39-.065-.593-.085-.654-.063-1.3-.147-1.947-.282-5.277-1.1-10.46-2.751-15.833-3.274-3.004-.292-6.115.049-9.06.621-1.534.299-3.101.668-4.656.819-2.914.283-5.933-.018-8.805.62a9.3 9.3 0 0 0-2.286.833c-1.206.636-2.128 1.532-3.472 1.905-.755.21-1.53.355-2.286.565-.923.256-1.77.607-2.709.79-2.215.43-4.446.365-6.435 1.58-1.364.834-2.542 2.162-3.358 3.528-.658 1.102-1.188 2.336-2.06 3.302-.59.652-1.365 1.142-2.032 1.707-1.035.877-2.042 1.787-3.048 2.696-3.09 2.788-5.758 6.122-8.185 9.482-1.231 1.706-2.41 3.55-3.344 5.419-.306.612-.85 1.333-.917 2.032-.08.818.05 1.65.084 2.455.072 1.713-.08 3.46.085 5.165.06.623.085 1.23.085 1.863 0 .23.054.54-.014.762-.13.416-.864.864-1.172 1.185a4.8 4.8 0 0 0-1.157 2.032c-.269.968-.197 1.965-.197 2.963 0 1.053-.068 2.168-.17 3.218-.191 1.971-.41 3.977-.79 5.926-.267 1.375-.617 2.905-.48 4.318.093.954.546 1.89.847 2.794.484 1.451.917 2.93 1.326 4.403s.862 2.93 1.27 4.403c.23.827.38 1.926.904 2.624.554.74 1.364.962 2.173 1.299.675.281 1.353.573 2.032.846 2.21.89 4.405 1.822 6.604 2.738 1.208.503 2.451.936 3.64 1.481 2.828 1.296 5.808 2.26 8.636 3.556 2.631 1.206 5.37 2.202 8.044 3.317 4.986 2.077 9.997 4.102 14.986 6.18 3.269 1.362 6.533 2.74 9.821 4.064.962.388 1.92.786 2.879 1.186.357.148.789.443 1.185.465.369.02.849-.325 1.185-.465 1.019-.425 2.047-.826 3.048-1.285 3.426-1.57 6.99-2.833 10.414-4.402 2.476-1.135 5.06-2.026 7.536-3.161 7.935-3.637 16.194-6.58 24.13-10.217 2.889-1.324 5.872-2.489 8.805-3.71.878-.366 1.762-.72 2.625-1.116.32-.146.831-.215 1.086-.465.242-.238.152-.689.198-.988.141-.924.113-1.873.254-2.794.171-1.12.045-2.26.155-3.387.317-3.264.06-6.668-.254-9.906-.142-1.459.18-2.89.339-4.318.138-1.244.302-2.478.423-3.725.062-.637.148-1.298.085-1.947-.088-.897-.318-1.811-.875-2.54-.192-.25-.535-.416-.692-.678-.196-.327-.127-.823-.127-1.185 0-.917-.088-1.882 0-2.794.233-2.396.36-4.801.593-7.197.09-.933.248-1.86.339-2.794.027-.282.152-.559.056-.846-.144-.433-.476-.877-.705-1.27a57 57 0 0 0-1.807-2.879c-.994-1.491-2.077-2.914-3.189-4.318-.613-.774-1.227-1.618-2.06-2.173-.782-.522-1.644-.722-2.54-.946-.492-.123-1.02-.313-1.524-.352z" id="singleDwellingStone_svg" display="inline" fill="currentColor" stroke="#000" stroke-width="2"/><path d="M134.62 73.237c.202-1.099.419-2.276.141-3.387-.268-1.073-.957-1.74-1.75-2.455a60 60 0 0 0-3.386-2.823c-3.603-2.802-7.34-5.447-11.261-7.789-2.13-1.271-4.363-2.66-6.773-3.33-.917-.255-1.94-.45-2.879-.254-.403.084-.787.356-1.185.395-.208.02-.39-.065-.593-.085-.654-.063-1.3-.147-1.947-.282-5.277-1.1-10.46-2.751-15.833-3.274-3.004-.292-6.115.049-9.06.621-1.534.299-3.101.668-4.656.819-2.914.283-5.933-.018-8.805.62a9.3 9.3 0 0 0-2.286.833c-1.206.636-2.128 1.532-3.472 1.905-.755.21-1.53.355-2.286.565-.923.256-1.77.607-2.709.79-2.215.43-4.446.365-6.435 1.58-1.364.834-2.542 2.162-3.358 3.528-.658 1.102-1.188 2.336-2.06 3.302-.59.652-1.365 1.142-2.032 1.707-1.035.877-2.042 1.787-3.048 2.696-3.09 2.788-5.758 6.122-8.185 9.482-1.231 1.706-2.41 3.55-3.344 5.419-.306.612-.85 1.333-.917 2.032-.08.818.05 1.65.084 2.455.072 1.713-.08 3.46.085 5.165.06.623.085 1.23.085 1.863 0 .23.054.54-.014.762-.13.416-.864.864-1.172 1.185a4.8 4.8 0 0 0-1.157 2.032c-.269.968-.197 1.965-.197 2.963 0 1.053-.068 2.168-.17 3.218-.191 1.971-.41 3.977-.79 5.926-.267 1.375-.617 2.905-.48 4.318.093.954.546 1.89.847 2.794.484 1.451.917 2.93 1.326 4.403s.862 2.93 1.27 4.403c.23.827.38 1.926.904 2.624.554.74 1.364.962 2.173 1.299.675.281 1.353.573 2.032.846 2.21.89 4.405 1.822 6.604 2.738 1.208.503 2.451.936 3.64 1.481 2.828 1.296 5.808 2.26 8.636 3.556 2.631 1.206 5.37 2.202 8.044 3.317 4.986 2.077 9.997 4.102 14.986 6.18 3.269 1.362 6.533 2.74 9.821 4.064.962.388 1.92.786 2.879 1.186.357.148.789.443 1.185.465.369.02.849-.325 1.185-.465 1.019-.425 2.047-.826 3.048-1.285 3.426-1.57 6.99-2.833 10.414-4.402 2.476-1.135 5.06-2.026 7.536-3.161 7.935-3.637 16.194-6.58 24.13-10.217 2.889-1.324 5.872-2.489 8.805-3.71.878-.366 1.762-.72 2.625-1.116.32-.146.831-.215 1.086-.465.242-.238.152-.689.198-.988.141-.924.113-1.873.254-2.794.171-1.12.045-2.26.155-3.387.317-3.264.06-6.668-.254-9.906-.142-1.459.18-2.89.339-4.318.138-1.244.302-2.478.423-3.725.062-.637.148-1.298.085-1.947-.088-.897-.318-1.811-.875-2.54-.192-.25-.535-.416-.692-.678-.196-.327-.127-.823-.127-1.185 0-.917-.088-1.882 0-2.794.233-2.396.36-4.801.593-7.197.09-.933.248-1.86.339-2.794.027-.282.152-.559.056-.846-.144-.433-.476-.877-.705-1.27a57 57 0 0 0-1.807-2.879c-.994-1.491-2.077-2.914-3.189-4.318-.613-.774-1.227-1.618-2.06-2.173-.782-.522-1.644-.722-2.54-.946-.492-.123-1.02-.313-1.524-.352M85.513 54.963c1.235-.189 2.59.036 3.81.155 3.855.375 7.572 1.504 11.346 2.342 2.23.496 4.42.993 6.688 1.214.505.049 1.2-.074 1.694-.198.481-.12.77-.279 1.27-.112 1.445.481 2.727 1.284 4.064 1.99 3.298 1.74 6.372 3.98 9.398 6.166a97 97 0 0 1 4.064 3.132c.595.48 1.37.97 1.848 1.567.154.191.043.443 0 .663a16 16 0 0 0-.24 1.524c-.105 1.08.295 2.249 1.016 3.048.89.985 2.214 1.52 3.472 1.834.564.141 1.37.159 1.862.48.592.387 1.039 1.199 1.468 1.75a66 66 0 0 1 2.822 3.895c.356.534.897 1.167 1.1 1.778.162.483-.093 1.122-.14 1.608l-.339 3.387c-.317 3.257-.532 6.638-.17 9.906.075.671.339 1.47.706 2.032.206.315.762.662.819 1.016.12.753-.182 1.623-.254 2.37-.149 1.53-.444 3.044-.593 4.573-.12 1.236.051 2.509.17 3.725.165 1.706.169 3.443.169 5.165 0 1.701-.006 3.397-.17 5.08-.041.428-.005.843-.07 1.27-.018.119.018.291-.057.395-.174.242-.788.367-1.058.48-.79.328-1.593.645-2.37 1.001-3.368 1.544-6.877 2.775-10.245 4.318-6.683 3.063-13.637 5.545-20.32 8.608-2.086.956-4.265 1.697-6.35 2.653-3.17 1.453-6.432 2.737-9.652 4.078-.933.389-1.861.797-2.794 1.186-.398.165-.844.453-1.27.536-.476.092-1.26-.446-1.694-.621-1.58-.637-3.192-1.252-4.741-1.962-1.66-.76-3.394-1.372-5.08-2.074-3.834-1.597-7.68-3.172-11.515-4.77-7.86-3.274-15.725-6.555-23.622-9.736-2.265-.913-4.508-1.882-6.773-2.794l-1.863-.762c-.192-.078-.501-.14-.635-.31-.249-.32-.301-1.023-.409-1.412-.354-1.273-.747-2.537-1.1-3.81-.419-1.505-.937-2.982-1.355-4.487-.154-.553-.51-1.125-.565-1.693-.095-.981.29-2.08.424-3.048.255-1.837.582-3.66.762-5.504.123-1.266.13-2.544.254-3.81.059-.605-.164-1.366.014-1.947.193-.631 1.216-.972 1.764-1.185.3-.117.79-.23.846-.593.137-.884 0-1.918-.084-2.794-.17-1.737.084-3.512-.085-5.25-.093-.95.008-1.925-.085-2.878-.048-.494-.205-1.045.014-1.524.866-1.889 2.122-3.726 3.345-5.419 2.265-3.136 4.765-6.202 7.648-8.805 1.536-1.387 3.27-2.613 4.741-4.064.902-.889 1.682-2.014 2.272-3.133.688-1.303 1.44-2.683 2.808-3.386.505-.26 1.224-.277 1.778-.339 1.371-.152 2.815-.335 4.149-.706.604-.167 1.17-.452 1.778-.62 1.423-.396 2.899-.646 4.233-1.313 1.251-.625 2.158-1.594 3.556-1.905.968-.215 1.904-.103 2.879-.197 1.374-.134 2.774-.036 4.149-.17 2.012-.195 4.022-.6 6.011-.987 1.49-.29 2.996-.38 4.487-.607m20.49 80.334 2.116-.677 4.234-1.383 11.853-3.866 4.572-1.468 1.1-.367.466-.211.043-.664v-1.778l.084-5.757v-1.524l-.042-.65-.72-.564-1.354-1.044-.664-.536-.042-1.44.07-1.34.805-.282 2.032-.494c0-1.809-.085-3.623-.085-5.419 0-4.893-.112-9.76-2.737-14.054-2.036-3.332-5.596-4.911-9.37-4.911-1.445 0-2.908.15-4.233.776-1.987.938-3.615 2.61-4.643 4.558-.474.9-1.014 1.926-1.115 2.963l-.338 3.387c-.045.463.002.988-.113 1.44-.125.492-.896.618-1.327.761-.204.069-.499.109-.578.339-.053.154-.004.347-.028.508-.112.73-.084 1.467-.156 2.201-.164 1.69-.259 3.39-.423 5.08-.038.392.038.794 0 1.186a36.5 36.5 0 0 0 0 6.858c.207 2.128-.122 4.306.085 6.434.172 1.769.082 3.566.254 5.334.057.587-.057 1.191 0 1.778.153 1.58.254 3.238.254 4.826M44.958 96.774v19.981l1.524.31 3.64.763 10.753 2.23-.254-3.049-.508-6.18-.254-3.133-.098-1.355-.579-.592-1.355-1.073-.635-.536.043-1.27.169-3.895-3.64-.649-5.927-1.072z" style="fill:#020202;stroke:none"/></g></svg>