<svg xmlns="http://www.w3.org/2000/svg" width="655.36" height="655.36" viewBox="0 0 173.397 173.397"><g style="display:inline"><path d="M10.029 199.167c-.568-7.59 27.43-10.813 41.76-11.003 17.234-.228 46.105 3.286 46.238 10.552.125 6.831-23.438 10.398-44.257 10.662-16.907.214-43.248-3.616-43.741-10.21" style="display:inline;fill:#000;fill-opacity:.2;stroke-width:.264583" transform="translate(32.845 -37.633)"/></g><path d="M63.258 29.425c-2.456 13.779-6.925 38.86-7.928 40.572-1.002 1.712-20.51 13.552-23.003 16.247-2.494 2.696-2.366 8.874.25 10.882s8.974 2.537 14.296 4.671 13.94 8.968 14.34 9.211 1.842-1.208 1.908-1.293c.065-.086 1.055-1.774.426-2.699-.63-.925-6.089-6.91-10.139-9.628s-12.73-5.814-12.73-6.142c.001-.328 8.704-6.266 12.718-9.014 4.014-2.749 9.826-6.75 10.24-9.102s-.088-28.56-.378-43.705" style="fill:none;fill-opacity:1;stroke:#000;stroke-width:11.8079;stroke-linecap:round;stroke-linejoin:round;stroke-miterlimit:5;stroke-dasharray:none;stroke-opacity:1;paint-order:stroke fill markers" transform="matrix(.7895 0 0 .78754 4.634 -16.62)"/><path d="M111.605 20.836c-.869 8.811-2.51 25.454-2.33 26.24s8.317 11.305 13.628 15.895c5.31 4.59 16.49 11.651 17.337 15.315.846 3.664-7.3 15.774-11.994 20.109-4.696 4.335-22.932 15.502-23.833 16.265s-.193 4.158.464 5.3c.657 1.143 3.009 3.087 4.244 2.547s17.884-10.536 27.302-16.191l19.295-19.855.425-7.547c-1.164-1.686-3.283-4.757-4.06-5.417-.775-.66-17.484-13.332-20.92-16.35-3.435-3.017-8.767-8.96-12.59-13.22.318-.313.918-.905.795-1.312s-5.123-14.394-7.763-21.779" style="fill:none;fill-opacity:1;stroke:#000;stroke-width:13.758;stroke-linecap:round;stroke-linejoin:round;stroke-miterlimit:5;stroke-dasharray:none;stroke-opacity:1;paint-order:stroke fill markers" transform="matrix(.70959 0 0 .64543 44.254 -7.037)"/><path d="M83.493 7.983c-.887 7.762-2.48 21.693-2.155 23.024.324 1.33 10.934 14.993 10.29 15.76-.645.769-30.407 10.249-31.55 11.01-1.145.76 2.79 6.876 5.929 7.994 3.138 1.119 16.302 2.737 25.254 9.967 8.951 7.23 23.59 29.673 23.343 33.682-.248 4.01-20.767 28.09-25.247 32.477-4.479 4.387-10.557 6.062-11.74 5.037-1.184-1.025-28.912-32.915-29.21-37.094-.298-4.178 21.206-21.936 24.361-22.485 3.156-.55 14.275 11.658 14.763 13.24s-2.635 5.316-6.258 9.089c-3.624 3.772-5.166 5.181-6.732 4.802s-1.486-1.897-1.063-6.333c.423-4.437.995-8.397.76-8.544s-3.767 1.924-6.964 4.529-5.3 4.985-4.5 6.702 10.734 11.904 15.392 11.06 18.046-15.514 17.696-18.802c-.351-3.287-19.867-21.476-22.523-22.535-2.655-1.058-7.104 2.44-14.59 8.001s-10.046 7.39-15.563 10.976-9.571 5.829-9.677 7.873 1.685 3.15 9.647 14.248 9.576 14.14 15.855 21.898c6.278 7.758 15.949 12.774 16.497 12.886.55.113 12.2-2.162 13.408-3.266 1.21-1.105 34.214-39.633 34.922-40.527s1.35-4.816.615-6.065c-.734-1.25-17.476-26.354-26.29-34.026S74 61.891 74.175 61.455s26.922-7.75 27.98-8.217c1.056-.467 1.018-3.558.997-5.281-5.013-5.987-14.21-16.972-14.751-18.072S85.033 15.32 83.493 7.983" style="fill:none;fill-opacity:1;stroke:#000;stroke-width:10;stroke-linecap:round;stroke-linejoin:round;stroke-miterlimit:5;stroke-dasharray:none;stroke-opacity:1;paint-order:stroke fill markers" transform="translate(10 -.47)scale(.93107)"/><g style="display:inline"><path d="M63.258 29.425c-2.456 13.779-6.925 38.86-7.928 40.572-1.002 1.712-20.51 13.552-23.003 16.247-2.494 2.696-2.366 8.874.25 10.882s8.974 2.537 14.296 4.671 13.94 8.968 14.34 9.211 1.842-1.208 1.908-1.293c.065-.086 1.055-1.774.426-2.699-.63-.925-6.089-6.91-10.139-9.628s-12.73-5.814-12.73-6.142c.001-.328 8.704-6.266 12.718-9.014 4.014-2.749 9.826-6.75 10.24-9.102s-.088-28.56-.378-43.705" id="lostMelody_svg" display="inline" fill="currentColor" stroke="none" transform="matrix(.7895 0 0 .78754 4.634 -16.62)"/><path d="M111.605 20.836c-.869 8.811-2.51 25.454-2.33 26.24s8.317 11.305 13.628 15.895c5.31 4.59 16.49 11.651 17.337 15.315.846 3.664-7.3 15.774-11.994 20.109-4.696 4.335-22.932 15.502-23.833 16.265s-.193 4.158.464 5.3c.657 1.143 3.009 3.087 4.244 2.547s17.884-10.536 27.302-16.191l19.295-19.855.425-7.547c-1.164-1.686-3.283-4.757-4.06-5.417-.775-.66-17.484-13.332-20.92-16.35-3.435-3.017-8.767-8.96-12.59-13.22.318-.313.918-.905.795-1.312s-5.123-14.394-7.763-21.779" id="lostMelody_svg" display="inline" fill="currentColor" stroke="none" transform="matrix(.70959 0 0 .64543 44.254 -7.037)"/><path d="M83.493 7.983c-.887 7.762-2.48 21.693-2.155 23.024.324 1.33 10.934 14.993 10.29 15.76-.645.769-30.407 10.249-31.55 11.01-1.145.76 2.79 6.876 5.929 7.994 3.138 1.119 16.302 2.737 25.254 9.967 8.951 7.23 23.59 29.673 23.343 33.682-.248 4.01-20.767 28.09-25.247 32.477-4.479 4.387-10.557 6.062-11.74 5.037-1.184-1.025-28.912-32.915-29.21-37.094-.298-4.178 21.206-21.936 24.361-22.485 3.156-.55 14.275 11.658 14.763 13.24s-2.635 5.316-6.258 9.089c-3.624 3.772-5.166 5.181-6.732 4.802s-1.486-1.897-1.063-6.333c.423-4.437.995-8.397.76-8.544s-3.767 1.924-6.964 4.529-5.3 4.985-4.5 6.702 10.734 11.904 15.392 11.06 18.046-15.514 17.696-18.802c-.351-3.287-19.867-21.476-22.523-22.535-2.655-1.058-7.104 2.44-14.59 8.001s-10.046 7.39-15.563 10.976-9.571 5.829-9.677 7.873 1.685 3.15 9.647 14.248 9.576 14.14 15.855 21.898c6.278 7.758 15.949 12.774 16.497 12.886.55.113 12.2-2.162 13.408-3.266 1.21-1.105 34.214-39.633 34.922-40.527s1.35-4.816.615-6.065c-.734-1.25-17.476-26.354-26.29-34.026S74 61.891 74.175 61.455s26.922-7.75 27.98-8.217c1.056-.467 1.018-3.558.997-5.281-5.013-5.987-14.21-16.972-14.751-18.072S85.033 15.32 83.493 7.983" id="lostMelody_svg" display="inline" fill="currentColor" stroke="none" transform="translate(10 -.47)scale(.93107)"/></g></svg>