<svg xmlns="http://www.w3.org/2000/svg" width="655.36" height="655.36" viewBox="0 0 173.397 173.397"><g style="display:inline"><path d="M61.213 223.267c-.568-7.591 27.43-10.813 41.761-11.003 17.233-.228 46.104 3.286 46.237 10.552.125 6.831-23.438 10.398-44.257 10.662-16.907.214-43.248-3.616-43.741-10.211" style="display:inline;fill:#000;fill-opacity:.2;stroke-width:.264583" transform="translate(-18.34 -61.733)"/></g><g style="display:inline"><path d="M49.7 33.528c-.247 1.337-.659 2.66-.988 3.98-.58 2.316-1.14 4.64-1.778 6.942-1.773 6.383-3.307 12.833-5.08 19.22L37.14 80.602c-.93 3.349-2.06 6.64-2.991 9.99-.554 1.994-1.309 3.932-1.863 5.927a78 78 0 0 1-2.427 7.281c-2.135 5.49-3.883 11.16-6.336 16.51-.98 2.14-1.876 4.312-2.878 6.435-.402.85-1.063 1.79-1.256 2.71l2.286 1.001 4.572 2.032 11.345 5.024 4.572 2.032 2.201.917 1.496-6.604.423-1.947.226-.833 1.411-.79 3.218-1.68.508 3.049 1.27 7.535.48 2.879.24 1.157.634.31 1.186.494 4.572 1.947 16.086 6.858 9.568 4.079 2.286.987.762.212.592-.55 1.186-1.186 4.064-3.979 3.556-3.471 3.132-3.048 6.012-5.842 6.942-6.689 2.71-2.71 6.688-6.434 2.71-2.71 6.688-6.434 2.71-2.71 6.35-6.18 5.334-5.165c-.27-.54-.71-1.039-1.073-1.524-.653-.871-1.31-1.741-1.947-2.624-1.861-2.577-3.567-5.304-5.165-8.044-2.565-4.398-4.793-8.88-6.957-13.462-1.394-2.952-2.44-6.095-3.626-9.144-.908-2.335-1.69-4.731-2.484-7.112-.534-1.602-1.129-3.2-1.58-4.826-.284-1.023-.647-2.024-.931-3.048-.075-.269-.15-.975-.381-1.143-.148-.106-.486-.11-.664-.155-.505-.126-1.015-.225-1.524-.339l-4.148-.93c-4.772-1.061-9.536-2.158-14.309-3.218-12.425-2.761-24.828-5.621-37.253-8.382-3.388-.753-6.771-1.533-10.16-2.286-1.833-.408-3.656-.902-5.504-1.242z" id="encampment_svg" display="inline" fill="currentColor" stroke="#000" stroke-width="2"/><path d="M49.7 33.528c-.247 1.337-.659 2.66-.988 3.98-.58 2.316-1.14 4.64-1.778 6.942-1.773 6.383-3.307 12.833-5.08 19.22L37.14 80.602c-.93 3.349-2.06 6.64-2.991 9.99-.554 1.994-1.309 3.932-1.863 5.927a78 78 0 0 1-2.427 7.281c-2.135 5.49-3.883 11.16-6.336 16.51-.98 2.14-1.876 4.312-2.878 6.435-.402.85-1.063 1.79-1.256 2.71l2.286 1.001 4.572 2.032 11.345 5.024 4.572 2.032 2.201.917 1.496-6.604.423-1.947.226-.833 1.411-.79 3.218-1.68.508 3.049 1.27 7.535.48 2.879.24 1.157.634.31 1.186.494 4.572 1.947 16.086 6.858 9.568 4.079 2.286.987.762.212.592-.55 1.186-1.186 4.064-3.979 3.556-3.471 3.132-3.048 6.012-5.842 6.942-6.689 2.71-2.71 6.688-6.434 2.71-2.71 6.688-6.434 2.71-2.71 6.35-6.18 5.334-5.165c-.27-.54-.71-1.039-1.073-1.524-.653-.871-1.31-1.741-1.947-2.624-1.861-2.577-3.567-5.304-5.165-8.044-2.565-4.398-4.793-8.88-6.957-13.462-1.394-2.952-2.44-6.095-3.626-9.144-.908-2.335-1.69-4.731-2.484-7.112-.534-1.602-1.129-3.2-1.58-4.826-.284-1.023-.647-2.024-.931-3.048-.075-.269-.15-.975-.381-1.143-.148-.106-.486-.11-.664-.155-.505-.126-1.015-.225-1.524-.339l-4.148-.93c-4.772-1.061-9.536-2.158-14.309-3.218-12.425-2.761-24.828-5.621-37.253-8.382-3.388-.753-6.771-1.533-10.16-2.286-1.833-.408-3.656-.902-5.504-1.242M89.831 149.86c-3.125-6.25-5.22-13.027-7.76-19.558-.691-1.775-1.145-3.643-1.835-5.419a58 58 0 0 1-1.778-5.418c-.949-3.415-2.185-6.748-3.133-10.16-1.337-4.815-2.84-9.58-4.177-14.394-1.887-6.792-3.673-13.614-5.56-20.404-2.185-7.87-4.242-15.785-6.223-23.707-.593-2.374-1.226-4.738-1.82-7.112-.27-1.08-.789-2.271-.818-3.387 1.704.314 3.388.782 5.08 1.157 3.389.754 6.772 1.534 10.16 2.286 10.166 2.26 20.314 4.6 30.48 6.858 3.897.866 7.787 1.76 11.684 2.625l3.386.762c.395.088.792.161 1.186.254.158.037.434.05.564.155.19.155.212.585.282.805.235.735.462 1.468.706 2.201.92 2.762 1.738 5.583 2.794 8.297 1.434 3.688 2.616 7.517 4.304 11.092 2.169 4.593 4.303 9.142 6.872 13.546 1.495 2.563 2.998 5.206 4.741 7.62.443.613.867 1.242 1.298 1.863.124.178.42.434.325.677-.142.366-.698.74-.974 1.016-.863.864-1.762 1.677-2.624 2.54-3.12 3.12-6.365 6.11-9.483 9.229-1.718 1.718-3.447 3.453-5.25 5.08-2.161 1.952-4.104 4.145-6.265 6.096-3.108 2.806-5.866 5.999-8.974 8.805a111 111 0 0 0-4.064 3.895c-1.889 1.888-3.778 3.8-5.758 5.588-1.08.975-2.053 2.073-3.132 3.048s-2.053 2.073-3.133 3.048c-.368.332-.674.77-1.1 1.016M52.408 43.942l.733 2.963 1.524 5.927 5.165 19.727 3.697 13.801 5.334 18.965 3.472 11.6 1.608 5.08 1.13 3.386 1.438 4.234 1.158 3.386 3.725 9.906 2.187 5.334 1.171 2.71-2.624-1.087-3.98-1.693-12.53-5.334-5.165-2.202-1.778-.762-.48-.211-.197-.903-.424-2.456-1.467-8.72-.932-5.588-1.241-7.366-1.778-10.499-1.44-8.551-.592-3.726h-.085l-1.834 8.213-4.234 18.88-2.116 9.483-.762 3.387-.367 1.524-4.149-1.849-6.604-2.906-3.725-1.68.917-2.201 1.51-3.556 5.164-13.377 1.722-4.996 1.129-3.386 2.201-6.943 3.246-10.837 4.572-16.341 4.064-15.325 1.1-4.233z" style="fill:#020202;stroke:none"/></g></svg>