<svg xmlns="http://www.w3.org/2000/svg" xml:space="preserve" width="655.36" height="655.36" viewBox="0 0 173.397 173.397"><g style="display:inline"><path d="M37.084 39.398c-3.546.69-6.096 3.31-8.24 6.068l-4.15 5.334c-2.119 2.724-4.16 5.5-6.18 8.297-1.297 1.796-2.733 3.777-3.33 5.927-.438 1.574-.524 3.383-.367 4.995.117 1.206-.033 2.436.084 3.64.19 1.949.404 3.896.593 5.843.68 6.986 1.776 13.928 2.455 20.912.306 3.144.965 6.255 1.27 9.398.386 3.967 1.169 7.893 1.609 11.854.098.88.326 1.745.423 2.624.449 4.038 1.235 8.317 4.403 11.176 2.659 2.4 6.162 1.948 9.483 1.948h105.409c1.303 0 2.622.085 3.895-.198 2.95-.655 4.866-3.169 6.11-5.729.633-1.301.843-2.75 1.115-4.149.196-1.009.366-2.028.48-3.048.49-4.417 1.432-8.783 1.862-13.208.22-2.266.711-4.507.932-6.773.214-2.208.632-4.396.846-6.604.54-5.542 1.409-11.051 1.948-16.594.238-2.456.523-4.91.762-7.366.117-1.208.034-2.425.084-3.641.066-1.573.064-3.185-.282-4.741-.327-1.47-1.117-2.714-1.89-3.98-.932-1.525-2.004-2.957-3.049-4.402-2.158-2.988-4.425-5.896-6.688-8.806-1.459-1.875-2.83-3.989-4.6-5.588-1.43-1.29-3.03-2.497-4.911-3.02-1.014-.281-2.086-.197-3.133-.197H39.793c-.864 0-1.861-.137-2.71.028z" id="runeChest_svg" display="inline" fill="#fff" stroke="#000" stroke-width="2"/><path d="M37.084 39.398c-3.546.69-6.096 3.31-8.24 6.068l-4.15 5.334c-2.119 2.724-4.16 5.5-6.18 8.297-1.297 1.796-2.733 3.777-3.33 5.927-.438 1.574-.524 3.383-.367 4.995.117 1.206-.033 2.436.084 3.64.19 1.949.404 3.896.593 5.843.68 6.986 1.776 13.928 2.455 20.912.306 3.144.965 6.255 1.27 9.398.386 3.967 1.169 7.893 1.609 11.854.098.88.326 1.745.423 2.624.449 4.038 1.235 8.317 4.403 11.176 2.659 2.4 6.162 1.948 9.483 1.948h105.409c1.303 0 2.622.085 3.895-.198 2.95-.655 4.866-3.169 6.11-5.729.633-1.301.843-2.75 1.115-4.149.196-1.009.366-2.028.48-3.048.49-4.417 1.432-8.783 1.862-13.208.22-2.266.711-4.507.932-6.773.214-2.208.632-4.396.846-6.604.54-5.542 1.409-11.051 1.948-16.594.238-2.456.523-4.91.762-7.366.117-1.208.034-2.425.084-3.641.066-1.573.064-3.185-.282-4.741-.327-1.47-1.117-2.714-1.89-3.98-.932-1.525-2.004-2.957-3.049-4.402-2.158-2.988-4.425-5.896-6.688-8.806-1.459-1.875-2.83-3.989-4.6-5.588-1.43-1.29-3.03-2.497-4.911-3.02-1.014-.281-2.086-.197-3.133-.197H39.793c-.864 0-1.861-.137-2.71.028m13.378 6.83c-.04.377-.395.563-.677.79-.469.378-.888.81-1.355 1.185-1.707 1.376-3.194 3.179-4.656 4.798-2.009 2.225-3.92 4.798-5.32 7.45-.391.741-.781 1.501-1.087 2.287-.116.297-.222 1.034-.48 1.228-.182.137-.683.042-.903.042H23.961c.145-.69.621-1.348.987-1.947a30 30 0 0 1 1.61-2.371c2.294-3.06 4.835-5.887 7.393-8.72a89 89 0 0 1 3.133-3.303c.394-.394.854-1.062 1.355-1.312.197-.099.464-.024.677-.057.938-.143 1.926-.07 2.879-.07zm98.975 17.78h-12.022c-.22 0-.72.094-.903-.042-.142-.106-.166-.396-.226-.55-.186-.48-.35-.982-.579-1.44-.798-1.598-1.663-3.188-2.723-4.657a61.5 61.5 0 0 0-6.407-7.535c-.75-.75-1.5-1.492-2.286-2.201-.452-.409-1.12-.762-1.439-1.27.435-.183 1.046-.085 1.524-.085h8.382c.55 0 1.068.032 1.609.085.19.018.413-.048.592.042.38.19.718.675 1.016.974.75.75 1.493 1.5 2.202 2.286 1.933 2.14 3.875 4.249 5.757 6.434 1.436 1.668 2.814 3.417 4.036 5.25.536.804 1.268 1.76 1.467 2.709m-20.828 0h-17.272l-9.398-.085h-9.482l-4.234-.084-3.47.084h-9.737l-4.15.085H44.79c.07-.889.779-1.84 1.17-2.625 1.28-2.56 3.093-4.904 5.01-7.027a73 73 0 0 1 5.25-5.25l1.778-1.608c.317-.287.623-.698 1.016-.89.247-.12.661-.041.93-.041h52.917c.413 0 1.153-.144 1.524.042.379.189.696.604 1.016.875 1.056.894 2.022 1.881 3.048 2.808 3.075 2.776 5.91 5.943 8.072 9.483a29 29 0 0 1 1.51 2.794c.212.448.539.936.578 1.439m-93.81 7.45-.508 3.895-.254 6.266v2.37l.508 6.858.931 6.689.819 4.995 1.326 7.45 2.794 14.563.762 3.98.395 2.37c-1.99 0-4.015.085-6.011.085-1.971 0-3.962-.132-5.503-1.524-1.636-1.476-1.838-3.57-2.23-5.588-.602-3.097-1.148-6.266-1.496-9.398-.396-3.567-1.176-7.095-1.524-10.668-.357-3.678-.997-7.329-1.354-11.006-.357-3.67-.744-7.337-1.101-11.007-.24-2.474-.183-4.977-.423-7.45-.032-.327.054-.616.084-.932.062-.636 0-1.309 0-1.947l5.504-.085zm90.425 59.435h-6.689l-1.609.085-14.478-.085H68.495l-7.027.043-4.91.042-1.779-.085h-6.604c-1.036-5.624-1.813-11.308-2.907-16.933-.733-3.773-1.495-7.615-1.919-11.43-.27-2.435-.779-4.843-1.016-7.281l-.508-5.165c-.079-.814-.005-1.64-.084-2.455-.387-3.972-.27-8.156.169-12.108.107-.962.263-1.92.41-2.878.044-.293-.005-.846.168-1.087.165-.228.936-.099 1.2-.099 1.218 0 2.434-.084 3.64-.084h78.825c1.153 0 2.31.084 3.471.084.283 0 1.014-.132 1.242.043.204.156.171.82.198 1.058.088.793.25 1.578.338 2.37.408 3.67.7 7.555.34 11.261-.127 1.293-.045 2.603-.17 3.895l-.508 5.25c-.235 2.41-.749 4.79-1.016 7.196-.37 3.335-1.024 6.693-1.665 9.99-1.187 6.103-2.037 12.27-3.161 18.373m26.162-59.436c0 .64-.062 1.312 0 1.948.03.316.116.605.084.931-.237 2.446-.185 4.92-.423 7.366-.406 4.18-.864 8.353-1.27 12.53-.31 3.198-.874 6.37-1.185 9.568-.328 3.374-1.065 6.706-1.44 10.075-.37 3.33-.94 6.699-1.58 9.991-.392 2.017-.594 4.111-2.23 5.588-1.54 1.391-3.532 1.524-5.503 1.524-1.986 0-4.014-.085-6.011-.085l.48-2.794.762-3.979 2.709-14.14 1.326-7.45.734-4.487 1.016-7.197.508-6.943v-2.54l-.254-6.096-.508-3.81 7.281-.084zm-57.15 2.315c-.963.187-1.936.278-2.879.592-.929.31-1.847.697-2.794.96-1.278.355-2.568.674-3.81 1.157-.67.26-1.317.585-1.947.917-.412.217-.822.589-1.27.72-.277.08-.507-.091-.762-.17-.343-.104-.741-.176-1.1-.14-.471.045-.99.132-1.44.282-.674.224-1.243.643-1.947.79-2.623.546-5.695.365-7.508 2.737-.925 1.212-1.346 2.783-1.75 4.234-.28 1.01-.852 1.884-1.128 2.878-.168.604-.174 1.246-.31 1.863a15.5 15.5 0 0 1-1.087 3.217c-.488 1.033-1.262 1.931-1.75 2.964-.43.91-.441 2.08-.24 3.048.545 2.613 2.028 4.726 3.274 7.027.648 1.197.97 2.573 1.538 3.81.576 1.256 1.297 2.493 1.736 3.81.743 2.231 1.41 4.605 1.637 6.943.109 1.124.009 3.069 1.1 3.781.56.366 1.403.113 2.032.113 1.21 0 2.441.29 3.64.424 3.99.443 7.943 1.22 11.939 1.608a6 6 0 0 0 1.863-.113c.314-.074.616-.386.93-.395.158-.004.282.098.424.141.363.111.812.163 1.186.085.515-.107 1.1-.372 1.41-.818.205-.295.307-.639.523-.932.865-1.175 1.668-2.464 2.639-3.556 1.608-1.81 3.047-3.778 4.656-5.588.536-.602 1.017-1.247 1.538-1.862.318-.376.729-.79.89-1.27.216-.65.047-1.365.112-2.032.14-1.432.225-3.044.085-4.488-.035-.36-.084-.843-.198-1.185-.108-.326-.453-.528-.55-.847-.135-.44.028-1 .07-1.439.027-.27-.059-.501-.084-.762-.083-.85.036-1.877.197-2.71.23-1.176.584-2.307.875-3.47.229-.915.397-1.847.805-2.71.366-.777.632-1.604 1.016-2.37.18-.362.531-.837.465-1.27-.048-.316-.322-.575-.465-.847-.382-.723-.735-1.47-1.101-2.202-.737-1.473-1.794-2.593-2.893-3.81-.353-.39-.586-.874-.931-1.27-.259-.295-.58-.533-.819-.846-1.394-1.826-2.56-3.857-4.078-5.588-.417-.476-.828-.591-1.368-.861-.746-.373-1.504-.719-2.371-.55m5.334 12.756c.748-.445 1.41-1.836 2.455-1.778.363.02.67.508.875.762.588.73 1.164 1.448 1.595 2.286.136.266.407.611.296.931-.11.315-.544.576-.748.847-.62.828-1.266 1.623-1.75 2.54-.757 1.436-1.277 3.028-1.792 4.572-.402 1.207-.85 2.411-1.157 3.64-.322 1.289-.53 2.6-.818 3.895-.206.925-.473 1.849-.565 2.794-.169 1.737.225 3.401-.451 5.08-.463 1.149-1.398 1.754-2.173 2.653-1.002 1.162-1.92 2.761-2.202 4.29.32-.19.552-.52.847-.762.726-.593 1.45-1.186 2.201-1.75.712-.534 1.644-.863 2.286-1.467.36-.339.687-.834.917-1.27a9.1 9.1 0 0 0 1.03-3.387c.123-1.26-.037-2.55.085-3.81.108-1.105.494-2.221.734-3.302.225-1.011.372-2.05.65-3.048.305-1.1.73-2.136 1.072-3.217h.084c0 .75-.266 1.458-.338 2.201-.094.962-.246 1.917-.339 2.879-.046.475.046.964 0 1.44-.067.683-.322 1.332-.254 2.031.037.379.19.683.508.903.21.146.467.182.564.452.144.397.029 1.018.029 1.44 0 .8-.008 1.58-.085 2.37-.06.622.032 1.193-.268 1.778-.323.627-.96 1.14-1.397 1.693-.722.912-1.45 1.845-2.23 2.71-1.106 1.225-2.316 2.373-3.274 3.725-.581.821-1.264 1.608-1.806 2.455-.154.24-.313.863-.592.974-.237.094-.382-.247-.508-.381-.42-.446-.876-.605-1.016-1.27h-.254c-.085.322-.31.56-.48.846-.29.485-.546 1.378-1.13 1.58-.536.187-1.245-.045-1.777-.126-.954-.146-1.92-.22-2.879-.353-1.576-.219-3.157-.608-4.741-.762-1.887-.183-3.806-.333-5.673-.677.038-.357.287-.558.48-.847.684-1.025 1.613-1.766 2.484-2.625 1.407-1.388 3.05-2.738 4.826-3.626 2.903-1.452 6.194-2.153 8.974-3.853.558-.34 1.297-.774 1.665-1.326.343-.514.47-1.348.537-1.947.088-.797.26-1.57.338-2.37.037-.377.218-.73.254-1.102.116-1.193.307-2.36.424-3.556.036-.376.217-.729.254-1.1.046-.48.038-.96.084-1.44.034-.347.22-.666.254-1.016.103-1.06.19-2.087.452-3.132.157-.627.446-1.236.62-1.863.264-.946.454-1.925.692-2.879.142-.568.525-1.26.325-1.862-.111-.333-.41-.608-.65-.847-.532-.532-1.108-1.194-1.777-1.538-.286-.147-.584-.417-.932-.296-.344.12-.6.47-.931.635-.933.466-1.937.825-2.879 1.27-2.473 1.168-5.002 2.19-7.45 3.415-1.53.764-2.931 1.788-4.403 2.667-.472.282-1.042.373-1.524.635-.463.25-.858.647-1.27.973-.956.757-2.265 1.573-2.766 2.738-.28.65.084 1.282.057 1.947-.117 2.807 1.414 5.409 2.44 7.959.392.97.793 1.67 1.708 2.23.23.14.476.394.762.394.274 0 .608-.208.847-.324.567-.276 1.123-.578 1.693-.847 1.458-.688 3.1-1.248 4.657-1.637.945-.236 2.042-.349 2.596-1.256.3-.489.198-1.228.198-1.778 0-1.036.055-2.105.17-3.132.026-.241.17-.443.225-.678.066-.278 0-.565.028-.846.093-.955.543-1.829-.254-2.625a2.4 2.4 0 0 0-.508-.395c-.238-.136-.515-.18-.762-.296-.7-.331-1.32-.67-2.116-.748-.444-.043-.926.051-1.355.14-1.084.227-2.25.48-3.217 1.045-1.271.741-1.863 2.316-1.863 3.725 0 .61.06 1.277.451 1.778.683.873 2.584.751 3.528.424.277-.096.74-.261.917-.508.282-.392-.474-.708-.747-.819-.523-.21-1.12-.404-1.397-.96-.094-.187-.043-.473-.043-.677 0-.21-.008-.41.113-.592.199-.3.504-.41.819-.536.948-.382 1.798-.448 2.794-.254.337.065.836-.045.987.366.255.692-.072 1.752-.14 2.456-.103 1.049.076 2.178-.085 3.217-.071.458-1.051.474-1.44.593-.822.251-1.653.467-2.455.79-.688.277-1.342.635-2.032.903-.368.143-1.356.81-1.665.423-.145-.18-.167-.463-.226-.677-.096-.347-.285-.668-.367-1.016-.086-.366-.087-.744-.226-1.1-.42-1.08-.623-2.193-.93-3.303-.203-.727-.489-1.624-.199-2.37.51-1.312 2.197-2.006 3.359-2.554 1.466-.693 2.969-1.36 4.403-2.117.376-.198.717-.468 1.1-.65.495-.233 1.042-.365 1.524-.62 1.753-.925 3.461-1.96 5.165-2.977.896-.535 1.979-1.242 3.048-1.242.203 1.1-.188 2.081-.48 3.132-.258.93-.503 1.862-.762 2.794-.826 2.973-1.467 5.965-1.467 9.06 0 1.386-.113 2.795-.396 4.148-.1.484-.144 1.206-.48 1.595-.193.224-.561.323-.818.452q-1.12.56-2.286 1.03c-1.248.502-2.477 1.05-3.725 1.552-1.361.548-2.751 1.015-3.98 1.834-1.862 1.242-3.591 2.794-5.249 4.29-.372.336-.775.68-1.115 1.044-.292.315-.471.64-.917.734-.094-1.195-.474-2.388-.733-3.556-.33-1.484-.745-3.105-1.397-4.487-.514-1.088-.976-2.234-1.524-3.302-.199-.387-.591-.678-.72-1.1-.277-.907.254-2.068.593-2.88.12-.288.484-.769.324-1.1-.097-.2-.28-.15-.437-.057-.31.185-.626.664-1.016.381-.575-.416-1.039-1.323-1.37-1.933-.602-1.113-1.642-2.128-1.904-3.387-.257-1.234.715-2.241 1.298-3.217.543-.91.938-1.965 1.298-2.963.423-1.17.627-2.426 1.13-3.556.274-.617.882-1.216 1.043-1.863.076-.303-.003-.624.057-.931.175-.9.481-1.81.889-2.625.173-.346.323-.733.607-1.016.421-.421 1.133-.6 1.693-.748 1.397-.368 2.84-.371 4.233-.72.842-.21 1.678-.83 2.54-.903.414-.034.794.218 1.186.31.3.072.707.06 1.016.03.667-.066 1.216-.492 1.778-.82a13 13 0 0 1 1.693-.846c1.28-.515 2.66-.573 3.98-.903.82-.205 1.621-.496 2.455-.65-.154.53-.848.813-1.27 1.13-.91.682-1.716 1.477-2.625 2.159-1.904 1.427-3.906 2.868-6.011 3.979-2.335 1.232-4.829 2.21-7.112 3.542-.42.244-.88.435-1.27.734-1.168.892-1.925 2.063-2.554 3.358-.398.818-.757 1.887-.494 2.794h.169c.307-1.458 1.737-2.258 2.879-3.02 2.81-1.873 6.014-3.052 8.974-4.614 2.455-1.296 4.93-2.859 7.112-4.586 1.036-.82 2.011-1.72 3.048-2.54.923-.73 1.812-1.511 2.71-2.272.264-.224.637-.832 1.016-.832.285 0 .424.31.564.508.333.47.727.894 1.072 1.354.628.837 1.642 1.74 1.891 2.794.107.452-.013.91-.056 1.355-.096.99-.254 1.96-.254 2.963m3.528 10.217-.029.056z" style="fill:#020202;stroke:none"/></g></svg>