<svg xmlns="http://www.w3.org/2000/svg" xml:space="preserve" width="655.36" height="655.36" viewBox="0 0 173.397 173.397"><g style="display:inline"><path d="M164.169 4.741c-.757.379-1.588.633-2.371.96-1.88.783-3.782 1.524-5.673 2.286-5.615 2.262-11.26 4.473-16.848 6.801-1.964.818-3.954 1.577-5.927 2.371l-1.863.762c-.314.127-.74.21-1.016.41-.206.148-.148.33-.169.55-.052.53-.103 1.082-.183 1.608-.248 1.62-.42 3.279-.579 4.911-.055.56-.012 1.24-.183 1.778-.09.284-.419.339-.664.437a37 37 0 0 0-1.608.678c-1.758.805-3.576 1.48-5.334 2.286-.586.268-1.192.493-1.778.762-.181.083-.472.285-.678.282-.258-.004-.577-.392-.762-.55-.508-.438-1.071-.84-1.608-1.242a49 49 0 0 0-6.435-4.078c-5.341-2.82-11.154-5.07-17.103-6.393a365 365 0 0 0-4.741-1.016c-.696-.144-1.577-.434-2.286-.395-.836.047-1.724.383-2.54.565a92 92 0 0 0-4.657 1.185c-5.651 1.57-11.037 3.767-16.171 6.477-2.214 1.169-4.289 2.619-6.35 4.05-.493.342-.972.724-1.44 1.1-.204.166-.398.391-.677.325-.298-.07-.567-.264-.846-.38a50 50 0 0 1-2.117-.946c-1.76-.831-3.576-1.54-5.334-2.37a40 40 0 0 0-1.693-.749c-.253-.105-.66-.193-.805-.451-.095-.169-.09-.485-.127-.678-.093-.48-.182-.96-.282-1.439-.316-1.517-.559-3.054-.875-4.572-.099-.475-.215-.96-.282-1.44-.028-.198-.024-.499-.183-.648-.221-.208-.722-.283-1.002-.396-.73-.293-1.468-.561-2.202-.846l-6.773-2.625c-4.88-1.897-9.767-3.775-14.647-5.673l-5.673-2.2c-1.067-.416-2.126-.898-3.217-1.243l2.85 7.112 6.096 15.156 3.133 7.789 1.016 2.54.494 1.185.55.17 1.524.169 4.995.593 1.355.14.508.071.452.89 1.016 2.37 2.413 5.588 1.368 3.133c.48-.278.875-.79 1.27-1.186.61-.61 1.254-1.169 1.863-1.778l.762-.762c.083-.083.204-.254.339-.254s.255.171.338.254c.231.231.584.48.748.762s-.22.899-.324 1.186a28 28 0 0 0-.988 3.471c-.354 1.593-.282 3.197-.282 4.826v6.604c0 13.086-.17 26.198-.17 39.285v14.224c0 .35.116.954-.042 1.27-.321.643-1.17 1.161-1.651 1.694-1.509 1.671-3.232 3.153-4.741 4.826-1.51 1.671-3.232 3.153-4.742 4.826-1.509 1.671-3.231 3.153-4.741 4.826-2.13 2.36-4.44 4.609-6.689 6.858-1.654 1.654-3.258 3.343-4.91 4.995l-1.694 1.693c-.23.231-.583.48-.748.762-.186.32.296.65.494.847.675.674 1.406 1.374 2.004 2.117 1.114 1.383 2.478 2.575 3.669 3.894 1.601 1.774 3.22 3.558 4.91 5.25h.085l18.373-18.796 4.572-4.657 1.1-1.1.509-.382.846.367 2.117.932 6.011 2.624 5.165 2.23 18.373 8.043 6.18 2.71 1.778.776.762.296 1.186-.48 1.778-.748 8.043-3.4 7.959-3.33 14.901-6.28 7.197-3.034 2.201-.931.931-.367 1.27 1.143 3.472 3.386 13.208 13.039 3.894 3.81.932.931.423.297.847-.72 1.947-1.834 3.895-3.67 5.249-4.91v-.085l-5.503-5.334-4.318-4.233-4.318-4.233-8.213-8.128-7.197-7.028-1.439-1.44-1.482-1.438-.042-1.186v-13.377l.17-37.93V58.25l-.198-3.895-1.016-3.725-.494-1.524.86-1.016h.085l1.355 1.27 1.693 1.524 1.101.931 1.425-3.217 2.371-5.334 1.016-2.286.522-.974.677-.127 1.44-.282 4.572-.875 1.44-.282.648-.184.226-.578.593-1.524 1.608-4.149 5.673-14.647 3.64-9.398.932-2.371z" id="warGate_svg" display="inline" fill="#fff" stroke="#000" stroke-width="2"/><path d="M164.169 4.741c-.757.379-1.588.633-2.371.96-1.88.783-3.782 1.524-5.673 2.286-5.615 2.262-11.26 4.473-16.848 6.801-1.964.818-3.954 1.577-5.927 2.371l-1.863.762c-.314.127-.74.21-1.016.41-.206.148-.148.33-.169.55-.052.53-.103 1.082-.183 1.608-.248 1.62-.42 3.279-.579 4.911-.055.56-.012 1.24-.183 1.778-.09.284-.419.339-.664.437a37 37 0 0 0-1.608.678c-1.758.805-3.576 1.48-5.334 2.286-.586.268-1.192.493-1.778.762-.181.083-.472.285-.678.282-.258-.004-.577-.392-.762-.55-.508-.438-1.071-.84-1.608-1.242a49 49 0 0 0-6.435-4.078c-5.341-2.82-11.154-5.07-17.103-6.393a365 365 0 0 0-4.741-1.016c-.696-.144-1.577-.434-2.286-.395-.836.047-1.724.383-2.54.565a92 92 0 0 0-4.657 1.185c-5.651 1.57-11.037 3.767-16.171 6.477-2.214 1.169-4.289 2.619-6.35 4.05-.493.342-.972.724-1.44 1.1-.204.166-.398.391-.677.325-.298-.07-.567-.264-.846-.38a50 50 0 0 1-2.117-.946c-1.76-.831-3.576-1.54-5.334-2.37a40 40 0 0 0-1.693-.749c-.253-.105-.66-.193-.805-.451-.095-.169-.09-.485-.127-.678-.093-.48-.182-.96-.282-1.439-.316-1.517-.559-3.054-.875-4.572-.099-.475-.215-.96-.282-1.44-.028-.198-.024-.499-.183-.648-.221-.208-.722-.283-1.002-.396-.73-.293-1.468-.561-2.202-.846l-6.773-2.625c-4.88-1.897-9.767-3.775-14.647-5.673l-5.673-2.2c-1.067-.416-2.126-.898-3.217-1.243l2.85 7.112 6.096 15.156 3.133 7.789 1.016 2.54.494 1.185.55.17 1.524.169 4.995.593 1.355.14.508.071.452.89 1.016 2.37 2.413 5.588 1.368 3.133c.48-.278.875-.79 1.27-1.186.61-.61 1.254-1.169 1.863-1.778l.762-.762c.083-.083.204-.254.339-.254s.255.171.338.254c.231.231.584.48.748.762s-.22.899-.324 1.186a28 28 0 0 0-.988 3.471c-.354 1.593-.282 3.197-.282 4.826v6.604c0 13.086-.17 26.198-.17 39.285v14.224c0 .35.116.954-.042 1.27-.321.643-1.17 1.161-1.651 1.694-1.509 1.671-3.232 3.153-4.741 4.826-1.51 1.671-3.232 3.153-4.742 4.826-1.509 1.671-3.231 3.153-4.741 4.826-2.13 2.36-4.44 4.609-6.689 6.858-1.654 1.654-3.258 3.343-4.91 4.995l-1.694 1.693c-.23.231-.583.48-.748.762-.186.32.296.65.494.847.675.674 1.406 1.374 2.004 2.117 1.114 1.383 2.478 2.575 3.669 3.894 1.601 1.774 3.22 3.558 4.91 5.25h.085l18.373-18.796 4.572-4.657 1.1-1.1.509-.382.846.367 2.117.932 6.011 2.624 5.165 2.23 18.373 8.043 6.18 2.71 1.778.776.762.296 1.186-.48 1.778-.748 8.043-3.4 7.959-3.33 14.901-6.28 7.197-3.034 2.201-.931.931-.367 1.27 1.143 3.472 3.386 13.208 13.039 3.894 3.81.932.931.423.297.847-.72 1.947-1.834 3.895-3.67 5.249-4.91v-.085l-5.503-5.334-4.318-4.233-4.318-4.233-8.213-8.128-7.197-7.028-1.439-1.44-1.482-1.438-.042-1.186v-13.377l.17-37.93V58.25l-.198-3.895-1.016-3.725-.494-1.524.86-1.016h.085l1.355 1.27 1.693 1.524 1.101.931 1.425-3.217 2.371-5.334 1.016-2.286.522-.974.677-.127 1.44-.282 4.572-.875 1.44-.282.648-.184.226-.578.593-1.524 1.608-4.149 5.673-14.647 3.64-9.398.932-2.371zm-8.89 9.144-5.645 14.563-1.439 3.725-.663 1.651-.635.156-1.609.31-4.657.903-1.693.325-.353.55-.592 1.355-1.609 3.64-1.002 2.286-.847-.677-1.693-1.609h-.085l-.846.932-1.609 1.608-5.25 5.334-13.038 13.378-3.895 3.894-13.038 13.378-4.234 4.318-3.894 3.894-4.234 4.318-4.741 4.911-3.725 3.725-8.467 8.636-8.467 8.636-8.212 8.382-20.49 20.913-5.249 5.334-1.609 1.693-.846.678c-.339-.477-.795-.838-1.186-1.27-.612-.68-1.215-1.386-1.862-2.032-.262-.262-1.074-.842-1.002-1.27.038-.232.338-.437.494-.593l1.27-1.27c1.682-1.682 3.314-3.4 4.995-5.08 6.237-6.237 12.306-12.645 18.542-18.88 2.759-2.76 5.6-5.49 8.213-8.383 1.51-1.672 3.232-3.154 4.741-4.826 1.51-1.672 3.232-3.154 4.741-4.826 3.02-3.345 6.464-6.307 9.483-9.652 1.278-1.415 2.715-2.715 4.064-4.064 1.852-1.852 3.748-3.728 5.503-5.672 1.51-1.673 3.233-3.155 4.742-4.826 1.389-1.539 3.013-2.865 4.402-4.403 1.536-1.701 3.29-3.209 4.826-4.91 4.65-5.151 9.913-9.752 14.563-14.902 1.389-1.539 3.014-2.864 4.403-4.403 1.535-1.7 3.29-3.209 4.826-4.91 1.943-2.153 4.045-4.215 6.096-6.266 1.397-1.397 2.755-2.84 4.148-4.233l1.101-1.1c.115-.116.405-.312.437-.48.038-.2-.48-.58-.606-.706-.503-.502-1.496-1.18-1.694-1.863l2.371-1.002 3.556-1.524 1.355-.578.649-.452.028-.508.17-1.524.507-4.148.17-1.524.127-.988 1.312-.55 3.64-1.454 10.5-4.233 2.963-1.186zm-137.584.085 1.778.706 3.048 1.185 10.076 3.923 3.556 1.369 1.397.564.155.635.31 1.609.903 4.656.325 1.694.55.352 1.355.593 3.81 1.693 2.117.918-.762.931-1.524 1.609v.084l1.185 1.101 2.455 2.455 8.636 8.467 4.318 4.233 4.911 4.742 3.725 3.725 4.318 4.233 4.234 4.149 5.418 5.25v.084l-4.233 4.318h-.085c-9.342-9.342-18.938-18.43-28.278-27.77-2.698-2.698-5.43-5.346-8.128-8.044-.663-.662-1.367-1.282-2.032-1.947-.16-.16-.52-.678-.762-.678-.223 0-.532.447-.678.593-.502.502-1.18 1.496-1.862 1.693l-1.002-2.37-1.524-3.556-.579-1.355-.451-.65-.508-.027-1.524-.17-4.149-.508-1.524-.169-.988-.127-.38-.889-.946-2.37-3.472-8.637-2.525-6.265-.579-1.44zm66.464 9.652v44.28l-.847-.761-2.286-2.202-3.471-3.386-2.879-2.879-8.636-8.467-4.318-4.233-7.281-7.112v-.085c4.24-4.24 9.371-7.53 14.732-10.06 1.868-.883 3.823-1.605 5.757-2.357 3.005-1.17 6.156-1.849 9.229-2.738m5.164 0c.705.297 1.613.368 2.371.536 1.596.355 3.166.833 4.741 1.27 3.058.85 6.048 2.087 8.89 3.43 2.735 1.29 5.394 2.766 7.874 4.557 1.578 1.14 3.045 2.367 4.488 3.669.402.363.8.716 1.185 1.1.138.14.4.318.466.509.075.217-.175.37-.297.508-.413.464-.828.913-1.27 1.354-1.823 1.823-3.598 3.683-5.418 5.504-5.463 5.462-10.793 11.047-16.256 16.51-1.62 1.62-3.202 3.286-4.826 4.91-.64.64-1.256 1.583-2.032 2.032V24.553zM45.72 53.002l2.117 2.031 4.826 4.742 4.91 4.826 4.826 4.741 6.52 6.35 5.418 5.334 1.355 1.355.381.508-.466.592-1.439 1.44-5.673 5.757-6.942 7.112-4.742 4.826-4.402 4.403-4.742 4.826-1.778 1.862-1.016.932.085-29.21v-15.24l.085-.932V57.658l.31-3.556zm82.296.169c.879 1.964.677 4.242.677 6.35 0 3.755-.084 7.519-.084 11.26 0 13.557-.085 27.088-.085 40.64l-2.117-2.032-4.318-4.233-4.318-4.233-4.318-4.234-7.281-7.112-5.25-5.164-1.354-1.27-.395-.508.395-.508 1.355-1.355 5.249-5.334 15.41-15.748 4.487-4.572 1.354-1.355zM95.589 86.275l4.995 4.826 4.318 4.234 3.895 3.894 5.418 5.25 3.218 3.217 8.636 8.467 4.318 4.233 4.318 4.233 7.112 6.943 12.36 12.107 3.303 3.218 1.27 1.439c-.476.338-.837.795-1.27 1.185-.68.614-1.384 1.215-2.032 1.863-.251.251-.865 1.075-1.27.974-.44-.11-.879-.752-1.185-1.059l-2.71-2.709c-3.244-3.244-6.574-6.405-9.821-9.652-11.823-11.823-23.99-23.313-35.814-35.137-3.304-3.303-6.69-6.52-9.99-9.821l-2.456-2.455c-.2-.2-.818-.631-.818-.932 0-.336.76-.872.987-1.1.722-.722 1.397-1.482 2.117-2.202.345-.344.683-.774 1.1-1.016m-6.265 9.483 6.604 6.52 1.778 1.693.762.931c-3.588.66-5.548 5.21-4.05 8.382.984 2.082 2.935 3.502 5.236 3.725.461.045.903-.047 1.354-.084 1.185-.1 2.236-.774 3.133-1.496 1.003-.808 1.568-1.96 1.947-3.161l1.524 1.44 2.964 2.963 5.418 5.249 4.403 4.403 4.572 4.487 2.117 2.117-2.625 1.129-5.588 2.356-6.435 2.71-11.684 4.924-7.79 3.288-2.454 1.03-1.27.48v-52.07zm-5.164 2.201v50.8l-2.117-.917-4.064-1.778-8.72-3.81-14.902-6.52-5.08-2.215 1.778-1.862 3.133-3.218 9.567-9.736 4.403-4.488 1.862-1.862c.233.465.364.978.607 1.439.417.79 1.055 1.472 1.764 2.004.804.602 1.797 1.018 2.794 1.129 2.77.307 5.302-1.092 6.505-3.641 1.581-3.349-.628-7.79-4.304-8.467l1.1-1.185 2.456-2.455 2.032-2.117z" style="fill:#020202;stroke:none"/></g></svg>