<svg xmlns="http://www.w3.org/2000/svg" width="655.36" height="655.36" viewBox="0 0 173.397 173.397"><g style="display:inline"><path d="M87.63 29.803h-.17c-.074-.353-.31-.625-.493-.932-.437-.732-.926-1.425-1.425-2.116-.899-1.244-1.614-2.658-2.385-3.98-1.136-1.947-2.07-4.029-3.43-5.842-.937-1.25-1.853-2.795-3.358-3.443-2.029-.873-4.769-.79-6.406.847-1.012 1.012-1.585 2.629-1.722 4.036-.043.442.122.84.17 1.27.148 1.33.463 2.647.592 3.979.078.801.335 1.571.424 2.37.483 4.351 2.075 8.704 4.148 12.531a81 81 0 0 1 2.018 3.98c.238.503.501 1.367.946 1.693l-3.204 3.274-1.453 1.806c-.758-.599-1.683-1.09-2.37-1.778-1.469-1.468-2.096-3.653-3.077-5.419-.404-.727-1.026-1.502-1.298-2.286-.127-.365-.07-.73-.141-1.1-.07-.36-.19-.737-.226-1.101-.038-.391.038-.794 0-1.185-.041-.425-.127-.835-.085-1.27.06-.611.146-1.24.085-1.863l-.339-3.387c-.044-.451-.13-.892-.084-1.354.347-3.572 1.008-7.103 1.354-10.668.094-.959.453-1.938.65-2.879.175-.84.331-1.695.507-2.54.11-.528.132-1.093.31-1.609.348-.998.716-2.065.82-3.132.057-.593-.085-1.128-.226-1.694-.248-.988-.465-1.698-1.073-2.54-.437-.605-1.159-1.228-1.834-1.566-.396-.198-.926-.23-1.355-.325-.419-.093-.831-.268-1.27-.225-.316.03-.623.157-.931.225-.476.106-1.104.139-1.524.396-1.016.62-1.728 1.448-2.484 2.342-.409.483-.935.867-1.34 1.355-.37.446-.704.96-1.03 1.439-.273.4-.453.85-.692 1.27-.703 1.235-1.398 2.502-1.961 3.81-.536 1.243-.938 2.547-1.412 3.81-.454 1.211-1.03 2.413-1.439 3.64-.118.355-.351.655-.451 1.017a59 59 0 0 0-.932 3.725c-.145.695-.166 1.422-.31 2.117-.178.855-.395 1.753-.48 2.624-.043.448.043.908 0 1.355-.033.34-.136.676-.17 1.016-.095.982.011 1.982-.084 2.963-.076.779-.222 1.689 0 2.456-.451-.143-.896-.323-1.355-.438-.276-.069-.71-.12-.917-.338-.143-.153-.087-.389-.127-.579-.1-.481-.232-.958-.339-1.44-.403-1.816-.807-3.652-.987-5.503-.048-.49-.291-.95-.339-1.439-.054-.56.054-1.134 0-1.693-.082-.849-.34-1.688-.423-2.54-.082-.843-.003-1.698-.085-2.54-.08-.821-.252-1.61-.17-2.456.094-.956.246-1.918.34-2.878.097-1.007-.099-2.042 0-3.048.027-.286.14-.562.169-.847.134-1.38-.107-2.74-.438-4.064-.118-.475-.174-.981-.353-1.44-.454-1.168-1.419-2.343-2.596-2.85-.347-.15-.737-.177-1.1-.268-.352-.088-.738-.248-1.101-.268-.329-.018-.701.147-1.016.226-1.048.262-1.968.528-2.766 1.326-.401.401-.676.944-.988 1.411a15.2 15.2 0 0 0-1.778 3.641c-.298.893-.777 1.752-1.129 2.625-.367.912-.609 1.843-.846 2.794-.176.701-.249 1.412-.396 2.116-.377 1.814-.836 3.607-1.213 5.419-.19.914-.198 1.876-.367 2.794-.955-.201-.946-.955-1.129-1.778-.101-.456-.271-.897-.367-1.355-.126-.608-.096-1.242-.226-1.862-.065-.315-.025-.614-.056-.932l-.254-2.624c-.103-1.063.103-2.155 0-3.218-.047-.484-.207-.957-.254-1.439-.036-.371.121-.723.085-1.1-.072-.742-.29-1.474-.452-2.202-.291-1.31-1.536-2.66-2.766-3.19-.347-.149-.737-.176-1.1-.267-.365-.091-.807-.29-1.186-.268-.422.023-.858.219-1.27.31-4.119.915-5.215 5.503-6.448 8.918-.645 1.785-1.326 3.772-1.51 5.673-.037.375-.218.726-.254 1.1-.072.738-.183 1.47-.254 2.202-.033.335.032.68 0 1.016-.045.457-.21.9-.254 1.355-.098 1.01.013 2.037-.085 3.048-.043.438-.214.815-.17 1.27.098 1 .348 1.986.565 2.963.41 1.84.873 4.136 2.314 5.49 1.218 1.142 2.834 1.386 4.403 1.735.658.146 1.283.597 1.947.649v.085c-1.406-.111-2.895-.393-4.318-.254-.428.041-.851.217-1.27.31-.52.116-1.052.211-1.524.48-.847.482-1.696 1.262-2.088 2.173-.497 1.154-.536 2.492-.536 3.725 0 .722-.07 1.483 0 2.202.107 1.105.554 2.256.903 3.302.228.683.37 1.42.564 2.116.227.816.609 1.571.875 2.371a20 20 0 0 0 1.242 2.963c.6 1.139 1.059 2.357 1.693 3.472 1.421 2.495 3.31 4.74 5.221 6.858.284.314.478.7.762 1.016a31 31 0 0 0 2.202 2.201c.315.285.701.478 1.016.762.4.362.745.755 1.185 1.072 1.936 1.398 4.185 2.12 6.265 3.246 1.205.653 2.452 1.208 3.726 1.722.583.235 1.17.536 1.778.705.923.257 1.864.46 2.794.692 1.512.378 3.004.776 4.572.776-.08 1.017-.41 2.027-.508 3.048-.308 3.166-.168 6.49 1.75 9.144.688.953 1.79 2.033 2.991 2.286-.344.817-.18 1.931-.085 2.794.03.267.244.84.127 1.086-.076.16-.314.258-.437.381-.314.314-.627.772-.847 1.157-.344.605-.451 1.523-.592 2.202-.14.67.26 1.224.225 1.862-.044.803-.333 1.638-.254 2.456.135 1.383.617 2.813.988 4.148.732 2.634 1.549 5.636 4.092 7.084.357.203.798.255 1.186.367-.225.502-.17 1.061-.17 1.609 0 1.942.8 3.62 1.609 5.334.552 1.169 1.248 2.252 1.863 3.386.55 1.015.903 2.118 1.453 3.133.664 1.225 1.525 2.333 2.187 3.556.75 1.383 1.25 2.95 1.835 4.403.301.749.683 1.585.846 2.37.319 1.529.534 3.209 1.158 4.657.328.762.899 1.447 1.382 2.117 1.294 1.791 2.61 3.503 4.262 4.995.695.628 1.572 1.131 2.37 1.609 2.577 1.539 5.383 2.474 8.298 3.203 2.207.552 4.426 1.233 6.689 1.453.546.053 1.074-.062 1.608-.084.85-.036 1.686.167 2.54.084 1.538-.15 3.066-.568 4.572-.903 1.833-.407 3.727-.71 5.504-1.326.75-.26 1.481-.719 2.201-1.059.559-.263 1.143-.415 1.693-.705a23.7 23.7 0 0 0 4.657-3.232c.478-.426.766-1.093 1.185-1.58a19.7 19.7 0 0 0 2.173-3.048c.28-.49.39-1.02.621-1.524q.521-1.132.988-2.286c.297-.736.4-1.537.65-2.286.731-2.196 1.565-4.425 2.525-6.52.58-1.264 1.526-2.33 2.173-3.555.64-1.211 1.14-2.522 1.792-3.726.331-.61.736-1.17 1.073-1.778.45-.81.82-1.68 1.326-2.455.816-1.25 1.206-2.454 1.567-3.895.162-.648.366-1.565.098-2.201 1.135-.418 1.993-1.42 2.554-2.455 1.06-1.957 1.637-4.034 2.174-6.181.226-.906.6-1.862.691-2.794.042-.436.061-1.011-.028-1.44-.061-.293-.231-.627-.198-.93.048-.43.269-.838.31-1.27.04-.398-.13-.808-.225-1.186-.27-1.079-.643-2.504-1.806-2.963.355-1.23.402-2.8.169-4.064 1.26-.232 2.275-1.294 2.992-2.286.407-.565.852-1.22 1.128-1.863.171-.397.207-.854.31-1.27.51-2.036.43-4.183.227-6.265-.091-.934-.424-1.856-.424-2.794 1.012 0 1.898-.276 2.879-.48 2.69-.56 5.356-1.258 7.874-2.343.511-.22.945-.578 1.44-.818 1.02-.496 2.023-1.026 3.047-1.51 1.047-.494 2.183-.795 3.133-1.482.805-.581 1.453-1.258 2.201-1.89 4.223-3.574 7.63-8.148 10.09-13.067.208-.416.318-.856.508-1.27.15-.327.407-.6.55-.932.895-2.077 1.484-4.258 2.089-6.434.468-1.685.903-3.227.903-4.996 0-.5.048-1.026 0-1.524-.042-.428-.218-.851-.31-1.27-.083-.37-.125-.756-.297-1.1-.49-.979-1.328-1.805-2.272-2.343-.429-.244-.966-.29-1.44-.395-.418-.093-.841-.269-1.27-.31-.675-.066-1.367.02-2.031.084-.336.033-.68-.032-1.016 0-.465.046-.88.254-1.355.254v-.084c.805 0 1.438-.48 2.201-.65.532-.118 1.008-.329 1.524-.465.527-.139 1.117-.177 1.609-.423 2.627-1.314 3.157-4.374 3.796-6.929.118-.47.137-.877.183-1.355.051-.52.222-.988.17-1.524-.03-.313-.14-.618-.17-.931-.087-.895.087-1.815 0-2.71-.039-.4-.215-.783-.254-1.185-.152-1.567-.214-3.198-.536-4.741a29 29 0 0 0-.875-3.217c-.137-.41-.194-.853-.31-1.27-.433-1.56-1.004-3.156-1.609-4.657-.784-1.947-2.076-3.9-3.951-4.967-.338-.193-.728-.228-1.1-.31-.42-.094-.842-.27-1.27-.311-.485-.047-.978.153-1.44.268-.423.106-.874.141-1.27.339-1.832.916-2.688 2.855-2.879 4.812-.043.447.044.907 0 1.354-.025.26-.144.502-.169.762-.048.498 0 1.024 0 1.524 0 .64.062 1.312 0 1.948-.052.54-.202 1.072-.254 1.608-.068.703-.016 1.415-.085 2.117-.025.26-.144.502-.169.762-.027.28.027.567 0 .847-.069.708-.349 1.423-.522 2.116-.09.358-.118.966-.353 1.256-.17.21-.512.298-.734.438 0-.627-.194-1.168-.254-1.778-.111-1.146-.414-2.259-.649-3.387-.416-1.997-.694-4.04-1.242-6.011-.528-1.903-1.322-3.733-2.159-5.504-.443-.938-.782-1.943-1.397-2.794-.663-.918-1.433-1.878-2.511-2.342-.447-.192-.971-.236-1.44-.353-.266-.066-.569-.199-.846-.183-.364.02-.75.18-1.101.268-.423.105-.874.14-1.27.338-.962.481-1.773 1.327-2.272 2.272-.274.52-.367 1.045-.508 1.609-.392 1.569-.424 3.132-.268 4.741.125 1.286-.125 2.609 0 3.895.06.622.25 1.239.31 1.863.025.252-.081.5-.056.762.104 1.067.021 2.214-.085 3.302-.025.26-.144.502-.169.762-.052.53.052 1.077 0 1.608-.05.513-.204 1.015-.254 1.524-.035.364.035.738 0 1.101-.088.906-.294 1.818-.48 2.71-.075.361.02.738-.056 1.1-.283 1.359-.58 2.717-.917 4.064-.093.373-.203.803-.24 1.185-.02.21.022.41-.113.593-.456.62-1.632.552-2.258.931 0-2.07-.055-4.132-.254-6.18-.035-.364.035-.738 0-1.101-.133-1.37-.471-2.714-.734-4.064-.283-1.458-.458-2.898-.931-4.318-.369-1.106-.835-2.136-1.27-3.217-.697-1.732-1.185-3.544-1.92-5.25-.257-.599-.58-1.168-.818-1.778-.71-1.828-1.77-3.707-2.991-5.249-.416-.526-.963-.942-1.411-1.44-.284-.314-.478-.7-.762-1.015a7.8 7.8 0 0 0-1.863-1.496c-.338-.193-.728-.228-1.1-.31-.42-.094-.842-.27-1.27-.311-.434-.042-.858.123-1.27.226-1.048.262-1.968.528-2.766 1.326-.974.974-1.506 2.515-1.637 3.867-.128 1.315.387 2.648.733 3.894.45 1.621.675 3.272 1.016 4.911.157.749.155 1.54.31 2.286.14.667.33 1.355.396 2.032.08.815.005 1.641.085 2.455.08.83.31 1.64.48 2.456.148.71.127 1.479.197 2.201.053.54.202 1.072.254 1.609.044.454-.127.832-.17 1.27-.065.68-.188 1.356-.253 2.032-.16 1.65.16 3.345 0 4.995-.037.375-.218.726-.254 1.1-.05.504.035 1.125-.113 1.61-.098.32-.367.562-.536.846-.264.442-.505.903-.762 1.355-.165.288-.23.63-.367.931a50 50 0 0 1-1.454 2.963c-.402.743-.957 1.301-1.481 1.948-.394.484-.956.858-1.468 1.213-.123.086-.351.315-.508.31-.406-.01-.849-.76-1.1-1.015-.945-.958-2.123-1.708-2.907-2.794-.134-.185-.688-.67-.65-.875.026-.134.176-.274.24-.395.173-.328.355-.671.494-1.016.816-2.026 1.717-4.032 2.822-5.927.29-.497.759-.907.988-1.44.307-.712.32-1.55.565-2.285.64-1.92 1.223-3.856 1.637-5.842.257-1.235.374-2.492.649-3.726.093-.418.268-.842.31-1.27.06-.619.025-1.244.085-1.862.07-.714.24-1.38.17-2.117-.037-.369-.18-.742-.269-1.1-.118-.473-.159-.99-.353-1.44-.392-.911-1.241-1.69-2.088-2.173-.479-.273-1.084-.306-1.609-.438-.462-.115-.955-.315-1.44-.268-1.34.13-2.69.651-3.725 1.51-.587.489-.977 1.118-1.467 1.694-.562.659-1.12 1.372-1.552 2.13-.248.436-.416.92-.664 1.355-.439.771-.93 1.516-1.368 2.286-.36.633-.617 1.325-.988 1.947-.772 1.292-1.588 2.53-2.37 3.81-.366.599-.982 1.279-1.158 1.948z" id="stag_svg" display="inline" fill="#fff" stroke="#000" stroke-width="2"/><path d="M87.63 29.803h-.17c-.074-.353-.31-.625-.493-.932-.437-.732-.926-1.425-1.425-2.116-.899-1.244-1.614-2.658-2.385-3.98-1.136-1.947-2.07-4.029-3.43-5.842-.937-1.25-1.853-2.795-3.358-3.443-2.029-.873-4.769-.79-6.406.847-1.012 1.012-1.585 2.629-1.722 4.036-.043.442.122.84.17 1.27.148 1.33.463 2.647.592 3.979.078.801.335 1.571.424 2.37.483 4.351 2.075 8.704 4.148 12.531a81 81 0 0 1 2.018 3.98c.238.503.501 1.367.946 1.693l-3.204 3.274-1.453 1.806c-.758-.599-1.683-1.09-2.37-1.778-1.469-1.468-2.096-3.653-3.077-5.419-.404-.727-1.026-1.502-1.298-2.286-.127-.365-.07-.73-.141-1.1-.07-.36-.19-.737-.226-1.101-.038-.391.038-.794 0-1.185-.041-.425-.127-.835-.085-1.27.06-.611.146-1.24.085-1.863l-.339-3.387c-.044-.451-.13-.892-.084-1.354.347-3.572 1.008-7.103 1.354-10.668.094-.959.453-1.938.65-2.879.175-.84.331-1.695.507-2.54.11-.528.132-1.093.31-1.609.348-.998.716-2.065.82-3.132.057-.593-.085-1.128-.226-1.694-.248-.988-.465-1.698-1.073-2.54-.437-.605-1.159-1.228-1.834-1.566-.396-.198-.926-.23-1.355-.325-.419-.093-.831-.268-1.27-.225-.316.03-.623.157-.931.225-.476.106-1.104.139-1.524.396-1.016.62-1.728 1.448-2.484 2.342-.409.483-.935.867-1.34 1.355-.37.446-.704.96-1.03 1.439-.273.4-.453.85-.692 1.27-.703 1.235-1.398 2.502-1.961 3.81-.536 1.243-.938 2.547-1.412 3.81-.454 1.211-1.03 2.413-1.439 3.64-.118.355-.351.655-.451 1.017a59 59 0 0 0-.932 3.725c-.145.695-.166 1.422-.31 2.117-.178.855-.395 1.753-.48 2.624-.043.448.043.908 0 1.355-.033.34-.136.676-.17 1.016-.095.982.011 1.982-.084 2.963-.076.779-.222 1.689 0 2.456-.451-.143-.896-.323-1.355-.438-.276-.069-.71-.12-.917-.338-.143-.153-.087-.389-.127-.579-.1-.481-.232-.958-.339-1.44-.403-1.816-.807-3.652-.987-5.503-.048-.49-.291-.95-.339-1.439-.054-.56.054-1.134 0-1.693-.082-.849-.34-1.688-.423-2.54-.082-.843-.003-1.698-.085-2.54-.08-.821-.252-1.61-.17-2.456.094-.956.246-1.918.34-2.878.097-1.007-.099-2.042 0-3.048.027-.286.14-.562.169-.847.134-1.38-.107-2.74-.438-4.064-.118-.475-.174-.981-.353-1.44-.454-1.168-1.419-2.343-2.596-2.85-.347-.15-.737-.177-1.1-.268-.352-.088-.738-.248-1.101-.268-.329-.018-.701.147-1.016.226-1.048.262-1.968.528-2.766 1.326-.401.401-.676.944-.988 1.411a15.2 15.2 0 0 0-1.778 3.641c-.298.893-.777 1.752-1.129 2.625-.367.912-.609 1.843-.846 2.794-.176.701-.249 1.412-.396 2.116-.377 1.814-.836 3.607-1.213 5.419-.19.914-.198 1.876-.367 2.794-.955-.201-.946-.955-1.129-1.778-.101-.456-.271-.897-.367-1.355-.126-.608-.096-1.242-.226-1.862-.065-.315-.025-.614-.056-.932l-.254-2.624c-.103-1.063.103-2.155 0-3.218-.047-.484-.207-.957-.254-1.439-.036-.371.121-.723.085-1.1-.072-.742-.29-1.474-.452-2.202-.291-1.31-1.536-2.66-2.766-3.19-.347-.149-.737-.176-1.1-.267-.365-.091-.807-.29-1.186-.268-.422.023-.858.219-1.27.31-4.119.915-5.215 5.503-6.448 8.918-.645 1.785-1.326 3.772-1.51 5.673-.037.375-.218.726-.254 1.1-.072.738-.183 1.47-.254 2.202-.033.335.032.68 0 1.016-.045.457-.21.9-.254 1.355-.098 1.01.013 2.037-.085 3.048-.043.438-.214.815-.17 1.27.098 1 .348 1.986.565 2.963.41 1.84.873 4.136 2.314 5.49 1.218 1.142 2.834 1.386 4.403 1.735.658.146 1.283.597 1.947.649v.085c-1.406-.111-2.895-.393-4.318-.254-.428.041-.851.217-1.27.31-.52.116-1.052.211-1.524.48-.847.482-1.696 1.262-2.088 2.173-.497 1.154-.536 2.492-.536 3.725 0 .722-.07 1.483 0 2.202.107 1.105.554 2.256.903 3.302.228.683.37 1.42.564 2.116.227.816.609 1.571.875 2.371a20 20 0 0 0 1.242 2.963c.6 1.139 1.059 2.357 1.693 3.472 1.421 2.495 3.31 4.74 5.221 6.858.284.314.478.7.762 1.016a31 31 0 0 0 2.202 2.201c.315.285.701.478 1.016.762.4.362.745.755 1.185 1.072 1.936 1.398 4.185 2.12 6.265 3.246 1.205.653 2.452 1.208 3.726 1.722.583.235 1.17.536 1.778.705.923.257 1.864.46 2.794.692 1.512.378 3.004.776 4.572.776-.08 1.017-.41 2.027-.508 3.048-.308 3.166-.168 6.49 1.75 9.144.688.953 1.79 2.033 2.991 2.286-.344.817-.18 1.931-.085 2.794.03.267.244.84.127 1.086-.076.16-.314.258-.437.381-.314.314-.627.772-.847 1.157-.344.605-.451 1.523-.592 2.202-.14.67.26 1.224.225 1.862-.044.803-.333 1.638-.254 2.456.135 1.383.617 2.813.988 4.148.732 2.634 1.549 5.636 4.092 7.084.357.203.798.255 1.186.367-.225.502-.17 1.061-.17 1.609 0 1.942.8 3.62 1.609 5.334.552 1.169 1.248 2.252 1.863 3.386.55 1.015.903 2.118 1.453 3.133.664 1.225 1.525 2.333 2.187 3.556.75 1.383 1.25 2.95 1.835 4.403.301.749.683 1.585.846 2.37.319 1.529.534 3.209 1.158 4.657.328.762.899 1.447 1.382 2.117 1.294 1.791 2.61 3.503 4.262 4.995.695.628 1.572 1.131 2.37 1.609 2.577 1.539 5.383 2.474 8.298 3.203 2.207.552 4.426 1.233 6.689 1.453.546.053 1.074-.062 1.608-.084.85-.036 1.686.167 2.54.084 1.538-.15 3.066-.568 4.572-.903 1.833-.407 3.727-.71 5.504-1.326.75-.26 1.481-.719 2.201-1.059.559-.263 1.143-.415 1.693-.705a23.7 23.7 0 0 0 4.657-3.232c.478-.426.766-1.093 1.185-1.58a19.7 19.7 0 0 0 2.173-3.048c.28-.49.39-1.02.621-1.524q.521-1.132.988-2.286c.297-.736.4-1.537.65-2.286.731-2.196 1.565-4.425 2.525-6.52.58-1.264 1.526-2.33 2.173-3.555.64-1.211 1.14-2.522 1.792-3.726.331-.61.736-1.17 1.073-1.778.45-.81.82-1.68 1.326-2.455.816-1.25 1.206-2.454 1.567-3.895.162-.648.366-1.565.098-2.201 1.135-.418 1.993-1.42 2.554-2.455 1.06-1.957 1.637-4.034 2.174-6.181.226-.906.6-1.862.691-2.794.042-.436.061-1.011-.028-1.44-.061-.293-.231-.627-.198-.93.048-.43.269-.838.31-1.27.04-.398-.13-.808-.225-1.186-.27-1.079-.643-2.504-1.806-2.963.355-1.23.402-2.8.169-4.064 1.26-.232 2.275-1.294 2.992-2.286.407-.565.852-1.22 1.128-1.863.171-.397.207-.854.31-1.27.51-2.036.43-4.183.227-6.265-.091-.934-.424-1.856-.424-2.794 1.012 0 1.898-.276 2.879-.48 2.69-.56 5.356-1.258 7.874-2.343.511-.22.945-.578 1.44-.818 1.02-.496 2.023-1.026 3.047-1.51 1.047-.494 2.183-.795 3.133-1.482.805-.581 1.453-1.258 2.201-1.89 4.223-3.574 7.63-8.148 10.09-13.067.208-.416.318-.856.508-1.27.15-.327.407-.6.55-.932.895-2.077 1.484-4.258 2.089-6.434.468-1.685.903-3.227.903-4.996 0-.5.048-1.026 0-1.524-.042-.428-.218-.851-.31-1.27-.083-.37-.125-.756-.297-1.1-.49-.979-1.328-1.805-2.272-2.343-.429-.244-.966-.29-1.44-.395-.418-.093-.841-.269-1.27-.31-.675-.066-1.367.02-2.031.084-.336.033-.68-.032-1.016 0-.465.046-.88.254-1.355.254v-.084c.805 0 1.438-.48 2.201-.65.532-.118 1.008-.329 1.524-.465.527-.139 1.117-.177 1.609-.423 2.627-1.314 3.157-4.374 3.796-6.929.118-.47.137-.877.183-1.355.051-.52.222-.988.17-1.524-.03-.313-.14-.618-.17-.931-.087-.895.087-1.815 0-2.71-.039-.4-.215-.783-.254-1.185-.152-1.567-.214-3.198-.536-4.741a29 29 0 0 0-.875-3.217c-.137-.41-.194-.853-.31-1.27-.433-1.56-1.004-3.156-1.609-4.657-.784-1.947-2.076-3.9-3.951-4.967-.338-.193-.728-.228-1.1-.31-.42-.094-.842-.27-1.27-.311-.485-.047-.978.153-1.44.268-.423.106-.874.141-1.27.339-1.832.916-2.688 2.855-2.879 4.812-.043.447.044.907 0 1.354-.025.26-.144.502-.169.762-.048.498 0 1.024 0 1.524 0 .64.062 1.312 0 1.948-.052.54-.202 1.072-.254 1.608-.068.703-.016 1.415-.085 2.117-.025.26-.144.502-.169.762-.027.28.027.567 0 .847-.069.708-.349 1.423-.522 2.116-.09.358-.118.966-.353 1.256-.17.21-.512.298-.734.438 0-.627-.194-1.168-.254-1.778-.111-1.146-.414-2.259-.649-3.387-.416-1.997-.694-4.04-1.242-6.011-.528-1.903-1.322-3.733-2.159-5.504-.443-.938-.782-1.943-1.397-2.794-.663-.918-1.433-1.878-2.511-2.342-.447-.192-.971-.236-1.44-.353-.266-.066-.569-.199-.846-.183-.364.02-.75.18-1.101.268-.423.105-.874.14-1.27.338-.962.481-1.773 1.327-2.272 2.272-.274.52-.367 1.045-.508 1.609-.392 1.569-.424 3.132-.268 4.741.125 1.286-.125 2.609 0 3.895.06.622.25 1.239.31 1.863.025.252-.081.5-.056.762.104 1.067.021 2.214-.085 3.302-.025.26-.144.502-.169.762-.052.53.052 1.077 0 1.608-.05.513-.204 1.015-.254 1.524-.035.364.035.738 0 1.101-.088.906-.294 1.818-.48 2.71-.075.361.02.738-.056 1.1-.283 1.359-.58 2.717-.917 4.064-.093.373-.203.803-.24 1.185-.02.21.022.41-.113.593-.456.62-1.632.552-2.258.931 0-2.07-.055-4.132-.254-6.18-.035-.364.035-.738 0-1.101-.133-1.37-.471-2.714-.734-4.064-.283-1.458-.458-2.898-.931-4.318-.369-1.106-.835-2.136-1.27-3.217-.697-1.732-1.185-3.544-1.92-5.25-.257-.599-.58-1.168-.818-1.778-.71-1.828-1.77-3.707-2.991-5.249-.416-.526-.963-.942-1.411-1.44-.284-.314-.478-.7-.762-1.015a7.8 7.8 0 0 0-1.863-1.496c-.338-.193-.728-.228-1.1-.31-.42-.094-.842-.27-1.27-.311-.434-.042-.858.123-1.27.226-1.048.262-1.968.528-2.766 1.326-.974.974-1.506 2.515-1.637 3.867-.128 1.315.387 2.648.733 3.894.45 1.621.675 3.272 1.016 4.911.157.749.155 1.54.31 2.286.14.667.33 1.355.396 2.032.08.815.005 1.641.085 2.455.08.83.31 1.64.48 2.456.148.71.127 1.479.197 2.201.053.54.202 1.072.254 1.609.044.454-.127.832-.17 1.27-.065.68-.188 1.356-.253 2.032-.16 1.65.16 3.345 0 4.995-.037.375-.218.726-.254 1.1-.05.504.035 1.125-.113 1.61-.098.32-.367.562-.536.846-.264.442-.505.903-.762 1.355-.165.288-.23.63-.367.931a50 50 0 0 1-1.454 2.963c-.402.743-.957 1.301-1.481 1.948-.394.484-.956.858-1.468 1.213-.123.086-.351.315-.508.31-.406-.01-.849-.76-1.1-1.015-.945-.958-2.123-1.708-2.907-2.794-.134-.185-.688-.67-.65-.875.026-.134.176-.274.24-.395.173-.328.355-.671.494-1.016.816-2.026 1.717-4.032 2.822-5.927.29-.497.759-.907.988-1.44.307-.712.32-1.55.565-2.285.64-1.92 1.223-3.856 1.637-5.842.257-1.235.374-2.492.649-3.726.093-.418.268-.842.31-1.27.06-.619.025-1.244.085-1.862.07-.714.24-1.38.17-2.117-.037-.369-.18-.742-.269-1.1-.118-.473-.159-.99-.353-1.44-.392-.911-1.241-1.69-2.088-2.173-.479-.273-1.084-.306-1.609-.438-.462-.115-.955-.315-1.44-.268-1.34.13-2.69.651-3.725 1.51-.587.489-.977 1.118-1.467 1.694-.562.659-1.12 1.372-1.552 2.13-.248.436-.416.92-.664 1.355-.439.771-.93 1.516-1.368 2.286-.36.633-.617 1.325-.988 1.947-.772 1.292-1.588 2.53-2.37 3.81-.366.599-.982 1.279-1.158 1.948m34.629 15.663c2.78-1.39 5.604-3.024 8.636-3.866 1.102-.307 2.14-.742 3.217-1.101.367-.122.835-.188 1.073-.536.314-.462.23-1.25.282-1.778.1-1.027.286-2.132.536-3.133.5-1.997.958-4.05 1.157-6.096.055-.566.283-1.124.339-1.693.046-.476-.046-.964 0-1.44.065-.675.272-1.35.338-2.032.041-.419-.04-.85 0-1.27.108-1.105.224-2.192.254-3.302.014-.505.135-1.01.085-1.524-.08-.82-.259-1.634-.339-2.455-.111-1.146.112-2.325 0-3.471-.107-1.109-.26-2.107-.028-3.218.061-.292.04-.5.198-.762.66.197 1.053 1.444 1.298 2.032.865 2.076 1.938 4.125 2.37 6.35.633 3.254 1.43 6.448 1.75 9.737.061.626.279 1.24.34 1.863.082.856 0 1.763 0 2.624s.082 1.769 0 2.625c-.024.235-.147.442-.17.677-.05.504.049 1.021 0 1.524-.083.853-.306 1.705-.48 2.54-.19.912-.276 1.865-.367 2.794-.025.26-.144.502-.17.762-.092.95-.161 2.146-.86 2.879-.526.552-1.493.663-2.187.875-1.22.372-2.45.705-3.64 1.185-1.652.665-3.216 1.568-4.827 2.329-1.286.607-2.61 1.114-3.894 1.721-1.328.627-2.596 1.403-3.895 2.089-1.32.696-2.691 1.294-3.98 2.046-2.205 1.286-4.357 2.638-6.603 3.824-.944.498-1.8 1.18-2.71 1.735-.848.519-1.75.936-2.624 1.397-1.328.7-2.602 1.528-3.895 2.3-.404.242-1.112.85-1.609.706-.445-.13-.849-.52-1.185-.818a39 39 0 0 0-1.693-1.411c-1.348-1.067-2.537-2.266-3.81-3.415-.461-.416-.98-.77-1.44-1.186-1.003-.905-1.923-1.923-2.879-2.878-.512-.513-1.075-1.016-1.495-1.609-.304-.429-.499-.935-.819-1.355-.192-.25-.62-.776-.988-.72-.281.044-.647.444-.846.636-.488.467-.724 1.078-1.13 1.608-.235.31-.543.572-.818.847-1.154 1.154-2.259 2.377-3.471 3.471-.665.6-1.41 1.11-2.088 1.694-1.13.973-2.045 2.036-3.33 2.822-.778.475-1.519 1.005-2.287 1.496-.245.156-.716.495-1.016.465-.448-.043-.981-.463-1.354-.691-1-.611-2.012-1.245-3.048-1.792-1.018-.537-2.06-1.047-3.048-1.651-.805-.492-1.561-1.069-2.371-1.552-1.233-.737-2.569-1.347-3.81-2.089-1.044-.623-2.056-1.337-3.133-1.905-1.652-.872-3.346-1.698-4.995-2.568-.992-.524-1.933-1.137-2.963-1.595-2.552-1.134-5.03-2.359-7.536-3.542-1.346-.635-2.795-1.108-4.233-1.467-.85-.212-2.016-.412-2.625-1.087-.67-.744-.754-2.015-.846-2.963-.144-1.474-.365-3.045-.706-4.487-.21-.891-.138-1.72-.226-2.625-.027-.285-.141-.561-.169-.847-.07-.718 0-1.479 0-2.201 0-1.083-.105-2.225 0-3.302.355-3.654 1.076-7.267 1.92-10.837.151-.644.233-1.303.394-1.948.328-1.312 1.05-2.561 1.552-3.81.449-1.113.87-2.427 1.722-3.302.364.236.286.627.367 1.016.185.89.122 1.65-.014 2.54-.182 1.188.102 2.445-.014 3.641-.156 1.597-.497 3.196-.339 4.826.099 1.015.24 2.033.339 3.048.038.391-.038.794 0 1.185.069.71.27 1.408.338 2.117.041.42-.04.85 0 1.27.071.728.256 1.484.395 2.201.385 1.979.72 3.958 1.186 5.927.26 1.102.192 2.294.465 3.387.089.353.037.792.269 1.1.215.288.745.376 1.072.48.882.282 1.731.655 2.625.903a28 28 0 0 1 5.503 2.187c.814.43 1.623.864 2.455 1.256.305.144.683.428 1.016.48.308.048.336-.258.339-.48.006-.469-.15-.894-.17-1.354-.08-1.933-.677-3.805-.677-5.758 0-.816-.248-1.643-.169-2.455.03-.313.139-.618.17-.931.084-.867-.085-1.758 0-2.625.025-.26.143-.502.169-.762.038-.391-.038-.794 0-1.185.118-1.214.4-2.448.649-3.641.155-.747.18-1.548.395-2.286.383-1.313.974-2.541 1.467-3.81.784-2.015 1.517-4.03 2.343-6.011.912-2.19 2.04-4.198 3.697-5.927.377-.393.634-.893 1.016-1.27.152-.15.363-.343.593-.212.237.136.172.491.169.72-.01.76-.44 1.471-.593 2.201-.397 1.907-.683 3.87-1.129 5.758-.273 1.156-.518 2.294-.649 3.471-.075.676-.103 1.355-.169 2.032-.058.593-.28 1.181-.339 1.778-.129 1.33-.378 2.647-.508 3.98-.022.234-.146.442-.169.677a16.8 16.8 0 0 0 0 3.048c.083.855.339 1.67.339 2.54 0 1.514.056 3.05.056 4.543 0 .555.23 1.091.282 1.637.073.747.08 1.47.283 2.202.313 1.128 1.028 2.028 1.566 3.048.481.912.893 1.871 1.355 2.794.696 1.394 1.494 2.805 2.554 3.979 1.074 1.19 2.583 2.221 3.979 2.977.675.366 1.472 1.203 2.258 1.285.528.054 1.117-.547 1.552-.777 1.886-.995 3.009-2.684 4.487-4.162 1.134-1.134 2.195-2.31 3.387-3.387.503-.454 1.288-1.014 1.496-1.693.167-.546-.282-1.087-.536-1.524-.648-1.11-1.303-2.24-1.877-3.387-2.16-4.318-4.606-8.543-5.546-13.377-.43-2.214-.855-4.458-1.072-6.689-.05-.515-.55-1.637-.127-2.088.37-.396.931.498 1.114.733.868 1.116 1.643 2.226 2.3 3.472a124 124 0 0 0 3.853 6.773c.332.543.802.977 1.129 1.524.894 1.498 1.708 3.028 2.68 4.487.65.975 1.334 1.876 2.061 2.794.182.23.59.97.931.946.322-.022.714-.714.875-.946.683-.983 1.413-1.895 1.962-2.963.303-.59.717-1.122 1.058-1.693.788-1.319 1.617-2.611 2.455-3.895 1.324-2.027 2.523-4.205 3.655-6.35.68-1.29 1.348-2.493 2.272-3.64.272-.338.747-1.178 1.298-.988.246.084.254.346.254.564 0 .51-.162 1.005-.169 1.524-.012.862-.304 1.779-.48 2.625-.182.875-.28 1.818-.367 2.709-.05.516-.281 1.012-.338 1.524-.094.839-.422 1.638-.65 2.455-.681 2.454-1.888 4.72-3.062 6.943-.692 1.312-1.17 2.718-1.806 4.064-.256.542-.665 1.008-.973 1.524-.244.407-.415.852-.635 1.27-.212.4-.683.87-.65 1.355.047.674.836 1.298 1.242 1.778 1.25 1.475 2.628 2.782 3.994 4.148 1.343 1.344 2.615 2.78 4.318 3.655.436.224.999.78 1.524.677.342-.066.638-.35.931-.522.697-.406 1.386-.8 2.032-1.284 1.012-.758 2.182-1.508 3.02-2.455 1.303-1.472 2.18-3.235 3.005-4.981.33-.7.64-1.448 1.03-2.117.543-.93 1.175-1.74 1.468-2.794.198-.713.211-1.47.282-2.201.047-.484.207-.957.254-1.44.135-1.38 0-2.844 0-4.233 0-1.792.6-3.516.424-5.334-.248-2.551-.825-5.069-1.073-7.62-.026-.275.038-.561.014-.847-.106-1.272-.363-2.557-.606-3.81-.385-1.98-.652-3.961-1.143-5.926-.198-.79-.538-1.57-.65-2.371-.033-.239.008-.73.325-.748.218-.013.37.182.508.325.404.416.711.923 1.1 1.354.342.379.763.695 1.073 1.101 1.209 1.582 1.914 3.476 2.752 5.25.877 1.856 1.47 3.84 2.215 5.757.48 1.235 1.093 2.418 1.383 3.725.346 1.555.637 3.163.79 4.741.023.235.147.443.17.678.035.363-.036.737 0 1.1.027.286.141.562.169.847.084.867-.084 1.758 0 2.625.03.313.139.618.17.931.086.887-.085 1.756-.17 2.625-.046.475.046.964 0 1.439-.025.26-.144.502-.17.762-.06.616-.079 1.255-.197 1.863-.13.67-.235 1.353-.31 2.032-.068.61-.215 1.111 0 1.693M19.135 9.736c.249.593.022 1.391.084 2.033.026.26.144.501.17.762.067.69 0 1.422 0 2.116 0 2.413.36 4.81.592 7.197.074.757.362 1.473.565 2.201.245.882.415 1.753.705 2.625.183.549.351 1.316.847 1.665 1.394.982 3.328 1.172 4.572 2.399.267.263.692.567.818.931.171.493.029 1.258.029 1.778 0 .722-.07 1.483 0 2.202.033.34.155.673.169 1.016.013.319.267 1.252-.099 1.453-.214.118-.63-.158-.832-.24-.736-.296-1.403-.702-2.117-1.03-1.451-.665-3.063-.979-4.572-1.482-.715-.238-1.38-.616-2.117-.79-.196-.046-.396-.01-.592-.056-.492-.116-.948-.336-1.44-.452-.22-.052-.48.03-.663-.127-.323-.278-.442-.948-.578-1.34-.44-1.269-.751-2.645-.621-3.98.1-1.037-.017-2.086.084-3.132.042-.426.201-.843.254-1.27.194-1.553.175-3.126.537-4.657.379-1.606.886-3.169 1.41-4.741.212-.635.493-1.241.734-1.863.346-.89.52-1.752 1.214-2.455.26-.264.513-.62.847-.762m128.524 28.448c-.313-.517-.085-1.046-.085-1.609 0-.631.231-1.223.17-1.863-.07-.706-.085-1.4-.085-2.116 0-.368-.011-.866.197-1.186.884-1.353 2.764-1.847 4.12-2.526.588-.293 1.284-.446 1.581-1.114.48-1.08.722-2.177.988-3.302.169-.715.47-1.397.62-2.117.093-.445.07-.905.114-1.355.153-1.58.354-3.16.508-4.741.111-1.146-.112-2.325 0-3.471.027-.286.141-.562.169-.847.066-.679-.145-1.403.17-2.032.484.102.699.502 1.015.847.521.568.72 1.312.96 2.032.248.744.54 1.475.832 2.201.36.895.602 1.863.861 2.794.33 1.189.7 2.413.819 3.64.082.847.087 1.695.169 2.54.055.572.283 1.126.339 1.694.084.867-.085 1.758 0 2.625a9.5 9.5 0 0 1-.508 4.148c-.154.426-.255.995-.537 1.355-.246.315-.655.248-1.002.339-.425.111-.822.305-1.255.395-.352.073-.667.08-1.016.197-.657.22-1.292.515-1.948.734-1.439.48-2.9.84-4.318 1.411-.968.39-1.838 1.108-2.878 1.327M18.288 40.217v.084h-.339zm-3.98 5.023c.446-.03.913.104 1.355.141 1.222.104 2.43.221 3.641.339 4.274.416 8.374 1.662 12.446 3.02 1.434.478 2.89.85 4.318 1.326 1.659.553 3.256 1.333 4.826 2.075 1.326.626 2.728 1.109 4.064 1.721 1.085.498 2.127 1.082 3.217 1.566 1.57.698 3.105 1.483 4.657 2.216 1.374.649 2.81 1.184 4.149 1.89 1.093.578 2.132 1.262 3.217 1.85.54.292 1.159.4 1.693.705.654.372 1.24.883 1.863 1.298.614.41 1.3.708 1.947 1.058 1.067.578 2.095 1.243 3.133 1.877 1.59.972 3.064 2.157 4.572 3.246.854.616 1.772 1.134 2.625 1.75 1.032.745 1.936 1.576 2.878 2.427.316.284.702.478 1.016.762.444.4.787.913 1.186 1.354.6.665 1.277 1.243 1.834 1.948.374.471.627 1.23 1.129 1.58.312.217.674.168 1.016.226.763.129 1.51.33 2.286.395.842.071 1.815-.167 2.625-.367.339-.083.688-.006 1.016-.183.56-.304.832-1.085 1.213-1.567.902-1.139 1.936-2.246 2.964-3.273.423-.423.954-.77 1.41-1.158.602-.508 1.153-1.065 1.779-1.552.862-.67 1.822-1.194 2.709-1.834l4.149-2.992c1.49-1.076 3.123-2.039 4.741-2.893.945-.498 1.955-.845 2.879-1.397 1.707-1.02 3.324-2.163 5.08-3.09 3.26-1.721 6.645-3.19 9.99-4.77 5.455-2.575 10.995-4.991 16.849-6.618.886-.246 1.748-.607 2.625-.874 1.993-.61 4.181-1.18 6.265-1.383 1.127-.11 2.229-.439 3.358-.48.472-.017.94-.166 1.412-.184.401-.014.826.027 1.241-.014.515-.05 1.089-.243 1.609-.113.518.13.508.509.508.96 0 .753.04 1.474-.141 2.201-.79 3.158-1.782 6.244-3.232 9.144-.401.804-.71 1.661-1.128 2.456-1.249 2.364-3.07 4.408-4.784 6.434-1.091 1.29-2.25 2.344-3.5 3.472-.261.236-.48.519-.762.733-1.276.976-2.882 1.481-4.318 2.16-1.99.94-3.9 2.047-6.011 2.751-1.277.426-2.584.707-3.895 1.016-1.105.261-2.177.213-3.302.198-.387-.006-1.009.156-1.34-.113-.255-.206-.321-.619-.452-.903-.354-.774-.662-1.553-1.1-2.286-.365-.611-.842-1.16-1.186-1.778-.138-.248-.313-.568-.127-.833.287-.406.762-.688 1.157-.974 1.052-.759 2.173-1.264 3.472-1.044.626.106 1.23.419 1.862.48.315.03.632-.08.932-.155 2.09-.523 3.797-1.72 5.672-2.71.94-.496 1.938-.886 2.879-1.382.712-.376 1.363-.867 2.032-1.313 1.272-.848 2.878-1.863 3.725-3.16.358-.548.841-1.844-.338-1.779-.34.02-.688.202-1.016.283-.801.197-1.577.547-2.371.79a51 51 0 0 0-4.91 1.792c-.564.238-1.204.242-1.779.466-1.049.408-2.06.856-3.132 1.213-1.342.447-2.747.73-4.064 1.242-2.25.875-4.388 1.965-6.52 3.09-1.168.617-2.467 1.134-3.556 1.905-.882.625-.32 1.435-.62 2.258-.112.304-.47.491-.734.65-1.46.871-3.075 1.453-4.572 2.243-1.219.643-2.533 1.3-3.641 2.13-1.089.817-2.116 1.778-3.133 2.682-1.236 1.099-2.606 2.045-3.612 3.386-.763 1.017-1.438 2.129-2.089 3.218-.63 1.056-1.358 2.044-1.933 3.132-.745 1.412-1.662 2.708-2.342 4.149-.298.63-.5 1.288-.72 1.947-.2.599-.557 1.115-.79 1.694-.523 1.297-.856 2.653-1.298 3.979-.54 1.618-1.061 3.149-1.34 4.826-.08.479-.125 1.393-.777 1.44-.385.026-.71-.293-1.016-.48-.779-.476-1.625-1.003-2.455-1.383-.967-.444-2.198-.623-3.218-.226-.544.212-1.012.534-1.524.804-.706.373-1.382.736-2.032 1.214-.21.154-.563.367-.832.197-.178-.112-.184-.367-.24-.55-.185-.605-.182-1.246-.31-1.863-.306-1.466-.827-2.816-1.299-4.233-.212-.637-.351-1.309-.564-1.947-.343-1.027-.802-1.976-1.214-2.964-.574-1.377-1.04-2.747-1.735-4.064-.796-1.506-1.78-2.951-2.667-4.402-1.1-1.799-2.165-3.762-3.585-5.334-1.177-1.304-2.7-2.4-4.064-3.5-1.066-.86-1.998-1.837-3.217-2.498-1.287-.697-2.55-1.504-3.895-2.102-.986-.438-2.033-.843-2.963-1.411-.297-.182-.728-.411-.889-.734-.18-.361-.004-.959-.042-1.355-.041-.419-.345-.752-.678-.987-1.182-.838-2.622-1.403-3.894-2.075-1.81-.954-3.65-1.994-5.588-2.667-1.927-.669-3.904-1.188-5.842-1.834-.615-.205-1.172-.55-1.778-.776-.549-.206-1.14-.225-1.694-.41-1.508-.502-2.956-1.183-4.487-1.608-1.056-.294-2.056-.82-3.133-1.044-.378-.08-1.318-.177-1.594.14-.425.49.168 1.231.494 1.61 1.224 1.421 2.902 2.571 4.402 3.696 1.225.919 2.697 1.264 4.064 1.891 2.108.966 3.94 2.366 6.266 2.85.808.17 1.561-.36 2.356-.45 1.513-.174 2.939.466 4.078 1.495.29.262.695.577.579 1.016-.15.566-.736 1.125-1.058 1.609-.483.723-.841 1.504-1.2 2.286-.204.446-.332 1.21-.776 1.481-.499.304-1.326.087-1.863.043-.399-.034-.786.09-1.185.056-3.613-.301-7.057-1.75-10.245-3.344-.788-.395-1.573-.809-2.37-1.186-.937-.442-1.921-.742-2.794-1.312-.54-.353-.964-.813-1.44-1.242a42 42 0 0 1-3.048-3.048c-1.88-2.082-3.803-4.332-5.066-6.858-.998-1.997-2.066-4.04-2.78-6.18-.53-1.59-.97-3.22-1.439-4.826-.056-.194-.009-.396-.028-.593-.068-.697-.164-1.418-.028-2.117.036-.188-.039-.502.07-.663.132-.193.592-.225.805-.24m66.548 17.71c.383.01.678.212 1.016.352.557.232 1.118.486 1.693.678 1.202.4 2.46.685 3.725.79.497.041.957-.122 1.44-.17 1.16-.112 2.292-.447 3.386-.888.685-.276 1.774-1.042 2.54-.776.44.152.722.576 1.016.903.452.5.96.965 1.44 1.439.233.23.492.462.762.65.206.143.584.245.72.465.184.301-.267.513-.466.635-.818.5-1.664.899-2.357 1.58-1.107 1.088-2.423 2.031-3.372 3.274-.558.73-1.042 1.52-1.553 2.286-.256.384-.5.862-.846 1.171-.333.297-.771.362-1.186.466-.384.096-.78.285-1.185.268-.72-.03-1.783-.229-2.37-.663-.33-.244-.473-.665-.706-.988-.477-.66-.904-1.355-1.355-2.032-.764-1.146-1.928-2.27-3.02-3.104-.809-.618-1.58-1.354-2.455-1.877-.282-.168-.992-.437-1.087-.776-.119-.43.746-.7 1.002-.932.712-.642 1.356-1.355 2.032-2.032.33-.329.673-.734 1.186-.72m40.386 12.179c.455-.032 1.269.018 1.693.183 1.01.393 1.739 1.465 2.314 2.328.561.842.741 1.7 1.1 2.625.673 1.728.896 3.512 1.073 5.334.054.549.17 1.048.17 1.609 0 1.371.096 2.91-.79 4.064-.804 1.045-2.532.664-3.444.056-.406-.27-.812-.8-1.27-.96-.327-.113-.633.066-.931.17-.813.282-1.616.603-2.37 1.002-.59.31-1.123.717-1.694 1.058-3.412 2.038-6.636 4.882-8.692 8.326-.995 1.665-1.559 3.535-2.258 5.334-.903 2.32-1.575 4.783-2.145 7.196-.232.983-.27 2.045-.367 3.048-.115 1.188-.392 2.364-.508 3.556-.16 1.643.012 3.377.17 4.996.035.363-.036.737 0 1.1.11 1.13.288 2.275.536 3.387.135.61.496 1.408.366 2.032a20.4 20.4 0 0 1-1.566 4.572c-.216.444-.525 1.263-1.115 1.312-.332.028-.536-.26-.762-.451-.56-.476-1.053-.968-1.693-1.34-.674-.394-1.63-.808-2.088-1.468-1-1.439-1.006-3.432-1.327-5.08-.602-3.099-.785-6.253-.48-9.398.046-.471-.032-.954.014-1.426.202-2.052.27-4.174.692-6.194.39-1.873.858-3.726 1.298-5.588.196-.83.222-1.707.395-2.54.173-.829.416-1.635.621-2.456.247-.988.435-2.01.819-2.963 1.436-3.566 3.185-6.944 5.446-10.075.332-.46.588-.976.904-1.44a31.6 31.6 0 0 1 4.967-5.672c.623-.563 1.154-1.215 1.778-1.778 2.515-2.27 5.729-4.222 9.144-4.46m-68.75.156c.221-.037.432.014.65.014.626 0 1.27-.061 1.89 0 1.23.121 2.568.69 3.641 1.256.697.368 1.296.878 1.947 1.312.883.589 1.833 1.176 2.625 1.891.667.602 1.276 1.266 1.947 1.863 1.563 1.389 2.868 2.986 4.12 4.656.511.68.914 1.428 1.412 2.117a44.2 44.2 0 0 1 5.362 9.821c.735 1.889 1.197 3.953 1.609 5.927.139.666.17 1.36.31 2.032.48 2.3 1.268 4.603 1.496 6.943.154 1.581.354 3.16.508 4.741.046.475-.046.964 0 1.44.165 1.698.337 3.527.17 5.249-.028.285-.142.561-.17.846-.127 1.31-.177 2.61-.48 3.895-.128.544-.11 1.142-.226 1.693-.247 1.188-.641 2.338-1.397 3.302-.603.772-1.546.987-2.3 1.553-.493.37-.887.831-1.354 1.227-.157.133-.388.361-.593.41-.494.116-.855-.563-1.03-.904-.578-1.125-.966-2.347-1.369-3.556-.206-.618-.384-1.198-.31-1.862.038-.342.226-.679.31-1.016.187-.75.377-1.52.452-2.286.173-1.784.313-3.54.338-5.334.006-.415.126-.85.085-1.27l-.254-2.625c-.157-1.618-.29-3.32-.62-4.91-.486-2.33-1.222-4.596-1.976-6.859-.73-2.189-1.5-4.494-2.766-6.434-.805-1.233-1.787-2.217-2.766-3.302-1.412-1.565-3.09-3.033-4.91-4.12-1.334-.797-2.618-1.611-4.065-2.174-.451-.176-.943-.459-1.439-.48-.454-.019-.925.57-1.27.819-.979.707-2.843 1.257-3.697.028-.92-1.326-.854-3.129-.706-4.657.266-2.729.63-5.62 1.849-8.128.345-.71.848-1.34 1.355-1.947.41-.492.953-1.06 1.622-1.171m68.411 18.231c.805.134 1.247 1.159 1.468 1.82.482 1.448.74 2.8.423 4.319-.088.422-.114.872-.296 1.27-.16.346-.337.792-.607 1.072-.874.905-2.366.973-3.528.875-.74-.062-1.468.008-2.201-.155-1.012-.225-1.878-.643-2.794-1.1-.398-.2-.868-.382-.988-.862-.185-.74.457-1.335.875-1.862 1.216-1.537 2.775-2.573 4.43-3.585.716-.437 1.398-.925 2.117-1.354.282-.168.748-.497 1.101-.438m-66.633.057c.47-.098.896.237 1.27.465.716.438 1.396.925 2.117 1.355 1.584.946 3.078 1.963 4.247 3.415.456.566 1.138 1.229.89 2.032-.13.417-.548.598-.904.776-.679.34-1.367.75-2.116.946-1.128.294-2.552.509-3.726.395-.26-.026-.502-.14-.762-.17-.767-.085-1.58-.276-2.088-.931-.354-.457-.526-1.056-.65-1.609-.357-1.612-.369-3.085.198-4.656.27-.749.616-1.829 1.524-2.018m56.219 10.005c.341-.048.82.324 1.1.48.687.38 1.385.773 2.117 1.058 1.643.639 3.355 1.178 5.08 1.538.702.146 1.486.07 2.202.17 1.035.143 2.318-1.21 3.217-.311.77.77.233 2.348-.056 3.217-.432 1.294-.672 2.618-1.186 3.895-.175.434-.401 1.21-.79 1.495-.192.142-.464.114-.677.212-.493.226-.984.508-1.524.635-.78.184-1.508.04-2.286.028-2.64-.036-5.313-.55-7.705-1.679-.637-.3-1.316-.502-1.947-.818-.175-.088-.523-.14-.635-.31-.107-.163.013-.415.056-.58.128-.485.257-.96.41-1.439.214-.672.34-1.363.564-2.032.393-1.18.875-2.339 1.129-3.556.107-.512.31-1.035.508-1.524.08-.2.18-.445.423-.48m-46.143.156c.8-.122 1.002 1.29 1.157 1.848.35 1.261.773 2.49 1.185 3.726.186.558.253 1.148.48 1.693.222.534.458 1.037.593 1.609.04.17.109.404.042.578-.08.206-.395.223-.579.297-.452.182-.897.394-1.354.578-1.945.783-3.973 1.642-6.096 1.849-.909.088-1.801.009-2.71.084-.395.033-.783.124-1.185.085-.727-.07-1.386-.378-2.032-.691-.355-.173-.81-.105-1.087-.41-.299-.33-.47-.861-.635-1.27-.377-.938-.66-1.904-.93-2.878-.28-1.007-.565-1.91-.565-2.964 0-.416.012-.924.282-1.27.848-1.085 2.32.384 3.358.24 1.008-.14 2.053-.117 3.048-.352 1.39-.329 2.82-.838 4.149-1.355.713-.278 1.352-.662 2.032-1.002.263-.131.551-.35.847-.395m22.775 5.094c1.642-.16 2.64.744 3.81 1.736.339.287 1.005.597 1.157 1.03.185.524.017 1.332-.056 1.862-.141 1.016-.325 2.029-.424 3.048-.123 1.271 0 2.617 0 3.895 0 .952-.178 1.917-.084 2.879.147 1.515.357 3.051.423 4.572.017.386-.038.793 0 1.185.09.924.369 1.843.706 2.71.263.677.624 1.63.366 2.37-.149.43-.598.529-.987.62-.621.147-1.237.166-1.863.227-.453.044-.898.21-1.355.254-1.76.17-3.535-.148-5.249-.41-.482-.073-1.367.097-1.707-.366-.343-.467.038-1.236.254-1.68.6-1.235 1.066-2.606 1.199-3.979.049-.503-.049-1.02 0-1.524l.423-4.487c.074-.762-.084-1.524-.084-2.286 0-1.222.118-2.51 0-3.726-.13-1.334-.379-2.647-.508-3.979-.043-.442-.15-.832.028-1.27.185-.457.784-.764 1.157-1.044.86-.646 1.658-1.527 2.794-1.637m19.558 8.565c.216-.003.56.204.762.283.466.18.952.33 1.44.451 1.224.306 2.496.384 3.725.692 1.115.278 2.255.762 3.4.762.765 0 1.603-.118 2.357.07.33.083.684.155.847.494.191.4.04.877-.085 1.27-.288.9-.844 1.733-1.326 2.54-.364.61-.646 1.242-.974 1.863-.443.838-1.008 1.6-1.411 2.455-.332.703-.598 1.431-.96 2.117-.557 1.056-1.279 2.024-1.905 3.048-.921 1.508-1.43 3.105-2.088 4.741-.425 1.054-.993 2.118-1.298 3.217-.656 2.359-1.443 4.733-2.653 6.858-1.177 2.066-3.17 3.8-5.25 4.897-.631.333-1.299.569-1.947.875-.969.457-1.998.939-3.048 1.213-.864.226-1.756.362-2.625.579-1.33.332-2.682.733-4.064.818-.848.053-1.689-.096-2.54-.084-.66.009-1.309.148-1.975.056a26 26 0 0 1-2.681-.508c-.382-.095-.776-.273-1.157-.339-2.114-.364-4.077-1.09-6.04-1.99-1.561-.715-3.13-1.524-4.403-2.723-.804-.758-1.482-1.741-2.145-2.624-.508-.678-1.084-1.365-1.481-2.117-.644-1.22-.61-2.67-.974-3.98-.372-1.337-.938-2.624-1.467-3.894-.609-1.46-1.084-2.922-1.82-4.318-.56-1.059-1.361-1.99-1.92-3.048-.578-1.095-.974-2.291-1.552-3.387-.754-1.429-1.59-2.818-2.357-4.233-.49-.905-.515-1.927-.197-2.879.112-.335.209-.88.536-1.086.212-.134.454.049.677.07.416.04.946.052 1.355-.028 2.253-.438 4.555-.873 6.773-1.397.634-.15 1.258-.307 1.863-.55.206-.083.454-.238.65-.043.322.323.326.843.366 1.256.075.776.17 1.494.17 2.286 0 1.195.115 2.453 0 3.641-.097.99-.321 1.992-.537 2.963-.18.81-.519 1.59-.79 2.371-.12.347-.317.694-.31 1.072.006.377.273.802.437 1.13.264.527.51 1.075.762 1.608.557 1.18 1.223 2.296 1.778 3.471.298.631.458 1.34.804 1.948.266.466.605.891.875 1.354.562.964.657 2.101 1.073 3.133.5 1.244 1.27 2.42 2.116 3.471.732.909 1.677 1.54 2.597 2.23.653.49 1.212 1.199 1.947 1.566.852.426 1.88.576 2.794.805 2.579.644 5.223.791 7.874.423 1.326-.184 2.688-.63 3.98-.988 1.047-.29 1.8-1.312 2.624-1.975.681-.55 1.42-1.067 2.004-1.722 1.048-1.174 1.805-2.488 2.47-3.895.35-.743.36-1.626.69-2.37.341-.766 1.05-1.365 1.426-2.117.369-.738.575-1.557.96-2.286.741-1.405 1.52-2.769 2.13-4.233.19-.457.642-1.012.65-1.524.006-.492-.306-1.076-.48-1.524a21 21 0 0 1-.847-2.794c-.212-.899-.193-1.795-.282-2.71-.144-1.475-.205-3.099 0-4.572.078-.566.1-1.07.31-1.608.073-.187.103-.547.367-.55m-26.331 19.783c.735-.112 1.52.073 2.257.099 1.43.05 2.9 0 4.347.141.876.085 1.753-.13 2.624-.155.93-.027 1.848.047 2.766.014.901-.033 1.758-.115 2.653-.028 1.295.126 2.636.212 3.725 1.044 1.36 1.039.644 2.932.113 4.205-.983 2.359-2.602 4.902-5.023 6.011-.716.328-1.663.535-2.442.65-2.748.405-5.335.525-8.057-.156-1.128-.282-2.085-.464-3.048-1.2-1.461-1.116-2.389-2.438-3.231-4.035-.333-.63-.764-1.2-1.03-1.863-.368-.911-.813-2.126-.198-3.048.965-1.448 3.03-1.448 4.544-1.679" style="fill:#040404;stroke:none"/></g></svg>