<svg xmlns="http://www.w3.org/2000/svg" xml:space="preserve" width="655.36" height="655.36" viewBox="0 0 173.397 173.397"><g style="display:inline"><path d="M66.04 9.06v-.17l-1.693.734-2.032.705-.339.31-.931.438-7.112 3.133-3.048 1.34-1.101.55-.113.749-.31 2.286-.932 6.942-2.54 18.881-.762 5.673-1.778 12.954-2.54 19.134-.592 4.403-.762 5.673-1.186 8.805-1.354 10.075-.593 4.149-1.778 13.462-.677 4.995-.254 1.863 1.354.48 2.964 1.1 8.89 3.302 25.992 9.624 9.314 3.472 3.132 1.157 1.186.423.846-.31 1.778-.678 7.366-2.794 23.368-8.89 14.055-5.334 3.64-1.383 1.27-.48.58-.225.027-.565-.183-1.354-.762-5.927-2.625-20.743-.592-4.318-1.524-11.854-1.186-9.228-.762-5.927-3.048-24.045-1.524-11.6-1.608-12.784-.593-4.318-.593-4.657-.225-1.778-.071-.494-1.397-.62-3.471-1.454-7.62-3.203-5.165-2.188v.17l-4.572-1.722-8.72-3.26-.593-.112-4.234-1.539-1.524-.55-1.608.55-4.15 1.524-9.905 3.641z" id="warTower_svg" display="inline" fill="#fff" stroke="#000" stroke-width="2"/><path d="M66.04 9.06v-.17l-1.693.734-2.032.705-.339.31-.931.438-7.112 3.133-3.048 1.34-1.101.55-.113.749-.31 2.286-.932 6.942-2.54 18.881-.762 5.673-1.778 12.954-2.54 19.134-.592 4.403-.762 5.673-1.186 8.805-1.354 10.075-.593 4.149-1.778 13.462-.677 4.995-.254 1.863 1.354.48 2.964 1.1 8.89 3.302 25.992 9.624 9.314 3.472 3.132 1.157 1.186.423.846-.31 1.778-.678 7.366-2.794 23.368-8.89 14.055-5.334 3.64-1.383 1.27-.48.58-.225.027-.565-.183-1.354-.762-5.927-2.625-20.743-.592-4.318-1.524-11.854-1.186-9.228-.762-5.927-3.048-24.045-1.524-11.6-1.608-12.784-.593-4.318-.593-4.657-.225-1.778-.071-.494-1.397-.62-3.471-1.454-7.62-3.203-5.165-2.188v.17l-4.572-1.722-8.72-3.26-.593-.112-4.234-1.539-1.524-.55-1.608.55-4.15 1.524-9.905 3.641zm32.089 12.446-.085-10.498c1.97.622 3.916 1.424 5.842 2.173.533.207 1.077.386 1.609.592.144.057.371.073.465.212.106.155.043.484.043.663v1.778c0 1.798.169 3.617.169 5.419 0 .644-.22 1.802.127 2.37.118.194.362.26.55.353l1.186.593c1.497.749 3.004 1.694 4.572 2.272l-.593-11.007 5.419 2.272 1.439.593.55.282.141 1.087.41 3.217 1.27 9.906 1.016 7.62 2.624 20.743 1.016 7.874L127 78.317l1.185 9.228 2.625 20.744.762 5.926 1.609 12.531.508 3.895.155 1.524-.917.451-2.456.932-10.922 4.148-22.521 8.552-7.112 2.709-2.455.931-.932.367-1.016-.296-2.201-.833-4.995-1.834-2.71-.988.17-6.18v-2.371l.169-5.08.085-7.028.084-3.725.085-3.048.056-2.71-.79-1.354-1.693-2.879-4.629-7.958-1.693-2.879-.734-1.355-1.383 1.694-2.878 3.81-4.149 5.503-1.228 1.609-.592.846-.014 1.27-.17 5.504-.169 3.979-.085 3.048v2.286l-.169 3.725v2.371l-.085 1.609-.084 1.862-1.609-.564-2.963-1.1-7.536-2.795-3.132-1.157-1.228-.494.127-1.256.593-4.402 1.524-11.6.592-4.148 1.609-12.192.423-2.879 1.524-11.345 1.186-8.806 1.016-7.535 2.624-19.558 2.117-15.917.762-5.419.762-5.673.226-1.778.14-.663 1.497-.705 2.878-1.27 1.948-.833-.254 11.091 1.693-.917 3.048-1.68.931-.521.55-.353.043-1.693.085-2.625.169-3.471.056-2.032.071-.494.55-.268 1.355-.452 3.133-1.1 2.878-.988-.338 10.244c.567-.209 1.071-.549 1.608-.832a386 386 0 0 1 3.726-1.948c.484-.248.954-.52 1.439-.762.183-.091.441-.159.55-.352.1-.177.043-.482.043-.678 0-.5-.049-1.026 0-1.524.14-1.441.169-2.952.169-4.402 0-.733-.141-1.673.099-2.371.072-.21.306-.248.494-.31.452-.151.91-.307 1.354-.48.532-.207 1.076-.386 1.609-.593.262-.102.56-.276.847-.296.374-.026.844.248 1.185.38.669.26 1.352.508 2.032.735.319.106.919.22 1.171.437.162.139.099.444.099.635v1.778c0 1.967-.105 3.977.085 5.927.036.369-.1.83.014 1.185.144.452 1.197.747 1.594.945 1.095.548 2.207 1.061 3.302 1.61.614.306 1.273.774 1.948.916m6.35 25.4.169 4.572v2.54l.17 3.472v2.286l.169 3.556v2.286l.084 2.878.17 4.572 2.963-.508 5.927-1.016v-22.86l-6.604-1.213z" style="fill:#020202;stroke:none"/></g></svg>