<svg xmlns="http://www.w3.org/2000/svg" width="655.36" height="655.36" viewBox="0 0 173.397 173.397"><g style="display:inline"><path d="M112.268 34.12c-1.543-.771-3.475-1.01-5.165-.846-.866.084-1.758-.084-2.624 0-.817.08-1.653.358-2.456.536-.606.135-1.314.374-1.862.663-.184.097-.47.41-.678.41-.188 0-.427-.268-.592-.353-.638-.328-1.24-.703-1.863-1.058-1.136-.647-2.464-.877-3.725-1.158-.419-.093-.842-.268-1.27-.31a13 13 0 0 0-2.371 0c-.23.022-.449.143-.677.155-.175.01-.332-.08-.508-.07-.593.033-1.174.372-1.778.338-.26-.014-.503-.144-.762-.169-.392-.038-.794.038-1.186 0-.375-.036-.725-.218-1.1-.254-.78-.076-1.86-.131-2.625.028-.987.206-1.99.407-2.963.678-.461.128-.891.335-1.355.451-.7.175-1.42.287-2.117.48-.553.154-1.063.685-1.608.776-.302.05-.645-.273-.932-.353a39 39 0 0 0-2.455-.592c-1.146-.24-2.298-.198-3.471-.198-.624 0-1.238-.145-1.863-.085-1.03.1-2.268.47-3.133 1.016-.27-.682-1.091-1.26-1.608-1.778l-3.81-3.81c-1.405-1.405-2.76-2.902-4.234-4.233-.684-.618-1.517-1.076-2.201-1.693-.473-.428-.881-.928-1.355-1.355-.315-.285-.701-.478-1.016-.762-.355-.32-.66-.695-1.016-1.016-.598-.54-1.307-.978-1.947-1.468-1.515-1.157-2.833-2.596-4.487-3.584-.761-.454-1.513-.628-2.371-.818-.508-.113-1.004-.26-1.524-.31-.433-.043-.858.122-1.27.225-1.171.293-2.171.666-2.977 1.637-1.594 1.918-1.91 4.2-2.555 6.52-.612 2.205-1.31 4.361-1.778 6.603-.383 1.842-.914 3.662-1.298 5.504-.073.35.066.679.028 1.016-.044.4-.161.878-.254 1.27-.223.945-.639 1.907-.733 2.878-.071.73-.014 1.47-.085 2.202-.025.26-.144.502-.17.762-.032.337.042.681-.028 1.016-.064.31-.195.615-.225.931-.029.294.1.562.084.847-.043.784-.262 1.587-.338 2.37-.06.62-.025 1.245-.085 1.863-.048.49-.291.95-.339 1.44-.034.357.136.669.17 1.015.117 1.203-.117 2.439 0 3.641.025.26.144.502.169.762.05.517-.134 1.018-.085 1.524.036.368.134.732.17 1.1.046.476-.047.965 0 1.44.025.26.144.502.169.762.046.475-.046.964 0 1.44.028.284.146.56.17.846.028.34-.12.666-.085 1.016.074.762.366 1.52.409 2.286.017.306-.102.612-.07.931.11 1.138.483 2.37.79 3.472.15.542.357 1.063.493 1.608.118.469.161.993.353 1.44.198.458.3.88.452 1.354.058.182.248.403.24.593-.008.182-.185.357-.268.508-.254.456-.503.9-.762 1.355-.563.988-1.09 2.036-1.623 3.048-.347.657-.706 1.344-1.002 2.032-.145.335-.19.688-.367 1.016-.397.732-.901 1.404-1.326 2.116-.597 1-1.067 2.073-1.553 3.133-.705 1.538-1.442 3.2-1.608 4.91-.19 1.943.69 3.962 2.116 5.25.381.344.84.651 1.27.931.186.121.448.21.55.424.178.37-.257 1.124-.296 1.524-.09.936.167 1.81.367 2.709.592 2.662 3.45 3.997 5.306 5.673 1.112 1.004 2.413 1.8 3.64 2.653 1.736 1.205 3.444 2.48 5.25 3.584.693.423 1.445.794 2.117 1.242.894.596 1.776 1.275 2.709 1.806.874.498 1.764.97 2.625 1.496 2.24 1.369 4.768 3.312 7.535 2.511.278.705.798 1.33 1.1 2.032.243.564.29 1.193.452 1.778.107.385.326.724.452 1.101.427 1.28.86 2.57 1.41 3.81.54 1.214 1.279 2.342 1.835 3.556.408.889.732 1.816 1.13 2.71.417.939.987 1.817 1.495 2.709.324.568.555 1.201.875 1.778a43 43 0 0 0 2.71 4.233c.746 1.033 1.66 1.935 2.511 2.879.937 1.038 1.583 2.413 2.71 3.273 1.167.892 2.413 1.652 3.81 2.117.737.246 1.531.362 2.285.55.195.05.509.014.678.113.27.16.214.64.367.89.532.871 1.167 1.476 2.003 2.045.567.386 1.252.57 1.863.875 1.9.95 3.888 1.614 6.011 1.82.82.08 1.712.335 2.54.255.48-.047.968-.213 1.44-.31.788-.165 1.597-.287 2.37-.523.227-.07.377-.237.593-.324a36 36 0 0 0 1.947-.861c1.08-.51 2.107-.855 3.048-1.651.352-.298.768-.914.974-1.327.12-.24.062-.643.31-.804.185-.12.534-.11.748-.155.622-.13 1.247-.27 1.863-.424.825-.206 1.53-.627 2.286-.973.243-.112.518-.118.762-.226.477-.212 1.04-.664 1.44-1.002 1.092-.924 1.602-2.342 2.483-3.443.46-.575 1.035-1.11 1.552-1.637.628-.639 1.168-1.445 1.693-2.173.444-.615.748-1.32 1.158-1.947 1.473-2.258 2.568-4.667 3.654-7.112.776-1.747 1.8-3.411 2.554-5.165a36 36 0 0 0 1.496-4.149c.088-.3.283-.543.367-.846.273-.984.551-1.802 1.03-2.71.111-.21.195-.497.381-.663.206-.183.502-.006.734.042.285.06.647.06.931 0 .682-.142 1.47-.261 2.117-.522.608-.245 1.203-.6 1.778-.903 1.26-.665 2.417-1.512 3.64-2.243 1.038-.62 2.17-1.07 3.218-1.666.802-.456 1.58-.966 2.37-1.439.968-.578 1.881-1.316 2.795-1.975.855-.618 1.78-1.14 2.624-1.75.532-.384.996-.832 1.524-1.214 1.198-.865 2.324-1.79 3.472-2.71 1.264-1.01 2.568-1.832 3.527-3.16.305-.421.37-.862.48-1.355.208-.936.49-1.815.395-2.794a8 8 0 0 0-.197-1.1c-.027-.108-.114-.283-.07-.395.054-.145.32-.275.437-.367.503-.399 1.11-.684 1.58-1.13 1.125-1.065 1.742-2.673 1.891-4.204.178-1.827-.758-3.741-1.51-5.334-.39-.825-.607-1.748-1.058-2.54-.527-.925-1.25-1.765-1.736-2.71-.28-.545-.47-1.134-.72-1.693-.172-.389-.47-.712-.649-1.1-.164-.359-.26-.756-.451-1.101-.515-.927-1.01-1.87-1.524-2.794-.272-.49-.815-1.113-.847-1.694-.031-.565.449-1.09.593-1.608.256-.922.423-1.876.691-2.794.079-.269.25-.49.325-.762.23-.827.538-1.772.62-2.625.047-.48-.132-.95-.084-1.44.025-.26.144-.501.17-.761.03-.31-.036-.624.028-.932.064-.31.195-.615.225-.931.023-.236-.083-.45-.07-.677.012-.23.133-.448.155-.678.06-.615-.06-1.247 0-1.862.025-.26.144-.502.17-.762.045-.476-.047-.964 0-1.44.025-.26.143-.502.169-.762.07-.716-.04-1.459-.029-2.173.01-.5.149-1.047.198-1.552.084-.863-.097-1.755-.085-2.625.005-.344.119-.666.085-1.016-.025-.26-.144-.502-.17-.762-.032-.335.033-.68 0-1.016-.07-.734-.267-1.467-.338-2.201-.077-.793-.092-1.579-.17-2.37-.025-.26-.143-.503-.169-.763-.042-.433.126-.847.085-1.27-.037-.375-.218-.725-.254-1.1-.082-.843-.024-1.708-.198-2.54-.214-1.03-.576-2.023-.79-3.048-.175-.844.037-1.685-.14-2.54-.336-1.607-.661-3.241-1.102-4.826-.231-.835-.666-1.62-.874-2.456-.232-.927-.394-1.873-.65-2.794-.151-.546-.396-1.05-.536-1.608-.366-1.464-.657-2.994-1.41-4.318-.682-1.197-1.902-2.55-3.19-3.105-.347-.15-.737-.177-1.1-.268-.365-.091-.807-.29-1.186-.268-.309.017-.633.151-.931.226-1.02.255-1.867.569-2.794 1.058-1.1.58-2.147 1.52-3.048 2.357-.702.65-1.55 1.151-2.286 1.764-.35.29-.662.633-1.016.917-.979.782-1.862 1.642-2.794 2.483-1.16 1.048-2.44 1.952-3.641 2.95-.815.677-1.456 1.554-2.201 2.3-.297.296-.637.543-.932.846-1.59 1.637-3.35 3.136-4.77 4.911-.287.36-.836.676-.987 1.1z" id="wolf_svg" display="inline" fill="#fff" stroke="#000" stroke-width="2"/><path d="M112.268 34.12c-1.543-.771-3.475-1.01-5.165-.846-.866.084-1.758-.084-2.624 0-.817.08-1.653.358-2.456.536-.606.135-1.314.374-1.862.663-.184.097-.47.41-.678.41-.188 0-.427-.268-.592-.353-.638-.328-1.24-.703-1.863-1.058-1.136-.647-2.464-.877-3.725-1.158-.419-.093-.842-.268-1.27-.31a13 13 0 0 0-2.371 0c-.23.022-.449.143-.677.155-.175.01-.332-.08-.508-.07-.593.033-1.174.372-1.778.338-.26-.014-.503-.144-.762-.169-.392-.038-.794.038-1.186 0-.375-.036-.725-.218-1.1-.254-.78-.076-1.86-.131-2.625.028-.987.206-1.99.407-2.963.678-.461.128-.891.335-1.355.451-.7.175-1.42.287-2.117.48-.553.154-1.063.685-1.608.776-.302.05-.645-.273-.932-.353a39 39 0 0 0-2.455-.592c-1.146-.24-2.298-.198-3.471-.198-.624 0-1.238-.145-1.863-.085-1.03.1-2.268.47-3.133 1.016-.27-.682-1.091-1.26-1.608-1.778l-3.81-3.81c-1.405-1.405-2.76-2.902-4.234-4.233-.684-.618-1.517-1.076-2.201-1.693-.473-.428-.881-.928-1.355-1.355-.315-.285-.701-.478-1.016-.762-.355-.32-.66-.695-1.016-1.016-.598-.54-1.307-.978-1.947-1.468-1.515-1.157-2.833-2.596-4.487-3.584-.761-.454-1.513-.628-2.371-.818-.508-.113-1.004-.26-1.524-.31-.433-.043-.858.122-1.27.225-1.171.293-2.171.666-2.977 1.637-1.594 1.918-1.91 4.2-2.555 6.52-.612 2.205-1.31 4.361-1.778 6.603-.383 1.842-.914 3.662-1.298 5.504-.073.35.066.679.028 1.016-.044.4-.161.878-.254 1.27-.223.945-.639 1.907-.733 2.878-.071.73-.014 1.47-.085 2.202-.025.26-.144.502-.17.762-.032.337.042.681-.028 1.016-.064.31-.195.615-.225.931-.029.294.1.562.084.847-.043.784-.262 1.587-.338 2.37-.06.62-.025 1.245-.085 1.863-.048.49-.291.95-.339 1.44-.034.357.136.669.17 1.015.117 1.203-.117 2.439 0 3.641.025.26.144.502.169.762.05.517-.134 1.018-.085 1.524.036.368.134.732.17 1.1.046.476-.047.965 0 1.44.025.26.144.502.169.762.046.475-.046.964 0 1.44.028.284.146.56.17.846.028.34-.12.666-.085 1.016.074.762.366 1.52.409 2.286.017.306-.102.612-.07.931.11 1.138.483 2.37.79 3.472.15.542.357 1.063.493 1.608.118.469.161.993.353 1.44.198.458.3.88.452 1.354.058.182.248.403.24.593-.008.182-.185.357-.268.508-.254.456-.503.9-.762 1.355-.563.988-1.09 2.036-1.623 3.048-.347.657-.706 1.344-1.002 2.032-.145.335-.19.688-.367 1.016-.397.732-.901 1.404-1.326 2.116-.597 1-1.067 2.073-1.553 3.133-.705 1.538-1.442 3.2-1.608 4.91-.19 1.943.69 3.962 2.116 5.25.381.344.84.651 1.27.931.186.121.448.21.55.424.178.37-.257 1.124-.296 1.524-.09.936.167 1.81.367 2.709.592 2.662 3.45 3.997 5.306 5.673 1.112 1.004 2.413 1.8 3.64 2.653 1.736 1.205 3.444 2.48 5.25 3.584.693.423 1.445.794 2.117 1.242.894.596 1.776 1.275 2.709 1.806.874.498 1.764.97 2.625 1.496 2.24 1.369 4.768 3.312 7.535 2.511.278.705.798 1.33 1.1 2.032.243.564.29 1.193.452 1.778.107.385.326.724.452 1.101.427 1.28.86 2.57 1.41 3.81.54 1.214 1.279 2.342 1.835 3.556.408.889.732 1.816 1.13 2.71.417.939.987 1.817 1.495 2.709.324.568.555 1.201.875 1.778a43 43 0 0 0 2.71 4.233c.746 1.033 1.66 1.935 2.511 2.879.937 1.038 1.583 2.413 2.71 3.273 1.167.892 2.413 1.652 3.81 2.117.737.246 1.531.362 2.285.55.195.05.509.014.678.113.27.16.214.64.367.89.532.871 1.167 1.476 2.003 2.045.567.386 1.252.57 1.863.875 1.9.95 3.888 1.614 6.011 1.82.82.08 1.712.335 2.54.255.48-.047.968-.213 1.44-.31.788-.165 1.597-.287 2.37-.523.227-.07.377-.237.593-.324a36 36 0 0 0 1.947-.861c1.08-.51 2.107-.855 3.048-1.651.352-.298.768-.914.974-1.327.12-.24.062-.643.31-.804.185-.12.534-.11.748-.155.622-.13 1.247-.27 1.863-.424.825-.206 1.53-.627 2.286-.973.243-.112.518-.118.762-.226.477-.212 1.04-.664 1.44-1.002 1.092-.924 1.602-2.342 2.483-3.443.46-.575 1.035-1.11 1.552-1.637.628-.639 1.168-1.445 1.693-2.173.444-.615.748-1.32 1.158-1.947 1.473-2.258 2.568-4.667 3.654-7.112.776-1.747 1.8-3.411 2.554-5.165a36 36 0 0 0 1.496-4.149c.088-.3.283-.543.367-.846.273-.984.551-1.802 1.03-2.71.111-.21.195-.497.381-.663.206-.183.502-.006.734.042.285.06.647.06.931 0 .682-.142 1.47-.261 2.117-.522.608-.245 1.203-.6 1.778-.903 1.26-.665 2.417-1.512 3.64-2.243 1.038-.62 2.17-1.07 3.218-1.666.802-.456 1.58-.966 2.37-1.439.968-.578 1.881-1.316 2.795-1.975.855-.618 1.78-1.14 2.624-1.75.532-.384.996-.832 1.524-1.214 1.198-.865 2.324-1.79 3.472-2.71 1.264-1.01 2.568-1.832 3.527-3.16.305-.421.37-.862.48-1.355.208-.936.49-1.815.395-2.794a8 8 0 0 0-.197-1.1c-.027-.108-.114-.283-.07-.395.054-.145.32-.275.437-.367.503-.399 1.11-.684 1.58-1.13 1.125-1.065 1.742-2.673 1.891-4.204.178-1.827-.758-3.741-1.51-5.334-.39-.825-.607-1.748-1.058-2.54-.527-.925-1.25-1.765-1.736-2.71-.28-.545-.47-1.134-.72-1.693-.172-.389-.47-.712-.649-1.1-.164-.359-.26-.756-.451-1.101-.515-.927-1.01-1.87-1.524-2.794-.272-.49-.815-1.113-.847-1.694-.031-.565.449-1.09.593-1.608.256-.922.423-1.876.691-2.794.079-.269.25-.49.325-.762.23-.827.538-1.772.62-2.625.047-.48-.132-.95-.084-1.44.025-.26.144-.501.17-.761.03-.31-.036-.624.028-.932.064-.31.195-.615.225-.931.023-.236-.083-.45-.07-.677.012-.23.133-.448.155-.678.06-.615-.06-1.247 0-1.862.025-.26.144-.502.17-.762.045-.476-.047-.964 0-1.44.025-.26.143-.502.169-.762.07-.716-.04-1.459-.029-2.173.01-.5.149-1.047.198-1.552.084-.863-.097-1.755-.085-2.625.005-.344.119-.666.085-1.016-.025-.26-.144-.502-.17-.762-.032-.335.033-.68 0-1.016-.07-.734-.267-1.467-.338-2.201-.077-.793-.092-1.579-.17-2.37-.025-.26-.143-.503-.169-.763-.042-.433.126-.847.085-1.27-.037-.375-.218-.725-.254-1.1-.082-.843-.024-1.708-.198-2.54-.214-1.03-.576-2.023-.79-3.048-.175-.844.037-1.685-.14-2.54-.336-1.607-.661-3.241-1.102-4.826-.231-.835-.666-1.62-.874-2.456-.232-.927-.394-1.873-.65-2.794-.151-.546-.396-1.05-.536-1.608-.366-1.464-.657-2.994-1.41-4.318-.682-1.197-1.902-2.55-3.19-3.105-.347-.15-.737-.177-1.1-.268-.365-.091-.807-.29-1.186-.268-.309.017-.633.151-.931.226-1.02.255-1.867.569-2.794 1.058-1.1.58-2.147 1.52-3.048 2.357-.702.65-1.55 1.151-2.286 1.764-.35.29-.662.633-1.016.917-.979.782-1.862 1.642-2.794 2.483-1.16 1.048-2.44 1.952-3.641 2.95-.815.677-1.456 1.554-2.201 2.3-.297.296-.637.543-.932.846-1.59 1.637-3.35 3.136-4.77 4.911-.287.36-.836.676-.987 1.1m-64.77 73.068c-.238.82.163 1.675.423 2.455.653 1.958 1.75 3.722 2.427 5.673.198.57.322 1.118.466 1.693.106.423.29.924-.056 1.327-.198.23-.47.165-.72.099-.565-.15-1.03-.503-1.524-.805-2.058-1.257-4.173-2.387-6.18-3.725-.88-.587-1.841-1.074-2.71-1.665-1.082-.737-2.167-1.511-3.302-2.173-.568-.331-1.168-.658-1.693-1.03-1.094-.775-2.12-1.635-3.218-2.413-.946-.67-1.761-1.53-2.709-2.202-.383-.271-1.02-.628-1.256-1.044-.29-.513-.159-.918-.028-1.44.235-.94.491-1.92.451-2.878-.016-.389.038-.742-.211-1.1-.234-.337-.664-.561-.988-.79-.618-.438-1.13-1.002-1.778-1.398-.35-.213-1.218-.635-1.34-1.03-.19-.61.171-1.243.395-1.778.556-1.336 1.066-2.67 1.848-3.895.455-.712.968-1.46 1.369-2.201.318-.588.49-1.264.79-1.863.437-.873.837-1.758 1.27-2.624.235-.47.573-.89.819-1.355.4-.758.789-1.552 1.227-2.286.475-.794 1.038-1.648 1.298-2.54.135-.46-.11-.95-.296-1.355a16 16 0 0 1-.578-1.524 163 163 0 0 1-1.242-3.894c-.255-.834-.554-1.68-.65-2.54-.03-.28.028-.568 0-.847-.132-1.364-.374-2.696-.507-4.064-.06-.617.06-1.243 0-1.863-.018-.18-.115-.334-.141-.508-.043-.276.032-.571.028-.846-.005-.35-.108-.673-.141-1.016-.076-.782.086-1.59 0-2.371-.024-.211-.146-.382-.17-.593-.067-.603 0-1.254 0-1.862 0-.695-.067-1.426 0-2.117.023-.235.147-.442.17-.677.04-.42-.041-.85 0-1.27.022-.235.15-.443.169-.678.058-.694.042-1.419.085-2.116.013-.212.146-.382.169-.593.113-1.019.056-2.027.17-3.048.023-.211.145-.382.169-.593.05-.445-.062-.911 0-1.354.021-.157.117-.274.155-.424.068-.273-.038-.572.042-.846.226-.775.518-1.574.706-2.371.261-1.106.103-2.276.38-3.387.425-1.698.798-3.375 1.2-5.08.144-.61.484-1.173.635-1.778.36-1.437.67-2.889 1.087-4.318.076-.262.067-.499.17-.762.135-.35.195-1.215.535-1.354-.118-.45.301-1.365.833-1.426.515-.059.932.171 1.369.438.794.486 1.45 1.183 2.201 1.736 1.359 1 2.603 2.2 3.98 3.175.318.225.557.557.846.818.58.524 1.2 1.01 1.778 1.524.234.208.425.477.677.663.131.096.29.123.424.212.52.347.973.906 1.439 1.326 1.656 1.496 3.241 3.072 4.826 4.657a94 94 0 0 1 3.302 3.471c.465.516 1.012.964 1.425 1.524 1.486 2.018 2.664 4.266 4.191 6.266 1.147 1.5 2.2 3.002 3.119 4.656.284.511.798.849 1.072 1.355.669 1.234.258 2.646-.423 3.81-.319.545-.793 1.005-1.242 1.44-.991.958-2.069 1.873-3.316 2.497-.814.407-1.692.725-2.54.254-.609-.338-1.091-1.256-1.468-1.82-.91-1.367-1.88-2.695-2.794-4.064-1.105-1.659-2.426-3.174-3.414-4.911-1.024-1.797-1.991-3.642-3.19-5.334-.398-.562-1.009-1.037-1.495-1.524a59 59 0 0 1-2.71-2.879c-.295-.337-.499-.756-.79-1.1-.672-.794-1.426-1.54-2.173-2.286-.434-.434-.847-.924-1.355-1.27-.84-.572-1.781-1.057-2.794-.579-.924.436-1.06 1.547-1.185 2.441-.081.587-.257 1.192-.339 1.778-.054.388.044.796 0 1.186-.023.21-.146.381-.169.592-.04.363.04.739 0 1.101-.017.153-.106.275-.127.423-.038.272.047.573.028.847-.016.227-.157.431-.183.65-.02.168.053.358.028.535-.022.157-.118.274-.155.424-.137.545-.122 1.135-.184 1.693-.023.21-.146.382-.169.593-.092.823 0 1.71 0 2.54 0 1.36-.132 2.795 0 4.148.025.26.144.502.17.762.03.308-.035.625 0 .932.023.21.145.381.169.592.052.474-.047.965 0 1.44.027.284.15.561.169.846.06.871.119 1.775.367 2.625.27.926.428 1.803.818 2.71.394.915 1.076 1.69 1.44 2.624.185.476.345.965.536 1.44.052.128.137.394.31.394.371 0 .798-.887.974-1.157.447-.685.968-1.303 1.453-1.947.372-.493.638-1.09 1.002-1.595.858-1.188 1.525-2.48 2.526-3.57.366-.398.719-.78 1.073-1.185.215-.246.54-.505.592-.847.086-.56-.14-1.014-.31-1.524-.344-1.031-.832-2.06-1.284-3.048-.347-.757-.567-1.557-1.002-2.286-.17-.284-.402-.668-.706-.832-.239-.13-.39.11-.423.324-.083.545-.138 1.226-.085 1.778.047.476.14.953.085 1.44-.023.21-.146.381-.17.592-.024.224.037.457-.028.678-.41 1.41-1.396 2.55-2.23 3.725-.318.45-.95 1.69-1.636 1.58-.444-.07-.488-.645-.593-.987-.262-.859-.167-1.738-.254-2.625-.028-.292-.133-.554-.14-.847-.021-.73-.042-1.46-.114-2.201-.025-.26-.144-.502-.169-.762-.078-.801 0-1.65 0-2.455 0-1.7.014-3.333.268-4.996.137-.894.21-1.748.466-2.624.154-.528.242-1.11.705-1.496.451-.375 1.535-.305 2.032-.042 1.333.703 2.262 2.022 3.302 3.062.815.815 1.6 1.683 2.456 2.455.206.186.477.3.663.508.56.627.969 1.445 1.482 2.117.733.96 1.482 1.863 2.144 2.878.612.937.872 2.078 1.412 3.048.679 1.223 1.565 2.384 1.975 3.726.185.604.07 1.657-.24 2.201-.212.373-.557.668-.804 1.016-.64.902-1.334 1.743-2.032 2.625-.604.763-1.194 1.593-1.905 2.257-.42.393-.938.686-1.312 1.13-.4.472-.833 1.058-1.115 1.608-.172.334-.266.695-.466 1.016-.503.808-1.142 1.542-1.637 2.37-.62 1.04-1.059 2.18-1.496 3.303-.494 1.27-.564 2.44-.564 3.81 0 .36-.13 1.033.042 1.354.107.2.28.265.438.085.338-.386.546-1.064.776-1.524.705-1.41 1.237-2.907 2.102-4.233.407-.623.889-1.425 1.807-1.157.99.288 1.952.736 2.878 1.199.63.315 1.31.532 1.948.833 1.25.59 2.432 1.25 3.64 1.905 2.014 1.09 3.814 2.45 5.673 3.767.394.28.704.68 1.1.96 1.29.913 2.455 1.937 3.641 2.991.535.475 1.159.872 1.694 1.355.358.323.707.709 1.1.988.942.667 2.103 1.187 2.879 2.06.502.565.946 1.246 1.383 1.863.586.827 1.28 1.575 1.806 2.455.457.764.793 1.617 1.073 2.455.342 1.028.741 2.011 1.044 3.048.253.87.197 1.888.197 2.794 0 1.004.083 2.086-.197 3.048a17.6 17.6 0 0 1-1.411 3.387c-.336.623-.85 1.1-1.327 1.609-.596.637-1.216 1.296-1.975 1.75-.732.436-1.504.702-2.286.973-1.123.39-2.22.803-3.359 1.073-1.386.327-3.139.333-4.346-.522-.518-.368-.922-.995-1.298-1.496-.96-1.281-1.767-2.597-2.554-3.98-.538-.943-1.289-1.753-1.807-2.709-.276-.51-.587-1.005-.846-1.524-.419-.837-.65-1.768-1.03-2.625-1.032-2.32-1.948-4.803-1.948-7.366 0-.99-.104-2.019.198-2.963.275-.861 1.795-1.008 2.512-.776.247.08.525.004.691.268.23.367.155.699.155 1.1 0 .417.04.856 0 1.27-.036.378-.162.715-.14 1.101.073 1.325.08 2.792.45 4.064.194.663.207 1.313.551 1.948.519.958 1.351 1.664 2.272 2.201.378.22.759.446 1.185.564 1.085.302 2.415.441 3.556.283.183-.026.325-.144.508-.17.197-.027.398.03.593-.028.218-.063.37-.165.607-.099.26.073.612.149.832.31 1.192.878 1.243 2.516 2.06 3.627.243.33.554.283.72-.084.153-.338.014-.979.014-1.355 0-.417-.101-.78-.14-1.185-.033-.327.09-.693.027-1.016a33 33 0 0 0-.366-1.694c-.402-1.607-.84-3.375-1.666-4.826-.418-.734-.915-1.415-1.382-2.116-.521-.782-1.101-1.66-1.807-2.286-.673-.6-1.462-.985-2.201-1.468-.834-.544-1.657-1.128-2.54-1.594-1.09-.576-2.233-1.1-3.302-1.708-.537-.306-1.121-.834-1.75-.931-.213-.033-.48 0-.705 0-.242 0-.539-.05-.762.056-.405.191-.797.602-1.087.932a9.4 9.4 0 0 0-1.933 3.527c-.378 1.296-.155 2.682-.028 3.98.024.251-.025.51 0 .762.061.632.334 1.246.48 1.862.39 1.65.94 3.23 1.495 4.826.297.856.801 1.665 1.044 2.54.097.349.285.608.438.932.444.94.89 1.864 1.355 2.794.737 1.475 1.426 3.069 2.554 4.318.52.575 1.03 1.17 1.608 1.693.506.457 1.17.727 1.51 1.355.58 1.071.988 2.275 1.482 3.386.684 1.539 1.616 2.933 2.413 4.403.303.559.43 1.213.705 1.778.59 1.214 1.306 2.372 1.948 3.556.394.728.98 1.376 1.481 2.032 1.072 1.403 2.129 2.898 3.048 4.403.427.698.89 1.362 1.355 2.032.335.482.564 1.044.903 1.524.227.32.59.681.903.917.131.098.289.136.395.268.308.382.429.917.635 1.355.455.963.993 1.919 1.849 2.596.456.361 1.06.442 1.609.579.465.116.937.344 1.354.564.655.346 1.357.973 1.863 1.51.407.432.669.905 1.185 1.242.411.268.823.217 1.27.31 1.429.298 3.325.312 4.742-.042.832-.208 1.287-.994 1.806-1.58.455-.515 1.033-.993 1.58-1.398.783-.577 1.75-.69 2.625-1.03.353-.137.777-.22 1.072-.48.619-.543 1.198-1.243 1.51-2.017.188-.466.313-1.013.579-1.44.33-.53.942-.84 1.298-1.354.73-1.052 1.414-2.202 2.074-3.302 1.276-2.126 2.927-3.945 4.276-6.012.841-1.288 1.577-2.694 2.3-4.064.266-.503.371-1.094.621-1.608.359-.738.859-1.39 1.242-2.117a86 86 0 0 0 1.693-3.387c.429-.907.678-1.951 1.228-2.794.346-.53.927-.751 1.397-1.128.878-.706 1.628-1.688 2.272-2.597 1.164-1.643 1.982-3.525 2.836-5.334 1.219-2.58 2.374-5.296 3.175-8.043.113-.387.115-.8.212-1.186.143-.573.428-1.187.494-1.778.138-1.24.169-2.49.169-3.725 0-.177-.101-.34-.141-.508-.148-.626-.255-1.171-.508-1.778-.404-.968-1.067-1.875-1.806-2.625-.26-.264-.549-.611-.932-.691-1.292-.27-2.134.36-3.217.931-1.327.7-2.726 1.267-3.98 2.103a58 58 0 0 1-2.455 1.524c-.412.246-.939.545-1.185.96-.304 0-.495.272-.706.48-.563.553-.989 1.242-1.439 1.89-.674.97-1.407 1.958-1.877 3.048-.515 1.197-.813 2.497-1.17 3.725-.135.46-.161.897-.24 1.355-.052.293-.173.45-.156.762.031.557-.11.998-.17 1.524-.048.44 0 .912 0 1.355 0 .471.02 1.04.593 1.1.044-.552.442-1.093.65-1.608.339-.843.823-2.045 1.636-2.54.875-.532 1.719-.101 2.625 0 2.038.226 4.564-.273 5.983-1.863.767-.859 1.239-1.798 1.538-2.879.106-.382.102-.802.198-1.185.037-.15.133-.266.155-.423.07-.498-.049-1.023 0-1.524.057-.587.138-1.178.113-1.778-.027-.644-.113-1.287-.113-1.948 0-.221-.058-.538.014-.747.13-.377.52-.37.833-.452.737-.195 1.656-.11 2.286.38.266.21.2.451.282.735.192.66.141 1.337.141 2.032 0 .608.067 1.259 0 1.862-.046.415-.194.871-.31 1.27-.129.44-.164.913-.31 1.355-.414 1.239-.91 2.438-1.412 3.64-.292.701-.522 1.416-.804 2.117-.59 1.463-1.557 2.8-2.47 4.064-.343.476-.502 1.04-.818 1.524-.435.667-.926 1.29-1.383 1.948-.384.552-.786 1.035-1.214 1.552-.374.452-.724.962-1.27 1.228-2.136 1.038-4.634.192-6.688-.635-.999-.403-2.02-.761-2.964-1.299-2.625-1.495-4.473-4.59-4.882-7.535-.024-.169.05-.338.056-.508.025-.59 0-1.187 0-1.778 0-.532-.128-1.089-.07-1.609.112-1.013.531-1.979.818-2.963.26-.89.592-1.896 1.044-2.71a22.7 22.7 0 0 1 2.865-4.063c.268-.302.609-.485.903-.748.969-.867 1.987-1.663 2.992-2.498.375-.312.665-.72 1.03-1.044 1.109-.982 2.25-1.941 3.372-2.907.796-.685 1.732-1.219 2.54-1.89a49 49 0 0 1 2.625-2.061c1.91-1.38 4.084-2.522 6.18-3.57.715-.358 1.49-.604 2.202-.96 1.084-.542 2.219-1.14 3.387-1.481.809-.236 1.48.383 1.89.987.952 1.399 1.614 2.974 2.329 4.488.232.49.518 1.546 1.115 1.608.095-1.201.283-2.645-.057-3.81-.064-.22.011-.457-.056-.677-.744-2.434-2.058-4.528-3.5-6.604-.572-.824-.953-1.698-1.637-2.455-.55-.609-1.23-1.095-1.778-1.694-1.097-1.198-2.088-2.511-3.062-3.81-.582-.775-1.494-1.59-1.594-2.624-.122-1.249.366-2.177.973-3.218.454-.778.866-1.546 1.37-2.286.175-.259.247-.565.38-.846.371-.786.793-1.649 1.284-2.37.706-1.038 1.616-1.939 2.314-2.964.272-.399.492-.882.805-1.256.894-1.07 2.045-1.933 2.977-2.978.44-.493.841-1.086 1.327-1.524.286-.258.635-.437.917-.705.41-.39.746-.765 1.284-.974.623-.242 1.646-.286 2.088.325.28.386.345.829.48 1.27.257.84.395 1.661.48 2.54.06.625.193 1.24.254 1.862.084.865-.036 1.757 0 2.625.015.37.122.72.085 1.1-.063.645-.022 1.302-.085 1.948-.025.26-.155.502-.17.762-.01.176.08.333.071.508-.025.457-.155.88-.155 1.355 0 .464-.12.83-.17 1.27-.046.417.058.854 0 1.27-.033.245-.165.419-.169.677-.006.43-.066 1.248-.508 1.482-.274.145-.638-.056-.846-.226-.545-.445-.898-1.207-1.327-1.764-.715-.93-1.587-2.05-1.862-3.217-.054-.225-.006-.451-.029-.678-.022-.234-.146-.442-.169-.677-.062-.64.109-1.237.17-1.863.056-.585-.17-1.184-.17-1.778-.882.511-1.25 1.564-1.609 2.456-.449 1.115-.921 2.194-1.383 3.302-.174.42-.328.845-.493 1.27-.096.245-.283.576-.212.846.099.375.394.635.62.932.497.65 1.094 1.166 1.638 1.778.847.953 1.465 2.24 2.173 3.302.707 1.061 1.493 2.07 2.201 3.132.225.337.525 1.09.96 1.2.193.049.324-.119.395-.268.228-.486.364-1.026.564-1.524.328-.815.88-1.496 1.242-2.286.479-1.045.89-2.34 1.016-3.472.072-.647.28-1.297.325-1.947.01-.148-.067-.275-.057-.423.015-.215.183-.38.198-.593.03-.444-.087-.903-.043-1.355.026-.26.144-.501.17-.762.032-.334-.046-.684 0-1.016.025-.183.144-.325.169-.508.176-1.27 0-2.695 0-3.979 0-1 .097-2.053 0-3.048-.103-1.064-.334-2.135-.48-3.19-.021-.155-.141-.285-.155-.45-.02-.25.067-.506.042-.763-.023-.234-.146-.442-.169-.677-.094-.966-.062-1.913-.17-2.879-.068-.614-.27-1.247-.338-1.862-.1-.906-.282-1.93-1.185-2.357-1.025-.484-1.897-.06-2.724.536-1.367.986-2.63 2.388-3.683 3.697-.27.337-.455.751-.734 1.087-.777.936-1.658 1.814-2.54 2.681-.565.556-1.255 1.09-1.721 1.736-1.037 1.437-1.719 3.083-2.681 4.558-1.11 1.7-2.26 3.332-3.415 4.995-1.08 1.555-2.082 3.143-3.217 4.657-.444.59-.769 1.314-1.383 1.75-1.17.828-2.796-.214-3.81-.932-1.453-1.03-2.901-2.221-3.655-3.866-.307-.67-.567-1.362-.494-2.117.094-.97.836-1.454 1.312-2.201.53-.83.98-1.702 1.496-2.54.67-1.088 1.606-2.094 2.37-3.133 1.22-1.657 2.215-3.49 3.402-5.165.437-.617 1-1.126 1.495-1.693 1.372-1.568 2.865-3.067 4.389-4.516 1.157-1.1 2.186-2.387 3.4-3.414a226 226 0 0 1 3.698-3.077c.35-.283.614-.658.96-.945 1.888-1.569 3.76-3.256 5.757-4.67.575-.409 1.09-.894 1.693-1.27.195-.123.532-.395.762-.382.329.018.706.404.86.663.41.687.558 1.537.777 2.286.538 1.844.973 3.724 1.44 5.588.155.623.54 1.164.719 1.778.237.813.358 1.641.55 2.456.215.91.474 1.865.565 2.794.046.475-.047.964 0 1.44.022.234.146.442.169.676.02.197-.028.4.028.593.229.785.517 1.57.706 2.37.195.83.115 1.696.197 2.54.023.236.147.443.17.678.093.963.062 1.92.169 2.879.023.21.146.381.17.592.04.363-.036.738 0 1.101.073.757.274 1.522.338 2.286.017.207-.082.391-.07.593.015.287.173.564.197.846.038.456-.042.974-.042 1.44 0 .798.107 1.669.042 2.455-.016.187-.147.333-.184.508-.141.681.08 1.439.043 2.117-.017.31-.125.621-.155.931-.041.42.046.852 0 1.27-.024.211-.146.382-.17.593-.077.697.078 1.42 0 2.116-.023.211-.146.382-.17.593-.04.362.041.738 0 1.1-.076.697-.26 1.421-.338 2.117-.065.584.081 1.197 0 1.778-.076.547-.33 1.07-.48 1.61-.156.562-.266 1.144-.48 1.692-.465 1.197-.785 2.438-1.27 3.641-.254.631-.536 1.143-.366 1.863.124.527.471.969.72 1.44.57 1.08 1.204 2.13 1.777 3.216.724 1.372 1.489 2.722 2.103 4.15.22.51.388 1.04.663 1.523.588 1.033 1.304 1.986 1.835 3.048.562 1.125 1.24 2.33 1.58 3.556.108.388.345.946.141 1.355-.186.372-.653.596-.973.832-.658.484-1.294.978-1.948 1.468-.385.288-.843.571-1.086 1.002-.192.34-.134.65-.113 1.016.013.24-.031.492-.014.734.044.648.358 1.334.465 1.975.088.527.277.935-.056 1.44-.217.328-.594.456-.875.705-.819.725-1.742 1.355-2.554 2.088-1.312 1.185-2.824 2.11-4.233 3.147-2.466 1.815-4.996 3.566-7.705 4.995-.781.413-1.505.915-2.286 1.327-1.076.568-2.196 1.127-3.203 1.82-.493.34-1.003.65-1.538.917-.236.118-.48.297-.762.226-.939-.234-.398-1.672-.198-2.272.38-1.14.8-2.3 1.312-3.386.456-.965 1.039-1.93 1.355-2.964.203-.665.54-1.332.579-2.032.01-.172.146-.649-.17-.649-.3 0-.718.84-.86 1.073-.73 1.195-1.342 2.481-2.131 3.64-1.347 1.979-2.333 4.178-3.641 6.181-.912 1.397-1.954 2.809-2.667 4.318-.783 1.658-1.22 3.435-1.82 5.165-.718 2.066-1.826 3.965-2.752 5.926-.354.749-.606 1.538-.96 2.286a65 65 0 0 1-2.991 5.588c-.487.815-.94 1.699-1.51 2.456-.735.974-1.625 1.778-2.413 2.709-.752.889-1.367 2.06-2.23 2.85-.562.516-1.318.904-2.017 1.186-1.224.493-2.51.451-3.81.451-.602 0-1.268.083-1.863 0-.156-.021-.273-.13-.423-.155-.17-.028-.33.043-.508 0-.672-.16-1.354-.343-2.032-.437-1.407-.196-3.001.007-4.403.084-.176.01-.336-.067-.508-.084-.635-.062-1.309 0-1.947 0-.664 0-1.374-.073-2.032 0-.689.076-1.335.355-2.032.423-2.488.242-5.348.54-7.62-.691-1.253-.679-1.885-1.842-2.794-2.865-1.633-1.837-3.208-3.609-4.431-5.757-.203-.356-.49-.663-.692-1.016-1.373-2.413-2.443-5.015-3.598-7.536-.666-1.453-1.49-2.832-2.089-4.318-.853-2.12-1.35-4.363-2.328-6.434-.417-.884-1.025-1.729-1.566-2.54a50 50 0 0 1-2.046-3.387c-1.15-2.07-2.474-4.02-3.627-6.096-.334-.602-.635-1.207-1.016-1.778-.319-.478-.527-.97-1.044-1.27m33.937-69.906c.431-.071.907 0 1.34 0 .222 0 .49-.057.706.014.299.096.595.24.903.31.5.114 1.046-.073 1.553-.014.183.021.325.144.508.17.442.06.773-.124 1.185-.17a28 28 0 0 0 2.117-.31c1.197-.226 2.584.073 3.74.338.438.1.878.39 1.255.621.723.442 2.131.74 2.117 1.806-.013.907-1.017 1.786-1.426 2.54-.54 1-1.12 2.016-1.608 3.048-.447.947-.717 1.98-1.059 2.964-.264.762-.675 1.437-.592 2.286.017.177.138.328.155.508.066.675.23 1.356.296 2.032.02.199-.018.395.029.592.11.467.359.916.536 1.355.333.827.576 1.66.973 2.455a38 38 0 0 0 1.37 2.456c.281.472.678 1.045.733 1.608.114 1.17-.373 2.31-.762 3.387-.37 1.027-.602 2.102-.96 3.133-.252.726-.595 1.41-.889 2.116-.365.881-.934 1.762-1.17 2.71-.26 1.037-.43 2.16-.89 3.132-.432.916-1.011 1.744-1.496 2.625-.522.952-.914 1.94-1.284 2.963-.381 1.057-.748 2.14-1.227 3.147-.15.313-.217.85-.635.917-.523.084-.645-.28-.805-.677-.324-.806-.481-1.647-.762-2.455-.7-2.019-1.318-4.081-2.018-6.096-.442-1.275-1.194-2.451-1.636-3.726-.136-.39-.197-.796-.31-1.185-.662-2.267-2.053-4.386-3.12-6.52-.436-.873-1.214-2.016-1.157-3.047.059-1.049.77-1.815 1.242-2.71.429-.811.878-1.624 1.27-2.455.194-.41.275-.863.452-1.27.28-.644.69-1.267.889-1.947.145-.497.14-1.095.197-1.609.067-.601.406-1.332.226-1.947-.142-.486-.413-.947-.536-1.44-.586-2.343-1.552-4.697-2.935-6.688-.559-.805-1.406-1.394-1.933-2.202-.18-.275-.434-.572-.31-.931.156-.455 1.043-.506 1.424-.564 1.494-.229 2.836-1.03 4.304-1.27m-16.919 1.27c.654-.082 1.372 0 2.032 0 1.245 0 2.56-.079 3.725.423 2.078.894 3.42 2.759 4.685 4.544.499.704 1.246 1.264 1.651 2.032.522.987.99 2.096 1.115 3.217.028.25-.028.511 0 .762.023.211.146.382.17.593.125 1.13.06 2.462-.198 3.556-.425 1.8-1.728 3.1-2.583 4.656-.652 1.188-1.21 2.426-1.975 3.556-1.409 2.08-3.297 3.907-5.25 5.475-1.396 1.122-3.194 1.484-4.727 2.357-1.893 1.078-3.797 1.945-5.926 2.3-.181.03-.323.144-.508.17-.589.081-1.193.072-1.778.112-.212.015-.382.146-.593.17a13.3 13.3 0 0 1-2.71 0c-.347-.039-.695-.248-1.015-.381-.736-.307-1.496-.522-2.202-.875-.4-.2-.713-.365-.762-.861-.09-.933.76-1.52 1.242-2.201.503-.71 1.033-1.413 1.51-2.117.24-.355.608-.653.86-1.016.388-.557.761-1.19 1.214-1.693.565-.629 1.372-.61 2.117-.734 1.004-.167 2.058-.347 3.048-.65 1.106-.337 2.144-1.088 3.133-1.664.852-.497 1.787-.777 2.624-1.313.532-.34 1.162-.767 1.595-1.227.304-.325.544-.7.86-1.016.849-.849 1.862-1.769 2.371-2.879.314-.683.427-1.389.508-2.117.034-.3.2-.527.17-.846-.023-.235-.147-.443-.17-.678-.047-.49-.106-1.003-.367-1.439-.458-.767-1.295-1.226-1.806-1.947-.87-1.23-1.546-2.64-2.215-3.98-.383-.765-1-1.548-1.228-2.37-.06-.22-.226-.447-.226-.678 0-.52.494-.894.932-1.058a3.4 3.4 0 0 1 .677-.183m40.132 0c.474-.102 1.055 0 1.538 0 .98 0 2.047-.134 3.034.112.442.111 1.293.242 1.355.79.122 1.09-.802 2.056-1.256 2.964-.674 1.348-1.308 2.813-2.16 4.064-.501.738-1.28 1.174-1.805 1.863-.778 1.018-.738 2.445-.621 3.64.083.86.461 1.922.96 2.625.338.478.853.833 1.241 1.27.795.894 1.564 1.963 2.54 2.695.96.72 2.084 1.098 3.133 1.651 1.254.662 2.375 1.408 3.725 1.877 1.575.547 3.609.028 4.826 1.397.248.279.407.629.62.931.9 1.27 1.896 2.456 2.795 3.726.363.512.955.942 1.213 1.524.342.769-.162 1.285-.818 1.594-.599.283-1.255.447-1.863.692-.453.182-.95.453-1.439.508-1.422.158-2.85-.11-4.233-.283-1.601-.2-3.152-.516-4.657-1.17-.994-.433-1.916-1.015-2.879-1.497-.96-.48-2.021-.776-2.963-1.312-1.348-.768-2.325-1.832-3.471-2.85-.185-.164-.417-.25-.593-.424-.201-.198-.319-.467-.508-.677-1.019-1.129-1.957-2.261-2.766-3.556-.395-.632-.701-1.373-1.058-2.032-.723-1.335-1.913-2.54-2.413-3.98-.48-1.38-.7-2.922-.536-4.402.023-.21.146-.382.169-.593.034-.306-.034-.624 0-.931.111-1 .527-2.249 1.03-3.133.535-.939 1.413-1.742 2.074-2.624.786-1.048 1.587-2.29 2.653-3.077.956-.705 2.003-1.139 3.133-1.382m-30.31 26.401c.684-.18 1.115.648 1.326 1.172.325.808.696 1.61.931 2.455.194.699.377 1.475.734 2.117.39.7.97 1.308 1.312 2.032.332.702.495 1.472.748 2.201.39 1.122.799 2.264 1.157 3.387.255.798.684 1.575.96 2.37.796 2.295 1.794 4.537 2.568 6.858.518 1.554.98 3.09 1.834 4.488.19.31.475 1.219.875 1.298.168.033.312-.164.395-.282.237-.336.43-.742.635-1.101.847-1.486 1.557-2.934 2.103-4.572.753-2.259 1.48-4.525 2.23-6.773.514-1.544 1.36-2.962 1.89-4.488l2.174-6.265c.35-1.01.856-1.914 1.312-2.879.192-.407.292-.898.55-1.27.418-.602.824-.9 1.496-.508.677.395 1.14 1.129 1.778 1.58.97.688 1.976 1.374 2.963 2.033.84.56 1.752 1.164 2.004 2.23.24 1.02-.167 2.047-.536 2.963-.806 2-1.815 3.916-2.625 5.926a33 33 0 0 0-1.185 3.556c-.261.94-.51 2.07-1.073 2.879-.747 1.077-1.748 1.795-2.751 2.568-.648.499-1.268 1.28-1.75 1.933-.28.38-.436.852-.677 1.256-1.838 3.078-2.413 6.453-2.413 9.991 0 .861-.084 1.768 0 2.625.072.746.272 1.567.451 2.286.103.412.437.734.635 1.1.357.659.821 1.6 1.369 2.117.39.368.921.568 1.355.875.425.301.759.75 1.185 1.044 1.784 1.235 3.723 2.264 5.842 2.794.56.14 1.126.389 1.693.452.879.097 1.825 0 2.71 0 .38 0 1.27-.095 1.354.423.121.747-.328 1.414-.663 2.032-.384.71-.7 1.453-1.002 2.201-.407 1.012-.99 1.898-1.453 2.879-.455.962-.817 2.189-1.482 3.034-.33.419-.677.812-.96 1.284-.878 1.47-1.703 2.955-2.878 4.233-.628.683-1.185 1.35-1.891 1.948-.247.209-.618.575-.931.663-.183.051-.481.011-.678.014-.299.004-.638.04-.931-.028-1.264-.299-2.214-1.566-3.302-2.216-1.311-.783-2.886-.979-4.346-1.256-.772-.146-1.552-.402-2.343-.48-.736-.07-1.408.26-2.116.34-1.667.185-3.373.514-4.911 1.283-1.175.588-1.952 1.71-3.133 2.258-.41.191-1.242.15-1.693.099-.441-.049-.852-.484-1.185-.748-.897-.71-1.704-1.627-2.4-2.554-.842-1.123-1.551-2.303-2.313-3.471-.21-.323-.34-.698-.565-1.016-.269-.38-.583-.681-.804-1.101-.596-1.13-1.03-2.352-1.637-3.471-.459-.847-.884-1.63-1.2-2.54-.234-.677-.543-1.37-.366-2.117.315-1.335 1.416-1.325 2.511-1.538 1.267-.246 2.59-.437 3.81-.946 1.655-.689 3.163-1.842 4.586-2.892.828-.61 1.816-1.21 2.512-1.99.356-.398.589-.837.89-1.27.317-.457.667-.904.86-1.44.206-.57.213-1.18.296-1.777.026-.183.144-.325.17-.508.12-.866.053-1.93 0-2.794-.042-.673.065-1.362 0-2.032-.276-2.836-1.07-5.487-2.512-7.959-.225-.386-.38-.822-.65-1.185-.482-.653-1.17-1.442-1.834-1.92-.777-.558-1.556-1.16-2.088-1.975-.533-.816-.796-1.727-1.157-2.625-.722-1.791-1.438-3.575-2.244-5.334-.977-2.13-1.985-4.288-2.667-6.519-.226-.74-.419-1.858.127-2.54.36-.45.943-.686 1.425-.974.988-.59 2.009-1.129 2.964-1.792.527-.366 1.08-.769 1.524-1.227.309-.32.65-.784 1.1-.904M63.585 73.76c.948-.185 1.161.851 1.481 1.51.855 1.758 1.526 3.588 2.4 5.334.22.443.998 1.77.183 2.088-.893.349-1.91-.851-2.54-1.298-1.04-.737-1.863-1.764-2.879-2.54-.454-.347-1.115-.751-1.185-1.383-.119-1.067.562-1.697 1.157-2.455.376-.48.714-1.126 1.383-1.256m45.818 0c.578-.199 1.066.304 1.426.663.793.793 1.96 1.973 1.58 3.217-.196.641-.865.93-1.312 1.355a38 38 0 0 1-3.401 2.907c-.364.273-.74.654-1.185.79-.11.033-.227.028-.339.028-1.047 0-.548-1.26-.339-1.862.124-.358.34-.667.48-1.016.585-1.452 1.266-2.842 1.962-4.234.264-.53.495-1.63 1.128-1.848m-50.49 17.286c.203-.031.354.1.523.183.462.231.861.543 1.27.861 1.653 1.286 3.314 2.767 4.22 4.685.258.549 1.012 1.779.578 2.37-.179.244-.622.398-.903.48-.247.072-.512-.002-.762.057-.446.105-.886.206-1.355.141-.183-.025-.325-.144-.508-.17-.923-.127-1.762-.348-2.342-1.185-.68-.98-.746-2.204-1.016-3.302-.084-.34-.01-.6-.029-.931-.04-.717 0-1.465 0-2.201 0-.35-.17-.911.325-.988m55.725-.014c.296-.06.446.335.48.578.032.238-.06.514-.057.762.007.515.07 1.013.042 1.524-.018.324.057.71.014 1.016-.168 1.212-.463 2.812-1.27 3.796-.385.47-1.018.753-1.58.917-.195.057-.396.001-.593.029-.183.025-.325.144-.508.169-.53.074-1.013-.077-1.524-.155-.268-.041-.505.011-.762-.099-.362-.156-.797-.319-.846-.762-.071-.637.386-1.394.663-1.947.384-.768.825-1.541 1.397-2.188.707-.798 1.554-1.435 2.328-2.159.558-.521 1.43-1.322 2.216-1.481m-29.295 43.35c.524-.103 1.137-.005 1.665.013 1.342.047 2.913.113 4.092.932.59.409 1.1.902 1.609 1.41.506.506 1.47 1.257 1.524 2.033.037.527-.474 1.436-.847 1.778-.853.781-1.873 1.344-2.794 2.06-.947.737-1.602 1.645-2.794 1.975-.286.08-.636.029-.931.029-.392 0-.892.082-1.27-.029-1.366-.398-2.234-1.686-3.387-2.455-1.296-.864-2.97-1.71-2.794-3.528.07-.71.723-1.213 1.172-1.693.824-.881 1.88-1.812 3.062-2.173.545-.167 1.137-.245 1.693-.353m.677 18.048c.712-.089 1.409.04 2.089.17 1.255.238 2.526.347 3.753.705.507.148 1.794.331 1.694 1.044-.068.484-.962.703-1.355.861-.903.364-1.772.857-2.71 1.143-.417.128-.86.11-1.27.212-.178.044-.324.176-.507.211-.404.079-1.123.072-1.524-.028-.207-.051-.379-.174-.593-.197-.308-.035-.626.043-.931-.029-1.06-.25-2.08-.658-3.048-1.143-.418-.208-1.641-.407-1.58-1.03.064-.665.961-.798 1.495-.931 1.306-.327 2.626-.698 3.951-.818.19-.018.346-.146.536-.17" style="fill:#060606;stroke:none"/></g></svg>