<svg xmlns="http://www.w3.org/2000/svg" width="655.36" height="655.36" viewBox="0 0 173.397 173.397"><g style="display:inline"><path d="M67.056 10.16v.085l5.588 5.588 1.693 1.693 1.016.931v.085l-1.27 1.185-2.624 2.71-4.996 5.08-3.471 3.471-3.387 3.471-.846.847-.339.254-.593-.508-1.439-1.44-5.842-5.841h-.085L38.523 39.709v.084l6.012 6.012 1.439 1.439.508.593-.593.677-1.862 1.863-7.282 7.196L7.535 86.53v.085l3.133 2.71 6.604 5.757 2.625 2.286h.084l7.79-7.62-.014 1.439-.466.762-.367 2.117v1.778l-.085 4.402-.084 7.874v7.62l.084 4.742v9.059l.043.762.465.268 1.524.692 4.657 2.102 18.203 8.213 24.723 11.176 7.874 3.556 1.863.846 1.1.48.762-.31 1.863-.833 7.112-3.231 26.5-12.023 16.426-7.45 4.657-2.103 1.354-.607.466-.282.042-.748-.084-2.117v-7.789l-.085-17.018v-5.842l-.085-3.471-.762-1.101-.085-3.471 7.197 6.858 2.117 2.032 1.1.931 4.798-5.842 5.024-6.096v-.085l-27.432-27.516-8.382-8.382-2.625-2.625-1.355-1.27v-.085l1.101-1.016 1.863-1.862 6.011-6.012v-.084L123.275 26.67h-.085l-5.842 5.842-1.778 1.778-.931 1.016h-.085l-1.185-1.27-2.202-2.201-7.366-7.366-3.386-3.387-1.778-1.693v-.085l1.016-.931 1.778-1.778 5.842-5.842v-.085l-7.705-7.705L97.451.847c-.257-.258-.575-.724-.931-.833-1.249-.381-2.027.828-2.794 1.595L89.154 6.18c-.674.673-1.643 1.383-2.117 2.201l-6.18-6.18-1.609-1.61L78.486 0l-1.27.042-.762.72-1.609 1.609z" id="dwellingWood_svg" display="inline" fill="#fff" stroke="#000" stroke-width="2"/><path d="M67.056 10.16v.085l5.588 5.588 1.693 1.693 1.016.931v.085l-1.27 1.185-2.624 2.71-4.996 5.08-3.471 3.471-3.387 3.471-.846.847-.339.254-.593-.508-1.439-1.44-5.842-5.841h-.085L38.523 39.709v.084l6.012 6.012 1.439 1.439.508.593-.593.677-1.862 1.863-7.282 7.196L7.535 86.53v.085l3.133 2.71 6.604 5.757 2.625 2.286h.084l7.79-7.62-.014 1.439-.466.762-.367 2.117v1.778l-.085 4.402-.084 7.874v7.62l.084 4.742v9.059l.043.762.465.268 1.524.692 4.657 2.102 18.203 8.213 24.723 11.176 7.874 3.556 1.863.846 1.1.48.762-.31 1.863-.833 7.112-3.231 26.5-12.023 16.426-7.45 4.657-2.103 1.354-.607.466-.282.042-.748-.084-2.117v-7.789l-.085-17.018v-5.842l-.085-3.471-.762-1.101-.085-3.471 7.197 6.858 2.117 2.032 1.1.931 4.798-5.842 5.024-6.096v-.085l-27.432-27.516-8.382-8.382-2.625-2.625-1.355-1.27v-.085l1.101-1.016 1.863-1.862 6.011-6.012v-.084L123.275 26.67h-.085l-5.842 5.842-1.778 1.778-.931 1.016h-.085l-1.185-1.27-2.202-2.201-7.366-7.366-3.386-3.387-1.778-1.693v-.085l1.016-.931 1.778-1.778 5.842-5.842v-.085l-7.705-7.705L97.451.847c-.257-.258-.575-.724-.931-.833-1.249-.381-2.027.828-2.794 1.595L89.154 6.18c-.674.673-1.643 1.383-2.117 2.201l-6.18-6.18-1.609-1.61L78.486 0l-1.27.042-.762.72-1.609 1.609zm10.922-3.64 6.096 6.095 1.863 1.863 1.016 1.1h.084l1.016-1.1 1.863-1.863 6.011-6.011h.085l4.064 4.064v.085l-5.842 5.842-1.778 1.778-1.016.931v.085l1.863 1.778 3.64 3.64 11.938 11.938 4.318 4.318 1.016 1.016.424.283.677-.621 1.609-1.609 6.265-6.265h.085l4.318 4.318v.084l-6.012 6.012-1.862 1.862-1.101 1.016v.085l1.44 1.355 2.624 2.624 8.467 8.467 27.601 27.686v.085l-3.471 4.148h-.085l-7.45-7.112-7.79-7.45-3.471-3.387-12.108-11.515-7.789-7.464-1.863-1.793-.592-.48-.424.311-1.185 1.044-3.98 3.556-16.255 14.394-3.98 3.556-1.185 1.044-.423.282-.424-.282-1.1-.946-4.318-3.739-15.833-13.631-4.826-4.177-1.1-.974-.424-.268-.593.508-1.354 1.34-3.048 2.978-3.302 3.217-21.59 21.082L22.52 87.8l-1.778 1.778-.931.805-1.185-.875-2.456-2.131-1.058-.931.212-.452.931-.903 3.895-3.895 16.51-16.34 12.53-12.446 3.048-3.02 1.101-1.044.367-.424-.452-.592-1.439-1.44-4.318-4.318-1.27-1.27-.466-.508.805-1.016 2.878-2.878 1.101-.89.677.636 1.44 1.439 3.894 3.895 1.863 1.947h.085l1.608-1.693 4.064-4.149 6.774-6.943 5.334-5.418 4.572-4.572 1.1-1.186.424-.508-.508-.592-1.524-1.524-6.096-6.096v-.085l2.455-2.455zM58.674 68.411c1.307 1.307 2.692 2.57 4.064 3.81 2.637 2.38 5.068 4.985 7.705 7.366 1.644 1.484 3.181 3.087 4.826 4.572 1.402 1.266 2.812 2.558 4.148 3.894a119 119 0 0 0 4.403 4.149c1.017.918 1.946 2.025 3.471 1.496.882-.306 1.573-1.063 2.286-1.637 1.483-1.195 2.905-2.478 4.318-3.754 4.659-4.205 9.396-8.325 14.055-12.53l5.25-4.742c.4-.36.801-.722 1.185-1.1.128-.127.297-.37.508-.297.19.066.37.328.508.466l1.016 1.016c1.264 1.264 2.483 2.612 3.81 3.81 1.935 1.747 3.741 3.657 5.588 5.503l9.228 9.229 4.403 4.403 1.27 1.27c.173.173.42.35.494.592.125.409.014 1.012.014 1.44v10.752c0 1.25-.12 2.567 0 3.81.144 1.48.085 2.993.085 4.488v9.99c0 .299.117.914-.043 1.172-.154.248-.64.327-.889.451-.802.401-1.642.717-2.455 1.1-3.333 1.575-6.74 2.998-10.075 4.573-9.33 4.405-18.864 8.378-28.194 12.784-2.969 1.402-6.004 2.662-8.975 4.064-.67.317-1.368.6-2.032.932-.35.175-.88.532-1.27.564-.22.019-.48-.14-.677-.226-.426-.183-.85-.394-1.27-.592-1.485-.701-3.004-1.332-4.488-2.032-5.768-2.724-11.675-5.151-17.44-7.874-7.505-3.544-15.19-6.702-22.692-10.245-2.045-.966-4.137-1.83-6.18-2.794a44 44 0 0 0-1.863-.832c-.227-.095-.654-.187-.804-.396-.146-.201-.043-.746-.043-.987v-2.794c0-3.474-.084-6.934-.084-10.414 0-4.348.084-8.705.084-13.039 0-1.3-.04-2.608.085-3.895.045-.463-.168-1.187.042-1.608.283-.566 1.023-1.025 1.482-1.44.637-.575 1.227-1.204 1.863-1.778 1.777-1.604 3.388-3.391 5.164-4.995.947-.855 1.763-1.855 2.71-2.71 1.257-1.134 2.382-2.42 3.64-3.555 2.066-1.865 4.043-3.873 6.012-5.842 1.23-1.23 2.499-2.414 3.725-3.641.623-.623 1.275-1.51 2.032-1.947m-1.016 12.784-11.43 11.43v.085l2.822 3.471 5.532 6.774 2.568 3.132h.085l8.382-8.551 2.37-2.455 1.059-1.101-.565-.847-2.003-2.201-5.857-6.52-2.116-2.37zm50.038 12.277.254 19.22.085 8.635v5.25l.084 5.249.085 5.08 2.625-.903 2.201-.762 8.297-2.85 2.202-.763 2.624-.903.254-26.5V97.79l.085-1.524-.099-.55-1.17-.127-3.557-.424-9.06-1.1-3.555-.424z" style="fill:#020202;stroke:none"/></g></svg>