<svg xmlns="http://www.w3.org/2000/svg" width="655.36" height="655.36" viewBox="0 0 173.397 173.397"><g style="display:inline"><path d="M.339 119.634c.367.232.79.34 1.185.522 1.001.459 2.03.86 3.048 1.284 2.486 1.036 4.963 2.096 7.45 3.133 3.64 1.517 7.338 2.971 10.923 4.614 1.92.88 3.923 1.576 5.842 2.456 2.947 1.35 6.028 2.403 8.974 3.753 3.25 1.49 6.605 2.787 9.906 4.163.792.33 1.575.681 2.371 1.002.265.106.64.375.931.31.242-.053.475-.274.678-.409.584-.39 1.125-.831 1.693-1.242 1.611-1.163 3.3-2.223 4.91-3.386s3.346-2.118 4.996-3.218c3.599-2.4 7.157-4.856 10.753-7.253 1.59-1.06 3.147-2.155 4.741-3.217.513-.343 1.301-1.127 1.947-1.073 1.845.154 3.728.085 5.588.085 1.054 0 2.08.085 3.133.085h2.625c.381 0 .905-.093 1.27.028.642.214 1.299.838 1.862 1.213 1.42.948 2.814 1.933 4.234 2.88 5.353 3.568 10.645 7.237 16.002 10.808 1.531 1.021 3.04 2.083 4.572 3.105.559.372 1.295 1.093 1.947 1.256.333.083.727-.178 1.016-.31.862-.396 1.763-.707 2.625-1.102 3.114-1.427 6.369-2.552 9.482-3.979 1.833-.84 3.756-1.474 5.588-2.314 7.259-3.327 14.84-5.958 22.098-9.285 2.392-1.096 4.892-1.953 7.282-3.048 1.046-.48 2.235-.775 3.217-1.369-1.35-7.325-3.742-14.653-6.844-21.42-1.062-2.319-2.075-4.644-3.16-6.943-1.302-2.756-2.902-5.425-4.502-8.044-7.57-12.387-18.266-23.112-31.13-29.901-5.243-2.768-10.745-4.932-16.51-6.534-1.514-.42-3.036-.76-4.571-1.1-.658-.146-1.356-.377-2.032-.395.293-1.595.82-3.168 1.213-4.742.1-.395.191-.795.31-1.185.057-.185.197-.483.156-.677-.076-.36-.824-.838-1.087-1.101a82 82 0 0 0-3.048-2.879c-.959-.866-1.88-1.795-2.794-2.709-.399-.4-.936-1.06-1.439-1.312-.28-.14-.792-.043-1.1-.043H75.606c-.271 0-.613-.063-.846.1-.631.437-1.126 1.08-1.694 1.594-1.289 1.163-2.52 2.391-3.81 3.556-.478.432-.937.922-1.439 1.326-.272.22-.754.54-.889.875-.051.127.018.296.042.423.077.397.17.794.268 1.186.33 1.319.574 2.66.904 3.979.104.42.205.844.282 1.27.033.185.096.346-.099.466-.192.118-.542.11-.762.155-.65.135-1.304.262-1.947.423-2.102.526-4.176 1.113-6.266 1.694-1.493.414-2.964.992-4.402 1.552-4.522 1.758-8.814 3.792-12.954 6.322-7.558 4.618-14.457 10.604-20.01 17.497-2.171 2.696-4.398 5.42-6.209 8.382-1.85 3.028-3.65 6.033-5.291 9.144C5.638 99.268 2.228 109.38.339 119.634Z" id="crypt_svg" display="inline" fill="#fff" stroke="#000" stroke-width="2"/><path d="M.339 119.634c.367.232.79.34 1.185.522 1.001.459 2.03.86 3.048 1.284 2.486 1.036 4.963 2.096 7.45 3.133 3.64 1.517 7.338 2.971 10.923 4.614 1.92.88 3.923 1.576 5.842 2.456 2.947 1.35 6.028 2.403 8.974 3.753 3.25 1.49 6.605 2.787 9.906 4.163.792.33 1.575.681 2.371 1.002.265.106.64.375.931.31.242-.053.475-.274.678-.409.584-.39 1.125-.831 1.693-1.242 1.611-1.163 3.3-2.223 4.91-3.386s3.346-2.118 4.996-3.218c3.599-2.4 7.157-4.856 10.753-7.253 1.59-1.06 3.147-2.155 4.741-3.217.513-.343 1.301-1.127 1.947-1.073 1.845.154 3.728.085 5.588.085 1.054 0 2.08.085 3.133.085h2.625c.381 0 .905-.093 1.27.028.642.214 1.299.838 1.862 1.213 1.42.948 2.814 1.933 4.234 2.88 5.353 3.568 10.645 7.237 16.002 10.808 1.531 1.021 3.04 2.083 4.572 3.105.559.372 1.295 1.093 1.947 1.256.333.083.727-.178 1.016-.31.862-.396 1.763-.707 2.625-1.102 3.114-1.427 6.369-2.552 9.482-3.979 1.833-.84 3.756-1.474 5.588-2.314 7.259-3.327 14.84-5.958 22.098-9.285 2.392-1.096 4.892-1.953 7.282-3.048 1.046-.48 2.235-.775 3.217-1.369-1.35-7.325-3.742-14.653-6.844-21.42-1.062-2.319-2.075-4.644-3.16-6.943-1.302-2.756-2.902-5.425-4.502-8.044-7.57-12.387-18.266-23.112-31.13-29.901-5.243-2.768-10.745-4.932-16.51-6.534-1.514-.42-3.036-.76-4.571-1.1-.658-.146-1.356-.377-2.032-.395.293-1.595.82-3.168 1.213-4.742.1-.395.191-.795.31-1.185.057-.185.197-.483.156-.677-.076-.36-.824-.838-1.087-1.101a82 82 0 0 0-3.048-2.879c-.959-.866-1.88-1.795-2.794-2.709-.399-.4-.936-1.06-1.439-1.312-.28-.14-.792-.043-1.1-.043H75.606c-.271 0-.613-.063-.846.1-.631.437-1.126 1.08-1.694 1.594-1.289 1.163-2.52 2.391-3.81 3.556-.478.432-.937.922-1.439 1.326-.272.22-.754.54-.889.875-.051.127.018.296.042.423.077.397.17.794.268 1.186.33 1.319.574 2.66.904 3.979.104.42.205.844.282 1.27.033.185.096.346-.099.466-.192.118-.542.11-.762.155-.65.135-1.304.262-1.947.423-2.102.526-4.176 1.113-6.266 1.694-1.493.414-2.964.992-4.402 1.552-4.522 1.758-8.814 3.792-12.954 6.322-7.558 4.618-14.457 10.604-20.01 17.497-2.171 2.696-4.398 5.42-6.209 8.382-1.85 3.028-3.65 6.033-5.291 9.144C5.638 99.268 2.228 109.38.339 119.634m76.623-84.399 1.355-.014h16.002l1.439.043.847.776 2.794 2.653.677.677.41.423-.212.932-.593 2.286-2.16 8.297-2.962 11.43-.72 2.71-.367 1.001-.931.014h-2.202l-3.471.085-4.657.17h-2.286l-1.157.042-.268-.974-.635-2.794-2.54-11.176-2.117-9.313L72.7 40.3l-.183-1.016.974-.931 2.201-2.032zm78.74 85.754c-.176-.607-.23-1.244-.367-1.863-.32-1.44-.621-2.897-1.016-4.318-1.1-3.963-2.38-7.97-4.134-11.684-1.899-4.02-4.067-7.949-6.703-11.6-1.66-2.298-3.495-4.419-5.39-6.519-.863-.955-1.752-1.928-2.71-2.794A98 98 0 0 0 127 75.466c-3.19-2.303-6.735-4.057-10.245-5.715-3.79-1.79-7.81-3.04-11.853-4.163-1.23-.341-2.476-.586-3.725-.846-.579-.12-1.186-.31-1.778-.31.015-.574.242-1.145.395-1.694.21-.758.381-1.527.592-2.286.663-2.383 1.263-4.796 1.863-7.197.22-.876.458-1.748.677-2.624.056-.224.083-.756.297-.89.248-.154 1.056.157 1.34.212a80 80 0 0 1 4.149.946c5.814 1.453 11.32 3.724 16.595 6.434a54.6 54.6 0 0 1 6.942 4.276c3.188 2.302 6.144 4.762 9.06 7.394 2.17 1.96 3.995 4.262 5.926 6.435 1.72 1.935 3.172 4.086 4.685 6.18 4.02 5.566 7.123 11.762 9.737 18.035 1.654 3.97 3.146 8.095 4.19 12.276.248.988.5 1.969.72 2.964.055.246.326.858.184 1.086-.11.176-.539.28-.72.367-.75.365-1.53.66-2.286 1.016-1.621.766-3.287 1.435-4.91 2.201-1.024.484-2.075 1.036-3.133 1.426m-86.021-71.12 2.399 10.583.592 2.625.31 1.524c-.571 0-1.139.187-1.693.31-1.194.265-2.377.52-3.556.847-3.942 1.095-7.828 2.422-11.514 4.163-6.477 3.058-12.342 7.033-17.696 11.867-2.427 2.19-4.632 4.71-6.632 7.281-7.18 9.231-11.825 20.088-13.942 31.581-.92-.29-1.813-.712-2.709-1.072l-5.673-2.286-2.37-.946c-.206-.083-.682-.17-.805-.367-.087-.14.021-.352.057-.494.083-.333.16-.678.226-1.016.323-1.665.886-3.276 1.34-4.91 1.816-6.537 4.678-12.79 7.804-18.712 3.027-5.736 6.736-11.416 11.105-16.256 1.706-1.89 3.35-3.872 5.25-5.588 3.039-2.744 6.16-5.277 9.482-7.676 3.901-2.818 8.216-4.838 12.53-6.816 3.276-1.501 6.779-2.522 10.245-3.485 1.179-.328 2.362-.582 3.556-.847.554-.123 1.122-.31 1.694-.31m76.962 74.845a60 60 0 0 0-4.234 1.764c-1.334.611-2.731 1.082-4.064 1.693-2.637 1.209-5.406 2.122-8.043 3.33-1.137.521-2.311.987-3.471 1.454-.437.176-1.045.598-1.524.564-.256-.017-.465-.197-.678-.324-.461-.276-1.023-.492-1.439-.833-.23-.188-.133-.37-.07-.62q.165-.674.296-1.355c.355-1.827.451-3.723.451-5.588 0-4.684-.837-9.212-2.088-13.716-.493-1.774-1.122-3.59-1.905-5.25-1.222-2.587-2.55-5.1-4.248-7.45-1.462-2.026-3.2-3.832-5.051-5.504-1.073-.968-2.235-1.925-3.472-2.68-1.916-1.172-3.837-2.236-5.926-3.049a35.8 35.8 0 0 0-9.398-2.23c-1.152-.111-2.319-.057-3.472-.169-1.404-.136-2.83-.051-4.233.085-1.65.16-3.279.28-4.91.62-3.12.65-6.176 1.726-8.975 3.204-4.606 2.431-8.372 6.12-11.402 10.315-3.475 4.812-5.799 10.642-7.084 16.426-.415 1.866-.888 3.771-1.072 5.672-.255 2.62-.682 5.387-.424 8.044.068.693.065 1.432.198 2.116.04.211.206.728.099.918-.168.294-.848.553-1.143.705-.34.175-.73.547-1.101.635-.321.076-.889-.261-1.185-.38a58 58 0 0 0-2.625-1.003c-1.918-.666-3.802-1.506-5.673-2.286-1.72-.716-3.474-1.356-5.164-2.13-1.45-.665-2.956-1.2-4.403-1.863-.64-.293-1.355-.487-1.947-.861 1.294-4.098 2.995-8.05 4.896-11.853 5.274-10.547 12.371-20.26 21.774-27.573 2.59-2.015 5.426-3.692 8.297-5.207 2.715-1.433 5.65-2.684 8.636-3.514 2.818-.783 5.724-1.523 8.636-1.806 1.297-.126 2.598-.213 3.895-.339.8-.078 1.65 0 2.455 0 1.973 0 3.895.065 5.842.254 6.835.665 13.575 2.654 19.643 5.856 7.73 4.08 14.534 10.038 20.01 16.835 2.139 2.656 4.228 5.38 6.01 8.297 1.508 2.467 3.02 4.91 4.36 7.45 1.023 1.937 1.886 3.942 2.823 5.927.534 1.132.983 2.305 1.454 3.472.244.606.597 1.29.649 1.947M78.57 94.319c-.357.616-1.16 1.126-1.694 1.608-.592.535-1.157 1.184-1.693 1.778-1.514 1.677-2.838 3.729-3.796 5.758-1.259 2.666-2.206 5.524-2.92 8.382-.184.73-.407 1.447-.48 2.201-.18 1.836-.415 3.667-.593 5.503-.056.575.144 1.328-.127 1.863-.111.219-.36.354-.55.494-.513.377-1.066.65-1.61.974-1.314.785-2.646 1.554-3.894 2.455-.695.502-1.539 1.361-2.37 1.58-.297-1.025-.255-2.233-.255-3.302 0-.484-.132-.95-.084-1.439.128-1.324.21-2.656.338-3.98.82-8.43 5.425-17.287 13.124-21.35 1.631-.86 3.28-1.63 5.08-2.13.5-.14 1.004-.354 1.524-.395m35.814 32.512c-.79-.312-1.514-1-2.202-1.496-1.25-.903-2.588-1.657-3.894-2.455-.54-.33-1.096-.597-1.609-.974-.19-.14-.44-.275-.55-.494-.15-.295-.127-.776-.127-1.1 0-.594-.028-1.19-.085-1.779-.183-1.886-.343-3.806-.706-5.672-.422-2.173-1.149-4.298-1.975-6.35-.577-1.433-1.102-2.872-1.82-4.234-1.05-1.99-2.5-3.8-4.05-5.418-.723-.754-1.429-1.592-2.286-2.202.188-.128.364-.007.592.057.603.167 1.188.36 1.778.564 2.532.88 4.797 2.186 6.943 3.796 6.394 4.795 9.413 12.704 10.16 20.39.142 1.467.228 2.93.085 4.403-.096.982.022 2.01-.254 2.964" style="display:inline;fill:#020202;stroke:none"/></g></svg>