<svg xmlns="http://www.w3.org/2000/svg" xml:space="preserve" width="655.36" height="655.36" viewBox="0 0 173.397 173.397"><g style="display:inline"><path d="M77.216 23.622c-1.225-.226-2.432-.643-3.64-.945-2.248-.562-4.512-1.064-6.774-1.567-7.77-1.726-15.656-2.903-23.537-3.669-2.367-.23-4.744-.362-7.112-.592-1.032-.1-2.094-.254-3.133-.254.283.767.788 1.475 1.171 2.201l1.355 2.54a50 50 0 0 1 3.88 9.737c1.73 6.226 3.13 12.546 3.754 18.965.236 2.423.357 4.858.593 7.281.133 1.374-.05 2.775.084 4.149a33.2 33.2 0 0 1 0 6.265c-.078.811.08 1.645 0 2.456-.177 1.827-.16 3.675-.338 5.503-.523 5.377-1.22 10.7-2.4 16.002-.482 2.174-1.181 4.289-1.777 6.435-.23.823-.667 1.687-.734 2.54l5.503-1.327 9.229-1.721 3.302-.508 10.583-1.101 9.991-.508v28.025c-.563 0-1.135-.115-1.693-.17-1.214-.118-2.427-.22-3.641-.338-1.334-.13-2.648-.445-3.98-.593-2.757-.306-5.52-.992-8.212-1.665-5.891-1.473-11.604-3.62-16.764-6.773-2.539-1.552-5.027-3.4-7.027-5.617a24 24 0 0 1-1.637-2.032c-.266-.368-.61-.757-.776-1.185-.085-.217-.02-.452-.043-.677-.05-.509-.12-1.015-.169-1.524-.128-1.322-.416-2.679-.706-3.98-.597-2.686-1.501-5.367-2.78-7.789-.708-1.342-1.618-2.649-2.695-3.725-3.477-3.478-8.177-4.955-12.954-5.419-.94-.091-1.95-.006-2.878.085-1.007.098-2.042-.098-3.048 0-1.492.145-3.073.169-4.572.169 0 .761.096 1.531.169 2.286.167 1.714.087 3.45.254 5.165.108 1.113.238 2.268.254 3.386.013.934.17 1.866.17 2.794 0 .251-.114.885.112 1.059.153.117.47.025.65.042.512.05 1.001.085 1.523.085 1.84 0 3.759-.009 5.588.169.87.084 1.712.72 2.371 1.242 1.468 1.162 2.79 2.843 3.627 4.515 1.031 2.064 1.71 4.38 2.328 6.604 1.213 4.367 2.152 8.77 3.076 13.208.518 2.484.656 5.159 1.58 7.536 1.225 3.149 3.128 5.79 5.391 8.297 1.77 1.96 4.104 3.65 6.35 5.024 6.242 3.814 13.087 6.2 20.235 7.789 6.038 1.342 12.086 1.917 18.204 2.512 1.602.155 3.225.098 4.826.254.783.076 1.588-.076 2.37 0 1.59.154 3.22.084 4.826.084s3.236.07 4.826-.084c1.402-.137 2.832.051 4.234-.085 2.45-.238 4.916-.355 7.366-.593 10.965-1.066 22.46-3.302 32.088-8.918 5.595-3.263 10.714-7.903 13.095-14.026.59-1.517.766-3.081 1.073-4.657.29-1.492.556-2.994.847-4.487.933-4.801 1.978-9.663 3.527-14.309 1.26-3.78 3.025-7.912 6.858-9.723.537-.253 1.044-.128 1.609-.183a16 16 0 0 1 1.524-.085c1.78 0 3.558-.169 5.334-.169l.339-5.842.254-5.165.254-3.725c-1.5 0-3.08-.024-4.572-.17-.979-.095-1.985.096-2.964 0a17.5 17.5 0 0 0-3.386 0c-4.322.42-8.785 2.8-11.684 6.012-1.69 1.871-2.988 4.016-4.05 6.265-1.484 3.142-2.447 6.628-3.288 9.991a86 86 0 0 0-.762 3.302c-.138.66-.175 1.417-.466 2.032-.591 1.253-1.671 2.378-2.695 3.302-2.145 1.936-4.715 3.29-7.281 4.501a39 39 0 0 1-6.181 2.3c-3.823 1.062-7.733 2.158-11.684 2.597-2.007.223-4.001.567-6.011.762-1.155.112-2.316.142-3.472.254-2.37.23-4.808.423-7.196.423V95.758c7.025.555 14.058 1.05 20.997 2.399 2.327.452 4.643.949 6.943 1.524.65.162 1.302.329 1.947.508.295.082.706.298 1.016.268.216-.021.365-.238.508-.381.382-.382.72-.8 1.1-1.185 1.595-1.617 2.936-3.497 4.262-5.334 3.586-4.965 5.889-10.764 7.056-16.764.315-1.62.462-3.274.62-4.911.033-.336-.032-.68 0-1.016a24.4 24.4 0 0 0 0-4.657c-.075-.782.038-1.597-.112-2.37-.181-.93-.219-1.934-.31-2.879-.19-1.952-.647-3.924-1.073-5.842-.17-.767-.36-1.525-.55-2.286-.08-.32-.104-.807-.283-1.087-.135-.211-.437-.36-.635-.508-.476-.357-.963-.7-1.439-1.058-1.906-1.43-3.891-2.82-5.927-4.064-4.096-2.503-8.142-5.012-12.361-7.239-3.706-1.956-7.547-3.625-11.345-5.419-2.25-1.062-4.618-1.96-6.943-2.864-.816-.317-1.64-.614-2.455-.931-.272-.106-.712-.163-.918-.381-.178-.19-.098-.592-.098-.833V17.611c0-.278.07-.667-.014-.932-.079-.246-.376-.372-.579-.508-.475-.317-.963-.613-1.44-.931-1.453-.97-2.948-1.881-4.402-2.85-.476-.318-.961-.62-1.44-.932-.227-.148-.5-.417-.761-.494-.298-.086-.69.308-.932.452-.912.545-1.802 1.125-2.709 1.68-1.298.792-2.588 1.604-3.895 2.384-.37.22-.73.456-1.1.677-.167.1-.44.213-.55.381-.094.143-.043.403-.043.565v6.519z" id="shipyard_svg" display="inline" fill="#fff" stroke="#000" stroke-width="2"/><path d="M77.216 23.622c-1.225-.226-2.432-.643-3.64-.945-2.248-.562-4.512-1.064-6.774-1.567-7.77-1.726-15.656-2.903-23.537-3.669-2.367-.23-4.744-.362-7.112-.592-1.032-.1-2.094-.254-3.133-.254.283.767.788 1.475 1.171 2.201l1.355 2.54a50 50 0 0 1 3.88 9.737c1.73 6.226 3.13 12.546 3.754 18.965.236 2.423.357 4.858.593 7.281.133 1.374-.05 2.775.084 4.149a33.2 33.2 0 0 1 0 6.265c-.078.811.08 1.645 0 2.456-.177 1.827-.16 3.675-.338 5.503-.523 5.377-1.22 10.7-2.4 16.002-.482 2.174-1.181 4.289-1.777 6.435-.23.823-.667 1.687-.734 2.54l5.503-1.327 9.229-1.721 3.302-.508 10.583-1.101 9.991-.508v28.025c-.563 0-1.135-.115-1.693-.17-1.214-.118-2.427-.22-3.641-.338-1.334-.13-2.648-.445-3.98-.593-2.757-.306-5.52-.992-8.212-1.665-5.891-1.473-11.604-3.62-16.764-6.773-2.539-1.552-5.027-3.4-7.027-5.617a24 24 0 0 1-1.637-2.032c-.266-.368-.61-.757-.776-1.185-.085-.217-.02-.452-.043-.677-.05-.509-.12-1.015-.169-1.524-.128-1.322-.416-2.679-.706-3.98-.597-2.686-1.501-5.367-2.78-7.789-.708-1.342-1.618-2.649-2.695-3.725-3.477-3.478-8.177-4.955-12.954-5.419-.94-.091-1.95-.006-2.878.085-1.007.098-2.042-.098-3.048 0-1.492.145-3.073.169-4.572.169 0 .761.096 1.531.169 2.286.167 1.714.087 3.45.254 5.165.108 1.113.238 2.268.254 3.386.013.934.17 1.866.17 2.794 0 .251-.114.885.112 1.059.153.117.47.025.65.042.512.05 1.001.085 1.523.085 1.84 0 3.759-.009 5.588.169.87.084 1.712.72 2.371 1.242 1.468 1.162 2.79 2.843 3.627 4.515 1.031 2.064 1.71 4.38 2.328 6.604 1.213 4.367 2.152 8.77 3.076 13.208.518 2.484.656 5.159 1.58 7.536 1.225 3.149 3.128 5.79 5.391 8.297 1.77 1.96 4.104 3.65 6.35 5.024 6.242 3.814 13.087 6.2 20.235 7.789 6.038 1.342 12.086 1.917 18.204 2.512 1.602.155 3.225.098 4.826.254.783.076 1.588-.076 2.37 0 1.59.154 3.22.084 4.826.084s3.236.07 4.826-.084c1.402-.137 2.832.051 4.234-.085 2.45-.238 4.916-.355 7.366-.593 10.965-1.066 22.46-3.302 32.088-8.918 5.595-3.263 10.714-7.903 13.095-14.026.59-1.517.766-3.081 1.073-4.657.29-1.492.556-2.994.847-4.487.933-4.801 1.978-9.663 3.527-14.309 1.26-3.78 3.025-7.912 6.858-9.723.537-.253 1.044-.128 1.609-.183a16 16 0 0 1 1.524-.085c1.78 0 3.558-.169 5.334-.169l.339-5.842.254-5.165.254-3.725c-1.5 0-3.08-.024-4.572-.17-.979-.095-1.985.096-2.964 0a17.5 17.5 0 0 0-3.386 0c-4.322.42-8.785 2.8-11.684 6.012-1.69 1.871-2.988 4.016-4.05 6.265-1.484 3.142-2.447 6.628-3.288 9.991a86 86 0 0 0-.762 3.302c-.138.66-.175 1.417-.466 2.032-.591 1.253-1.671 2.378-2.695 3.302-2.145 1.936-4.715 3.29-7.281 4.501a39 39 0 0 1-6.181 2.3c-3.823 1.062-7.733 2.158-11.684 2.597-2.007.223-4.001.567-6.011.762-1.155.112-2.316.142-3.472.254-2.37.23-4.808.423-7.196.423V95.758c7.025.555 14.058 1.05 20.997 2.399 2.327.452 4.643.949 6.943 1.524.65.162 1.302.329 1.947.508.295.082.706.298 1.016.268.216-.021.365-.238.508-.381.382-.382.72-.8 1.1-1.185 1.595-1.617 2.936-3.497 4.262-5.334 3.586-4.965 5.889-10.764 7.056-16.764.315-1.62.462-3.274.62-4.911.033-.336-.032-.68 0-1.016a24.4 24.4 0 0 0 0-4.657c-.075-.782.038-1.597-.112-2.37-.181-.93-.219-1.934-.31-2.879-.19-1.952-.647-3.924-1.073-5.842-.17-.767-.36-1.525-.55-2.286-.08-.32-.104-.807-.283-1.087-.135-.211-.437-.36-.635-.508-.476-.357-.963-.7-1.439-1.058-1.906-1.43-3.891-2.82-5.927-4.064-4.096-2.503-8.142-5.012-12.361-7.239-3.706-1.956-7.547-3.625-11.345-5.419-2.25-1.062-4.618-1.96-6.943-2.864-.816-.317-1.64-.614-2.455-.931-.272-.106-.712-.163-.918-.381-.178-.19-.098-.592-.098-.833V17.611c0-.278.07-.667-.014-.932-.079-.246-.376-.372-.579-.508-.475-.317-.963-.613-1.44-.931-1.453-.97-2.948-1.881-4.402-2.85-.476-.318-.961-.62-1.44-.932-.227-.148-.5-.417-.761-.494-.298-.086-.69.308-.932.452-.912.545-1.802 1.125-2.709 1.68-1.298.792-2.588 1.604-3.895 2.384-.37.22-.73.456-1.1.677-.167.1-.44.213-.55.381-.094.143-.043.403-.043.565v6.519m12.785 3.895-5.673-1.835-1.44-.423-.55-.212-.042-.663V20.32l.042-.931 1.482-.96 1.778-1.1.677-.367.932.536 1.947 1.27.804.564.043.65v7.535M45.889 93.726c.026-.99.434-2.078.65-3.048.468-2.107.89-4.296 1.128-6.435.204-1.836.499-3.664.678-5.503.17-1.747.253-3.503.423-5.25.035-.363-.035-.737 0-1.1.078-.801.17-1.65.17-2.455 0-.75-.073-1.54 0-2.286a31.4 31.4 0 0 0 0-5.927c-.082-.839.08-1.701 0-2.54-.305-3.126-.374-6.274-.678-9.398-.493-5.067-1.46-10.085-2.568-15.07a61 61 0 0 0-2.625-8.721c-.285-.733-.553-1.473-.847-2.202-.19-.473-.459-.94-.564-1.439 7.018.554 14.081 1.664 20.997 3.104 5.121 1.067 10.203 2.214 15.24 3.613a194 194 0 0 1 30.819 11.472 164 164 0 0 1 12.615 6.647c1.812 1.056 3.544 2.235 5.334 3.33a64 64 0 0 1 5.758 3.95c.6.466.643 1.639.79 2.343.481 2.31.845 4.606 1.072 6.943.631 6.489.06 13.116-2.399 19.22-.823 2.044-1.84 3.957-2.991 5.841-.943 1.543-2.012 2.987-3.133 4.403-.338.427-.803 1.24-1.298 1.482-.368.179-1.302-.213-1.693-.31-1.485-.372-2.989-.662-4.488-.974-5.618-1.17-11.33-1.762-17.018-2.315-2.532-.246-5.087-.261-7.62-.508-1.487-.144-3-.024-4.487-.169-1.566-.152-3.176.152-4.741 0-1.032-.1-2.013 0-3.048 0-1.523 0-3.065-.062-4.572.085-1.374.133-2.776-.05-4.149.084-3.181.31-6.387.368-9.567.678-3.654.355-7.396.68-11.007 1.383-1.397.271-2.822.537-4.233.733-.65.09-1.29.339-1.948.339m119.465-6.52-.254 4.911c-.689 0-1.353.019-2.032.085-.844.082-1.622-.034-2.455.198-3.659 1.016-6.714 4.244-8.481 7.507-1.623 2.996-2.574 6.284-3.486 9.567-1.299 4.678-2.234 9.457-3.16 14.224-.284 1.46-.42 2.97-.819 4.403-.58 2.089-1.868 3.998-3.217 5.672-3.493 4.336-8.439 6.908-13.35 9.158-2.782 1.276-5.781 2.077-8.72 2.893-6.23 1.73-12.665 2.4-19.05 3.02-2.949.287-5.94.137-8.89.423-1.492.145-3.072 0-4.572 0-2.846 0-5.73.02-8.551-.254-.815-.079-1.641-.005-2.456-.084-1.945-.19-3.896-.32-5.842-.508-3.396-.33-6.807-.882-10.16-1.58-5.487-1.144-10.985-2.671-16.002-5.18-4.326-2.163-8.594-4.9-11.486-8.904-1.102-1.525-2.034-3.173-2.54-4.995-.448-1.61-.583-3.35-.903-4.995-.924-4.752-1.951-9.48-3.246-14.14-.843-3.036-1.77-6.182-3.386-8.89-1.894-3.17-4.741-6.318-8.41-7.337-.834-.232-1.612-.116-2.456-.198-.706-.069-1.4-.085-2.117-.085l-.254-4.91c.723 0 1.483.07 2.202 0 .876-.086 1.821-.171 2.709-.085 1.639.16 3.36.441 4.91 1.044 1.447.563 2.897 1.289 4.065 2.343 3.066 2.768 4.206 7.18 4.967 11.09.194 1 .353 2.038.451 3.049.062.637-.044 1.432.198 2.032.39.97 1.023 1.86 1.637 2.71a28.1 28.1 0 0 0 5.108 5.39c5.776 4.652 12.58 8.005 19.727 9.99 2.474.688 4.945 1.278 7.451 1.835 3 .666 6.095 1.2 9.144 1.496 2.987.29 5.986.471 8.975.762 1.57.152 3.17.016 4.741.169.995.097 2.048 0 3.048 0 1.55 0 3.122.065 4.657-.085.866-.084 1.758.085 2.624 0 1.377-.134 2.772-.12 4.149-.254 1.745-.17 3.505-.169 5.25-.338 5.128-.5 10.189-1.305 15.24-2.428 2.449-.544 4.933-1.203 7.28-2.116 4.683-1.821 9.163-3.802 12.955-7.225 1.609-1.453 3.138-3.317 3.95-5.334.277-.685.33-1.482.48-2.201.283-1.358.561-2.73.932-4.064 1.667-6.003 3.499-12.54 9.2-15.946.776-.463 1.593-.87 2.456-1.157 1.043-.348 2.122-.656 3.217-.762.782-.076 1.6.01 2.37.085.719.07 1.48 0 2.202 0m-75.353 8.382v28.363l-5.504-.085h-1.524l-.578-.042-.099-.466V95.504h2.286z" style="fill:#020202;stroke:none"/></g></svg>