<svg xmlns="http://www.w3.org/2000/svg" xml:space="preserve" width="655.36" height="655.36" viewBox="0 0 173.397 173.397"><path d="M99.991 49.276c-.17.43-.524.803-.79 1.185a28 28 0 0 1-2.258 2.879c-.738.817-1.379 1.723-2.117 2.54-.817.905-1.623 1.816-2.356 2.794-.903 1.203-2.287 2.962-2.13 4.572.192 1.988 2.168 3.522 4.148 3.302.537-.06 1.062-.442 1.524-.692 3.036-1.644 5.266-4.668 7.535-7.182a33 33 0 0 0 1.891-2.286c.258-.344.577-.704.734-1.1.377.53.108 1.403.17 2.031.1 1.043.38 1.983 1.184 2.71 1.696 1.53 5.164 1.456 6.252-.847.591-1.253.311-2.829.183-4.149-.153-1.572-.016-3.168-.17-4.741-.09-.94-.266-1.933-.253-2.879.007-.483.704-1.075.988-1.44.607-.78 1.2-1.789 1.298-2.793.122-1.258.137-2.645-.762-3.64-.28-.311-.659-.55-1.016-.763-1.73-1.032-3.748-.182-5.165.96-.513.413-1.076 1.244-1.693 1.467-.687.248-1.505.096-2.202.029-.9-.088-1.807-.082-2.709-.17-1.875-.182-3.924-.164-5.419 1.186-1.711 1.545-1.801 4.327-.084 5.912.776.717 2.183 1.115 3.217 1.115M63.84 65.616c-.43.528-.903 1.072-1.44 1.496-1.125.89-2.56 1.848-3.104 3.246-.079.202-.042.388-.085.593-.183.877-.249 1.895.226 2.709.614 1.053 1.984 1.556 3.133 1.157.325-.113.622-.34.93-.494 1.406-.703 2.658-1.676 3.896-2.639.373-.29.742-.594 1.1-.903.25-.215.583-.559.932-.592.25-.025.468.132.677.24.606.31 1.08.829 1.609 1.255 1.14.919 2.099 2.005 3.386 2.738 1.417.806 3.883.64 4.996-.593.707-.784.626-1.52.366-2.455-.45-1.621-1.834-2.738-2.991-3.895l-1.185-1.185c-.158-.158-.44-.341-.353-.593.197-.567 1.054-1.087 1.538-1.383 1.148-.701 2.583-1.557 3.104-2.85.448-1.113.49-2.89-.07-3.98-.212-.412-.609-.758-.917-1.1-.402-.445-.784-.91-1.186-1.355-1.185-1.313-2.252-2.72-3.64-3.838-.627-.505-1.217-1.04-1.863-1.524-.356-.267-.724-.598-1.185-.65-1.093-.12-2.266.165-3.218.706-.24.137-.435.335-.677.466-1.506.816-2.854 1.885-4.318 2.78-1.053.643-2.17 1.284-3.133 2.06-.946.762-2.44 1.716-2.624 3.048-.067.478.103.83.225 1.27.595 2.142 2.497 3.463 4.177 4.77.587.456 1.109 1.08 1.694 1.496m7.112-8.453c.827-.16 1.873.646 2.356 1.256.198.25.32.613.24.931-.09.363-.366.54-.65.748-.696.513-1.49 1.206-2.37 1.34-.904.139-1.847-.777-2.455-1.326-.214-.193-.772-.47-.663-.832.081-.272.616-.437.832-.593.767-.554 1.766-1.34 2.71-1.524M143 79.841c.66.173 1.204.718 1.948.677 2.445-.136 4.472-2.46 4.233-4.91-.078-.811-.458-1.605-.875-2.287-.16-.264-.621-.637-.677-.931-.037-.197.312-.373.423-.508.332-.401.64-.886.861-1.355.786-1.663-.147-3.857-1.594-4.882-.856-.607-1.779-.706-2.794-.706-.528 0-1.084-.05-1.609 0-.324.032-.55.234-.847.325-.646.197-1.368.262-2.032.409-1.495.332-2.95.742-4.402 1.185-2.174.664-4.414 1.142-6.604 1.75-1.09.303-2.122.855-3.218 1.129-.602.15-1.184.335-1.778.508-.717.21-1.483.23-2.2.48-2.41.837-4.51 3.288-3.204 5.898.226.452.564.912.917 1.27.576.584 1.24 1.084 2.032 1.327.542.165 1.134.113 1.693.113 1.61 0 3.046-.352 4.572-.819.665-.203 1.359-.311 2.032-.48.59-.147 1.182-.222 1.778-.338.244-.048.694-.252.932-.17.23.08.393.355.536.537.318.401.645.805.988 1.185 1.14 1.262 2.495 2.658 4.233 3.02 1.724.359 4.248-.484 4.657-2.427M73.067 65.447l-.17.254.17-.254m-5.503 51.816c-.622 1.125-1.503 2.172-2.258 3.217-.971 1.345-1.795 2.901-2.483 4.403-.341.744-.532 1.53-.847 2.286-1.012 2.428-1.88 4.97-3.133 7.281-1.512 2.792-3.421 5.284-5.672 7.536-2.073 2.072-4.797 3.226-7.197 4.826-1.145.763-2.442 1.447-2.286 3.048.193 1.981 2.334 3.175 3.98 3.838 1.292.52 2.616 1.08 3.979 1.383 1.241.276 2.47.33 3.725.451.853.083 1.685.34 2.54.424 1.007.098 2.03.084 3.048.084-.267.435-.673.805-1.016 1.186-1.243 1.376-2.567 2.687-3.81 4.064-.663.734-1.501 1.526-1.242 2.624.165.698.82 1.257 1.496 1.454.91.266 1.859.318 2.794.41 1.008.097 1.953.267 2.963.168 1.486-.144 3.002.06 4.488-.084 2.527-.246 5.128-.356 7.62-.875 1.241-.259 2.44-.644 3.64-1.044 1.075-.359 2.114-.817 3.133-1.313.6-.292 1.185-.543 1.693-1.002 1.65-1.489 2.417-3.955 2.625-6.096.068-.699-.059-1.416 0-2.116.103-1.241.12-2.487 0-3.726-.05-.503.049-1.02 0-1.524-.028-.285-.142-.561-.17-.846-.043-.448.044-.908 0-1.355-.142-1.461-.111-2.94-.254-4.403-.405-4.174 0-8.973 2.653-12.446.633-.828 1.517-1.41 2.343-2.017 1.032-.76 2.282-1.735 3.556-2.018.532-.119 1.113.716 1.44 1.072 1.126 1.23 2.38 2.297 3.555 3.471 1.799 1.8 3.394 3.776 5.08 5.673 2.28 2.566 4.5 5.286 6.435 8.128.643.945 1.38 1.814 2.088 2.71.346.436.727 1.02 1.214 1.312.249.148.42.042.677.056.444.025.805.224 1.27.127 1.692-.352 2.713-1.74 2.879-3.443.212-2.185-.13-4.451-.339-6.604-.14-1.444-.054-3.055.085-4.487.126-1.299 0-2.674 0-3.98 1.097.693 2.408 1.018 3.556 1.623 1.184.625 2.23 1.5 3.471 2.018 1.031.43 2.109.739 3.217.847.71.069 1.39.24 2.117.169 1.003-.097 1.865-.345 2.794-.72 1.099-.442 2.082-.87 3.048-1.594 2.95-2.212 4.333-5.76 5.193-9.2.334-1.337.6-2.696.734-4.065.04-.419-.041-.85 0-1.27.113-1.16.197-2.31.084-3.47-.07-.728.071-1.475 0-2.202-.074-.763-.18-1.523-.254-2.286-.145-1.498-.684-2.984-1.157-4.403-.3-.9-.565-1.844-.973-2.71-.419-.885-.967-1.697-1.482-2.54-1.726-2.823-4.13-5.337-7.14-6.758-3.422-1.616-7.58-.872-11.176-.523-.657.064-1.303-.075-1.947-.084-.828-.012-1.638-.005-2.456-.085-.67-.065-1.36.065-2.032 0-1.488-.145-3-.11-4.487-.254-.531-.052-1.078.052-1.609 0-.235-.023-.442-.146-.677-.17-.987-.095-1.978-.157-2.963-.253-.981-.096-1.984.01-2.964-.085-1.877-.182-3.784.268-5.672.085-1.195-.116-2.364-.63-3.556-.762-2.636-.293-5.28-.913-7.79-1.75-2.465-.822-4.995-1.463-7.366-2.582-1.577-.745-3.196-1.496-4.656-2.47-1.216-.81-2.373-1.713-3.556-2.568-1.234-.89-2.656-1.532-3.895-2.427-1.62-1.17-3.206-2.386-4.826-3.556-1.517-1.096-2.967-2.259-4.572-3.217-1.056-.631-2.03-1.359-3.217-1.722-1.015-.31-2.255-.3-3.302-.198-1.084.106-2.03.564-3.048.904-1.002.333-2.046.555-3.048.903-1.4.486-2.72 1.262-3.98 2.032-1.663 1.016-3.183 2.422-4.487 3.866-.449.497-.794 1.088-1.214 1.609-.428.532-.968.981-1.382 1.524-1.199 1.568-2.036 3.52-2.766 5.334-1.004 2.492-1.85 4.98-2.4 7.62-.188.906-.192 1.874-.281 2.794-.045.462.04.903.084 1.354.044.448-.043.908 0 1.355.042.425.128.844.17 1.27.076.787.353 1.611.564 2.37.382 1.374.753 2.736 1.27 4.065 1.215 3.123 2.456 6.864 5.193 9.03.689.546 1.45.945 2.201 1.384.384.224.715.539 1.101.748a6 6 0 0 0 2.286.691c1.556.151 2.943-.538 4.403-.903 2.079-.52 4.215-1.175 6.35-1.383 4.545-.442 9.19-.27 13.716.17 1.048.101 2.085.32 3.132.423.465.045.902.038 1.355.17m70.273-43.18-.085.084.085-.085M111.76 96.181v.085l-.593.084v-.169h.593m1.524 34.544v.423h-.085z" id="loreSeeker_svg" display="inline" fill="#fff" stroke="#000" stroke-width="2"/><path d="M99.991 49.36c-.77.944-1.38 2.013-2.145 2.964-1.763 2.189-3.772 4.183-5.46 6.435-.96 1.277-2.21 2.97-2.047 4.656.188 1.933 2.294 3.339 4.149 3.133.522-.058 1.072-.426 1.524-.677 1.625-.903 2.97-2.215 4.233-3.556 1.16-1.232 2.308-2.436 3.4-3.726.616-.726 1.235-1.428 1.793-2.201.259-.359.571-.69.734-1.1.223.423.037 1.04.084 1.523.09.929.205 1.942.79 2.71 1.23 1.608 3.362 1.977 5.137 1.114.668-.324 1.286-.748 1.609-1.453.6-1.31.303-2.941.17-4.318-.156-1.6-.015-3.225-.17-4.826-.05-.505-.036-1.018-.085-1.524-.036-.37-.196-.817-.155-1.185.044-.395.573-.793.804-1.101.642-.855 1.29-1.804 1.454-2.879.223-1.463.173-3.252-1.172-4.205-1.822-1.29-3.883-.926-5.588.423-.594.471-1.215 1.424-1.947 1.637-.954.279-2.003.037-2.963-.056-.562-.055-1.13-.03-1.694-.085-1.406-.136-2.79-.25-4.148.297-1.452.585-2.973 2.25-2.879 3.937.034.61.312 1.244.579 1.778.2.401.434.792.776 1.1.889.802 2.133.872 3.217 1.186m7.535 1.524c-.338.26-.562.616-.846.93-.817.905-1.632 1.81-2.456 2.71-1.145 1.252-2.391 2.405-3.556 3.64-1.147 1.218-2.288 2.458-3.47 3.642-.512.51-1.053 1.005-1.525 1.552-.295.342-.656.89-1.1 1.044-.716.248-1.593-.414-1.92-.988-1.136-1.996 1.161-3.771 2.343-5.08 2.144-2.374 4.211-4.84 6.28-7.281.552-.653 1.11-1.308 1.678-1.947.355-.4.777-.792 1.016-1.27-1.107 0-2.204-.317-3.302-.424-.805-.078-1.766-.142-2.455-.62-1.347-.936-1.207-3.202.339-3.867.804-.346 1.467-.164 2.286-.085 1.53.149 3.045.423 4.572.593.606.067 1.521.422 2.116.24.442-.135.85-.825 1.13-1.171.788-.98 1.718-2.082 3.104-1.948 1.347.131 1.981 1.401 1.862 2.625-.085.877-.88 1.666-1.439 2.286-.208.23-.6.523-.663.847-.046.235.132.525.155.762l.17 1.778c.191 1.973.316 3.952.507 5.926.121 1.24.289 2.75-1.016 3.457-1.072.581-2.476.197-3.033-.917-.439-.876-.346-1.937-.438-2.878-.114-1.177-.339-2.37-.339-3.556M70.273 49.05c-.914.19-1.658.675-2.455 1.129-.84.478-1.645.984-2.455 1.524-1.983 1.322-4.236 2.49-6.012 4.092-.618.559-1.522 1.398-1.608 2.286-.054.552.123 1.09.282 1.609.56 1.834 2.481 3.23 3.95 4.332.48.36 1.037.712 1.426 1.171.103.122.325.335.296.508-.076.458-.876 1.032-1.213 1.298-.973.77-1.95 1.5-2.681 2.512-.225.312-.484.642-.593 1.016-.508 1.74.06 4.311 2.258 4.403.171.007.337.075.508.056.527-.058.972-.386 1.44-.606 1.264-.598 2.353-1.462 3.47-2.3.606-.455 1.186-.942 1.779-1.412.268-.212.556-.524.93-.451.35.067.645.316.932.508.775.516 1.428 1.213 2.117 1.834 1.343 1.212 2.641 2.217 4.487 2.37.44.038 1.008-.1 1.44-.197.419-.093.86-.276 1.185-.564.224-.2.429-.426.593-.677.468-.719.346-1.353.112-2.117-.498-1.63-1.802-2.706-2.991-3.895-.395-.395-.793-.787-1.185-1.185-.126-.127-.367-.307-.367-.508 0-.168.178-.315.282-.423a6.8 6.8 0 0 1 1.1-.932c1.242-.844 2.836-1.625 3.359-3.132.368-1.06.386-2.81-.155-3.81-.368-.68-.999-1.212-1.51-1.778-.349-.387-.667-.8-1.016-1.186-1.096-1.214-2.103-2.465-3.387-3.5-.77-.62-1.538-1.482-2.455-1.89-.48-.213-1.353-.191-1.863-.085m.424 1.68c.585-.098 1.259.03 1.665.493.206.236.328.529.536.762.29.326.623.623.931.932 1 1 1.96 2.043 2.964 3.048.767.767 2.172 1.714 2.286 2.878.04.424-.165.792-.269 1.186-.083.317-.101.638-.268.93-.382.672-1.217 1.068-1.834 1.497-.826.573-1.608 1.234-2.37 1.89-.313.27-1.154.749-1.214 1.186-.028.196.153.337.282.451.36.322.724.657 1.1.96.858.691 1.638 1.49 2.456 2.23.525.474 1.182.783 1.51 1.439.402.803.082 1.965-.833 2.258-1.023.326-1.773-.173-2.54-.79-1.19-.96-2.397-1.91-3.556-2.907-.424-.366-1.048-1.11-1.608-1.242-.238-.056-.493.133-.678.254-.473.309-.91.693-1.354 1.044-1.304 1.032-2.592 2.073-3.895 3.104-.451.358-.87.955-1.44 1.13-.563.171-1.29-.058-1.495-.65-.082-.237-.005-.517-.028-.762-.072-.731-.16-1.452.508-1.975.262-.206.576-.317.846-.508 1.084-.768 2.098-1.664 3.133-2.498.384-.31 1.232-.718 1.256-1.284.01-.222-.182-.363-.325-.508-.382-.388-.783-.738-1.185-1.1-.979-.884-1.928-1.777-2.963-2.597-.684-.541-1.558-1.052-1.92-1.891-.28-.65-.25-1.398.24-1.947.26-.292.685-.505 1.002-.734 2.142-1.547 4.293-3.082 6.435-4.629.776-.56 1.647-1.488 2.625-1.65m.423 5.093c-.874.268-1.417.985-2.201 1.383-.163.083-.337.045-.508.127-.587.281-1.152.726-1.694 1.087-.338.226-.681.446-1.016.677-.118.082-.31.172-.31.339 0 .253.636.682.818.847.91.82 1.967 1.462 2.879 2.286.239.215.838.925 1.185.804.428-.149.836-.669 1.186-.946.872-.69 1.734-1.406 2.624-2.074.326-.244 1.136-.693 1.256-1.086.18-.594-.728-.972-1.086-1.214-.245-.165-.363-.422-.537-.65-.543-.71-1.576-1.891-2.596-1.58m-.085 1.341c.769-.128 1.81.683 2.258 1.256.17.218.312.568.254.847-.166.795-1.371 1.343-2.004 1.721-.265.159-.531.36-.846.395-1.009.112-1.938-.592-2.625-1.27-.17-.167-.743-.57-.635-.846.094-.243.675-.479.889-.621.806-.538 1.729-1.319 2.71-1.482m71.966 22.677c.6.236 1.102.62 1.778.677 2.598.216 4.635-2.6 4.402-4.995-.08-.822-.508-1.695-.96-2.371-.123-.186-.564-.54-.564-.762 0-.184.302-.38.41-.508.347-.41.62-.875.846-1.355.811-1.718-.17-3.92-1.679-4.967-.9-.625-2.087-.722-3.133-.62-.443.042-.918-.076-1.354.027-.244.058-.446.202-.678.283-.431.15-.985.219-1.439.282-1.014.14-1.983.461-2.963.734-1.215.337-2.445.65-3.64 1.016-.466.142-.968.192-1.44.31-.526.132-1.007.386-1.524.536-.687.2-1.424.268-2.117.48-.822.251-1.652.563-2.455.875-.808.314-1.699.563-2.54.762-.853.201-1.729.252-2.54.635-1.64.775-2.95 1.909-3.133 3.796-.02.203-.102.384-.085.593.037.438.25.958.438 1.354.223.473.547.9.917 1.27.48.48.975.921 1.609 1.186.76.317 1.578.33 2.37.254.595-.058 1.189.01 1.778-.113 1.566-.327 3.1-.818 4.657-1.186.667-.157 1.35-.3 2.032-.395.177-.024.418-.172.593-.113.225.076.361.366.508.537.508.59.997 1.202 1.524 1.778 1.098 1.2 2.455 2.198 4.064 2.511 1.634.318 3.956-.795 4.318-2.511m1.27-7.705c.223.386.612.697.931 1.016.52.52 1.035 1.058 1.524 1.609.35.392.518.917.395 1.439-.04.173-.16.333-.183.508-.04.282.022.556-.07.847-.248.772-1.17 1.132-1.92.903-.637-.195-1.155-.873-1.609-1.327-.9-.9-1.85-1.772-2.794-2.624-.328-.297-.687-.892-1.1-1.059-.404-.162-1.102.433-1.524.466.05.477.527.852.846 1.185.664.693 1.543 1.415 2.089 2.202.59.85.784 2.317-.31 2.864-.33.165-.678.028-1.017.127-.349.102-.722.227-1.1.127-.557-.147-1.018-.842-1.37-1.256a58 58 0 0 0-2.356-2.624c-.315-.33-.691-1.046-1.185-1.101-.359-.04-.742.219-1.1.254-.37.036-.737-.048-1.101 0-.685.09-1.363.397-2.032.564-.645.161-1.313.286-1.948.48-1.053.322-2.186.734-3.302.734-.471 0-.894.144-1.354.17-.8.044-1.648-.502-2.018-1.186-.324-.599-.447-1.44-.438-2.117.004-.308.07-.706.339-.903.151-.111.335-.098.508-.141.476-.119.976-.269 1.44-.423 1.338-.447 2.715-.774 4.063-1.186a494 494 0 0 1 12.108-3.556c1.184-.329 2.388-.659 3.556-1.016.753-.23 1.56-.558 2.37-.48.98.096 1.699.845 1.92 1.779.078.33-.005.68.028 1.016.05.519.157.941-.1 1.439-.375.731-1.473 1.063-2.186 1.27m-76.708 45.127c-.378.479-.685 1.027-1.044 1.524-1.344 1.86-2.622 3.775-3.599 5.842-.619 1.311-1.04 2.712-1.566 4.064a82 82 0 0 1-2.272 5.25c-1.497 3.17-3.811 6.11-6.42 8.466-1.997 1.803-4.439 2.965-6.69 4.403-1.235.79-2.448 1.46-2.285 3.132.19 1.962 2.376 3.108 3.98 3.754 1.382.557 2.77 1.163 4.233 1.467 1.31.273 2.654.323 3.979.452.62.06 1.235.278 1.863.339 1.036.1 2.085.084 3.132.084-.277.556-.773.97-1.171 1.44-1.06 1.251-2.238 2.393-3.4 3.556-.778.777-1.712 1.762-1.412 2.963.193.772.944 1.235 1.665 1.425.784.207 1.571.275 2.37.353 1.157.112 2.307.361 3.472.183 1.377-.21 2.846.037 4.234-.098 4.104-.4 8.145-.612 12.022-2.173 1.523-.614 3.423-1.161 4.502-2.484 1.246-1.528 1.997-3.463 2.187-5.419.054-.559-.055-1.134 0-1.693.239-2.46.068-5.007-.17-7.45-.172-1.77-.081-3.564-.253-5.335-.184-1.891-.252-3.797.112-5.672.371-1.907.892-3.745 1.891-5.419.277-.464.51-.95.875-1.355.693-.767 1.551-1.318 2.37-1.933.726-.544 1.47-.997 2.287-1.383.34-.16.712-.417 1.1-.465.469-.059.975.692 1.27.987 1.05 1.05 2.032 2.14 3.133 3.133 2.183 1.971 3.96 4.342 5.927 6.52 1.27 1.407 2.408 2.916 3.584 4.402.883 1.115 1.778 2.2 2.568 3.387.59.885 1.279 1.71 1.948 2.54.374.465.77 1.105 1.298 1.41.254.148.413.05.677.071.472.04.95.242 1.44.1.309-.09.652-.173.93-.34 1.49-.889 1.71-2.55 1.863-4.12.034-.345-.084-.672-.084-1.016 0-1.618-.183-3.224-.339-4.826-.107-1.1-.021-2.299.085-3.387.15-1.547 0-3.185 0-4.74.589.123 1.14.515 1.693.761.695.309 1.456.546 2.117.931 1.077.629 2.073 1.354 3.217 1.863 1.674.744 3.743 1.196 5.588 1.016 1.202-.117 2.364-.554 3.471-1.016 2.537-1.057 4.59-3.397 5.744-5.842.601-1.274.986-2.635 1.397-3.98a24 24 0 0 0 .903-4.656c.084-.87 0-1.754.084-2.624.087-.894.013-1.737 0-2.625-.013-.966.008-1.923-.084-2.879a20 20 0 0 0-.903-4.318c-.374-1.12-.672-2.289-1.13-3.386-.427-1.027-1.01-1.925-1.58-2.88-1.188-1.989-2.682-3.854-4.515-5.305-.934-.74-2.003-1.47-3.133-1.863-3.572-1.24-7.257-.723-10.922-.366-.408.04-.787-.046-1.185-.085-.786-.076-1.587-.009-2.37-.085-.812-.079-1.645.08-2.456 0-1.517-.147-3.057-.106-4.572-.254-.587-.057-1.191.057-1.778 0-.814-.079-1.634-.259-2.456-.338-1.095-.107-2.207-.063-3.302-.17-2.168-.21-4.36.295-6.519.085-.447-.044-.919-.202-1.355-.31-1.004-.252-2.04-.383-3.048-.593-1.591-.332-3.26-.425-4.826-.903-2.806-.858-5.644-1.692-8.381-2.794a39 39 0 0 1-5.42-2.71c-1.302-.778-2.497-1.766-3.724-2.653-1.02-.736-2.146-1.348-3.218-2.003-1.8-1.1-3.48-2.462-5.164-3.726-1.992-1.493-3.972-2.935-6.096-4.233-.911-.556-1.951-1.22-3.048-1.326-1.19-.116-2.561-.14-3.726.183-.273.076-.49.294-.762.381-.386.124-.79.229-1.185.339-1.632.453-3.2.937-4.741 1.665-1.983.936-3.798 2.318-5.42 3.782-.985.89-1.749 2.013-2.567 3.048-.4.505-.907.926-1.299 1.439-1.426 1.868-2.346 4.182-3.189 6.35-1.52 3.91-2.584 7.962-2.173 12.192.167 1.71.658 3.36 1.157 4.995.324 1.058.615 2.1 1.016 3.133 1.095 2.813 2.278 5.699 4.347 7.959.607.663 1.503 1.21 2.286 1.622 1.28.676 2.3 1.617 3.81 1.764 1.66.162 3.098-.513 4.656-.903 2.109-.527 4.264-1.172 6.435-1.383 1.024-.1 2.105-.17 3.133-.17.777 0 1.597.076 2.37 0 1.42-.137 2.975-.053 4.403.086.842.081 1.698.003 2.54.084 1.867.182 3.718.615 5.588.762m8.213-26.331v.085c-2.43 2.637-3.902 5.712-4.855 9.144-.331 1.194-.613 2.32-.733 3.556-.023.234-.147.442-.17.677-.073.757-.101 1.533-.028 2.286.02.201-.074.388-.056.593.034.42.03.854.07 1.27.026.264.158.5.184.762.042.434.005.838.112 1.27.162.646.598 1.294.65 1.947-.582 0-1.122-.114-1.694-.17-.363-.035-.737.036-1.1 0-.456-.044-.9-.21-1.355-.253-.447-.044-.907.043-1.355 0-1.462-.143-2.94-.197-4.402-.34-1.453-.14-2.972.031-4.403.17-.7.068-1.418-.068-2.117 0-2.574.25-5.13.681-7.704.932-1.753.17-3.554.742-5.25 1.213-.571.159-1.117.51-1.693.621-.18.035-.33-.045-.508-.028-.753.073-1.237.163-1.947-.212-1.57-.828-2.607-2.46-3.401-3.965-.712-1.348-1.488-2.644-2.06-4.064-.336-.833-.457-1.75-.664-2.625-.274-1.16-.573-2.313-.846-3.471-.067-.283-.202-.553-.226-.847-.02-.235.097-.446.085-.677-.015-.26-.148-.502-.17-.762-.017-.207.082-.391.07-.593a23.6 23.6 0 0 1 .1-3.556c.1-1.04.455-2.046.733-3.048.976-3.513 2.908-6.933 5.363-9.652.89-.985 1.704-2.248 2.794-3.02.807-.572 1.695-1.064 2.54-1.58.956-.584 1.74-1.382 2.794-1.806.72-.29 1.46-.38 2.2-.565.962-.24 1.967-.517 2.964-.282.918.217 1.73.744 2.456 1.298.942.72 1.907 1.43 2.794 2.23.572.517 1.087 1.1 1.693 1.58.555.44 1.127.86 1.693 1.285.269.201.548.5.847.649.296.148.637.132.931.324 1.06.692 2.02 1.572 3.048 2.314 1.058.764 2.238 1.35 3.302 2.089.4.278.768.605 1.186.86 1.068.654 2.085 1.442 3.217 1.976.852.403 1.763.676 2.625 1.059.387.172.727.437 1.1.635.456.24.8.306 1.186.691m6.688 2.963-1.496 2.54-1.947 3.895-.804 3.725-.41 2.456v5.419l.17 1.777-1.863-.423-.832-.183-.55-1.51-.65-2.879v-.931l-.17-.678v-2.624l.989-3.641.875-2.625.917-1.778 1.778-2.455 1.2-.988.677.198zm2.37 22.098c-.487-.09-.967-.294-1.438-.451-.21-.07-.5-.117-.678-.254-.253-.197-.381-.693-.48-.988-.297-.893-.38-1.805-.606-2.71-.446-1.78-.156-3.739.211-5.503.161-.773.137-1.589.31-2.37.158-.706.445-1.36.706-2.032.43-1.106.847-2.223 1.496-3.218a30 30 0 0 1 1.806-2.455c.237-.294.6-.828.96-.974.179-.072.417.077.592.113.35.073 1.405.123 1.51.522.087.328-.385.685-.55.932a29 29 0 0 0-1.538 2.54c-.828 1.57-1.415 3.278-1.82 4.995-.31 1.31-.689 2.557-.819 3.895a29 29 0 0 0 0 5.672c.07.711.613 1.591.339 2.286m39.37-20.49c-.071.675-1.125 1.135-1.609 1.539-1.237 1.03-2.228 2.345-3.189 3.626-.491.655-.84 1.485-1.228 2.202-.372.686-.833 1.325-1.157 2.032-.879 1.918-1.573 4-2.187 6.011-.125.41-.122.854-.226 1.27-.093.374-.278.726-.367 1.1-.065.278.024.574-.056.847-.601 2.061-.78 4.299-.988 6.435-.04.42.041.85 0 1.27-.068.7-.016 1.415-.085 2.117-.102 1.05-.288 2.149-.169 3.217.038.343.22.662.254 1.016.057.587-.057 1.191 0 1.778l.17 1.609c.033.347.208.612.31.931.138.431.133.911.226 1.355.14.672.345 1.293.536 1.947.116.397-.012.862.028 1.27.077.79.177 1.58.254 2.37.146 1.505-.153 3.105-.423 4.573-.336-.123-.59-.924-.706-1.27-.311-.935-.842-1.811-1.242-2.71-.27-.609-.654-1.122-.987-1.693-1.323-2.268-2.923-4.313-4.685-6.265-1.87-2.07-3.861-3.977-5.927-5.842-1.12-1.011-2.296-2.011-3.556-2.85-1.129-.753-2.227-1.578-3.387-2.287-1.096-.67-2.351-1.314-3.104-2.399-.35-.504-.62-1.135-.875-1.693-.445-.97-.91-1.998-1.157-3.048-.06-.251-.004-.508-.028-.762-.11-1.129-.28-2.165-.17-3.302.066-.675.02-1.358.085-2.032.218-2.24 1.02-4.607 2.018-6.604.826-1.652 1.897-3.48 3.4-4.628 1.306-.997 2.607-1.372 4.234-1.214.353.034.683.214 1.016.31.194.057.396.01.593.029.285.028.561.141.846.17.815.078 1.641.005 2.456.084.738.072 1.467.267 2.201.338 1.007.098 2.117.269 3.133.17.988-.096 1.976-.243 2.963-.339.615-.06 1.248.06 1.863 0 1.644-.16 3.275-.095 4.91-.254.923-.09 1.872.09 2.794 0 1.074-.104 2.143-.338 3.218-.423m7.62 14.562c-1.041-.027-2.1-.407-3.133-.508-.713-.069-1.408-.175-2.117-.254-.21-.023-.381-.145-.592-.169-1.07-.119-2.162-.217-3.218-.437-.18-.038-.334.019-.508 0-.437-.049-.917-.193-1.354-.297-.234-.055-.576.054-.72-.197s.091-.628.198-.847c.326-.67.59-1.37.931-2.032 1.158-2.253 2.748-4.446 4.84-5.898.657-.456 1.54-1.081 2.37-1.13 1.107-.063 2.442.023 3.472.466.725.313 1.225.937 1.778 1.482.998.984 1.838 2.11 2.441 3.387.361.764.54 1.577.805 2.37.302.908.677 1.76.874 2.71.21 1.001.184 2.034.283 3.048.064.657.235 1.272.17 1.947-.069.7-.064 1.423-.199 2.117-.126.65-.33 1.286-.395 1.947-.046.474.07.97-.028 1.44-.187.899-.568 1.736-.79 2.624-.404 1.615-1.026 3.052-1.863 4.487-.387.665-.831 1.396-1.383 1.948-.664.664-1.628 1.553-2.624 1.608-.634.036-1.557-.361-2.018-.776-.177-.159-.277-.4-.438-.578-.31-.343-.65-.673-.846-1.1-.192-.419-.418-.832-.565-1.27-.126-.381-.101-.813-.225-1.186-.062-.185-.214-.326-.283-.508-.194-.517-.145-1.073-.197-1.609-.028-.285-.142-.561-.17-.847-.12-1.229.064-2.73.452-3.894.605-1.817 1.617-3.507 2.71-5.08.372-.537.804-1.124 1.241-1.609.355-.393.954-.847 1.1-1.355m-7.111 2.964c-.041.519-.463.971-.678 1.44-.539 1.176-1.142 2.499-1.27 3.81-.189 1.943-.627 3.979-.14 5.926.155.622.136 1.268.409 1.862.088.194.272.531.112.748-.067.092-.193.111-.296.07-.375-.145-.717-.34-1.1-.479-1.058-.382-2.078-.875-3.133-1.242-.409-.142-1.155-.3-1.397-.705-.153-.255-.068-.501-.028-.762.057-.38.077-.974.056-1.355-.036-.647.035-1.29.099-1.947.178-1.832.381-3.606.734-5.419.118-.61.25-1.182.423-1.778.098-.336-.014-.684.367-.889.415-.223 1.01 0 1.44.042.765.075 1.523.265 2.285.34.712.068 1.427.138 2.117.338m-46.143 5.757c-.168.58-.906.87-1.355 1.2-.593.436-1.116 1.048-1.609 1.594-1.909 2.114-3.47 4.652-4.53 7.281-1.566 3.89-2.386 8.053-3.4 12.108-.286 1.141-.616 2.25-.932 3.386-.25.9-.41 1.817-.903 2.625-.433.71-1.064 1.297-1.665 1.863-.475.447-.892.962-1.44 1.326-1.457.972-2.95 1.508-4.656 1.863-.681.142-1.437.094-2.116.028-.902-.088-1.809-.082-2.71-.17-.625-.06-1.192-.368-1.778-.564-1.442-.48-2.858-1.155-4.233-1.806v-.17c.424-.256.883-.248 1.355-.366.764-.191 1.554-.552 2.286-.847 1.293-.521 2.361-1.501 3.386-2.427.8-.721 1.403-1.58 2.117-2.37 1.632-1.808 3.286-3.651 4.544-5.758.929-1.556 1.743-3.244 2.483-4.91 1.593-3.584 2.785-7.452 5.108-10.669.355-.49.753-.906 1.158-1.354 1.071-1.187 2.342-2.718 3.979-3.105.627-.148 1.282.089 1.863.283 1.015.338 2.078.474 3.048.96m11.345 2.708c-.11.526-.629.58-1.016.875a18 18 0 0 0-2.37 2.173c-2.15 2.382-3.474 5.113-4.206 8.213-.067.285.006.57-.056.847-.205.908-.22 1.78-.31 2.71-.063.636-.149 1.297-.085 1.946.03.313.138.619.169.932.16 1.656.008 3.339.17 4.995.054.567.198 1.127.253 1.693.06.61-.145 1.237-.084 1.863.17 1.758.048 3.526-.31 5.25-.307 1.469-.48 2.96-.96 4.402-.12.36-.189 1.052-.452 1.326-.216.226-.62.286-.903.396-.72.28-1.461.515-2.201.762-2.904.967-5.933 1.877-8.975 2.173-1.015.098-2.028.324-3.048.423-.839.082-1.701-.081-2.54 0-.798.078-2.044.316-2.794 0 .333-.53.988-.973 1.425-1.44.76-.81 1.498-1.668 2.187-2.54 1.953-2.466 3.618-5.106 4.925-7.958 1.796-3.918 2.475-8.201 3.457-12.361.053-.224.01-.453.057-.678.262-1.257.615-2.486.96-3.725.188-.678.307-1.37.564-2.032.924-2.376 2.045-4.637 3.584-6.689.7-.934 1.447-1.842 2.23-2.709.542-.6 1.237-1.027 1.778-1.609.366-.394.786-.674 1.185-1.03.286-.255.52-.617.931-.663.27-.03.433.084.678.155.57.167 1.062.25 1.608.508 1.36.642 2.783 1.218 4.149 1.792" style="fill:#050505;stroke:none"/></svg>