<svg xmlns="http://www.w3.org/2000/svg" width="655.36" height="655.36" viewBox="0 0 173.397 173.397"><g style="display:inline"><path d="M37.084 39.398c-3.546.69-6.096 3.31-8.24 6.068l-4.15 5.334c-2.119 2.724-4.16 5.5-6.18 8.297-1.297 1.796-2.733 3.777-3.33 5.927-.438 1.574-.524 3.383-.367 4.995.117 1.206-.033 2.436.084 3.64.19 1.949.404 3.896.593 5.843.68 6.986 1.776 13.928 2.455 20.912.306 3.144.965 6.255 1.27 9.398.386 3.967 1.169 7.893 1.609 11.854.098.88.326 1.745.423 2.624.449 4.038 1.235 8.317 4.403 11.176 2.659 2.4 6.162 1.948 9.483 1.948h105.409c1.303 0 2.622.085 3.895-.198 2.95-.655 4.866-3.169 6.11-5.729.633-1.301.843-2.75 1.115-4.149.196-1.009.366-2.028.48-3.048.49-4.417 1.432-8.783 1.862-13.208.22-2.266.711-4.507.932-6.773.214-2.208.632-4.396.846-6.604.54-5.542 1.409-11.051 1.948-16.594.238-2.456.523-4.91.762-7.366.117-1.208.034-2.425.084-3.641.066-1.573.064-3.185-.282-4.741-.327-1.47-1.117-2.714-1.89-3.98-.932-1.525-2.004-2.957-3.049-4.402-2.158-2.988-4.425-5.896-6.688-8.806-1.459-1.875-2.83-3.989-4.6-5.588-1.43-1.29-3.03-2.497-4.911-3.02-1.014-.281-2.086-.197-3.133-.197H39.793c-.864 0-1.861-.137-2.71.028z" id="chest_svg" display="inline" fill="#fff" stroke="#000" stroke-width="2"/><path d="M37.084 39.398c-3.546.69-6.096 3.31-8.24 6.068l-4.15 5.334c-2.119 2.724-4.16 5.5-6.18 8.297-1.297 1.796-2.733 3.777-3.33 5.927-.438 1.574-.524 3.383-.367 4.995.117 1.206-.033 2.436.084 3.64.19 1.949.404 3.896.593 5.843.68 6.986 1.776 13.928 2.455 20.912.306 3.144.965 6.255 1.27 9.398.386 3.967 1.169 7.893 1.609 11.854.098.88.326 1.745.423 2.624.449 4.038 1.235 8.317 4.403 11.176 2.659 2.4 6.162 1.948 9.483 1.948h105.409c1.303 0 2.622.085 3.895-.198 2.95-.655 4.866-3.169 6.11-5.729.633-1.301.843-2.75 1.115-4.149.196-1.009.366-2.028.48-3.048.49-4.417 1.432-8.783 1.862-13.208.22-2.266.711-4.507.932-6.773.214-2.208.632-4.396.846-6.604.54-5.542 1.409-11.051 1.948-16.594.238-2.456.523-4.91.762-7.366.117-1.208.034-2.425.084-3.641.066-1.573.064-3.185-.282-4.741-.327-1.47-1.117-2.714-1.89-3.98-.932-1.525-2.004-2.957-3.049-4.402-2.158-2.988-4.425-5.896-6.688-8.806-1.459-1.875-2.83-3.989-4.6-5.588-1.43-1.29-3.03-2.497-4.911-3.02-1.014-.281-2.086-.197-3.133-.197H39.793c-.864 0-1.861-.137-2.71.028m13.378 6.83c-.04.377-.395.563-.677.79-.469.378-.888.81-1.355 1.185-1.707 1.376-3.194 3.179-4.656 4.798-2.009 2.225-3.92 4.798-5.32 7.45-.391.741-.781 1.501-1.087 2.287-.116.297-.222 1.034-.48 1.228-.182.137-.683.042-.903.042H23.961c.145-.69.621-1.348.987-1.947a30 30 0 0 1 1.61-2.371c2.294-3.06 4.835-5.887 7.393-8.72a89 89 0 0 1 3.133-3.303c.394-.394.854-1.062 1.355-1.312.197-.099.464-.024.677-.057.938-.143 1.926-.07 2.879-.07zm98.975 17.78h-12.022c-.22 0-.72.094-.903-.042-.142-.106-.166-.396-.226-.55-.186-.48-.35-.982-.579-1.44-.798-1.598-1.663-3.188-2.723-4.657a61.5 61.5 0 0 0-6.407-7.535c-.75-.75-1.5-1.492-2.286-2.201-.452-.409-1.12-.762-1.439-1.27.435-.183 1.046-.085 1.524-.085h8.382c.55 0 1.068.032 1.609.085.19.018.413-.048.592.042.38.19.718.675 1.016.974.75.75 1.493 1.5 2.202 2.286 1.933 2.14 3.875 4.249 5.757 6.434 1.436 1.668 2.814 3.417 4.036 5.25.536.804 1.268 1.76 1.467 2.709m-20.828 0h-17.272l-9.398-.085h-9.482l-4.234-.084-3.47.084h-9.737l-4.15.085H44.79c.07-.889.779-1.84 1.17-2.625 1.28-2.56 3.093-4.904 5.01-7.027a73 73 0 0 1 5.25-5.25l1.778-1.608c.317-.287.623-.698 1.016-.89.247-.12.661-.041.93-.041h52.917c.413 0 1.153-.144 1.524.042.379.189.696.604 1.016.875 1.056.894 2.022 1.881 3.048 2.808 3.075 2.776 5.91 5.943 8.072 9.483a29 29 0 0 1 1.51 2.794c.212.448.539.936.578 1.439m-93.81 7.45-.508 3.895-.254 6.266v2.37l.508 6.858.931 6.689.819 4.995 1.326 7.45 2.794 14.563.762 3.98.395 2.37c-1.99 0-4.015.085-6.011.085-1.971 0-3.962-.132-5.503-1.524-1.636-1.476-1.838-3.57-2.23-5.588-.602-3.097-1.148-6.266-1.496-9.398-.396-3.567-1.176-7.095-1.524-10.668-.357-3.678-.997-7.329-1.354-11.006-.357-3.67-.744-7.337-1.101-11.007-.24-2.474-.183-4.977-.423-7.45-.032-.327.054-.616.084-.932.062-.636 0-1.309 0-1.947l5.504-.085zm90.425 59.435h-6.689l-1.609.085-14.478-.085H68.495l-7.027.043-4.91.042-1.779-.085h-6.604c-1.036-5.624-1.813-11.308-2.907-16.933-.733-3.773-1.495-7.615-1.919-11.43-.27-2.435-.779-4.843-1.016-7.281l-.508-5.165c-.079-.814-.005-1.64-.084-2.455-.387-3.972-.27-8.156.169-12.108.107-.962.263-1.92.41-2.878.044-.293-.005-.846.168-1.087.165-.228.936-.099 1.2-.099 1.218 0 2.434-.084 3.64-.084h78.825c1.153 0 2.31.084 3.471.084.283 0 1.014-.132 1.242.043.204.156.171.82.198 1.058.088.793.25 1.578.338 2.37.408 3.67.7 7.555.34 11.261-.127 1.293-.045 2.603-.17 3.895l-.508 5.25c-.235 2.41-.749 4.79-1.016 7.196-.37 3.335-1.024 6.693-1.665 9.99-1.187 6.103-2.037 12.27-3.161 18.373m26.162-59.436c0 .64-.062 1.312 0 1.948.03.316.116.605.084.931-.237 2.446-.185 4.92-.423 7.366-.406 4.18-.864 8.353-1.27 12.53-.31 3.198-.874 6.37-1.185 9.568-.328 3.374-1.065 6.706-1.44 10.075-.37 3.33-.94 6.699-1.58 9.991-.392 2.017-.594 4.111-2.23 5.588-1.54 1.391-3.532 1.524-5.503 1.524-1.986 0-4.014-.085-6.011-.085l.48-2.794.762-3.979 2.709-14.14 1.326-7.45.734-4.487 1.016-7.197.508-6.943v-2.54l-.254-6.096-.508-3.81 7.281-.084z" style="display:inline;fill:#010101;stroke:none"/></g></svg>