<svg xmlns="http://www.w3.org/2000/svg" width="655.36" height="655.36" viewBox="0 0 173.397 173.397"><g style="display:inline"><path d="M72.22 10.753v-.424c-.356.094-.633.35-.93.565a14 14 0 0 0-2.287 2.06c-1.258 1.394-2.552 2.755-3.81 4.149-1.77 1.962-3.484 3.994-4.727 6.35-3.896 7.382-5.336 16.395-1.298 24.045.73 1.382 1.623 2.765 2.723 3.895-1.021-.081-2.027-.41-3.048-.508-1.271-.124-2.538-.3-3.81-.424a28.6 28.6 0 0 0-5.418 0c-.563.055-1.131.03-1.694.085-2.394.233-4.87.818-7.112 1.722-2.737 1.102-5.165 2.726-7.366 4.713-1.629 1.47-2.982 3.309-4.261 5.08-4.12 5.705-6.525 12.47-8.044 19.304-.625 2.813-.964 5.614-1.241 8.466-.06.616-.025 1.245-.085 1.863-.04.416-.15.844-.085 1.27.072.471.776.945 1.101 1.27.637.637 1.242 1.3 1.863 1.947.327.342.831.683 1.058 1.101.168.31.169.76.24 1.1l.508 2.456c.494 2.37.974 4.743 1.467 7.112 1.322 6.346 2.573 12.705 3.895 19.05.341 1.636.654 3.28 1.016 4.91.1.45.18.905.268 1.355.04.2.044.498.198.65.333.326 1.005.442 1.425.634 1.309.6 2.67 1.093 3.98 1.694 1.7.779 3.464 1.422 5.164 2.201.472.216.96.407 1.44.607.271.113.54.293.846.31.313.018.636-.143.931-.225.68-.19 1.36-.37 2.032-.593 1.676-.559 3.361-1.172 4.911-1.99.9-.475 1.67-1.132 2.54-1.65.997-.596 2.132-.99 3.217-1.412 1.717-.667 3.473-1.393 5.08-2.286 1.976-1.097 4.015-2.065 6.012-3.118.926-.49 1.847-.908 2.794-1.355.38-.18.771-.407 1.185-.494 0 .954-.162 1.93-.254 2.879-.131 1.347-.038 2.717-.17 4.064-.088.914-.002 1.891.085 2.794.11 1.122-.024 2.265.085 3.386.199 2.046.479 4.059.762 6.096a24.8 24.8 0 0 0 1.411 5.504c.2.516.315 1.248.65 1.693.301.403 1.207.606 1.664.79 1.48.596 2.93 1.25 4.403 1.863 1.382.576 2.786 1.139 4.149 1.764.39.179.794.329 1.185.508.204.093.438.249.677.226.236-.023.462-.207.678-.297.539-.224 1.078-.448 1.608-.691 1.873-.859 3.811-1.576 5.673-2.456 1.776-.838 3.634-1.496 5.419-2.314 1.116-.512 2.301-1.108 3.471-1.481 2.249-.719 4.56-1.257 6.773-2.117 3.054-1.188 6.172-2.208 9.144-3.57.696-.32 1.412-.624 2.117-.917.224-.094.656-.18.804-.381.325-.441.349-1.326.494-1.849.76-2.736.944-5.772-.564-8.297a7.1 7.1 0 0 0-1.496-1.764c-.283-.24-.874-.509-1.002-.861-.234-.646-.118-1.443-.183-2.117-.15-1.547-.17-3.09-.17-4.656 0-4.018.42-7.896 1.496-11.769.866-3.117 2.421-6.185 4.854-8.382 1.967-1.776 4.549-1.85 7.028-1.609 4.631.45 9.32 2.445 13.377 4.586 1.263.667 2.522 1.374 3.725 2.16l1.186.761c.206.135.423.343.677.367.416.04.955-.247 1.355-.352.55-.146 1.387-.212 1.862-.523 1.234-.805 1.728-2.016 2.357-3.273a346 346 0 0 1 3.471-6.774c.749-1.418 1.379-2.923 2.173-4.318.472-.827 1.15-1.597 1.708-2.37 1.322-1.832 2.49-3.837 3.302-5.927.255-.656.36-1.345.465-2.032.085-.554.122-1.138.015-1.693-.17-.874-.355-1.68-.819-2.456-.666-1.114-1.7-1.914-2.766-2.624-1.465-.977-3.015-1.776-4.572-2.554-.728-.364-1.466-.726-2.201-1.073-.869-.41-1.757-.775-2.625-1.185-.348-.165-.788-.254-1.1-.48-.32-.23-.085-1.034-.085-1.397 0-1.21.119-2.428.17-3.64.012-.303.242-.88.042-1.158-.183-.254-.702-.337-.974-.465-.787-.372-1.582-.728-2.37-1.101-2.621-1.238-5.254-2.46-7.875-3.697-.733-.346-1.478-.655-2.201-1.016-.243-.122-.637-.185-.833-.381-.195-.195-.18-.886-.183-1.157-.01-.695-.198-1.443-.367-2.117-.538-2.15-1.635-4.204-3.443-5.56-3.095-2.32-7.597-2.22-10.922-.465-1.422.75-2.98 2.008-3.556 3.57l-13.8-4.46-3.895-1.27-1.778-.507-.932.366-2.201.847-6.096 2.145c1.914-2.797 2.941-6.09 3.584-9.398 1.236-6.358.231-13.423-2.667-19.22-1.554-3.107-3.803-5.68-6.251-8.127l-1.863-1.863c-.206-.206-.612-.48-.705-.762-.065-.195.111-.5.183-.677.159-.395.546-1.008.522-1.44-.011-.202-.175-.35-.282-.508-.228-.335-.373-.71-.649-1.016-.456-.505-1.038-1.165-1.693-1.41-.366-.138-.725-.077-1.101-.114-.234-.022-.44-.164-.677-.14-.658.063-1.297.322-1.948.394-3.027.337-6.023 1.848-8.212 3.98Z" id="bearLighthouse_svg" display="inline" fill="#fff" stroke="#000" stroke-width="2"/><path d="M72.22 10.753v-.424c-.356.094-.633.35-.93.565a14 14 0 0 0-2.287 2.06c-1.258 1.394-2.552 2.755-3.81 4.149-1.77 1.962-3.484 3.994-4.727 6.35-3.896 7.382-5.336 16.395-1.298 24.045.73 1.382 1.623 2.765 2.723 3.895-1.021-.081-2.027-.41-3.048-.508-1.271-.124-2.538-.3-3.81-.424a28.6 28.6 0 0 0-5.418 0c-.563.055-1.131.03-1.694.085-2.394.233-4.87.818-7.112 1.722-2.737 1.102-5.165 2.726-7.366 4.713-1.629 1.47-2.982 3.309-4.261 5.08-4.12 5.705-6.525 12.47-8.044 19.304-.625 2.813-.964 5.614-1.241 8.466-.06.616-.025 1.245-.085 1.863-.04.416-.15.844-.085 1.27.072.471.776.945 1.101 1.27.637.637 1.242 1.3 1.863 1.947.327.342.831.683 1.058 1.101.168.31.169.76.24 1.1l.508 2.456c.494 2.37.974 4.743 1.467 7.112 1.322 6.346 2.573 12.705 3.895 19.05.341 1.636.654 3.28 1.016 4.91.1.45.18.905.268 1.355.04.2.044.498.198.65.333.326 1.005.442 1.425.634 1.309.6 2.67 1.093 3.98 1.694 1.7.779 3.464 1.422 5.164 2.201.472.216.96.407 1.44.607.271.113.54.293.846.31.313.018.636-.143.931-.225.68-.19 1.36-.37 2.032-.593 1.676-.559 3.361-1.172 4.911-1.99.9-.475 1.67-1.132 2.54-1.65.997-.596 2.132-.99 3.217-1.412 1.717-.667 3.473-1.393 5.08-2.286 1.976-1.097 4.015-2.065 6.012-3.118.926-.49 1.847-.908 2.794-1.355.38-.18.771-.407 1.185-.494 0 .954-.162 1.93-.254 2.879-.131 1.347-.038 2.717-.17 4.064-.088.914-.002 1.891.085 2.794.11 1.122-.024 2.265.085 3.386.199 2.046.479 4.059.762 6.096a24.8 24.8 0 0 0 1.411 5.504c.2.516.315 1.248.65 1.693.301.403 1.207.606 1.664.79 1.48.596 2.93 1.25 4.403 1.863 1.382.576 2.786 1.139 4.149 1.764.39.179.794.329 1.185.508.204.093.438.249.677.226.236-.023.462-.207.678-.297.539-.224 1.078-.448 1.608-.691 1.873-.859 3.811-1.576 5.673-2.456 1.776-.838 3.634-1.496 5.419-2.314 1.116-.512 2.301-1.108 3.471-1.481 2.249-.719 4.56-1.257 6.773-2.117 3.054-1.188 6.172-2.208 9.144-3.57.696-.32 1.412-.624 2.117-.917.224-.094.656-.18.804-.381.325-.441.349-1.326.494-1.849.76-2.736.944-5.772-.564-8.297a7.1 7.1 0 0 0-1.496-1.764c-.283-.24-.874-.509-1.002-.861-.234-.646-.118-1.443-.183-2.117-.15-1.547-.17-3.09-.17-4.656 0-4.018.42-7.896 1.496-11.769.866-3.117 2.421-6.185 4.854-8.382 1.967-1.776 4.549-1.85 7.028-1.609 4.631.45 9.32 2.445 13.377 4.586 1.263.667 2.522 1.374 3.725 2.16l1.186.761c.206.135.423.343.677.367.416.04.955-.247 1.355-.352.55-.146 1.387-.212 1.862-.523 1.234-.805 1.728-2.016 2.357-3.273a346 346 0 0 1 3.471-6.774c.749-1.418 1.379-2.923 2.173-4.318.472-.827 1.15-1.597 1.708-2.37 1.322-1.832 2.49-3.837 3.302-5.927.255-.656.36-1.345.465-2.032.085-.554.122-1.138.015-1.693-.17-.874-.355-1.68-.819-2.456-.666-1.114-1.7-1.914-2.766-2.624-1.465-.977-3.015-1.776-4.572-2.554-.728-.364-1.466-.726-2.201-1.073-.869-.41-1.757-.775-2.625-1.185-.348-.165-.788-.254-1.1-.48-.32-.23-.085-1.034-.085-1.397 0-1.21.119-2.428.17-3.64.012-.303.242-.88.042-1.158-.183-.254-.702-.337-.974-.465-.787-.372-1.582-.728-2.37-1.101-2.621-1.238-5.254-2.46-7.875-3.697-.733-.346-1.478-.655-2.201-1.016-.243-.122-.637-.185-.833-.381-.195-.195-.18-.886-.183-1.157-.01-.695-.198-1.443-.367-2.117-.538-2.15-1.635-4.204-3.443-5.56-3.095-2.32-7.597-2.22-10.922-.465-1.422.75-2.98 2.008-3.556 3.57l-13.8-4.46-3.895-1.27-1.778-.507-.932.366-2.201.847-6.096 2.145c1.914-2.797 2.941-6.09 3.584-9.398 1.236-6.358.231-13.423-2.667-19.22-1.554-3.107-3.803-5.68-6.251-8.127l-1.863-1.863c-.206-.206-.612-.48-.705-.762-.065-.195.111-.5.183-.677.159-.395.546-1.008.522-1.44-.011-.202-.175-.35-.282-.508-.228-.335-.373-.71-.649-1.016-.456-.505-1.038-1.165-1.693-1.41-.366-.138-.725-.077-1.101-.114-.234-.022-.44-.164-.677-.14-.658.063-1.297.322-1.948.394-3.027.337-6.023 1.848-8.212 3.98m8.212 1.1c-.03.385-.207.73-.31 1.101a47 47 0 0 0-.593 2.37c-.474 2.136-.58 4.274-.79 6.435-.105 1.079.066 2.236.17 3.302.275 2.84.81 5.766 2.045 8.382q.526 1.113 1.101 2.202c.228.432.57.819.748 1.27.703-1.162 1.059-2.626 1.552-3.895 1.058-2.719 1.892-5.655 2.173-8.551.153-1.575.17-3.149.17-4.742.299.087.389.283.592.508.445.492.863.99 1.256 1.524 1.69 2.296 2.866 4.944 3.556 7.705 1.406 5.625 1.217 11.847-1.41 17.103-1.38 2.759-3.548 5.282-6.45 6.49-1.27.53-2.62.828-3.979.96-2.091.204-4.494-.233-6.435-.987-1.149-.447-2.302-.825-3.386-1.397-3.432-1.812-6.14-4.595-7.592-8.199-1.499-3.72-1.278-8.065-.226-11.853.782-2.813 1.996-5.365 3.613-7.79.375-.563.793-1.078 1.213-1.608.217-.275.457-.658.79-.762l.678 5.503.338 2.032c.676-.142.638-1.21.748-1.778.302-1.55.663-3.045 1.087-4.572.06-.215.063-.47.14-.677.066-.174.23-.262.311-.424.146-.286.182-.63.283-.931.267-.803.61-1.628 1.001-2.37 1.619-3.067 4.281-5.388 7.606-6.35m-5.926 24.299-.17 2.032v2.963l-.254.254c-.678 0-1.096-.316-1.693-.564a16.5 16.5 0 0 1-4.064-2.428 8.7 8.7 0 0 1-1.214-1.241c-.118-.147-.35-.365-.564-.283s-.238.433-.282.621c-.163.69-.006 1.433.099 2.117.116.764.202 1.53.38 2.286.263 1.11.862 2.335 1.44 3.302.273.457.665.829.96 1.27.14.21.233.467.395.663.813.992 1.952 1.663 3.104 2.16.554.238 1.013.725 1.609.874.731.183 1.531.463 2.286.536 1.715.167 3.511.015 5.164-.536.862-.287 1.626-.767 2.456-1.072l-1.016-1.101-1.186-1.242-.508-.367-1.368-1.608-1.482-1.778-2.724-4.403-1.001-1.863zm51.562 24.214c.393-1.358.45-2.888 1.114-4.148.833-1.578 2.751-2.032 4.389-2.032.556 0 1.083-.014 1.609.197 2.286.921 2.794 3.61 2.794 5.814 0 .656-.076 1.301-.085 1.947-.003.196-.131.495.014.65.17.18.53.271.748.38.666.334 1.366.599 2.032.932 2.534 1.267 5.143 2.403 7.705 3.612.789.373 1.583.73 2.37 1.1.405.192 1.02.315 1.34.636.27.27.015.91.015 1.242 0 1.247-.17 2.478-.17 3.725 0 .348-.268 1.044.015 1.326.241.242.775.35 1.086.48.849.354 1.705.704 2.54 1.087a235 235 0 0 1 7.197 3.443c.937.468 1.857 1.01 2.71 1.637.332.245.69.501.818.917.172.565-.088 1.26-.297 1.778-.527 1.31-1.257 2.543-2.046 3.725-.91 1.367-1.93 2.645-2.878 3.98-.538-.156-.991-.737-1.44-1.073-1.072-.804-2.653-1.774-4.064-1.637-1.69.165-2.92 1.326-3.655 2.794-.57 1.141-.64 2.466.269 3.472.97 1.074 2.342 1.789 3.725 2.173.676.188 1.488.271 2.117.536l-.579 1.1-2.13 4.319c-.679-.054-1.45-.732-2.033-1.073a53 53 0 0 0-4.064-2.13c-4.296-2.03-8.958-3.7-13.716-4.163-2.741-.267-5.679.16-8.128 1.453-2.913 1.537-5.178 4.642-6.618 7.521-1.733 3.466-2.828 7.486-3.203 11.346-.115 1.182-.139 2.372-.254 3.556-.304 3.128-.133 6.457.17 9.567a58 58 0 0 0 .408 3.133c.045.29 0 .86.212 1.086.173.184.512.077.734.099.42.04.925.212 1.27.452 1.107.768 1.1 1.984 1.1 3.189 0 .367-.045 1.12-.296 1.41-.114.133-.312.163-.465.227l-1.186.508c-1.373.572-2.745 1.158-4.148 1.665-1.693.61-3.368 1.263-5.08 1.834l-1.355.452c-.142.047-.357.168-.508.113-.172-.064-.266-.307-.353-.452a9 9 0 0 1-.607-1.185 27 27 0 0 1-1.524-4.911c-.355-1.707-.565-3.436-.733-5.165-.093-.953.008-1.924-.085-2.878a19 19 0 0 1 0-3.641c.062-.643-.063-1.304 0-1.947l.17-1.778c.15-1.553.272-3.106.423-4.657.061-.636.076-1.334.254-1.947-.79.02-1.603.309-2.371.48-.24.053-.649.038-.833.211-.37.349-.495 1.137-.705 1.595-.786 1.714-1.377 3.589-1.835 5.418-.521 2.087-.991 4.214-1.2 6.35-.097 1.013-.07 2.035-.168 3.048-.086.876-.171 1.822-.085 2.71.173 1.78.31 3.556.508 5.334.163 1.468.565 2.981.96 4.402.165.595.438 1.181.564 1.778l-2.54 1.115-3.895 1.693-3.386 1.454-1.27.522-1.101-.437-2.625-1.115-2.963-1.256-1.256-.565-.55-1.665-.819-4.318-.423-3.725-.17-3.895.085-2.201v-2.201l.424-5.334.592-4.403.339-2.286-2.794-.085h-2.71l-2.031-.254-4.318-.084-5.842-.903-4.572-.89-1.863-.578-.48 1.524-.931 2.455-1.1 3.302-.876 2.54c.503.186.967.464 1.355.847.605.597 1.64 1.656 1.143 2.625-.43.837-1.452 1.248-2.244 1.622-1.42.672-2.762 1.44-4.233 2.032-.694.28-1.405.511-2.117.748-.417.14-.754.315-1.185.141a140 140 0 0 1-6.011-2.582c-.529-.242-1.081-.435-1.61-.677-.25-.116-.623-.174-.818-.381-.119-.127-.107-.32-.14-.48l-.255-1.27c-.287-1.38-.54-2.772-.846-4.149-1.187-5.341-2.186-10.728-3.302-16.086-.635-3.046-1.216-6.108-1.891-9.144-.219-.983-.388-1.979-.593-2.964-.09-.436-.111-1.045-.324-1.439-.174-.32-.549-.59-.805-.847l-1.778-1.778c-.287-.287-.869-.776-.931-1.185-.05-.321.054-.62.085-.931l.169-1.778c.193-1.99.552-3.968.988-5.927 1.414-6.364 3.706-12.478 7.535-17.78 1.514-2.097 3.258-4.04 5.362-5.56 2.26-1.632 5.253-2.85 8.044-3.16.904-.101 1.803-.167 2.709-.255 1.826-.177 3.687-.092 5.503.085 4.239.412 8.362 1.303 12.53 2.23 3.066.68 6.102 1.53 9.23 1.834.728.07 1.484-.015 2.2-.085 1.487-.144 2.931-.278 4.404-.564 4.374-.85 8.63-2.087 12.869-3.5 1.5-.5 3.015-.98 4.487-1.552.506-.197 1.02-.376 1.524-.578.28-.113.622-.325.932-.325.255 0 .52.158.762.226.455.126.904.273 1.354.423 1.542.514 3.09 1.089 4.657 1.524 1.941.54 3.815 1.323 5.757 1.863 3.392.942 6.72 2.186 10.076 3.245m12.968 12.32c-.238.156-.1 1.05-.1 1.312 0 1.125-.168 2.257-.168 3.386 0 .297-.228.85.014 1.087.148.145.32.062.494.028.362-.07.734-.148 1.1-.183.673-.066 1.358-.02 2.032-.085.595-.058 1.184-.196 1.778-.254.39-.038 1.018.015 1.355-.212.741-.498-.312-.984-.677-1.227-1.42-.947-2.745-2.008-4.15-2.964-.388-.265-.786-.513-1.184-.762-.13-.081-.335-.232-.494-.127m-83.411 48.98-.085.085z" style="display:inline;fill:#020202;stroke:none"/></g></svg>