<?xml version="1.0" encoding="UTF-8" standalone="no"?>
<svg
   xml:space="preserve"
   width="655.36"
   height="655.36"
   viewBox="0 0 173.397 173.397"
   version="1.1"
   id="svg2"
   sodipodi:docname="T_Icon_Map_RuneChest.svg"
   inkscape:version="1.4.2 (f4327f4, 2025-05-13)"
   xmlns:inkscape="http://www.inkscape.org/namespaces/inkscape"
   xmlns:sodipodi="http://sodipodi.sourceforge.net/DTD/sodipodi-0.dtd"
   xmlns="http://www.w3.org/2000/svg"
   xmlns:svg="http://www.w3.org/2000/svg"><defs
     id="defs2" /><sodipodi:namedview
     id="namedview2"
     pagecolor="#ffffff"
     bordercolor="#000000"
     borderopacity="0.25"
     inkscape:showpageshadow="2"
     inkscape:pageopacity="0.0"
     inkscape:pagecheckerboard="0"
     inkscape:deskcolor="#d1d1d1"
     inkscape:zoom="1"
     inkscape:cx="313.5"
     inkscape:cy="311.5"
     inkscape:window-width="1920"
     inkscape:window-height="1017"
     inkscape:window-x="-8"
     inkscape:window-y="-8"
     inkscape:window-maximized="1"
     inkscape:current-layer="svg2" /><g
     style="display:inline"
     id="g2"
     transform="matrix(1.1546372,0,0,1.1546372,-13.403735,-21.410317)"><path
       d="m 37.084,39.398 c -3.546,0.69 -6.096,3.31 -8.24,6.068 l -4.15,5.334 c -2.119,2.724 -4.16,5.5 -6.18,8.297 -1.297,1.796 -2.733,3.777 -3.33,5.927 -0.438,1.574 -0.524,3.383 -0.367,4.995 0.117,1.206 -0.033,2.436 0.084,3.64 0.19,1.949 0.404,3.896 0.593,5.843 0.68,6.986 1.776,13.928 2.455,20.912 0.306,3.144 0.965,6.255 1.27,9.398 0.386,3.967 1.169,7.893 1.609,11.854 0.098,0.88 0.326,1.745 0.423,2.624 0.449,4.038 1.235,8.317 4.403,11.176 2.659,2.4 6.162,1.948 9.483,1.948 h 105.409 c 1.303,0 2.622,0.085 3.895,-0.198 2.95,-0.655 4.866,-3.169 6.11,-5.729 0.633,-1.301 0.843,-2.75 1.115,-4.149 0.196,-1.009 0.366,-2.028 0.48,-3.048 0.49,-4.417 1.432,-8.783 1.862,-13.208 0.22,-2.266 0.711,-4.507 0.932,-6.773 0.214,-2.208 0.632,-4.396 0.846,-6.604 0.54,-5.542 1.409,-11.051 1.948,-16.594 0.238,-2.456 0.523,-4.91 0.762,-7.366 0.117,-1.208 0.034,-2.425 0.084,-3.641 0.066,-1.573 0.064,-3.185 -0.282,-4.741 -0.327,-1.47 -1.117,-2.714 -1.89,-3.98 -0.932,-1.525 -2.004,-2.957 -3.049,-4.402 -2.158,-2.988 -4.425,-5.896 -6.688,-8.806 -1.459,-1.875 -2.83,-3.989 -4.6,-5.588 -1.43,-1.29 -3.03,-2.497 -4.911,-3.02 -1.014,-0.281 -2.086,-0.197 -3.133,-0.197 H 39.793 c -0.864,0 -1.861,-0.137 -2.71,0.028 z"
       id="runeChest_svg"
       display="inline"
       fill="currentColor"
       stroke="#000000"
       stroke-width="2"
       style="fill:#ffffff;fill-opacity:1" /><path
       d="m 37.084,39.398 c -3.546,0.69 -6.096,3.31 -8.24,6.068 l -4.15,5.334 c -2.119,2.724 -4.16,5.5 -6.18,8.297 -1.297,1.796 -2.733,3.777 -3.33,5.927 -0.438,1.574 -0.524,3.383 -0.367,4.995 0.117,1.206 -0.033,2.436 0.084,3.64 0.19,1.949 0.404,3.896 0.593,5.843 0.68,6.986 1.776,13.928 2.455,20.912 0.306,3.144 0.965,6.255 1.27,9.398 0.386,3.967 1.169,7.893 1.609,11.854 0.098,0.88 0.326,1.745 0.423,2.624 0.449,4.038 1.235,8.317 4.403,11.176 2.659,2.4 6.162,1.948 9.483,1.948 h 105.409 c 1.303,0 2.622,0.085 3.895,-0.198 2.95,-0.655 4.866,-3.169 6.11,-5.729 0.633,-1.301 0.843,-2.75 1.115,-4.149 0.196,-1.009 0.366,-2.028 0.48,-3.048 0.49,-4.417 1.432,-8.783 1.862,-13.208 0.22,-2.266 0.711,-4.507 0.932,-6.773 0.214,-2.208 0.632,-4.396 0.846,-6.604 0.54,-5.542 1.409,-11.051 1.948,-16.594 0.238,-2.456 0.523,-4.91 0.762,-7.366 0.117,-1.208 0.034,-2.425 0.084,-3.641 0.066,-1.573 0.064,-3.185 -0.282,-4.741 -0.327,-1.47 -1.117,-2.714 -1.89,-3.98 -0.932,-1.525 -2.004,-2.957 -3.049,-4.402 -2.158,-2.988 -4.425,-5.896 -6.688,-8.806 -1.459,-1.875 -2.83,-3.989 -4.6,-5.588 -1.43,-1.29 -3.03,-2.497 -4.911,-3.02 -1.014,-0.281 -2.086,-0.197 -3.133,-0.197 H 39.793 c -0.864,0 -1.861,-0.137 -2.71,0.028 m 13.378,6.83 c -0.04,0.377 -0.395,0.563 -0.677,0.79 -0.469,0.378 -0.888,0.81 -1.355,1.185 -1.707,1.376 -3.194,3.179 -4.656,4.798 -2.009,2.225 -3.92,4.798 -5.32,7.45 -0.391,0.741 -0.781,1.501 -1.087,2.287 -0.116,0.297 -0.222,1.034 -0.48,1.228 -0.182,0.137 -0.683,0.042 -0.903,0.042 H 23.961 c 0.145,-0.69 0.621,-1.348 0.987,-1.947 a 30,30 0 0 1 1.61,-2.371 c 2.294,-3.06 4.835,-5.887 7.393,-8.72 a 89,89 0 0 1 3.133,-3.303 c 0.394,-0.394 0.854,-1.062 1.355,-1.312 0.197,-0.099 0.464,-0.024 0.677,-0.057 0.938,-0.143 1.926,-0.07 2.879,-0.07 z m 98.975,17.78 h -12.022 c -0.22,0 -0.72,0.094 -0.903,-0.042 -0.142,-0.106 -0.166,-0.396 -0.226,-0.55 -0.186,-0.48 -0.35,-0.982 -0.579,-1.44 -0.798,-1.598 -1.663,-3.188 -2.723,-4.657 a 61.5,61.5 0 0 0 -6.407,-7.535 c -0.75,-0.75 -1.5,-1.492 -2.286,-2.201 -0.452,-0.409 -1.12,-0.762 -1.439,-1.27 0.435,-0.183 1.046,-0.085 1.524,-0.085 h 8.382 c 0.55,0 1.068,0.032 1.609,0.085 0.19,0.018 0.413,-0.048 0.592,0.042 0.38,0.19 0.718,0.675 1.016,0.974 0.75,0.75 1.493,1.5 2.202,2.286 1.933,2.14 3.875,4.249 5.757,6.434 1.436,1.668 2.814,3.417 4.036,5.25 0.536,0.804 1.268,1.76 1.467,2.709 m -20.828,0 h -17.272 l -9.398,-0.085 h -9.482 l -4.234,-0.084 -3.47,0.084 h -9.737 l -4.15,0.085 H 44.79 c 0.07,-0.889 0.779,-1.84 1.17,-2.625 1.28,-2.56 3.093,-4.904 5.01,-7.027 a 73,73 0 0 1 5.25,-5.25 l 1.778,-1.608 c 0.317,-0.287 0.623,-0.698 1.016,-0.89 0.247,-0.12 0.661,-0.041 0.93,-0.041 h 52.917 c 0.413,0 1.153,-0.144 1.524,0.042 0.379,0.189 0.696,0.604 1.016,0.875 1.056,0.894 2.022,1.881 3.048,2.808 3.075,2.776 5.91,5.943 8.072,9.483 a 29,29 0 0 1 1.51,2.794 c 0.212,0.448 0.539,0.936 0.578,1.439 m -93.81,7.45 -0.508,3.895 -0.254,6.266 v 2.37 l 0.508,6.858 0.931,6.689 0.819,4.995 1.326,7.45 2.794,14.563 0.762,3.98 0.395,2.37 c -1.99,0 -4.015,0.085 -6.011,0.085 -1.971,0 -3.962,-0.132 -5.503,-1.524 -1.636,-1.476 -1.838,-3.57 -2.23,-5.588 -0.602,-3.097 -1.148,-6.266 -1.496,-9.398 -0.396,-3.567 -1.176,-7.095 -1.524,-10.668 -0.357,-3.678 -0.997,-7.329 -1.354,-11.006 -0.357,-3.67 -0.744,-7.337 -1.101,-11.007 -0.24,-2.474 -0.183,-4.977 -0.423,-7.45 -0.032,-0.327 0.054,-0.616 0.084,-0.932 0.062,-0.636 0,-1.309 0,-1.947 l 5.504,-0.085 z m 90.425,59.435 h -6.689 l -1.609,0.085 -14.478,-0.085 H 68.495 l -7.027,0.043 -4.91,0.042 -1.779,-0.085 h -6.604 c -1.036,-5.624 -1.813,-11.308 -2.907,-16.933 -0.733,-3.773 -1.495,-7.615 -1.919,-11.43 -0.27,-2.435 -0.779,-4.843 -1.016,-7.281 l -0.508,-5.165 c -0.079,-0.814 -0.005,-1.64 -0.084,-2.455 -0.387,-3.972 -0.27,-8.156 0.169,-12.108 0.107,-0.962 0.263,-1.92 0.41,-2.878 0.044,-0.293 -0.005,-0.846 0.168,-1.087 0.165,-0.228 0.936,-0.099 1.2,-0.099 1.218,0 2.434,-0.084 3.64,-0.084 h 78.825 c 1.153,0 2.31,0.084 3.471,0.084 0.283,0 1.014,-0.132 1.242,0.043 0.204,0.156 0.171,0.82 0.198,1.058 0.088,0.793 0.25,1.578 0.338,2.37 0.408,3.67 0.7,7.555 0.34,11.261 -0.127,1.293 -0.045,2.603 -0.17,3.895 l -0.508,5.25 c -0.235,2.41 -0.749,4.79 -1.016,7.196 -0.37,3.335 -1.024,6.693 -1.665,9.99 -1.187,6.103 -2.037,12.27 -3.161,18.373 m 26.162,-59.436 c 0,0.64 -0.062,1.312 0,1.948 0.03,0.316 0.116,0.605 0.084,0.931 -0.237,2.446 -0.185,4.92 -0.423,7.366 -0.406,4.18 -0.864,8.353 -1.27,12.53 -0.31,3.198 -0.874,6.37 -1.185,9.568 -0.328,3.374 -1.065,6.706 -1.44,10.075 -0.37,3.33 -0.94,6.699 -1.58,9.991 -0.392,2.017 -0.594,4.111 -2.23,5.588 -1.54,1.391 -3.532,1.524 -5.503,1.524 -1.986,0 -4.014,-0.085 -6.011,-0.085 l 0.48,-2.794 0.762,-3.979 2.709,-14.14 1.326,-7.45 0.734,-4.487 1.016,-7.197 0.508,-6.943 v -2.54 l -0.254,-6.096 -0.508,-3.81 7.281,-0.084 z m -57.15,2.315 c -0.963,0.187 -1.936,0.278 -2.879,0.592 -0.929,0.31 -1.847,0.697 -2.794,0.96 -1.278,0.355 -2.568,0.674 -3.81,1.157 -0.67,0.26 -1.317,0.585 -1.947,0.917 -0.412,0.217 -0.822,0.589 -1.27,0.72 -0.277,0.08 -0.507,-0.091 -0.762,-0.17 -0.343,-0.104 -0.741,-0.176 -1.1,-0.14 -0.471,0.045 -0.99,0.132 -1.44,0.282 -0.674,0.224 -1.243,0.643 -1.947,0.79 -2.623,0.546 -5.695,0.365 -7.508,2.737 -0.925,1.212 -1.346,2.783 -1.75,4.234 -0.28,1.01 -0.852,1.884 -1.128,2.878 -0.168,0.604 -0.174,1.246 -0.31,1.863 a 15.5,15.5 0 0 1 -1.087,3.217 c -0.488,1.033 -1.262,1.931 -1.75,2.964 -0.43,0.91 -0.441,2.08 -0.24,3.048 0.545,2.613 2.028,4.726 3.274,7.027 0.648,1.197 0.97,2.573 1.538,3.81 0.576,1.256 1.297,2.493 1.736,3.81 0.743,2.231 1.41,4.605 1.637,6.943 0.109,1.124 0.009,3.069 1.1,3.781 0.56,0.366 1.403,0.113 2.032,0.113 1.21,0 2.441,0.29 3.64,0.424 3.99,0.443 7.943,1.22 11.939,1.608 a 6,6 0 0 0 1.863,-0.113 c 0.314,-0.074 0.616,-0.386 0.93,-0.395 0.158,-0.004 0.282,0.098 0.424,0.141 0.363,0.111 0.812,0.163 1.186,0.085 0.515,-0.107 1.1,-0.372 1.41,-0.818 0.205,-0.295 0.307,-0.639 0.523,-0.932 0.865,-1.175 1.668,-2.464 2.639,-3.556 1.608,-1.81 3.047,-3.778 4.656,-5.588 0.536,-0.602 1.017,-1.247 1.538,-1.862 0.318,-0.376 0.729,-0.79 0.89,-1.27 0.216,-0.65 0.047,-1.365 0.112,-2.032 0.14,-1.432 0.225,-3.044 0.085,-4.488 -0.035,-0.36 -0.084,-0.843 -0.198,-1.185 -0.108,-0.326 -0.453,-0.528 -0.55,-0.847 -0.135,-0.44 0.028,-1 0.07,-1.439 0.027,-0.27 -0.059,-0.501 -0.084,-0.762 -0.083,-0.85 0.036,-1.877 0.197,-2.71 0.23,-1.176 0.584,-2.307 0.875,-3.47 0.229,-0.915 0.397,-1.847 0.805,-2.71 0.366,-0.777 0.632,-1.604 1.016,-2.37 0.18,-0.362 0.531,-0.837 0.465,-1.27 -0.048,-0.316 -0.322,-0.575 -0.465,-0.847 -0.382,-0.723 -0.735,-1.47 -1.101,-2.202 -0.737,-1.473 -1.794,-2.593 -2.893,-3.81 -0.353,-0.39 -0.586,-0.874 -0.931,-1.27 -0.259,-0.295 -0.58,-0.533 -0.819,-0.846 -1.394,-1.826 -2.56,-3.857 -4.078,-5.588 -0.417,-0.476 -0.828,-0.591 -1.368,-0.861 -0.746,-0.373 -1.504,-0.719 -2.371,-0.55 m 5.334,12.756 c 0.748,-0.445 1.41,-1.836 2.455,-1.778 0.363,0.02 0.67,0.508 0.875,0.762 0.588,0.73 1.164,1.448 1.595,2.286 0.136,0.266 0.407,0.611 0.296,0.931 -0.11,0.315 -0.544,0.576 -0.748,0.847 -0.62,0.828 -1.266,1.623 -1.75,2.54 -0.757,1.436 -1.277,3.028 -1.792,4.572 -0.402,1.207 -0.85,2.411 -1.157,3.64 -0.322,1.289 -0.53,2.6 -0.818,3.895 -0.206,0.925 -0.473,1.849 -0.565,2.794 -0.169,1.737 0.225,3.401 -0.451,5.08 -0.463,1.149 -1.398,1.754 -2.173,2.653 -1.002,1.162 -1.92,2.761 -2.202,4.29 0.32,-0.19 0.552,-0.52 0.847,-0.762 0.726,-0.593 1.45,-1.186 2.201,-1.75 0.712,-0.534 1.644,-0.863 2.286,-1.467 0.36,-0.339 0.687,-0.834 0.917,-1.27 a 9.1,9.1 0 0 0 1.03,-3.387 c 0.123,-1.26 -0.037,-2.55 0.085,-3.81 0.108,-1.105 0.494,-2.221 0.734,-3.302 0.225,-1.011 0.372,-2.05 0.65,-3.048 0.305,-1.1 0.73,-2.136 1.072,-3.217 h 0.084 c 0,0.75 -0.266,1.458 -0.338,2.201 -0.094,0.962 -0.246,1.917 -0.339,2.879 -0.046,0.475 0.046,0.964 0,1.44 -0.067,0.683 -0.322,1.332 -0.254,2.031 0.037,0.379 0.19,0.683 0.508,0.903 0.21,0.146 0.467,0.182 0.564,0.452 0.144,0.397 0.029,1.018 0.029,1.44 0,0.8 -0.008,1.58 -0.085,2.37 -0.06,0.622 0.032,1.193 -0.268,1.778 -0.323,0.627 -0.96,1.14 -1.397,1.693 -0.722,0.912 -1.45,1.845 -2.23,2.71 -1.106,1.225 -2.316,2.373 -3.274,3.725 -0.581,0.821 -1.264,1.608 -1.806,2.455 -0.154,0.24 -0.313,0.863 -0.592,0.974 -0.237,0.094 -0.382,-0.247 -0.508,-0.381 -0.42,-0.446 -0.876,-0.605 -1.016,-1.27 h -0.254 c -0.085,0.322 -0.31,0.56 -0.48,0.846 -0.29,0.485 -0.546,1.378 -1.13,1.58 -0.536,0.187 -1.245,-0.045 -1.777,-0.126 -0.954,-0.146 -1.92,-0.22 -2.879,-0.353 -1.576,-0.219 -3.157,-0.608 -4.741,-0.762 -1.887,-0.183 -3.806,-0.333 -5.673,-0.677 0.038,-0.357 0.287,-0.558 0.48,-0.847 0.684,-1.025 1.613,-1.766 2.484,-2.625 1.407,-1.388 3.05,-2.738 4.826,-3.626 2.903,-1.452 6.194,-2.153 8.974,-3.853 0.558,-0.34 1.297,-0.774 1.665,-1.326 0.343,-0.514 0.47,-1.348 0.537,-1.947 0.088,-0.797 0.26,-1.57 0.338,-2.37 0.037,-0.377 0.218,-0.73 0.254,-1.102 0.116,-1.193 0.307,-2.36 0.424,-3.556 0.036,-0.376 0.217,-0.729 0.254,-1.1 0.046,-0.48 0.038,-0.96 0.084,-1.44 0.034,-0.347 0.22,-0.666 0.254,-1.016 0.103,-1.06 0.19,-2.087 0.452,-3.132 0.157,-0.627 0.446,-1.236 0.62,-1.863 0.264,-0.946 0.454,-1.925 0.692,-2.879 0.142,-0.568 0.525,-1.26 0.325,-1.862 -0.111,-0.333 -0.41,-0.608 -0.65,-0.847 -0.532,-0.532 -1.108,-1.194 -1.777,-1.538 -0.286,-0.147 -0.584,-0.417 -0.932,-0.296 -0.344,0.12 -0.6,0.47 -0.931,0.635 -0.933,0.466 -1.937,0.825 -2.879,1.27 -2.473,1.168 -5.002,2.19 -7.45,3.415 -1.53,0.764 -2.931,1.788 -4.403,2.667 -0.472,0.282 -1.042,0.373 -1.524,0.635 -0.463,0.25 -0.858,0.647 -1.27,0.973 -0.956,0.757 -2.265,1.573 -2.766,2.738 -0.28,0.65 0.084,1.282 0.057,1.947 -0.117,2.807 1.414,5.409 2.44,7.959 0.392,0.97 0.793,1.67 1.708,2.23 0.23,0.14 0.476,0.394 0.762,0.394 0.274,0 0.608,-0.208 0.847,-0.324 0.567,-0.276 1.123,-0.578 1.693,-0.847 1.458,-0.688 3.1,-1.248 4.657,-1.637 0.945,-0.236 2.042,-0.349 2.596,-1.256 0.3,-0.489 0.198,-1.228 0.198,-1.778 0,-1.036 0.055,-2.105 0.17,-3.132 0.026,-0.241 0.17,-0.443 0.225,-0.678 0.066,-0.278 0,-0.565 0.028,-0.846 0.093,-0.955 0.543,-1.829 -0.254,-2.625 a 2.4,2.4 0 0 0 -0.508,-0.395 c -0.238,-0.136 -0.515,-0.18 -0.762,-0.296 -0.7,-0.331 -1.32,-0.67 -2.116,-0.748 -0.444,-0.043 -0.926,0.051 -1.355,0.14 -1.084,0.227 -2.25,0.48 -3.217,1.045 -1.271,0.741 -1.863,2.316 -1.863,3.725 0,0.61 0.06,1.277 0.451,1.778 0.683,0.873 2.584,0.751 3.528,0.424 0.277,-0.096 0.74,-0.261 0.917,-0.508 0.282,-0.392 -0.474,-0.708 -0.747,-0.819 -0.523,-0.21 -1.12,-0.404 -1.397,-0.96 -0.094,-0.187 -0.043,-0.473 -0.043,-0.677 0,-0.21 -0.008,-0.41 0.113,-0.592 0.199,-0.3 0.504,-0.41 0.819,-0.536 0.948,-0.382 1.798,-0.448 2.794,-0.254 0.337,0.065 0.836,-0.045 0.987,0.366 0.255,0.692 -0.072,1.752 -0.14,2.456 -0.103,1.049 0.076,2.178 -0.085,3.217 -0.071,0.458 -1.051,0.474 -1.44,0.593 -0.822,0.251 -1.653,0.467 -2.455,0.79 -0.688,0.277 -1.342,0.635 -2.032,0.903 -0.368,0.143 -1.356,0.81 -1.665,0.423 -0.145,-0.18 -0.167,-0.463 -0.226,-0.677 -0.096,-0.347 -0.285,-0.668 -0.367,-1.016 -0.086,-0.366 -0.087,-0.744 -0.226,-1.1 -0.42,-1.08 -0.623,-2.193 -0.93,-3.303 -0.203,-0.727 -0.489,-1.624 -0.199,-2.37 0.51,-1.312 2.197,-2.006 3.359,-2.554 1.466,-0.693 2.969,-1.36 4.403,-2.117 0.376,-0.198 0.717,-0.468 1.1,-0.65 0.495,-0.233 1.042,-0.365 1.524,-0.62 1.753,-0.925 3.461,-1.96 5.165,-2.977 0.896,-0.535 1.979,-1.242 3.048,-1.242 0.203,1.1 -0.188,2.081 -0.48,3.132 -0.258,0.93 -0.503,1.862 -0.762,2.794 -0.826,2.973 -1.467,5.965 -1.467,9.06 0,1.386 -0.113,2.795 -0.396,4.148 -0.1,0.484 -0.144,1.206 -0.48,1.595 -0.193,0.224 -0.561,0.323 -0.818,0.452 q -1.12,0.56 -2.286,1.03 c -1.248,0.502 -2.477,1.05 -3.725,1.552 -1.361,0.548 -2.751,1.015 -3.98,1.834 -1.862,1.242 -3.591,2.794 -5.249,4.29 -0.372,0.336 -0.775,0.68 -1.115,1.044 -0.292,0.315 -0.471,0.64 -0.917,0.734 -0.094,-1.195 -0.474,-2.388 -0.733,-3.556 -0.33,-1.484 -0.745,-3.105 -1.397,-4.487 -0.514,-1.088 -0.976,-2.234 -1.524,-3.302 -0.199,-0.387 -0.591,-0.678 -0.72,-1.1 -0.277,-0.907 0.254,-2.068 0.593,-2.88 0.12,-0.288 0.484,-0.769 0.324,-1.1 -0.097,-0.2 -0.28,-0.15 -0.437,-0.057 -0.31,0.185 -0.626,0.664 -1.016,0.381 -0.575,-0.416 -1.039,-1.323 -1.37,-1.933 -0.602,-1.113 -1.642,-2.128 -1.904,-3.387 -0.257,-1.234 0.715,-2.241 1.298,-3.217 0.543,-0.91 0.938,-1.965 1.298,-2.963 0.423,-1.17 0.627,-2.426 1.13,-3.556 0.274,-0.617 0.882,-1.216 1.043,-1.863 0.076,-0.303 -0.003,-0.624 0.057,-0.931 0.175,-0.9 0.481,-1.81 0.889,-2.625 0.173,-0.346 0.323,-0.733 0.607,-1.016 0.421,-0.421 1.133,-0.6 1.693,-0.748 1.397,-0.368 2.84,-0.371 4.233,-0.72 0.842,-0.21 1.678,-0.83 2.54,-0.903 0.414,-0.034 0.794,0.218 1.186,0.31 0.3,0.072 0.707,0.06 1.016,0.03 0.667,-0.066 1.216,-0.492 1.778,-0.82 a 13,13 0 0 1 1.693,-0.846 c 1.28,-0.515 2.66,-0.573 3.98,-0.903 0.82,-0.205 1.621,-0.496 2.455,-0.65 -0.154,0.53 -0.848,0.813 -1.27,1.13 -0.91,0.682 -1.716,1.477 -2.625,2.159 -1.904,1.427 -3.906,2.868 -6.011,3.979 -2.335,1.232 -4.829,2.21 -7.112,3.542 -0.42,0.244 -0.88,0.435 -1.27,0.734 -1.168,0.892 -1.925,2.063 -2.554,3.358 -0.398,0.818 -0.757,1.887 -0.494,2.794 h 0.169 c 0.307,-1.458 1.737,-2.258 2.879,-3.02 2.81,-1.873 6.014,-3.052 8.974,-4.614 2.455,-1.296 4.93,-2.859 7.112,-4.586 1.036,-0.82 2.011,-1.72 3.048,-2.54 0.923,-0.73 1.812,-1.511 2.71,-2.272 0.264,-0.224 0.637,-0.832 1.016,-0.832 0.285,0 0.424,0.31 0.564,0.508 0.333,0.47 0.727,0.894 1.072,1.354 0.628,0.837 1.642,1.74 1.891,2.794 0.107,0.452 -0.013,0.91 -0.056,1.355 -0.096,0.99 -0.254,1.96 -0.254,2.963 m 3.528,10.217 -0.029,0.056 z"
       style="fill:#020202;stroke:none"
       id="path2" /></g></svg>
