<svg xmlns="http://www.w3.org/2000/svg" width="655.36" height="655.36" viewBox="0 0 173.397 173.397"><g style="display:inline"><path d="M63.258 29.425c-2.456 13.779-6.925 38.86-7.928 40.572-1.002 1.712-20.51 13.552-23.003 16.247-2.494 2.696-2.366 8.874.25 10.882s8.974 2.537 14.296 4.671 13.94 8.968 14.34 9.211 1.842-1.208 1.908-1.293c.065-.086 1.055-1.774.426-2.699-.63-.925-6.089-6.91-10.139-9.628s-12.73-5.814-12.73-6.142c.001-.328 8.704-6.266 12.718-9.014 4.014-2.749 9.826-6.75 10.24-9.102s-.088-28.56-.378-43.705" style="fill:none;fill-opacity:1;stroke:#000;stroke-width:11.8079;stroke-linecap:round;stroke-linejoin:round;stroke-miterlimit:5;stroke-dasharray:none;stroke-opacity:1;paint-order:stroke fill markers" transform="matrix(.90373 0 0 .9015 -10.415 -19.399)"/><path d="M111.605 20.836c-.869 8.811-2.51 25.454-2.33 26.24s8.317 11.305 13.628 15.895c5.31 4.59 16.49 11.651 17.337 15.315.846 3.664-7.3 15.774-11.994 20.109-4.696 4.335-22.932 15.502-23.833 16.265s-.193 4.158.464 5.3c.657 1.143 3.009 3.087 4.244 2.547s17.884-10.536 27.302-16.191l19.295-19.855.425-7.547c-1.164-1.686-3.283-4.757-4.06-5.417-.775-.66-17.484-13.332-20.92-16.35-3.435-3.017-8.767-8.96-12.59-13.22.318-.313.918-.905.795-1.312s-5.123-14.394-7.763-21.779" style="fill:none;fill-opacity:1;stroke:#000;stroke-width:13.758;stroke-linecap:round;stroke-linejoin:round;stroke-miterlimit:5;stroke-dasharray:none;stroke-opacity:1;paint-order:stroke fill markers" transform="matrix(.81226 0 0 .73882 34.938 -8.43)"/><path d="M83.493 7.983c-.887 7.762-2.48 21.693-2.155 23.024.324 1.33 10.934 14.993 10.29 15.76-.645.769-30.407 10.249-31.55 11.01-1.145.76 2.79 6.876 5.929 7.994 3.138 1.119 16.302 2.737 25.254 9.967 8.951 7.23 23.59 29.673 23.343 33.682-.248 4.01-20.767 28.09-25.247 32.477-4.479 4.387-10.557 6.062-11.74 5.037-1.184-1.025-28.912-32.915-29.21-37.094-.298-4.178 21.206-21.936 24.361-22.485 3.156-.55 14.275 11.658 14.763 13.24s-2.635 5.316-6.258 9.089c-3.624 3.772-5.166 5.181-6.732 4.802s-1.486-1.897-1.063-6.333c.423-4.437.995-8.397.76-8.544s-3.767 1.924-6.964 4.529-5.3 4.985-4.5 6.702 10.734 11.904 15.392 11.06 18.046-15.514 17.696-18.802c-.351-3.287-19.867-21.476-22.523-22.535-2.655-1.058-7.104 2.44-14.59 8.001s-10.046 7.39-15.563 10.976-9.571 5.829-9.677 7.873 1.685 3.15 9.647 14.248 9.576 14.14 15.855 21.898c6.278 7.758 15.949 12.774 16.497 12.886.55.113 12.2-2.162 13.408-3.266 1.21-1.105 34.214-39.633 34.922-40.527s1.35-4.816.615-6.065c-.734-1.25-17.476-26.354-26.29-34.026S74 61.891 74.175 61.455s26.922-7.75 27.98-8.217c1.056-.467 1.018-3.558.997-5.281-5.013-5.987-14.21-16.972-14.751-18.072S85.033 15.32 83.493 7.983" style="fill:none;fill-opacity:1;stroke:#000;stroke-width:10;stroke-linecap:round;stroke-linejoin:round;stroke-miterlimit:5;stroke-dasharray:none;stroke-opacity:1;paint-order:stroke fill markers" transform="translate(-4.273 -.912)scale(1.06579)"/></g><g fill="#fff" style="display:inline"><path d="M46.753 7.128c-2.22 12.421-6.258 35.032-7.164 36.575S21.053 55.92 18.8 58.349s-2.138 8 .226 9.81 8.11 2.288 12.92 4.211 12.598 8.085 12.96 8.304c.36.219 1.664-1.089 1.724-1.166.058-.077.953-1.599.385-2.433-.57-.834-5.503-6.23-9.163-8.68s-11.505-5.24-11.505-5.536c.001-.296 7.866-5.649 11.494-8.126 3.627-2.479 8.88-6.085 9.254-8.206s-.08-25.746-.342-39.4M125.59 6.965c-.706 6.51-2.039 18.806-1.892 19.386.146.581 6.755 8.353 11.07 11.744 4.312 3.391 13.393 8.608 14.081 11.315s-5.93 11.654-9.742 14.857c-3.814 3.203-18.627 11.453-19.359 12.017-.731.564-.156 3.072.377 3.916.534.844 2.444 2.28 3.448 1.881 1.003-.399 14.526-7.784 22.176-11.962l15.673-14.67.345-5.575c-.946-1.246-2.667-3.515-3.298-4.002-.63-.488-14.202-9.85-16.993-12.08-2.79-2.229-7.12-6.62-10.226-9.767.258-.231.746-.669.646-.97s-4.161-10.634-6.306-16.09M84.713 7.596c-.945 8.273-2.643 23.12-2.296 24.539.345 1.417 11.653 15.98 10.966 16.797-.687.82-32.407 10.923-33.625 11.734-1.22.81 2.973 7.328 6.319 8.52 3.344 1.193 17.374 2.917 26.915 10.623 9.54 7.705 25.142 31.625 24.879 35.898-.264 4.273-22.133 29.938-26.908 34.613-4.774 4.676-11.251 6.461-12.512 5.369s-30.814-35.08-31.132-39.535c-.318-4.453 22.601-23.379 25.964-23.964 3.363-.586 15.214 12.425 15.734 14.111s-2.808 5.666-6.67 9.687-5.506 5.522-7.175 5.118-1.583-2.022-1.133-6.75c.451-4.729 1.06-8.95.81-9.106s-4.014 2.05-7.422 4.827-5.648 5.313-4.796 7.143c.853 1.83 11.44 12.687 16.405 11.788 4.964-.9 19.233-16.535 18.86-20.04-.374-3.503-21.174-22.888-24.005-24.017-2.83-1.127-7.571 2.6-15.55 8.528-7.978 5.926-10.706 7.876-16.586 11.698s-10.201 6.212-10.314 8.39 1.796 3.358 10.282 15.186c8.485 11.828 10.206 15.07 16.898 23.339 6.69 8.268 16.998 13.614 17.582 13.733.586.12 13.003-2.304 14.29-3.48 1.29-1.178 36.465-42.24 37.22-43.194.754-.953 1.438-5.133.655-6.464s-18.626-28.088-28.02-36.264S74.596 65.05 74.782 64.586c.187-.465 28.693-8.26 29.821-8.757 1.126-.498 1.085-3.793 1.063-5.629-5.343-6.38-15.145-18.088-15.722-19.26-.576-1.173-3.59-15.524-5.23-23.344" display="inline"/></g></svg>