<svg xmlns="http://www.w3.org/2000/svg" width="655.36" height="655.36" viewBox="0 0 173.397 173.397"><g style="display:inline"><path d="M21.167 67.564c-.02.74-.33 1.48-.48 2.201-.161.772-.206 1.588-.282 2.371-.05.518-.289 1.009-.339 1.524-.064.653-.191 1.299-.254 1.947-.052.532.052 1.078 0 1.609-.028.285-.146.561-.17.847-.023.288.114.554.085.846-.038.396-.13.79-.169 1.186-.063.643.063 1.304 0 1.947-.036.375-.218.726-.254 1.1-.116 1.19.227 2.238.339 3.387.187 1.926.506 3.77.903 5.673.522 2.505 1.064 5.067 1.75 7.535.192.694.642 1.335.874 2.032.313.94.466 1.981.89 2.879.613 1.3 1.556 2.414 2.412 3.556.789 1.051 1.513 2.173 2.413 3.133 1.648 1.755 3.794 3.05 5.744 4.43 1.945 1.379 3.823 2.865 5.757 4.262.58.418 1.201.74 1.778 1.157 2.04 1.473 4.137 2.878 6.011 4.544.318.282.702.478 1.016.762 1.67 1.507 3.07 3.618 5.504 3.81 0 .649.238 1.321.395 1.947.426 1.705 1.078 3.715 2.399 4.967a7.4 7.4 0 0 0 1.862 1.285c.254.12.726.127.89.366.118.173.12.466.183.664.143.448.348.927.55 1.354.287.608.685 1.2 1.03 1.778.139.232.33.416.41.678.216.71.201 1.476.352 2.201.41 1.965 1.146 4.183 2.681 5.588 1.427 1.306 3.208 2.265 5.08 2.681.633.14 1.305.305 1.948.367.285.028.747-.108 1.002.042.407.24.69.941.973 1.313.508.665 1.342 1.352 2.089 1.735.574.295 1.241.424 1.862.579.548.137 1.131.34 1.694.395 1.23.12 2.59.034 3.81-.085.798-.077 1.57-.441 2.37-.508.323-.027.616.139.932.17.88.085 1.746.338 2.624.423 2.005.195 4.306-.061 6.181-.79.54-.21 1.055-.706 1.524-1.045.272-.196.6-.361.818-.62.285-.337.636-.791.833-1.186.08-.16.056-.358.226-.465.243-.154.724-.016 1.002-.043.366-.035.744-.15 1.1-.24 2.145-.536 4.365-1.105 5.983-2.751 1.652-1.68 2.164-4.026 2.625-6.237.103-.494.07-1.038.212-1.524.158-.542.718-1.027.988-1.524.256-.474.546-.94.747-1.44.154-.382.211-.81.381-1.185.132-.29.65-.38.918-.522.64-.338 1.318-.862 1.834-1.369 1.525-1.498 2.06-3.276 2.512-5.306.128-.575.31-1.097.31-1.693 2.043-.054 3.483-1.814 4.84-3.104 1.585-1.507 3.39-2.746 5.151-4.036.691-.507 1.289-1.098 2.032-1.552 2.72-1.663 5.237-3.674 7.79-5.588 1.521-1.142 3.227-2.042 4.656-3.317 1.484-1.324 2.646-2.911 3.838-4.501.633-.844 1.364-1.614 1.891-2.54.593-1.042.855-2.19 1.242-3.302.281-.81.645-1.629.875-2.455.176-.636.264-1.327.48-1.948.415-1.197.672-2.4.93-3.64.261-1.249.616-2.479.876-3.726.188-.902.193-1.796.282-2.709.096-.99.412-1.973.508-2.963.082-.842-.066-1.638-.17-2.456-.07-.553.055-1.131 0-1.693-.032-.34-.136-.676-.169-1.016-.128-1.324-.04-2.656-.169-3.98-.08-.82-.344-1.634-.423-2.455-.19-1.95-.576-3.827-.932-5.757 2.895-.229 5.66-2.221 7.592-4.262.237-.25.389-.564.621-.818.468-.511.916-.956 1.326-1.524.45-.622.714-1.292 1.087-1.947 1.435-2.52 2.55-5.014 3.147-7.874.064-.308-.002-.622.028-.932.025-.26.144-.502.17-.762.074-.765-.117-1.517-.085-2.286.029-.697.153-1.407.084-2.116a22.2 22.2 0 0 0-2.44-8.213c-.568-1.075-1.104-2.162-1.864-3.133-.623-.796-1.417-1.488-2.13-2.201-.558-.557-1.076-1.224-1.694-1.707-1.615-1.265-3.346-2.55-5.249-3.317-.343-.138-.658-.352-1.016-.451-2.018-.56-4.016-.625-6.096-.452-.315.027-.61-.116-.931-.084-2.121.206-4.156.651-6.181 1.326-.438.146-.91.187-1.355.31-.729.203-1.4.552-2.116.79-.892.298-1.86.573-2.71.974-.665.315-1.247.826-1.862 1.228a69 69 0 0 0-2.71 1.835c-.416.3-.79.65-1.185.973-.143.117-.23.24-.423.268-.525.076-1.08-.051-1.609 0-.187.019-.404.146-.593.1-.218-.055-.415-.282-.592-.41-.542-.392-1.124-.835-1.778-1.016-2.048-.569-4.102-1.119-6.181-1.58-.965-.215-1.895-.47-2.879-.565-.49-.048-.95-.291-1.439-.339-1.63-.158-3.255.046-4.826.395-.82.182-1.785.343-2.54.72-.544.272-1.116.674-1.609 1.03-.224.162-.572.54-.846.593-.253.049-.811-.393-1.101-.466-1.104-.276-2.413-.727-3.556-.663-.285.016-.563.142-.847.17-.507.049-1.018.035-1.524.084-1.32.128-2.817.67-3.979 1.284-1.06.56-1.834 1.566-2.963 1.99-.444.166-.946-.106-1.355-.282-.987-.425-1.87-.973-2.794-1.524-1.024-.612-2.147-.9-3.302-1.158-1.618-.36-3.198-.576-4.826-.169-.704.176-1.831.255-2.286.875-1.756-1.433-3.666-2.085-5.842-2.568-1.347-.3-2.751-.447-4.149-.31-.65.062-1.31.262-1.947.394-1.267.264-2.55.384-3.81.734-1.04.29-2.027.704-3.048 1.044-.438.146-.91.187-1.355.31a5.4 5.4 0 0 0-1.608.763c-.265.191-.663.621-.988.677-.258.045-.61-.172-.875-.197a6.5 6.5 0 0 0-1.185 0c-.136.013-.288.099-.424.07-.3-.062-.545-.467-.762-.663-.49-.443-1.072-.855-1.608-1.242-1.4-1.01-2.825-2.008-4.403-2.71-1.463-.65-3.057-.99-4.572-1.495a49 49 0 0 0-3.64-1.058c-.653-.163-1.361-.391-2.033-.438a40 40 0 0 0-2.794-.084c-1.042 0-2.282-.185-3.302.028-1.055.22-2.239.455-3.217.917-1.717.81-3.275 1.872-4.741 3.09-1.035.86-2.287 1.514-3.147 2.569a33.5 33.5 0 0 0-3.09 4.487c-.476.834-.806 1.826-1.186 2.71-.25.578-.311 1.257-.48 1.862-.555 2.001-.85 4.02-.649 6.096.104 1.065-.018 2.153.085 3.217.11 1.124.546 2.31.875 3.387a23.7 23.7 0 0 0 3.415 6.858c2.087 2.89 4.516 5.739 8.156 6.548.45.1.895.274 1.355.31z" id="bear_svg" display="inline" fill="#fff" stroke="#000" stroke-width="2"/><path d="M21.167 67.564c-.02.74-.33 1.48-.48 2.201-.161.772-.206 1.588-.282 2.371-.05.518-.289 1.009-.339 1.524-.064.653-.191 1.299-.254 1.947-.052.532.052 1.078 0 1.609-.028.285-.146.561-.17.847-.023.288.114.554.085.846-.038.396-.13.79-.169 1.186-.063.643.063 1.304 0 1.947-.036.375-.218.726-.254 1.1-.116 1.19.227 2.238.339 3.387.187 1.926.506 3.77.903 5.673.522 2.505 1.064 5.067 1.75 7.535.192.694.642 1.335.874 2.032.313.94.466 1.981.89 2.879.613 1.3 1.556 2.414 2.412 3.556.789 1.051 1.513 2.173 2.413 3.133 1.648 1.755 3.794 3.05 5.744 4.43 1.945 1.379 3.823 2.865 5.757 4.262.58.418 1.201.74 1.778 1.157 2.04 1.473 4.137 2.878 6.011 4.544.318.282.702.478 1.016.762 1.67 1.507 3.07 3.618 5.504 3.81 0 .649.238 1.321.395 1.947.426 1.705 1.078 3.715 2.399 4.967a7.4 7.4 0 0 0 1.862 1.285c.254.12.726.127.89.366.118.173.12.466.183.664.143.448.348.927.55 1.354.287.608.685 1.2 1.03 1.778.139.232.33.416.41.678.216.71.201 1.476.352 2.201.41 1.965 1.146 4.183 2.681 5.588 1.427 1.306 3.208 2.265 5.08 2.681.633.14 1.305.305 1.948.367.285.028.747-.108 1.002.042.407.24.69.941.973 1.313.508.665 1.342 1.352 2.089 1.735.574.295 1.241.424 1.862.579.548.137 1.131.34 1.694.395 1.23.12 2.59.034 3.81-.085.798-.077 1.57-.441 2.37-.508.323-.027.616.139.932.17.88.085 1.746.338 2.624.423 2.005.195 4.306-.061 6.181-.79.54-.21 1.055-.706 1.524-1.045.272-.196.6-.361.818-.62.285-.337.636-.791.833-1.186.08-.16.056-.358.226-.465.243-.154.724-.016 1.002-.043.366-.035.744-.15 1.1-.24 2.145-.536 4.365-1.105 5.983-2.751 1.652-1.68 2.164-4.026 2.625-6.237.103-.494.07-1.038.212-1.524.158-.542.718-1.027.988-1.524.256-.474.546-.94.747-1.44.154-.382.211-.81.381-1.185.132-.29.65-.38.918-.522.64-.338 1.318-.862 1.834-1.369 1.525-1.498 2.06-3.276 2.512-5.306.128-.575.31-1.097.31-1.693 2.043-.054 3.483-1.814 4.84-3.104 1.585-1.507 3.39-2.746 5.151-4.036.691-.507 1.289-1.098 2.032-1.552 2.72-1.663 5.237-3.674 7.79-5.588 1.521-1.142 3.227-2.042 4.656-3.317 1.484-1.324 2.646-2.911 3.838-4.501.633-.844 1.364-1.614 1.891-2.54.593-1.042.855-2.19 1.242-3.302.281-.81.645-1.629.875-2.455.176-.636.264-1.327.48-1.948.415-1.197.672-2.4.93-3.64.261-1.249.616-2.479.876-3.726.188-.902.193-1.796.282-2.709.096-.99.412-1.973.508-2.963.082-.842-.066-1.638-.17-2.456-.07-.553.055-1.131 0-1.693-.032-.34-.136-.676-.169-1.016-.128-1.324-.04-2.656-.169-3.98-.08-.82-.344-1.634-.423-2.455-.19-1.95-.576-3.827-.932-5.757 2.895-.229 5.66-2.221 7.592-4.262.237-.25.389-.564.621-.818.468-.511.916-.956 1.326-1.524.45-.622.714-1.292 1.087-1.947 1.435-2.52 2.55-5.014 3.147-7.874.064-.308-.002-.622.028-.932.025-.26.144-.502.17-.762.074-.765-.117-1.517-.085-2.286.029-.697.153-1.407.084-2.116a22.2 22.2 0 0 0-2.44-8.213c-.568-1.075-1.104-2.162-1.864-3.133-.623-.796-1.417-1.488-2.13-2.201-.558-.557-1.076-1.224-1.694-1.707-1.615-1.265-3.346-2.55-5.249-3.317-.343-.138-.658-.352-1.016-.451-2.018-.56-4.016-.625-6.096-.452-.315.027-.61-.116-.931-.084-2.121.206-4.156.651-6.181 1.326-.438.146-.91.187-1.355.31-.729.203-1.4.552-2.116.79-.892.298-1.86.573-2.71.974-.665.315-1.247.826-1.862 1.228a69 69 0 0 0-2.71 1.835c-.416.3-.79.65-1.185.973-.143.117-.23.24-.423.268-.525.076-1.08-.051-1.609 0-.187.019-.404.146-.593.1-.218-.055-.415-.282-.592-.41-.542-.392-1.124-.835-1.778-1.016-2.048-.569-4.102-1.119-6.181-1.58-.965-.215-1.895-.47-2.879-.565-.49-.048-.95-.291-1.439-.339-1.63-.158-3.255.046-4.826.395-.82.182-1.785.343-2.54.72-.544.272-1.116.674-1.609 1.03-.224.162-.572.54-.846.593-.253.049-.811-.393-1.101-.466-1.104-.276-2.413-.727-3.556-.663-.285.016-.563.142-.847.17-.507.049-1.018.035-1.524.084-1.32.128-2.817.67-3.979 1.284-1.06.56-1.834 1.566-2.963 1.99-.444.166-.946-.106-1.355-.282-.987-.425-1.87-.973-2.794-1.524-1.024-.612-2.147-.9-3.302-1.158-1.618-.36-3.198-.576-4.826-.169-.704.176-1.831.255-2.286.875-1.756-1.433-3.666-2.085-5.842-2.568-1.347-.3-2.751-.447-4.149-.31-.65.062-1.31.262-1.947.394-1.267.264-2.55.384-3.81.734-1.04.29-2.027.704-3.048 1.044-.438.146-.91.187-1.355.31a5.4 5.4 0 0 0-1.608.763c-.265.191-.663.621-.988.677-.258.045-.61-.172-.875-.197a6.5 6.5 0 0 0-1.185 0c-.136.013-.288.099-.424.07-.3-.062-.545-.467-.762-.663-.49-.443-1.072-.855-1.608-1.242-1.4-1.01-2.825-2.008-4.403-2.71-1.463-.65-3.057-.99-4.572-1.495a49 49 0 0 0-3.64-1.058c-.653-.163-1.361-.391-2.033-.438a40 40 0 0 0-2.794-.084c-1.042 0-2.282-.185-3.302.028-1.055.22-2.239.455-3.217.917-1.717.81-3.275 1.872-4.741 3.09-1.035.86-2.287 1.514-3.147 2.569a33.5 33.5 0 0 0-3.09 4.487c-.476.834-.806 1.826-1.186 2.71-.25.578-.311 1.257-.48 1.862-.555 2.001-.85 4.02-.649 6.096.104 1.065-.018 2.153.085 3.217.11 1.124.546 2.31.875 3.387a23.7 23.7 0 0 0 3.415 6.858c2.087 2.89 4.516 5.739 8.156 6.548.45.1.895.274 1.355.31m4.064-36.802c1.002-.083 2.133-.04 3.132.057.26.025.502.144.762.169.875.085 1.778.146 2.625.367.884.23 1.747.607 2.625.875 1.669.51 3.396.944 4.91 1.848 1.193.713 2.439 1.566 3.472 2.498.561.507 1.046 1.256 1.693 1.651.904.552 2.285.325 3.274.325.507 0 1.063-.05 1.44.395.43.508.45 1.233.45 1.862 0 .834.05 1.648-.14 2.456-.17.716-.008 1.508-.55 2.116-.322.36-.84.568-1.257.776-.484.242-.955.52-1.439.762-.938.47-1.927.82-2.879 1.27-1.407.665-2.78 1.17-4.318 1.341-.442.05-.797.215-1.27.17-1.108-.108-1.266-1.125-1.354-2.033-.058-.596-.249-1.33-.522-1.862-.54-1.051-2.156-1.53-3.204-1.835-.454-.132-.903-.077-1.354-.14-.18-.026-.332-.124-.508-.156-.672-.124-1.577-.051-2.258-.014-1.159.063-2.413.569-3.5.931-.894.298-1.923.452-2.511 1.298-.178.256-.268.63-.34.932-.11.47-.027 1.04-.027 1.524 0 1.577.218 3.358 1.044 4.741.32.538 1.245 2.036 2.004 1.355.582-.523.316-1.137.254-1.778-.064-.656-.106-1.296-.17-1.948-.077-.79-.333-1.64-.14-2.455.214-.908.989-.981 1.749-1.214 1.387-.423 3.007-.465 4.403 0 .64.214 1.34.386 1.679 1.045.298.579.183 1.316.183 1.947 0 .761.075 1.561-.197 2.286-.444 1.184-1.871 2.044-2.85 2.738-.613.434-1.138.994-1.694 1.495-.745.673-1.502 1.302-2.201 2.032-1.315 1.372-2.037 3.134-4.064 3.613-1.372.324-2.911-.851-3.81-1.75-.877-.876-1.768-1.802-2.512-2.794-.555-.74-.89-1.57-1.312-2.37-.407-.77-.798-1.472-1.115-2.287-.48-1.232-.86-2.5-.988-3.81-.08-.828 0-1.706 0-2.54 0-1.782.12-3.584.79-5.249 1.072-2.66 2.672-4.854 4.798-6.773 1.712-1.546 3.735-3.221 6.011-3.782.354-.087.815-.054 1.186-.085m120.65 0c1.545-.15 3.173.049 4.572.748.977.489 1.816 1.2 2.709 1.82 2.199 1.527 4.016 3.506 5.263 5.87.49.927 1.028 1.854 1.313 2.88.484 1.744.536 3.441.536 5.249 0 .663.073 1.373 0 2.032-.023.21-.146.381-.17.592-.16 1.445-.606 2.85-1.255 4.149-.577 1.153-1.147 2.421-1.905 3.471-.732 1.014-1.633 1.9-2.498 2.794-.908.938-2.346 1.998-3.74 1.863-2.173-.211-3.185-2.577-4.5-3.98-.609-.647-1.36-1.182-2.019-1.777-.53-.479-1.04-.978-1.608-1.411-.852-.65-2.088-1.349-2.61-2.315-.458-.844-.438-1.686-.438-2.624 0-.663-.144-1.521.211-2.117.34-.568.99-.723 1.567-.931 1.397-.505 3.079-.459 4.487-.029.771.236 1.49.322 1.75 1.214.228.784-.067 1.69-.141 2.455-.066.68-.103 1.351-.17 2.032-.056.581-.243 1.22.254 1.694.723.689 1.733-.829 2.018-1.355.798-1.473 1.03-3.174 1.03-4.826 0-.509.09-1.113-.028-1.609-.302-1.28-1.345-1.54-2.427-1.961-2.037-.792-4.496-1.38-6.604-.86-.239.058-.498-.04-.734 0-1.219.199-3.065.733-3.81 1.805-.367.53-.559 1.48-.62 2.117-.09.91-.2 1.755-1.27 1.933a2.8 2.8 0 0 1-.678.014c-1.759-.17-3.285-.804-4.91-1.481-1.002-.418-2.005-.792-2.964-1.299-.84-.443-2.142-.848-2.738-1.622-.479-.623-.358-1.4-.508-2.117-.183-.882-.056-1.658-.056-2.54 0-.577-.03-1.307.367-1.778.346-.41.959-.31 1.425-.31.973 0 2.189.175 3.119-.212.79-.33 1.29-1.3 1.947-1.82 1.719-1.361 3.62-2.892 5.757-3.486 1.743-.484 3.427-1.172 5.165-1.68.457-.132.968-.144 1.44-.197.64-.07 1.297-.275 1.947-.338.506-.05 1.012-.007 1.524-.057m-82.212 3.895c2.052-.171 4.485.768 5.73 2.427.864 1.153 1.27 2.713 1.721 4.064.593 1.78 1.005 3.561 1.185 5.419.062.632-.11 1.172-.169 1.778-.033.335.033.68 0 1.016-.046.475-.2.975-.31 1.439-.39 1.65-.737 3.237-1.355 4.826-.715 1.839-1.29 3.972-2.822 5.334-1.177 1.046-2.409-.042-3.387-.776-.915-.686-1.943-1.25-2.794-2.018-1.112-1.004-2.126-2.409-3.64-2.85-.903-.264-1.949-.264-2.88-.367-.21-.024-.38-.15-.592-.17a15 15 0 0 0-2.963 0c-.254.025-.511-.03-.762.029-1.68.396-3.315 1.078-4.911 1.721-1.658.668-3.387 1.43-4.741 2.653-1.672 1.51-3.2 3.243-4.375 5.165-.407.666-.758 1.364-1.157 2.032-.392.656-.87 1.27-1.228 1.947-.492.933-.861 1.95-1.17 2.963-.3.98-.355 2.047-.452 3.048-.023.235-.147.443-.17.678-.108 1.11-.327 2.2-.48 3.302-.024.174.067.333.057.508-.014.26-.144.502-.17.762-.04.419.041.85 0 1.27-.025.26-.143.502-.169.762-.083.856 0 1.763 0 2.624s-.083 1.769 0 2.625c.026.26.144.502.17.762.202 2.076.48 4.068 1.044 6.096.284 1.024 1.032 1.926 1.482 2.879.63 1.334 1.204 2.678 1.89 3.979.829 1.57 2.023 3.01 3.204 4.318.747.828 1.636 1.462 2.455 2.201.533.481 1.02.995 1.609 1.411.596.423 1.255.752 1.862 1.158 1.149.765 2.268 1.59 3.387 2.398 1.583 1.144 3.242 2.158 4.826 3.302 1.002.724 2.17 1.237 3.133 2.004.523.417.423.981.423 1.58 0 .555-.184 1.075-.31 1.61-.163.687-.214 1.415-.283 2.116-.023.235-.146.442-.169.677-.047.486.142 1.675-.508 1.849-.23.062-.508-.117-.677-.254-.521-.42-.957-.963-1.44-1.425-1.815-1.74-3.86-3.363-5.926-4.798-1.343-.933-2.725-1.817-4.064-2.766-2.106-1.491-4.158-3.107-6.266-4.6-1.724-1.221-3.56-2.334-4.995-3.923-.603-.667-1.093-1.405-1.637-2.117-.737-.964-1.528-1.87-2.074-2.963-.344-.687-.444-1.491-.72-2.201-.544-1.4-.99-2.86-1.355-4.318-.26-1.044-.67-2.066-.818-3.133-.154-1.107-.423-2.236-.734-3.302-.167-.572-.086-1.21-.14-1.778-.098-.996-.384-1.97-.48-2.963-.07-.714.102-1.347.169-2.032.062-.643-.063-1.305 0-1.948.03-.313.139-.618.169-.931.112-1.15-.027-2.322.085-3.471.088-.914.408-1.812.508-2.71.305-2.75.754-5.6 1.806-8.212.312-.774.786-1.485 1.213-2.202 1.138-1.904 2.57-3.695 4.347-5.051 2.09-1.597 4.332-2.881 6.688-3.994.574-.27 1.203-.434 1.778-.705.66-.312 1.261-.707 1.948-.974.382-.149.797-.192 1.185-.31 1.025-.314 1.96-.866 2.963-1.214.561-.195 1.153-.295 1.694-.55.824-.39 1.64-1.035 2.286-1.68 1.45-1.45 1.693-3.562 1.693-5.503 0-.371.12-.73.085-1.1-.033-.341-.137-.676-.17-1.017-.038-.391.038-.794 0-1.185-.067-.695-.385-1.582-.14-2.286.325-.939 1.895-.952 2.68-1.214 2.67-.89 5.325-1.488 8.128-1.721m45.212 0c.909-.098 1.799.2 2.681.339 1.274.2 2.67.371 3.923.776.592.19 1.182.447 1.778.62.778.228 2.294.291 2.597 1.2.098.296.028.707.028 1.016 0 .974-.16 1.92-.254 2.879a14 14 0 0 0 0 2.54c.028.284.15.561.17.846.102 1.483.63 2.945 1.777 3.98.517.466 1.078 1.007 1.694 1.34.687.373 1.475.512 2.201.805.74.297 1.46.646 2.201.945.716.288 1.495.325 2.202.65.718.328 1.404.735 2.116 1.072.438.206.917.329 1.355.536 2.614 1.234 5.278 2.68 7.45 4.642 1.846 1.666 3.37 3.89 4.474 6.096.529 1.058.79 2.254 1.058 3.387.407 1.723.732 3.402.903 5.165.086.879.423 1.744.508 2.624.047.476-.046.964 0 1.44.026.26.144.502.17.762.073.757.01 1.53.084 2.286.06.615-.06 1.247 0 1.862.075.768.247 1.494.17 2.286-.088.904-.336 1.81-.424 2.71-.027.28.028.567 0 .846-.093.96-.382 1.963-.649 2.879-.333 1.142-.415 2.335-.762 3.471-.42 1.376-.699 2.775-1.157 4.149-.209.626-.512 1.23-.705 1.863-.339 1.107-.652 2.075-1.327 3.048-.393.566-.9 1.047-1.298 1.608-.754 1.064-1.501 2.077-2.484 2.964-2.07 1.868-4.516 3.309-6.773 4.939-1.535 1.108-3.013 2.269-4.572 3.33-2.124 1.445-4.242 2.942-6.265 4.544-.704.557-1.32 1.233-2.032 1.778-.64.488-1.205 1.1-1.778 1.665-.261.257-.616.62-1.016.592-.75-.052-.53-1.446-.607-1.947-.176-1.154-.336-2.323-.607-3.471-.207-.88-.35-1.815.452-2.427.818-.626 1.767-1.094 2.624-1.666 1.101-.734 2.116-1.58 3.218-2.314a286 286 0 0 0 4.487-3.048c.877-.61 1.859-1.1 2.71-1.75.574-.438 1.073-.927 1.608-1.41.907-.819 1.881-1.538 2.71-2.456 1.264-1.401 2.406-2.987 3.287-4.657.638-1.209 1.137-2.486 1.722-3.725.397-.841 1.014-1.56 1.312-2.455.418-1.254.665-2.603.79-3.895.055-.567.284-1.127.339-1.693.136-1.397.085-2.824.085-4.234 0-1.404.05-2.84-.085-4.233-.104-1.075-.404-2.143-.508-3.217-.223-2.296-.53-4.647-1.298-6.858-.46-1.326-1.41-2.415-2.075-3.641-1.4-2.585-3.234-5.275-5.602-7.084-1.709-1.305-3.728-2.259-5.757-2.935-1.67-.557-3.216-1.231-4.995-1.355-.54-.037-1.004.063-1.524.113-.812.08-1.59.083-2.371.31-.245.072-.512.005-.762.029-.34.033-.767.119-1.1.198-1.684.397-2.832 2.098-4.079 3.16-.73.623-1.616 1.045-2.356 1.651-.91.745-2.133 1.867-3.302.974-.334-.255-.544-.574-.79-.903-1.08-1.439-1.561-3.01-2.202-4.657-.618-1.589-.966-3.18-1.355-4.826-.115-.49-.261-1.022-.31-1.524-.027-.28.027-.567 0-.846-.056-.577-.227-1.1-.17-1.694a23.4 23.4 0 0 1 1.27-5.672c.54-1.493.882-3.357 2.117-4.46 1.066-.95 2.552-1.667 3.98-1.806.366-.035.736-.017 1.1-.056M76.37 36.435c1.68-.117 3.08.652 4.488 1.453a34 34 0 0 0 2.963 1.482c.578.257 1.232.674 1.863.762 1.657.23 3.524-.696 4.826-1.637.89-.643 1.568-1.285 2.624-1.637 1.074-.358 2.331-.467 3.472-.451.447.006 1.06.115 1.326.508.41.606.002 1.402-.155 2.032a16 16 0 0 0-.41 2.286c-.032.335.033.68 0 1.016-.027.285-.14.561-.169.846-.095.98-.095 2.154 0 3.133.053.539.223 1.057.17 1.609-.028.285-.142.561-.17.846-.019.197.029.4-.028.593-.3 1.029-1.173 1.711-1.806 2.54-1.619 2.12-3.058 4.387-4.657 6.52-.92 1.226-1.837 2.62-2.554 3.979-.277.525-.785 1.534-1.453 1.608-.722.08-1.233-.56-1.609-1.1-.9-1.296-1.705-2.67-2.596-3.98-.89-1.307-1.834-2.722-2.907-3.894-.328-.358-.773-.574-1.101-.932-.55-.6-.933-1.357-1.383-2.032-.53-.795-1.21-1.611-1.467-2.54-.257-.924-.205-1.933-.113-2.878.102-1.051 0-2.083 0-3.133 0-1.317-.15-2.701-.452-3.98-.179-.756-.76-1.812-.268-2.54.304-.449 1.082-.445 1.566-.48m-1.862 18.19c1.7-.33 3.072 1.048 4.007 2.272 2.127 2.784 3.607 6.03 4.94 9.229.315.758.631 1.516.93 2.286.274.702.57 1.464 1.383 1.679.182.048.406.014.593.014 1.618 0 1.962-1.552 2.653-2.71s1.534-2.222 2.23-3.386c1.19-1.995 2.278-4.088 3.838-5.842.736-.828 1.204-1.865 1.919-2.71.55-.649 1.117-.848 1.721-.169.55.619.817 1.562 1.2 2.286.748 1.419 1.726 2.706 2.68 3.98.596.794 1.493 1.34 1.37 2.455-.077.686-.812 1.32-1.27 1.778a91 91 0 0 0-3.218 3.387c-1.405 1.556-2.733 3.283-3.923 4.995-.824 1.187-1.736 2.306-2.483 3.556-.713 1.193-1.316 2.442-2.032 3.64-1.41 2.36-2.523 4.851-3.232 7.536-.186.708-.5 2.315-1.453 2.328-1.007.014-1.172-1.543-1.425-2.243-.53-1.469-.885-3.014-1.397-4.488-.381-1.096-1.079-2.1-1.595-3.132-.332-.666-.623-1.409-1.03-2.032-.791-1.213-1.757-2.34-2.568-3.556-1.507-2.26-3.202-4.502-5.024-6.52a91 91 0 0 0-3.217-3.386c-.544-.544-1.27-1.293-1.27-2.117 0-.667.466-1.027.818-1.524.59-.833 1.286-1.607 1.863-2.455.779-1.144 1.366-2.364 1.863-3.641.238-.612.364-1.361 1.129-1.51m-20.32 4.332c.663-.064 1.345 0 2.003 0 .75 0 1.504-.052 2.23.17 1.058.323 1.915 1.286 2.71 2.003 1.109 1.002 2.19 2.045 3.301 3.048.9.812 1.895 1.553 2.71 2.456a97 97 0 0 1 4.035 4.741c1.042 1.316 1.847 2.81 2.85 4.149 1.018 1.355 2.255 2.522 3.246 3.894.927 1.283 1.616 2.78 2.202 4.234a81 81 0 0 1 1.693 4.656c.29.87.496 1.792.89 2.625.476 1.009 1.237 1.84 1.82 2.794.462.757.834 1.548 1.326 2.286.281.422.537.8 1.072.903.422.082.8-.277 1.03-.564.6-.745.898-1.686 1.454-2.456.686-.95 1.487-1.983 1.99-3.048.424-.899.63-1.936.945-2.878.65-1.95 1.34-3.905 2.215-5.758.508-1.074 1.063-2.177 1.793-3.132 1.049-1.374 2.354-2.545 3.33-3.98.901-1.324 1.692-2.737 2.723-3.979 1.358-1.635 2.74-3.275 4.191-4.826.635-.678 1.4-1.24 2.089-1.863 1.17-1.057 2.303-2.163 3.471-3.217.848-.766 1.75-1.743 2.879-2.088.799-.245 1.645-.193 2.455-.17 1.002.03 1.99-.088 2.963.155 1.41.353 2.76.85 4.149 1.313.92.306 1.908.216 2.794.635.84.396 1.582 1.083 2.286 1.679.95.804 1.953 1.51 2.794 2.455.378.425.612.985.96 1.44.319.417.725.768 1.044 1.185.47.617.753 1.372 1.157 2.032.357.585.788 1.142 1.044 1.778.272.676.334 1.415.48 2.117.287 1.378.43 2.76.564 4.148.023.235.147.443.17.678.112 1.158.141 2.314.254 3.471.025.26.144.502.169.762.085.874.085 1.92 0 2.794-.025.26-.144.502-.17.762-.027.28.028.567 0 .847-.022.234-.146.442-.169.677-.05.525.037 1.096-.113 1.609-.644 2.21-1.157 4.484-2.159 6.604-.551 1.167-1.026 2.384-1.735 3.471-.787 1.205-1.678 2.307-2.625 3.387-.529.603-1.237 1.077-1.834 1.608-.47.417-.926.878-1.44 1.242-1.348.955-2.77 1.847-4.148 2.766-1.905 1.27-3.816 2.554-5.673 3.895-.647.467-1.32.974-2.032 1.34-.242.125-.483.294-.762.325-.633.07-.88-.263-1.185-.762-.43-.702-.708-1.486-1.115-2.202-.647-1.136-1.216-2.338-1.877-3.471-.486-.833-1.103-1.57-1.637-2.37-.78-1.172-1.493-2.422-2.328-3.557-.582-.79-1.143-1.522-1.454-2.455-.125-.376-.262-.834.043-1.185.377-.435 1.196-.322 1.679-.24.195.033.401-.036.593.014.758.198 1.508.459 2.286.62 1.07.224 2.218.142 3.302.142 1.686 0 3.298.047 4.91-.423.166-.049.34-.017.508-.057.862-.203 1.614-.686 2.018-1.496.691-1.382.923-2.894.776-4.402-.08-.822-.007-1.65-.197-2.456-.582-2.462-1.62-4.989-3.697-6.575-1.21-.925-2.513-1.517-3.98-1.863-.419-.099-1.384.051-1.58-.452-.212-.54.24-1.03.508-1.439.591-.906 1.28-1.81 2.004-2.625.286-.322.485-.736.846-.987.804-.558 1.744-.678 2.681-.678.31 0 .652-.09.96 0 2.75.802 4.59 3.063 6.209 5.306.614.85 1.11 2.012 1.919 2.695.247.21.812.64 1.115.353.348-.33.123-.789-.014-1.185a25 25 0 0 0-1.256-2.964c-1.49-2.979-4.007-5.714-7.126-6.97-.794-.32-1.545-.506-2.371-.678-.307-.064-.61-.206-.931-.113-1.58.461-2.303 1.913-3.246 3.105-.737.93-1.68 1.683-2.399 2.624-.836 1.095-1.576 2.238-2.342 3.387-.706 1.059-1.326 2.158-2.032 3.217-.588.882-1.24 1.77-1.736 2.71-.711 1.348-1.254 2.758-1.89 4.148-.455.99-1.078 2.002-1.398 3.048-.272.89-.362 1.873-.451 2.794-.038.385-.209.698-.17 1.101.069.705.209 1.42.325 2.117.093.56.128 1.143.296 1.693.53 1.736 1.975 3.131 2.907 4.657.82 1.341 1.733 2.627 2.54 3.979a73 73 0 0 1 3.316 6.265c1.072 2.271 1.927 4.73 2.441 7.197.165.788.12 1.574.198 2.37.087.901.26 1.784.17 2.71-.026.26-.145.502-.17.762-.027.28.031.568 0 .847-.101.912-.478 1.973-1.03 2.709-.27.36-.694.895-1.171.988-.457.089-.584-.483-.579-.819.004-.26.13-.502.155-.762.09-.927-.082-1.815-.268-2.709-.26-1.249-1.008-2.48-1.65-3.556-.789-1.32-1.74-2.475-2.625-3.725-.88-1.241-1.96-2.264-3.33-2.95-3.657-1.828-7.59-3.228-10.838-5.8-.536-.424-.902-.994-1.355-1.495-.547-.606-1.254-1.129-1.947-1.552-.677-.414-1.282-.827-2.117-.734-.753.084-1.725.872-2.286 1.355-1.366 1.176-2.481 2.572-3.979 3.612-.9.626-1.912 1.083-2.879 1.566-1.342.672-2.703 1.362-4.064 2.004-1.61.76-3.422 1.357-4.656 2.724-.747.826-1.422 1.723-2.06 2.624-1.178 1.663-2.426 3.383-3.077 5.334a8.8 8.8 0 0 0-.451 2.794c0 .428.157 1.252-.113 1.609-.605.798-1.582-.539-1.82-1.016-.332-.663-.611-1.56-.692-2.286-.034-.307.03-.624 0-.931-.075-.768-.246-1.494-.17-2.286.026-.26.145-.502.17-.762.04-.42-.046-.852 0-1.27.023-.211.146-.382.17-.593.024-.224-.037-.457.028-.677.382-1.312.665-2.673 1.1-3.98 1.339-4.016 3.609-7.625 5.73-11.26.9-1.545 1.974-3.023 2.99-4.488.511-.735 1.14-1.49 1.384-2.37.286-1.03.349-1.991.451-3.048.046-.467.217-.87.17-1.355a20 20 0 0 0-.621-3.387c-.262-.943-.854-1.73-1.214-2.624-.59-1.466-1.199-2.907-1.905-4.318-.93-1.862-2.258-3.558-3.344-5.334-.924-1.513-1.885-3.084-3.076-4.403-.734-.813-1.594-1.586-2.258-2.455-.82-1.073-1.512-2.51-2.907-2.935-.983-.3-2.23.1-3.133.451-1.338.52-2.727 1.167-3.81 2.145-1.366 1.234-2.405 2.804-3.415 4.318-.678 1.018-1.12 2.225-1.524 3.387-.145.418-.435 1.007.029 1.326.346.238.852-.175 1.086-.41.796-.795 1.305-1.884 1.976-2.779 1.853-2.47 4.66-6.02 8.198-4.939.507.155.992.248 1.44.565.402.284.618.71.931 1.072.69.801 1.352 1.666 1.947 2.54.233.342.737.973.466 1.425-.329.548-1.167.331-1.651.466-1.329.37-2.485.89-3.64 1.693-2.267 1.574-3.34 4.242-3.952 6.83-.156.663-.047 1.359-.113 2.032-.027.285-.141.561-.169.847-.043.443.127.838.17 1.27.09.93.278 1.965.761 2.794.545.934 1.414 1.157 2.371 1.383 1.81.427 3.629.501 5.503.423.723-.03 1.408-.044 2.117-.113.25-.024.517.043.762-.028.72-.21 1.464-.443 2.201-.607.198-.044.396.004.593-.056.47-.144 1.23-.274 1.595.183.187.235.153.572.14.847-.047 1.1-.666 1.753-1.283 2.624-.856 1.208-1.584 2.51-2.428 3.726-1.225 1.765-2.484 3.536-3.358 5.503-.246.554-.564 1.072-.833 1.609-.205.411-.368.891-.635 1.27-.229.325-.584.547-.987.508-.41-.04-.758-.28-1.101-.48-.706-.412-1.37-.91-2.032-1.397-1.87-1.376-3.872-2.576-5.757-3.937-1.234-.891-2.572-1.635-3.81-2.512-.464-.328-.836-.78-1.27-1.143-2.115-1.762-3.941-3.742-5.236-6.195-1.25-2.37-2.326-4.98-2.949-7.62-.24-1.016-.337-2.017-.451-3.048-.024-.21-.146-.381-.17-.592-.034-.307.03-.624 0-.932-.025-.26-.144-.502-.169-.762a15 15 0 0 1 0-2.709c.023-.235.146-.442.17-.677.032-.336-.038-.682 0-1.016.023-.211.145-.382.169-.593.034-.307-.03-.624 0-.931.053-.548.2-1.062.254-1.609.068-.705.09-1.412.169-2.117.062-.56.26-1.125.339-1.693.113-.819.236-1.683.536-2.455.32-.824.854-1.525 1.298-2.286.328-.562.589-1.171.988-1.694.341-.447.805-.812 1.129-1.27.31-.438.51-.95.875-1.354.945-1.048 2.076-1.93 3.217-2.738.548-.388 1.01-.903 1.609-1.228.889-.481 1.936-.417 2.878-.705 1.84-.562 3.58-1.295 5.504-1.482m6.18 25.979c1.02-.198 2.053.746 2.794 1.312 1.784 1.363 3.12 3.68 3.486 5.87.17 1.018.21 2.187-.621 2.935-.38.342-.88.374-1.34.508-.322.094-.687-.003-1.017.029-.288.028-.554.151-.846.169-.481.03-.89-.124-1.355-.17-.923-.089-1.871.09-2.794 0-.235-.022-.443-.146-.677-.169-.708-.068-2.02-.203-2.526-.762-.66-.728-.695-1.975-.607-2.878.039-.4-.149-.902-.056-1.27.406-1.625 1.254-3.469 2.68-4.46.81-.56 1.922-.928 2.88-1.114m51.138.17a4 4 0 0 1 1.863.126c.546.182 1.112.34 1.608.65 1.946 1.215 2.964 3.62 2.964 5.813 0 .884.05 2.186-.593 2.879-.492.53-1.436.676-2.117.818-1.2.25-2.41.198-3.64.198-.39 0-.72.132-1.101.169-.515.05-.944-.121-1.44-.17-1.018-.098-1.88-.008-2.624-.846-.778-.875-.412-2.407-.113-3.387.174-.57.293-1.147.55-1.693.64-1.355 1.76-2.692 2.95-3.584.499-.374 1.062-.851 1.693-.974m-25.315 28.547c.964-.067 1.838.742 2.54 1.298 1.208.957 2.517 1.799 3.81 2.625.598.382 1.248.72 1.862 1.086 1.21.723 2.342 1.575 3.556 2.3 2.186 1.306 4.368 2.601 6.096 4.516 1.658 1.836 2.238 4.142 2.907 6.435.273.936.47 1.984.565 2.963.091.94.156 2.254-.198 3.133-.497 1.235-1.476 2.232-1.975 3.471-.5 1.24-.265 2.636-.65 3.895-.944 3.09-4.572 3.694-7.337 3.386-1.843-.204-3.642-.819-5.334-1.594-.586-.269-1.61-.615-1.694-1.369-.063-.568.333-.849.762-1.129.828-.54 2.01-.819 2.597-1.665.3-.431.401-1.035.564-1.524.291-.872.708-1.82 1.411-2.455 1.099-.992 2.882-.996 3.627-2.371 1.87-3.453 1.87-8.227-1.51-10.81-.812-.62-1.984-1.082-2.963-1.354-.524-.145-1.096-.16-1.609-.31-1.273-.371-2.663-.606-3.98-.734-.781-.076-1.585.045-2.37 0-2.457-.142-5.02.05-7.366.734-.565.164-1.182.201-1.75.338-2.115.51-3.999 2.047-4.925 4.008-.354.75-.444 1.483-.522 2.286-.034.355-.205.645-.169 1.016.04.405.17.772.17 1.185 0 1.247.613 2.645 1.199 3.726.469.866 1.443 1.1 2.272 1.467a4.9 4.9 0 0 1 1.608 1.157c.512.567.835 1.318 1.073 2.032.227.682.324 1.429.875 1.948.597.562 1.495.854 2.201 1.256.365.207.796.492.847.945.12 1.081-1.529 1.53-2.286 1.877-1.474.675-3.125 1.183-4.742 1.34-.335.033-.68-.032-1.016 0-.666.065-1.44.113-2.116-.028-1.793-.373-3.753-1.527-4.205-3.443-.322-1.36-.195-2.857-.805-4.149-.616-1.305-1.872-2.48-2.018-3.979-.128-1.323.08-2.63.325-3.895.323-1.664.607-3.444 1.383-4.995.811-1.623 1.975-3.05 3.302-4.29 1.24-1.158 2.863-1.99 4.304-2.85 1.493-.892 2.918-1.887 4.402-2.794 1.582-.967 3.17-1.933 4.657-3.048.722-.542 1.675-1.571 2.625-1.637m.508 13.547a10.7 10.7 0 0 1 3.471.366c.592.173 1.27.17 1.863.31 1.315.311 2.4.961 3.471 1.765 1.068.8 2.357 2.13 2.004 3.626-.223.945-1.264 1.354-2.004 1.807a9.6 9.6 0 0 0-2.681 2.427c-.539.718-.939 1.547-1.27 2.37-.311.772-.422 1.678-.903 2.371-.258.371-.692.573-1.073.79-.936.534-1.97.9-3.048.946-.292.012-.562-.128-.846-.156-1.301-.126-2.896-.68-3.697-1.834-.386-.555-.491-1.323-.734-1.947-.494-1.269-1.236-2.705-2.258-3.641-1.432-1.311-4.326-2.04-3.612-4.487.287-.987 1.153-1.694 1.919-2.3.619-.49 1.229-.913 1.947-1.242 1.505-.69 3.227-.724 4.826-.946.183-.025.325-.144.508-.169.681-.095 1.429-.009 2.117-.056m-.508 19.459c.854-.13 1.71.496 2.37.945 1.292.88 2.607 1.84 3.98 2.583.503.272 1.024.498 1.524.776.207.115.394.18.48.423.333.946-1.195 1.336-1.835 1.496-1.95.487-3.89-.357-5.757-.565-1.467-.163-2.814.531-4.234.65-.519.043-1.086-.013-1.608-.057-.907-.075-1.945-.03-2.625-.762-.73-.787.307-1.3.931-1.594 1.458-.689 2.806-1.659 4.149-2.555.812-.54 1.64-1.19 2.625-1.34" style="fill:#050505;stroke:none"/></g></svg>