<svg xmlns="http://www.w3.org/2000/svg" xml:space="preserve" width="655.36" height="655.36" viewBox="0 0 173.397 173.397"><path d="M7.197 48.599c.093.444.416.88.649 1.27L9.2 52.155c.199.332.448 1.035.79 1.227.195.11.547.043.763.043h28.702c4.26 0 9.002.1 12.361 3.132 3.816 3.445 3.98 8.523 3.98 13.293v5.757c0 15.668-.085 31.334-.085 46.99h-.085c-.225-1.222-1.014-2.398-1.595-3.471-1.923-3.55-5.115-6.047-8.904-7.31-1.692-.564-3.485-.941-5.249-.451-1.443.4-2.677 1.294-3.725 2.342-.384.384-.741.781-1.101 1.186-.139.156-.283.477-.508.522-.143.028-.306-.111-.423-.17-.335-.167-.67-.349-1.016-.493a13.3 13.3 0 0 0-3.81-.96c-.57-.055-1.136.03-1.694.085-4 .389-6.855 3.437-8.565 6.858a15 15 0 0 0-1.03 2.709c-.085.305-.33.696-.31 1.016.015.248.329.268.507.353.362.17.742.328 1.101.508 1.829.914 3.739 1.666 5.588 2.54 7.879 3.72 15.911 7.116 23.791 10.837 2.975 1.405 5.996 2.714 8.975 4.12 3.257 1.539 6.652 2.782 9.906 4.319 2.256 1.065 4.603 1.926 6.858 2.991 2.683 1.267 5.443 2.373 8.128 3.64.924.437 1.868.834 2.794 1.27.467.221 1.015.614 1.524.72.374.078.874-.31 1.185-.465.89-.445 1.811-.846 2.71-1.27 3.917-1.85 7.853-3.655 11.768-5.504 2.901-1.37 5.822-2.695 8.721-4.064 1.53-.722 3.19-1.303 4.657-2.144.257-.148.247-.423.508-.565.531-.29 1.142-.453 1.693-.705 1.62-.743 3.29-1.374 4.91-2.117 5.419-2.484 11.008-4.6 16.426-7.084 3.574-1.638 7.265-3.02 10.837-4.657.978-.447 1.988-.822 2.964-1.27.28-.128.862-.224 1.058-.465.215-.265.242-.912.325-1.242a26 26 0 0 0 .649-3.471c.072-.65.19-1.296.254-1.948.035-.363-.036-.737 0-1.1.361-3.722-.606-8.653-4.488-10.217-2.906-1.17-6.255-.22-8.89 1.171-.791.418-1.49 1.027-2.286 1.426-.03-1.14-.345-2.391-.705-3.472-.412-1.236-.947-2.488-1.835-3.471-3.79-4.199-10.483-2.861-14.308.593-4.34 3.917-5.392 9.993-5.927 15.494-.187 1.924-.61 3.83-.762 5.757-.212-.505-.022-1.082 0-1.609.051-1.237 0-2.487 0-3.725 0-4.469.085-8.914.085-13.377 0-2.994.084-5.994.084-8.975 0-3.722-.07-7.469.085-11.176.12-2.867 0-5.766 0-8.636 0-1.055-.102-2.168 0-3.217.19-1.95.085-3.96.085-5.927 0-.639-.062-1.312 0-1.947.2-2.066.458-4.253.254-6.35-.294-3.027-.734-5.942-1.552-8.89-.814-2.929-2.192-5.785-3.867-8.298-1.394-2.091-2.974-3.905-4.741-5.672-4.298-4.298-10.21-7.14-16.002-8.75-4.3-1.194-8.62-1.912-13.039-2.342-3.216-.312-6.489-.254-9.737-.254h-32.85c-.474 0-1.353-.17-1.778.043-.198.099-.341.31-.508.451-.492.417-.961.853-1.44 1.284-1.676 1.514-3.402 2.974-5.08 4.488-3.83 3.458-7.854 6.702-11.684 10.16-1.545 1.395-3.185 2.68-4.74 4.064-.872.774-1.761 1.611-2.71 2.286M152.569 85.71c-1.891.368-3.547.882-5.08 2.117-4.314 3.475-4.752 10.694-.592 14.45 2.375 2.144 6.064 2.856 9.144 2.257 1.57-.305 3.036-.901 4.318-1.863 4.255-3.191 5.145-9.76 1.524-13.772-1.516-1.679-3.797-2.74-6.012-3.048-1.038-.144-2.25-.346-3.302-.141M13.547 100.528c-2.401.466-4.637 1.167-6.237 3.189-2.992 3.779-2.522 9.855 1.495 12.756 2.045 1.477 4.77 1.776 7.197 1.27 3.62-.754 7.627-2.957 8.862-6.66.22-.662.282-1.34.282-2.032 0-.784-.032-1.536-.282-2.286-1.191-3.573-4.809-5.828-8.439-6.181-.9-.088-1.976-.232-2.878-.056z" id="waterfall_svg" display="inline" fill="#fff" stroke="#000" stroke-width="2"/><path d="M55.71 122.597h-.084c-.25-1.358-1.137-2.727-1.834-3.894-1.921-3.217-4.717-5.38-8.157-6.717-1.833-.713-3.826-1.157-5.757-.621-1.492.414-2.728 1.345-3.81 2.427-.384.384-.741.78-1.1 1.185-.113.127-.24.406-.424.438-.17.03-.369-.185-.508-.254-.298-.15-.625-.282-.931-.41a13 13 0 0 0-3.726-.959c-2.959-.288-5.995 1.127-7.958 3.302-.981 1.086-1.739 2.348-2.385 3.64-.423.846-.729 1.721-1.03 2.625-.105.316-.353.763-.31 1.101.03.25.317.263.507.353l1.101.508c1.849.873 3.737 1.666 5.588 2.54 7.57 3.574 15.288 6.838 22.86 10.414 2.7 1.275 5.454 2.445 8.128 3.782.93.464 1.939.77 2.879 1.213 2.702 1.276 5.51 2.337 8.212 3.613 2.759 1.302 5.625 2.366 8.382 3.668 2.74 1.294 5.557 2.431 8.298 3.726.67.316 1.367.599 2.032.931.357.179.865.53 1.27.565.402.033.907-.4 1.27-.55a53 53 0 0 0 3.302-1.539c3.564-1.782 7.235-3.379 10.837-5.08 2.9-1.37 5.822-2.695 8.72-4.064 1.589-.75 3.305-1.357 4.827-2.23.257-.147.247-.422.508-.564.531-.29 1.142-.453 1.693-.705 1.757-.806 3.575-1.48 5.334-2.286 5.222-2.394 10.61-4.436 15.833-6.83 3.574-1.638 7.264-3.02 10.837-4.657 1.035-.474 2.099-.88 3.133-1.355.28-.128.862-.224 1.058-.465.25-.309.32-1.107.395-1.496.203-1.045.461-2.076.579-3.133.472-4.25.916-9.734-2.964-12.643a6.4 6.4 0 0 0-1.439-.79c-2.807-1.13-6.202-.074-8.72 1.255-.792.418-1.49 1.027-2.287 1.426 0-1.098-.33-2.347-.677-3.387-.624-1.873-1.602-3.75-3.302-4.882-3.862-2.575-9.531-1.103-12.785 1.834-4.359 3.935-5.472 9.952-6.011 15.494-.177 1.823-.677 3.667-.677 5.503-.2-.475-.085-1.17-.085-1.693v-3.556c0-4.215.085-8.402.085-12.615 0-6.518.169-13.048.169-19.558v-7.79c0-1.25-.12-2.567 0-3.81.224-2.308.085-4.7.085-7.027 0-.722-.07-1.483 0-2.201.206-2.12.463-4.368.254-6.52-.258-2.65-.58-5.288-1.299-7.874-1.64-5.904-4.89-11.29-9.454-15.409-4.714-4.256-10.547-6.815-16.595-8.495-2.169-.602-4.45-1.162-6.688-1.411-2.54-.282-5.076-.515-7.62-.762-.532-.052-1.078.052-1.609 0-3.303-.321-6.748-.085-10.075-.085H34.883c-.412 0-1.153-.143-1.524.043-.405.202-.767.672-1.101.973-.504.456-1.02.9-1.524 1.355-2.122 1.916-4.312 3.757-6.435 5.673-2.33 2.104-4.781 4.076-7.112 6.18-1.903 1.718-3.845 3.443-5.842 5.052a87 87 0 0 0-3.217 2.738c-.23.204-.957.582-.903.931.055.355.44.792.62 1.1Q8.567 51.1 9.3 52.325c.182.304.37.88.692 1.058.196.109.545.043.762.043h28.956c4.614 0 9.632.3 12.954 3.979 1.767 1.957 2.71 4.687 2.963 7.281.055.562.03 1.13.085 1.694.13 1.341.084 2.708.084 4.064v6.096c0 15.361-.084 30.696-.084 46.058M15.409 48.345c.393-.482.97-.852 1.44-1.27 1.196-1.063 2.453-2.061 3.64-3.133 3.118-2.814 6.366-5.483 9.483-8.297 1.202-1.086 2.439-2.133 3.64-3.218.49-.44 1.14-1.314 1.779-1.51.454-.139 1.132-.014 1.608-.014h32.512c1.14 0 2.339-.11 3.472 0 1.123.11 2.263.06 3.386.17l4.318.423c1.582.154 3.188.473 4.742.818 7.113 1.581 14.132 4.31 19.134 9.85 1.452 1.608 2.782 3.328 3.796 5.25 2.063 3.908 3.06 8.153 3.486 12.53.196 2.021-.061 4.108-.254 6.096-.105 1.077 0 2.219 0 3.302 0 10.694-.254 21.4-.254 32.089 0 9.066-.17 18.122-.17 27.178v7.45c0 .658-.084 1.298-.084 1.948 0 .243.089.705-.043.917-.154.249-.64.327-.889.451-.78.39-1.58.728-2.37 1.101-2.534 1.196-5.085 2.359-7.62 3.556-2.956 1.396-5.932 2.752-8.89 4.149-.899.424-1.82.825-2.71 1.27-.452.226-1.025.623-1.524.72-.217.042-.41-.126-.592-.212a26 26 0 0 0-1.101-.494c-1.59-.662-3.202-1.361-4.741-2.13-1.212-.607-2.5-1.059-3.726-1.638-3.318-1.567-6.738-2.93-10.075-4.459a127 127 0 0 0-4.064-1.764c-.4-.167-.795-.338-1.185-.522-.204-.096-.5-.132-.664-.296-.23-.23-.098-.935-.098-1.242v-18.119c0-12.399.084-24.77.084-37.168V70.95c0-2.834.088-5.691-.451-8.467-.365-1.874-.961-3.737-1.849-5.419-2.413-4.572-6.969-7.305-11.924-8.269-3.876-.753-7.983-.451-11.938-.451zm30.988-11.487c-.868.17-1.718.38-2.257 1.157-.79 1.137-.095 2.959 1.241 3.274.81.191 1.564.028 2.371.028h19.812c2.063 0 4.261-.275 6.265.198.72.17 1.309.552 1.948.889 1.859.981 3.415 2.789 4.304 4.67.481 1.02.743 2.128 1.016 3.218.107.43.309.822.352 1.27.07.718 0 1.48 0 2.201v26.078c0 .715-.136 1.59.029 2.286.22.934 1.108 1.693 2.088 1.693s1.868-.759 2.088-1.693c.159-.672.029-1.512.029-2.202V75.27c0-5.832-.029-11.67-.029-17.498 0-1.591.183-3.265.029-4.854-.048-.49-.284-.948-.339-1.44-.16-1.439-.315-2.828-.706-4.233-.384-1.383-1.07-2.529-1.834-3.725-.3-.469-.539-1-.875-1.44-.35-.459-.819-.803-1.242-1.185-.992-.896-1.983-1.712-3.132-2.399-1.017-.607-2.046-1.223-3.218-1.467-.65-.136-1.29-.09-1.947-.071-1.187.033-2.46.065-3.64.014-1.605-.07-3.218.095-4.827.028-2.077-.086-4.174-.084-6.265-.084h-7.874c-.805 0-1.654.078-2.455 0-.326-.032-.598-.122-.932-.057m44.62 1.44c-1.319.31-2.026 1.787-1.496 3.02.202.468.62.782.917 1.185.54.733 1.107 1.632 1.496 2.455 1.729 3.66 2.554 7.72 2.554 11.769v79.248c0 1.644-.559 4.088 1.609 4.6.296.07.628.091.931.028 1.614-.336 1.826-1.82 1.693-3.189-.07-.718 0-1.48 0-2.201V59.605c0-.722-.07-1.483 0-2.201.069-.706.085-1.4.085-2.117 0-3.979-.845-8.064-2.554-11.684-.289-.611-.685-1.172-.988-1.778-.759-1.517-2.164-4.02-4.247-3.527m12.869 23.198c-.282.051-.589.108-.847.24-1.292.664-1.1 2.024-1.1 3.203v27.009c0 .534-.095 1.173.028 1.693.26 1.102 1.21 1.804 2.342 1.694.768-.075 1.495-.62 1.75-1.355.193-.555.113-1.198.113-1.778V64.77c0-.573.09-1.23-.085-1.778-.276-.866-1.242-1.669-2.201-1.496m-37.677 3.64c-.83.197-1.606.856-1.693 1.75-.097.995 0 2.049 0 3.049v47.667c0 1.055-.102 2.168 0 3.217.123 1.264 1.398 2.124 2.625 1.835 1.43-.338 1.608-1.614 1.608-2.85V72.05c0-.444-.108-.926-.084-1.354.051-.927.084-1.856.084-2.794 0-.405.065-.875-.028-1.27-.246-1.042-1.48-1.74-2.512-1.496m86.36 20.574c-1.838.357-3.493.843-4.995 2.032-4.386 3.472-4.885 10.735-.677 14.534 2.407 2.173 6.11 2.865 9.228 2.258 1.491-.29 2.936-.896 4.149-1.806 4.29-3.218 5.29-9.752 1.609-13.829-1.483-1.643-3.55-2.55-5.673-2.992-1.11-.231-2.506-.418-3.64-.197m-68.92 3.556c-1.145.111-2.003.922-2.116 2.088-.037.382.049.73.085 1.101.075.774 0 1.593 0 2.37v15.833c0 1.51-.464 4.075 1.524 4.544.3.071.708.058 1.016.028.817-.08 1.484-.843 1.665-1.608.1-.42.028-.924.028-1.355V93.811c0-1.542.516-3.834-1.44-4.431-.217-.067-.535-.135-.761-.113m69.342 1.51c2.069-.316 4.756.467 5.743 2.441 1.346 2.692-.88 6.035-3.711 6.35-1.83.203-4.011-.024-5.221-1.609-1.282-1.677-.85-4.591.649-5.997.71-.667 1.586-1.04 2.54-1.185M73.406 94.77c-1.41.333-1.576 1.562-1.693 2.766-.04.416-.21.849-.17 1.27.047.483.207.956.254 1.44.105 1.077 0 2.218 0 3.301v33.19c0 .793-.154 1.768.029 2.54.222.942 1.238 1.849 2.257 1.665.925-.167 1.692-.702 1.92-1.665.164-.697.028-1.571.028-2.286V98.806c0-.822.161-1.652-.029-2.455-.268-1.136-1.459-1.85-2.596-1.58m-59.944 5.757c-.76.147-1.554.223-2.286.508-1.953.76-3.724 2.05-4.727 3.95-2.22 4.208-.96 9.914 3.457 12.122.71.355 1.49.638 2.286.748 1.08.15 2.31.18 3.387-.028 3.741-.728 7.749-2.76 9.2-6.491.35-.9.458-1.942.367-2.879-.086-.88-.223-1.727-.607-2.54-1.641-3.476-5.566-5.419-9.299-5.419-.572 0-1.216-.08-1.778.029m89.916.169c-2.198.519-1.609 3.151-1.609 4.798v14.901c0 1.547-.356 3.713 1.609 4.177.297.07.629.091.931.028 2.283-.475 1.694-3.409 1.694-5.136v-9.991c0-1.967-.105-3.977.084-5.927.154-1.582-.942-3.267-2.709-2.85m-89.493 4.896c1.744-.266 3.97.164 5.25 1.426.507.5 1.044 1.182 1.002 1.947-.049.875-.669 1.607-1.341 2.102-1.205.888-2.808 1.646-4.318 1.793-.81.078-1.733.038-2.455-.353-1.803-.977-2.067-3.853-.903-5.405.68-.907 1.67-1.342 2.765-1.51m121.836 16.58c.438-.31.76-.918 1.086-1.354.696-.928 1.379-1.866 2.075-2.794 1.406-1.876 3.23-3.547 5.305-4.67.814-.441 1.62-.926 2.54-1.144.735-.173 1.748-.367 2.456-.014.651.326.881 1.113 1.044 1.764.42 1.68.306 3.379.141 5.08-.064.657-.163 1.293-.254 1.948-.031.223-.018.652-.183.818-.163.163-.46.203-.664.296-.585.269-1.191.494-1.778.762-2.01.922-4.084 1.703-6.096 2.625-4.745 2.175-9.646 4.005-14.393 6.18-1.424.653-2.892 1.21-4.318 1.863-.765.35-1.624.85-2.455 1.002 0-.879.254-1.753.338-2.624.234-2.407.698-4.791.932-7.197.192-1.982.57-3.945.762-5.927.329-3.384.893-6.843 2.822-9.736 1.239-1.859 3.168-3.14 5.39-3.387 1.55-.172 2.812.062 3.542 1.609.67 1.42.797 3.04.946 4.572.122 1.258-.123 2.551 0 3.81.21 2.157.762 4.346.762 6.519m-83.143 12.7-2.625-1.171-5.757-2.625-11.853-5.362-4.826-2.202-3.302-1.51c.164-.782 1.005-1.582 1.608-2.06.403-.318.795-.598 1.27-.79 2.255-.908 4.726.426 6.52 1.722.6.433 1.524.871 1.947 1.467 1.415-1.415 2.392-3.238 3.81-4.656.504-.504 1.069-1.195 1.778-1.412.597-.182 1.199.002 1.778.156 1.56.412 2.974 1.161 4.233 2.159 1.327 1.05 2.237 2.525 2.978 4.007 1.85 3.702 2.441 8.172 2.441 12.277" style="fill:#020202;stroke:none"/></svg>