<svg xmlns="http://www.w3.org/2000/svg" width="655.36" height="655.36" viewBox="0 0 173.397 173.397"><g style="display:inline"><path d="M117.348 56.134c-.594-.219-1.131-.62-1.693-.917-1.345-.71-2.82-1.474-4.318-1.849-.84-.21-1.78-.345-2.625-.17-.403.085-.787.357-1.185.396-.425.041-.933-.11-1.355-.17-1.051-.145-2.095-.39-3.133-.62-4.618-1.027-9.168-2.392-13.885-2.85-3.844-.374-7.677.342-11.43 1.072-.747.145-1.53.293-2.286.367-.498.048-1.044.03-1.524.169-.267-.924-.267-1.932-.452-2.879a65 65 0 0 0-1.185-4.995c-1.703-6.13-5.29-11.858-10.047-16.087-3.027-2.69-7.046-4.686-11.091-5.08-1.713-.166-3.452-.087-5.165-.254-.587-.057-1.19.057-1.778 0-2.133-.207-4.263-1.058-6.435-.846-3.253.316-6.182 1.786-9.144 3.02-2.545 1.06-5.357 1.864-7.45 3.753-1.21 1.092-2.112 2.468-2.865 3.895-.296.56-.483 1.361-.889 1.848-.225.27-.61.38-.903.55-.523.306-1.049.64-1.524 1.017-.922.73-1.482 1.834-2.018 2.85-1.68 3.185-2.815 6.72-3.598 10.245-.303 1.36-.6 2.763-.734 4.148-.188 1.94-.15 3.903-.339 5.842-.141 1.455-.018 3.02.424 4.403.209.654.423 1.298.649 1.947.064.185.262.477.211.678-.08.323-.49.642-.663.931a5.5 5.5 0 0 0-.677 1.778c-.17.876.058 1.823-.028 2.71-.168 1.728-.085 3.504-.085 5.249 0 1.725-.085 3.433-.085 5.164 0 2.155-.084 4.284-.084 6.435 0 1.36.131 2.795 0 4.149-.09.927-.085 1.855-.085 2.794 0 .27-.11.84.042 1.072.175.267.708.472.974.65.81.54 1.636 1.056 2.455 1.58 2.95 1.884 5.82 3.904 8.806 5.729.916.56 1.808 1.162 2.709 1.75.294.192.894.409 1.058.733.082.162-.026.343-.042.508-.06.622-.106 1.249-.226 1.863a63 63 0 0 0-.875 5.842c-.154 1.593.575 2.914.988 4.403.614 2.211 1.333 4.393 1.947 6.604.244.877.518 1.746.762 2.624.166.595.265 1.275.65 1.778.563.738 1.36.96 2.173 1.299 1.348.561 2.735 1.07 4.064 1.679 5.379 2.465 11.045 4.307 16.425 6.773 2.356 1.08 4.84 1.883 7.197 2.963 2.16.99 4.408 1.809 6.604 2.724 4.367 1.82 8.755 3.598 13.123 5.419 2.508 1.044 5.014 2.103 7.535 3.118.618.249 1.257.484 1.863.762.304.14.752.43 1.1.395.42-.04.97-.388 1.355-.564.724-.332 1.478-.6 2.202-.932 2.367-1.085 4.83-1.963 7.196-3.048 1.947-.892 3.98-1.59 5.927-2.483 5.764-2.642 11.762-4.78 17.526-7.423 2.28-1.045 4.662-1.861 6.943-2.906 3.503-1.606 7.11-3.048 10.668-4.53 1.752-.73 3.525-1.426 5.249-2.216.388-.177.789-.334 1.185-.493.186-.075.432-.12.55-.297.257-.38.17-1.153.212-1.594.126-1.296.213-2.599.339-3.895.049-.503-.049-1.02 0-1.524.19-1.95.19-4.062 0-6.011-.044-.448.043-.908 0-1.355-.142-1.458-.398-3.01-.254-4.487.198-2.038.564-4.057.762-6.096.067-.69.153-1.415.085-2.117-.084-.862-.344-1.76-.875-2.455-.189-.247-.543-.417-.692-.678-.284-.5-.127-1.393-.127-1.947 0-.334-.123-.975.043-1.27.099-.177.294-.213.465-.282l1.27-.508 4.657-1.863c4.68-1.885 9.375-3.731 14.055-5.616l4.233-1.693c.445-.18 1.245-.32 1.595-.65.33-.311.136-1.014.197-1.41.231-1.514.155-3.119.155-4.657 0-6.28-.614-12.502-1.975-18.627-.641-2.884-1.518-5.86-2.752-8.551-.613-1.339-1.12-2.776-1.99-3.98-.624-.864-1.483-1.552-2.342-2.173-.452-.326-1.081-.673-1.411-1.129-.373-.514-.499-1.194-.734-1.778a7.3 7.3 0 0 0-1.016-1.778c-.593-.748-1.419-1.282-2.173-1.848-2.04-1.53-4.316-2.69-6.773-3.373a14.7 14.7 0 0 0-5.165-.451c-1.023.1-2.025.408-3.048.508-.534.052-1.076.033-1.609.084-1.01.098-2.04-.013-3.048.085-2.16.21-4.363 1.042-6.265 2.046a25 25 0 0 0-2.963 1.82c-.77.556-1.552 1.086-2.089 1.891-.445.669-.762 1.44-1.016 2.202-.132.396-.25 1.04-.55 1.34-.236.236-.776.302-1.087.41-.644.223-1.316.485-1.862.903-.635.484-1.032 1.18-1.468 1.834-.972 1.457-1.784 3.002-2.526 4.572-.306.648-.768 1.324-.917 2.032z" id="dwellingsStone_svg" display="inline" fill="#fff" stroke="#000" stroke-width="2"/><path d="M117.348 56.134c-.594-.219-1.131-.62-1.693-.917-1.345-.71-2.82-1.474-4.318-1.849-.84-.21-1.78-.345-2.625-.17-.403.085-.787.357-1.185.396-.425.041-.933-.11-1.355-.17-1.051-.145-2.095-.39-3.133-.62-4.618-1.027-9.168-2.392-13.885-2.85-3.844-.374-7.677.342-11.43 1.072-.747.145-1.53.293-2.286.367-.498.048-1.044.03-1.524.169-.267-.924-.267-1.932-.452-2.879a65 65 0 0 0-1.185-4.995c-1.703-6.13-5.29-11.858-10.047-16.087-3.027-2.69-7.046-4.686-11.091-5.08-1.713-.166-3.452-.087-5.165-.254-.587-.057-1.19.057-1.778 0-2.133-.207-4.263-1.058-6.435-.846-3.253.316-6.182 1.786-9.144 3.02-2.545 1.06-5.357 1.864-7.45 3.753-1.21 1.092-2.112 2.468-2.865 3.895-.296.56-.483 1.361-.889 1.848-.225.27-.61.38-.903.55-.523.306-1.049.64-1.524 1.017-.922.73-1.482 1.834-2.018 2.85-1.68 3.185-2.815 6.72-3.598 10.245-.303 1.36-.6 2.763-.734 4.148-.188 1.94-.15 3.903-.339 5.842-.141 1.455-.018 3.02.424 4.403.209.654.423 1.298.649 1.947.064.185.262.477.211.678-.08.323-.49.642-.663.931a5.5 5.5 0 0 0-.677 1.778c-.17.876.058 1.823-.028 2.71-.168 1.728-.085 3.504-.085 5.249 0 1.725-.085 3.433-.085 5.164 0 2.155-.084 4.284-.084 6.435 0 1.36.131 2.795 0 4.149-.09.927-.085 1.855-.085 2.794 0 .27-.11.84.042 1.072.175.267.708.472.974.65.81.54 1.636 1.056 2.455 1.58 2.95 1.884 5.82 3.904 8.806 5.729.916.56 1.808 1.162 2.709 1.75.294.192.894.409 1.058.733.082.162-.026.343-.042.508-.06.622-.106 1.249-.226 1.863a63 63 0 0 0-.875 5.842c-.154 1.593.575 2.914.988 4.403.614 2.211 1.333 4.393 1.947 6.604.244.877.518 1.746.762 2.624.166.595.265 1.275.65 1.778.563.738 1.36.96 2.173 1.299 1.348.561 2.735 1.07 4.064 1.679 5.379 2.465 11.045 4.307 16.425 6.773 2.356 1.08 4.84 1.883 7.197 2.963 2.16.99 4.408 1.809 6.604 2.724 4.367 1.82 8.755 3.598 13.123 5.419 2.508 1.044 5.014 2.103 7.535 3.118.618.249 1.257.484 1.863.762.304.14.752.43 1.1.395.42-.04.97-.388 1.355-.564.724-.332 1.478-.6 2.202-.932 2.367-1.085 4.83-1.963 7.196-3.048 1.947-.892 3.98-1.59 5.927-2.483 5.764-2.642 11.762-4.78 17.526-7.423 2.28-1.045 4.662-1.861 6.943-2.906 3.503-1.606 7.11-3.048 10.668-4.53 1.752-.73 3.525-1.426 5.249-2.216.388-.177.789-.334 1.185-.493.186-.075.432-.12.55-.297.257-.38.17-1.153.212-1.594.126-1.296.213-2.599.339-3.895.049-.503-.049-1.02 0-1.524.19-1.95.19-4.062 0-6.011-.044-.448.043-.908 0-1.355-.142-1.458-.398-3.01-.254-4.487.198-2.038.564-4.057.762-6.096.067-.69.153-1.415.085-2.117-.084-.862-.344-1.76-.875-2.455-.189-.247-.543-.417-.692-.678-.284-.5-.127-1.393-.127-1.947 0-.334-.123-.975.043-1.27.099-.177.294-.213.465-.282l1.27-.508 4.657-1.863c4.68-1.885 9.375-3.731 14.055-5.616l4.233-1.693c.445-.18 1.245-.32 1.595-.65.33-.311.136-1.014.197-1.41.231-1.514.155-3.119.155-4.657 0-6.28-.614-12.502-1.975-18.627-.641-2.884-1.518-5.86-2.752-8.551-.613-1.339-1.12-2.776-1.99-3.98-.624-.864-1.483-1.552-2.342-2.173-.452-.326-1.081-.673-1.411-1.129-.373-.514-.499-1.194-.734-1.778a7.3 7.3 0 0 0-1.016-1.778c-.593-.748-1.419-1.282-2.173-1.848-2.04-1.53-4.316-2.69-6.773-3.373a14.7 14.7 0 0 0-5.165-.451c-1.023.1-2.025.408-3.048.508-.534.052-1.076.033-1.609.084-1.01.098-2.04-.013-3.048.085-2.16.21-4.363 1.042-6.265 2.046a25 25 0 0 0-2.963 1.82c-.77.556-1.552 1.086-2.089 1.891-.445.669-.762 1.44-1.016 2.202-.132.396-.25 1.04-.55 1.34-.236.236-.776.302-1.087.41-.644.223-1.316.485-1.862.903-.635.484-1.032 1.18-1.468 1.834-.972 1.457-1.784 3.002-2.526 4.572-.306.648-.768 1.324-.917 2.032m-48.599-4.403c-.68 0-1.367.135-2.032.283-.188.041-.554.23-.733.098-.124-.09-.15-.335-.212-.465a30 30 0 0 0-.593-1.186c-.567-1.074-1.592-2.174-2.695-2.695-.51-.24-1.131-.43-1.693-.437-.383-.006-.807-.061-1.186.028-1.301.307-2.41 1.343-3.132 2.427-1.307 1.96-1.864 4.311-2.286 6.604-1.32 0-2.898.33-4.064.945-.704.372-1.273.95-1.948 1.341-.783-2.48-1.955-5.383-4.402-6.675-.667-.351-1.301-.492-2.032-.635-.689-.133-1.456-.032-2.117.198-.604.21-1.11.516-1.609.917-.637.514-1.16 1.172-1.58 1.877-1.271 2.128-1.79 4.62-2.258 7.027a49.3 49.3 0 0 0-.903 9.314l3.81.084c-.367.635-1.03 1.146-1.524 1.694a60 60 0 0 0-2.512 2.963c-2.46 3.106-4.806 6.491-6.449 10.075-.346.756-.047 1.914-.014 2.71.072 1.713-.08 3.459.085 5.164.083.851.218 1.851.085 2.71-.04.26-.242.344-.424.508-.317.286-.641.605-.917.931-.698.823-1.008 1.753-1.2 2.794-.41-.086-.753-.39-1.1-.62-.56-.374-1.129-.733-1.693-1.102-1.885-1.23-3.8-2.42-5.673-3.668-.642-.429-1.288-.868-1.947-1.27-.24-.147-.654-.3-.805-.55-.166-.278.015-.715.043-1.003.035-.359 0-.74 0-1.1 0-1.967-.105-3.978.084-5.927.14-1.437 0-2.958 0-4.403 0-2.26.085-4.506.085-6.773 0-1.017.085-2.044.085-3.048 0-.497-.135-1.223.028-1.693.094-.272.36-.46.536-.678.45-.558.822-1.079 1.016-1.778.388-1.395-.382-2.628-.875-3.894-.52-1.337-.76-2.712-.62-4.149.158-1.63.095-3.282.253-4.91.317-3.254 1.153-6.594 2.343-9.653a37 37 0 0 1 1.369-3.132c.237-.475.469-1.019.804-1.44.542-.68 1.675-1.049 2.427-1.425.253-.127.643-.216.833-.437.325-.382.44-1.144.635-1.609.419-1.006.915-1.966 1.524-2.879.223-.335.438-.724.733-1.002 1.605-1.505 3.942-2.094 5.927-2.92 2.477-1.033 5.058-2.5 7.79-2.766 1.744-.17 3.527.594 5.249.762 1.964.19 3.962.063 5.926.254 1.47.143 2.91.158 4.318.705 7.232 2.812 11.99 10.096 13.999 17.329.402 1.449.78 2.912.987 4.402.082.59.254 1.18.254 1.778m77.132 39.286c0-1.243.218-2.492.338-3.726.044-.452.126-.901.17-1.354.022-.23.135-.442.056-.678-.144-.432-.476-.877-.705-1.27a58 58 0 0 0-1.863-2.963c-.975-1.463-2.043-2.856-3.133-4.233-.636-.804-1.28-1.682-2.145-2.258-1.13-.754-2.659-1.055-3.979-1.298.108-1.363.528-2.651-.099-3.98-.69-1.462-2.26-2.44-3.457-3.471-1.852-1.595-3.863-3.002-5.842-4.43-1.135-.82-2.303-1.801-3.556-2.428.565-1.789 1.554-3.442 2.441-5.08.346-.64.756-1.602 1.312-2.088.294-.257.88-.32 1.242-.452.656-.237 1.338-.542 1.863-1.016.766-.691 1.286-1.599 1.665-2.54.246-.612.353-1.406.734-1.947.254-.361.71-.606 1.072-.847.77-.513 1.55-1.014 2.37-1.425 1.156-.578 2.589-1.242 3.896-1.369 1.036-.1 2.095.016 3.132-.085.704-.068 1.413-.1 2.117-.169.852-.083 1.688-.34 2.54-.423 1.294-.126 2.654.022 3.895.367 1.598.444 3.05 1.262 4.402 2.2.548.381 1.278.77 1.665 1.327.29.418.377.973.565 1.44.28.694.632 1.355 1.1 1.947.63.795 1.456 1.402 2.258 2.004.484.363 1.06.706 1.411 1.213.772 1.112 1.244 2.553 1.75 3.81 1.434 3.56 2.409 7.387 2.935 11.176.538 3.87 1.016 7.76 1.016 11.684v2.794c0 .28.108.845-.042 1.087-.21.338-1.04.491-1.397.635-1.351.544-2.712 1.064-4.064 1.609-3.524 1.42-7.059 2.813-10.583 4.233l-3.387 1.355c-.548.22-1.116.527-1.693.649M21.929 48.457c-.496.097-.987.17-1.44.41-2.394 1.263-2.98 4.487-3.217 6.928-.195 2.003-.254 3.982-.254 6.012 0 .577.03 1.125.085 1.693.02.207-.065.488.042.677.115.205.44.322.635.438l1.609.945c1.638.979 3.298 1.931 4.995 2.78.95.475 1.953.978 3.048.72 2.396-.566 2.13-3.517 1.947-5.39-.278-2.864-.635-5.674-1.41-8.467-.374-1.345-.81-2.697-1.525-3.895-.89-1.492-2.564-3.23-4.515-2.85m63.584 6.505c1.235-.189 2.59.036 3.81.155 3.855.375 7.572 1.504 11.346 2.342 2.23.496 4.419.993 6.688 1.214.505.049 1.2-.074 1.694-.198.312-.078.6-.27.931-.197 1.583.352 2.997 1.332 4.403 2.074 3.558 1.878 6.938 4.3 10.16 6.717 1.234.926 2.471 1.858 3.64 2.865.48.413 1.114.79 1.51 1.284.154.191.043.443 0 .663a16 16 0 0 0-.24 1.524c-.105 1.08.295 2.249 1.016 3.048.84.93 2.107 1.493 3.302 1.792.612.153 1.5.175 2.032.522.592.387 1.039 1.199 1.468 1.75a66 66 0 0 1 2.822 3.895c.356.534.897 1.167 1.1 1.778.157.467-.094 1.133-.14 1.608l-.339 3.387c-.317 3.257-.532 6.638-.17 9.906.075.671.339 1.47.706 2.032.2.307.76.67.819 1.016.125.739-.183 1.634-.254 2.37-.149 1.53-.444 3.044-.593 4.573-.12 1.238.051 2.508.17 3.725.165 1.706.169 3.443.169 5.165 0 1.701-.006 3.397-.17 5.08-.041.428-.005.843-.07 1.27-.018.119.018.291-.057.395-.174.242-.788.367-1.058.48-.79.328-1.593.645-2.37 1.001-3.368 1.544-6.877 2.775-10.245 4.318-6.683 3.063-13.637 5.545-20.32 8.608-2.086.956-4.265 1.697-6.35 2.653-3.17 1.453-6.432 2.737-9.652 4.078-.933.389-1.861.797-2.794 1.186-.398.165-.844.453-1.27.536-.46.09-1.266-.449-1.694-.621-1.58-.637-3.192-1.252-4.741-1.962-1.66-.76-3.394-1.371-5.08-2.074-3.834-1.597-7.68-3.172-11.515-4.77-7.86-3.275-15.724-6.555-23.622-9.736-2.266-.913-4.508-1.882-6.773-2.794l-1.863-.762c-.192-.078-.501-.14-.635-.31-.249-.32-.301-1.023-.409-1.412-.354-1.273-.747-2.537-1.1-3.81-.419-1.505-.937-2.982-1.355-4.487-.154-.553-.51-1.125-.565-1.693-.079-.812.25-1.655.339-2.456.227-2.039.648-4.053.847-6.096.123-1.266.13-2.544.254-3.81.059-.605-.164-1.366.014-1.947.193-.631 1.216-.972 1.764-1.185.3-.117.79-.23.846-.593.137-.884 0-1.918-.084-2.794-.17-1.737.084-3.512-.085-5.25-.093-.95.008-1.925-.085-2.878-.048-.494-.205-1.045.014-1.524.866-1.889 2.122-3.726 3.345-5.419 2.265-3.136 4.765-6.202 7.648-8.805 1.536-1.387 3.27-2.613 4.741-4.064.902-.889 1.682-2.014 2.272-3.133.688-1.303 1.44-2.683 2.808-3.386.505-.26 1.224-.277 1.778-.339 1.371-.152 2.815-.335 4.149-.706.604-.167 1.17-.452 1.778-.62 1.423-.396 2.899-.646 4.233-1.313 1.251-.625 2.158-1.594 3.556-1.905.964-.214 1.907-.103 2.879-.197 1.374-.134 2.774-.036 4.149-.17 2.012-.195 4.022-.6 6.011-.987 1.489-.29 2.997-.38 4.487-.607m61.638 20.898c.597-.047 1.223-.348 1.778-.564.557-.217 1.137-.377 1.693-.593 2.441-.95 4.966-1.768 7.45-2.596.908-.303 1.803-.657 2.71-.96.245-.081.824-.16.974-.38.202-.3 0-.985.07-1.341.112-.574.057-1.192.057-1.778 0-.41.045-.784.084-1.186.074-.755-.073-1.53 0-2.286.045-.457.085-.888.085-1.354 0-.17.049-.428-.042-.579-.135-.224-.512-.394-.72-.55a13.4 13.4 0 0 0-2.032-1.256c-1.358-.68-2.718-1.109-4.233-1.256-.24-.023-.446.062-.678.085-1.924.187-3.63 1.064-5.164 2.215-.588.44-1.174.906-1.694 1.425-.177.178-.436.365-.55.593-.153.306.012.706.042 1.016.073.746 0 1.536 0 2.286 0 3.018.17 6.032.17 9.06m-41.148 59.435 2.116-.677 3.387-1.1 8.975-2.908 3.64-1.213 4.657-1.496 1.1-.367.466-.211.043-.664v-1.778l.084-5.757v-1.524l-.042-.65-.72-.564-1.354-1.044-.663-.536-.043-1.44.07-1.34.72-.254 2.117-.522c0-1.809-.085-3.623-.085-5.419 0-4.893-.112-9.759-2.737-14.054-1.39-2.273-3.75-3.986-6.322-4.629-1.012-.253-2.009-.282-3.048-.282-1.444 0-2.908.15-4.233.776-1.987.938-3.615 2.61-4.643 4.558-.369.7-.817 1.502-1.002 2.286-.15.635-.135 1.303-.197 1.947-.069.707-.186 1.41-.254 2.117-.045.463.002.988-.113 1.44-.125.494-.899.607-1.327.761-.204.074-.498.105-.578.339-.053.154-.004.347-.028.508-.112.73-.084 1.467-.156 2.201-.164 1.69-.259 3.39-.423 5.08-.038.392.038.794 0 1.186a36.5 36.5 0 0 0 0 6.858c.207 2.128-.122 4.306.085 6.434.172 1.769.082 3.566.254 5.334.057.587-.057 1.191 0 1.778.153 1.58.254 3.239.254 4.826M44.958 96.774v19.981l1.524.31 3.64.763 10.753 2.23-.254-3.049-.508-6.18-.254-3.133-.098-1.355-.579-.592-1.355-1.073-.635-.536.043-1.27.169-3.895-3.64-.649-5.927-1.072z" style="fill:#020202;stroke:none"/></g></svg>