<svg xmlns="http://www.w3.org/2000/svg" width="655.36" height="655.36" viewBox="0 0 173.397 173.397"><g style="display:inline"><path d="M62.653 26.416c-.441-.197-.961-.26-1.439-.367-.419-.093-.842-.269-1.27-.31-.308-.03-.624.03-.931 0-.261-.026-.493-.111-.762-.085-.625.06-1.25.268-1.863.395-1.039.217-1.992.429-2.963.847-.384.165-.808.203-1.186.38-.884.418-1.733.919-2.624 1.327-.27.124-.575.154-.847.282-.427.202-.79.462-1.185.72-.587.383-1.226.656-1.778 1.115-.713.592-1.483 1.53-2.371 1.863-.3.112-.694-.025-1.016.042-1.537.32-2.973.8-4.12 1.947-.51.51-.945 1.217-1.101 1.92-.095.426-.19.846-.296 1.27-.059.233-.05.477-.24.648-.924.833-2.192 1.224-3.105 2.089-1.74 1.648-3.406 3.432-4.53 5.56-.204.388-.545.696-.72 1.1-.438 1.02-.431 2.146-.535 3.218-.153 1.566.07 2.976.508 4.487-1.229.485-1.796 1.857-2.06 3.048-.155.697-.411 1.405-.48 2.117-.088.897.002 1.81-.085 2.709-.03.313-.139.618-.17.931-.067.697.057 1.356-.197 2.032-.161.43-.516.778-.72 1.186-.117.234-.12.556-.282.762-.204.26-.567.43-.832.62-.457.33-.909.703-1.242 1.158-.322.439-.586.915-.903 1.354-.38.526-.84 1.033-1.143 1.609-.754 1.428-1.134 3.006-1.482 4.572-.232 1.043-.416 2.134-.31 3.217.041.428.217.852.31 1.27.26 1.168.562 2.321 1.27 3.302.288.4.529.851.96 1.101v.085c-.522.328-.826 1.047-1.045 1.608-.358.921-.632 1.915-.846 2.879-.252 1.132-.707 2.318-.819 3.471-.13 1.334-.378 2.647-.508 3.98-.038.391.038.794 0 1.185-.119 1.225-.204 2.41-.084 3.64.068.703.016 1.415.084 2.117.066.675.257 1.369.395 2.032.164.787.222 1.59.396 2.371.19.855.45 1.69.663 2.54.524 2.098 1.096 4.138 2.215 6.011 2.161 3.618 5.699 5.963 9.116 8.241 2.535 1.69 5.08 3.528 7.874 4.77 1.232.547 2.556.906 3.81 1.41 1.07.432 2.052 1.048 3.133 1.468 2.632 1.024 5.41 1.673 8.128 2.428 1.122.311 2.182.817 3.302 1.128 1.03.287 2.017.73 3.048 1.016 1.309.364 2.69.559 3.979.988 1.081.36 2.108.767 3.217 1.044.287.072.634.215.932.198.477-.027.97-.247 1.439-.339.256-.05.735-.296.931-.084.525.566.931 1.237 1.383 1.862.425.59.938 1.145 1.298 1.778.537.943.893 2.008 1.397 2.964.606 1.147 1.302 2.247 1.92 3.386.789 1.457 1.547 2.88 2.525 4.234 1.195 1.654 2.462 3.56 4.347 4.53.83.426 2.12.713 3.048.804.732.07 1.413-.07 2.116-.226.594-.132 1.317-.193 1.863-.466.822-.41 1.509-1.1 2.117-1.764 1.033-1.128 1.934-2.24 2.737-3.556.523-.855 1.175-1.644 1.623-2.54.16-.32.206-.693.381-1.016.806-1.488 1.772-2.894 2.526-4.402.272-.544.385-1.18.72-1.694.48-.735 1.092-1.364 1.552-2.116.24-.394.513-.744.804-1.101.124-.152.241-.462.423-.55.157-.076.423.064.579.098.546.122 1.31.454 1.863.34.645-.135 1.426-.248 2.032-.509.414-.178.748-.475 1.185-.62 1.486-.496 3.066-.655 4.572-1.073.81-.225 1.596-.563 2.37-.875 1.258-.506 2.61-.841 3.895-1.27 1.057-.352 2.147-.606 3.218-.903.712-.198 1.39-.524 2.116-.706.754-.188 1.563-.358 2.286-.649.897-.361 1.836-.674 2.71-1.086.654-.31 1.277-.695 1.947-.974.854-.356 1.771-.56 2.625-.903 1.036-.418 2.063-.99 3.048-1.51 1.078-.57 2.032-1.313 3.048-1.99a458 458 0 0 0 3.64-2.455c.92-.626 1.93-1.158 2.794-1.877.728-.604 1.331-1.328 2.032-1.961 1.18-1.065 2.281-2.262 3.105-3.641 1.62-2.714 2.13-5.924 2.766-8.975.363-1.746.73-3.474.903-5.249.167-1.72-.09-3.474-.254-5.165-.148-1.515-.225-3.077-.537-4.572-.334-1.604-.674-3.274-1.213-4.826-.172-.494-.273-1.044-.48-1.524-.19-.44-.483-.87-.564-1.354-.086-.515.768-1.228.987-1.694.615-1.3 1.073-2.787 1.214-4.233.116-1.194-.225-2.408-.48-3.556-.264-1.19-.592-2.356-1.072-3.471-.198-.46-.515-.858-.79-1.27-.492-.737-.944-1.504-1.496-2.202a7.4 7.4 0 0 0-1.157-1.157c-.32-.252-.756-.446-.988-.79-.197-.292-.329-.696-.48-1.016-.23-.486-.508-.812-.62-1.355-.243-1.162 0-2.38-.114-3.556-.039-.4-.215-.783-.254-1.185-.07-.729-.131-1.402-.31-2.117-.119-.474-.16-.996-.381-1.439-.196-.391-.504-.75-.762-1.1-.267-.363-.56-.72-1.002-.847.488-1.09.508-2.375.508-3.556 0-1.282-.05-2.603-.536-3.81-.158-.393-.447-.724-.635-1.101-1.421-2.842-3.62-5.406-6.364-7.084-.724-.442-1.454-1.039-2.286-1.27-.53-.147-1.075-.247-1.609-.38-.228-.058-.575-.076-.748-.255-.158-.165-.196-.534-.282-.748a6 6 0 0 0-.692-1.27c-.42-.582-.845-1.16-1.326-1.693-.253-.28-.699-.53-.889-.847-.27-.451-.211-1.117-.41-1.608-.374-.931-1.13-1.604-1.918-2.173-.548-.396-1.225-.448-1.863-.607-.297-.075-.62-.21-.931-.184-.47.04-.973.376-1.44.24-.97-.283-1.784-.999-2.709-1.397-.723-.31-1.542-.401-2.286-.649-.98-.326-2.098-.718-3.133-.818-.93-.09-1.793-.091-2.709.113-.481.106-.957.231-1.44.338-.198.044-.472.192-.677.17-.244-.028-.419-.29-.592-.438a9 9 0 0 0-1.27-.917c-1.434-.817-3.054-1.19-4.657-1.524-.28-.059-.564 0-.847-.028-1.24-.12-2.486-.219-3.725-.339-.486-.047-.97.124-1.44.085-3.013-.251-6.05-.3-9.059-.593-1.26-.122-2.547.085-3.81.085-1.09 0-2.142.064-3.217.169-.813.08-1.644.006-2.455.085-1.007.097-2.042-.098-3.048 0-.456.044-.9.21-1.355.254-.503.049-1.02-.05-1.524 0-1.935.188-3.944.047-5.842.522-1.453.363-2.749.762-3.98 1.65-.406.295-.983.575-1.185 1.045z" id="raven_svg" display="inline" fill="#fff" stroke="#000" stroke-width="2"/><path d="M62.653 26.416c-.441-.197-.961-.26-1.439-.367-.419-.093-.842-.269-1.27-.31-.308-.03-.624.03-.931 0-.261-.026-.493-.111-.762-.085-.625.06-1.25.268-1.863.395-1.039.217-1.992.429-2.963.847-.384.165-.808.203-1.186.38-.884.418-1.733.919-2.624 1.327-.27.124-.575.154-.847.282-.427.202-.79.462-1.185.72-.587.383-1.226.656-1.778 1.115-.713.592-1.483 1.53-2.371 1.863-.3.112-.694-.025-1.016.042-1.537.32-2.973.8-4.12 1.947-.51.51-.945 1.217-1.101 1.92-.095.426-.19.846-.296 1.27-.059.233-.05.477-.24.648-.924.833-2.192 1.224-3.105 2.089-1.74 1.648-3.406 3.432-4.53 5.56-.204.388-.545.696-.72 1.1-.438 1.02-.431 2.146-.535 3.218-.153 1.566.07 2.976.508 4.487-1.229.485-1.796 1.857-2.06 3.048-.155.697-.411 1.405-.48 2.117-.088.897.002 1.81-.085 2.709-.03.313-.139.618-.17.931-.067.697.057 1.356-.197 2.032-.161.43-.516.778-.72 1.186-.117.234-.12.556-.282.762-.204.26-.567.43-.832.62-.457.33-.909.703-1.242 1.158-.322.439-.586.915-.903 1.354-.38.526-.84 1.033-1.143 1.609-.754 1.428-1.134 3.006-1.482 4.572-.232 1.043-.416 2.134-.31 3.217.041.428.217.852.31 1.27.26 1.168.562 2.321 1.27 3.302.288.4.529.851.96 1.101v.085c-.522.328-.826 1.047-1.045 1.608-.358.921-.632 1.915-.846 2.879-.252 1.132-.707 2.318-.819 3.471-.13 1.334-.378 2.647-.508 3.98-.038.391.038.794 0 1.185-.119 1.225-.204 2.41-.084 3.64.068.703.016 1.415.084 2.117.066.675.257 1.369.395 2.032.164.787.222 1.59.396 2.371.19.855.45 1.69.663 2.54.524 2.098 1.096 4.138 2.215 6.011 2.161 3.618 5.699 5.963 9.116 8.241 2.535 1.69 5.08 3.528 7.874 4.77 1.232.547 2.556.906 3.81 1.41 1.07.432 2.052 1.048 3.133 1.468 2.632 1.024 5.41 1.673 8.128 2.428 1.122.311 2.182.817 3.302 1.128 1.03.287 2.017.73 3.048 1.016 1.309.364 2.69.559 3.979.988 1.081.36 2.108.767 3.217 1.044.287.072.634.215.932.198.477-.027.97-.247 1.439-.339.256-.05.735-.296.931-.084.525.566.931 1.237 1.383 1.862.425.59.938 1.145 1.298 1.778.537.943.893 2.008 1.397 2.964.606 1.147 1.302 2.247 1.92 3.386.789 1.457 1.547 2.88 2.525 4.234 1.195 1.654 2.462 3.56 4.347 4.53.83.426 2.12.713 3.048.804.732.07 1.413-.07 2.116-.226.594-.132 1.317-.193 1.863-.466.822-.41 1.509-1.1 2.117-1.764 1.033-1.128 1.934-2.24 2.737-3.556.523-.855 1.175-1.644 1.623-2.54.16-.32.206-.693.381-1.016.806-1.488 1.772-2.894 2.526-4.402.272-.544.385-1.18.72-1.694.48-.735 1.092-1.364 1.552-2.116.24-.394.513-.744.804-1.101.124-.152.241-.462.423-.55.157-.076.423.064.579.098.546.122 1.31.454 1.863.34.645-.135 1.426-.248 2.032-.509.414-.178.748-.475 1.185-.62 1.486-.496 3.066-.655 4.572-1.073.81-.225 1.596-.563 2.37-.875 1.258-.506 2.61-.841 3.895-1.27 1.057-.352 2.147-.606 3.218-.903.712-.198 1.39-.524 2.116-.706.754-.188 1.563-.358 2.286-.649.897-.361 1.836-.674 2.71-1.086.654-.31 1.277-.695 1.947-.974.854-.356 1.771-.56 2.625-.903 1.036-.418 2.063-.99 3.048-1.51 1.078-.57 2.032-1.313 3.048-1.99a458 458 0 0 0 3.64-2.455c.92-.626 1.93-1.158 2.794-1.877.728-.604 1.331-1.328 2.032-1.961 1.18-1.065 2.281-2.262 3.105-3.641 1.62-2.714 2.13-5.924 2.766-8.975.363-1.746.73-3.474.903-5.249.167-1.72-.09-3.474-.254-5.165-.148-1.515-.225-3.077-.537-4.572-.334-1.604-.674-3.274-1.213-4.826-.172-.494-.273-1.044-.48-1.524-.19-.44-.483-.87-.564-1.354-.086-.515.768-1.228.987-1.694.615-1.3 1.073-2.787 1.214-4.233.116-1.194-.225-2.408-.48-3.556-.264-1.19-.592-2.356-1.072-3.471-.198-.46-.515-.858-.79-1.27-.492-.737-.944-1.504-1.496-2.202a7.4 7.4 0 0 0-1.157-1.157c-.32-.252-.756-.446-.988-.79-.197-.292-.329-.696-.48-1.016-.23-.486-.508-.812-.62-1.355-.243-1.162 0-2.38-.114-3.556-.039-.4-.215-.783-.254-1.185-.07-.729-.131-1.402-.31-2.117-.119-.474-.16-.996-.381-1.439-.196-.391-.504-.75-.762-1.1-.267-.363-.56-.72-1.002-.847.488-1.09.508-2.375.508-3.556 0-1.282-.05-2.603-.536-3.81-.158-.393-.447-.724-.635-1.101-1.421-2.842-3.62-5.406-6.364-7.084-.724-.442-1.454-1.039-2.286-1.27-.53-.147-1.075-.247-1.609-.38-.228-.058-.575-.076-.748-.255-.158-.165-.196-.534-.282-.748a6 6 0 0 0-.692-1.27c-.42-.582-.845-1.16-1.326-1.693-.253-.28-.699-.53-.889-.847-.27-.451-.211-1.117-.41-1.608-.374-.931-1.13-1.604-1.918-2.173-.548-.396-1.225-.448-1.863-.607-.297-.075-.62-.21-.931-.184-.47.04-.973.376-1.44.24-.97-.283-1.784-.999-2.709-1.397-.723-.31-1.542-.401-2.286-.649-.98-.326-2.098-.718-3.133-.818-.93-.09-1.793-.091-2.709.113-.481.106-.957.231-1.44.338-.198.044-.472.192-.677.17-.244-.028-.419-.29-.592-.438a9 9 0 0 0-1.27-.917c-1.434-.817-3.054-1.19-4.657-1.524-.28-.059-.564 0-.847-.028-1.24-.12-2.486-.219-3.725-.339-.486-.047-.97.124-1.44.085-3.013-.251-6.05-.3-9.059-.593-1.26-.122-2.547.085-3.81.085-1.09 0-2.142.064-3.217.169-.813.08-1.644.006-2.455.085-1.007.097-2.042-.098-3.048 0-.456.044-.9.21-1.355.254-.503.049-1.02-.05-1.524 0-1.935.188-3.944.047-5.842.522-1.453.363-2.749.762-3.98 1.65-.406.295-.983.575-1.185 1.045m22.776 1.552c1.077-.09 2.214-.034 3.302.057 1.238.103 2.488.064 3.725.169 1.35.114 2.74.058 4.064.099 1.605.05 3.221.19 4.826.324 1.607.134 3.007.093 4.487.833.558.279 1.054.482 1.411 1.03.76 1.164.053 2.01-.663 2.963-.696.928-1.407 1.845-2.187 2.71-1.656 1.836-3.461 3.461-5.419 4.967-1.018.783-2.048 1.663-3.217 2.215-1.538.726-3.337.954-4.995 1.115-.625.06-1.234.258-1.863.31-.85.071-1.721 0-2.554 0-.865 0-1.816.065-2.695-.084-.391-.066-.788-.182-1.186-.226-1.664-.185-3.567-.373-5.08-1.214-1.156-.642-2.166-1.44-3.217-2.23-.562-.42-1.17-.826-1.693-1.297-.764-.69-1.404-1.53-2.202-2.173-1.469-1.184-2.588-2.849-3.71-4.347-.594-.79-1.24-1.632-.58-2.624.342-.512.8-.767 1.327-1.03.53-.265 1.025-.548 1.609-.692.663-.163 1.362-.076 2.032-.141 3.422-.333 6.9-.26 10.329-.593 1.373-.133 2.773-.026 4.149-.14m24.553 36.801c.421-.244.749-.749 1.1-1.1.864-.864 1.729-1.727 2.569-2.611.41-.432.88-.817 1.312-1.228.353-.335.647-.74 1.03-1.044.76-.6 1.615-1.067 2.371-1.665.335-.265.592-.616.931-.875.671-.513 1.46-.857 2.202-1.228 1.232-.616 2.493-1.218 3.725-1.834.932-.466 1.898-.909 2.61-1.708 1.683-1.885 3.074-3.902 4.15-6.18.229-.487.447-1.075.521-1.609.042-.298.086-.725.424-.833.415-.132 1.014.178 1.354.381 1.118.668 2.176 1.348 3.048 2.315.678.75 1.363 1.433 1.92 2.286.257.395.41.857.634 1.27.112.205.302.371.381.592.206.569.113 1.269.113 1.863 0 .608-.003 1.216-.268 1.778-.499 1.057-1.575 2.014-2.356 2.879-1.088 1.204-2.382 2.167-3.81 2.92-.433.229-.874.487-1.355.607-.758.19-1.464.086-2.201.127-.284.016-.557.123-.847.127-.566.008-1.144-.094-1.693.057-.557.153-1.118.497-1.609.79a22.3 22.3 0 0 0-3.81 2.907c-1.375 1.295-2.824 2.805-3.711 4.487-.681 1.29-1.196 2.649-1.806 3.98-.64 1.396-1.295 2.978-1.651 4.487-.134.567-.058 1.12-.113 1.693-.07.714-.25 1.416-.395 2.117-.229 1.097-.421 2.087-1.299 2.879-2.13 1.924-4.689 3.15-7.196 4.473-.518.273-1.095.434-1.609.72-2.06 1.144-4.034 2.263-5.927 3.683-.559.419-1.04.93-1.608 1.34-.422.305-.902.48-1.355.72-.732.386-1.581.738-2.37.211-1.385-.922-2.062-2.566-2.654-4.035-.854-2.122-1.382-4.543-1.157-6.858.14-1.44.459-2.817.734-4.234.325-1.67.398-3.333 1.143-4.91.431-.913.816-1.948 1.369-2.794.71-1.089 1.636-2.244 2.088-3.472-.329-.06-.451.104-.677.339-.403.421-.769.86-1.185 1.27-.69.68-1.23 1.432-1.807 2.201-1.007 1.344-2.08 2.637-2.836 4.149l-.847 1.693c-.098.197-.185.587-.366.72-.13.096-.424.115-.579.113-.559-.008-.645-.401-.86-.833-.338-.675-.65-1.378-1.03-2.032-.789-1.35-1.693-2.574-2.654-3.81-.714-.918-1.356-1.788-2.23-2.568-.483-.432-.755-1.183-1.439-1.326.301.953.98 1.78 1.496 2.624.71 1.162 1.3 2.336 1.877 3.556.78 1.651.887 3.33 1.228 5.08.28 1.447.59 2.853.733 4.318.095.975-.076 1.925-.169 2.879-.11 1.138-.29 2.154-.734 3.217-.24.577-.368 1.214-.635 1.778-.623 1.32-1.52 2.444-2.78 3.161-.433.247-.726.618-1.27.565-1.663-.162-2.113-1.798-3.217-2.794-1.38-1.247-3.031-2.205-4.657-3.062-.595-.315-1.16-.7-1.778-.974-1.534-.682-3.02-1.472-4.487-2.286-1.551-.862-3.187-1.73-4.403-3.076-1.056-1.17-1.292-3.226-1.439-4.742-.066-.68-.011-1.276-.198-1.947-.527-1.9-1.319-3.81-2.159-5.588-.64-1.357-1.181-2.744-2.074-3.98-.638-.882-1.445-1.648-2.173-2.455-1.09-1.207-2.46-2.261-3.81-3.16-.7-.467-1.475-.978-2.286-1.214-.54-.157-1.1-.033-1.637-.042-.455-.008-.953-.111-1.411-.156-.5-.048-.883-.384-1.355-.522-.858-.25-1.812-.378-2.624-.762-1.38-.651-2.47-1.924-3.472-3.034-.474-.525-.98-1.046-1.41-1.608-.583-.762-.622-1.622-.622-2.54 0-.548-.082-1.173.113-1.694.57-1.519 1.626-2.776 2.752-3.923.46-.468.826-.913 1.369-1.312.7-.516 1.41-1.02 2.201-1.383.28-.128.693-.326 1.016-.226.337.105.352.453.41.748.11.574.285 1.163.535 1.694.9 1.904 2.134 3.502 3.627 4.995 1.242 1.242 2.665 2.63 4.233 3.457 1.317.695 2.81 1.17 4.064 1.99.628.41 1.11.92 1.694 1.383.725.574 1.55 1.019 2.286 1.58.556.425 1.025 1.004 1.524 1.496.99.976 1.974 1.975 2.963 2.963.494.494 1.025 1.262 1.609 1.609l.084-.085c-.489-1.69-1.353-3.239-2.102-4.826-.431-.913-.714-1.884-1.454-2.624-.687-.687-1.525-1.289-2.286-1.891-.397-.315-.75-.695-1.185-.96-.862-.527-1.777-.93-2.625-1.496-.896-.597-1.68-1.33-2.54-1.975-1.785-1.34-3.666-2.698-4.797-4.685-.799-1.402-1.386-3.158-1.694-4.741-.286-1.473.35-3.146 1.355-4.205.443-.468.978-.784 1.496-1.158.633-.457 1.193-1.068 1.862-1.467.57-.34 1.178-.747 1.778-1.03.52-.245 1.095-.364 1.609-.621.552-.276 1.04-.665 1.609-.917.736-.328 1.588-.51 2.37-.706 1.536-.384 3.5-.669 4.911.31.879.61 1.147 1.65 1.722 2.512.563.846 1.225 1.664 1.862 2.456.67.83 1.42 1.6 2.06 2.455.354.472.648 1 1.045 1.44 1.698 1.88 3.707 3.637 5.926 4.84.828.448 1.649 1.002 2.54 1.312 1.036.36 2.069.614 3.133.86.39.09.785.23 1.185.269 5.07.493 10.377.56 15.24-1.13 1.367-.474 2.667-1.366 3.895-2.116.646-.395 1.193-.911 1.778-1.383 1.03-.83 2.128-1.766 2.935-2.822.403-.527.755-1.082 1.157-1.609.805-1.053 1.742-2.015 2.568-3.048.52-.65 1.056-1.382 1.454-2.116.383-.708.697-1.444 1.369-1.92 1.433-1.015 3.515-.659 5.08-.268.726.182 1.518.35 2.201.664.559.256 1.047.653 1.609.903.523.233 1.089.39 1.608.635.604.285 1.196.698 1.778 1.03.591.336 1.066.89 1.609 1.298.933.7 1.73 1.264 2.427 2.23.504.698.625 1.372.706 2.201.107 1.1.243 2.383-.029 3.471-.15.605-.541 1.098-.874 1.609-.575.88-1.2 1.608-1.948 2.357-.67.67-1.34 1.284-2.06 1.905-.542.467-1.01 1.07-1.609 1.467-1.063.704-2.124 1.449-3.217 2.117-.607.37-1.258.627-1.863.988-.754.45-1.466 1.163-2.116 1.75s-1.418 1.04-1.92 1.777c-.565.831-.952 1.866-1.326 2.794-.363.903-.822 1.757-1.256 2.625-.22.442-.515 1.02-.409 1.524m-78.317-5.73c.26-.01.555.314.762.452.662.442 1.302.931 1.948 1.397.822.595 1.741 1.032 2.624 1.51.29.157.699.23.903.508.416.566-.24 1.105-.38 1.609-.213.764-.542 1.453-.833 2.201-.401 1.031-.693 2.143-.931 3.218-.32 1.436-.391 2.855-.452 4.318-.013.301-.122 1.187-.508 1.256-.255.045-.503-.326-.677-.466a14 14 0 0 1-2.06-2.06c-.678-.842-1.44-1.616-2.117-2.456-.22-.272-.626-.57-.706-.931-.044-.198.105-.352.198-.508.264-.443.591-.864.762-1.355.439-1.264.492-2.743.62-4.064.115-1.172 0-2.307.226-3.471.084-.431-.021-1.13.621-1.157m109.898.07c.69-.124.62.652.705 1.087.1.518.175 1.082.226 1.609.073.75-.116 1.545.028 2.286.245 1.26.175 2.604.678 3.81.147.353.325.704.55 1.016.128.177.386.434.339.677-.088.448-.792 1.016-1.087 1.355-.97 1.111-1.894 2.277-2.963 3.302-.297.284-.614.543-.903.832-.14.14-.328.39-.537.424-.498.079-.592-1.034-.592-1.341 0-1.715-.248-3.42-.664-5.08-.213-.855-.465-1.727-.804-2.54-.222-.532-.543-1.053-.705-1.609-.049-.165 0-.345-.057-.508-.164-.473-.567-.702-.48-1.27.082-.533 1.097-.816 1.524-1.03 1.187-.593 2.322-1.332 3.387-2.13.396-.298.853-.799 1.355-.89m-95.504 6.181c.637-.106 1.23.36 1.693.734 1.147.924 1.907 2.152 2.653 3.4 1.031 1.727 1.968 3.593 2.356 5.589.134.686.28 1.516.043 2.201-.071.204-.247.337-.367.508-.577.82-1.657 1.484-2.568 1.877-.715.308-1.494.545-2.272.635-1.254.144-2.469-.15-3.655-.55-.337-.115-.694-.114-1.016-.297-.583-.332-1.004-.836-1.44-1.326-2.14-2.41-2.822-6.248-.987-9.06a8.1 8.1 0 0 1 2.68-2.554c.907-.54 1.821-.98 2.88-1.157m80.856 0c.466-.078 1.07.219 1.524.339 2.463.65 4.61 2.955 5.221 5.404.588 2.351-.068 4.815-1.552 6.689-.51.645-1.08 1.28-1.806 1.693-.379.216-.86.23-1.27.367-.467.156-.945.327-1.44.395-1.973.274-3.845-.25-5.503-1.354-.558-.372-1.35-.944-1.58-1.609-.228-.655-.1-1.46.028-2.117.371-1.908 1.209-3.887 2.286-5.503.72-1.079 1.298-2.11 2.201-3.062.514-.54 1.124-1.114 1.891-1.242M27.178 72.15c.21-.04.655-.078.847.028.298.165.558.629.776.89.535.641 1.079 1.278 1.58 1.947.825 1.1 1.877 2.046 2.893 2.963 1.524 1.375 3.086 2.748 4.91 3.711 1.517.8 3.156 1.488 4.827 1.905.748.187 1.406.377 2.2.31.633-.052 1.217-.377 1.85-.409 1.12-.055 2.27-.073 3.4-.183.227-.022.453.025.678-.028 1.002-.237 1.87-1 2.963-.621 1.225.425 1.278 1.998.508 2.85-.82.909-1.701 1.238-2.794 1.694-.867.36-1.71.89-2.625 1.129-.831.216-1.714.278-2.54.508-.276.076-.556.197-.846.225-.675.066-1.359.02-2.032.085-.78.076-1.476.248-2.286.17-3.44-.335-6.624-1.692-9.737-3.12-1.55-.71-3.077-1.44-4.572-2.271-.543-.302-1.108-.52-1.609-.903-.378-.29-.866-.612-1.157-.988-1.707-2.204-.575-5.44.706-7.535.414-.68.87-1.447 1.467-1.976.19-.168.332-.33.593-.38m118.533 0c1.034-.202 1.575 1.091 2.06 1.763 1.5 2.075 2.857 5.487 1.299 7.874-.265.405-.635.618-.988.931-.968.86-2.228 1.414-3.387 1.962-3.661 1.729-7.3 3.658-11.345 4.445-4.095.796-8.455-.333-12.192-2.046-.39-.179-.807-.261-1.185-.466-1.023-.554-2.412-2.055-1.58-3.302.386-.58 1.075-.827 1.749-.762.694.067 1.277.566 1.947.734 1.425.356 3.016.516 4.488.536.84.012 1.691.167 2.54.085.391-.038.734-.189 1.1-.31.564-.189 1.134-.291 1.694-.509 3.132-1.218 5.81-2.91 8.283-5.22.74-.692 1.406-1.456 2.145-2.146.595-.556 1.224-1.083 1.735-1.721.167-.209.248-.462.395-.678.176-.258.424-.443.621-.677.197-.233.296-.43.621-.494m-102.7 24.285v.17c.522.206.763.735 1.185 1.086.265.221.601.362.847.607.65.65.81 1.634 1.129 2.455a16.8 16.8 0 0 1 1.072 4.488c.056.572.283 1.12.339 1.693.07.73.013 1.47.084 2.201.162 1.666.22 3.747-1.524 4.643-1.107.569-2.159.214-3.132-.381-1.308-.8-2.28-1.979-3.232-3.161-2.424-3.009-3.68-6.772-4.05-10.583-.2-2.07.201-4.197 0-6.266-.043-.448-.04-.904-.084-1.354-.037-.375-.17-.72-.17-1.101.438.035.855.257 1.27.395.75.25 1.672.45 2.456.536 1.414.157 2.804.223 4.233.283.34.014.672.09 1.016.056.283-.028.56-.117.847-.141.75-.063 1.536.1 2.286-.057.426-.088.766-.346 1.185-.451.978-.245 2.044-.455 2.963-.89 1.2-.566 2.32-1.317 3.472-1.989.401-.234.92-.318 1.27-.635.179-.162.243-.375.352-.578.218-.402.526-.85.833-1.186.146-.16.27-.328.508-.211.499.246.894.866 1.355 1.2 1.305.942 2.663 1.944 4.064 2.723 1.434.796 2.91 1.616 4.402 2.3 1.938.888 4.02 1.925 5.475 3.556.537.601 1.22 1.189 1.524 1.947.752 1.867-.299 4.115-2.257 4.713-.84.257-1.717.07-2.54-.113-1.123-.25-2.186-.584-3.133-1.242-.64-.444-1.108-1.221-1.693-1.75-.703-.634-1.54-1.066-2.286-1.636-1.145-.874-2.22-1.805-3.556-2.4-1.012-.449-2.116-.897-3.19-1.156-.84-.203-1.781-.141-2.652-.141-.722 0-1.483-.07-2.202 0-.745.072-1.47.412-2.201.564-.524.11-1.097.147-1.609.31-.792.254-1.553.648-2.37.875-.76.212-1.535.384-2.286.621m87.291 0a63 63 0 0 0-3.64-1.044c-.37-.092-.664-.332-1.017-.451-.647-.22-1.386-.226-2.046-.41-.57-.159-1.168-.407-1.764-.465-.663-.065-1.365 0-2.032 0-.598 0-1.184.006-1.778.056-.325.028-.7-.035-1.016.057-1.134.33-2.318.75-3.386 1.255-1.292.61-2.339 1.522-3.472 2.371-.604.454-1.278.798-1.862 1.284-.68.565-1.204 1.313-1.863 1.891-.997.874-2.365 1.23-3.64 1.496-.696.145-1.506.26-2.202.028-.488-.163-.997-.45-1.355-.818-.37-.381-.855-.866-1.072-1.355-.144-.324-.113-.671-.113-1.016 0-1.338.659-2.264 1.552-3.203 2.042-2.147 4.68-3.434 7.338-4.615.476-.211.9-.537 1.355-.79.849-.472 1.7-.898 2.54-1.41.717-.439 1.333-1.012 2.032-1.468.421-.276.87-.502 1.27-.819.286-.227.746-.92 1.1-.974.345-.052.553.444.706.664.312.45.666 1.278 1.157 1.524.385.192.808.321 1.185.536 1.05.598 2.044 1.306 3.133 1.82 1.035.489 2.158.671 3.231.988.267.079.487.262.748.353.47.163 1.052.14 1.538.14.731 0 1.436.09 2.188.142.563.04 1.211-.05 1.778-.085 1.51-.093 2.913-.218 4.402-.508a12 12 0 0 0 2.032-.564c.263-.102.505-.148.65.141.184.369.226.868.282 1.27.18 1.3.084 2.662.084 3.98 0 1.027.1 2.11 0 3.132-.039.4-.304.717-.395 1.1-.078.332-.057.68-.14 1.017a22 22 0 0 1-4.63 8.974c-.947 1.1-1.792 2.073-3.047 2.822-.311.186-.584.505-.932.621-.422.141-.946-.01-1.354-.113a3.3 3.3 0 0 1-1.101-.48c-1.393-.986-1.244-2.985-1.1-4.458.07-.731.013-1.472.084-2.202.039-.398.199-.787.254-1.185.158-1.14.37-2.26.621-3.387.118-.53.365-1.012.536-1.524.274-.82.518-1.807 1.13-2.455.225-.24.507-.332.761-.522.402-.301 1.02-.92 1.27-1.34m-24.723 38.523c.067-.637.883-1.26 1.242-1.778.92-1.324 2-2.515 3.076-3.726 1.196-1.345 2.485-2.744 3.98-3.782.592-.41 1.218-.749 1.764-1.241 1.355-1.222 2.667-2.584 4.247-3.528 1.514-.904 3.24-1.656 4.657-2.681.677-.49 1.695-.353 2.455-.565 1.1-.305 2.13-.853 3.133-1.383.514-.27 1.05-.462 1.524-.818a39 39 0 0 0 4.148-3.612c.497-.497 1.088-.948 1.496-1.524.838-1.183 1.572-2.452 2.244-3.726.215-.407.532-.762.72-1.185.228-.514.322-1.076.508-1.609.366-1.055.702-2.032.93-3.132.065-.308-.001-.622.029-.932.071-.734.085-1.456.085-2.201 0-1.1.115-2.207-.113-3.302-.184-.883-.549-1.637-.65-2.54-.027-.254-.145-.504-.056-.762.225-.647.903-1.072 1.411-1.468.434-.337.81-.743 1.27-1.044.668-.436 1.492-.619 2.202-.973.267-.134.609-.405.931-.31.176.05.275.199.423.295.168.11.359.138.508.283.26.25.29.619.438.931.701 1.485 1.056 3.066 1.453 4.657.437 1.747.56 3.549.734 5.334.155 1.592.326 3.296.17 4.91-.153 1.566-.497 3.113-.819 4.657-.285 1.37-.525 2.816-.988 4.149-.423 1.218-1.075 2.524-1.862 3.556-.455.595-1.05 1.085-1.58 1.608-.55.54-1.078 1.119-1.694 1.58-.792.595-1.654 1.087-2.456 1.666-2.33 1.683-4.741 3.359-7.28 4.699-1.66.876-3.504 1.37-5.25 2.074-.36.145-.659.41-1.016.565q-1.18.508-2.37.987c-2.446.985-5.15 1.298-7.62 2.258a69 69 0 0 1-6.436 2.145c-.856.238-1.772.304-2.624.565-.648.197-1.307.379-1.948.592-.352.118-.635.3-1.016.31m-37.93.085c-1.196-.44-2.394-.845-3.64-1.157-.814-.203-1.657-.298-2.456-.564-2.838-.946-5.668-2.021-8.552-2.822-1.633-.454-3.328-.796-4.91-1.412-.615-.239-1.176-.567-1.778-.818-.22-.092-.464-.077-.678-.183-.327-.164-.586-.412-.93-.55-1.513-.61-3.098-1.04-4.573-1.736-1.931-.912-3.723-2.158-5.503-3.345-1.72-1.146-3.519-2.27-5.165-3.528-.617-.47-1.145-1.116-1.693-1.665-.773-.772-1.524-1.51-2.089-2.455-.927-1.553-1.316-3.344-1.75-5.08-.505-2.022-.955-4.105-1.157-6.18-.306-3.15.335-6.31.678-9.399.122-1.103.523-2.333.875-3.386.129-.388.203-.933.423-1.27.761-1.167 2.833-1.421 4.036-.903.314.135.546.396.846.55.311.16.642.257.932.466.213.153.335.373.508.564.387.429 1.185.862 1.185 1.524 0 1.052-.66 1.998-.762 3.048-.075.773-.01 1.525 0 2.286.01.753-.073 1.537 0 2.286.487 5.007 3.012 9.897 6.773 13.293 1.09.984 2.22 1.958 3.387 2.85.823.629 1.935 1.105 2.879 1.524.587.261 1.232.546 1.862.677.71.148 1.632.14 2.286.494.164.089.27.25.424.353.25.167.58.24.846.381.646.34 1.218.817 1.863 1.157.593.313 1.231.563 1.778.974.764.573 1.577 1.109 2.286 1.75.734.662 1.431 1.383 2.201 2.003.432.348.908.593 1.355.904.786.545 1.472 1.286 2.201 1.905.878.743 1.522 1.623 2.286 2.469.889.984 1.802 1.94 2.54 3.048.297.444.637.847.96 1.27.19.249.326.384.226.677M85.415 94.77c.626-.072 1.223.243 1.848.254 1.95.034 4.207.57 5.701 1.92.87.785 1.527 1.74 2.173 2.709 1.202 1.802 1.92 4.826 4.318 5.447 2.456.635 5.09-.554 7.14-1.778.93-.556 1.947-.94 2.879-1.496.623-.372 1.19-.873 1.778-1.298.903-.653 1.908-1.14 2.879-1.651.976-.516 1.878-1.125 2.963-1.412 1.502-.396 3.13-.5 4.657-.352.906.088 1.859-.065 2.427.846.815 1.309-.133 2.469-.621 3.641-.894 2.146-1.665 4.444-1.891 6.773-.035.364.035.738 0 1.101-.103 1.06-.261 2.344.028 3.387.142.51.295 1.01.424 1.524.053.212.24.517.098.733-.188.288-.698.527-.973.734-1.084.813-2.342 1.363-3.472 2.117-.463.309-.748.758-1.185 1.086-1.118.839-2.29 1.602-3.387 2.47-.366.29-.577.708-.931 1.002-.59.49-1.26.891-1.863 1.369-1.69 1.337-3.458 2.762-4.896 4.374-.6.672-1.201 1.392-1.736 2.117-.375.507-.623 1.094-1.016 1.594a438 438 0 0 0-6.209 8.058c-1.039 1.385-1.613 3.055-2.413 4.572-.43.815-.981 1.557-1.41 2.37-.414.783-.776 1.613-1.229 2.371-.34.57-.767 1.067-1.128 1.609-.158.235-.232.525-.396.762-.417.601-.909 1.085-1.41 1.608-.46.48-.83.845-1.525.903-2.013.168-3.11-1.715-4.092-3.189-1.505-2.257-2.777-4.66-4.092-7.027-.72-1.295-1.141-2.688-2.046-3.895a577 577 0 0 0-6.167-8.043c-.438-.564-.726-1.214-1.157-1.778a37 37 0 0 0-1.919-2.286c-1.228-1.36-2.727-2.552-4.149-3.697-.766-.617-1.642-1.15-2.37-1.806-.34-.307-.574-.705-.932-.988-1.097-.869-2.274-1.623-3.386-2.47-.461-.35-.777-.842-1.27-1.17-.978-.653-2.037-1.19-3.048-1.793-.37-.22-1.076-.612-1.313-.974-.12-.183.01-.463.057-.649.142-.568.309-1.128.465-1.693.284-1.02.13-2.266.029-3.302-.038-.391.038-.794 0-1.185-.064-.657-.253-1.307-.395-1.948-.36-1.618-.735-3.246-1.482-4.741-.496-.992-1.48-2.39-.72-3.556.64-.98 1.574-.889 2.597-.931 1.394-.058 2.951-.093 4.318.268 1.11.293 2.055.845 3.048 1.397 1.599.888 3.08 1.802 4.572 2.878.296.214.642.348.931.565.408.306.723.731 1.1 1.072.817.738 1.8 1.62 2.795 2.103.434.21 1.13.183 1.608.183.844 0 1.81.179 2.625-.028.804-.204 1.708-.51 2.37-1.016 1.724-1.316 2.307-3.756 3.5-5.475.575-.828 1.283-1.727 2.089-2.342 1.038-.794 2.241-1.155 3.471-1.496.462-.129.852-.396 1.34-.452m-6.42 20.546c.233-.385.143-.677.085-1.1-.112-.806-.437-1.464-.734-2.202-.16-.396-.234-.83-.48-1.185-.261-.377-.692-.71-1.157-.762-.872-.097-2.21.611-1.834 1.693.134.388.601.666.903.917.437.364.9.675 1.354 1.016.644.483 1.178 1.227 1.863 1.623m15.325 0c.684-.396 1.219-1.14 1.862-1.623.453-.34.916-.657 1.355-1.016.296-.241.774-.545.903-.917.379-1.09-.965-1.778-1.834-1.693-1.027.1-1.316 1.15-1.637 1.947-.257.638-.517 1.182-.678 1.863-.112.475-.233 1.006.029 1.439" style="fill:#050505;stroke:none"/></g></svg>