<svg xmlns="http://www.w3.org/2000/svg" xml:space="preserve" width="655.36" height="655.36" viewBox="0 0 173.397 173.397"><g style="display:inline"><path d="M86.953 1.44c-2.338 2.337-4.514 4.864-6.35 7.62-1.233 1.848-2.28 3.908-2.766 6.095-.304 1.368-.458 2.933-.17 4.318.286 1.37.888 2.762 1.835 3.81 2.873 3.182 8.107 4.081 11.938 2.272 2.822-1.332 4.49-3.965 5.108-6.928.347-1.666.127-3.549-.367-5.165-.665-2.178-1.735-4.101-3.104-5.927-1.25-1.666-2.721-3.096-4.262-4.487-.587-.53-1.182-1.215-1.862-1.609M63.077 37.507c-.653.12-1.258.482-1.863.734-1.53.637-3.04 1.304-4.657 1.708-.872.218-2.114.389-2.963 0-1.307-.6-1.521-1.996-1.27-3.288.417-2.143 2.23-4.184 4.487-4.403 4.385-.426 8.083 2.922 10.527 6.18 1.502 2.003 2.657 4.203 3.711 6.435 1.862 3.942 3.216 8.184 4.163 12.446.423 1.905.858 3.823 1.073 5.758.082.739.254 1.451.254 2.201-1.105-1.017-2.356-1.922-3.556-2.822-1.65-1.238-3.317-2.479-5.08-3.556-1.884-1.152-3.731-2.32-5.673-3.345-5.108-2.695-10.965-4.784-16.764-5.348-2.793-.271-5.599-.186-8.382.085-5.545.54-11.112 2.962-15.24 6.689-5.054 4.562-7.51 11.672-6.858 18.372.32 3.287 1.417 6.433 2.977 9.314 2.83 5.223 7.783 8.845 13.194 10.95 1.9.739 3.986 1.299 6.012 1.496 1.124.109 2.282-.047 3.386-.17 1.5-.166 3.068-.758 4.403-1.425 4.681-2.34 7.903-6.56 10.09-11.19.894-1.895 1.56-4.005 1.763-6.096.083-.855.073-1.875-.113-2.71-.328-1.476-1.04-2.877-1.495-4.317-.497.143-.907.737-1.27 1.1-.92.92-1.832 1.84-2.794 2.71-2.984 2.694-7.147 4.523-11.176 3.74-2.688-.523-5.284-2.634-4.996-5.603.079-.807.415-1.643.748-2.37.449-.979.976-1.9 1.708-2.71 2.825-3.13 7.14-3.656 11.091-3.217 2.05.227 4.138.905 6.011 1.764 5.514 2.527 10.032 6.41 14.055 10.936 1.627 1.83 3.2 3.82 4.46 5.926 1.102 1.847 2.042 3.833 2.624 5.927 2.848 10.254-1.768 20.567-7.705 28.787-1.673 2.317-3.539 4.583-5.56 6.604-.59.59-1.158 1.219-1.778 1.778-.272.245-.701.45-.762.846-.126.828.025 1.87.537 2.54.334.438.789.778 1.157 1.186 1.454 1.61 3.034 3.12 4.572 4.656 6.884 6.885 13.687 13.857 20.574 20.744h.084c2.755-2.755 5.603-5.492 8.213-8.382 1.145-1.268 2.433-2.433 3.64-3.641 2.924-2.923 5.885-5.8 8.806-8.72 1.27-1.27 2.564-2.525 3.895-3.726.38-.343.701-.75 1.1-1.072.532-.428 1.004-.928 1.524-1.37.154-.13.48-.286.48-.521 0-.252-.475-.605-.649-.762a55 55 0 0 1-2.032-1.948c-2.476-2.475-4.614-5.21-6.66-8.043-1.276-1.766-2.42-3.677-3.43-5.588-3.76-7.126-6.167-15.168-3.936-23.199.634-2.285 1.65-4.423 2.878-6.434 1.311-2.146 2.95-4.152 4.629-6.012 3.378-3.741 7.123-7.134 11.599-9.496 2.436-1.286 5.176-2.471 7.959-2.78 3.734-.415 8.155-.054 10.908 2.878.881.94 1.529 1.974 2.06 3.133.472 1.03.838 2.244.79 3.387-.057 1.37-.422 2.599-1.044 3.81a7.2 7.2 0 0 1-1.792 2.215c-.597.497-1.227.938-1.948 1.228-4.553 1.834-8.869-1.697-12.022-4.544-.475-.428-.965-.842-1.44-1.27-.936-.845-1.812-1.777-2.794-2.568-.323-.261-.575-.613-.931-.819.414 2.25 1.084 4.457 1.58 6.689.697 3.133 1.44 6.334 2.682 9.313.943 2.264 2.271 4.427 4.12 6.096 2.228 2.012 5.348 3.144 8.297 3.472 1.498.166 3.046.402 4.572.254 3.991-.388 7.879-1.852 11.092-4.262 11.423-8.567 12.292-27.656 1.693-37.225-1.384-1.25-2.926-2.363-4.572-3.231a29.1 29.1 0 0 0-13.547-3.373c-5.699 0-11.131 1.156-16.425 3.288-4.694 1.89-9.158 4.45-13.293 7.436-1.919 1.387-3.928 2.74-5.672 4.347.027-1.033.4-2.136.649-3.133.492-1.967 1.04-3.944 1.778-5.842 1.867-4.8 3.902-9.506 6.942-13.716 1.206-1.669 2.378-3.365 3.839-4.826.142.49.12 1.018.169 1.524.099 1.017.24 2.03.339 3.048.255 2.631 1.612 5.385 3.725 7 2.192 1.674 4.934 2.151 7.62 1.89 6.997-.68 13.197-6.38 13.885-13.462.112-1.152.027-2.415-.084-3.556-.66-6.784-4.919-13.54-11.176-16.496-4.02-1.898-8.562-2.213-12.87-1.256-2.433.54-4.835 1.37-7.027 2.526-5.414 2.858-9.53 7.581-13.236 12.347a575 575 0 0 1-3.048 3.895c-.592.748-1.41 1.522-1.835 2.37-.995-1.08-1.794-2.366-2.653-3.555-1.48-2.05-2.922-4.131-4.402-6.181-3.462-4.794-7.827-8.746-13.35-10.894a20 20 0 0 0-4.402-1.129c-4.059-.563-8.309-.51-12.107 1.284-1.91.902-3.748 2.025-5.334 3.458-5.25 4.74-8.608 12.802-6.66 19.812 1.623 5.846 7.41 10.26 13.348 10.837 2.805.273 5.873-.242 8.044-2.201 2.4-2.167 3.171-5.043 3.471-8.128.104-1.067.339-2.143.339-3.218m47.328 0c.112-.385.481-.65.762-.931a35 35 0 0 1 1.948-1.778c1.084-.934 2.276-1.83 3.556-2.47.454-.227.984-.608 1.524-.578.81.045 1.383.875 1.707 1.524.583 1.167.788 2.448.663 3.725-.067.688-.185 1.463-.62 2.032-1.154 1.51-3.366.901-4.883.395-1.595-.531-3.086-1.34-4.657-1.919z" id="tree_svg" display="inline" fill="#fff" stroke="#000" stroke-width="2"/><path d="M86.953 1.44c-2.326 2.325-4.577 4.843-6.35 7.62-1.272 1.99-2.364 4.096-2.85 6.434-.26 1.247-.347 2.723-.085 3.98.537 2.58 2.23 4.78 4.628 5.912 1.387.655 2.818.884 4.318 1.03 1.552.15 3.224-.1 4.657-.776 2.965-1.4 5.017-4.26 5.334-7.521.167-1.718.013-3.432-.537-5.08a18.4 18.4 0 0 0-3.104-5.673c-1.295-1.608-2.704-3.022-4.233-4.403-.562-.506-1.128-1.147-1.778-1.524m.254 7.197c.382.11.579.479.846.762a15.2 15.2 0 0 1 1.962 2.625c.658 1.103 1.216 2.283 1.481 3.556.43 2.065-.232 4.448-2.257 5.404-1.93.911-5.303.387-6.336-1.679-.339-.677-.384-1.717-.24-2.455.246-1.268.707-2.53 1.355-3.641.946-1.623 2.104-3.046 3.189-4.572M49.36 50.716v.084c-.682-.018-1.355-.263-2.032-.339-1.243-.138-2.48-.302-3.726-.423-.718-.07-1.479 0-2.201 0-3.398 0-6.638.56-9.906 1.468-3.411.947-6.544 2.847-9.229 5.122-8.73 7.396-9.55 21.03-3.02 30.07 3.328 4.608 8.232 7.996 13.688 9.512 1.36.377 2.742.766 4.149.903 1.7.165 3.533-.083 5.165-.537 3.297-.916 6.033-2.94 8.382-5.39 2.238-2.336 3.867-5.325 5.023-8.297.873-2.245 1.575-4.978 1.044-7.366-.334-1.507-1.217-2.892-1.495-4.403-.542.313-.994.909-1.44 1.355-.862.862-1.72 1.724-2.624 2.54-3.102 2.8-7.609 4.74-11.769 3.584-1.982-.55-4.186-2.114-4.403-4.346-.128-1.322.34-2.654.918-3.81.422-.845.894-1.658 1.538-2.371 1.884-2.088 4.56-3.038 7.281-3.302 1.125-.11 2.353-.19 3.471.028 1.195.232 2.377.435 3.556.762 1.889.525 3.628 1.428 5.334 2.329 3.43 1.81 6.719 4.42 9.314 7.295 2.314 2.564 4.678 5.077 6.49 8.043 1.13 1.85 2.125 3.82 2.71 5.927.497 1.79.78 3.58.96 5.419.24 2.476-.202 5.054-.734 7.45-1.253 5.637-4.057 10.919-7.423 15.579-1.768 2.448-3.677 4.89-5.813 7.027-.647.647-1.27 1.335-1.948 1.948-.272.245-.701.45-.762.846-.126.828.025 1.87.537 2.54.284.373.67.66.973 1.016 1.45 1.71 3.169 3.24 4.756 4.826 6.884 6.885 13.686 13.856 20.574 20.744h.084c2.98-2.98 6.067-5.932 8.89-9.06 1.065-1.18 2.263-2.262 3.387-3.386 2.783-2.783 5.6-5.516 8.382-8.298 1.737-1.736 3.588-3.358 5.334-5.08.374-.368.776-.743 1.185-1.072.157-.127.48-.303.48-.536 0-.241-.407-.523-.564-.678-.666-.656-1.368-1.282-2.032-1.947-2.324-2.323-4.4-4.873-6.322-7.535-6.213-8.603-10.99-19.863-7.45-30.48.572-1.72 1.361-3.364 2.285-4.911 1.62-2.713 3.708-5.118 5.814-7.45 4.92-5.45 11.193-9.82 18.457-11.233 4.066-.79 9.066.234 11.74 3.612.78.985 1.356 2.117 1.75 3.302.343 1.029.502 2.129.396 3.218-.135 1.38-.723 2.786-1.538 3.894-.52.705-1.117 1.347-1.849 1.835a7.7 7.7 0 0 1-1.863.931c-4.306 1.435-8.62-1.939-11.514-4.713-.49-.469-1.021-.9-1.524-1.355-.653-.589-1.296-1.189-1.948-1.778-.543-.49-1.064-1.16-1.693-1.524.045.572.27 1.134.395 1.694.214.962.464 1.917.677 2.878.653 2.936 1.449 5.814 2.216 8.721.871 3.303 2.626 6.585 5.179 8.89 1.89 1.706 4.403 2.65 6.858 3.16 1.895.396 3.975.67 5.926.48 3.842-.373 7.617-1.742 10.753-4.007 10.693-7.723 12.422-24.2 4.685-34.516-1.996-2.66-4.623-4.868-7.564-6.42-1.193-.63-2.458-1.102-3.725-1.595-1.379-.536-2.876-.792-4.318-1.072-2.86-.556-5.976-.679-8.89-.395-1.124.109-2.276.235-3.387.451-.554.108-1.128.296-1.693.31V50.8c.575-.015 1.15-.242 1.693-.423 1.207-.402 2.302-.933 3.387-1.58 1.195-.715 2.234-1.586 3.217-2.569a14.3 14.3 0 0 0 2.526-3.387c2.809-5.321 1.588-11.84-1.1-16.933-1.1-2.083-2.652-3.935-4.389-5.503a18.3 18.3 0 0 0-4.403-2.95c-7.101-3.353-15.353-1.36-21.759 2.555-4.387 2.68-7.8 6.83-10.95 10.809-1.111 1.403-2.203 2.82-3.302 4.233-.593.763-1.403 1.508-1.835 2.37-1.454-1.579-2.582-3.51-3.838-5.249-3.575-4.95-7.014-10.098-12.333-13.349-6.357-3.885-14.894-4.844-21.675-1.453-3.266 1.633-5.97 4.241-7.987 7.267-1.11 1.667-2.113 3.561-2.652 5.503-.615 2.212-1.186 4.623-.96 6.943.18 1.843.57 3.644 1.369 5.334 1.218 2.58 3.386 4.836 5.828 6.294a20.4 20.4 0 0 0 2.878 1.439c.599.241 1.297.547 1.948.564m68.241-5.588v-.084c.929 0 1.824-.1 2.71-.395.76-.254 1.463-.601 2.116-1.073 3.427-2.475 3.838-7.338 2.596-11.063-.803-2.411-2.57-4.847-5.136-5.56-2.323-.645-4.37.2-6.35 1.383-3.204 1.914-5.876 4.498-8.297 7.31-4.489 5.212-7.641 11.447-10.104 17.78-1.665 4.281-2.999 8.892-3.443 13.462-.32 3.288.085 6.528.085 9.821 1.297-.922 2.373-2.235 3.556-3.302 1.835-1.657 3.66-3.33 5.588-4.882 7.278-5.863 15.288-10.745 24.468-12.785 2.086-.464 4.213-.621 6.35-.621 6.371 0 13.04 1.91 17.16 7.112a18.7 18.7 0 0 1 2.68 4.657 19.5 19.5 0 0 1 1.327 5.334c.241 2.48.002 4.944-.536 7.366-1.03 4.637-4.184 9.255-8.439 11.5-3.303 1.744-6.989 2.367-10.668 1.651-1.724-.335-3.486-.85-4.826-2.06-1.49-1.346-2.45-3.06-3.132-4.91.454.035.926.312 1.354.48.567.22 1.188.376 1.778.507 2.819.626 5.827.262 8.382-1.086 1.155-.61 2.13-1.44 3.048-2.357 2.619-2.618 4.086-6.535 3.726-10.245-.43-4.423-3.157-8.664-6.943-10.978-8.334-5.093-19.068-1.667-26.416 3.64-1.828 1.32-3.495 2.783-5.165 4.29-2.02 1.825-3.843 3.879-5.531 6.012-3.786 4.782-6.906 10.158-7.507 16.34-.156 1.606-.413 3.278-.254 4.911.165 1.7.293 3.396.62 5.08.662 3.402 1.813 6.781 3.288 9.906 2.018 4.273 4.623 8.345 7.55 12.107.877 1.128 1.778 2.272 2.766 3.302.263.275.493.574.762.847.108.11.31.252.31.423 0 .172-.202.314-.31.424l-.762.762c-1.088 1.088-2.213 2.128-3.302 3.217l-11.938 11.938-2.964 2.963c-.228.229-.764.988-1.1.988-.14 0-.248-.137-.339-.226-.285-.28-.564-.564-.847-.846l-3.386-3.387c-4.02-4.02-8-8.084-12.023-12.107-1.029-1.03-2.016-2.101-3.048-3.133-.228-.228-.988-.764-.988-1.1 0-.17.198-.306.297-.424.298-.358.622-.679.945-1.016 1.068-1.114 2.061-2.345 3.02-3.556 3.369-4.255 6.308-8.909 8.382-13.885 2.512-6.03 3.713-12.859 2.37-19.304-.562-2.7-1.5-5.365-2.78-7.79-1.834-3.476-4.388-6.575-7.013-9.482C66.4 67.567 60.116 62.626 53.001 60.65c-5.561-1.545-11.96-1.668-16.848 1.862a18 18 0 0 0-2.794 2.512c-2.208 2.446-3.796 6.23-3.472 9.567.212 2.173 1.278 4.282 2.794 5.842a11.1 11.1 0 0 0 2.71 2.018 14.1 14.1 0 0 0 5.164 1.538c2.46.24 5.068-.235 7.366-1.129.903-.35 1.793-1 2.71-1.241-.035.438-.3.88-.494 1.27a23 23 0 0 1-1.454 2.54c-2.502 3.754-6.579 7.067-11.345 6.604-1.308-.127-2.65-.573-3.895-.988-6.368-2.123-11.534-7.273-13.01-13.914a18.9 18.9 0 0 1-.367-5.926c.117-1.201.408-2.41.79-3.556.464-1.393 1.1-2.647 1.863-3.895.588-.963 1.378-1.83 2.173-2.625 3.842-3.842 9.043-5.414 14.309-5.926 1.405-.137 2.985-.223 4.402-.085 9.881.96 18.89 5.576 26.67 11.628 2.774 2.157 5.356 4.48 7.959 6.83 1.138 1.027 2.301 2.047 3.387 3.132 0-3.1.555-6.21.254-9.313-.683-7.027-1.96-14.014-4.544-20.659-1.515-3.896-3.225-7.715-5.757-11.091-3.106-4.142-7.299-7.863-12.644-8.382-1.613-.157-3.289-.147-4.826.451-1.502.584-2.97 1.47-4.064 2.681-2.97 3.29-4.19 8.79-1.016 12.362a6.95 6.95 0 0 0 2.54 1.834c1.304.544 2.583.621 3.98.621-.27.38-.828.546-1.27.663-1.244.328-2.578.224-3.81-.084-4.221-1.056-7.617-4.483-8.044-8.876-.19-1.96.283-4.113.988-5.927 1.731-4.452 5.247-8.637 10.019-9.962 3.486-.969 7.235-.806 10.668.338 6.207 2.07 10.421 7.392 13.941 12.672 1.963 2.944 4.135 5.717 6.35 8.467.543.673 1.142 1.305 1.722 1.947.14.155.35.593.593.593.217 0 .535-.442.663-.593.483-.57.985-1.123 1.467-1.693 1.95-2.3 3.835-4.646 5.687-7.028 3.096-3.98 6.264-8.001 10.386-10.978 5.766-4.164 14.334-5.688 20.235-1.016 4.146 3.282 6.81 9.458 5.645 14.704-.992 4.464-6.094 8.062-10.64 7.62-.975-.095-1.692-.508-2.54-.932m-7.197-7.62c.151-.381.473-.642.762-.931.598-.598 1.233-1.134 1.863-1.693 1.1-.977 2.332-1.882 3.64-2.554.456-.234.983-.595 1.525-.565.593.033 1.012.472 1.34.917.661.898 1.015 2.106 1.03 3.218.015 1.064.025 2.202-.62 3.132-.893 1.285-2.83 1.008-4.121.65-1.889-.525-3.566-1.588-5.419-2.174M76.54 65.278c-.762-.42-1.425-1.127-2.117-1.665a131 131 0 0 0-3.725-2.794c-4.665-3.369-9.667-6.031-14.986-8.1a39 39 0 0 0-3.641-1.185c-.876-.244-1.8-.578-2.71-.65V50.8c.787 0 1.589.263 2.371.339 1.247.12 2.613-.035 3.81-.367 2.9-.806 5.204-2.952 6.322-5.73.669-1.66.79-3.417.96-5.164.076-.787.254-1.577.254-2.37-.683.143-1.398.54-2.032.832-1.49.683-3.045 1.315-4.657 1.65-.941.197-2.154.321-3.048-.126-1.097-.548-1.27-2.032-1.044-3.119.452-2.173 2.08-4.258 4.43-4.487 4.537-.441 8.303 2.918 10.782 6.35 3.855 5.338 6.196 11.882 7.62 18.288.381 1.718.68 3.442 1.016 5.165.203 1.047.395 2.147.395 3.217m33.782-27.686c.268.638.186 1.587.254 2.286.147 1.52.303 3.11.79 4.572 1.29 3.87 4.61 6.3 8.608 6.689 1.273.123 2.48-.254 3.725-.254v.084c-.625.05-1.255.286-1.863.438-1.701.425-3.361 1.015-4.995 1.65-4.935 1.92-9.642 4.552-13.97 7.677a143 143 0 0 0-4.064 3.048c-.557.433-1.081.988-1.693 1.327 0-.705.243-1.433.395-2.117.331-1.492.776-2.93 1.185-4.403.64-2.304 1.538-4.622 2.554-6.773 1.359-2.877 2.717-5.704 4.502-8.382 1.007-1.511 2.03-3.023 3.217-4.403.41-.476.81-1.124 1.355-1.439" style="fill:#020202;stroke:none"/></g></svg>