<svg xmlns="http://www.w3.org/2000/svg" width="655.36" height="655.36" viewBox="0 0 173.397 173.397"><g style="display:inline"><path d="M83.566 26.614c-.66.128-1.363.076-2.032.14-1.692.165-3.407.38-5.08.706-6.783 1.32-13.517 3.902-19.135 7.959-3.69 2.665-7.128 5.705-9.962 9.285-2.703 3.414-4.865 7.115-6.703 11.007-2.516 5.328-3.768 11.302-4.332 17.102-1.564 16.092 3.87 32.349 12.728 45.636 7.37 11.053 16.782 20.806 27.404 28.772 1.545 1.159 3.126 2.28 4.657 3.457 2.124 1.635 4.506 3.604 7.366 3.048 1.276-.248 2.344-.884 3.386-1.636a257 257 0 0 0 3.726-2.752c3.818-2.864 7.55-5.849 11.091-9.045 1.303-1.177 2.506-2.464 3.81-3.641 2.925-2.64 5.434-5.7 8.043-8.636 2.148-2.416 3.981-5.088 5.87-7.705 5.388-7.459 9.309-15.95 11.77-24.807.889-3.201 1.598-6.522 1.918-9.821.118-1.21.137-2.43.254-3.641.123-1.259.085-2.538.085-3.81 0-.778.075-1.597 0-2.37-.245-2.52-.39-5.042-.875-7.536-.949-4.88-2.529-9.579-4.642-14.055-.733-1.55-1.683-3.015-2.583-4.487-6.933-11.345-18.782-19.107-31.609-21.957a51.7 51.7 0 0 0-11.26-1.242h-2.54c-.44 0-.923-.055-1.355.029z" id="default_svg" display="inline" fill="#fff" stroke="#000" stroke-width="2"/><path d="M83.566 26.614c-.66.128-1.363.076-2.032.14-1.692.165-3.407.38-5.08.706-6.783 1.32-13.517 3.902-19.135 7.959-3.69 2.665-7.128 5.705-9.962 9.285-2.703 3.414-4.865 7.115-6.703 11.007-2.516 5.328-3.768 11.302-4.332 17.102-1.564 16.092 3.87 32.349 12.728 45.636 7.37 11.053 16.782 20.806 27.404 28.772 1.545 1.159 3.126 2.28 4.657 3.457 2.124 1.635 4.506 3.604 7.366 3.048 1.276-.248 2.344-.884 3.386-1.636a257 257 0 0 0 3.726-2.752c3.818-2.864 7.55-5.849 11.091-9.045 1.303-1.177 2.506-2.464 3.81-3.641 2.925-2.64 5.434-5.7 8.043-8.636 2.148-2.416 3.981-5.088 5.87-7.705 5.388-7.459 9.309-15.95 11.77-24.807.889-3.201 1.598-6.522 1.918-9.821.118-1.21.137-2.43.254-3.641.123-1.259.085-2.538.085-3.81 0-.778.075-1.597 0-2.37-.245-2.52-.39-5.042-.875-7.536-.949-4.88-2.529-9.579-4.642-14.055-.733-1.55-1.683-3.015-2.583-4.487-6.933-11.345-18.782-19.107-31.609-21.957a51.7 51.7 0 0 0-11.26-1.242h-2.54c-.44 0-.923-.055-1.355.029m1.27 5.997c.462-.07.972-.014 1.44-.014.91 0 1.809-.003 2.709.084.702.069 1.414.017 2.116.085 2.102.204 4.196.528 6.266.988 12.31 2.735 23.41 10.588 29.365 21.872 2.425 4.595 3.958 9.449 4.953 14.563.337 1.734.478 3.495.649 5.249.04.42-.04.85 0 1.27.119 1.22.204 2.578.085 3.81-.118 1.21-.137 2.43-.254 3.64-.282 2.898-.77 5.901-1.553 8.721-1.194 4.3-2.659 8.51-4.557 12.531-3.742 7.923-8.995 15.232-14.888 21.76a123.5 123.5 0 0 1-17.526 15.987c-1.511 1.134-2.998 2.324-4.572 3.373-.371.247-.733.507-1.1.762-.151.105-.31.28-.508.282-.214.003-.426-.2-.593-.31-.488-.326-.964-.673-1.44-1.016a391 391 0 0 1-5.672-4.191c-2.836-2.127-5.503-4.474-8.128-6.844-4.743-4.282-9.144-8.926-13.067-13.97-3.616-4.65-7.022-9.686-9.525-14.986-1.165-2.468-2.179-4.975-3.175-7.536-1.371-3.526-2.416-7.355-2.935-11.091-.24-1.726-.509-3.432-.677-5.165-.096-.981.01-1.98-.085-2.963-.079-.81-.079-1.56 0-2.37.057-.588-.057-1.192 0-1.779.311-3.202.668-6.339 1.453-9.482.78-3.117 1.844-6.2 3.274-9.06 1.777-3.553 3.93-6.928 6.618-9.906 2.934-3.25 6.375-6.271 10.245-8.368 4.29-2.323 8.795-4.125 13.631-5.065 1.65-.321 3.329-.544 4.996-.706.815-.08 1.646-.032 2.455-.155" style="display:inline;fill:#020202;stroke:none"/></g></svg>