<svg xmlns="http://www.w3.org/2000/svg" xml:space="preserve" width="655.36" height="655.36" viewBox="0 0 173.397 173.397"><g style="display:inline"><path d="M126.492 102.955v-.085c1.93.356 3.825.95 5.757 1.326 3.542.69 7.092 1.036 10.668 1.383 1.936.188 3.888.339 5.842.339 1.683 0 3.385.085 5.08.085h1.355c.136 0 .36.043.48-.043.173-.124.232-.448.31-.635.163-.39.317-.798.494-1.185.48-1.048.948-2.092 1.44-3.133.27-.574.7-1.152.832-1.778l-2.032-.917-3.133-1.44-9.398-4.317-28.363-12.982-8.297-3.81-4.234-1.934c.54-.89.748-2.11.847-3.132.332-3.413-.635-6.854-2.455-9.737 1.19 0 2.375-.308 3.556-.423 2.515-.245 5.019-.602 7.535-.847 1.404-.136 2.817-.423 4.233-.423 1.306 0 2.601.213 3.895.338.26.026 1.145.299 1.312.07.112-.15.035-.48.07-.662.131-.67.138-1.358.24-2.032.412-2.694.57-5.417.833-8.128.132-1.352.208-2.712.339-4.064.049-.504-.049-1.021 0-1.524.274-2.816.05-5.745-.706-8.467-2.013-7.25-8.06-13.397-15.465-15.042-2.303-.512-4.61-.51-6.943-.283-2.026.197-3.975.954-5.927 1.496-1.575.438-3.106 1.1-4.572 1.792-1.95.921-3.88 2.02-5.503 3.486-.736.664-1.464 1.34-2.088 2.116-.572.71-1.073 1.563-1.722 2.202-.312.307-.804.49-1.185.691a33 33 0 0 0-1.778 1.03c-1.87 1.143-3.746 2.64-4.883 4.544-.891 1.493-1.555 3.477-1.383 5.25.064.652.165 1.309.325 1.947.063.252.266.59.17.846-.189.501-.692.978-.974 1.44-.562.919-1.123 1.846-1.623 2.794-1.387 2.628-2.477 5.56-3.203 8.466-1.577 6.308-1.281 12.874-3.02 19.135-.622 2.24-2.365 3.803-3.754 5.588-1.295 1.666-2.342 3.536-3.231 5.419-1.005 2.127-1.678 4.482-2.187 6.773a25 25 0 0 0-.367 1.947c-.059.423-.074.91-.325 1.27-1.696 2.442-4.34 4.294-6.957 5.602-5.035 2.518-10.83 4.021-16.425 4.643-1.384.154-2.763.373-4.149.508-1.563.152-3.166.21-4.656.79-2.146.835-4.08 2.235-5.221 4.29-1.623 2.921-.662 6.714 1.75 8.89 1.816 1.64 4.11 2.383 6.265 3.4 3.7 1.748 7.537 3.205 11.26 4.911 4.158 1.906 8.456 3.513 12.616 5.42 3.4 1.558 6.927 2.842 10.329 4.402 4.144 1.9 8.404 3.593 12.615 5.348l11.6 4.826c2.062.86 4.199 1.86 6.434.96.44-.178.844-.434 1.27-.636 1.28-.604 2.609-1.103 3.895-1.693 1.948-.893 3.979-1.59 5.927-2.483 4.087-1.874 8.295-3.563 12.446-5.292 1.927-.803 3.873-1.58 5.757-2.47 2.147-1.013 4.311-1.844 6.35-3.09 2.631-1.608 4.946-3.83 6.745-6.322 2.234-3.092 3.472-6.642 3.838-10.414.076-.781-.01-1.6-.084-2.37-.369-3.788-1.758-7.365-4.318-10.245-.867-.975-1.77-1.926-2.794-2.738-.427-.338-.85-.788-1.355-.987z" id="totem_svg" display="inline" fill="#fff" stroke="#000" stroke-width="2"/><path d="M126.492 102.955v-.085c1.93.356 3.825.95 5.757 1.326 3.542.69 7.092 1.036 10.668 1.383 1.936.188 3.888.339 5.842.339 1.683 0 3.385.085 5.08.085h1.355c.136 0 .36.043.48-.043.173-.124.232-.448.31-.635.163-.39.317-.798.494-1.185.48-1.048.948-2.092 1.44-3.133.27-.574.7-1.152.832-1.778l-2.032-.917-3.133-1.44-9.398-4.317-28.363-12.982-8.297-3.81-4.234-1.934c.54-.89.748-2.11.847-3.132.332-3.413-.635-6.854-2.455-9.737 1.19 0 2.375-.308 3.556-.423 2.515-.245 5.019-.602 7.535-.847 1.404-.136 2.817-.423 4.233-.423 1.306 0 2.601.213 3.895.338.26.026 1.145.299 1.312.07.112-.15.035-.48.07-.662.131-.67.138-1.358.24-2.032.412-2.694.57-5.417.833-8.128.132-1.352.208-2.712.339-4.064.049-.504-.049-1.021 0-1.524.274-2.816.05-5.745-.706-8.467-2.013-7.25-8.06-13.397-15.465-15.042-2.303-.512-4.61-.51-6.943-.283-2.026.197-3.975.954-5.927 1.496-1.575.438-3.106 1.1-4.572 1.792-1.95.921-3.88 2.02-5.503 3.486-.736.664-1.464 1.34-2.088 2.116-.572.71-1.073 1.563-1.722 2.202-.312.307-.804.49-1.185.691a33 33 0 0 0-1.778 1.03c-1.87 1.143-3.746 2.64-4.883 4.544-.891 1.493-1.555 3.477-1.383 5.25.064.652.165 1.309.325 1.947.063.252.266.59.17.846-.189.501-.692.978-.974 1.44-.562.919-1.123 1.846-1.623 2.794-1.387 2.628-2.477 5.56-3.203 8.466-1.577 6.308-1.281 12.874-3.02 19.135-.622 2.24-2.365 3.803-3.754 5.588-1.295 1.666-2.342 3.536-3.231 5.419-1.005 2.127-1.678 4.482-2.187 6.773a25 25 0 0 0-.367 1.947c-.059.423-.074.91-.325 1.27-1.696 2.442-4.34 4.294-6.957 5.602-5.035 2.518-10.83 4.021-16.425 4.643-1.384.154-2.763.373-4.149.508-1.563.152-3.166.21-4.656.79-2.146.835-4.08 2.235-5.221 4.29-1.623 2.921-.662 6.714 1.75 8.89 1.816 1.64 4.11 2.383 6.265 3.4 3.7 1.748 7.537 3.205 11.26 4.911 4.158 1.906 8.456 3.513 12.616 5.42 3.4 1.558 6.927 2.842 10.329 4.402 4.144 1.9 8.404 3.593 12.615 5.348l11.6 4.826c2.062.86 4.199 1.86 6.434.96.44-.178.844-.434 1.27-.636 1.28-.604 2.609-1.103 3.895-1.693 1.948-.893 3.979-1.59 5.927-2.483 4.087-1.874 8.295-3.563 12.446-5.292 1.927-.803 3.873-1.58 5.757-2.47 2.147-1.013 4.311-1.844 6.35-3.09 2.631-1.608 4.946-3.83 6.745-6.322 2.234-3.092 3.472-6.642 3.838-10.414.076-.781-.01-1.6-.084-2.37-.369-3.788-1.758-7.365-4.318-10.245-.867-.975-1.77-1.926-2.794-2.738-.427-.338-.85-.788-1.355-.987m-8.72-48.768-6.012.508-11.515 1.354-4.487.593-2.554-4.487-.917-1.694h-.085c-.139.752-.33 1.416-.254 2.202.268 2.753 1.841 5.406 3.246 7.704.586.96 1.303 1.834 1.89 2.794 1.15 1.88 2.06 3.936 2.06 6.181 0 2.289-1.217 4.153-3.047 5.475-.703.507-1.497.865-2.202 1.355-.282.196-.589.494-.494.875.124.492.688.806 1.087 1.044 1.171.7 2.523.948 3.725 1.566.486.25 1.482.798 1.482 1.454 0 .229-.313.336-.466.451-.448.337-.889.72-1.241 1.157-1.289 1.6-2.143 3.356-2.88 5.25-.819 2.107-1.345 4.32-1.834 6.519-.471 2.123-.917 4.28-1.157 6.435-.261 2.352-.846 4.737-.846 7.112h-.085c-1.487-2.354-2.78-4.906-4.078-7.366-2.53-4.792-5.142-9.504-7.45-14.394-.951-2.012-1.887-4.017-2.724-6.096-.774-1.92-1.411-3.757-1.411-5.842 0-4.3.995-8.732 2.145-12.869.372-1.342 1.511-3.51-.198-4.389-.765-.393-1.591-.084-2.088.579-.228.303-.297.66-.396 1.016-.197.71-.424 1.408-.62 2.117-.912 3.281-1.647 6.694-1.976 10.075-.15 1.55-.407 3.167-.254 4.741.208 2.143 1.013 4.21 1.834 6.181 1.056 2.534 2.18 5.01 3.401 7.45a559 559 0 0 0 5.616 10.923c1.792 3.394 3.796 6.678 5.588 10.075 1.186 2.246 2.6 4.37 3.81 6.604.474.875 1.147 1.703 1.51 2.625h.085l.593-10.414 1.298-10.414.847-4.234.649-2.54c.498.105.92.475 1.354.734a27 27 0 0 1 3.133 2.201c1.986 1.6 4.196 3.036 6.435 4.248 1.802.976 3.591 1.965 5.418 2.879 4.907 2.453 10.319 4.298 13.773 8.904.614.818 1.061 1.708 1.481 2.624.386.841.705 1.788.833 2.71a14.8 14.8 0 0 1 0 4.148c-.21 1.512-.749 2.965-1.425 4.318a17 17 0 0 1-3.74 4.911 21.4 21.4 0 0 1-4.318 3.034c-1.987 1.049-4.132 1.799-6.18 2.737-5.847 2.68-11.93 4.855-17.78 7.536-2.286 1.047-4.67 1.89-6.943 2.963-.64.302-1.293.588-1.947.86-.238.1-.493.317-.762.283-.481-.06-.996-.357-1.44-.536l-2.709-1.1c-2.86-1.153-5.752-2.288-8.551-3.57-1.89-.867-3.867-1.533-5.758-2.4-6.833-3.132-13.912-5.73-20.743-8.862-7.044-3.228-14.335-5.922-21.336-9.228-1.59-.751-3.326-1.276-4.741-2.357-.737-.562-1.388-1.508-1.157-2.483.3-1.269 1.578-1.955 2.68-2.4.978-.393 2.097-.378 3.133-.479 2.01-.195 4.004-.539 6.012-.762 1.843-.205 3.692-.67 5.503-1.072 7.402-1.645 15.355-4.754 19.953-11.12.275-.38.658-.836.833-1.27.12-.297.092-.7.14-1.016.126-.82.268-1.639.438-2.455.43-2.065 1.03-4.184 1.933-6.096.725-1.534 1.585-3.047 2.64-4.403.853-1.098 1.819-2.106 2.652-3.217.754-1.006 1.243-2.143 1.693-3.302.737-1.895 1.076-4.093 1.299-6.096.198-1.782.504-3.55.677-5.334.243-2.503.496-4.982 1.044-7.451.815-3.666 2.2-7.224 4.149-10.414.664-1.086 1.422-2.13 2.201-3.133.241-.31.59-.598.79-.931.135-.224-.133-.416-.254-.593a7.8 7.8 0 0 1-.79-1.439c-.608-1.51-.396-3.108.593-4.403 1.088-1.424 2.807-2.46 4.374-3.288.711-.375 1.51-.735 2.117-1.284.897-.81 1.489-1.897 2.286-2.794a18 18 0 0 1 2.963-2.68c2.709-1.957 6.04-2.982 9.229-3.867 1.815-.504 3.77-.919 5.673-.734 5.112.497 9.907 3.505 12.347 8.128.76 1.44 1.406 2.962 1.764 4.572.443 1.993.48 4.15.282 6.18-.046.476.046.965 0 1.44-.145 1.492-.194 2.994-.339 4.487l-.338 3.472c-.05.51-.17 1.008-.17 1.524m36.407 46.736-.677 1.693c-7.743 0-15.394-.58-22.945-2.258-1.745-.388-3.442-.876-5.165-1.354-.902-.251-2.068-.482-2.878-.96-.261-.154-.204-.733-.283-1.016-.169-.61-.592-1.11-1.072-1.51-.674-.561-1.573-.81-2.37-1.143a15 15 0 0 1-2.625-1.411c.188-.324.503-.546.733-.847.325-.425.485-.922.593-1.439.3-1.436-.75-2.913-1.834-3.711-2.233-1.644-5.137-1.376-7.705-2.018a16 16 0 0 1-2.032-.677c-.188-.076-.594-.143-.72-.31-.116-.156-.024-.47-.042-.65a6.5 6.5 0 0 0-.282-1.355c-.407-1.221-1.094-2.223-2.004-3.132-.409-.409-.9-.888-1.44-1.101l.34-.847 1.523.664 4.234 1.947 13.462 6.18 21.759 9.991 8.297 3.81zM98.213 89.408c.242-1.146 1.044-2.462 1.75-3.387.305-.4.703-.86 1.214-.987.492-.124.858.175 1.27.38q1.05.526 2.116 1.017a18.3 18.3 0 0 0 5.673 1.538c1.426.138 3.349.142 4.374 1.354.492.58.557 1.588-.395 1.694-.98.109-1.769-.54-2.709-.593-.403-.022-.765.361-.748.762.036.857.987 1.655 1.595 2.145 1.522 1.227 3.177 2.224 4.91 3.09.598.299 1.24.526 1.863.776.213.086.62.246.663.508.079.47-1.067.424-1.34.424-1.509 0-2.94-.17-4.403-.537-2.872-.717-5.755-1.494-8.297-3.048-.698-.426-1.213-1.064-1.863-1.552-1.184-.888-2.466-1.657-3.725-2.427-.63-.385-1.264-.887-1.948-1.157" style="fill:#020202;stroke:none"/></g></svg>