<svg xmlns="http://www.w3.org/2000/svg" xml:space="preserve" width="655.36" height="655.36" viewBox="0 0 173.397 173.397"><g style="display:inline"><path d="m55.965 40.301-4.318.17-3.472.084h-3.132l-4.318.17-4.657.084-2.201.127-1.186 1.313-2.963 3.386-8.904 10.16-2.963 3.387-1.073 1.27.212 1.016.508 2.286 1.778 8.043 1.608 7.282.353 1.608.212.72.48.042 1.524-.14 2.032-.114 2.624-.254 12.023-.846 5.673-.424 3.302-.254-2.766 12.531-5.814 26.585-2.455 11.176-.988 4.572 10.668 4.375 17.61 7.168 8.298 3.387 2.879 1.185 1.27.48 1.157-1.524 2.004-2.625 1.382-1.862-.056-.932v-2.37l-.085-8.467-.338-29.718-.17-13.123-.084-5.504-.014-1.1-.381-.508-1.214-1.44-2.032-2.455-1.609-1.947 7.028-.508 11.26-.847 5.673-.423 1.27-.085.579-.042.169-.466.197-1.1.523-2.795.31-1.862 2.54-.17-.254 8.213-.085 3.81v2.286l-.014.847-.973 1.439-2.682 3.81-1.227 1.778-.1 1.863-.168 2.794-.678 10.16-.084 2.286-1.101 17.102-.254 5.165-.423 6.943-.085 1.439-.057 1.016 1.397 2.625 2.809 5.334 3.725-1.411 7.197-2.794 20.743-8.044 7.874-3.048 1.947-.762.89-.38-.114-1.257-.437-3.132-1.693-12.192-1.016-7.282-.847-6.096-.762-5.503-1.863-13.631-1.44-10.33-.676-4.995 3.217-.254 6.435-.423 2.794-.17 1.016-.084.409-.043.451-1.143 1.2-3.471 3.302-9.567 1.326-3.895-5.25-.988-8.042-1.524-3.556-.677-1.426-.31-.494-1.327-.705-2.201-.423-1.44c1.826 0 3.691.007 5.503-.169.442-.043.91 0 1.355 0 .16 0 .422.05.564-.042.195-.128.284-.441.381-.635.254-.507.498-1.023.762-1.524.938-1.777 1.896-3.538 2.794-5.334l.677-1.355c.102-.203.318-.44.325-.677.012-.419-.543-.875-.776-1.186l-2.286-3.048-7.112-9.482-2.032-2.71c-.265-.353-.57-.99-.946-1.227-.326-.207-1.195-.043-1.58-.043-1.386 0-2.756.085-4.149.085-5.418 0-10.845.254-16.256.254-2.374 0-4.75.085-7.112.085-1.5 0-3.08-.145-4.572 0-1.59.154-3.22.084-4.826.084-.77 0-1.521.085-2.286.085-2.175 0-4.356.085-6.52.085-1.274 0-2.739-.197-3.978.113-1.82.455-3.038 2.665-4.008 4.12-.299.448-.581.905-.875 1.355-.12.184-.23.423-.451.494-.183.058-.404-.005-.593.014-1.014.098-2.033.155-3.048.254-2.876.28-5.76.482-8.636.762-.978.095-1.999.038-2.963.225-.254.05-.62-.055-.847.071-.214.119-.39.444-.536.635-.39.511-.791 1.017-1.186 1.524-1.234 1.587-2.491 3.155-3.725 4.741-.839 1.08-1.71 2.132-2.54 3.218-.256.334-.87.855-.945 1.27-.033.181.095.42.14.592.173.653.394 1.307.607 1.948a79 79 0 0 1 1.186 3.81c.22.791.585 1.563.734 2.37z" id="ruins_svg" display="inline" fill="#fff" stroke="#000" stroke-width="2"/><path d="m55.965 40.301-4.318.17-3.472.084h-3.132l-4.318.17-4.657.084-2.201.127-1.186 1.313-2.963 3.386-8.904 10.16-2.963 3.387-1.073 1.27.212 1.016.508 2.286 1.778 8.043 1.608 7.282.353 1.608.212.72.48.042 1.524-.14 2.032-.114 2.624-.254 12.023-.846 5.673-.424 3.302-.254-2.766 12.531-5.814 26.585-2.455 11.176-.988 4.572 10.668 4.375 17.61 7.168 8.298 3.387 2.879 1.185 1.27.48 1.157-1.524 2.004-2.625 1.382-1.862-.056-.932v-2.37l-.085-8.467-.338-29.718-.17-13.123-.084-5.504-.014-1.1-.381-.508-1.214-1.44-2.032-2.455-1.609-1.947 7.028-.508 11.26-.847 5.673-.423 1.27-.085.579-.042.169-.466.197-1.1.523-2.795.31-1.862 2.54-.17-.254 8.213-.085 3.81v2.286l-.014.847-.973 1.439-2.682 3.81-1.227 1.778-.1 1.863-.168 2.794-.678 10.16-.084 2.286-1.101 17.102-.254 5.165-.423 6.943-.085 1.439-.057 1.016 1.397 2.625 2.809 5.334 3.725-1.411 7.197-2.794 20.743-8.044 7.874-3.048 1.947-.762.89-.38-.114-1.257-.437-3.132-1.693-12.192-1.016-7.282-.847-6.096-.762-5.503-1.863-13.631-1.44-10.33-.676-4.995 3.217-.254 6.435-.423 2.794-.17 1.016-.084.409-.043.451-1.143 1.2-3.471 3.302-9.567 1.326-3.895-5.25-.988-8.042-1.524-3.556-.677-1.426-.31-.494-1.327-.705-2.201-.423-1.44c1.826 0 3.691.007 5.503-.169.442-.043.91 0 1.355 0 .16 0 .422.05.564-.042.195-.128.284-.441.381-.635.254-.507.498-1.023.762-1.524.938-1.777 1.896-3.538 2.794-5.334l.677-1.355c.102-.203.318-.44.325-.677.012-.419-.543-.875-.776-1.186l-2.286-3.048-7.112-9.482-2.032-2.71c-.265-.353-.57-.99-.946-1.227-.326-.207-1.195-.043-1.58-.043-1.386 0-2.756.085-4.149.085-5.418 0-10.845.254-16.256.254-2.374 0-4.75.085-7.112.085-1.5 0-3.08-.145-4.572 0-1.59.154-3.22.084-4.826.084-.77 0-1.521.085-2.286.085-2.175 0-4.356.085-6.52.085-1.274 0-2.739-.197-3.978.113-1.82.455-3.038 2.665-4.008 4.12-.299.448-.581.905-.875 1.355-.12.184-.23.423-.451.494-.183.058-.404-.005-.593.014-1.014.098-2.033.155-3.048.254-2.876.28-5.76.482-8.636.762-.978.095-1.999.038-2.963.225-.254.05-.62-.055-.847.071-.214.119-.39.444-.536.635-.39.511-.791 1.017-1.186 1.524-1.234 1.587-2.491 3.155-3.725 4.741-.839 1.08-1.71 2.132-2.54 3.218-.256.334-.87.855-.945 1.27-.033.181.095.42.14.592.173.653.394 1.307.607 1.948a79 79 0 0 1 1.186 3.81c.22.791.585 1.563.734 2.37m4.148-3.725-.818-2.71-.353-1.185.833-1.185 1.933-2.455 2.06-2.625 1.087-1.312 1.354-.127 3.048-.254 8.636-.762 2.032-.17 1.355-.098 1.03-1.426 2.103-3.217.945-1.171.917-.014h2.37l5.25-.085 5.25-.085 23.79-.338 6.69-.085h1.947l.677-.07.96 1.086 2.159 2.879 4.826 6.434 1.397 1.863.522.762-.452 1.016-1.185 2.286-.452.804-.578.043h-1.355l-5.588.169-4.148.17-5.673.084-3.133.085-5.503.169-4.149.17-5.757.084-3.895.17H97.96l-5.842.169-3.81.169-3.132.085H82.55l-3.895.169H76.37l-3.894.17h-2.286l-3.895.169h-2.286zm88.73 15.325-.676 2.201-1.666 4.826-.592 1.693-.297.635-.747.057-2.456.155-8.974.593-15.833 1.1-4.741.254-7.705.508-3.81.254-2.201.17-.31 1.778-.537 2.878-.226 1.101-.127.466-1.171.127-3.387.254-8.297.677-3.133.198-2.116.14-4.488.34-13.97 1.1-2.963.17-16.171 1.27-4.15.253-7.873.593-4.826.339c-.6-3.259-1.426-6.5-2.145-9.737l-.677-3.048c-.086-.385-.342-.962-.283-1.355.056-.364.659-.829.904-1.1.803-.89 1.566-1.819 2.37-2.71 2.64-2.924 5.15-5.965 7.79-8.89.647-.717 1.313-1.449 1.919-2.201.25-.311.6-.876.96-1.058.404-.206 1.078.011 1.523-.057 1.019-.155 2.099-.07 3.133-.07s2.086-.085 3.133-.085c1.526 0 3.137-.022 4.656-.17.774-.075 1.593 0 2.37 0 1.528 0 3.138-.02 4.658-.169 2.184-.212 4.42.128 6.604-.084 1.52-.148 3.128-.17 4.656-.17.778 0 1.597.076 2.37 0 1.522-.147 3.13-.169 4.658-.169.777 0 1.597.075 2.37 0 1.147-.111 2.323.027 3.472-.085 1.175-.114 2.379.03 3.556-.084 3.616-.352 7.305.013 10.922-.339 1.176-.114 2.38.03 3.556-.085 1.006-.098 2.041.098 3.048 0 1.376-.134 2.851-.169 4.233-.169.916 0 1.882.089 2.794 0 3.644-.354 7.362.016 11.007-.339 1.006-.097 2.041.098 3.048 0 2.2-.214 4.47-.169 6.688-.169.902 0 1.888-.24 2.794-.085.375.065.46.958.565 1.27.338 1.014.65 2.037.987 3.048.102.306.18.885.48 1.059.436.252 1.203.229 1.694.324 1.184.23 2.372.447 3.556.678 2.228.433 4.462.837 6.688 1.27 1.11.215 2.262.56 3.387.649M130.81 70.443l.508 3.725 1.27 9.144.847 6.096.846 6.096 2.456 17.865 1.524 11.006.366 2.625.1 1.171-.551.282-1.778.692-6.35 2.455-17.695 6.858-5.673 2.202-2.37.903-1.412-2.71.057-1.354.254-4.064.084-2.371.593-8.72.254-5.165 1.016-15.748.339-5.504.197-3.048.932-1.354 2.624-3.726 1.298-1.862.029-1.016.084-3.895.085-3.81.17-5.165 1.693-.169 3.132-.254 8.721-.677zm-87.884 60.706 1.044-4.742 1.524-6.942 5.532-25.062 1.961-8.974.536-2.456.254-.889.494-.042h5.588l9.906-.085h2.71l1.1.043.946 1.058 1.99 2.37.112 1.101v2.456l.085 9.144.085 4.318.084 4.995v7.027l.085 7.366.085 5.08.084 4.403.085 9.906v1.44l-.042.677-.522.677-.537.635-.677-.198-1.44-.592-6.01-2.441-16.341-6.69-6.266-2.553z" style="fill:#020202;stroke:none"/></g></svg>