<svg xmlns="http://www.w3.org/2000/svg" width="655.36" height="655.36" viewBox="0 0 173.397 173.397"><g style="display:inline"><path d="M61.213 223.267c-.568-7.591 27.43-10.813 41.761-11.003 17.233-.228 46.104 3.286 46.237 10.552.125 6.831-23.438 10.398-44.257 10.662-16.907.214-43.248-3.616-43.741-10.211" style="display:inline;fill:#000;fill-opacity:.2;stroke-width:.264583" transform="translate(-18.34 -61.733)"/></g><g style="display:inline"><path d="M131.826 39.398c-2.566.499-4.652 2.013-6.858 3.33-2.983 1.782-6.013 3.473-9.06 5.123-1.282.694-2.472 1.551-3.725 2.3-.406.243-.935.78-1.411.846-.39.054-.934-.245-1.298-.366-1.313-.438-2.49-1.18-3.726-1.764-.898-.425-1.898-.798-2.878-1.002-.59-.123-1.189-.163-1.778-.31-.733-.184-1.422-.596-2.117-.876a28.6 28.6 0 0 0-4.403-1.354c-1.568-.349-3.15-.466-4.74-.621-1.063-.103-2.156.103-3.218 0-2.23-.217-4.477-.046-6.689.17-2.17.21-4.434.433-6.52 1.128-.636.212-1.234.546-1.862.79-2.001.779-3.955 1.587-5.842 2.583-4.123 2.176-7.89 4.994-11.345 8.114-3.03 2.735-5.326 6.189-7.394 9.652-1.655 2.77-3.14 5.557-4.347 8.55-.758 1.885-1.294 3.896-1.862 5.843-.126.43-.134.914-.226 1.355-.317 1.521-.5 3.03-.65 4.572-.413 4.257-.22 8.697.706 12.869 1.016 4.57 2.48 8.985 4.474 13.208.61 1.292 1.35 2.509 1.947 3.81.21.457.663 1.093.663 1.608 0 .543-.483 1.165-.748 1.61-.899 1.505-2.107 2.788-3.203 4.148-.563.7-1.072 1.394-1.453 2.201-.436.923-.615 1.909-1.143 2.794-.397.664-.983 1.261-1.468 1.863-.955 1.185-1.97 2.417-2.752 3.725-1.044 1.748-2.868 3.727-1.693 5.842.171.308.404.69.692.903.575.425 1.262.452 1.947.452 1.786 0 3.643-1.13 5.165-1.933 1.72-.908 3.487-1.856 5.08-3.006 1.998-1.444 4.003-2.9 6.18-4.05 1.742-.92 3.196-2.087 5.165-2.498.545-.113 1.021.052 1.524.226.965.335 1.808.78 2.71 1.256 2.862 1.511 5.596 3.207 8.635 4.389 1.571.61 3.196 1.088 4.826 1.495.686.172 1.41.411 2.117.48 1.767.172 3.548.17 5.334.17 1.3 0 2.608.04 3.894-.085.84-.082 1.702.081 2.54 0 1.22-.119 2.423-.39 3.641-.508.735-.072 1.475-.121 2.201-.283 3.999-.888 7.778-2.612 11.261-4.74 2.233-1.366 4.235-3.135 6.265-4.77 1.709-1.377 3.536-2.622 5.165-4.093 1-.903 2.015-1.908 2.85-2.963.412-.52.753-1.088 1.158-1.609 2.432-3.127 4.769-6.288 6.209-9.99.309-.795.506-1.638.733-2.456.27-.972.63-1.9.875-2.878.522-2.087.837-4.304 1.044-6.435.115-1.18.055-2.375.17-3.556.186-1.92.698-3.89.508-5.842-.09-.925-.61-1.756-.875-2.625-.374-1.225-.65-2.483-.96-3.725-.23-.921-.192-1.78-.282-2.71-.122-1.26-.401-2.487-.945-3.64a29 29 0 0 0-1.877-3.387c-.337-.515-.77-.976-1.058-1.524-.94-1.78-1.694-3.677-2.357-5.587-.165-.475.266-1.021.452-1.44.56-1.261 1.177-2.495 1.792-3.725 1.64-3.28 3.395-6.492 5.108-9.737.92-1.744 2.12-3.363 2.92-5.164.774-1.74 1.985-4.54-.31-5.687-.428-.214-.889-.34-1.354-.438-.46-.096-1.058-.119-1.524-.028z" id="extraWisp_svg" display="inline" fill="currentColor" stroke="#000" stroke-width="2"/><path d="M131.826 39.398c-2.566.499-4.652 2.013-6.858 3.33-2.983 1.782-6.013 3.473-9.06 5.123-1.282.694-2.472 1.551-3.725 2.3-.406.243-.935.78-1.411.846-.39.054-.934-.245-1.298-.366-1.313-.438-2.49-1.18-3.726-1.764-.898-.425-1.898-.798-2.878-1.002-.59-.123-1.189-.163-1.778-.31-.733-.184-1.422-.596-2.117-.876a28.6 28.6 0 0 0-4.403-1.354c-1.568-.349-3.15-.466-4.74-.621-1.063-.103-2.156.103-3.218 0-2.23-.217-4.477-.046-6.689.17-2.17.21-4.434.433-6.52 1.128-.636.212-1.234.546-1.862.79-2.001.779-3.955 1.587-5.842 2.583-4.123 2.176-7.89 4.994-11.345 8.114-3.03 2.735-5.326 6.189-7.394 9.652-1.655 2.77-3.14 5.557-4.347 8.55-.758 1.885-1.294 3.896-1.862 5.843-.126.43-.134.914-.226 1.355-.317 1.521-.5 3.03-.65 4.572-.413 4.257-.22 8.697.706 12.869 1.016 4.57 2.48 8.985 4.474 13.208.61 1.292 1.35 2.509 1.947 3.81.21.457.663 1.093.663 1.608 0 .543-.483 1.165-.748 1.61-.899 1.505-2.107 2.788-3.203 4.148-.563.7-1.072 1.394-1.453 2.201-.436.923-.615 1.909-1.143 2.794-.397.664-.983 1.261-1.468 1.863-.955 1.185-1.97 2.417-2.752 3.725-1.044 1.748-2.868 3.727-1.693 5.842.171.308.404.69.692.903.575.425 1.262.452 1.947.452 1.786 0 3.643-1.13 5.165-1.933 1.72-.908 3.487-1.856 5.08-3.006 1.998-1.444 4.003-2.9 6.18-4.05 1.742-.92 3.196-2.087 5.165-2.498.545-.113 1.021.052 1.524.226.965.335 1.808.78 2.71 1.256 2.862 1.511 5.596 3.207 8.635 4.389 1.571.61 3.196 1.088 4.826 1.495.686.172 1.41.411 2.117.48 1.767.172 3.548.17 5.334.17 1.3 0 2.608.04 3.894-.085.84-.082 1.702.081 2.54 0 1.22-.119 2.423-.39 3.641-.508.735-.072 1.475-.121 2.201-.283 3.999-.888 7.778-2.612 11.261-4.74 2.233-1.366 4.235-3.135 6.265-4.77 1.709-1.377 3.536-2.622 5.165-4.093 1-.903 2.015-1.908 2.85-2.963.412-.52.753-1.088 1.158-1.609 2.432-3.127 4.769-6.288 6.209-9.99.309-.795.506-1.638.733-2.456.27-.972.63-1.9.875-2.878.522-2.087.837-4.304 1.044-6.435.115-1.18.055-2.375.17-3.556.186-1.92.698-3.89.508-5.842-.09-.925-.61-1.756-.875-2.625-.374-1.225-.65-2.483-.96-3.725-.23-.921-.192-1.78-.282-2.71-.122-1.26-.401-2.487-.945-3.64a29 29 0 0 0-1.877-3.387c-.337-.515-.77-.976-1.058-1.524-.94-1.78-1.694-3.677-2.357-5.587-.165-.475.266-1.021.452-1.44.56-1.261 1.177-2.495 1.792-3.725 1.64-3.28 3.395-6.492 5.108-9.737.92-1.744 2.12-3.363 2.92-5.164.774-1.74 1.985-4.54-.31-5.687-.428-.214-.889-.34-1.354-.438-.46-.096-1.058-.119-1.524-.028m-.17 3.288c.537-.06 1.218.505 1.073 1.087-.146.584-.554 1.116-.875 1.608-.497.761-.862 1.605-1.383 2.37-1.347 1.98-2.689 3.984-4.092 5.928-.463.641-1.004 1.22-1.468 1.862-.72.998-1.348 2.062-2.088 3.048-.772 1.03-1.572 2.04-2.37 3.048-.318.401-.845.908-.904 1.44-.08.725.305 1.318.593 1.947.418.913.941 1.785 1.326 2.71.834 2 1.727 3.991 2.54 6.01.375.932.607 1.976 1.059 2.88.602 1.204 1.485 2.304 1.99 3.555.269.669.298 1.412.366 2.117.087.897.244 1.83.452 2.71.295 1.25.862 2.434.987 3.724a27 27 0 0 1 0 5.334c-.078.812.08 1.639 0 2.456-.063.65-.19 1.297-.254 1.947-.07.73-.013 1.472-.084 2.201-.09.918-.403 1.824-.65 2.71-.387 1.394-.756 2.72-1.298 4.064-.239.593-.269 1.27-.508 1.862-.525 1.304-1.264 2.492-1.933 3.726-.531.981-1.14 1.988-1.82 2.878-1.465 1.918-3.184 3.631-4.798 5.42-1.74 1.927-3.55 3.663-5.588 5.277-.894.708-1.73 1.547-2.71 2.145-.678.414-1.423.687-2.116 1.072a67 67 0 0 1-3.98 2.018c-2.218 1.047-4.44 2.297-6.857 2.893-.938.23-1.92.301-2.879.395-1.189.115-2.362.301-3.556.338-.526.017-1.077-.051-1.609 0-3.163.308-6.207.071-9.313-.705-.88-.22-1.783-.548-2.625-.875-.443-.173-.908-.253-1.354-.395-1.26-.402-2.513-.974-3.726-1.496-.747-.322-1.449-.759-2.2-1.072-.485-.202-1.014-.402-1.525-.508-.78-.163-1.555-.186-2.286-.55-1.561-.781-2.981-1.915-4.402-2.922-.596-.422-1.134-1.086-1.92-1.072-.58.01-1.132.621-1.552.96-.984.792-2.037 1.5-3.048 2.257-1.606 1.205-3.145 2.506-4.741 3.725-1.285.982-2.666 1.818-3.98 2.766-1.053.761-1.985 1.65-3.132 2.272-1.11.601-2.21 1.226-3.302 1.863-.342.2-.918.746-1.355.635-.715-.182.065-1.132.282-1.411.982-1.262 1.829-2.592 2.752-3.895.344-.485.673-1.075 1.2-1.397.611-.374 1.5-.6 1.919-1.228.544-.817.086-1.914.55-2.794.37-.701.999-1.242 1.482-1.862 1.23-1.583 2.451-3.168 3.697-4.742.761-.961 1.533-1.91 2.286-2.878.318-.41.708-.877.536-1.44-.187-.613-.672-1.178-1.044-1.693a24 24 0 0 1-1.1-1.693c-.952-1.592-1.766-3.24-2.555-4.91-2.294-4.858-3.31-10.456-3.824-15.749-.104-1.065.019-2.151-.085-3.217-.18-1.855.16-3.742.339-5.588.204-2.1.658-4.26 1.326-6.266.844-2.53 1.661-5.021 2.964-7.366 1.538-2.768 3.134-5.5 5.277-7.874 1.137-1.259 2.201-2.578 3.472-3.725 2.718-2.454 5.7-4.55 8.89-6.322 1.973-1.096 4.102-1.956 6.18-2.822 1.022-.426 2.243-.604 3.316-.832 2.105-.449 4.18-.99 6.336-1.2 2.042-.198 4.052-.084 6.096-.084 2.001 0 4.078-.113 6.011.451 1.475.43 2.88 1.025 4.318 1.524.968.336 1.868.89 2.88 1.129.67.159 1.369.033 2.031.226.551.16 1.09.482 1.609.72 1.25.573 2.492 1.151 3.64 1.933.734.499 1.762 1.488 2.71 1.383.56-.063 1.183-.66 1.608-1.002a35 35 0 0 1 2.54-1.849c1.956-1.303 3.91-2.658 5.758-4.12.904-.716 1.773-1.47 2.71-2.145.998-.722 2.108-1.28 3.132-1.976.927-.63 1.88-1.231 2.794-1.89.554-.4 1.156-.98 1.862-1.059M68.918 92.371l.34-.085c.097.303.424.347.676.537.229.17.434.387.678.536.53.324 1.354.491 1.947.705.767.277 1.518.637 2.286.904.714.247 1.48.353 2.201.564.675.197 1.6.455 2.286.141.272-.124.444-.386.678-.564.21-.16.473-.238.677-.395.51-.392.796-1.474.762-2.089-.034-.609-.23-1.416-.677-1.863-.344-.343-.826-.527-1.186-.846-.501-.446-.834-.97-1.185-1.524.58-.153 1.03-.581 1.524-.903.866-.565 1.788-1.021 2.71-1.482.328-.164.732-.48 1.1-.536.19-.03.404.078.593.099.953.105 1.746.751 2.54 1.27.646.422 1.33.77 1.947 1.241.763.583 1.393 1.296 2.032 2.004 1.002 1.11 1.438 2.407.677 3.81-.606 1.12-1.635 2.08-2.709 2.752-.635.397-1.35.715-1.947 1.171-1.65 1.26-3.41 2.472-5.25 3.443-.414.219-.864.39-1.27.621-.254.145-.458.361-.762.395-.64.071-1.245-.127-1.862-.226-2.715-.432-5.219-1.286-7.79-2.286-.633-.246-1.3-.414-1.947-.62-.299-.096-.6-.127-.847-.34-.412-.354-.638-.842-.96-1.27a41 41 0 0 1-1.297-1.862c-.224-.335-.71-.81-.819-1.185-.07-.242.144-.403.014-.678-.395-.837-.837-1.66-1.143-2.54-.28-.81-.285-1.699-.366-2.54-.086-.884-.172-1.814-.085-2.709.282-2.904 2.05-5.277 3.612-7.62.618-.926 1.134-1.967 1.891-2.794.898-.98 2.148-1.651 3.133-2.54.871-.787 1.672-1.682 2.71-2.258 3.544-1.97 7.43-2.769 11.43-2.991.175-.01.335.068.507.084.446.044.903-.037 1.355 0 .37.031.733.134 1.1.17 1.856.18 3.762.596 5.504 1.298 4.849 1.953 8.954 5.148 11.881 9.54.914 1.37 1.775 2.849 2.315 4.402a5.8 5.8 0 0 1 .282 2.37c-.048.49-.18 1.03-.057 1.524.203.81 1.166.956 1.383 1.778.234.885.195 1.809.282 2.71.149 1.526-.022 2.975-.169 4.487-.08.83-.331 1.629-.423 2.455-.085.764-.09 1.646-.381 2.371-.486 1.207-1.275 2.25-1.891 3.387-1.303 2.405-2.96 4.754-5.01 6.604-.727.657-1.595 1.129-2.37 1.721-.81.62-1.517 1.418-2.37 1.976-1.654 1.08-3.696 1.76-5.589 2.286-2.918.81-6.056.997-9.06.705-.758-.073-1.537-.21-2.285-.366-.68-.142-1.341-.315-2.032-.113-2.117.617-3.587 2.203-5.024 3.796-.651.722-1.393 1.637-1.129 2.695.178.712 1.085 1.439 1.666 1.834.746.508 1.754.61 2.624.706 1.59.176 3.269.338 4.826.705.924.218 1.922.472 2.879.565.589.057 1.19.027 1.778.084.943.092 1.927.262 2.878.17 2.636-.256 5.106-1.066 7.62-1.835.85-.26 1.709-.399 2.54-.733.53-.214.991-.562 1.524-.777.733-.294 1.497-.446 2.202-.818.744-.393 1.394-.965 2.116-1.397 1.22-.728 2.497-1.442 3.556-2.399 1.057-.954 2.076-2.016 3.048-3.048.72-.763 1.536-1.451 2.174-2.286.491-.643.835-1.389 1.326-2.032.569-.744 1.236-1.389 1.722-2.201.43-.722.965-1.513 1.298-2.286.308-.716.437-1.492.762-2.202.269-.587.895-.885 1.072-1.524.165-.594.012-1.333-.014-1.947-.028-.682.119-1.36.212-2.032.079-.568.283-1.12.338-1.693.311-3.199.653-6.508.34-9.737a39.2 39.2 0 0 0-1.976-8.974c-.206-.593-.64-1.11-.875-1.694-.186-.46-.214-.971-.395-1.44-.564-1.45-1.305-2.82-2.117-4.148-.891-1.458-2.084-2.717-3.119-4.064-1.037-1.35-2.006-2.653-3.288-3.81-.429-.387-.88-.827-1.354-1.157-1.357-.942-2.972-1.393-4.488-2.004-.505-.203-.954-.477-1.439-.72-.948-.473-1.974-.758-2.963-1.142-3.056-1.189-6.116-2.249-9.314-3.048-1.162-.291-2.366-.788-3.556-.903-1.778-.173-3.621.244-5.333.649-.545.128-1.14.11-1.694.225-1.037.217-1.997.655-2.963 1.045-1.2.483-2.494.696-3.725 1.072-1.117.341-2.275.954-3.302 1.51a26.9 26.9 0 0 0-7.112 5.574c-.791.876-1.33 1.956-2.06 2.879-.401.506-.899.933-1.299 1.439-.42.532-.707 1.133-1.072 1.693-.367.563-.841 1.09-1.143 1.694-.375.749-.46 1.629-.861 2.37-.342.63-.747 1.176-1.355 1.58-.782.522-1.75.834-2.088 1.807-.193.556-.133 1.216 0 1.778.102.433.348.9.31 1.354-.066.792-.6 1.493-.677 2.286-.142 1.464.143 2.93 0 4.403-.118 1.208-.173 2.428-.24 3.64-.033.604.13 1.243.07 1.863-.074.768-.596 1.406-.507 2.202.029.26.168.504.225.762.214.963.464 1.916.678 2.878.214.964.463 1.918.677 2.88.12.535.229 1.107.466 1.608.314.665.808 1.218 1.157 1.862.58 1.072 1.038 2.204 1.877 3.133.457.507 1.01.912 1.524 1.355.516.445 1.048.937 1.608 1.326.695.483 1.509.76 2.286 1.073 1.063.428 2.236.79 3.387.903 1.69.164 3.765-.45 5.165-1.383 1.113-.742 2.22-1.527 3.217-2.427 1.145-1.034 2.264-2.442 3.81-2.893.3-.087.703-.24 1.016-.24.728 0 1.311.46 1.947.734.708.305 1.45.531 2.202.677 1.984.386 4.052.21 6.01-.197 1.418-.295 2.874-.685 4.15-1.411 1.637-.933 3.13-2.034 4.402-3.444 4.486-4.968 5.885-12.905 2.441-18.796-1.356-2.32-3.082-4.283-5.235-5.898-.628-.471-1.428-.695-2.117-1.058-.646-.341-1.224-.812-1.862-1.157-.798-.432-1.784-.852-2.71-.903-.633-.036-1.242.15-1.862.211-1.715.167-3.375.476-4.995 1.13-1.052.422-2.007 1.018-3.048 1.453-.671.279-1.347.378-2.032.578-1.14.332-2.107 1.318-2.88 2.173-1.304 1.446-1.893 3.263-2.398 5.08-.334 1.203-.44 2.422-.677 3.64-.117.601-.387 1.364-.141 1.948" style="fill:#030303;stroke:none"/></g></svg>