<?xml version="1.0" encoding="UTF-8" standalone="no"?>
<svg
   width="512"
   height="512"
   viewBox="0 0 135.46666 135.46667"
   version="1.1"
   id="svg1"
   xmlns="http://www.w3.org/2000/svg"
   xmlns:svg="http://www.w3.org/2000/svg">
  <defs
     id="defs1" />
  <g
     id="layer4"
     style="display:none">
    <path
       style="display:inline;fill:#00b295;fill-opacity:1;stroke:#000000;stroke-width:4.49792;stroke-linejoin:round;paint-order:stroke fill markers"
       d="m 64.235577,86.499771 c 0.351808,-0.598712 1.055406,-1.796105 0.843214,-2.913 -0.212191,-1.116895 -1.340136,-2.153183 -2.577894,-2.236195 -1.237757,-0.08301 -2.585189,0.78726 -3.256311,2.097589 -0.671123,1.310328 -0.665859,3.06056 -0.137076,4.480636 0.528784,1.420076 1.581028,2.509835 3.138265,3.052535 1.557237,0.542701 3.619279,0.538277 5.063799,-1.080749 1.44452,-1.619027 2.271341,-4.852459 3.477016,-8.477128 1.205675,-3.624669 2.790057,-7.640134 4.67713,-10.791033 1.887073,-3.150898 4.076611,-5.436852 6.060527,-7.817825 1.983916,-2.380973 3.76197,-4.856679 2.639475,-7.565948 -1.122495,-2.709269 -5.145405,-5.651774 -8.286868,-6.167148 -3.141463,-0.515374 -5.4011,1.396445 -7.244386,3.52575 -1.843285,2.129305 -3.269997,4.47584 -5.878198,6.738665 -2.6082,2.262825 -6.397649,4.44171 -10.397275,5.82341 -3.999626,1.3817 -8.209098,1.966137 -11.286056,3.160446 -3.076958,1.19431 -5.021027,2.998345 -5.700465,5.020029 -0.679439,2.021684 -0.09416,4.26077 1.573327,5.452867 1.667491,1.192097 4.416993,1.337057 6.250591,0.510354 1.833597,-0.826703 2.75107,-2.624972 2.662375,-4.066441 -0.0887,-1.441468 -1.183549,-2.525962 -2.278634,-2.7143 -1.095085,-0.188337 -2.190271,0.519502 -2.649434,1.07749 -0.459164,0.557987 -0.282245,0.96605 0.311066,0.890892 0.593311,-0.07516 1.602945,-0.633531 2.129202,-0.257171 0.526258,0.37636 0.569078,1.687406 -0.137392,2.458256 -0.70647,0.770849 -2.162142,1.001407 -3.292742,0.705679 -1.130601,-0.295728 -1.935991,-1.117707 -2.102246,-2.135569 -0.166255,-1.017862 0.306646,-2.231483 1.039706,-3.195178 0.73306,-0.963696 1.726189,-1.677345 4.217815,-2.41247 2.491625,-0.735125 6.481524,-1.491652 10.394601,-2.955355 3.913076,-1.463703 7.749019,-3.634437 10.583793,-6.139576 2.834774,-2.505139 4.668042,-5.344386 6.342423,-7.327135 1.674381,-1.982749 3.189675,-3.108764 5.512572,-2.499465 2.322897,0.609298 5.45312,2.953834 6.293275,4.983912 0.840155,2.030077 -0.60986,3.745442 -2.457614,5.917982 -1.847753,2.172541 -4.093016,4.801988 -6.08394,7.994417 -1.990925,3.192428 -3.727266,6.947445 -4.75534,9.826183 -1.028075,2.878738 -1.347757,4.880845 -1.93277,6.489333 -0.585013,1.608488 -1.435287,2.823165 -2.595309,3.008841 -1.160022,0.185676 -2.629656,-0.657669 -3.169116,-1.768787 -0.53946,-1.111118 -0.148681,-2.489875 0.420094,-2.976244 0.568774,-0.48637 1.315479,-0.0803 1.717981,0.548489 0.402501,0.628785 0.460754,1.480221 0.489882,1.90595 0.02913,0.425729 0.02913,0.425724 0.380937,-0.172988 z"
       id="path8"
       transform="matrix(1.3315984,0,0,1.3315984,-18.459619,-24.119388)" />
  </g>
  <g
     id="layer1"
     style="display:inline">
    <path
       style="display:inline;fill:#8c1010;stroke:#000000;stroke-width:4.49792;stroke-linejoin:round;paint-order:stroke fill markers;fill-opacity:1"
       d="m 8.6540637,10.600284 c -1.1305595,1.285793 -1.8343509,3.152143 -1.7275946,5.223212 0.1067564,2.071069 1.0240339,4.346644 3.4915799,7.071719 2.467546,2.725074 6.485146,5.899386 14.914906,12.229135 8.42976,6.329749 21.270833,15.814305 35.668624,27.348709 14.397791,11.534403 30.35057,25.117268 40.266081,34.736627 9.91551,9.619354 13.79256,15.274044 16.08226,17.908384 2.28971,2.63434 2.99181,2.24803 3.57487,1.93683 0.58307,-0.31119 1.04706,-0.54724 1.53083,-0.82079 0.48377,-0.27354 0.98734,-0.58459 -1.32017,-3.80126 -2.30752,-3.21667 -7.42583,-9.3386 -17.77574,-19.048372 C 93.00979,83.674701 77.429438,70.378187 67.574884,62.176199 57.72033,53.97421 53.592358,50.867408 49.464418,47.76063 45.336477,44.653852 41.20859,41.547114 35.99347,37.686167 30.77835,33.82522 24.47609,29.210132 20.348134,26.103342 c -4.127956,-3.10679 -6.081539,-4.705227 -7.301687,-6.157549 -1.220149,-1.452321 -1.70678,-2.758414 -1.672368,-3.888912 0.03441,-1.130498 0.58988,-2.0853 1.356765,-2.741026 0.766885,-0.655727 1.745188,-1.012379 2.819367,-1.073176 1.07418,-0.0608 2.244133,0.17426 2.808367,0.0015 0.564234,-0.172738 0.522682,-0.753253 0.484344,-1.348202 C 18.804583,10.30105 18.769463,9.6917146 18.724548,9.1661777 18.679633,8.6406408 18.624924,8.1989114 17.652403,8.002531 16.679882,7.8061506 14.789606,7.8551217 13.065755,8.2322141 11.341904,8.6093065 9.7846232,9.31449 8.6540637,10.600284 Z"
       id="path1" />
    <path
       style="fill:#8c1010;fill-opacity:1;stroke:#000000;stroke-width:3.70417;stroke-linejoin:round;stroke-dasharray:none;stroke-opacity:1;paint-order:stroke fill markers"
       d="m 28.138021,11.557116 c 0.95387,0.722749 2.40077,0.484115 3.019417,-0.409403 0.618647,-0.893518 0.3584,-2.4334702 -0.564315,-3.1326141 -0.922715,-0.6991439 -2.460337,-0.5616363 -3.097502,0.3586275 -0.637165,0.9202638 -0.311471,2.4606396 0.6424,3.1833896 z"
       id="path15"
       transform="translate(-1.7671715,-0.10451621)" />
    <path
       style="fill:#8c1010;fill-opacity:1;stroke:#000000;stroke-width:3.70417;stroke-linejoin:round;stroke-dasharray:none;stroke-opacity:1;paint-order:stroke fill markers"
       d="m 38.31576,22.01785 c -0.685609,0.450543 -0.989236,1.469162 -0.57786,2.086212 0.411376,0.61705 1.53769,0.832519 2.223313,0.381967 0.685622,-0.450552 0.930473,-1.567071 0.5191,-2.184132 -0.411374,-0.61706 -1.478943,-0.734591 -2.164553,-0.284047 z"
       id="path16"
       transform="translate(0.99903053,1.645462)" />
  </g>
  <g
     id="layer2">
    <path
       style="fill:#8c1010;fill-opacity:1;stroke:#000000;stroke-width:4.49792;stroke-linejoin:round;paint-order:stroke fill markers"
       d="m 119.04722,26.820937 c -2.8049,-0.21619 -5.75777,-1.1542 -7.96157,-2.706238 -2.20381,-1.552038 -3.65854,-3.718096 -4.35381,-5.906936 -0.69528,-2.188841 -0.6311,-4.40046 -0.16953,-5.463322 0.46157,-1.062861 1.32049,-0.97697 1.70854,-0.235135 0.38805,0.741834 0.30521,2.13953 0.85832,3.790865 0.55311,1.651336 1.7421,3.556104 3.58864,4.967728 1.84654,1.411624 4.35038,2.329918 6.58259,2.641607 2.23221,0.311689 4.19251,0.01673 5.45817,0.268351 1.26566,0.251622 1.83654,1.049809 0.79348,1.70173 -1.04305,0.651922 -3.69992,1.157539 -6.50483,0.94135 z"
       id="path2"
       transform="translate(2.6468081,-2.3527197)" />
    <path
       style="fill:#8c1010;stroke:#000000;stroke-width:4.49792;stroke-linejoin:round;paint-order:stroke fill markers;fill-opacity:1"
       d="M 97.056269,37.721752 C 81.284428,52.104263 50.562968,81.38931 34.558018,96.139204 18.553068,110.8891 17.264711,111.10382 15.965539,110.9535 c -1.299173,-0.15031 -2.609002,-0.66566 -3.285431,-1.4924 -0.67643,-0.82675 -0.719374,-1.9648 -0.268422,-2.59828 0.450952,-0.63348 1.395745,-0.76232 2.147334,-0.39726 0.751589,0.36506 1.30988,1.22397 1.664197,1.20249 0.354317,-0.0215 0.504625,-0.92332 0.332833,-1.76081 -0.171791,-0.83749 -0.665659,-1.6105 -1.417246,-2.14735 -0.751586,-0.53684 -1.7608,-0.83746 -2.920392,-0.74082 -1.159593,0.0966 -2.4694194,0.5905 -3.3498524,1.67493 -0.8804329,1.08444 -1.3313547,2.75929 -1.2132476,4.20878 0.1181071,1.4495 0.8052306,2.67344 1.7822931,3.59682 0.9770629,0.92337 2.2439479,1.54608 3.7256479,1.8145 1.4817,0.26842 3.178034,0.18254 4.129485,0.85802 0.95145,0.67549 1.157895,2.11226 1.798446,3.29784 0.640552,1.18559 1.715151,2.11984 3.093381,2.7113 1.378231,0.59146 3.060079,0.84011 4.659336,0.51702 1.599258,-0.3231 3.11576,-1.2179 3.905293,-2.5074 0.789534,-1.2895 0.851991,-2.97353 0.387925,-4.04502 -0.464065,-1.07148 -1.454617,-1.53029 -2.659871,-1.54587 -1.205255,-0.0156 -2.625196,0.41209 -2.537539,0.85801 0.08766,0.44591 1.682864,0.91003 1.902352,1.54376 0.219489,0.63373 -0.936783,1.437 -2.134463,1.48998 -1.19768,0.053 -2.436734,-0.64433 -3.174371,-1.3473 -0.737638,-0.70297 -0.973839,-1.41157 -1.027524,-2.12022 -0.05369,-0.70864 0.07515,-1.41724 15.600359,-16.358356 C 52.63127,82.724748 83.551606,53.552316 98.600963,38.705788 113.65032,23.859261 112.82811,23.339241 97.056269,37.721752 Z"
       id="path3" />
    <path
       style="fill:#8c1010;fill-opacity:1;stroke:#000000;stroke-width:3.70417;stroke-linejoin:round;stroke-dasharray:none;stroke-opacity:1;paint-order:stroke fill markers"
       d="m 127.1903,7.4437571 c -1.0578,-1.6258733 -3.38882,-1.8609343 -4.96575,-0.6757866 -1.57694,1.1851477 -2.39964,3.7903575 -1.34182,5.4162645 1.05782,1.625907 3.99603,2.272313 5.57296,1.087164 1.57693,-1.185148 1.7924,-4.2017686 0.73461,-5.8276419 z"
       id="path10"
       transform="translate(-0.70519802,1.4441911)" />
    <g
       id="g14">
      <path
         style="fill:#8c1010;fill-opacity:1;stroke:#000000;stroke-width:3.70417;stroke-linejoin:round;stroke-dasharray:none;stroke-opacity:1;paint-order:stroke fill markers"
         d="m 61.181621,86.488125 c -1.038855,0.277027 -1.814534,1.606762 -1.523639,2.410146 0.290894,0.803383 1.648301,1.080406 2.687164,0.803369 1.038862,-0.277037 1.75912,-1.108102 1.468228,-1.911492 -0.290892,-0.80339 -1.592897,-1.579051 -2.631753,-1.302023 z"
         id="path11"
         transform="translate(-10.720562,12.762343)" />
      <path
         style="fill:#8c1010;fill-opacity:1;stroke:#000000;stroke-width:3.70417;stroke-linejoin:round;stroke-dasharray:none;stroke-opacity:1;paint-order:stroke fill markers"
         d="m 52.89611,67.128625 c -0.775678,0.581758 -1.155403,1.590534 -0.652683,2.108773 0.50272,0.51824 1.887833,0.545943 2.663514,-0.03583 0.77568,-0.58177 0.941893,-1.772967 0.439186,-2.291206 -0.502707,-0.518239 -1.67434,-0.363497 -2.450017,0.218261 z"
         id="path12"
         transform="translate(-0.98101473,-0.8930134)" />
      <path
         style="fill:#8c1010;fill-opacity:1;stroke:#000000;stroke-width:3.70417;stroke-linejoin:round;stroke-dasharray:none;stroke-opacity:1;paint-order:stroke fill markers"
         d="m 119.60681,36.443026 c -0.73412,-0.623314 -1.95304,0.04155 -1.82837,0.997312 0.12468,0.95576 1.5929,2.20236 2.20236,1.869908 0.60946,-0.332452 0.36014,-2.243907 -0.37399,-2.86722 z"
         id="path13"
         transform="translate(-0.91090615,-2.2349799)" />
    </g>
    <path
       style="fill:#8c1010;fill-opacity:1;stroke:#000000;stroke-width:3.70417;stroke-linejoin:round;stroke-dasharray:none;stroke-opacity:1;paint-order:stroke fill markers"
       d="m 115.13282,81.68169 c 0.88649,0.5125 2.13309,0.429394 2.70101,-0.235486 0.56792,-0.664881 0.45711,-1.911456 -0.4294,-2.423968 -0.88651,-0.512511 -2.54861,-0.290898 -3.11653,0.373981 -0.56792,0.66488 -0.0416,1.772972 0.84492,2.285473 z"
       id="path14"
       transform="translate(-8.4280378,40.227632)" />
  </g>
  <g
     id="layer3"
     style="display:inline">
    <path
       style="display:inline;fill:#8c1010;fill-opacity:1;stroke:#000000;stroke-width:3.70417;stroke-linejoin:round;stroke-dasharray:none;stroke-opacity:1;paint-order:stroke fill markers"
       d="m 17.293108,25.244261 c -0.04379,0.645735 -0.131358,1.937178 0.240286,3.093988 0.371644,1.15681 1.202454,2.178868 3.368422,3.957516 2.165968,1.778648 5.666828,4.313668 12.313447,9.127854 6.646618,4.814186 16.438198,11.90696 29.21419,22.370067 12.775992,10.463108 28.534858,24.295289 37.978297,31.464363 9.44344,7.169071 12.5703,7.674171 14.91041,7.581391 2.34011,-0.0928 3.89321,-0.78341 5.19436,-1.88053 1.30115,-1.097116 2.3503,-2.600709 2.34124,-3.871984 -0.009,-1.271275 -1.07633,-2.310236 -2.33461,-2.928043 -1.25827,-0.617808 -2.70753,-0.814455 -3.84302,-0.446203 -1.13548,0.368251 -1.95718,1.301396 -1.79613,1.650612 0.16106,0.349216 1.30487,0.114492 2.47105,0.378152 1.16618,0.26366 2.35473,1.025703 2.13158,2.03338 -0.22315,1.007676 -1.858,2.260956 -4.0609,2.500516 -2.2029,0.23955 -4.97386,-0.534607 -14.13378,-7.565296 C 92.128021,85.679356 76.596713,72.407102 65.477359,63.181415 54.358005,53.955728 47.708296,48.823935 41.173886,43.998507 34.639475,39.173078 27.402297,34.080098 24.404121,31.709819 c -2.998176,-2.37028 -3.621145,-3.492114 -3.802476,-4.441115 -0.181332,-0.949001 0.0048,-1.858666 0.558736,-2.548935 0.553897,-0.690269 1.475497,-1.161122 2.499198,-1.093303 1.023701,0.06782 2.148585,0.673847 2.726766,0.809461 0.578181,0.135613 0.607896,-0.199728 0.645133,-0.621724 0.03724,-0.421996 0.08199,-0.930621 0.103378,-1.30725 0.02139,-0.376629 0.01935,-0.620348 -0.565146,-0.886624 -0.584499,-0.266275 -1.751417,-0.554913 -2.998544,-0.587791 -1.247127,-0.03288 -2.574351,0.190012 -3.654422,0.86437 -1.080071,0.674357 -1.785289,1.627608 -2.182568,2.164613 -0.397278,0.537005 -0.397281,0.537005 -0.441068,1.18274 z"
       id="path4"
       transform="translate(6.2581535,-4.2672124)" />
  </g>
</svg>
