<svg xmlns="http://www.w3.org/2000/svg" xml:space="preserve" width="48" height="48" viewBox="0 0 173.397 173.397"><path d="m99.483 60.537.17.338v.085c-.727.666-1.271 1.915-1.715 2.794-.184.365-.386 1.057-.752 1.268-.464.266-1.401.214-1.936.28-1.528.188-3.335.351-4.741 1.02-3.055 1.451-3.252 5.236-3.576 8.181-.147 1.333-.293 2.79.189 4.068-2.622-.489-4.671 1.23-6.689 2.626-.582.404-1.406 1.276-2.116 1.392-.414.067-.91-.313-1.27-.474-1.011-.45-2.147-.733-3.124-1.241-.507-.265-.501-1.367-.602-1.88-.332-1.704-.41-3.641-1.115-5.25-1.284-2.926-4.246-3.28-7.013-3.676-1.814-.26-3.767-.543-5.588-.162-.597.125-1.31.224-1.862.486-2.268 1.08-3.01 3.377-3.806 5.554-.305.836-.487 2.47-1.147 3.085-.305.283-.923.269-1.313.357-1.046.236-2.147.648-3.21.766-.395.043-.69-.403-.938-.652-.727-.727-1.43-1.497-2.202-2.177-2.357-2.08-4.567-3.191-7.704-2.162-1.071.351-2.072 1.043-3.048 1.594-2.752 1.551-6.07 3.561-6.081 7.148-.006 1.68.851 3.655 1.341 5.249.201.653.722 1.535.225 2.12-.736.867-1.45 1.754-2.185 2.621-.244.288-.53.816-.924.901-.718.156-1.879-.28-2.621-.368-3.186-.377-6.387-.718-8.516 2.261-.836 1.171-1.314 2.42-1.886 3.726-1.4 3.19-2.46 6.577-.053 9.567.958 1.19 2.53 2.106 3.766 2.988.462.33 1.363.774 1.378 1.415.027 1.126-.199 2.273-.337 3.386-.048.382.028.994-.245 1.301-.57.641-1.902 1.026-2.658 1.435-1.178.637-2.578 1.24-3.542 2.19-1.07 1.055-1.587 2.668-1.752 4.134-.126 1.119.39 2.554.647 3.64.691 2.917 1.073 6.686 4.139 8.136 1.654.782 3.718.754 5.503.754.682 0 2.01-.255 2.609.087.407.233.595.873.8 1.268.464.9 1.16 1.655 1.634 2.54.416.775-.955 2.553-1.282 3.302-1.07 2.452-2.328 5.094-.79 7.705.802 1.36 2.04 2.37 3.21 3.4 2.653 2.335 5.598 4.805 9.313 3.367 1.45-.561 2.882-1.897 4.149-2.8.435-.31 1.12-1.054 1.693-.847 1.056.38 2.086.915 3.133 1.333.344.138.97.24 1.184.565.39.593.422 1.899.52 2.602.277 1.979.51 4.457 2.029 5.91 1.601 1.533 3.727 1.859 5.834 2.063 3.084.298 6.404.895 8.973-1.312 1.533-1.317 2.035-3.651 2.685-5.476.265-.744.67-1.502.788-2.286 1.083-.047 2.171-.405 3.217-.667.4-.1 1.03-.39 1.44-.283.547.143 1.032.906 1.439 1.274 1.332 1.206 2.529 2.717 4.149 3.56 3.538 1.84 7.472-.87 10.329-2.783 1.275-.855 2.604-1.706 3.302-3.133 1.14-2.328.265-4.804-.399-7.112-.196-.683-.8-1.836-.691-2.54.062-.4.567-.797.814-1.1.696-.856 1.397-1.977 2.238-2.683.505-.423 1.446-.06 2.017.057 1.403.286 3.322.753 4.742.569.776-.101 1.748-.284 2.455-.622 2.16-1.035 3.004-3.325 3.92-5.365.76-1.69 1.539-3.559 1.738-5.419.355-3.314-2.02-5.128-4.388-6.91-.636-.48-1.782-1.04-2.21-1.71-.201-.313-.009-.854.008-1.201a32.53 32.53 0 0 1 .351-3.47c.098-.605 1.198-.943 1.681-1.206 1.545-.84 3.486-1.59 4.727-2.867 2.501-2.577 1.404-6.26.682-9.306-.332-1.402-.666-2.833-1.26-4.148 1.145-.266 1.451.09 2.455.663.626.357 2.045.75 2.457 1.32.337.466.196 1.363.292 1.911.38 2.164.236 4.523 1.867 6.238.94.989 2.245 1.31 3.512 1.626 3.114.777 7.512 1.547 10.145-.73 1.014-.878 1.427-2.207 1.883-3.408.434-1.143.972-2.347 1.18-3.556 1.039-.046 2.142-.432 3.133-.733.383-.117 1.05-.45 1.44-.391.483.072.973.707 1.354.994 1.155.872 2.41 2.231 3.81 2.688 3.392 1.106 5.975-.65 8.49-2.78 1.972-1.67 3.45-2.971 3.917-5.62.338-1.922-1.258-4.153-1.972-5.842-.166-.394-.505-.835-.537-1.27-.03-.414.418-.858.626-1.186.564-.886.938-1.924 1.53-2.781.35-.51 1.447-.403 2-.444 1.519-.11 3.239-.26 4.657-.856 2.952-1.238 3.337-4.84 3.665-7.603.142-1.198.296-2.522.108-3.725-.108-.692-.247-1.571-.555-2.201-.911-1.861-2.847-2.527-4.657-3.18-.819-.297-2.3-.48-2.92-1.108-.326-.33-.368-1.035-.468-1.47-.21-.918-.596-1.795-.826-2.71-.152-.603.456-1.084.787-1.523.904-1.198 2.197-2.348 2.819-3.725 1.52-3.367-.545-6.076-2.621-8.588-.707-.855-1.334-1.83-2.193-2.545-1.956-1.626-4.518-1.815-6.77-.7-.92.455-1.892.792-2.794 1.286-.464.254-.917.606-1.44.328-.894-.476-1.725-1.058-2.624-1.531-.343-.181-.963-.357-1.158-.708-.35-.625-.22-1.74-.296-2.444-.16-1.473-.404-3.391-1.217-4.656-1.576-2.452-4.576-2.725-7.235-2.978-1.081-.103-2.123-.309-3.217-.232-2.921.205-4.674 1.878-5.588 4.564-.3.881-.595 1.762-.943 2.625-.134.332-.182.798-.454 1.053-.468.437-1.557.449-2.16.64 1.867-3.277 4.576-7.346 1.862-10.918-.83-1.093-2.218-1.862-3.293-2.7-.375-.293-1.134-.674-1.166-1.199-.06-.974.172-1.982.032-2.963-.078-.548-.421-1.328-.154-1.862.607-1.21 2.186-2.171 3.1-3.169 1.512-1.652 1.83-4.275.985-6.314-1.247-3.011-4.174-7.895-8.054-7.34-1.474.21-2.956.734-4.318 1.318-.484.207-1.244.801-1.778.545-.989-.475-1.834-1.178-2.879-1.577-.433-.166-1.33-.359-1.595-.759-.325-.495-.415-1.35-.539-1.924-.34-1.574-.611-3.505-1.788-4.691-1.993-2.01-4.942-1.749-7.507-1.504-.855.082-1.61.078-2.456.278-1.192.283-2.37.554-3.274 1.458-1.444 1.443-1.517 3.826-1.77 5.73-.067.508.03 1.118-.183 1.599-.166.377-.792.58-1.123.8-.997.662-2.137 1.76-3.217 2.222-.322.138-.698-.058-1.016-.134a34.597 34.597 0 0 1-2.455-.706c-2.308-.741-4.826-.605-6.492 1.383-2.398 2.861-5.188 8.171-2.576 11.6.786 1.03 2.008 1.884 3.056 2.636.439.314 1.266.7 1.413 1.261.145.555-.033 1.21-.037 1.775-.005.652.176 1.3.233 1.947.033.376.242.914.079 1.27-.204.447-.735.747-1.087 1.066-.612.555-1.182 1.183-1.77 1.764-1.06 1.047-1.648 2.489-1.853 3.944-.18 1.272.524 2.827 1.136 3.894 1.537 2.682 3.758 6.333 7.305 6.178 1.413-.062 2.875-.72 4.149-1.279.493-.216 1.367-.802 1.911-.732.521.068 1.111.63 1.56.89.904.52 1.868.832 2.79 1.298.565.285.546 1.063.71 1.604.455 1.49.588 3.166 1.474 4.487 1.775 2.646 4.824 2.57 7.641 2.3 2.077-.198 3.72-.305 5.588-1.368M90.675 25.09c3.023-.374 6.277.909 7.838 3.611 2.574 4.458.107 10.78-5.295 11.49a7.84 7.84 0 0 1-8.628-5.73c-1.087-3.995 1.872-8.85 6.085-9.371m34.547 38.349c1.923-.227 4.128.46 5.842 1.264 5.628 2.638 8.885 8.28 8.46 14.46-.467 6.773-6.134 12.312-12.778 13.023-1.87.2-3.858.127-5.673-.411-9.382-2.783-13.285-14.278-7.798-22.265 1.839-2.677 5.11-4.997 8.306-5.713 1.209-.271 2.424-.215 3.641-.358M59.605 96.883c3.104-.366 6.674.608 9.483 1.85a24.094 24.094 0 0 1 8.064 5.76c5.14 5.552 7.215 14.103 5.216 21.406-1.601 5.848-5.482 10.883-10.655 14.004-2.413 1.456-5.393 2.693-8.213 3-5.62.61-11.39-.315-16.171-3.487-4.747-3.149-8.542-8.269-9.864-13.855-1.897-8.018.59-16.788 6.646-22.43 2.828-2.633 6.455-4.762 10.245-5.66 1.748-.414 3.484-.38 5.25-.588z" style="display:inline;fill:#fff;fill-opacity:1;fill-rule:nonzero;stroke:none"/><path d="m99.483 60.537.17.338v.085c-.727.666-1.271 1.915-1.715 2.794-.184.365-.386 1.057-.752 1.268-.464.266-1.401.214-1.936.28-1.528.188-3.335.351-4.741 1.02-3.055 1.451-3.252 5.236-3.576 8.181-.147 1.333-.293 2.79.189 4.068-2.622-.489-4.671 1.23-6.689 2.626-.582.404-1.406 1.276-2.116 1.392-.414.067-.91-.313-1.27-.474-1.011-.45-2.147-.733-3.124-1.241-.507-.265-.501-1.367-.602-1.88-.332-1.704-.41-3.641-1.115-5.25-1.284-2.926-4.246-3.28-7.013-3.676-1.814-.26-3.767-.543-5.588-.162-.597.125-1.31.224-1.862.486-2.268 1.08-3.01 3.377-3.806 5.554-.305.836-.487 2.47-1.147 3.085-.305.283-.923.269-1.313.357-1.046.236-2.147.648-3.21.766-.395.043-.69-.403-.938-.652-.727-.727-1.43-1.497-2.202-2.177-2.357-2.08-4.567-3.191-7.704-2.162-1.071.351-2.072 1.043-3.048 1.594-2.752 1.551-6.07 3.561-6.081 7.148-.006 1.68.851 3.655 1.341 5.249.201.653.722 1.535.225 2.12-.736.867-1.45 1.754-2.185 2.621-.244.288-.53.816-.924.901-.718.156-1.879-.28-2.621-.368-3.186-.377-6.387-.718-8.516 2.261-.836 1.171-1.314 2.42-1.886 3.726-1.4 3.19-2.46 6.577-.053 9.567.958 1.19 2.53 2.106 3.766 2.988.462.33 1.363.774 1.378 1.415.027 1.126-.199 2.273-.337 3.386-.048.382.028.994-.245 1.301-.57.641-1.902 1.026-2.658 1.435-1.178.637-2.578 1.24-3.542 2.19-1.07 1.055-1.587 2.668-1.752 4.134-.126 1.119.39 2.554.647 3.64.691 2.917 1.073 6.686 4.139 8.136 1.654.782 3.718.754 5.503.754.682 0 2.01-.255 2.609.087.407.233.595.873.8 1.268.464.9 1.16 1.655 1.634 2.54.416.775-.955 2.553-1.282 3.302-1.07 2.452-2.328 5.094-.79 7.705.802 1.36 2.04 2.37 3.21 3.4 2.653 2.335 5.598 4.805 9.313 3.367 1.45-.561 2.882-1.897 4.149-2.8.435-.31 1.12-1.054 1.693-.847 1.056.38 2.086.915 3.133 1.333.344.138.97.24 1.184.565.39.593.422 1.899.52 2.602.277 1.979.51 4.457 2.029 5.91 1.601 1.533 3.727 1.859 5.834 2.063 3.084.298 6.404.895 8.973-1.312 1.533-1.317 2.035-3.651 2.685-5.476.265-.744.67-1.502.788-2.286 1.083-.047 2.171-.405 3.217-.667.4-.1 1.03-.39 1.44-.283.547.143 1.032.906 1.439 1.274 1.332 1.206 2.529 2.717 4.149 3.56 3.538 1.84 7.472-.87 10.329-2.783 1.275-.855 2.604-1.706 3.302-3.133 1.14-2.328.265-4.804-.399-7.112-.196-.683-.8-1.836-.691-2.54.062-.4.567-.797.814-1.1.696-.856 1.397-1.977 2.238-2.683.505-.423 1.446-.06 2.017.057 1.403.286 3.322.753 4.742.569.776-.101 1.748-.284 2.455-.622 2.16-1.035 3.004-3.325 3.92-5.365.76-1.69 1.539-3.559 1.738-5.419.355-3.314-2.02-5.128-4.388-6.91-.636-.48-1.782-1.04-2.21-1.71-.201-.313-.009-.854.008-1.201a32.53 32.53 0 0 1 .351-3.47c.098-.605 1.198-.943 1.681-1.206 1.545-.84 3.486-1.59 4.727-2.867 2.501-2.577 1.404-6.26.682-9.306-.332-1.402-.666-2.833-1.26-4.148 1.145-.266 1.451.09 2.455.663.626.357 2.045.75 2.457 1.32.337.466.196 1.363.292 1.911.38 2.164.236 4.523 1.867 6.238.94.989 2.245 1.31 3.512 1.626 3.114.777 7.512 1.547 10.145-.73 1.014-.878 1.427-2.207 1.883-3.408.434-1.143.972-2.347 1.18-3.556 1.039-.046 2.142-.432 3.133-.733.383-.117 1.05-.45 1.44-.391.483.072.973.707 1.354.994 1.155.872 2.41 2.231 3.81 2.688 3.392 1.106 5.975-.65 8.49-2.78 1.972-1.67 3.45-2.971 3.917-5.62.338-1.922-1.258-4.153-1.972-5.842-.166-.394-.505-.835-.537-1.27-.03-.414.417-.858.626-1.186.564-.886.938-1.924 1.53-2.781.35-.51 1.447-.403 2-.444 1.519-.11 3.239-.26 4.657-.856 2.952-1.238 3.337-4.84 3.665-7.603.142-1.198.296-2.522.108-3.725-.108-.692-.247-1.571-.555-2.201-.911-1.861-2.847-2.527-4.657-3.18-.819-.297-2.3-.48-2.92-1.108-.326-.33-.368-1.035-.468-1.47-.21-.918-.596-1.795-.826-2.71-.152-.603.456-1.084.787-1.523.904-1.198 2.197-2.348 2.819-3.725 1.52-3.367-.545-6.076-2.621-8.588-.707-.855-1.334-1.83-2.193-2.545-1.956-1.626-4.518-1.815-6.77-.7-.92.455-1.892.792-2.794 1.286-.464.254-.917.606-1.44.328-.894-.476-1.725-1.058-2.624-1.531-.343-.181-.963-.357-1.158-.708-.35-.625-.22-1.74-.296-2.444-.16-1.473-.404-3.391-1.217-4.656-1.576-2.452-4.576-2.725-7.235-2.978-1.081-.103-2.123-.309-3.217-.232-2.921.205-4.674 1.878-5.588 4.564-.3.881-.595 1.762-.943 2.625-.134.332-.182.798-.454 1.053-.468.437-1.557.449-2.16.64 1.867-3.277 4.576-7.346 1.862-10.918-.83-1.093-2.218-1.862-3.293-2.7-.375-.293-1.134-.674-1.166-1.199-.06-.974.172-1.982.032-2.963-.078-.548-.421-1.328-.154-1.862.607-1.21 2.186-2.171 3.1-3.169 1.512-1.652 1.83-4.275.985-6.314-1.247-3.011-4.174-7.895-8.054-7.34-1.474.21-2.956.734-4.318 1.318-.484.207-1.244.801-1.778.545-.989-.475-1.834-1.178-2.879-1.577-.433-.166-1.33-.359-1.595-.759-.325-.495-.415-1.35-.539-1.924-.34-1.574-.611-3.505-1.788-4.691-1.993-2.01-4.942-1.749-7.507-1.504-.855.082-1.61.078-2.456.278-1.192.283-2.37.554-3.274 1.458-1.444 1.443-1.517 3.826-1.77 5.73-.067.508.03 1.118-.183 1.599-.166.377-.792.58-1.123.8-.997.662-2.137 1.76-3.217 2.222-.322.138-.698-.058-1.016-.134a34.597 34.597 0 0 1-2.455-.706c-2.308-.741-4.826-.605-6.492 1.383-2.398 2.861-5.188 8.171-2.576 11.6.786 1.03 2.008 1.884 3.056 2.636.439.314 1.266.7 1.413 1.261.145.555-.033 1.21-.037 1.775-.005.652.176 1.3.233 1.947.033.376.242.914.079 1.27-.204.447-.735.747-1.087 1.066-.612.555-1.182 1.183-1.77 1.764-1.06 1.047-1.648 2.489-1.853 3.944-.18 1.272.524 2.827 1.136 3.894 1.537 2.682 3.758 6.333 7.305 6.178 1.413-.062 2.875-.72 4.149-1.279.493-.216 1.367-.802 1.911-.732.521.068 1.111.63 1.56.89.904.52 1.868.832 2.79 1.298.565.285.546 1.063.71 1.604.455 1.49.588 3.166 1.474 4.487 1.775 2.646 4.824 2.57 7.641 2.3 2.077-.198 3.72-.305 5.588-1.368M90.678 7.475c.81-.105 2.68-.297 3.369.208.478.351.51 1.187.66 1.715.37 1.313.68 2.654 1.01 3.98.193.766.435 1.577 1.226 1.929.508.225 1.087.246 1.609.43 1.036.363 2.028.9 2.963 1.468.734.445 1.536 1.403 2.456 1.391.502-.006.982-.33 1.439-.504 1.198-.458 2.346-1.039 3.556-1.471.597-.214 1.302-.626 1.947-.364.504.204.904.777 1.243 1.184.798.96 1.52 2.07 2.01 3.218.218.508.442 1.063.2 1.608-.632 1.42-2.523 2.652-3.622 3.724-.497.486-1.242 1.007-1.254 1.78-.011.65.268 1.31.37 1.947.18 1.115.276 2.257.2 3.387-.061.877-.45 2.11.127 2.878.971 1.293 2.757 2.263 4.028 3.254.526.41 1.385.847 1.492 1.572.116.786-.556 1.85-.873 2.54-.444.968-1.196 3.03-2.235 3.484-.557.243-1.232-.086-1.77-.226-1.28-.333-2.532-.754-3.81-1.088-.48-.125-1.022-.448-1.524-.346-1.117.229-2.086 1.528-2.964 2.198-1.15.879-2.533 1.29-3.725 2.071-.847.556-.848 1.475-.956 2.374a89.65 89.65 0 0 1-.561 3.81c-.072.44-.007 1.063-.305 1.421-.325.392-1.083.53-1.565.597-1.25.174-2.901.355-4.148.208-.52-.062-1.03-.012-1.404-.457-.458-.544-.612-1.515-.751-2.192-.187-.911-.501-1.797-.686-2.71-.185-.913-.387-1.92-1.308-2.367-1.556-.754-3.149-1.223-4.657-2.121-.697-.416-1.518-1.28-2.37-1.289-1.526-.015-3.443 1.254-4.826 1.834-.627.263-1.419.72-2.117.484-.622-.21-1.089-.961-1.485-1.451-.673-.833-1.206-1.782-1.732-2.71-.23-.403-.55-.868-.48-1.354.114-.78.715-1.266 1.242-1.78.842-.822 1.708-1.621 2.54-2.454.633-.634 1.243-1.24 1.177-2.201-.101-1.482-.545-2.893-.525-4.403.013-.98.381-2.3-.053-3.217-.331-.7-1.089-1.155-1.7-1.585-.847-.596-1.642-1.258-2.455-1.896-.46-.361-1.28-.815-1.405-1.43-.232-1.132 1-2.94 1.515-3.894.35-.647.839-1.823 1.506-2.187.618-.336 1.513.088 2.109.28 1.14.368 2.321.64 3.471.975.455.133 1.052.485 1.524.462.753-.037 1.406-.96 1.948-1.393.987-.787 2.026-1.532 3.132-2.145.601-.333 1.323-.51 1.86-.948.603-.493.626-1.195.744-1.902.213-1.272.34-2.533.505-3.81.08-.614.049-1.466.55-1.912.787-.701 2.553-.476 3.538-.604m-.254 13.39c-1.799.283-3.579.947-5.08 1.979-5.504 3.782-6.932 11.893-2.677 17.203 1.487 1.857 3.549 3.024 5.725 3.85 1.57.595 3.583.744 5.25.494a12.542 12.542 0 0 0 4.995-1.908c1.023-.672 1.891-1.563 2.642-2.52 4.533-5.781 2.683-14.26-3.743-17.768a10.207 10.207 0 0 0-3.895-1.212c-1.034-.11-2.18-.281-3.217-.118m.25 4.226c3.024-.374 6.278.909 7.839 3.611 2.574 4.458.107 10.78-5.295 11.49a7.84 7.84 0 0 1-8.628-5.73c-1.087-3.995 1.872-8.85 6.085-9.371m35.14 18.708c1.699-.235 3.57.247 5.249.468.721.095 1.544.213 1.899.945.739 1.524.589 3.837.786 5.503.074.621.008 1.315.36 1.863.526.818 1.63 1.06 2.458 1.461 1.592.77 2.98 2.015 4.572 2.728.742.333 1.436-.007 2.117-.32 1.305-.602 2.594-1.236 3.895-1.845.953-.446 1.842-1.027 2.77-.21 1.245 1.099 2.382 2.664 3.324 4.028.344.5.813 1.134.606 1.778-.197.614-.762 1.122-1.161 1.609-.706.86-1.345 1.78-2.068 2.624-.456.533-1.078 1.16-1.247 1.863-.196.817.289 1.615.513 2.37.343 1.154.78 2.3 1.053 3.472.169.727.132 1.501.405 2.2.31.79 1.186.993 1.9 1.272 1.309.51 2.658.924 3.98 1.402.592.214 1.328.345 1.723.887.351.482.224 1.211.224 1.774 0 1.617-.045 3.745-.695 5.25-.418.967-1.347 1.011-2.268 1.124-1.73.213-4.07-.034-5.672.684-.874.392-1.1 1.544-1.466 2.34-.778 1.693-1.966 3.111-2.825 4.742-.477.904.1 1.725.501 2.54.562 1.143 1.027 2.328 1.585 3.471.264.54.763 1.241.748 1.863-.015.592-.616 1.057-.999 1.439-1.053 1.049-2.325 2.017-3.556 2.85-1.436.97-2.355.291-3.556-.666-1.292-1.03-2.77-2.667-4.318-3.267-.683-.264-1.565.248-2.201.486-1.166.436-2.337.848-3.556 1.115-.72.157-1.517.128-2.202.431-.655.29-.942.973-1.209 1.591-.6 1.392-.978 2.896-1.516 4.318-.288.759-.55 1.872-1.508 2.013-.516.076-1.016-.107-1.524-.143-1.368-.096-2.718-.12-4.064-.442-.609-.145-1.349-.29-1.638-.92-.296-.647-.26-1.505-.317-2.201-.088-1.1-.26-2.208-.392-3.302-.07-.596.001-1.33-.309-1.862-.454-.778-1.647-1.117-2.424-1.467-1.646-.74-3.031-2.006-4.657-2.723-.809-.357-1.644.086-2.37.443a78.496 78.496 0 0 1-3.726 1.727c-.506.216-1.045.639-1.608.653-.494.012-.912-.329-1.256-.645-1.172-1.08-2.252-2.49-3.11-3.831-.314-.49-.783-1.07-.613-1.693.22-.803.956-1.508 1.483-2.117.72-.832 1.375-1.745 2.035-2.625.345-.46.872-.944 1.004-1.524.206-.906-.522-2.044-.83-2.878-.584-1.588-.592-3.353-1.149-4.911-.33-.922-1.307-1.179-2.136-1.465-1.332-.46-2.665-.92-3.98-1.43-.559-.216-1.268-.41-1.638-.919-.378-.519-.155-1.187-.14-1.774.037-1.604.057-3.679.722-5.165.403-.9 1.391-.929 2.242-1.052.957-.139 1.912-.313 2.878-.38.895-.06 1.955-.01 2.794-.377.87-.38 1.104-1.466 1.466-2.255.786-1.712 2.038-3.157 2.853-4.826.423-.867-.102-1.762-.488-2.54-.557-1.125-1.104-2.256-1.651-3.386-.3-.62-.689-1.236-.673-1.948.014-.685.736-1.221 1.203-1.633 1.224-1.077 2.51-2.17 3.894-3.044.974-.614 1.702.16 2.456.747 1.382 1.075 2.948 2.84 4.572 3.486.912.363 1.713-.165 2.54-.482a23.822 23.822 0 0 1 3.64-1.062c.654-.135 1.32-.068 1.948-.328.856-.355 1.066-1.117 1.359-1.917.474-1.296.93-2.597 1.4-3.895.307-.85.493-1.942 1.558-2.09m-8.974 4.63-.085.085.085-.085m7.62 10.79c-1.476.183-2.96.218-4.403.633-4.98 1.433-9.384 4.987-11.662 9.66-3.972 8.15-1.492 18.413 5.99 23.64 2.127 1.488 4.493 2.473 7.027 2.983 1.785.359 3.604.491 5.419.276 1.821-.216 3.624-.501 5.334-1.2 5.911-2.413 10.396-7.94 11.392-14.27 1.442-9.154-4.025-18.152-12.916-20.914-1.9-.59-4.185-1.057-6.181-.809m.762 4.222c1.923-.227 4.128.46 5.842 1.264 5.628 2.638 8.885 8.28 8.46 14.46-.467 6.773-6.134 12.312-12.778 13.023-1.87.2-3.858.127-5.673-.411-9.382-2.783-13.285-14.278-7.798-22.265 1.839-2.677 5.11-4.997 8.306-5.713 1.209-.271 2.424-.215 3.641-.358m-64.77 10.583c1.854-.222 3.755.15 5.588.375.856.105 1.795.21 2.279 1.04.31.533.371 1.266.497 1.863.313 1.481.466 3 .763 4.487.119.595.12 1.445.484 1.946.533.736 1.693.853 2.496 1.131 1.875.649 3.57 1.787 5.419 2.43.97.336 1.826-.474 2.54-1.009 1.238-.927 2.531-1.794 3.81-2.664.95-.648 1.821-1.284 2.963-.608.875.517 1.687 1.224 2.456 1.884.959.822 2.53 1.876 3.028 3.07.381.915-.197 1.915-.594 2.71-.689 1.378-1.413 2.745-2.048 4.149-.256.566-.638 1.044-.638 1.693 0 .934.807 1.719 1.296 2.455.66.996 1.324 1.997 1.893 3.048.37.684.633 1.489 1.096 2.116.638.864 1.798.678 2.74.678 1.359 0 2.705.085 4.064.085.905 0 1.85-.085 2.624.477.63.458.734 1.2.96 1.894.564 1.736 1.285 4.001 1.15 5.842-.086 1.166-1.108 1.58-2.025 2.054-1.195.617-2.352 1.302-3.556 1.904-.624.312-1.434.56-1.938 1.053-.69.675-.517 1.899-.517 2.778 0 2.027-.58 4.006-.669 6.011-.043.998.979 1.654 1.685 2.19 1.098.835 2.2 1.67 3.302 2.499.561.421 1.309.834 1.723 1.41.446.622.215 1.618-.001 2.283-.595 1.825-1.331 3.777-2.332 5.419-.781 1.283-2.007 1.028-3.284.798a58.568 58.568 0 0 0-4.488-.643c-.528-.053-1.167-.296-1.693-.191-.858.17-1.412 1.259-1.894 1.899-1.269 1.684-2.891 3.086-4.169 4.741-.635.824-.02 1.927.25 2.794.404 1.293.76 2.6 1.159 3.895.253.823.6 1.758.34 2.624-.35 1.168-2.41 2.099-3.39 2.704-1.134.7-2.843 1.939-4.234 1.67-.748-.144-1.431-.98-1.947-1.495a196.916 196.916 0 0 0-3.048-2.967c-.436-.416-.867-1.034-1.44-1.266-.78-.315-1.793.246-2.54.459-1.993.568-4.14.666-6.096 1.302-.959.312-1.056 1.395-1.326 2.218a89.604 89.604 0 0 1-1.857 5.08c-.32.803-.8 1.493-1.727 1.594-1.957.213-3.99-.163-5.927-.396-.79-.094-1.758-.349-2.164-1.114-.315-.593-.358-1.458-.467-2.116-.224-1.352-.408-2.72-.671-4.064-.125-.638-.134-1.502-.543-2.03-.576-.743-1.754-.858-2.59-1.161-1.81-.658-3.46-1.68-5.249-2.357-1.266-.48-2.096.49-2.963 1.187-1.106.887-2.32 1.627-3.472 2.45-.913.652-1.659 1.297-2.794.698-.908-.48-1.674-1.244-2.455-1.899-.97-.813-2.52-1.83-3.084-2.984-.512-1.045.062-1.95.523-2.879.614-1.237 1.202-2.489 1.82-3.725.324-.647.82-1.37.823-2.117.004-1.034-.962-2.076-1.533-2.878-1.008-1.416-1.654-3.019-2.568-4.488-.624-1.003-1.704-.931-2.754-.931-1.603 0-3.231.082-4.826-.07-1.163-.111-2.038-.055-2.598-1.285-.787-1.726-1.083-3.817-1.417-5.672-.155-.858-.323-1.75.39-2.428 1.18-1.123 3.332-1.97 4.81-2.65.784-.36 1.98-.792 2.48-1.528.473-.694.183-1.828.237-2.623.126-1.842.46-3.672.655-5.503.127-1.19-.751-1.805-1.594-2.489-1.18-.957-2.46-1.78-3.64-2.739-1.108-.899-1.93-1.533-1.567-3.07.416-1.755 1.297-3.66 2.14-5.249.358-.673.917-1.354 1.712-1.496 1.91-.342 4.28.454 6.181.71.823.111 1.924.426 2.624-.165.535-.452.87-1.133 1.31-1.674.948-1.169 1.857-2.32 2.924-3.386.563-.564 1.4-1.151 1.378-2.032-.017-.67-.347-1.314-.531-1.948a212.39 212.39 0 0 0-1.214-4.064c-.312-1-.75-2.042-.011-2.96 1.214-1.507 3.671-2.56 5.373-3.41.726-.363 1.506-.73 2.286-.278 1.64.95 2.99 2.697 4.318 4.024.538.536 1.28 1.47 2.032 1.676.76.209 1.98-.488 2.71-.716 1.856-.579 3.819-.643 5.672-1.176.967-.277 1.123-1.507 1.414-2.324.47-1.321.936-2.649 1.38-3.98.42-1.255.829-2.426 2.286-2.6m34.544 9.797.254.339-.254-.339m-35.645 8.841c-2.08.273-4.123.261-6.18.801-7.021 1.843-13.277 6.47-16.897 12.795-6.245 10.91-4.182 25.44 5.213 33.937 3.534 3.196 7.834 5.349 12.446 6.502 3.03.757 6.64.838 9.736.43 12.074-1.592 22.685-12.108 23.53-24.444.196-2.864.086-5.921-.555-8.72-2.177-9.503-9.277-17.181-18.572-20.069-2.66-.826-5.919-1.6-8.72-1.232m.253 4.222c3.104-.366 6.674.608 9.483 1.85a24.094 24.094 0 0 1 8.064 5.76c5.14 5.552 7.215 14.103 5.216 21.406-1.601 5.848-5.482 10.883-10.655 14.004-2.413 1.456-5.393 2.693-8.213 3-5.62.61-11.39-.315-16.171-3.487-4.747-3.149-8.542-8.269-9.864-13.855-1.897-8.018.59-16.788 6.646-22.43 2.828-2.633 6.455-4.762 10.245-5.66 1.748-.414 3.484-.38 5.25-.588z" style="display:inline;fill:#0B0B0B;fill-opacity:1;fill-rule:nonzero;stroke:none"/></svg>